  0
SECTION
  2
HEADER
  9
$ACADVER
  1
AC1009
  0
ENDSEC
  0
SECTION
  2
ENTITIES
  0
LINE
  8
0
 10
492.0
 20
522.0
 30
0.0
 11
536.0
 21
522.0
 31
0.0
  0
LINE
  8
0
 10
536.0
 20
522.0
 30
0.0
 11
536.0
 21
521.0
 31
0.0
  0
LINE
  8
0
 10
536.0
 20
521.0
 30
0.0
 11
492.0
 21
521.0
 31
0.0
  0
LINE
  8
0
 10
492.0
 20
521.0
 30
0.0
 11
492.0
 21
522.0
 31
0.0
  0
LINE
  8
0
 10
491.0
 20
521.0
 30
0.0
 11
538.0
 21
521.0
 31
0.0
  0
LINE
  8
0
 10
538.0
 20
521.0
 30
0.0
 11
538.0
 21
520.0
 31
0.0
  0
LINE
  8
0
 10
538.0
 20
520.0
 30
0.0
 11
491.0
 21
520.0
 31
0.0
  0
LINE
  8
0
 10
491.0
 20
520.0
 30
0.0
 11
491.0
 21
521.0
 31
0.0
  0
LINE
  8
0
 10
491.0
 20
520.0
 30
0.0
 11
538.0
 21
520.0
 31
0.0
  0
LINE
  8
0
 10
538.0
 20
520.0
 30
0.0
 11
538.0
 21
519.0
 31
0.0
  0
LINE
  8
0
 10
538.0
 20
519.0
 30
0.0
 11
491.0
 21
519.0
 31
0.0
  0
LINE
  8
0
 10
491.0
 20
519.0
 30
0.0
 11
491.0
 21
520.0
 31
0.0
  0
LINE
  8
0
 10
492.0
 20
519.0
 30
0.0
 11
537.0
 21
519.0
 31
0.0
  0
LINE
  8
0
 10
537.0
 20
519.0
 30
0.0
 11
537.0
 21
518.0
 31
0.0
  0
LINE
  8
0
 10
537.0
 20
518.0
 30
0.0
 11
492.0
 21
518.0
 31
0.0
  0
LINE
  8
0
 10
492.0
 20
518.0
 30
0.0
 11
492.0
 21
519.0
 31
0.0
  0
LINE
  8
0
 10
499.0
 20
518.0
 30
0.0
 11
534.0
 21
518.0
 31
0.0
  0
LINE
  8
0
 10
534.0
 20
518.0
 30
0.0
 11
534.0
 21
517.0
 31
0.0
  0
LINE
  8
0
 10
534.0
 20
517.0
 30
0.0
 11
499.0
 21
517.0
 31
0.0
  0
LINE
  8
0
 10
499.0
 20
517.0
 30
0.0
 11
499.0
 21
518.0
 31
0.0
  0
LINE
  8
0
 10
504.0
 20
517.0
 30
0.0
 11
527.0
 21
517.0
 31
0.0
  0
LINE
  8
0
 10
527.0
 20
517.0
 30
0.0
 11
527.0
 21
516.0
 31
0.0
  0
LINE
  8
0
 10
527.0
 20
516.0
 30
0.0
 11
504.0
 21
516.0
 31
0.0
  0
LINE
  8
0
 10
504.0
 20
516.0
 30
0.0
 11
504.0
 21
517.0
 31
0.0
  0
LINE
  8
0
 10
505.0
 20
516.0
 30
0.0
 11
526.0
 21
516.0
 31
0.0
  0
LINE
  8
0
 10
526.0
 20
516.0
 30
0.0
 11
526.0
 21
515.0
 31
0.0
  0
LINE
  8
0
 10
526.0
 20
515.0
 30
0.0
 11
505.0
 21
515.0
 31
0.0
  0
LINE
  8
0
 10
505.0
 20
515.0
 30
0.0
 11
505.0
 21
516.0
 31
0.0
  0
LINE
  8
0
 10
501.0
 20
515.0
 30
0.0
 11
537.0
 21
515.0
 31
0.0
  0
LINE
  8
0
 10
537.0
 20
515.0
 30
0.0
 11
537.0
 21
514.0
 31
0.0
  0
LINE
  8
0
 10
537.0
 20
514.0
 30
0.0
 11
501.0
 21
514.0
 31
0.0
  0
LINE
  8
0
 10
501.0
 20
514.0
 30
0.0
 11
501.0
 21
515.0
 31
0.0
  0
LINE
  8
0
 10
477.0
 20
514.0
 30
0.0
 11
550.0
 21
514.0
 31
0.0
  0
LINE
  8
0
 10
550.0
 20
514.0
 30
0.0
 11
550.0
 21
513.0
 31
0.0
  0
LINE
  8
0
 10
550.0
 20
513.0
 30
0.0
 11
477.0
 21
513.0
 31
0.0
  0
LINE
  8
0
 10
477.0
 20
513.0
 30
0.0
 11
477.0
 21
514.0
 31
0.0
  0
LINE
  8
0
 10
474.0
 20
513.0
 30
0.0
 11
551.0
 21
513.0
 31
0.0
  0
LINE
  8
0
 10
551.0
 20
513.0
 30
0.0
 11
551.0
 21
512.0
 31
0.0
  0
LINE
  8
0
 10
551.0
 20
512.0
 30
0.0
 11
474.0
 21
512.0
 31
0.0
  0
LINE
  8
0
 10
474.0
 20
512.0
 30
0.0
 11
474.0
 21
513.0
 31
0.0
  0
LINE
  8
0
 10
473.0
 20
512.0
 30
0.0
 11
551.0
 21
512.0
 31
0.0
  0
LINE
  8
0
 10
551.0
 20
512.0
 30
0.0
 11
551.0
 21
511.0
 31
0.0
  0
LINE
  8
0
 10
551.0
 20
511.0
 30
0.0
 11
473.0
 21
511.0
 31
0.0
  0
LINE
  8
0
 10
473.0
 20
511.0
 30
0.0
 11
473.0
 21
512.0
 31
0.0
  0
LINE
  8
0
 10
473.0
 20
511.0
 30
0.0
 11
550.0
 21
511.0
 31
0.0
  0
LINE
  8
0
 10
550.0
 20
511.0
 30
0.0
 11
550.0
 21
510.0
 31
0.0
  0
LINE
  8
0
 10
550.0
 20
510.0
 30
0.0
 11
473.0
 21
510.0
 31
0.0
  0
LINE
  8
0
 10
473.0
 20
510.0
 30
0.0
 11
473.0
 21
511.0
 31
0.0
  0
LINE
  8
0
 10
476.0
 20
510.0
 30
0.0
 11
546.0
 21
510.0
 31
0.0
  0
LINE
  8
0
 10
546.0
 20
510.0
 30
0.0
 11
546.0
 21
509.0
 31
0.0
  0
LINE
  8
0
 10
546.0
 20
509.0
 30
0.0
 11
476.0
 21
509.0
 31
0.0
  0
LINE
  8
0
 10
476.0
 20
509.0
 30
0.0
 11
476.0
 21
510.0
 31
0.0
  0
LINE
  8
0
 10
518.0
 20
509.0
 30
0.0
 11
538.0
 21
509.0
 31
0.0
  0
LINE
  8
0
 10
538.0
 20
509.0
 30
0.0
 11
538.0
 21
508.0
 31
0.0
  0
LINE
  8
0
 10
538.0
 20
508.0
 30
0.0
 11
518.0
 21
508.0
 31
0.0
  0
LINE
  8
0
 10
518.0
 20
508.0
 30
0.0
 11
518.0
 21
509.0
 31
0.0
  0
LINE
  8
0
 10
520.0
 20
508.0
 30
0.0
 11
537.0
 21
508.0
 31
0.0
  0
LINE
  8
0
 10
537.0
 20
508.0
 30
0.0
 11
537.0
 21
507.0
 31
0.0
  0
LINE
  8
0
 10
537.0
 20
507.0
 30
0.0
 11
520.0
 21
507.0
 31
0.0
  0
LINE
  8
0
 10
520.0
 20
507.0
 30
0.0
 11
520.0
 21
508.0
 31
0.0
  0
LINE
  8
0
 10
515.0
 20
507.0
 30
0.0
 11
540.0
 21
507.0
 31
0.0
  0
LINE
  8
0
 10
540.0
 20
507.0
 30
0.0
 11
540.0
 21
506.0
 31
0.0
  0
LINE
  8
0
 10
540.0
 20
506.0
 30
0.0
 11
515.0
 21
506.0
 31
0.0
  0
LINE
  8
0
 10
515.0
 20
506.0
 30
0.0
 11
515.0
 21
507.0
 31
0.0
  0
LINE
  8
0
 10
508.0
 20
506.0
 30
0.0
 11
541.0
 21
506.0
 31
0.0
  0
LINE
  8
0
 10
541.0
 20
506.0
 30
0.0
 11
541.0
 21
505.0
 31
0.0
  0
LINE
  8
0
 10
541.0
 20
505.0
 30
0.0
 11
508.0
 21
505.0
 31
0.0
  0
LINE
  8
0
 10
508.0
 20
505.0
 30
0.0
 11
508.0
 21
506.0
 31
0.0
  0
LINE
  8
0
 10
506.0
 20
505.0
 30
0.0
 11
541.0
 21
505.0
 31
0.0
  0
LINE
  8
0
 10
541.0
 20
505.0
 30
0.0
 11
541.0
 21
504.0
 31
0.0
  0
LINE
  8
0
 10
541.0
 20
504.0
 30
0.0
 11
506.0
 21
504.0
 31
0.0
  0
LINE
  8
0
 10
506.0
 20
504.0
 30
0.0
 11
506.0
 21
505.0
 31
0.0
  0
LINE
  8
0
 10
506.0
 20
504.0
 30
0.0
 11
541.0
 21
504.0
 31
0.0
  0
LINE
  8
0
 10
541.0
 20
504.0
 30
0.0
 11
541.0
 21
503.0
 31
0.0
  0
LINE
  8
0
 10
541.0
 20
503.0
 30
0.0
 11
506.0
 21
503.0
 31
0.0
  0
LINE
  8
0
 10
506.0
 20
503.0
 30
0.0
 11
506.0
 21
504.0
 31
0.0
  0
LINE
  8
0
 10
507.0
 20
503.0
 30
0.0
 11
539.0
 21
503.0
 31
0.0
  0
LINE
  8
0
 10
539.0
 20
503.0
 30
0.0
 11
539.0
 21
502.0
 31
0.0
  0
LINE
  8
0
 10
539.0
 20
502.0
 30
0.0
 11
507.0
 21
502.0
 31
0.0
  0
LINE
  8
0
 10
507.0
 20
502.0
 30
0.0
 11
507.0
 21
503.0
 31
0.0
  0
LINE
  8
0
 10
540.0
 20
489.0
 30
0.0
 11
542.0
 21
489.0
 31
0.0
  0
LINE
  8
0
 10
542.0
 20
489.0
 30
0.0
 11
542.0
 21
488.0
 31
0.0
  0
LINE
  8
0
 10
542.0
 20
488.0
 30
0.0
 11
540.0
 21
488.0
 31
0.0
  0
LINE
  8
0
 10
540.0
 20
488.0
 30
0.0
 11
540.0
 21
489.0
 31
0.0
  0
LINE
  8
0
 10
537.0
 20
488.0
 30
0.0
 11
542.0
 21
488.0
 31
0.0
  0
LINE
  8
0
 10
542.0
 20
488.0
 30
0.0
 11
542.0
 21
487.0
 31
0.0
  0
LINE
  8
0
 10
542.0
 20
487.0
 30
0.0
 11
537.0
 21
487.0
 31
0.0
  0
LINE
  8
0
 10
537.0
 20
487.0
 30
0.0
 11
537.0
 21
488.0
 31
0.0
  0
LINE
  8
0
 10
535.0
 20
487.0
 30
0.0
 11
542.0
 21
487.0
 31
0.0
  0
LINE
  8
0
 10
542.0
 20
487.0
 30
0.0
 11
542.0
 21
486.0
 31
0.0
  0
LINE
  8
0
 10
542.0
 20
486.0
 30
0.0
 11
535.0
 21
486.0
 31
0.0
  0
LINE
  8
0
 10
535.0
 20
486.0
 30
0.0
 11
535.0
 21
487.0
 31
0.0
  0
LINE
  8
0
 10
533.0
 20
486.0
 30
0.0
 11
541.0
 21
486.0
 31
0.0
  0
LINE
  8
0
 10
541.0
 20
486.0
 30
0.0
 11
541.0
 21
485.0
 31
0.0
  0
LINE
  8
0
 10
541.0
 20
485.0
 30
0.0
 11
533.0
 21
485.0
 31
0.0
  0
LINE
  8
0
 10
533.0
 20
485.0
 30
0.0
 11
533.0
 21
486.0
 31
0.0
  0
LINE
  8
0
 10
531.0
 20
485.0
 30
0.0
 11
541.0
 21
485.0
 31
0.0
  0
LINE
  8
0
 10
541.0
 20
485.0
 30
0.0
 11
541.0
 21
484.0
 31
0.0
  0
LINE
  8
0
 10
541.0
 20
484.0
 30
0.0
 11
531.0
 21
484.0
 31
0.0
  0
LINE
  8
0
 10
531.0
 20
484.0
 30
0.0
 11
531.0
 21
485.0
 31
0.0
  0
LINE
  8
0
 10
528.0
 20
484.0
 30
0.0
 11
540.0
 21
484.0
 31
0.0
  0
LINE
  8
0
 10
540.0
 20
484.0
 30
0.0
 11
540.0
 21
483.0
 31
0.0
  0
LINE
  8
0
 10
540.0
 20
483.0
 30
0.0
 11
528.0
 21
483.0
 31
0.0
  0
LINE
  8
0
 10
528.0
 20
483.0
 30
0.0
 11
528.0
 21
484.0
 31
0.0
  0
LINE
  8
0
 10
525.0
 20
483.0
 30
0.0
 11
540.0
 21
483.0
 31
0.0
  0
LINE
  8
0
 10
540.0
 20
483.0
 30
0.0
 11
540.0
 21
482.0
 31
0.0
  0
LINE
  8
0
 10
540.0
 20
482.0
 30
0.0
 11
525.0
 21
482.0
 31
0.0
  0
LINE
  8
0
 10
525.0
 20
482.0
 30
0.0
 11
525.0
 21
483.0
 31
0.0
  0
ENDSEC
  0
EOF