  0
SECTION
  2
HEADER
  9
$ACADVER
  1
AC1009
  0
ENDSEC
  0
SECTION
  2
ENTITIES
  0
LINE
  8
0
 10
503.0
 20
565.0
 30
0.0
 11
522.0
 21
565.0
 31
0.0
  0
LINE
  8
0
 10
522.0
 20
565.0
 30
0.0
 11
522.0
 21
564.0
 31
0.0
  0
LINE
  8
0
 10
522.0
 20
564.0
 30
0.0
 11
503.0
 21
564.0
 31
0.0
  0
LINE
  8
0
 10
503.0
 20
564.0
 30
0.0
 11
503.0
 21
565.0
 31
0.0
  0
LINE
  8
0
 10
498.0
 20
564.0
 30
0.0
 11
527.0
 21
564.0
 31
0.0
  0
LINE
  8
0
 10
527.0
 20
564.0
 30
0.0
 11
527.0
 21
563.0
 31
0.0
  0
LINE
  8
0
 10
527.0
 20
563.0
 30
0.0
 11
498.0
 21
563.0
 31
0.0
  0
LINE
  8
0
 10
498.0
 20
563.0
 30
0.0
 11
498.0
 21
564.0
 31
0.0
  0
LINE
  8
0
 10
495.0
 20
563.0
 30
0.0
 11
531.0
 21
563.0
 31
0.0
  0
LINE
  8
0
 10
531.0
 20
563.0
 30
0.0
 11
531.0
 21
562.0
 31
0.0
  0
LINE
  8
0
 10
531.0
 20
562.0
 30
0.0
 11
495.0
 21
562.0
 31
0.0
  0
LINE
  8
0
 10
495.0
 20
562.0
 30
0.0
 11
495.0
 21
563.0
 31
0.0
  0
LINE
  8
0
 10
492.0
 20
562.0
 30
0.0
 11
533.0
 21
562.0
 31
0.0
  0
LINE
  8
0
 10
533.0
 20
562.0
 30
0.0
 11
533.0
 21
561.0
 31
0.0
  0
LINE
  8
0
 10
533.0
 20
561.0
 30
0.0
 11
492.0
 21
561.0
 31
0.0
  0
LINE
  8
0
 10
492.0
 20
561.0
 30
0.0
 11
492.0
 21
562.0
 31
0.0
  0
LINE
  8
0
 10
490.0
 20
561.0
 30
0.0
 11
536.0
 21
561.0
 31
0.0
  0
LINE
  8
0
 10
536.0
 20
561.0
 30
0.0
 11
536.0
 21
560.0
 31
0.0
  0
LINE
  8
0
 10
536.0
 20
560.0
 30
0.0
 11
490.0
 21
560.0
 31
0.0
  0
LINE
  8
0
 10
490.0
 20
560.0
 30
0.0
 11
490.0
 21
561.0
 31
0.0
  0
LINE
  8
0
 10
488.0
 20
560.0
 30
0.0
 11
538.0
 21
560.0
 31
0.0
  0
LINE
  8
0
 10
538.0
 20
560.0
 30
0.0
 11
538.0
 21
559.0
 31
0.0
  0
LINE
  8
0
 10
538.0
 20
559.0
 30
0.0
 11
488.0
 21
559.0
 31
0.0
  0
LINE
  8
0
 10
488.0
 20
559.0
 30
0.0
 11
488.0
 21
560.0
 31
0.0
  0
LINE
  8
0
 10
485.0
 20
559.0
 30
0.0
 11
539.0
 21
559.0
 31
0.0
  0
LINE
  8
0
 10
539.0
 20
559.0
 30
0.0
 11
539.0
 21
558.0
 31
0.0
  0
LINE
  8
0
 10
539.0
 20
558.0
 30
0.0
 11
485.0
 21
558.0
 31
0.0
  0
LINE
  8
0
 10
485.0
 20
558.0
 30
0.0
 11
485.0
 21
559.0
 31
0.0
  0
LINE
  8
0
 10
484.0
 20
558.0
 30
0.0
 11
541.0
 21
558.0
 31
0.0
  0
LINE
  8
0
 10
541.0
 20
558.0
 30
0.0
 11
541.0
 21
557.0
 31
0.0
  0
LINE
  8
0
 10
541.0
 20
557.0
 30
0.0
 11
484.0
 21
557.0
 31
0.0
  0
LINE
  8
0
 10
484.0
 20
557.0
 30
0.0
 11
484.0
 21
558.0
 31
0.0
  0
LINE
  8
0
 10
482.0
 20
557.0
 30
0.0
 11
543.0
 21
557.0
 31
0.0
  0
LINE
  8
0
 10
543.0
 20
557.0
 30
0.0
 11
543.0
 21
556.0
 31
0.0
  0
LINE
  8
0
 10
543.0
 20
556.0
 30
0.0
 11
482.0
 21
556.0
 31
0.0
  0
LINE
  8
0
 10
482.0
 20
556.0
 30
0.0
 11
482.0
 21
557.0
 31
0.0
  0
LINE
  8
0
 10
481.0
 20
556.0
 30
0.0
 11
544.0
 21
556.0
 31
0.0
  0
LINE
  8
0
 10
544.0
 20
556.0
 30
0.0
 11
544.0
 21
555.0
 31
0.0
  0
LINE
  8
0
 10
544.0
 20
555.0
 30
0.0
 11
481.0
 21
555.0
 31
0.0
  0
LINE
  8
0
 10
481.0
 20
555.0
 30
0.0
 11
481.0
 21
556.0
 31
0.0
  0
LINE
  8
0
 10
479.0
 20
555.0
 30
0.0
 11
546.0
 21
555.0
 31
0.0
  0
LINE
  8
0
 10
546.0
 20
555.0
 30
0.0
 11
546.0
 21
554.0
 31
0.0
  0
LINE
  8
0
 10
546.0
 20
554.0
 30
0.0
 11
479.0
 21
554.0
 31
0.0
  0
LINE
  8
0
 10
479.0
 20
554.0
 30
0.0
 11
479.0
 21
555.0
 31
0.0
  0
LINE
  8
0
 10
478.0
 20
554.0
 30
0.0
 11
547.0
 21
554.0
 31
0.0
  0
LINE
  8
0
 10
547.0
 20
554.0
 30
0.0
 11
547.0
 21
553.0
 31
0.0
  0
LINE
  8
0
 10
547.0
 20
553.0
 30
0.0
 11
478.0
 21
553.0
 31
0.0
  0
LINE
  8
0
 10
478.0
 20
553.0
 30
0.0
 11
478.0
 21
554.0
 31
0.0
  0
LINE
  8
0
 10
477.0
 20
553.0
 30
0.0
 11
549.0
 21
553.0
 31
0.0
  0
LINE
  8
0
 10
549.0
 20
553.0
 30
0.0
 11
549.0
 21
552.0
 31
0.0
  0
LINE
  8
0
 10
549.0
 20
552.0
 30
0.0
 11
477.0
 21
552.0
 31
0.0
  0
LINE
  8
0
 10
477.0
 20
552.0
 30
0.0
 11
477.0
 21
553.0
 31
0.0
  0
LINE
  8
0
 10
475.0
 20
552.0
 30
0.0
 11
550.0
 21
552.0
 31
0.0
  0
LINE
  8
0
 10
550.0
 20
552.0
 30
0.0
 11
550.0
 21
551.0
 31
0.0
  0
LINE
  8
0
 10
550.0
 20
551.0
 30
0.0
 11
475.0
 21
551.0
 31
0.0
  0
LINE
  8
0
 10
475.0
 20
551.0
 30
0.0
 11
475.0
 21
552.0
 31
0.0
  0
LINE
  8
0
 10
474.0
 20
551.0
 30
0.0
 11
551.0
 21
551.0
 31
0.0
  0
LINE
  8
0
 10
551.0
 20
551.0
 30
0.0
 11
551.0
 21
550.0
 31
0.0
  0
LINE
  8
0
 10
551.0
 20
550.0
 30
0.0
 11
474.0
 21
550.0
 31
0.0
  0
LINE
  8
0
 10
474.0
 20
550.0
 30
0.0
 11
474.0
 21
551.0
 31
0.0
  0
LINE
  8
0
 10
473.0
 20
550.0
 30
0.0
 11
552.0
 21
550.0
 31
0.0
  0
LINE
  8
0
 10
552.0
 20
550.0
 30
0.0
 11
552.0
 21
549.0
 31
0.0
  0
LINE
  8
0
 10
552.0
 20
549.0
 30
0.0
 11
473.0
 21
549.0
 31
0.0
  0
LINE
  8
0
 10
473.0
 20
549.0
 30
0.0
 11
473.0
 21
550.0
 31
0.0
  0
LINE
  8
0
 10
472.0
 20
549.0
 30
0.0
 11
553.0
 21
549.0
 31
0.0
  0
LINE
  8
0
 10
553.0
 20
549.0
 30
0.0
 11
553.0
 21
548.0
 31
0.0
  0
LINE
  8
0
 10
553.0
 20
548.0
 30
0.0
 11
472.0
 21
548.0
 31
0.0
  0
LINE
  8
0
 10
472.0
 20
548.0
 30
0.0
 11
472.0
 21
549.0
 31
0.0
  0
LINE
  8
0
 10
471.0
 20
548.0
 30
0.0
 11
554.0
 21
548.0
 31
0.0
  0
LINE
  8
0
 10
554.0
 20
548.0
 30
0.0
 11
554.0
 21
547.0
 31
0.0
  0
LINE
  8
0
 10
554.0
 20
547.0
 30
0.0
 11
471.0
 21
547.0
 31
0.0
  0
LINE
  8
0
 10
471.0
 20
547.0
 30
0.0
 11
471.0
 21
548.0
 31
0.0
  0
LINE
  8
0
 10
470.0
 20
547.0
 30
0.0
 11
555.0
 21
547.0
 31
0.0
  0
LINE
  8
0
 10
555.0
 20
547.0
 30
0.0
 11
555.0
 21
546.0
 31
0.0
  0
LINE
  8
0
 10
555.0
 20
546.0
 30
0.0
 11
470.0
 21
546.0
 31
0.0
  0
LINE
  8
0
 10
470.0
 20
546.0
 30
0.0
 11
470.0
 21
547.0
 31
0.0
  0
LINE
  8
0
 10
469.0
 20
546.0
 30
0.0
 11
556.0
 21
546.0
 31
0.0
  0
LINE
  8
0
 10
556.0
 20
546.0
 30
0.0
 11
556.0
 21
545.0
 31
0.0
  0
LINE
  8
0
 10
556.0
 20
545.0
 30
0.0
 11
469.0
 21
545.0
 31
0.0
  0
LINE
  8
0
 10
469.0
 20
545.0
 30
0.0
 11
469.0
 21
546.0
 31
0.0
  0
LINE
  8
0
 10
469.0
 20
545.0
 30
0.0
 11
557.0
 21
545.0
 31
0.0
  0
LINE
  8
0
 10
557.0
 20
545.0
 30
0.0
 11
557.0
 21
544.0
 31
0.0
  0
LINE
  8
0
 10
557.0
 20
544.0
 30
0.0
 11
469.0
 21
544.0
 31
0.0
  0
LINE
  8
0
 10
469.0
 20
544.0
 30
0.0
 11
469.0
 21
545.0
 31
0.0
  0
LINE
  8
0
 10
468.0
 20
544.0
 30
0.0
 11
557.0
 21
544.0
 31
0.0
  0
LINE
  8
0
 10
557.0
 20
544.0
 30
0.0
 11
557.0
 21
543.0
 31
0.0
  0
LINE
  8
0
 10
557.0
 20
543.0
 30
0.0
 11
468.0
 21
543.0
 31
0.0
  0
LINE
  8
0
 10
468.0
 20
543.0
 30
0.0
 11
468.0
 21
544.0
 31
0.0
  0
LINE
  8
0
 10
467.0
 20
543.0
 30
0.0
 11
558.0
 21
543.0
 31
0.0
  0
LINE
  8
0
 10
558.0
 20
543.0
 30
0.0
 11
558.0
 21
542.0
 31
0.0
  0
LINE
  8
0
 10
558.0
 20
542.0
 30
0.0
 11
467.0
 21
542.0
 31
0.0
  0
LINE
  8
0
 10
467.0
 20
542.0
 30
0.0
 11
467.0
 21
543.0
 31
0.0
  0
LINE
  8
0
 10
466.0
 20
542.0
 30
0.0
 11
559.0
 21
542.0
 31
0.0
  0
LINE
  8
0
 10
559.0
 20
542.0
 30
0.0
 11
559.0
 21
541.0
 31
0.0
  0
LINE
  8
0
 10
559.0
 20
541.0
 30
0.0
 11
466.0
 21
541.0
 31
0.0
  0
LINE
  8
0
 10
466.0
 20
541.0
 30
0.0
 11
466.0
 21
542.0
 31
0.0
  0
LINE
  8
0
 10
465.0
 20
541.0
 30
0.0
 11
560.0
 21
541.0
 31
0.0
  0
LINE
  8
0
 10
560.0
 20
541.0
 30
0.0
 11
560.0
 21
540.0
 31
0.0
  0
LINE
  8
0
 10
560.0
 20
540.0
 30
0.0
 11
465.0
 21
540.0
 31
0.0
  0
LINE
  8
0
 10
465.0
 20
540.0
 30
0.0
 11
465.0
 21
541.0
 31
0.0
  0
LINE
  8
0
 10
465.0
 20
540.0
 30
0.0
 11
560.0
 21
540.0
 31
0.0
  0
LINE
  8
0
 10
560.0
 20
540.0
 30
0.0
 11
560.0
 21
539.0
 31
0.0
  0
LINE
  8
0
 10
560.0
 20
539.0
 30
0.0
 11
465.0
 21
539.0
 31
0.0
  0
LINE
  8
0
 10
465.0
 20
539.0
 30
0.0
 11
465.0
 21
540.0
 31
0.0
  0
LINE
  8
0
 10
464.0
 20
539.0
 30
0.0
 11
561.0
 21
539.0
 31
0.0
  0
LINE
  8
0
 10
561.0
 20
539.0
 30
0.0
 11
561.0
 21
538.0
 31
0.0
  0
LINE
  8
0
 10
561.0
 20
538.0
 30
0.0
 11
464.0
 21
538.0
 31
0.0
  0
LINE
  8
0
 10
464.0
 20
538.0
 30
0.0
 11
464.0
 21
539.0
 31
0.0
  0
LINE
  8
0
 10
463.0
 20
538.0
 30
0.0
 11
562.0
 21
538.0
 31
0.0
  0
LINE
  8
0
 10
562.0
 20
538.0
 30
0.0
 11
562.0
 21
537.0
 31
0.0
  0
LINE
  8
0
 10
562.0
 20
537.0
 30
0.0
 11
463.0
 21
537.0
 31
0.0
  0
LINE
  8
0
 10
463.0
 20
537.0
 30
0.0
 11
463.0
 21
538.0
 31
0.0
  0
LINE
  8
0
 10
463.0
 20
537.0
 30
0.0
 11
562.0
 21
537.0
 31
0.0
  0
LINE
  8
0
 10
562.0
 20
537.0
 30
0.0
 11
562.0
 21
536.0
 31
0.0
  0
LINE
  8
0
 10
562.0
 20
536.0
 30
0.0
 11
463.0
 21
536.0
 31
0.0
  0
LINE
  8
0
 10
463.0
 20
536.0
 30
0.0
 11
463.0
 21
537.0
 31
0.0
  0
LINE
  8
0
 10
462.0
 20
536.0
 30
0.0
 11
563.0
 21
536.0
 31
0.0
  0
LINE
  8
0
 10
563.0
 20
536.0
 30
0.0
 11
563.0
 21
535.0
 31
0.0
  0
LINE
  8
0
 10
563.0
 20
535.0
 30
0.0
 11
462.0
 21
535.0
 31
0.0
  0
LINE
  8
0
 10
462.0
 20
535.0
 30
0.0
 11
462.0
 21
536.0
 31
0.0
  0
LINE
  8
0
 10
462.0
 20
535.0
 30
0.0
 11
563.0
 21
535.0
 31
0.0
  0
LINE
  8
0
 10
563.0
 20
535.0
 30
0.0
 11
563.0
 21
534.0
 31
0.0
  0
LINE
  8
0
 10
563.0
 20
534.0
 30
0.0
 11
462.0
 21
534.0
 31
0.0
  0
LINE
  8
0
 10
462.0
 20
534.0
 30
0.0
 11
462.0
 21
535.0
 31
0.0
  0
LINE
  8
0
 10
461.0
 20
534.0
 30
0.0
 11
564.0
 21
534.0
 31
0.0
  0
LINE
  8
0
 10
564.0
 20
534.0
 30
0.0
 11
564.0
 21
533.0
 31
0.0
  0
LINE
  8
0
 10
564.0
 20
533.0
 30
0.0
 11
461.0
 21
533.0
 31
0.0
  0
LINE
  8
0
 10
461.0
 20
533.0
 30
0.0
 11
461.0
 21
534.0
 31
0.0
  0
LINE
  8
0
 10
461.0
 20
533.0
 30
0.0
 11
565.0
 21
533.0
 31
0.0
  0
LINE
  8
0
 10
565.0
 20
533.0
 30
0.0
 11
565.0
 21
532.0
 31
0.0
  0
LINE
  8
0
 10
565.0
 20
532.0
 30
0.0
 11
461.0
 21
532.0
 31
0.0
  0
LINE
  8
0
 10
461.0
 20
532.0
 30
0.0
 11
461.0
 21
533.0
 31
0.0
  0
LINE
  8
0
 10
623.0
 20
533.0
 30
0.0
 11
624.0
 21
533.0
 31
0.0
  0
LINE
  8
0
 10
624.0
 20
533.0
 30
0.0
 11
624.0
 21
532.0
 31
0.0
  0
LINE
  8
0
 10
624.0
 20
532.0
 30
0.0
 11
623.0
 21
532.0
 31
0.0
  0
LINE
  8
0
 10
623.0
 20
532.0
 30
0.0
 11
623.0
 21
533.0
 31
0.0
  0
LINE
  8
0
 10
460.0
 20
532.0
 30
0.0
 11
565.0
 21
532.0
 31
0.0
  0
LINE
  8
0
 10
565.0
 20
532.0
 30
0.0
 11
565.0
 21
531.0
 31
0.0
  0
LINE
  8
0
 10
565.0
 20
531.0
 30
0.0
 11
460.0
 21
531.0
 31
0.0
  0
LINE
  8
0
 10
460.0
 20
531.0
 30
0.0
 11
460.0
 21
532.0
 31
0.0
  0
LINE
  8
0
 10
623.0
 20
532.0
 30
0.0
 11
624.0
 21
532.0
 31
0.0
  0
LINE
  8
0
 10
624.0
 20
532.0
 30
0.0
 11
624.0
 21
531.0
 31
0.0
  0
LINE
  8
0
 10
624.0
 20
531.0
 30
0.0
 11
623.0
 21
531.0
 31
0.0
  0
LINE
  8
0
 10
623.0
 20
531.0
 30
0.0
 11
623.0
 21
532.0
 31
0.0
  0
LINE
  8
0
 10
460.0
 20
531.0
 30
0.0
 11
565.0
 21
531.0
 31
0.0
  0
LINE
  8
0
 10
565.0
 20
531.0
 30
0.0
 11
565.0
 21
530.0
 31
0.0
  0
LINE
  8
0
 10
565.0
 20
530.0
 30
0.0
 11
460.0
 21
530.0
 31
0.0
  0
LINE
  8
0
 10
460.0
 20
530.0
 30
0.0
 11
460.0
 21
531.0
 31
0.0
  0
LINE
  8
0
 10
623.0
 20
531.0
 30
0.0
 11
624.0
 21
531.0
 31
0.0
  0
LINE
  8
0
 10
624.0
 20
531.0
 30
0.0
 11
624.0
 21
530.0
 31
0.0
  0
LINE
  8
0
 10
624.0
 20
530.0
 30
0.0
 11
623.0
 21
530.0
 31
0.0
  0
LINE
  8
0
 10
623.0
 20
530.0
 30
0.0
 11
623.0
 21
531.0
 31
0.0
  0
LINE
  8
0
 10
460.0
 20
530.0
 30
0.0
 11
566.0
 21
530.0
 31
0.0
  0
LINE
  8
0
 10
566.0
 20
530.0
 30
0.0
 11
566.0
 21
529.0
 31
0.0
  0
LINE
  8
0
 10
566.0
 20
529.0
 30
0.0
 11
460.0
 21
529.0
 31
0.0
  0
LINE
  8
0
 10
460.0
 20
529.0
 30
0.0
 11
460.0
 21
530.0
 31
0.0
  0
LINE
  8
0
 10
623.0
 20
530.0
 30
0.0
 11
624.0
 21
530.0
 31
0.0
  0
LINE
  8
0
 10
624.0
 20
530.0
 30
0.0
 11
624.0
 21
529.0
 31
0.0
  0
LINE
  8
0
 10
624.0
 20
529.0
 30
0.0
 11
623.0
 21
529.0
 31
0.0
  0
LINE
  8
0
 10
623.0
 20
529.0
 30
0.0
 11
623.0
 21
530.0
 31
0.0
  0
LINE
  8
0
 10
459.0
 20
529.0
 30
0.0
 11
566.0
 21
529.0
 31
0.0
  0
LINE
  8
0
 10
566.0
 20
529.0
 30
0.0
 11
566.0
 21
528.0
 31
0.0
  0
LINE
  8
0
 10
566.0
 20
528.0
 30
0.0
 11
459.0
 21
528.0
 31
0.0
  0
LINE
  8
0
 10
459.0
 20
528.0
 30
0.0
 11
459.0
 21
529.0
 31
0.0
  0
LINE
  8
0
 10
459.0
 20
528.0
 30
0.0
 11
567.0
 21
528.0
 31
0.0
  0
LINE
  8
0
 10
567.0
 20
528.0
 30
0.0
 11
567.0
 21
527.0
 31
0.0
  0
LINE
  8
0
 10
567.0
 20
527.0
 30
0.0
 11
459.0
 21
527.0
 31
0.0
  0
LINE
  8
0
 10
459.0
 20
527.0
 30
0.0
 11
459.0
 21
528.0
 31
0.0
  0
LINE
  8
0
 10
458.0
 20
527.0
 30
0.0
 11
567.0
 21
527.0
 31
0.0
  0
LINE
  8
0
 10
567.0
 20
527.0
 30
0.0
 11
567.0
 21
526.0
 31
0.0
  0
LINE
  8
0
 10
567.0
 20
526.0
 30
0.0
 11
458.0
 21
526.0
 31
0.0
  0
LINE
  8
0
 10
458.0
 20
526.0
 30
0.0
 11
458.0
 21
527.0
 31
0.0
  0
LINE
  8
0
 10
458.0
 20
526.0
 30
0.0
 11
567.0
 21
526.0
 31
0.0
  0
LINE
  8
0
 10
567.0
 20
526.0
 30
0.0
 11
567.0
 21
525.0
 31
0.0
  0
LINE
  8
0
 10
567.0
 20
525.0
 30
0.0
 11
458.0
 21
525.0
 31
0.0
  0
LINE
  8
0
 10
458.0
 20
525.0
 30
0.0
 11
458.0
 21
526.0
 31
0.0
  0
LINE
  8
0
 10
458.0
 20
525.0
 30
0.0
 11
567.0
 21
525.0
 31
0.0
  0
LINE
  8
0
 10
567.0
 20
525.0
 30
0.0
 11
567.0
 21
524.0
 31
0.0
  0
LINE
  8
0
 10
567.0
 20
524.0
 30
0.0
 11
458.0
 21
524.0
 31
0.0
  0
LINE
  8
0
 10
458.0
 20
524.0
 30
0.0
 11
458.0
 21
525.0
 31
0.0
  0
LINE
  8
0
 10
457.0
 20
524.0
 30
0.0
 11
568.0
 21
524.0
 31
0.0
  0
LINE
  8
0
 10
568.0
 20
524.0
 30
0.0
 11
568.0
 21
523.0
 31
0.0
  0
LINE
  8
0
 10
568.0
 20
523.0
 30
0.0
 11
457.0
 21
523.0
 31
0.0
  0
LINE
  8
0
 10
457.0
 20
523.0
 30
0.0
 11
457.0
 21
524.0
 31
0.0
  0
LINE
  8
0
 10
457.0
 20
523.0
 30
0.0
 11
568.0
 21
523.0
 31
0.0
  0
LINE
  8
0
 10
568.0
 20
523.0
 30
0.0
 11
568.0
 21
522.0
 31
0.0
  0
LINE
  8
0
 10
568.0
 20
522.0
 30
0.0
 11
457.0
 21
522.0
 31
0.0
  0
LINE
  8
0
 10
457.0
 20
522.0
 30
0.0
 11
457.0
 21
523.0
 31
0.0
  0
LINE
  8
0
 10
612.0
 20
523.0
 30
0.0
 11
617.0
 21
523.0
 31
0.0
  0
LINE
  8
0
 10
617.0
 20
523.0
 30
0.0
 11
617.0
 21
522.0
 31
0.0
  0
LINE
  8
0
 10
617.0
 20
522.0
 30
0.0
 11
612.0
 21
522.0
 31
0.0
  0
LINE
  8
0
 10
612.0
 20
522.0
 30
0.0
 11
612.0
 21
523.0
 31
0.0
  0
LINE
  8
0
 10
457.0
 20
522.0
 30
0.0
 11
568.0
 21
522.0
 31
0.0
  0
LINE
  8
0
 10
568.0
 20
522.0
 30
0.0
 11
568.0
 21
521.0
 31
0.0
  0
LINE
  8
0
 10
568.0
 20
521.0
 30
0.0
 11
457.0
 21
521.0
 31
0.0
  0
LINE
  8
0
 10
457.0
 20
521.0
 30
0.0
 11
457.0
 21
522.0
 31
0.0
  0
LINE
  8
0
 10
611.0
 20
522.0
 30
0.0
 11
618.0
 21
522.0
 31
0.0
  0
LINE
  8
0
 10
618.0
 20
522.0
 30
0.0
 11
618.0
 21
521.0
 31
0.0
  0
LINE
  8
0
 10
618.0
 20
521.0
 30
0.0
 11
611.0
 21
521.0
 31
0.0
  0
LINE
  8
0
 10
611.0
 20
521.0
 30
0.0
 11
611.0
 21
522.0
 31
0.0
  0
LINE
  8
0
 10
457.0
 20
521.0
 30
0.0
 11
568.0
 21
521.0
 31
0.0
  0
LINE
  8
0
 10
568.0
 20
521.0
 30
0.0
 11
568.0
 21
520.0
 31
0.0
  0
LINE
  8
0
 10
568.0
 20
520.0
 30
0.0
 11
457.0
 21
520.0
 31
0.0
  0
LINE
  8
0
 10
457.0
 20
520.0
 30
0.0
 11
457.0
 21
521.0
 31
0.0
  0
LINE
  8
0
 10
612.0
 20
521.0
 30
0.0
 11
620.0
 21
521.0
 31
0.0
  0
LINE
  8
0
 10
620.0
 20
521.0
 30
0.0
 11
620.0
 21
520.0
 31
0.0
  0
LINE
  8
0
 10
620.0
 20
520.0
 30
0.0
 11
612.0
 21
520.0
 31
0.0
  0
LINE
  8
0
 10
612.0
 20
520.0
 30
0.0
 11
612.0
 21
521.0
 31
0.0
  0
LINE
  8
0
 10
621.0
 20
521.0
 30
0.0
 11
624.0
 21
521.0
 31
0.0
  0
LINE
  8
0
 10
624.0
 20
521.0
 30
0.0
 11
624.0
 21
520.0
 31
0.0
  0
LINE
  8
0
 10
624.0
 20
520.0
 30
0.0
 11
621.0
 21
520.0
 31
0.0
  0
LINE
  8
0
 10
621.0
 20
520.0
 30
0.0
 11
621.0
 21
521.0
 31
0.0
  0
LINE
  8
0
 10
456.0
 20
520.0
 30
0.0
 11
569.0
 21
520.0
 31
0.0
  0
LINE
  8
0
 10
569.0
 20
520.0
 30
0.0
 11
569.0
 21
519.0
 31
0.0
  0
LINE
  8
0
 10
569.0
 20
519.0
 30
0.0
 11
456.0
 21
519.0
 31
0.0
  0
LINE
  8
0
 10
456.0
 20
519.0
 30
0.0
 11
456.0
 21
520.0
 31
0.0
  0
LINE
  8
0
 10
613.0
 20
520.0
 30
0.0
 11
624.0
 21
520.0
 31
0.0
  0
LINE
  8
0
 10
624.0
 20
520.0
 30
0.0
 11
624.0
 21
519.0
 31
0.0
  0
LINE
  8
0
 10
624.0
 20
519.0
 30
0.0
 11
613.0
 21
519.0
 31
0.0
  0
LINE
  8
0
 10
613.0
 20
519.0
 30
0.0
 11
613.0
 21
520.0
 31
0.0
  0
LINE
  8
0
 10
456.0
 20
519.0
 30
0.0
 11
569.0
 21
519.0
 31
0.0
  0
LINE
  8
0
 10
569.0
 20
519.0
 30
0.0
 11
569.0
 21
518.0
 31
0.0
  0
LINE
  8
0
 10
569.0
 20
518.0
 30
0.0
 11
456.0
 21
518.0
 31
0.0
  0
LINE
  8
0
 10
456.0
 20
518.0
 30
0.0
 11
456.0
 21
519.0
 31
0.0
  0
LINE
  8
0
 10
615.0
 20
519.0
 30
0.0
 11
616.0
 21
519.0
 31
0.0
  0
LINE
  8
0
 10
616.0
 20
519.0
 30
0.0
 11
616.0
 21
518.0
 31
0.0
  0
LINE
  8
0
 10
616.0
 20
518.0
 30
0.0
 11
615.0
 21
518.0
 31
0.0
  0
LINE
  8
0
 10
615.0
 20
518.0
 30
0.0
 11
615.0
 21
519.0
 31
0.0
  0
LINE
  8
0
 10
619.0
 20
519.0
 30
0.0
 11
624.0
 21
519.0
 31
0.0
  0
LINE
  8
0
 10
624.0
 20
519.0
 30
0.0
 11
624.0
 21
518.0
 31
0.0
  0
LINE
  8
0
 10
624.0
 20
518.0
 30
0.0
 11
619.0
 21
518.0
 31
0.0
  0
LINE
  8
0
 10
619.0
 20
518.0
 30
0.0
 11
619.0
 21
519.0
 31
0.0
  0
LINE
  8
0
 10
456.0
 20
518.0
 30
0.0
 11
569.0
 21
518.0
 31
0.0
  0
LINE
  8
0
 10
569.0
 20
518.0
 30
0.0
 11
569.0
 21
517.0
 31
0.0
  0
LINE
  8
0
 10
569.0
 20
517.0
 30
0.0
 11
456.0
 21
517.0
 31
0.0
  0
LINE
  8
0
 10
456.0
 20
517.0
 30
0.0
 11
456.0
 21
518.0
 31
0.0
  0
LINE
  8
0
 10
622.0
 20
518.0
 30
0.0
 11
624.0
 21
518.0
 31
0.0
  0
LINE
  8
0
 10
624.0
 20
518.0
 30
0.0
 11
624.0
 21
517.0
 31
0.0
  0
LINE
  8
0
 10
624.0
 20
517.0
 30
0.0
 11
622.0
 21
517.0
 31
0.0
  0
LINE
  8
0
 10
622.0
 20
517.0
 30
0.0
 11
622.0
 21
518.0
 31
0.0
  0
LINE
  8
0
 10
456.0
 20
517.0
 30
0.0
 11
569.0
 21
517.0
 31
0.0
  0
LINE
  8
0
 10
569.0
 20
517.0
 30
0.0
 11
569.0
 21
516.0
 31
0.0
  0
LINE
  8
0
 10
569.0
 20
516.0
 30
0.0
 11
456.0
 21
516.0
 31
0.0
  0
LINE
  8
0
 10
456.0
 20
516.0
 30
0.0
 11
456.0
 21
517.0
 31
0.0
  0
LINE
  8
0
 10
621.0
 20
517.0
 30
0.0
 11
624.0
 21
517.0
 31
0.0
  0
LINE
  8
0
 10
624.0
 20
517.0
 30
0.0
 11
624.0
 21
516.0
 31
0.0
  0
LINE
  8
0
 10
624.0
 20
516.0
 30
0.0
 11
621.0
 21
516.0
 31
0.0
  0
LINE
  8
0
 10
621.0
 20
516.0
 30
0.0
 11
621.0
 21
517.0
 31
0.0
  0
LINE
  8
0
 10
456.0
 20
516.0
 30
0.0
 11
569.0
 21
516.0
 31
0.0
  0
LINE
  8
0
 10
569.0
 20
516.0
 30
0.0
 11
569.0
 21
515.0
 31
0.0
  0
LINE
  8
0
 10
569.0
 20
515.0
 30
0.0
 11
456.0
 21
515.0
 31
0.0
  0
LINE
  8
0
 10
456.0
 20
515.0
 30
0.0
 11
456.0
 21
516.0
 31
0.0
  0
LINE
  8
0
 10
620.0
 20
516.0
 30
0.0
 11
624.0
 21
516.0
 31
0.0
  0
LINE
  8
0
 10
624.0
 20
516.0
 30
0.0
 11
624.0
 21
515.0
 31
0.0
  0
LINE
  8
0
 10
624.0
 20
515.0
 30
0.0
 11
620.0
 21
515.0
 31
0.0
  0
LINE
  8
0
 10
620.0
 20
515.0
 30
0.0
 11
620.0
 21
516.0
 31
0.0
  0
LINE
  8
0
 10
435.0
 20
515.0
 30
0.0
 11
569.0
 21
515.0
 31
0.0
  0
LINE
  8
0
 10
569.0
 20
515.0
 30
0.0
 11
569.0
 21
514.0
 31
0.0
  0
LINE
  8
0
 10
569.0
 20
514.0
 30
0.0
 11
435.0
 21
514.0
 31
0.0
  0
LINE
  8
0
 10
435.0
 20
514.0
 30
0.0
 11
435.0
 21
515.0
 31
0.0
  0
LINE
  8
0
 10
620.0
 20
515.0
 30
0.0
 11
624.0
 21
515.0
 31
0.0
  0
LINE
  8
0
 10
624.0
 20
515.0
 30
0.0
 11
624.0
 21
514.0
 31
0.0
  0
LINE
  8
0
 10
624.0
 20
514.0
 30
0.0
 11
620.0
 21
514.0
 31
0.0
  0
LINE
  8
0
 10
620.0
 20
514.0
 30
0.0
 11
620.0
 21
515.0
 31
0.0
  0
LINE
  8
0
 10
432.0
 20
514.0
 30
0.0
 11
570.0
 21
514.0
 31
0.0
  0
LINE
  8
0
 10
570.0
 20
514.0
 30
0.0
 11
570.0
 21
513.0
 31
0.0
  0
LINE
  8
0
 10
570.0
 20
513.0
 30
0.0
 11
432.0
 21
513.0
 31
0.0
  0
LINE
  8
0
 10
432.0
 20
513.0
 30
0.0
 11
432.0
 21
514.0
 31
0.0
  0
LINE
  8
0
 10
622.0
 20
514.0
 30
0.0
 11
624.0
 21
514.0
 31
0.0
  0
LINE
  8
0
 10
624.0
 20
514.0
 30
0.0
 11
624.0
 21
513.0
 31
0.0
  0
LINE
  8
0
 10
624.0
 20
513.0
 30
0.0
 11
622.0
 21
513.0
 31
0.0
  0
LINE
  8
0
 10
622.0
 20
513.0
 30
0.0
 11
622.0
 21
514.0
 31
0.0
  0
LINE
  8
0
 10
431.0
 20
513.0
 30
0.0
 11
570.0
 21
513.0
 31
0.0
  0
LINE
  8
0
 10
570.0
 20
513.0
 30
0.0
 11
570.0
 21
512.0
 31
0.0
  0
LINE
  8
0
 10
570.0
 20
512.0
 30
0.0
 11
431.0
 21
512.0
 31
0.0
  0
LINE
  8
0
 10
431.0
 20
512.0
 30
0.0
 11
431.0
 21
513.0
 31
0.0
  0
LINE
  8
0
 10
431.0
 20
512.0
 30
0.0
 11
570.0
 21
512.0
 31
0.0
  0
LINE
  8
0
 10
570.0
 20
512.0
 30
0.0
 11
570.0
 21
511.0
 31
0.0
  0
LINE
  8
0
 10
570.0
 20
511.0
 30
0.0
 11
431.0
 21
511.0
 31
0.0
  0
LINE
  8
0
 10
431.0
 20
511.0
 30
0.0
 11
431.0
 21
512.0
 31
0.0
  0
LINE
  8
0
 10
434.0
 20
511.0
 30
0.0
 11
570.0
 21
511.0
 31
0.0
  0
LINE
  8
0
 10
570.0
 20
511.0
 30
0.0
 11
570.0
 21
510.0
 31
0.0
  0
LINE
  8
0
 10
570.0
 20
510.0
 30
0.0
 11
434.0
 21
510.0
 31
0.0
  0
LINE
  8
0
 10
434.0
 20
510.0
 30
0.0
 11
434.0
 21
511.0
 31
0.0
  0
LINE
  8
0
 10
456.0
 20
510.0
 30
0.0
 11
570.0
 21
510.0
 31
0.0
  0
LINE
  8
0
 10
570.0
 20
510.0
 30
0.0
 11
570.0
 21
509.0
 31
0.0
  0
LINE
  8
0
 10
570.0
 20
509.0
 30
0.0
 11
456.0
 21
509.0
 31
0.0
  0
LINE
  8
0
 10
456.0
 20
509.0
 30
0.0
 11
456.0
 21
510.0
 31
0.0
  0
LINE
  8
0
 10
476.0
 20
509.0
 30
0.0
 11
570.0
 21
509.0
 31
0.0
  0
LINE
  8
0
 10
570.0
 20
509.0
 30
0.0
 11
570.0
 21
508.0
 31
0.0
  0
LINE
  8
0
 10
570.0
 20
508.0
 30
0.0
 11
476.0
 21
508.0
 31
0.0
  0
LINE
  8
0
 10
476.0
 20
508.0
 30
0.0
 11
476.0
 21
509.0
 31
0.0
  0
LINE
  8
0
 10
480.0
 20
508.0
 30
0.0
 11
570.0
 21
508.0
 31
0.0
  0
LINE
  8
0
 10
570.0
 20
508.0
 30
0.0
 11
570.0
 21
507.0
 31
0.0
  0
LINE
  8
0
 10
570.0
 20
507.0
 30
0.0
 11
480.0
 21
507.0
 31
0.0
  0
LINE
  8
0
 10
480.0
 20
507.0
 30
0.0
 11
480.0
 21
508.0
 31
0.0
  0
LINE
  8
0
 10
409.0
 20
507.0
 30
0.0
 11
411.0
 21
507.0
 31
0.0
  0
LINE
  8
0
 10
411.0
 20
507.0
 30
0.0
 11
411.0
 21
506.0
 31
0.0
  0
LINE
  8
0
 10
411.0
 20
506.0
 30
0.0
 11
409.0
 21
506.0
 31
0.0
  0
LINE
  8
0
 10
409.0
 20
506.0
 30
0.0
 11
409.0
 21
507.0
 31
0.0
  0
LINE
  8
0
 10
478.0
 20
507.0
 30
0.0
 11
570.0
 21
507.0
 31
0.0
  0
LINE
  8
0
 10
570.0
 20
507.0
 30
0.0
 11
570.0
 21
506.0
 31
0.0
  0
LINE
  8
0
 10
570.0
 20
506.0
 30
0.0
 11
478.0
 21
506.0
 31
0.0
  0
LINE
  8
0
 10
478.0
 20
506.0
 30
0.0
 11
478.0
 21
507.0
 31
0.0
  0
LINE
  8
0
 10
409.0
 20
506.0
 30
0.0
 11
411.0
 21
506.0
 31
0.0
  0
LINE
  8
0
 10
411.0
 20
506.0
 30
0.0
 11
411.0
 21
505.0
 31
0.0
  0
LINE
  8
0
 10
411.0
 20
505.0
 30
0.0
 11
409.0
 21
505.0
 31
0.0
  0
LINE
  8
0
 10
409.0
 20
505.0
 30
0.0
 11
409.0
 21
506.0
 31
0.0
  0
LINE
  8
0
 10
463.0
 20
506.0
 30
0.0
 11
464.0
 21
506.0
 31
0.0
  0
LINE
  8
0
 10
464.0
 20
506.0
 30
0.0
 11
464.0
 21
505.0
 31
0.0
  0
LINE
  8
0
 10
464.0
 20
505.0
 30
0.0
 11
463.0
 21
505.0
 31
0.0
  0
LINE
  8
0
 10
463.0
 20
505.0
 30
0.0
 11
463.0
 21
506.0
 31
0.0
  0
LINE
  8
0
 10
468.0
 20
506.0
 30
0.0
 11
539.0
 21
506.0
 31
0.0
  0
LINE
  8
0
 10
539.0
 20
506.0
 30
0.0
 11
539.0
 21
505.0
 31
0.0
  0
LINE
  8
0
 10
539.0
 20
505.0
 30
0.0
 11
468.0
 21
505.0
 31
0.0
  0
LINE
  8
0
 10
468.0
 20
505.0
 30
0.0
 11
468.0
 21
506.0
 31
0.0
  0
LINE
  8
0
 10
558.0
 20
506.0
 30
0.0
 11
570.0
 21
506.0
 31
0.0
  0
LINE
  8
0
 10
570.0
 20
506.0
 30
0.0
 11
570.0
 21
505.0
 31
0.0
  0
LINE
  8
0
 10
570.0
 20
505.0
 30
0.0
 11
558.0
 21
505.0
 31
0.0
  0
LINE
  8
0
 10
558.0
 20
505.0
 30
0.0
 11
558.0
 21
506.0
 31
0.0
  0
LINE
  8
0
 10
408.0
 20
505.0
 30
0.0
 11
412.0
 21
505.0
 31
0.0
  0
LINE
  8
0
 10
412.0
 20
505.0
 30
0.0
 11
412.0
 21
504.0
 31
0.0
  0
LINE
  8
0
 10
412.0
 20
504.0
 30
0.0
 11
408.0
 21
504.0
 31
0.0
  0
LINE
  8
0
 10
408.0
 20
504.0
 30
0.0
 11
408.0
 21
505.0
 31
0.0
  0
LINE
  8
0
 10
422.0
 20
505.0
 30
0.0
 11
539.0
 21
505.0
 31
0.0
  0
LINE
  8
0
 10
539.0
 20
505.0
 30
0.0
 11
539.0
 21
504.0
 31
0.0
  0
LINE
  8
0
 10
539.0
 20
504.0
 30
0.0
 11
422.0
 21
504.0
 31
0.0
  0
LINE
  8
0
 10
422.0
 20
504.0
 30
0.0
 11
422.0
 21
505.0
 31
0.0
  0
LINE
  8
0
 10
558.0
 20
505.0
 30
0.0
 11
570.0
 21
505.0
 31
0.0
  0
LINE
  8
0
 10
570.0
 20
505.0
 30
0.0
 11
570.0
 21
504.0
 31
0.0
  0
LINE
  8
0
 10
570.0
 20
504.0
 30
0.0
 11
558.0
 21
504.0
 31
0.0
  0
LINE
  8
0
 10
558.0
 20
504.0
 30
0.0
 11
558.0
 21
505.0
 31
0.0
  0
LINE
  8
0
 10
408.0
 20
504.0
 30
0.0
 11
413.0
 21
504.0
 31
0.0
  0
LINE
  8
0
 10
413.0
 20
504.0
 30
0.0
 11
413.0
 21
503.0
 31
0.0
  0
LINE
  8
0
 10
413.0
 20
503.0
 30
0.0
 11
408.0
 21
503.0
 31
0.0
  0
LINE
  8
0
 10
408.0
 20
503.0
 30
0.0
 11
408.0
 21
504.0
 31
0.0
  0
LINE
  8
0
 10
420.0
 20
504.0
 30
0.0
 11
541.0
 21
504.0
 31
0.0
  0
LINE
  8
0
 10
541.0
 20
504.0
 30
0.0
 11
541.0
 21
503.0
 31
0.0
  0
LINE
  8
0
 10
541.0
 20
503.0
 30
0.0
 11
420.0
 21
503.0
 31
0.0
  0
LINE
  8
0
 10
420.0
 20
503.0
 30
0.0
 11
420.0
 21
504.0
 31
0.0
  0
LINE
  8
0
 10
556.0
 20
504.0
 30
0.0
 11
570.0
 21
504.0
 31
0.0
  0
LINE
  8
0
 10
570.0
 20
504.0
 30
0.0
 11
570.0
 21
503.0
 31
0.0
  0
LINE
  8
0
 10
570.0
 20
503.0
 30
0.0
 11
556.0
 21
503.0
 31
0.0
  0
LINE
  8
0
 10
556.0
 20
503.0
 30
0.0
 11
556.0
 21
504.0
 31
0.0
  0
LINE
  8
0
 10
407.0
 20
503.0
 30
0.0
 11
413.0
 21
503.0
 31
0.0
  0
LINE
  8
0
 10
413.0
 20
503.0
 30
0.0
 11
413.0
 21
502.0
 31
0.0
  0
LINE
  8
0
 10
413.0
 20
502.0
 30
0.0
 11
407.0
 21
502.0
 31
0.0
  0
LINE
  8
0
 10
407.0
 20
502.0
 30
0.0
 11
407.0
 21
503.0
 31
0.0
  0
LINE
  8
0
 10
420.0
 20
503.0
 30
0.0
 11
545.0
 21
503.0
 31
0.0
  0
LINE
  8
0
 10
545.0
 20
503.0
 30
0.0
 11
545.0
 21
502.0
 31
0.0
  0
LINE
  8
0
 10
545.0
 20
502.0
 30
0.0
 11
420.0
 21
502.0
 31
0.0
  0
LINE
  8
0
 10
420.0
 20
502.0
 30
0.0
 11
420.0
 21
503.0
 31
0.0
  0
LINE
  8
0
 10
550.0
 20
503.0
 30
0.0
 11
570.0
 21
503.0
 31
0.0
  0
LINE
  8
0
 10
570.0
 20
503.0
 30
0.0
 11
570.0
 21
502.0
 31
0.0
  0
LINE
  8
0
 10
570.0
 20
502.0
 30
0.0
 11
550.0
 21
502.0
 31
0.0
  0
LINE
  8
0
 10
550.0
 20
502.0
 30
0.0
 11
550.0
 21
503.0
 31
0.0
  0
LINE
  8
0
 10
614.0
 20
503.0
 30
0.0
 11
618.0
 21
503.0
 31
0.0
  0
LINE
  8
0
 10
618.0
 20
503.0
 30
0.0
 11
618.0
 21
502.0
 31
0.0
  0
LINE
  8
0
 10
618.0
 20
502.0
 30
0.0
 11
614.0
 21
502.0
 31
0.0
  0
LINE
  8
0
 10
614.0
 20
502.0
 30
0.0
 11
614.0
 21
503.0
 31
0.0
  0
LINE
  8
0
 10
407.0
 20
502.0
 30
0.0
 11
413.0
 21
502.0
 31
0.0
  0
LINE
  8
0
 10
413.0
 20
502.0
 30
0.0
 11
413.0
 21
501.0
 31
0.0
  0
LINE
  8
0
 10
413.0
 20
501.0
 30
0.0
 11
407.0
 21
501.0
 31
0.0
  0
LINE
  8
0
 10
407.0
 20
501.0
 30
0.0
 11
407.0
 21
502.0
 31
0.0
  0
LINE
  8
0
 10
421.0
 20
502.0
 30
0.0
 11
546.0
 21
502.0
 31
0.0
  0
LINE
  8
0
 10
546.0
 20
502.0
 30
0.0
 11
546.0
 21
501.0
 31
0.0
  0
LINE
  8
0
 10
546.0
 20
501.0
 30
0.0
 11
421.0
 21
501.0
 31
0.0
  0
LINE
  8
0
 10
421.0
 20
501.0
 30
0.0
 11
421.0
 21
502.0
 31
0.0
  0
LINE
  8
0
 10
549.0
 20
502.0
 30
0.0
 11
570.0
 21
502.0
 31
0.0
  0
LINE
  8
0
 10
570.0
 20
502.0
 30
0.0
 11
570.0
 21
501.0
 31
0.0
  0
LINE
  8
0
 10
570.0
 20
501.0
 30
0.0
 11
549.0
 21
501.0
 31
0.0
  0
LINE
  8
0
 10
549.0
 20
501.0
 30
0.0
 11
549.0
 21
502.0
 31
0.0
  0
LINE
  8
0
 10
614.0
 20
502.0
 30
0.0
 11
621.0
 21
502.0
 31
0.0
  0
LINE
  8
0
 10
621.0
 20
502.0
 30
0.0
 11
621.0
 21
501.0
 31
0.0
  0
LINE
  8
0
 10
621.0
 20
501.0
 30
0.0
 11
614.0
 21
501.0
 31
0.0
  0
LINE
  8
0
 10
614.0
 20
501.0
 30
0.0
 11
614.0
 21
502.0
 31
0.0
  0
LINE
  8
0
 10
407.0
 20
501.0
 30
0.0
 11
413.0
 21
501.0
 31
0.0
  0
LINE
  8
0
 10
413.0
 20
501.0
 30
0.0
 11
413.0
 21
500.0
 31
0.0
  0
LINE
  8
0
 10
413.0
 20
500.0
 30
0.0
 11
407.0
 21
500.0
 31
0.0
  0
LINE
  8
0
 10
407.0
 20
500.0
 30
0.0
 11
407.0
 21
501.0
 31
0.0
  0
LINE
  8
0
 10
440.0
 20
501.0
 30
0.0
 11
442.0
 21
501.0
 31
0.0
  0
LINE
  8
0
 10
442.0
 20
501.0
 30
0.0
 11
442.0
 21
500.0
 31
0.0
  0
LINE
  8
0
 10
442.0
 20
500.0
 30
0.0
 11
440.0
 21
500.0
 31
0.0
  0
LINE
  8
0
 10
440.0
 20
500.0
 30
0.0
 11
440.0
 21
501.0
 31
0.0
  0
LINE
  8
0
 10
456.0
 20
501.0
 30
0.0
 11
545.0
 21
501.0
 31
0.0
  0
LINE
  8
0
 10
545.0
 20
501.0
 30
0.0
 11
545.0
 21
500.0
 31
0.0
  0
LINE
  8
0
 10
545.0
 20
500.0
 30
0.0
 11
456.0
 21
500.0
 31
0.0
  0
LINE
  8
0
 10
456.0
 20
500.0
 30
0.0
 11
456.0
 21
501.0
 31
0.0
  0
LINE
  8
0
 10
550.0
 20
501.0
 30
0.0
 11
569.0
 21
501.0
 31
0.0
  0
LINE
  8
0
 10
569.0
 20
501.0
 30
0.0
 11
569.0
 21
500.0
 31
0.0
  0
LINE
  8
0
 10
569.0
 20
500.0
 30
0.0
 11
550.0
 21
500.0
 31
0.0
  0
LINE
  8
0
 10
550.0
 20
500.0
 30
0.0
 11
550.0
 21
501.0
 31
0.0
  0
LINE
  8
0
 10
614.0
 20
501.0
 30
0.0
 11
622.0
 21
501.0
 31
0.0
  0
LINE
  8
0
 10
622.0
 20
501.0
 30
0.0
 11
622.0
 21
500.0
 31
0.0
  0
LINE
  8
0
 10
622.0
 20
500.0
 30
0.0
 11
614.0
 21
500.0
 31
0.0
  0
LINE
  8
0
 10
614.0
 20
500.0
 30
0.0
 11
614.0
 21
501.0
 31
0.0
  0
LINE
  8
0
 10
408.0
 20
500.0
 30
0.0
 11
413.0
 21
500.0
 31
0.0
  0
LINE
  8
0
 10
413.0
 20
500.0
 30
0.0
 11
413.0
 21
499.0
 31
0.0
  0
LINE
  8
0
 10
413.0
 20
499.0
 30
0.0
 11
408.0
 21
499.0
 31
0.0
  0
LINE
  8
0
 10
408.0
 20
499.0
 30
0.0
 11
408.0
 21
500.0
 31
0.0
  0
LINE
  8
0
 10
461.0
 20
500.0
 30
0.0
 11
525.0
 21
500.0
 31
0.0
  0
LINE
  8
0
 10
525.0
 20
500.0
 30
0.0
 11
525.0
 21
499.0
 31
0.0
  0
LINE
  8
0
 10
525.0
 20
499.0
 30
0.0
 11
461.0
 21
499.0
 31
0.0
  0
LINE
  8
0
 10
461.0
 20
499.0
 30
0.0
 11
461.0
 21
500.0
 31
0.0
  0
LINE
  8
0
 10
530.0
 20
500.0
 30
0.0
 11
535.0
 21
500.0
 31
0.0
  0
LINE
  8
0
 10
535.0
 20
500.0
 30
0.0
 11
535.0
 21
499.0
 31
0.0
  0
LINE
  8
0
 10
535.0
 20
499.0
 30
0.0
 11
530.0
 21
499.0
 31
0.0
  0
LINE
  8
0
 10
530.0
 20
499.0
 30
0.0
 11
530.0
 21
500.0
 31
0.0
  0
LINE
  8
0
 10
537.0
 20
500.0
 30
0.0
 11
542.0
 21
500.0
 31
0.0
  0
LINE
  8
0
 10
542.0
 20
500.0
 30
0.0
 11
542.0
 21
499.0
 31
0.0
  0
LINE
  8
0
 10
542.0
 20
499.0
 30
0.0
 11
537.0
 21
499.0
 31
0.0
  0
LINE
  8
0
 10
537.0
 20
499.0
 30
0.0
 11
537.0
 21
500.0
 31
0.0
  0
LINE
  8
0
 10
551.0
 20
500.0
 30
0.0
 11
569.0
 21
500.0
 31
0.0
  0
LINE
  8
0
 10
569.0
 20
500.0
 30
0.0
 11
569.0
 21
499.0
 31
0.0
  0
LINE
  8
0
 10
569.0
 20
499.0
 30
0.0
 11
551.0
 21
499.0
 31
0.0
  0
LINE
  8
0
 10
551.0
 20
499.0
 30
0.0
 11
551.0
 21
500.0
 31
0.0
  0
LINE
  8
0
 10
613.0
 20
500.0
 30
0.0
 11
622.0
 21
500.0
 31
0.0
  0
LINE
  8
0
 10
622.0
 20
500.0
 30
0.0
 11
622.0
 21
499.0
 31
0.0
  0
LINE
  8
0
 10
622.0
 20
499.0
 30
0.0
 11
613.0
 21
499.0
 31
0.0
  0
LINE
  8
0
 10
613.0
 20
499.0
 30
0.0
 11
613.0
 21
500.0
 31
0.0
  0
LINE
  8
0
 10
408.0
 20
499.0
 30
0.0
 11
412.0
 21
499.0
 31
0.0
  0
LINE
  8
0
 10
412.0
 20
499.0
 30
0.0
 11
412.0
 21
498.0
 31
0.0
  0
LINE
  8
0
 10
412.0
 20
498.0
 30
0.0
 11
408.0
 21
498.0
 31
0.0
  0
LINE
  8
0
 10
408.0
 20
498.0
 30
0.0
 11
408.0
 21
499.0
 31
0.0
  0
LINE
  8
0
 10
461.0
 20
499.0
 30
0.0
 11
509.0
 21
499.0
 31
0.0
  0
LINE
  8
0
 10
509.0
 20
499.0
 30
0.0
 11
509.0
 21
498.0
 31
0.0
  0
LINE
  8
0
 10
509.0
 20
498.0
 30
0.0
 11
461.0
 21
498.0
 31
0.0
  0
LINE
  8
0
 10
461.0
 20
498.0
 30
0.0
 11
461.0
 21
499.0
 31
0.0
  0
LINE
  8
0
 10
543.0
 20
499.0
 30
0.0
 11
545.0
 21
499.0
 31
0.0
  0
LINE
  8
0
 10
545.0
 20
499.0
 30
0.0
 11
545.0
 21
498.0
 31
0.0
  0
LINE
  8
0
 10
545.0
 20
498.0
 30
0.0
 11
543.0
 21
498.0
 31
0.0
  0
LINE
  8
0
 10
543.0
 20
498.0
 30
0.0
 11
543.0
 21
499.0
 31
0.0
  0
LINE
  8
0
 10
553.0
 20
499.0
 30
0.0
 11
569.0
 21
499.0
 31
0.0
  0
LINE
  8
0
 10
569.0
 20
499.0
 30
0.0
 11
569.0
 21
498.0
 31
0.0
  0
LINE
  8
0
 10
569.0
 20
498.0
 30
0.0
 11
553.0
 21
498.0
 31
0.0
  0
LINE
  8
0
 10
553.0
 20
498.0
 30
0.0
 11
553.0
 21
499.0
 31
0.0
  0
LINE
  8
0
 10
612.0
 20
499.0
 30
0.0
 11
623.0
 21
499.0
 31
0.0
  0
LINE
  8
0
 10
623.0
 20
499.0
 30
0.0
 11
623.0
 21
498.0
 31
0.0
  0
LINE
  8
0
 10
623.0
 20
498.0
 30
0.0
 11
612.0
 21
498.0
 31
0.0
  0
LINE
  8
0
 10
612.0
 20
498.0
 30
0.0
 11
612.0
 21
499.0
 31
0.0
  0
LINE
  8
0
 10
408.0
 20
498.0
 30
0.0
 11
412.0
 21
498.0
 31
0.0
  0
LINE
  8
0
 10
412.0
 20
498.0
 30
0.0
 11
412.0
 21
497.0
 31
0.0
  0
LINE
  8
0
 10
412.0
 20
497.0
 30
0.0
 11
408.0
 21
497.0
 31
0.0
  0
LINE
  8
0
 10
408.0
 20
497.0
 30
0.0
 11
408.0
 21
498.0
 31
0.0
  0
LINE
  8
0
 10
455.0
 20
498.0
 30
0.0
 11
509.0
 21
498.0
 31
0.0
  0
LINE
  8
0
 10
509.0
 20
498.0
 30
0.0
 11
509.0
 21
497.0
 31
0.0
  0
LINE
  8
0
 10
509.0
 20
497.0
 30
0.0
 11
455.0
 21
497.0
 31
0.0
  0
LINE
  8
0
 10
455.0
 20
497.0
 30
0.0
 11
455.0
 21
498.0
 31
0.0
  0
LINE
  8
0
 10
512.0
 20
498.0
 30
0.0
 11
523.0
 21
498.0
 31
0.0
  0
LINE
  8
0
 10
523.0
 20
498.0
 30
0.0
 11
523.0
 21
497.0
 31
0.0
  0
LINE
  8
0
 10
523.0
 20
497.0
 30
0.0
 11
512.0
 21
497.0
 31
0.0
  0
LINE
  8
0
 10
512.0
 20
497.0
 30
0.0
 11
512.0
 21
498.0
 31
0.0
  0
LINE
  8
0
 10
542.0
 20
498.0
 30
0.0
 11
544.0
 21
498.0
 31
0.0
  0
LINE
  8
0
 10
544.0
 20
498.0
 30
0.0
 11
544.0
 21
497.0
 31
0.0
  0
LINE
  8
0
 10
544.0
 20
497.0
 30
0.0
 11
542.0
 21
497.0
 31
0.0
  0
LINE
  8
0
 10
542.0
 20
497.0
 30
0.0
 11
542.0
 21
498.0
 31
0.0
  0
LINE
  8
0
 10
554.0
 20
498.0
 30
0.0
 11
569.0
 21
498.0
 31
0.0
  0
LINE
  8
0
 10
569.0
 20
498.0
 30
0.0
 11
569.0
 21
497.0
 31
0.0
  0
LINE
  8
0
 10
569.0
 20
497.0
 30
0.0
 11
554.0
 21
497.0
 31
0.0
  0
LINE
  8
0
 10
554.0
 20
497.0
 30
0.0
 11
554.0
 21
498.0
 31
0.0
  0
LINE
  8
0
 10
612.0
 20
498.0
 30
0.0
 11
623.0
 21
498.0
 31
0.0
  0
LINE
  8
0
 10
623.0
 20
498.0
 30
0.0
 11
623.0
 21
497.0
 31
0.0
  0
LINE
  8
0
 10
623.0
 20
497.0
 30
0.0
 11
612.0
 21
497.0
 31
0.0
  0
LINE
  8
0
 10
612.0
 20
497.0
 30
0.0
 11
612.0
 21
498.0
 31
0.0
  0
LINE
  8
0
 10
407.0
 20
497.0
 30
0.0
 11
413.0
 21
497.0
 31
0.0
  0
LINE
  8
0
 10
413.0
 20
497.0
 30
0.0
 11
413.0
 21
496.0
 31
0.0
  0
LINE
  8
0
 10
413.0
 20
496.0
 30
0.0
 11
407.0
 21
496.0
 31
0.0
  0
LINE
  8
0
 10
407.0
 20
496.0
 30
0.0
 11
407.0
 21
497.0
 31
0.0
  0
LINE
  8
0
 10
440.0
 20
497.0
 30
0.0
 11
511.0
 21
497.0
 31
0.0
  0
LINE
  8
0
 10
511.0
 20
497.0
 30
0.0
 11
511.0
 21
496.0
 31
0.0
  0
LINE
  8
0
 10
511.0
 20
496.0
 30
0.0
 11
440.0
 21
496.0
 31
0.0
  0
LINE
  8
0
 10
440.0
 20
496.0
 30
0.0
 11
440.0
 21
497.0
 31
0.0
  0
LINE
  8
0
 10
550.0
 20
497.0
 30
0.0
 11
569.0
 21
497.0
 31
0.0
  0
LINE
  8
0
 10
569.0
 20
497.0
 30
0.0
 11
569.0
 21
496.0
 31
0.0
  0
LINE
  8
0
 10
569.0
 20
496.0
 30
0.0
 11
550.0
 21
496.0
 31
0.0
  0
LINE
  8
0
 10
550.0
 20
496.0
 30
0.0
 11
550.0
 21
497.0
 31
0.0
  0
LINE
  8
0
 10
612.0
 20
497.0
 30
0.0
 11
623.0
 21
497.0
 31
0.0
  0
LINE
  8
0
 10
623.0
 20
497.0
 30
0.0
 11
623.0
 21
496.0
 31
0.0
  0
LINE
  8
0
 10
623.0
 20
496.0
 30
0.0
 11
612.0
 21
496.0
 31
0.0
  0
LINE
  8
0
 10
612.0
 20
496.0
 30
0.0
 11
612.0
 21
497.0
 31
0.0
  0
LINE
  8
0
 10
407.0
 20
496.0
 30
0.0
 11
413.0
 21
496.0
 31
0.0
  0
LINE
  8
0
 10
413.0
 20
496.0
 30
0.0
 11
413.0
 21
495.0
 31
0.0
  0
LINE
  8
0
 10
413.0
 20
495.0
 30
0.0
 11
407.0
 21
495.0
 31
0.0
  0
LINE
  8
0
 10
407.0
 20
495.0
 30
0.0
 11
407.0
 21
496.0
 31
0.0
  0
LINE
  8
0
 10
440.0
 20
496.0
 30
0.0
 11
523.0
 21
496.0
 31
0.0
  0
LINE
  8
0
 10
523.0
 20
496.0
 30
0.0
 11
523.0
 21
495.0
 31
0.0
  0
LINE
  8
0
 10
523.0
 20
495.0
 30
0.0
 11
440.0
 21
495.0
 31
0.0
  0
LINE
  8
0
 10
440.0
 20
495.0
 30
0.0
 11
440.0
 21
496.0
 31
0.0
  0
LINE
  8
0
 10
542.0
 20
496.0
 30
0.0
 11
585.0
 21
496.0
 31
0.0
  0
LINE
  8
0
 10
585.0
 20
496.0
 30
0.0
 11
585.0
 21
495.0
 31
0.0
  0
LINE
  8
0
 10
585.0
 20
495.0
 30
0.0
 11
542.0
 21
495.0
 31
0.0
  0
LINE
  8
0
 10
542.0
 20
495.0
 30
0.0
 11
542.0
 21
496.0
 31
0.0
  0
LINE
  8
0
 10
613.0
 20
496.0
 30
0.0
 11
621.0
 21
496.0
 31
0.0
  0
LINE
  8
0
 10
621.0
 20
496.0
 30
0.0
 11
621.0
 21
495.0
 31
0.0
  0
LINE
  8
0
 10
621.0
 20
495.0
 30
0.0
 11
613.0
 21
495.0
 31
0.0
  0
LINE
  8
0
 10
613.0
 20
495.0
 30
0.0
 11
613.0
 21
496.0
 31
0.0
  0
LINE
  8
0
 10
407.0
 20
495.0
 30
0.0
 11
414.0
 21
495.0
 31
0.0
  0
LINE
  8
0
 10
414.0
 20
495.0
 30
0.0
 11
414.0
 21
494.0
 31
0.0
  0
LINE
  8
0
 10
414.0
 20
494.0
 30
0.0
 11
407.0
 21
494.0
 31
0.0
  0
LINE
  8
0
 10
407.0
 20
494.0
 30
0.0
 11
407.0
 21
495.0
 31
0.0
  0
LINE
  8
0
 10
440.0
 20
495.0
 30
0.0
 11
525.0
 21
495.0
 31
0.0
  0
LINE
  8
0
 10
525.0
 20
495.0
 30
0.0
 11
525.0
 21
494.0
 31
0.0
  0
LINE
  8
0
 10
525.0
 20
494.0
 30
0.0
 11
440.0
 21
494.0
 31
0.0
  0
LINE
  8
0
 10
440.0
 20
494.0
 30
0.0
 11
440.0
 21
495.0
 31
0.0
  0
LINE
  8
0
 10
540.0
 20
495.0
 30
0.0
 11
589.0
 21
495.0
 31
0.0
  0
LINE
  8
0
 10
589.0
 20
495.0
 30
0.0
 11
589.0
 21
494.0
 31
0.0
  0
LINE
  8
0
 10
589.0
 20
494.0
 30
0.0
 11
540.0
 21
494.0
 31
0.0
  0
LINE
  8
0
 10
540.0
 20
494.0
 30
0.0
 11
540.0
 21
495.0
 31
0.0
  0
LINE
  8
0
 10
614.0
 20
495.0
 30
0.0
 11
621.0
 21
495.0
 31
0.0
  0
LINE
  8
0
 10
621.0
 20
495.0
 30
0.0
 11
621.0
 21
494.0
 31
0.0
  0
LINE
  8
0
 10
621.0
 20
494.0
 30
0.0
 11
614.0
 21
494.0
 31
0.0
  0
LINE
  8
0
 10
614.0
 20
494.0
 30
0.0
 11
614.0
 21
495.0
 31
0.0
  0
LINE
  8
0
 10
407.0
 20
494.0
 30
0.0
 11
414.0
 21
494.0
 31
0.0
  0
LINE
  8
0
 10
414.0
 20
494.0
 30
0.0
 11
414.0
 21
493.0
 31
0.0
  0
LINE
  8
0
 10
414.0
 20
493.0
 30
0.0
 11
407.0
 21
493.0
 31
0.0
  0
LINE
  8
0
 10
407.0
 20
493.0
 30
0.0
 11
407.0
 21
494.0
 31
0.0
  0
LINE
  8
0
 10
442.0
 20
494.0
 30
0.0
 11
525.0
 21
494.0
 31
0.0
  0
LINE
  8
0
 10
525.0
 20
494.0
 30
0.0
 11
525.0
 21
493.0
 31
0.0
  0
LINE
  8
0
 10
525.0
 20
493.0
 30
0.0
 11
442.0
 21
493.0
 31
0.0
  0
LINE
  8
0
 10
442.0
 20
493.0
 30
0.0
 11
442.0
 21
494.0
 31
0.0
  0
LINE
  8
0
 10
540.0
 20
494.0
 30
0.0
 11
590.0
 21
494.0
 31
0.0
  0
LINE
  8
0
 10
590.0
 20
494.0
 30
0.0
 11
590.0
 21
493.0
 31
0.0
  0
LINE
  8
0
 10
590.0
 20
493.0
 30
0.0
 11
540.0
 21
493.0
 31
0.0
  0
LINE
  8
0
 10
540.0
 20
493.0
 30
0.0
 11
540.0
 21
494.0
 31
0.0
  0
LINE
  8
0
 10
616.0
 20
494.0
 30
0.0
 11
619.0
 21
494.0
 31
0.0
  0
LINE
  8
0
 10
619.0
 20
494.0
 30
0.0
 11
619.0
 21
493.0
 31
0.0
  0
LINE
  8
0
 10
619.0
 20
493.0
 30
0.0
 11
616.0
 21
493.0
 31
0.0
  0
LINE
  8
0
 10
616.0
 20
493.0
 30
0.0
 11
616.0
 21
494.0
 31
0.0
  0
LINE
  8
0
 10
407.0
 20
493.0
 30
0.0
 11
413.0
 21
493.0
 31
0.0
  0
LINE
  8
0
 10
413.0
 20
493.0
 30
0.0
 11
413.0
 21
492.0
 31
0.0
  0
LINE
  8
0
 10
413.0
 20
492.0
 30
0.0
 11
407.0
 21
492.0
 31
0.0
  0
LINE
  8
0
 10
407.0
 20
492.0
 30
0.0
 11
407.0
 21
493.0
 31
0.0
  0
LINE
  8
0
 10
458.0
 20
493.0
 30
0.0
 11
525.0
 21
493.0
 31
0.0
  0
LINE
  8
0
 10
525.0
 20
493.0
 30
0.0
 11
525.0
 21
492.0
 31
0.0
  0
LINE
  8
0
 10
525.0
 20
492.0
 30
0.0
 11
458.0
 21
492.0
 31
0.0
  0
LINE
  8
0
 10
458.0
 20
492.0
 30
0.0
 11
458.0
 21
493.0
 31
0.0
  0
LINE
  8
0
 10
541.0
 20
493.0
 30
0.0
 11
590.0
 21
493.0
 31
0.0
  0
LINE
  8
0
 10
590.0
 20
493.0
 30
0.0
 11
590.0
 21
492.0
 31
0.0
  0
LINE
  8
0
 10
590.0
 20
492.0
 30
0.0
 11
541.0
 21
492.0
 31
0.0
  0
LINE
  8
0
 10
541.0
 20
492.0
 30
0.0
 11
541.0
 21
493.0
 31
0.0
  0
LINE
  8
0
 10
407.0
 20
492.0
 30
0.0
 11
413.0
 21
492.0
 31
0.0
  0
LINE
  8
0
 10
413.0
 20
492.0
 30
0.0
 11
413.0
 21
491.0
 31
0.0
  0
LINE
  8
0
 10
413.0
 20
491.0
 30
0.0
 11
407.0
 21
491.0
 31
0.0
  0
LINE
  8
0
 10
407.0
 20
491.0
 30
0.0
 11
407.0
 21
492.0
 31
0.0
  0
LINE
  8
0
 10
458.0
 20
492.0
 30
0.0
 11
523.0
 21
492.0
 31
0.0
  0
LINE
  8
0
 10
523.0
 20
492.0
 30
0.0
 11
523.0
 21
491.0
 31
0.0
  0
LINE
  8
0
 10
523.0
 20
491.0
 30
0.0
 11
458.0
 21
491.0
 31
0.0
  0
LINE
  8
0
 10
458.0
 20
491.0
 30
0.0
 11
458.0
 21
492.0
 31
0.0
  0
LINE
  8
0
 10
543.0
 20
492.0
 30
0.0
 11
588.0
 21
492.0
 31
0.0
  0
LINE
  8
0
 10
588.0
 20
492.0
 30
0.0
 11
588.0
 21
491.0
 31
0.0
  0
LINE
  8
0
 10
588.0
 20
491.0
 30
0.0
 11
543.0
 21
491.0
 31
0.0
  0
LINE
  8
0
 10
543.0
 20
491.0
 30
0.0
 11
543.0
 21
492.0
 31
0.0
  0
LINE
  8
0
 10
407.0
 20
491.0
 30
0.0
 11
413.0
 21
491.0
 31
0.0
  0
LINE
  8
0
 10
413.0
 20
491.0
 30
0.0
 11
413.0
 21
490.0
 31
0.0
  0
LINE
  8
0
 10
413.0
 20
490.0
 30
0.0
 11
407.0
 21
490.0
 31
0.0
  0
LINE
  8
0
 10
407.0
 20
490.0
 30
0.0
 11
407.0
 21
491.0
 31
0.0
  0
LINE
  8
0
 10
458.0
 20
491.0
 30
0.0
 11
494.0
 21
491.0
 31
0.0
  0
LINE
  8
0
 10
494.0
 20
491.0
 30
0.0
 11
494.0
 21
490.0
 31
0.0
  0
LINE
  8
0
 10
494.0
 20
490.0
 30
0.0
 11
458.0
 21
490.0
 31
0.0
  0
LINE
  8
0
 10
458.0
 20
490.0
 30
0.0
 11
458.0
 21
491.0
 31
0.0
  0
LINE
  8
0
 10
569.0
 20
491.0
 30
0.0
 11
581.0
 21
491.0
 31
0.0
  0
LINE
  8
0
 10
581.0
 20
491.0
 30
0.0
 11
581.0
 21
490.0
 31
0.0
  0
LINE
  8
0
 10
581.0
 20
490.0
 30
0.0
 11
569.0
 21
490.0
 31
0.0
  0
LINE
  8
0
 10
569.0
 20
490.0
 30
0.0
 11
569.0
 21
491.0
 31
0.0
  0
LINE
  8
0
 10
408.0
 20
490.0
 30
0.0
 11
413.0
 21
490.0
 31
0.0
  0
LINE
  8
0
 10
413.0
 20
490.0
 30
0.0
 11
413.0
 21
489.0
 31
0.0
  0
LINE
  8
0
 10
413.0
 20
489.0
 30
0.0
 11
408.0
 21
489.0
 31
0.0
  0
LINE
  8
0
 10
408.0
 20
489.0
 30
0.0
 11
408.0
 21
490.0
 31
0.0
  0
LINE
  8
0
 10
459.0
 20
490.0
 30
0.0
 11
489.0
 21
490.0
 31
0.0
  0
LINE
  8
0
 10
489.0
 20
490.0
 30
0.0
 11
489.0
 21
489.0
 31
0.0
  0
LINE
  8
0
 10
489.0
 20
489.0
 30
0.0
 11
459.0
 21
489.0
 31
0.0
  0
LINE
  8
0
 10
459.0
 20
489.0
 30
0.0
 11
459.0
 21
490.0
 31
0.0
  0
LINE
  8
0
 10
571.0
 20
490.0
 30
0.0
 11
579.0
 21
490.0
 31
0.0
  0
LINE
  8
0
 10
579.0
 20
490.0
 30
0.0
 11
579.0
 21
489.0
 31
0.0
  0
LINE
  8
0
 10
579.0
 20
489.0
 30
0.0
 11
571.0
 21
489.0
 31
0.0
  0
LINE
  8
0
 10
571.0
 20
489.0
 30
0.0
 11
571.0
 21
490.0
 31
0.0
  0
LINE
  8
0
 10
408.0
 20
489.0
 30
0.0
 11
412.0
 21
489.0
 31
0.0
  0
LINE
  8
0
 10
412.0
 20
489.0
 30
0.0
 11
412.0
 21
488.0
 31
0.0
  0
LINE
  8
0
 10
412.0
 20
488.0
 30
0.0
 11
408.0
 21
488.0
 31
0.0
  0
LINE
  8
0
 10
408.0
 20
488.0
 30
0.0
 11
408.0
 21
489.0
 31
0.0
  0
LINE
  8
0
 10
459.0
 20
489.0
 30
0.0
 11
491.0
 21
489.0
 31
0.0
  0
LINE
  8
0
 10
491.0
 20
489.0
 30
0.0
 11
491.0
 21
488.0
 31
0.0
  0
LINE
  8
0
 10
491.0
 20
488.0
 30
0.0
 11
459.0
 21
488.0
 31
0.0
  0
LINE
  8
0
 10
459.0
 20
488.0
 30
0.0
 11
459.0
 21
489.0
 31
0.0
  0
LINE
  8
0
 10
569.0
 20
489.0
 30
0.0
 11
581.0
 21
489.0
 31
0.0
  0
LINE
  8
0
 10
581.0
 20
489.0
 30
0.0
 11
581.0
 21
488.0
 31
0.0
  0
LINE
  8
0
 10
581.0
 20
488.0
 30
0.0
 11
569.0
 21
488.0
 31
0.0
  0
LINE
  8
0
 10
569.0
 20
488.0
 30
0.0
 11
569.0
 21
489.0
 31
0.0
  0
LINE
  8
0
 10
408.0
 20
488.0
 30
0.0
 11
413.0
 21
488.0
 31
0.0
  0
LINE
  8
0
 10
413.0
 20
488.0
 30
0.0
 11
413.0
 21
487.0
 31
0.0
  0
LINE
  8
0
 10
413.0
 20
487.0
 30
0.0
 11
408.0
 21
487.0
 31
0.0
  0
LINE
  8
0
 10
408.0
 20
487.0
 30
0.0
 11
408.0
 21
488.0
 31
0.0
  0
LINE
  8
0
 10
460.0
 20
488.0
 30
0.0
 11
499.0
 21
488.0
 31
0.0
  0
LINE
  8
0
 10
499.0
 20
488.0
 30
0.0
 11
499.0
 21
487.0
 31
0.0
  0
LINE
  8
0
 10
499.0
 20
487.0
 30
0.0
 11
460.0
 21
487.0
 31
0.0
  0
LINE
  8
0
 10
460.0
 20
487.0
 30
0.0
 11
460.0
 21
488.0
 31
0.0
  0
LINE
  8
0
 10
559.0
 20
488.0
 30
0.0
 11
596.0
 21
488.0
 31
0.0
  0
LINE
  8
0
 10
596.0
 20
488.0
 30
0.0
 11
596.0
 21
487.0
 31
0.0
  0
LINE
  8
0
 10
596.0
 20
487.0
 30
0.0
 11
559.0
 21
487.0
 31
0.0
  0
LINE
  8
0
 10
559.0
 20
487.0
 30
0.0
 11
559.0
 21
488.0
 31
0.0
  0
LINE
  8
0
 10
407.0
 20
487.0
 30
0.0
 11
413.0
 21
487.0
 31
0.0
  0
LINE
  8
0
 10
413.0
 20
487.0
 30
0.0
 11
413.0
 21
486.0
 31
0.0
  0
LINE
  8
0
 10
413.0
 20
486.0
 30
0.0
 11
407.0
 21
486.0
 31
0.0
  0
LINE
  8
0
 10
407.0
 20
486.0
 30
0.0
 11
407.0
 21
487.0
 31
0.0
  0
LINE
  8
0
 10
460.0
 20
487.0
 30
0.0
 11
544.0
 21
487.0
 31
0.0
  0
LINE
  8
0
 10
544.0
 20
487.0
 30
0.0
 11
544.0
 21
486.0
 31
0.0
  0
LINE
  8
0
 10
544.0
 20
486.0
 30
0.0
 11
460.0
 21
486.0
 31
0.0
  0
LINE
  8
0
 10
460.0
 20
486.0
 30
0.0
 11
460.0
 21
487.0
 31
0.0
  0
LINE
  8
0
 10
557.0
 20
487.0
 30
0.0
 11
603.0
 21
487.0
 31
0.0
  0
LINE
  8
0
 10
603.0
 20
487.0
 30
0.0
 11
603.0
 21
486.0
 31
0.0
  0
LINE
  8
0
 10
603.0
 20
486.0
 30
0.0
 11
557.0
 21
486.0
 31
0.0
  0
LINE
  8
0
 10
557.0
 20
486.0
 30
0.0
 11
557.0
 21
487.0
 31
0.0
  0
LINE
  8
0
 10
407.0
 20
486.0
 30
0.0
 11
413.0
 21
486.0
 31
0.0
  0
LINE
  8
0
 10
413.0
 20
486.0
 30
0.0
 11
413.0
 21
485.0
 31
0.0
  0
LINE
  8
0
 10
413.0
 20
485.0
 30
0.0
 11
407.0
 21
485.0
 31
0.0
  0
LINE
  8
0
 10
407.0
 20
485.0
 30
0.0
 11
407.0
 21
486.0
 31
0.0
  0
LINE
  8
0
 10
461.0
 20
486.0
 30
0.0
 11
545.0
 21
486.0
 31
0.0
  0
LINE
  8
0
 10
545.0
 20
486.0
 30
0.0
 11
545.0
 21
485.0
 31
0.0
  0
LINE
  8
0
 10
545.0
 20
485.0
 30
0.0
 11
461.0
 21
485.0
 31
0.0
  0
LINE
  8
0
 10
461.0
 20
485.0
 30
0.0
 11
461.0
 21
486.0
 31
0.0
  0
LINE
  8
0
 10
556.0
 20
486.0
 30
0.0
 11
604.0
 21
486.0
 31
0.0
  0
LINE
  8
0
 10
604.0
 20
486.0
 30
0.0
 11
604.0
 21
485.0
 31
0.0
  0
LINE
  8
0
 10
604.0
 20
485.0
 30
0.0
 11
556.0
 21
485.0
 31
0.0
  0
LINE
  8
0
 10
556.0
 20
485.0
 30
0.0
 11
556.0
 21
486.0
 31
0.0
  0
LINE
  8
0
 10
408.0
 20
485.0
 30
0.0
 11
413.0
 21
485.0
 31
0.0
  0
LINE
  8
0
 10
413.0
 20
485.0
 30
0.0
 11
413.0
 21
484.0
 31
0.0
  0
LINE
  8
0
 10
413.0
 20
484.0
 30
0.0
 11
408.0
 21
484.0
 31
0.0
  0
LINE
  8
0
 10
408.0
 20
484.0
 30
0.0
 11
408.0
 21
485.0
 31
0.0
  0
LINE
  8
0
 10
461.0
 20
485.0
 30
0.0
 11
545.0
 21
485.0
 31
0.0
  0
LINE
  8
0
 10
545.0
 20
485.0
 30
0.0
 11
545.0
 21
484.0
 31
0.0
  0
LINE
  8
0
 10
545.0
 20
484.0
 30
0.0
 11
461.0
 21
484.0
 31
0.0
  0
LINE
  8
0
 10
461.0
 20
484.0
 30
0.0
 11
461.0
 21
485.0
 31
0.0
  0
LINE
  8
0
 10
556.0
 20
485.0
 30
0.0
 11
604.0
 21
485.0
 31
0.0
  0
LINE
  8
0
 10
604.0
 20
485.0
 30
0.0
 11
604.0
 21
484.0
 31
0.0
  0
LINE
  8
0
 10
604.0
 20
484.0
 30
0.0
 11
556.0
 21
484.0
 31
0.0
  0
LINE
  8
0
 10
556.0
 20
484.0
 30
0.0
 11
556.0
 21
485.0
 31
0.0
  0
LINE
  8
0
 10
408.0
 20
484.0
 30
0.0
 11
413.0
 21
484.0
 31
0.0
  0
LINE
  8
0
 10
413.0
 20
484.0
 30
0.0
 11
413.0
 21
483.0
 31
0.0
  0
LINE
  8
0
 10
413.0
 20
483.0
 30
0.0
 11
408.0
 21
483.0
 31
0.0
  0
LINE
  8
0
 10
408.0
 20
483.0
 30
0.0
 11
408.0
 21
484.0
 31
0.0
  0
LINE
  8
0
 10
462.0
 20
484.0
 30
0.0
 11
544.0
 21
484.0
 31
0.0
  0
LINE
  8
0
 10
544.0
 20
484.0
 30
0.0
 11
544.0
 21
483.0
 31
0.0
  0
LINE
  8
0
 10
544.0
 20
483.0
 30
0.0
 11
462.0
 21
483.0
 31
0.0
  0
LINE
  8
0
 10
462.0
 20
483.0
 30
0.0
 11
462.0
 21
484.0
 31
0.0
  0
LINE
  8
0
 10
557.0
 20
484.0
 30
0.0
 11
603.0
 21
484.0
 31
0.0
  0
LINE
  8
0
 10
603.0
 20
484.0
 30
0.0
 11
603.0
 21
483.0
 31
0.0
  0
LINE
  8
0
 10
603.0
 20
483.0
 30
0.0
 11
557.0
 21
483.0
 31
0.0
  0
LINE
  8
0
 10
557.0
 20
483.0
 30
0.0
 11
557.0
 21
484.0
 31
0.0
  0
LINE
  8
0
 10
406.0
 20
483.0
 30
0.0
 11
414.0
 21
483.0
 31
0.0
  0
LINE
  8
0
 10
414.0
 20
483.0
 30
0.0
 11
414.0
 21
482.0
 31
0.0
  0
LINE
  8
0
 10
414.0
 20
482.0
 30
0.0
 11
406.0
 21
482.0
 31
0.0
  0
LINE
  8
0
 10
406.0
 20
482.0
 30
0.0
 11
406.0
 21
483.0
 31
0.0
  0
LINE
  8
0
 10
462.0
 20
483.0
 30
0.0
 11
540.0
 21
483.0
 31
0.0
  0
LINE
  8
0
 10
540.0
 20
483.0
 30
0.0
 11
540.0
 21
482.0
 31
0.0
  0
LINE
  8
0
 10
540.0
 20
482.0
 30
0.0
 11
462.0
 21
482.0
 31
0.0
  0
LINE
  8
0
 10
462.0
 20
482.0
 30
0.0
 11
462.0
 21
483.0
 31
0.0
  0
LINE
  8
0
 10
562.0
 20
483.0
 30
0.0
 11
568.0
 21
483.0
 31
0.0
  0
LINE
  8
0
 10
568.0
 20
483.0
 30
0.0
 11
568.0
 21
482.0
 31
0.0
  0
LINE
  8
0
 10
568.0
 20
482.0
 30
0.0
 11
562.0
 21
482.0
 31
0.0
  0
LINE
  8
0
 10
562.0
 20
482.0
 30
0.0
 11
562.0
 21
483.0
 31
0.0
  0
LINE
  8
0
 10
575.0
 20
483.0
 30
0.0
 11
580.0
 21
483.0
 31
0.0
  0
LINE
  8
0
 10
580.0
 20
483.0
 30
0.0
 11
580.0
 21
482.0
 31
0.0
  0
LINE
  8
0
 10
580.0
 20
482.0
 30
0.0
 11
575.0
 21
482.0
 31
0.0
  0
LINE
  8
0
 10
575.0
 20
482.0
 30
0.0
 11
575.0
 21
483.0
 31
0.0
  0
LINE
  8
0
 10
406.0
 20
482.0
 30
0.0
 11
414.0
 21
482.0
 31
0.0
  0
LINE
  8
0
 10
414.0
 20
482.0
 30
0.0
 11
414.0
 21
481.0
 31
0.0
  0
LINE
  8
0
 10
414.0
 20
481.0
 30
0.0
 11
406.0
 21
481.0
 31
0.0
  0
LINE
  8
0
 10
406.0
 20
481.0
 30
0.0
 11
406.0
 21
482.0
 31
0.0
  0
LINE
  8
0
 10
463.0
 20
482.0
 30
0.0
 11
535.0
 21
482.0
 31
0.0
  0
LINE
  8
0
 10
535.0
 20
482.0
 30
0.0
 11
535.0
 21
481.0
 31
0.0
  0
LINE
  8
0
 10
535.0
 20
481.0
 30
0.0
 11
463.0
 21
481.0
 31
0.0
  0
LINE
  8
0
 10
463.0
 20
481.0
 30
0.0
 11
463.0
 21
482.0
 31
0.0
  0
LINE
  8
0
 10
400.0
 20
481.0
 30
0.0
 11
404.0
 21
481.0
 31
0.0
  0
LINE
  8
0
 10
404.0
 20
481.0
 30
0.0
 11
404.0
 21
480.0
 31
0.0
  0
LINE
  8
0
 10
404.0
 20
480.0
 30
0.0
 11
400.0
 21
480.0
 31
0.0
  0
LINE
  8
0
 10
400.0
 20
480.0
 30
0.0
 11
400.0
 21
481.0
 31
0.0
  0
LINE
  8
0
 10
407.0
 20
481.0
 30
0.0
 11
414.0
 21
481.0
 31
0.0
  0
LINE
  8
0
 10
414.0
 20
481.0
 30
0.0
 11
414.0
 21
480.0
 31
0.0
  0
LINE
  8
0
 10
414.0
 20
480.0
 30
0.0
 11
407.0
 21
480.0
 31
0.0
  0
LINE
  8
0
 10
407.0
 20
480.0
 30
0.0
 11
407.0
 21
481.0
 31
0.0
  0
LINE
  8
0
 10
464.0
 20
481.0
 30
0.0
 11
534.0
 21
481.0
 31
0.0
  0
LINE
  8
0
 10
534.0
 20
481.0
 30
0.0
 11
534.0
 21
480.0
 31
0.0
  0
LINE
  8
0
 10
534.0
 20
480.0
 30
0.0
 11
464.0
 21
480.0
 31
0.0
  0
LINE
  8
0
 10
464.0
 20
480.0
 30
0.0
 11
464.0
 21
481.0
 31
0.0
  0
LINE
  8
0
 10
400.0
 20
480.0
 30
0.0
 11
405.0
 21
480.0
 31
0.0
  0
LINE
  8
0
 10
405.0
 20
480.0
 30
0.0
 11
405.0
 21
479.0
 31
0.0
  0
LINE
  8
0
 10
405.0
 20
479.0
 30
0.0
 11
400.0
 21
479.0
 31
0.0
  0
LINE
  8
0
 10
400.0
 20
479.0
 30
0.0
 11
400.0
 21
480.0
 31
0.0
  0
LINE
  8
0
 10
408.0
 20
480.0
 30
0.0
 11
413.0
 21
480.0
 31
0.0
  0
LINE
  8
0
 10
413.0
 20
480.0
 30
0.0
 11
413.0
 21
479.0
 31
0.0
  0
LINE
  8
0
 10
413.0
 20
479.0
 30
0.0
 11
408.0
 21
479.0
 31
0.0
  0
LINE
  8
0
 10
408.0
 20
479.0
 30
0.0
 11
408.0
 21
480.0
 31
0.0
  0
LINE
  8
0
 10
416.0
 20
480.0
 30
0.0
 11
424.0
 21
480.0
 31
0.0
  0
LINE
  8
0
 10
424.0
 20
480.0
 30
0.0
 11
424.0
 21
479.0
 31
0.0
  0
LINE
  8
0
 10
424.0
 20
479.0
 30
0.0
 11
416.0
 21
479.0
 31
0.0
  0
LINE
  8
0
 10
416.0
 20
479.0
 30
0.0
 11
416.0
 21
480.0
 31
0.0
  0
LINE
  8
0
 10
464.0
 20
480.0
 30
0.0
 11
536.0
 21
480.0
 31
0.0
  0
LINE
  8
0
 10
536.0
 20
480.0
 30
0.0
 11
536.0
 21
479.0
 31
0.0
  0
LINE
  8
0
 10
536.0
 20
479.0
 30
0.0
 11
464.0
 21
479.0
 31
0.0
  0
LINE
  8
0
 10
464.0
 20
479.0
 30
0.0
 11
464.0
 21
480.0
 31
0.0
  0
LINE
  8
0
 10
561.0
 20
480.0
 30
0.0
 11
571.0
 21
480.0
 31
0.0
  0
LINE
  8
0
 10
571.0
 20
480.0
 30
0.0
 11
571.0
 21
479.0
 31
0.0
  0
LINE
  8
0
 10
571.0
 20
479.0
 30
0.0
 11
561.0
 21
479.0
 31
0.0
  0
LINE
  8
0
 10
561.0
 20
479.0
 30
0.0
 11
561.0
 21
480.0
 31
0.0
  0
LINE
  8
0
 10
576.0
 20
480.0
 30
0.0
 11
580.0
 21
480.0
 31
0.0
  0
LINE
  8
0
 10
580.0
 20
480.0
 30
0.0
 11
580.0
 21
479.0
 31
0.0
  0
LINE
  8
0
 10
580.0
 20
479.0
 30
0.0
 11
576.0
 21
479.0
 31
0.0
  0
LINE
  8
0
 10
576.0
 20
479.0
 30
0.0
 11
576.0
 21
480.0
 31
0.0
  0
LINE
  8
0
 10
400.0
 20
479.0
 30
0.0
 11
406.0
 21
479.0
 31
0.0
  0
LINE
  8
0
 10
406.0
 20
479.0
 30
0.0
 11
406.0
 21
478.0
 31
0.0
  0
LINE
  8
0
 10
406.0
 20
478.0
 30
0.0
 11
400.0
 21
478.0
 31
0.0
  0
LINE
  8
0
 10
400.0
 20
478.0
 30
0.0
 11
400.0
 21
479.0
 31
0.0
  0
LINE
  8
0
 10
408.0
 20
479.0
 30
0.0
 11
412.0
 21
479.0
 31
0.0
  0
LINE
  8
0
 10
412.0
 20
479.0
 30
0.0
 11
412.0
 21
478.0
 31
0.0
  0
LINE
  8
0
 10
412.0
 20
478.0
 30
0.0
 11
408.0
 21
478.0
 31
0.0
  0
LINE
  8
0
 10
408.0
 20
478.0
 30
0.0
 11
408.0
 21
479.0
 31
0.0
  0
LINE
  8
0
 10
416.0
 20
479.0
 30
0.0
 11
425.0
 21
479.0
 31
0.0
  0
LINE
  8
0
 10
425.0
 20
479.0
 30
0.0
 11
425.0
 21
478.0
 31
0.0
  0
LINE
  8
0
 10
425.0
 20
478.0
 30
0.0
 11
416.0
 21
478.0
 31
0.0
  0
LINE
  8
0
 10
416.0
 20
478.0
 30
0.0
 11
416.0
 21
479.0
 31
0.0
  0
LINE
  8
0
 10
465.0
 20
479.0
 30
0.0
 11
587.0
 21
479.0
 31
0.0
  0
LINE
  8
0
 10
587.0
 20
479.0
 30
0.0
 11
587.0
 21
478.0
 31
0.0
  0
LINE
  8
0
 10
587.0
 20
478.0
 30
0.0
 11
465.0
 21
478.0
 31
0.0
  0
LINE
  8
0
 10
465.0
 20
478.0
 30
0.0
 11
465.0
 21
479.0
 31
0.0
  0
LINE
  8
0
 10
400.0
 20
478.0
 30
0.0
 11
405.0
 21
478.0
 31
0.0
  0
LINE
  8
0
 10
405.0
 20
478.0
 30
0.0
 11
405.0
 21
477.0
 31
0.0
  0
LINE
  8
0
 10
405.0
 20
477.0
 30
0.0
 11
400.0
 21
477.0
 31
0.0
  0
LINE
  8
0
 10
400.0
 20
477.0
 30
0.0
 11
400.0
 21
478.0
 31
0.0
  0
LINE
  8
0
 10
407.0
 20
478.0
 30
0.0
 11
414.0
 21
478.0
 31
0.0
  0
LINE
  8
0
 10
414.0
 20
478.0
 30
0.0
 11
414.0
 21
477.0
 31
0.0
  0
LINE
  8
0
 10
414.0
 20
477.0
 30
0.0
 11
407.0
 21
477.0
 31
0.0
  0
LINE
  8
0
 10
407.0
 20
477.0
 30
0.0
 11
407.0
 21
478.0
 31
0.0
  0
LINE
  8
0
 10
416.0
 20
478.0
 30
0.0
 11
425.0
 21
478.0
 31
0.0
  0
LINE
  8
0
 10
425.0
 20
478.0
 30
0.0
 11
425.0
 21
477.0
 31
0.0
  0
LINE
  8
0
 10
425.0
 20
477.0
 30
0.0
 11
416.0
 21
477.0
 31
0.0
  0
LINE
  8
0
 10
416.0
 20
477.0
 30
0.0
 11
416.0
 21
478.0
 31
0.0
  0
LINE
  8
0
 10
466.0
 20
478.0
 30
0.0
 11
588.0
 21
478.0
 31
0.0
  0
LINE
  8
0
 10
588.0
 20
478.0
 30
0.0
 11
588.0
 21
477.0
 31
0.0
  0
LINE
  8
0
 10
588.0
 20
477.0
 30
0.0
 11
466.0
 21
477.0
 31
0.0
  0
LINE
  8
0
 10
466.0
 20
477.0
 30
0.0
 11
466.0
 21
478.0
 31
0.0
  0
LINE
  8
0
 10
400.0
 20
477.0
 30
0.0
 11
405.0
 21
477.0
 31
0.0
  0
LINE
  8
0
 10
405.0
 20
477.0
 30
0.0
 11
405.0
 21
476.0
 31
0.0
  0
LINE
  8
0
 10
405.0
 20
476.0
 30
0.0
 11
400.0
 21
476.0
 31
0.0
  0
LINE
  8
0
 10
400.0
 20
476.0
 30
0.0
 11
400.0
 21
477.0
 31
0.0
  0
LINE
  8
0
 10
406.0
 20
477.0
 30
0.0
 11
415.0
 21
477.0
 31
0.0
  0
LINE
  8
0
 10
415.0
 20
477.0
 30
0.0
 11
415.0
 21
476.0
 31
0.0
  0
LINE
  8
0
 10
415.0
 20
476.0
 30
0.0
 11
406.0
 21
476.0
 31
0.0
  0
LINE
  8
0
 10
406.0
 20
476.0
 30
0.0
 11
406.0
 21
477.0
 31
0.0
  0
LINE
  8
0
 10
416.0
 20
477.0
 30
0.0
 11
423.0
 21
477.0
 31
0.0
  0
LINE
  8
0
 10
423.0
 20
477.0
 30
0.0
 11
423.0
 21
476.0
 31
0.0
  0
LINE
  8
0
 10
423.0
 20
476.0
 30
0.0
 11
416.0
 21
476.0
 31
0.0
  0
LINE
  8
0
 10
416.0
 20
476.0
 30
0.0
 11
416.0
 21
477.0
 31
0.0
  0
LINE
  8
0
 10
466.0
 20
477.0
 30
0.0
 11
587.0
 21
477.0
 31
0.0
  0
LINE
  8
0
 10
587.0
 20
477.0
 30
0.0
 11
587.0
 21
476.0
 31
0.0
  0
LINE
  8
0
 10
587.0
 20
476.0
 30
0.0
 11
466.0
 21
476.0
 31
0.0
  0
LINE
  8
0
 10
466.0
 20
476.0
 30
0.0
 11
466.0
 21
477.0
 31
0.0
  0
LINE
  8
0
 10
406.0
 20
476.0
 30
0.0
 11
414.0
 21
476.0
 31
0.0
  0
LINE
  8
0
 10
414.0
 20
476.0
 30
0.0
 11
414.0
 21
475.0
 31
0.0
  0
LINE
  8
0
 10
414.0
 20
475.0
 30
0.0
 11
406.0
 21
475.0
 31
0.0
  0
LINE
  8
0
 10
406.0
 20
475.0
 30
0.0
 11
406.0
 21
476.0
 31
0.0
  0
LINE
  8
0
 10
467.0
 20
476.0
 30
0.0
 11
585.0
 21
476.0
 31
0.0
  0
LINE
  8
0
 10
585.0
 20
476.0
 30
0.0
 11
585.0
 21
475.0
 31
0.0
  0
LINE
  8
0
 10
585.0
 20
475.0
 30
0.0
 11
467.0
 21
475.0
 31
0.0
  0
LINE
  8
0
 10
467.0
 20
475.0
 30
0.0
 11
467.0
 21
476.0
 31
0.0
  0
LINE
  8
0
 10
408.0
 20
475.0
 30
0.0
 11
413.0
 21
475.0
 31
0.0
  0
LINE
  8
0
 10
413.0
 20
475.0
 30
0.0
 11
413.0
 21
474.0
 31
0.0
  0
LINE
  8
0
 10
413.0
 20
474.0
 30
0.0
 11
408.0
 21
474.0
 31
0.0
  0
LINE
  8
0
 10
408.0
 20
474.0
 30
0.0
 11
408.0
 21
475.0
 31
0.0
  0
LINE
  8
0
 10
468.0
 20
475.0
 30
0.0
 11
573.0
 21
475.0
 31
0.0
  0
LINE
  8
0
 10
573.0
 20
475.0
 30
0.0
 11
573.0
 21
474.0
 31
0.0
  0
LINE
  8
0
 10
573.0
 20
474.0
 30
0.0
 11
468.0
 21
474.0
 31
0.0
  0
LINE
  8
0
 10
468.0
 20
474.0
 30
0.0
 11
468.0
 21
475.0
 31
0.0
  0
LINE
  8
0
 10
400.0
 20
474.0
 30
0.0
 11
402.0
 21
474.0
 31
0.0
  0
LINE
  8
0
 10
402.0
 20
474.0
 30
0.0
 11
402.0
 21
473.0
 31
0.0
  0
LINE
  8
0
 10
402.0
 20
473.0
 30
0.0
 11
400.0
 21
473.0
 31
0.0
  0
LINE
  8
0
 10
400.0
 20
473.0
 30
0.0
 11
400.0
 21
474.0
 31
0.0
  0
LINE
  8
0
 10
408.0
 20
474.0
 30
0.0
 11
413.0
 21
474.0
 31
0.0
  0
LINE
  8
0
 10
413.0
 20
474.0
 30
0.0
 11
413.0
 21
473.0
 31
0.0
  0
LINE
  8
0
 10
413.0
 20
473.0
 30
0.0
 11
408.0
 21
473.0
 31
0.0
  0
LINE
  8
0
 10
408.0
 20
473.0
 30
0.0
 11
408.0
 21
474.0
 31
0.0
  0
LINE
  8
0
 10
469.0
 20
474.0
 30
0.0
 11
559.0
 21
474.0
 31
0.0
  0
LINE
  8
0
 10
559.0
 20
474.0
 30
0.0
 11
559.0
 21
473.0
 31
0.0
  0
LINE
  8
0
 10
559.0
 20
473.0
 30
0.0
 11
469.0
 21
473.0
 31
0.0
  0
LINE
  8
0
 10
469.0
 20
473.0
 30
0.0
 11
469.0
 21
474.0
 31
0.0
  0
LINE
  8
0
 10
400.0
 20
473.0
 30
0.0
 11
404.0
 21
473.0
 31
0.0
  0
LINE
  8
0
 10
404.0
 20
473.0
 30
0.0
 11
404.0
 21
472.0
 31
0.0
  0
LINE
  8
0
 10
404.0
 20
472.0
 30
0.0
 11
400.0
 21
472.0
 31
0.0
  0
LINE
  8
0
 10
400.0
 20
472.0
 30
0.0
 11
400.0
 21
473.0
 31
0.0
  0
LINE
  8
0
 10
407.0
 20
473.0
 30
0.0
 11
414.0
 21
473.0
 31
0.0
  0
LINE
  8
0
 10
414.0
 20
473.0
 30
0.0
 11
414.0
 21
472.0
 31
0.0
  0
LINE
  8
0
 10
414.0
 20
472.0
 30
0.0
 11
407.0
 21
472.0
 31
0.0
  0
LINE
  8
0
 10
407.0
 20
472.0
 30
0.0
 11
407.0
 21
473.0
 31
0.0
  0
LINE
  8
0
 10
436.0
 20
473.0
 30
0.0
 11
439.0
 21
473.0
 31
0.0
  0
LINE
  8
0
 10
439.0
 20
473.0
 30
0.0
 11
439.0
 21
472.0
 31
0.0
  0
LINE
  8
0
 10
439.0
 20
472.0
 30
0.0
 11
436.0
 21
472.0
 31
0.0
  0
LINE
  8
0
 10
436.0
 20
472.0
 30
0.0
 11
436.0
 21
473.0
 31
0.0
  0
LINE
  8
0
 10
469.0
 20
473.0
 30
0.0
 11
559.0
 21
473.0
 31
0.0
  0
LINE
  8
0
 10
559.0
 20
473.0
 30
0.0
 11
559.0
 21
472.0
 31
0.0
  0
LINE
  8
0
 10
559.0
 20
472.0
 30
0.0
 11
469.0
 21
472.0
 31
0.0
  0
LINE
  8
0
 10
469.0
 20
472.0
 30
0.0
 11
469.0
 21
473.0
 31
0.0
  0
LINE
  8
0
 10
400.0
 20
472.0
 30
0.0
 11
405.0
 21
472.0
 31
0.0
  0
LINE
  8
0
 10
405.0
 20
472.0
 30
0.0
 11
405.0
 21
471.0
 31
0.0
  0
LINE
  8
0
 10
405.0
 20
471.0
 30
0.0
 11
400.0
 21
471.0
 31
0.0
  0
LINE
  8
0
 10
400.0
 20
471.0
 30
0.0
 11
400.0
 21
472.0
 31
0.0
  0
LINE
  8
0
 10
406.0
 20
472.0
 30
0.0
 11
415.0
 21
472.0
 31
0.0
  0
LINE
  8
0
 10
415.0
 20
472.0
 30
0.0
 11
415.0
 21
471.0
 31
0.0
  0
LINE
  8
0
 10
415.0
 20
471.0
 30
0.0
 11
406.0
 21
471.0
 31
0.0
  0
LINE
  8
0
 10
406.0
 20
471.0
 30
0.0
 11
406.0
 21
472.0
 31
0.0
  0
LINE
  8
0
 10
436.0
 20
472.0
 30
0.0
 11
442.0
 21
472.0
 31
0.0
  0
LINE
  8
0
 10
442.0
 20
472.0
 30
0.0
 11
442.0
 21
471.0
 31
0.0
  0
LINE
  8
0
 10
442.0
 20
471.0
 30
0.0
 11
436.0
 21
471.0
 31
0.0
  0
LINE
  8
0
 10
436.0
 20
471.0
 30
0.0
 11
436.0
 21
472.0
 31
0.0
  0
LINE
  8
0
 10
470.0
 20
472.0
 30
0.0
 11
558.0
 21
472.0
 31
0.0
  0
LINE
  8
0
 10
558.0
 20
472.0
 30
0.0
 11
558.0
 21
471.0
 31
0.0
  0
LINE
  8
0
 10
558.0
 20
471.0
 30
0.0
 11
470.0
 21
471.0
 31
0.0
  0
LINE
  8
0
 10
470.0
 20
471.0
 30
0.0
 11
470.0
 21
472.0
 31
0.0
  0
LINE
  8
0
 10
400.0
 20
471.0
 30
0.0
 11
405.0
 21
471.0
 31
0.0
  0
LINE
  8
0
 10
405.0
 20
471.0
 30
0.0
 11
405.0
 21
470.0
 31
0.0
  0
LINE
  8
0
 10
405.0
 20
470.0
 30
0.0
 11
400.0
 21
470.0
 31
0.0
  0
LINE
  8
0
 10
400.0
 20
470.0
 30
0.0
 11
400.0
 21
471.0
 31
0.0
  0
LINE
  8
0
 10
406.0
 20
471.0
 30
0.0
 11
415.0
 21
471.0
 31
0.0
  0
LINE
  8
0
 10
415.0
 20
471.0
 30
0.0
 11
415.0
 21
470.0
 31
0.0
  0
LINE
  8
0
 10
415.0
 20
470.0
 30
0.0
 11
406.0
 21
470.0
 31
0.0
  0
LINE
  8
0
 10
406.0
 20
470.0
 30
0.0
 11
406.0
 21
471.0
 31
0.0
  0
LINE
  8
0
 10
437.0
 20
471.0
 30
0.0
 11
444.0
 21
471.0
 31
0.0
  0
LINE
  8
0
 10
444.0
 20
471.0
 30
0.0
 11
444.0
 21
470.0
 31
0.0
  0
LINE
  8
0
 10
444.0
 20
470.0
 30
0.0
 11
437.0
 21
470.0
 31
0.0
  0
LINE
  8
0
 10
437.0
 20
470.0
 30
0.0
 11
437.0
 21
471.0
 31
0.0
  0
LINE
  8
0
 10
471.0
 20
471.0
 30
0.0
 11
557.0
 21
471.0
 31
0.0
  0
LINE
  8
0
 10
557.0
 20
471.0
 30
0.0
 11
557.0
 21
470.0
 31
0.0
  0
LINE
  8
0
 10
557.0
 20
470.0
 30
0.0
 11
471.0
 21
470.0
 31
0.0
  0
LINE
  8
0
 10
471.0
 20
470.0
 30
0.0
 11
471.0
 21
471.0
 31
0.0
  0
LINE
  8
0
 10
400.0
 20
470.0
 30
0.0
 11
404.0
 21
470.0
 31
0.0
  0
LINE
  8
0
 10
404.0
 20
470.0
 30
0.0
 11
404.0
 21
469.0
 31
0.0
  0
LINE
  8
0
 10
404.0
 20
469.0
 30
0.0
 11
400.0
 21
469.0
 31
0.0
  0
LINE
  8
0
 10
400.0
 20
469.0
 30
0.0
 11
400.0
 21
470.0
 31
0.0
  0
LINE
  8
0
 10
407.0
 20
470.0
 30
0.0
 11
414.0
 21
470.0
 31
0.0
  0
LINE
  8
0
 10
414.0
 20
470.0
 30
0.0
 11
414.0
 21
469.0
 31
0.0
  0
LINE
  8
0
 10
414.0
 20
469.0
 30
0.0
 11
407.0
 21
469.0
 31
0.0
  0
LINE
  8
0
 10
407.0
 20
469.0
 30
0.0
 11
407.0
 21
470.0
 31
0.0
  0
LINE
  8
0
 10
437.0
 20
470.0
 30
0.0
 11
448.0
 21
470.0
 31
0.0
  0
LINE
  8
0
 10
448.0
 20
470.0
 30
0.0
 11
448.0
 21
469.0
 31
0.0
  0
LINE
  8
0
 10
448.0
 20
469.0
 30
0.0
 11
437.0
 21
469.0
 31
0.0
  0
LINE
  8
0
 10
437.0
 20
469.0
 30
0.0
 11
437.0
 21
470.0
 31
0.0
  0
LINE
  8
0
 10
472.0
 20
470.0
 30
0.0
 11
556.0
 21
470.0
 31
0.0
  0
LINE
  8
0
 10
556.0
 20
470.0
 30
0.0
 11
556.0
 21
469.0
 31
0.0
  0
LINE
  8
0
 10
556.0
 20
469.0
 30
0.0
 11
472.0
 21
469.0
 31
0.0
  0
LINE
  8
0
 10
472.0
 20
469.0
 30
0.0
 11
472.0
 21
470.0
 31
0.0
  0
LINE
  8
0
 10
408.0
 20
469.0
 30
0.0
 11
413.0
 21
469.0
 31
0.0
  0
LINE
  8
0
 10
413.0
 20
469.0
 30
0.0
 11
413.0
 21
468.0
 31
0.0
  0
LINE
  8
0
 10
413.0
 20
468.0
 30
0.0
 11
408.0
 21
468.0
 31
0.0
  0
LINE
  8
0
 10
408.0
 20
468.0
 30
0.0
 11
408.0
 21
469.0
 31
0.0
  0
LINE
  8
0
 10
438.0
 20
469.0
 30
0.0
 11
451.0
 21
469.0
 31
0.0
  0
LINE
  8
0
 10
451.0
 20
469.0
 30
0.0
 11
451.0
 21
468.0
 31
0.0
  0
LINE
  8
0
 10
451.0
 20
468.0
 30
0.0
 11
438.0
 21
468.0
 31
0.0
  0
LINE
  8
0
 10
438.0
 20
468.0
 30
0.0
 11
438.0
 21
469.0
 31
0.0
  0
LINE
  8
0
 10
473.0
 20
469.0
 30
0.0
 11
555.0
 21
469.0
 31
0.0
  0
LINE
  8
0
 10
555.0
 20
469.0
 30
0.0
 11
555.0
 21
468.0
 31
0.0
  0
LINE
  8
0
 10
555.0
 20
468.0
 30
0.0
 11
473.0
 21
468.0
 31
0.0
  0
LINE
  8
0
 10
473.0
 20
468.0
 30
0.0
 11
473.0
 21
469.0
 31
0.0
  0
LINE
  8
0
 10
401.0
 20
468.0
 30
0.0
 11
402.0
 21
468.0
 31
0.0
  0
LINE
  8
0
 10
402.0
 20
468.0
 30
0.0
 11
402.0
 21
467.0
 31
0.0
  0
LINE
  8
0
 10
402.0
 20
467.0
 30
0.0
 11
401.0
 21
467.0
 31
0.0
  0
LINE
  8
0
 10
401.0
 20
467.0
 30
0.0
 11
401.0
 21
468.0
 31
0.0
  0
LINE
  8
0
 10
407.0
 20
468.0
 30
0.0
 11
414.0
 21
468.0
 31
0.0
  0
LINE
  8
0
 10
414.0
 20
468.0
 30
0.0
 11
414.0
 21
467.0
 31
0.0
  0
LINE
  8
0
 10
414.0
 20
467.0
 30
0.0
 11
407.0
 21
467.0
 31
0.0
  0
LINE
  8
0
 10
407.0
 20
467.0
 30
0.0
 11
407.0
 21
468.0
 31
0.0
  0
LINE
  8
0
 10
438.0
 20
468.0
 30
0.0
 11
454.0
 21
468.0
 31
0.0
  0
LINE
  8
0
 10
454.0
 20
468.0
 30
0.0
 11
454.0
 21
467.0
 31
0.0
  0
LINE
  8
0
 10
454.0
 20
467.0
 30
0.0
 11
438.0
 21
467.0
 31
0.0
  0
LINE
  8
0
 10
438.0
 20
467.0
 30
0.0
 11
438.0
 21
468.0
 31
0.0
  0
LINE
  8
0
 10
474.0
 20
468.0
 30
0.0
 11
554.0
 21
468.0
 31
0.0
  0
LINE
  8
0
 10
554.0
 20
468.0
 30
0.0
 11
554.0
 21
467.0
 31
0.0
  0
LINE
  8
0
 10
554.0
 20
467.0
 30
0.0
 11
474.0
 21
467.0
 31
0.0
  0
LINE
  8
0
 10
474.0
 20
467.0
 30
0.0
 11
474.0
 21
468.0
 31
0.0
  0
LINE
  8
0
 10
400.0
 20
467.0
 30
0.0
 11
402.0
 21
467.0
 31
0.0
  0
LINE
  8
0
 10
402.0
 20
467.0
 30
0.0
 11
402.0
 21
466.0
 31
0.0
  0
LINE
  8
0
 10
402.0
 20
466.0
 30
0.0
 11
400.0
 21
466.0
 31
0.0
  0
LINE
  8
0
 10
400.0
 20
466.0
 30
0.0
 11
400.0
 21
467.0
 31
0.0
  0
LINE
  8
0
 10
406.0
 20
467.0
 30
0.0
 11
415.0
 21
467.0
 31
0.0
  0
LINE
  8
0
 10
415.0
 20
467.0
 30
0.0
 11
415.0
 21
466.0
 31
0.0
  0
LINE
  8
0
 10
415.0
 20
466.0
 30
0.0
 11
406.0
 21
466.0
 31
0.0
  0
LINE
  8
0
 10
406.0
 20
466.0
 30
0.0
 11
406.0
 21
467.0
 31
0.0
  0
LINE
  8
0
 10
438.0
 20
467.0
 30
0.0
 11
458.0
 21
467.0
 31
0.0
  0
LINE
  8
0
 10
458.0
 20
467.0
 30
0.0
 11
458.0
 21
466.0
 31
0.0
  0
LINE
  8
0
 10
458.0
 20
466.0
 30
0.0
 11
438.0
 21
466.0
 31
0.0
  0
LINE
  8
0
 10
438.0
 20
466.0
 30
0.0
 11
438.0
 21
467.0
 31
0.0
  0
LINE
  8
0
 10
475.0
 20
467.0
 30
0.0
 11
553.0
 21
467.0
 31
0.0
  0
LINE
  8
0
 10
553.0
 20
467.0
 30
0.0
 11
553.0
 21
466.0
 31
0.0
  0
LINE
  8
0
 10
553.0
 20
466.0
 30
0.0
 11
475.0
 21
466.0
 31
0.0
  0
LINE
  8
0
 10
475.0
 20
466.0
 30
0.0
 11
475.0
 21
467.0
 31
0.0
  0
LINE
  8
0
 10
400.0
 20
466.0
 30
0.0
 11
404.0
 21
466.0
 31
0.0
  0
LINE
  8
0
 10
404.0
 20
466.0
 30
0.0
 11
404.0
 21
465.0
 31
0.0
  0
LINE
  8
0
 10
404.0
 20
465.0
 30
0.0
 11
400.0
 21
465.0
 31
0.0
  0
LINE
  8
0
 10
400.0
 20
465.0
 30
0.0
 11
400.0
 21
466.0
 31
0.0
  0
LINE
  8
0
 10
406.0
 20
466.0
 30
0.0
 11
415.0
 21
466.0
 31
0.0
  0
LINE
  8
0
 10
415.0
 20
466.0
 30
0.0
 11
415.0
 21
465.0
 31
0.0
  0
LINE
  8
0
 10
415.0
 20
465.0
 30
0.0
 11
406.0
 21
465.0
 31
0.0
  0
LINE
  8
0
 10
406.0
 20
465.0
 30
0.0
 11
406.0
 21
466.0
 31
0.0
  0
LINE
  8
0
 10
439.0
 20
466.0
 30
0.0
 11
462.0
 21
466.0
 31
0.0
  0
LINE
  8
0
 10
462.0
 20
466.0
 30
0.0
 11
462.0
 21
465.0
 31
0.0
  0
LINE
  8
0
 10
462.0
 20
465.0
 30
0.0
 11
439.0
 21
465.0
 31
0.0
  0
LINE
  8
0
 10
439.0
 20
465.0
 30
0.0
 11
439.0
 21
466.0
 31
0.0
  0
LINE
  8
0
 10
477.0
 20
466.0
 30
0.0
 11
552.0
 21
466.0
 31
0.0
  0
LINE
  8
0
 10
552.0
 20
466.0
 30
0.0
 11
552.0
 21
465.0
 31
0.0
  0
LINE
  8
0
 10
552.0
 20
465.0
 30
0.0
 11
477.0
 21
465.0
 31
0.0
  0
LINE
  8
0
 10
477.0
 20
465.0
 30
0.0
 11
477.0
 21
466.0
 31
0.0
  0
LINE
  8
0
 10
400.0
 20
465.0
 30
0.0
 11
404.0
 21
465.0
 31
0.0
  0
LINE
  8
0
 10
404.0
 20
465.0
 30
0.0
 11
404.0
 21
464.0
 31
0.0
  0
LINE
  8
0
 10
404.0
 20
464.0
 30
0.0
 11
400.0
 21
464.0
 31
0.0
  0
LINE
  8
0
 10
400.0
 20
464.0
 30
0.0
 11
400.0
 21
465.0
 31
0.0
  0
LINE
  8
0
 10
407.0
 20
465.0
 30
0.0
 11
414.0
 21
465.0
 31
0.0
  0
LINE
  8
0
 10
414.0
 20
465.0
 30
0.0
 11
414.0
 21
464.0
 31
0.0
  0
LINE
  8
0
 10
414.0
 20
464.0
 30
0.0
 11
407.0
 21
464.0
 31
0.0
  0
LINE
  8
0
 10
407.0
 20
464.0
 30
0.0
 11
407.0
 21
465.0
 31
0.0
  0
LINE
  8
0
 10
439.0
 20
465.0
 30
0.0
 11
466.0
 21
465.0
 31
0.0
  0
LINE
  8
0
 10
466.0
 20
465.0
 30
0.0
 11
466.0
 21
464.0
 31
0.0
  0
LINE
  8
0
 10
466.0
 20
464.0
 30
0.0
 11
439.0
 21
464.0
 31
0.0
  0
LINE
  8
0
 10
439.0
 20
464.0
 30
0.0
 11
439.0
 21
465.0
 31
0.0
  0
LINE
  8
0
 10
481.0
 20
465.0
 30
0.0
 11
551.0
 21
465.0
 31
0.0
  0
LINE
  8
0
 10
551.0
 20
465.0
 30
0.0
 11
551.0
 21
464.0
 31
0.0
  0
LINE
  8
0
 10
551.0
 20
464.0
 30
0.0
 11
481.0
 21
464.0
 31
0.0
  0
LINE
  8
0
 10
481.0
 20
464.0
 30
0.0
 11
481.0
 21
465.0
 31
0.0
  0
LINE
  8
0
 10
400.0
 20
464.0
 30
0.0
 11
404.0
 21
464.0
 31
0.0
  0
LINE
  8
0
 10
404.0
 20
464.0
 30
0.0
 11
404.0
 21
463.0
 31
0.0
  0
LINE
  8
0
 10
404.0
 20
463.0
 30
0.0
 11
400.0
 21
463.0
 31
0.0
  0
LINE
  8
0
 10
400.0
 20
463.0
 30
0.0
 11
400.0
 21
464.0
 31
0.0
  0
LINE
  8
0
 10
409.0
 20
464.0
 30
0.0
 11
413.0
 21
464.0
 31
0.0
  0
LINE
  8
0
 10
413.0
 20
464.0
 30
0.0
 11
413.0
 21
463.0
 31
0.0
  0
LINE
  8
0
 10
413.0
 20
463.0
 30
0.0
 11
409.0
 21
463.0
 31
0.0
  0
LINE
  8
0
 10
409.0
 20
463.0
 30
0.0
 11
409.0
 21
464.0
 31
0.0
  0
LINE
  8
0
 10
440.0
 20
464.0
 30
0.0
 11
472.0
 21
464.0
 31
0.0
  0
LINE
  8
0
 10
472.0
 20
464.0
 30
0.0
 11
472.0
 21
463.0
 31
0.0
  0
LINE
  8
0
 10
472.0
 20
463.0
 30
0.0
 11
440.0
 21
463.0
 31
0.0
  0
LINE
  8
0
 10
440.0
 20
463.0
 30
0.0
 11
440.0
 21
464.0
 31
0.0
  0
LINE
  8
0
 10
486.0
 20
464.0
 30
0.0
 11
550.0
 21
464.0
 31
0.0
  0
LINE
  8
0
 10
550.0
 20
464.0
 30
0.0
 11
550.0
 21
463.0
 31
0.0
  0
LINE
  8
0
 10
550.0
 20
463.0
 30
0.0
 11
486.0
 21
463.0
 31
0.0
  0
LINE
  8
0
 10
486.0
 20
463.0
 30
0.0
 11
486.0
 21
464.0
 31
0.0
  0
LINE
  8
0
 10
400.0
 20
463.0
 30
0.0
 11
403.0
 21
463.0
 31
0.0
  0
LINE
  8
0
 10
403.0
 20
463.0
 30
0.0
 11
403.0
 21
462.0
 31
0.0
  0
LINE
  8
0
 10
403.0
 20
462.0
 30
0.0
 11
400.0
 21
462.0
 31
0.0
  0
LINE
  8
0
 10
400.0
 20
462.0
 30
0.0
 11
400.0
 21
463.0
 31
0.0
  0
LINE
  8
0
 10
407.0
 20
463.0
 30
0.0
 11
414.0
 21
463.0
 31
0.0
  0
LINE
  8
0
 10
414.0
 20
463.0
 30
0.0
 11
414.0
 21
462.0
 31
0.0
  0
LINE
  8
0
 10
414.0
 20
462.0
 30
0.0
 11
407.0
 21
462.0
 31
0.0
  0
LINE
  8
0
 10
407.0
 20
462.0
 30
0.0
 11
407.0
 21
463.0
 31
0.0
  0
LINE
  8
0
 10
440.0
 20
463.0
 30
0.0
 11
478.0
 21
463.0
 31
0.0
  0
LINE
  8
0
 10
478.0
 20
463.0
 30
0.0
 11
478.0
 21
462.0
 31
0.0
  0
LINE
  8
0
 10
478.0
 20
462.0
 30
0.0
 11
440.0
 21
462.0
 31
0.0
  0
LINE
  8
0
 10
440.0
 20
462.0
 30
0.0
 11
440.0
 21
463.0
 31
0.0
  0
LINE
  8
0
 10
494.0
 20
463.0
 30
0.0
 11
549.0
 21
463.0
 31
0.0
  0
LINE
  8
0
 10
549.0
 20
463.0
 30
0.0
 11
549.0
 21
462.0
 31
0.0
  0
LINE
  8
0
 10
549.0
 20
462.0
 30
0.0
 11
494.0
 21
462.0
 31
0.0
  0
LINE
  8
0
 10
494.0
 20
462.0
 30
0.0
 11
494.0
 21
463.0
 31
0.0
  0
LINE
  8
0
 10
406.0
 20
462.0
 30
0.0
 11
415.0
 21
462.0
 31
0.0
  0
LINE
  8
0
 10
415.0
 20
462.0
 30
0.0
 11
415.0
 21
461.0
 31
0.0
  0
LINE
  8
0
 10
415.0
 20
461.0
 30
0.0
 11
406.0
 21
461.0
 31
0.0
  0
LINE
  8
0
 10
406.0
 20
461.0
 30
0.0
 11
406.0
 21
462.0
 31
0.0
  0
LINE
  8
0
 10
441.0
 20
462.0
 30
0.0
 11
484.0
 21
462.0
 31
0.0
  0
LINE
  8
0
 10
484.0
 20
462.0
 30
0.0
 11
484.0
 21
461.0
 31
0.0
  0
LINE
  8
0
 10
484.0
 20
461.0
 30
0.0
 11
441.0
 21
461.0
 31
0.0
  0
LINE
  8
0
 10
441.0
 20
461.0
 30
0.0
 11
441.0
 21
462.0
 31
0.0
  0
LINE
  8
0
 10
503.0
 20
462.0
 30
0.0
 11
547.0
 21
462.0
 31
0.0
  0
LINE
  8
0
 10
547.0
 20
462.0
 30
0.0
 11
547.0
 21
461.0
 31
0.0
  0
LINE
  8
0
 10
547.0
 20
461.0
 30
0.0
 11
503.0
 21
461.0
 31
0.0
  0
LINE
  8
0
 10
503.0
 20
461.0
 30
0.0
 11
503.0
 21
462.0
 31
0.0
  0
LINE
  8
0
 10
406.0
 20
461.0
 30
0.0
 11
415.0
 21
461.0
 31
0.0
  0
LINE
  8
0
 10
415.0
 20
461.0
 30
0.0
 11
415.0
 21
460.0
 31
0.0
  0
LINE
  8
0
 10
415.0
 20
460.0
 30
0.0
 11
406.0
 21
460.0
 31
0.0
  0
LINE
  8
0
 10
406.0
 20
460.0
 30
0.0
 11
406.0
 21
461.0
 31
0.0
  0
LINE
  8
0
 10
441.0
 20
461.0
 30
0.0
 11
492.0
 21
461.0
 31
0.0
  0
LINE
  8
0
 10
492.0
 20
461.0
 30
0.0
 11
492.0
 21
460.0
 31
0.0
  0
LINE
  8
0
 10
492.0
 20
460.0
 30
0.0
 11
441.0
 21
460.0
 31
0.0
  0
LINE
  8
0
 10
441.0
 20
460.0
 30
0.0
 11
441.0
 21
461.0
 31
0.0
  0
LINE
  8
0
 10
517.0
 20
461.0
 30
0.0
 11
546.0
 21
461.0
 31
0.0
  0
LINE
  8
0
 10
546.0
 20
461.0
 30
0.0
 11
546.0
 21
460.0
 31
0.0
  0
LINE
  8
0
 10
546.0
 20
460.0
 30
0.0
 11
517.0
 21
460.0
 31
0.0
  0
LINE
  8
0
 10
517.0
 20
460.0
 30
0.0
 11
517.0
 21
461.0
 31
0.0
  0
LINE
  8
0
 10
616.0
 20
461.0
 30
0.0
 11
624.0
 21
461.0
 31
0.0
  0
LINE
  8
0
 10
624.0
 20
461.0
 30
0.0
 11
624.0
 21
460.0
 31
0.0
  0
LINE
  8
0
 10
624.0
 20
460.0
 30
0.0
 11
616.0
 21
460.0
 31
0.0
  0
LINE
  8
0
 10
616.0
 20
460.0
 30
0.0
 11
616.0
 21
461.0
 31
0.0
  0
LINE
  8
0
 10
407.0
 20
460.0
 30
0.0
 11
415.0
 21
460.0
 31
0.0
  0
LINE
  8
0
 10
415.0
 20
460.0
 30
0.0
 11
415.0
 21
459.0
 31
0.0
  0
LINE
  8
0
 10
415.0
 20
459.0
 30
0.0
 11
407.0
 21
459.0
 31
0.0
  0
LINE
  8
0
 10
407.0
 20
459.0
 30
0.0
 11
407.0
 21
460.0
 31
0.0
  0
LINE
  8
0
 10
442.0
 20
460.0
 30
0.0
 11
501.0
 21
460.0
 31
0.0
  0
LINE
  8
0
 10
501.0
 20
460.0
 30
0.0
 11
501.0
 21
459.0
 31
0.0
  0
LINE
  8
0
 10
501.0
 20
459.0
 30
0.0
 11
442.0
 21
459.0
 31
0.0
  0
LINE
  8
0
 10
442.0
 20
459.0
 30
0.0
 11
442.0
 21
460.0
 31
0.0
  0
LINE
  8
0
 10
607.0
 20
460.0
 30
0.0
 11
624.0
 21
460.0
 31
0.0
  0
LINE
  8
0
 10
624.0
 20
460.0
 30
0.0
 11
624.0
 21
459.0
 31
0.0
  0
LINE
  8
0
 10
624.0
 20
459.0
 30
0.0
 11
607.0
 21
459.0
 31
0.0
  0
LINE
  8
0
 10
607.0
 20
459.0
 30
0.0
 11
607.0
 21
460.0
 31
0.0
  0
LINE
  8
0
 10
409.0
 20
459.0
 30
0.0
 11
413.0
 21
459.0
 31
0.0
  0
LINE
  8
0
 10
413.0
 20
459.0
 30
0.0
 11
413.0
 21
458.0
 31
0.0
  0
LINE
  8
0
 10
413.0
 20
458.0
 30
0.0
 11
409.0
 21
458.0
 31
0.0
  0
LINE
  8
0
 10
409.0
 20
458.0
 30
0.0
 11
409.0
 21
459.0
 31
0.0
  0
LINE
  8
0
 10
442.0
 20
459.0
 30
0.0
 11
513.0
 21
459.0
 31
0.0
  0
LINE
  8
0
 10
513.0
 20
459.0
 30
0.0
 11
513.0
 21
458.0
 31
0.0
  0
LINE
  8
0
 10
513.0
 20
458.0
 30
0.0
 11
442.0
 21
458.0
 31
0.0
  0
LINE
  8
0
 10
442.0
 20
458.0
 30
0.0
 11
442.0
 21
459.0
 31
0.0
  0
LINE
  8
0
 10
594.0
 20
459.0
 30
0.0
 11
624.0
 21
459.0
 31
0.0
  0
LINE
  8
0
 10
624.0
 20
459.0
 30
0.0
 11
624.0
 21
458.0
 31
0.0
  0
LINE
  8
0
 10
624.0
 20
458.0
 30
0.0
 11
594.0
 21
458.0
 31
0.0
  0
LINE
  8
0
 10
594.0
 20
458.0
 30
0.0
 11
594.0
 21
459.0
 31
0.0
  0
LINE
  8
0
 10
408.0
 20
458.0
 30
0.0
 11
414.0
 21
458.0
 31
0.0
  0
LINE
  8
0
 10
414.0
 20
458.0
 30
0.0
 11
414.0
 21
457.0
 31
0.0
  0
LINE
  8
0
 10
414.0
 20
457.0
 30
0.0
 11
408.0
 21
457.0
 31
0.0
  0
LINE
  8
0
 10
408.0
 20
457.0
 30
0.0
 11
408.0
 21
458.0
 31
0.0
  0
LINE
  8
0
 10
444.0
 20
458.0
 30
0.0
 11
534.0
 21
458.0
 31
0.0
  0
LINE
  8
0
 10
534.0
 20
458.0
 30
0.0
 11
534.0
 21
457.0
 31
0.0
  0
LINE
  8
0
 10
534.0
 20
457.0
 30
0.0
 11
444.0
 21
457.0
 31
0.0
  0
LINE
  8
0
 10
444.0
 20
457.0
 30
0.0
 11
444.0
 21
458.0
 31
0.0
  0
LINE
  8
0
 10
573.0
 20
458.0
 30
0.0
 11
624.0
 21
458.0
 31
0.0
  0
LINE
  8
0
 10
624.0
 20
458.0
 30
0.0
 11
624.0
 21
457.0
 31
0.0
  0
LINE
  8
0
 10
624.0
 20
457.0
 30
0.0
 11
573.0
 21
457.0
 31
0.0
  0
LINE
  8
0
 10
573.0
 20
457.0
 30
0.0
 11
573.0
 21
458.0
 31
0.0
  0
LINE
  8
0
 10
406.0
 20
457.0
 30
0.0
 11
415.0
 21
457.0
 31
0.0
  0
LINE
  8
0
 10
415.0
 20
457.0
 30
0.0
 11
415.0
 21
456.0
 31
0.0
  0
LINE
  8
0
 10
415.0
 20
456.0
 30
0.0
 11
406.0
 21
456.0
 31
0.0
  0
LINE
  8
0
 10
406.0
 20
456.0
 30
0.0
 11
406.0
 21
457.0
 31
0.0
  0
LINE
  8
0
 10
444.0
 20
457.0
 30
0.0
 11
624.0
 21
457.0
 31
0.0
  0
LINE
  8
0
 10
624.0
 20
457.0
 30
0.0
 11
624.0
 21
456.0
 31
0.0
  0
LINE
  8
0
 10
624.0
 20
456.0
 30
0.0
 11
444.0
 21
456.0
 31
0.0
  0
LINE
  8
0
 10
444.0
 20
456.0
 30
0.0
 11
444.0
 21
457.0
 31
0.0
  0
LINE
  8
0
 10
406.0
 20
456.0
 30
0.0
 11
415.0
 21
456.0
 31
0.0
  0
LINE
  8
0
 10
415.0
 20
456.0
 30
0.0
 11
415.0
 21
455.0
 31
0.0
  0
LINE
  8
0
 10
415.0
 20
455.0
 30
0.0
 11
406.0
 21
455.0
 31
0.0
  0
LINE
  8
0
 10
406.0
 20
455.0
 30
0.0
 11
406.0
 21
456.0
 31
0.0
  0
LINE
  8
0
 10
445.0
 20
456.0
 30
0.0
 11
624.0
 21
456.0
 31
0.0
  0
LINE
  8
0
 10
624.0
 20
456.0
 30
0.0
 11
624.0
 21
455.0
 31
0.0
  0
LINE
  8
0
 10
624.0
 20
455.0
 30
0.0
 11
445.0
 21
455.0
 31
0.0
  0
LINE
  8
0
 10
445.0
 20
455.0
 30
0.0
 11
445.0
 21
456.0
 31
0.0
  0
LINE
  8
0
 10
406.0
 20
455.0
 30
0.0
 11
415.0
 21
455.0
 31
0.0
  0
LINE
  8
0
 10
415.0
 20
455.0
 30
0.0
 11
415.0
 21
454.0
 31
0.0
  0
LINE
  8
0
 10
415.0
 20
454.0
 30
0.0
 11
406.0
 21
454.0
 31
0.0
  0
LINE
  8
0
 10
406.0
 20
454.0
 30
0.0
 11
406.0
 21
455.0
 31
0.0
  0
LINE
  8
0
 10
445.0
 20
455.0
 30
0.0
 11
624.0
 21
455.0
 31
0.0
  0
LINE
  8
0
 10
624.0
 20
455.0
 30
0.0
 11
624.0
 21
454.0
 31
0.0
  0
LINE
  8
0
 10
624.0
 20
454.0
 30
0.0
 11
445.0
 21
454.0
 31
0.0
  0
LINE
  8
0
 10
445.0
 20
454.0
 30
0.0
 11
445.0
 21
455.0
 31
0.0
  0
LINE
  8
0
 10
407.0
 20
454.0
 30
0.0
 11
414.0
 21
454.0
 31
0.0
  0
LINE
  8
0
 10
414.0
 20
454.0
 30
0.0
 11
414.0
 21
453.0
 31
0.0
  0
LINE
  8
0
 10
414.0
 20
453.0
 30
0.0
 11
407.0
 21
453.0
 31
0.0
  0
LINE
  8
0
 10
407.0
 20
453.0
 30
0.0
 11
407.0
 21
454.0
 31
0.0
  0
LINE
  8
0
 10
446.0
 20
454.0
 30
0.0
 11
624.0
 21
454.0
 31
0.0
  0
LINE
  8
0
 10
624.0
 20
454.0
 30
0.0
 11
624.0
 21
453.0
 31
0.0
  0
LINE
  8
0
 10
624.0
 20
453.0
 30
0.0
 11
446.0
 21
453.0
 31
0.0
  0
LINE
  8
0
 10
446.0
 20
453.0
 30
0.0
 11
446.0
 21
454.0
 31
0.0
  0
LINE
  8
0
 10
408.0
 20
453.0
 30
0.0
 11
413.0
 21
453.0
 31
0.0
  0
LINE
  8
0
 10
413.0
 20
453.0
 30
0.0
 11
413.0
 21
452.0
 31
0.0
  0
LINE
  8
0
 10
413.0
 20
452.0
 30
0.0
 11
408.0
 21
452.0
 31
0.0
  0
LINE
  8
0
 10
408.0
 20
452.0
 30
0.0
 11
408.0
 21
453.0
 31
0.0
  0
LINE
  8
0
 10
446.0
 20
453.0
 30
0.0
 11
624.0
 21
453.0
 31
0.0
  0
LINE
  8
0
 10
624.0
 20
453.0
 30
0.0
 11
624.0
 21
452.0
 31
0.0
  0
LINE
  8
0
 10
624.0
 20
452.0
 30
0.0
 11
446.0
 21
452.0
 31
0.0
  0
LINE
  8
0
 10
446.0
 20
452.0
 30
0.0
 11
446.0
 21
453.0
 31
0.0
  0
LINE
  8
0
 10
407.0
 20
452.0
 30
0.0
 11
415.0
 21
452.0
 31
0.0
  0
LINE
  8
0
 10
415.0
 20
452.0
 30
0.0
 11
415.0
 21
451.0
 31
0.0
  0
LINE
  8
0
 10
415.0
 20
451.0
 30
0.0
 11
407.0
 21
451.0
 31
0.0
  0
LINE
  8
0
 10
407.0
 20
451.0
 30
0.0
 11
407.0
 21
452.0
 31
0.0
  0
LINE
  8
0
 10
446.0
 20
452.0
 30
0.0
 11
624.0
 21
452.0
 31
0.0
  0
LINE
  8
0
 10
624.0
 20
452.0
 30
0.0
 11
624.0
 21
451.0
 31
0.0
  0
LINE
  8
0
 10
624.0
 20
451.0
 30
0.0
 11
446.0
 21
451.0
 31
0.0
  0
LINE
  8
0
 10
446.0
 20
451.0
 30
0.0
 11
446.0
 21
452.0
 31
0.0
  0
LINE
  8
0
 10
406.0
 20
451.0
 30
0.0
 11
416.0
 21
451.0
 31
0.0
  0
LINE
  8
0
 10
416.0
 20
451.0
 30
0.0
 11
416.0
 21
450.0
 31
0.0
  0
LINE
  8
0
 10
416.0
 20
450.0
 30
0.0
 11
406.0
 21
450.0
 31
0.0
  0
LINE
  8
0
 10
406.0
 20
450.0
 30
0.0
 11
406.0
 21
451.0
 31
0.0
  0
LINE
  8
0
 10
448.0
 20
451.0
 30
0.0
 11
624.0
 21
451.0
 31
0.0
  0
LINE
  8
0
 10
624.0
 20
451.0
 30
0.0
 11
624.0
 21
450.0
 31
0.0
  0
LINE
  8
0
 10
624.0
 20
450.0
 30
0.0
 11
448.0
 21
450.0
 31
0.0
  0
LINE
  8
0
 10
448.0
 20
450.0
 30
0.0
 11
448.0
 21
451.0
 31
0.0
  0
LINE
  8
0
 10
406.0
 20
450.0
 30
0.0
 11
416.0
 21
450.0
 31
0.0
  0
LINE
  8
0
 10
416.0
 20
450.0
 30
0.0
 11
416.0
 21
449.0
 31
0.0
  0
LINE
  8
0
 10
416.0
 20
449.0
 30
0.0
 11
406.0
 21
449.0
 31
0.0
  0
LINE
  8
0
 10
406.0
 20
449.0
 30
0.0
 11
406.0
 21
450.0
 31
0.0
  0
LINE
  8
0
 10
453.0
 20
450.0
 30
0.0
 11
624.0
 21
450.0
 31
0.0
  0
LINE
  8
0
 10
624.0
 20
450.0
 30
0.0
 11
624.0
 21
449.0
 31
0.0
  0
LINE
  8
0
 10
624.0
 20
449.0
 30
0.0
 11
453.0
 21
449.0
 31
0.0
  0
LINE
  8
0
 10
453.0
 20
449.0
 30
0.0
 11
453.0
 21
450.0
 31
0.0
  0
LINE
  8
0
 10
407.0
 20
449.0
 30
0.0
 11
415.0
 21
449.0
 31
0.0
  0
LINE
  8
0
 10
415.0
 20
449.0
 30
0.0
 11
415.0
 21
448.0
 31
0.0
  0
LINE
  8
0
 10
415.0
 20
448.0
 30
0.0
 11
407.0
 21
448.0
 31
0.0
  0
LINE
  8
0
 10
407.0
 20
448.0
 30
0.0
 11
407.0
 21
449.0
 31
0.0
  0
LINE
  8
0
 10
451.0
 20
449.0
 30
0.0
 11
452.0
 21
449.0
 31
0.0
  0
LINE
  8
0
 10
452.0
 20
449.0
 30
0.0
 11
452.0
 21
448.0
 31
0.0
  0
LINE
  8
0
 10
452.0
 20
448.0
 30
0.0
 11
451.0
 21
448.0
 31
0.0
  0
LINE
  8
0
 10
451.0
 20
448.0
 30
0.0
 11
451.0
 21
449.0
 31
0.0
  0
LINE
  8
0
 10
453.0
 20
449.0
 30
0.0
 11
624.0
 21
449.0
 31
0.0
  0
LINE
  8
0
 10
624.0
 20
449.0
 30
0.0
 11
624.0
 21
448.0
 31
0.0
  0
LINE
  8
0
 10
624.0
 20
448.0
 30
0.0
 11
453.0
 21
448.0
 31
0.0
  0
LINE
  8
0
 10
453.0
 20
448.0
 30
0.0
 11
453.0
 21
449.0
 31
0.0
  0
LINE
  8
0
 10
408.0
 20
448.0
 30
0.0
 11
413.0
 21
448.0
 31
0.0
  0
LINE
  8
0
 10
413.0
 20
448.0
 30
0.0
 11
413.0
 21
447.0
 31
0.0
  0
LINE
  8
0
 10
413.0
 20
447.0
 30
0.0
 11
408.0
 21
447.0
 31
0.0
  0
LINE
  8
0
 10
408.0
 20
447.0
 30
0.0
 11
408.0
 21
448.0
 31
0.0
  0
LINE
  8
0
 10
451.0
 20
448.0
 30
0.0
 11
452.0
 21
448.0
 31
0.0
  0
LINE
  8
0
 10
452.0
 20
448.0
 30
0.0
 11
452.0
 21
447.0
 31
0.0
  0
LINE
  8
0
 10
452.0
 20
447.0
 30
0.0
 11
451.0
 21
447.0
 31
0.0
  0
LINE
  8
0
 10
451.0
 20
447.0
 30
0.0
 11
451.0
 21
448.0
 31
0.0
  0
LINE
  8
0
 10
454.0
 20
448.0
 30
0.0
 11
624.0
 21
448.0
 31
0.0
  0
LINE
  8
0
 10
624.0
 20
448.0
 30
0.0
 11
624.0
 21
447.0
 31
0.0
  0
LINE
  8
0
 10
624.0
 20
447.0
 30
0.0
 11
454.0
 21
447.0
 31
0.0
  0
LINE
  8
0
 10
454.0
 20
447.0
 30
0.0
 11
454.0
 21
448.0
 31
0.0
  0
LINE
  8
0
 10
408.0
 20
447.0
 30
0.0
 11
414.0
 21
447.0
 31
0.0
  0
LINE
  8
0
 10
414.0
 20
447.0
 30
0.0
 11
414.0
 21
446.0
 31
0.0
  0
LINE
  8
0
 10
414.0
 20
446.0
 30
0.0
 11
408.0
 21
446.0
 31
0.0
  0
LINE
  8
0
 10
408.0
 20
446.0
 30
0.0
 11
408.0
 21
447.0
 31
0.0
  0
LINE
  8
0
 10
454.0
 20
447.0
 30
0.0
 11
624.0
 21
447.0
 31
0.0
  0
LINE
  8
0
 10
624.0
 20
447.0
 30
0.0
 11
624.0
 21
446.0
 31
0.0
  0
LINE
  8
0
 10
624.0
 20
446.0
 30
0.0
 11
454.0
 21
446.0
 31
0.0
  0
LINE
  8
0
 10
454.0
 20
446.0
 30
0.0
 11
454.0
 21
447.0
 31
0.0
  0
LINE
  8
0
 10
406.0
 20
446.0
 30
0.0
 11
415.0
 21
446.0
 31
0.0
  0
LINE
  8
0
 10
415.0
 20
446.0
 30
0.0
 11
415.0
 21
445.0
 31
0.0
  0
LINE
  8
0
 10
415.0
 20
445.0
 30
0.0
 11
406.0
 21
445.0
 31
0.0
  0
LINE
  8
0
 10
406.0
 20
445.0
 30
0.0
 11
406.0
 21
446.0
 31
0.0
  0
LINE
  8
0
 10
454.0
 20
446.0
 30
0.0
 11
624.0
 21
446.0
 31
0.0
  0
LINE
  8
0
 10
624.0
 20
446.0
 30
0.0
 11
624.0
 21
445.0
 31
0.0
  0
LINE
  8
0
 10
624.0
 20
445.0
 30
0.0
 11
454.0
 21
445.0
 31
0.0
  0
LINE
  8
0
 10
454.0
 20
445.0
 30
0.0
 11
454.0
 21
446.0
 31
0.0
  0
LINE
  8
0
 10
406.0
 20
445.0
 30
0.0
 11
416.0
 21
445.0
 31
0.0
  0
LINE
  8
0
 10
416.0
 20
445.0
 30
0.0
 11
416.0
 21
444.0
 31
0.0
  0
LINE
  8
0
 10
416.0
 20
444.0
 30
0.0
 11
406.0
 21
444.0
 31
0.0
  0
LINE
  8
0
 10
406.0
 20
444.0
 30
0.0
 11
406.0
 21
445.0
 31
0.0
  0
LINE
  8
0
 10
455.0
 20
445.0
 30
0.0
 11
624.0
 21
445.0
 31
0.0
  0
LINE
  8
0
 10
624.0
 20
445.0
 30
0.0
 11
624.0
 21
444.0
 31
0.0
  0
LINE
  8
0
 10
624.0
 20
444.0
 30
0.0
 11
455.0
 21
444.0
 31
0.0
  0
LINE
  8
0
 10
455.0
 20
444.0
 30
0.0
 11
455.0
 21
445.0
 31
0.0
  0
LINE
  8
0
 10
406.0
 20
444.0
 30
0.0
 11
416.0
 21
444.0
 31
0.0
  0
LINE
  8
0
 10
416.0
 20
444.0
 30
0.0
 11
416.0
 21
443.0
 31
0.0
  0
LINE
  8
0
 10
416.0
 20
443.0
 30
0.0
 11
406.0
 21
443.0
 31
0.0
  0
LINE
  8
0
 10
406.0
 20
443.0
 30
0.0
 11
406.0
 21
444.0
 31
0.0
  0
LINE
  8
0
 10
455.0
 20
444.0
 30
0.0
 11
624.0
 21
444.0
 31
0.0
  0
LINE
  8
0
 10
624.0
 20
444.0
 30
0.0
 11
624.0
 21
443.0
 31
0.0
  0
LINE
  8
0
 10
624.0
 20
443.0
 30
0.0
 11
455.0
 21
443.0
 31
0.0
  0
LINE
  8
0
 10
455.0
 20
443.0
 30
0.0
 11
455.0
 21
444.0
 31
0.0
  0
LINE
  8
0
 10
406.0
 20
443.0
 30
0.0
 11
415.0
 21
443.0
 31
0.0
  0
LINE
  8
0
 10
415.0
 20
443.0
 30
0.0
 11
415.0
 21
442.0
 31
0.0
  0
LINE
  8
0
 10
415.0
 20
442.0
 30
0.0
 11
406.0
 21
442.0
 31
0.0
  0
LINE
  8
0
 10
406.0
 20
442.0
 30
0.0
 11
406.0
 21
443.0
 31
0.0
  0
LINE
  8
0
 10
455.0
 20
443.0
 30
0.0
 11
624.0
 21
443.0
 31
0.0
  0
LINE
  8
0
 10
624.0
 20
443.0
 30
0.0
 11
624.0
 21
442.0
 31
0.0
  0
LINE
  8
0
 10
624.0
 20
442.0
 30
0.0
 11
455.0
 21
442.0
 31
0.0
  0
LINE
  8
0
 10
455.0
 20
442.0
 30
0.0
 11
455.0
 21
443.0
 31
0.0
  0
LINE
  8
0
 10
408.0
 20
442.0
 30
0.0
 11
414.0
 21
442.0
 31
0.0
  0
LINE
  8
0
 10
414.0
 20
442.0
 30
0.0
 11
414.0
 21
441.0
 31
0.0
  0
LINE
  8
0
 10
414.0
 20
441.0
 30
0.0
 11
408.0
 21
441.0
 31
0.0
  0
LINE
  8
0
 10
408.0
 20
441.0
 30
0.0
 11
408.0
 21
442.0
 31
0.0
  0
LINE
  8
0
 10
455.0
 20
442.0
 30
0.0
 11
624.0
 21
442.0
 31
0.0
  0
LINE
  8
0
 10
624.0
 20
442.0
 30
0.0
 11
624.0
 21
441.0
 31
0.0
  0
LINE
  8
0
 10
624.0
 20
441.0
 30
0.0
 11
455.0
 21
441.0
 31
0.0
  0
LINE
  8
0
 10
455.0
 20
441.0
 30
0.0
 11
455.0
 21
442.0
 31
0.0
  0
LINE
  8
0
 10
408.0
 20
441.0
 30
0.0
 11
415.0
 21
441.0
 31
0.0
  0
LINE
  8
0
 10
415.0
 20
441.0
 30
0.0
 11
415.0
 21
440.0
 31
0.0
  0
LINE
  8
0
 10
415.0
 20
440.0
 30
0.0
 11
408.0
 21
440.0
 31
0.0
  0
LINE
  8
0
 10
408.0
 20
440.0
 30
0.0
 11
408.0
 21
441.0
 31
0.0
  0
LINE
  8
0
 10
456.0
 20
441.0
 30
0.0
 11
624.0
 21
441.0
 31
0.0
  0
LINE
  8
0
 10
624.0
 20
441.0
 30
0.0
 11
624.0
 21
440.0
 31
0.0
  0
LINE
  8
0
 10
624.0
 20
440.0
 30
0.0
 11
456.0
 21
440.0
 31
0.0
  0
LINE
  8
0
 10
456.0
 20
440.0
 30
0.0
 11
456.0
 21
441.0
 31
0.0
  0
ENDSEC
  0
EOF