  0
SECTION
  2
HEADER
  9
$ACADVER
  1
AC1009
  0
ENDSEC
  0
SECTION
  2
ENTITIES
  0
LINE
  8
0
 10
419.0
 20
549.0
 30
0.0
 11
432.0
 21
549.0
 31
0.0
  0
LINE
  8
0
 10
432.0
 20
549.0
 30
0.0
 11
432.0
 21
548.0
 31
0.0
  0
LINE
  8
0
 10
432.0
 20
548.0
 30
0.0
 11
419.0
 21
548.0
 31
0.0
  0
LINE
  8
0
 10
419.0
 20
548.0
 30
0.0
 11
419.0
 21
549.0
 31
0.0
  0
LINE
  8
0
 10
435.0
 20
549.0
 30
0.0
 11
461.0
 21
549.0
 31
0.0
  0
LINE
  8
0
 10
461.0
 20
549.0
 30
0.0
 11
461.0
 21
548.0
 31
0.0
  0
LINE
  8
0
 10
461.0
 20
548.0
 30
0.0
 11
435.0
 21
548.0
 31
0.0
  0
LINE
  8
0
 10
435.0
 20
548.0
 30
0.0
 11
435.0
 21
549.0
 31
0.0
  0
LINE
  8
0
 10
563.0
 20
549.0
 30
0.0
 11
604.0
 21
549.0
 31
0.0
  0
LINE
  8
0
 10
604.0
 20
549.0
 30
0.0
 11
604.0
 21
548.0
 31
0.0
  0
LINE
  8
0
 10
604.0
 20
548.0
 30
0.0
 11
563.0
 21
548.0
 31
0.0
  0
LINE
  8
0
 10
563.0
 20
548.0
 30
0.0
 11
563.0
 21
549.0
 31
0.0
  0
LINE
  8
0
 10
419.0
 20
548.0
 30
0.0
 11
431.0
 21
548.0
 31
0.0
  0
LINE
  8
0
 10
431.0
 20
548.0
 30
0.0
 11
431.0
 21
547.0
 31
0.0
  0
LINE
  8
0
 10
431.0
 20
547.0
 30
0.0
 11
419.0
 21
547.0
 31
0.0
  0
LINE
  8
0
 10
419.0
 20
547.0
 30
0.0
 11
419.0
 21
548.0
 31
0.0
  0
LINE
  8
0
 10
433.0
 20
548.0
 30
0.0
 11
462.0
 21
548.0
 31
0.0
  0
LINE
  8
0
 10
462.0
 20
548.0
 30
0.0
 11
462.0
 21
547.0
 31
0.0
  0
LINE
  8
0
 10
462.0
 20
547.0
 30
0.0
 11
433.0
 21
547.0
 31
0.0
  0
LINE
  8
0
 10
433.0
 20
547.0
 30
0.0
 11
433.0
 21
548.0
 31
0.0
  0
LINE
  8
0
 10
565.0
 20
548.0
 30
0.0
 11
601.0
 21
548.0
 31
0.0
  0
LINE
  8
0
 10
601.0
 20
548.0
 30
0.0
 11
601.0
 21
547.0
 31
0.0
  0
LINE
  8
0
 10
601.0
 20
547.0
 30
0.0
 11
565.0
 21
547.0
 31
0.0
  0
LINE
  8
0
 10
565.0
 20
547.0
 30
0.0
 11
565.0
 21
548.0
 31
0.0
  0
LINE
  8
0
 10
419.0
 20
547.0
 30
0.0
 11
430.0
 21
547.0
 31
0.0
  0
LINE
  8
0
 10
430.0
 20
547.0
 30
0.0
 11
430.0
 21
546.0
 31
0.0
  0
LINE
  8
0
 10
430.0
 20
546.0
 30
0.0
 11
419.0
 21
546.0
 31
0.0
  0
LINE
  8
0
 10
419.0
 20
546.0
 30
0.0
 11
419.0
 21
547.0
 31
0.0
  0
LINE
  8
0
 10
432.0
 20
547.0
 30
0.0
 11
467.0
 21
547.0
 31
0.0
  0
LINE
  8
0
 10
467.0
 20
547.0
 30
0.0
 11
467.0
 21
546.0
 31
0.0
  0
LINE
  8
0
 10
467.0
 20
546.0
 30
0.0
 11
432.0
 21
546.0
 31
0.0
  0
LINE
  8
0
 10
432.0
 20
546.0
 30
0.0
 11
432.0
 21
547.0
 31
0.0
  0
LINE
  8
0
 10
569.0
 20
547.0
 30
0.0
 11
599.0
 21
547.0
 31
0.0
  0
LINE
  8
0
 10
599.0
 20
547.0
 30
0.0
 11
599.0
 21
546.0
 31
0.0
  0
LINE
  8
0
 10
599.0
 20
546.0
 30
0.0
 11
569.0
 21
546.0
 31
0.0
  0
LINE
  8
0
 10
569.0
 20
546.0
 30
0.0
 11
569.0
 21
547.0
 31
0.0
  0
LINE
  8
0
 10
601.0
 20
547.0
 30
0.0
 11
604.0
 21
547.0
 31
0.0
  0
LINE
  8
0
 10
604.0
 20
547.0
 30
0.0
 11
604.0
 21
546.0
 31
0.0
  0
LINE
  8
0
 10
604.0
 20
546.0
 30
0.0
 11
601.0
 21
546.0
 31
0.0
  0
LINE
  8
0
 10
601.0
 20
546.0
 30
0.0
 11
601.0
 21
547.0
 31
0.0
  0
LINE
  8
0
 10
419.0
 20
546.0
 30
0.0
 11
430.0
 21
546.0
 31
0.0
  0
LINE
  8
0
 10
430.0
 20
546.0
 30
0.0
 11
430.0
 21
545.0
 31
0.0
  0
LINE
  8
0
 10
430.0
 20
545.0
 30
0.0
 11
419.0
 21
545.0
 31
0.0
  0
LINE
  8
0
 10
419.0
 20
545.0
 30
0.0
 11
419.0
 21
546.0
 31
0.0
  0
LINE
  8
0
 10
431.0
 20
546.0
 30
0.0
 11
446.0
 21
546.0
 31
0.0
  0
LINE
  8
0
 10
446.0
 20
546.0
 30
0.0
 11
446.0
 21
545.0
 31
0.0
  0
LINE
  8
0
 10
446.0
 20
545.0
 30
0.0
 11
431.0
 21
545.0
 31
0.0
  0
LINE
  8
0
 10
431.0
 20
545.0
 30
0.0
 11
431.0
 21
546.0
 31
0.0
  0
LINE
  8
0
 10
447.0
 20
546.0
 30
0.0
 11
471.0
 21
546.0
 31
0.0
  0
LINE
  8
0
 10
471.0
 20
546.0
 30
0.0
 11
471.0
 21
545.0
 31
0.0
  0
LINE
  8
0
 10
471.0
 20
545.0
 30
0.0
 11
447.0
 21
545.0
 31
0.0
  0
LINE
  8
0
 10
447.0
 20
545.0
 30
0.0
 11
447.0
 21
546.0
 31
0.0
  0
LINE
  8
0
 10
563.0
 20
546.0
 30
0.0
 11
598.0
 21
546.0
 31
0.0
  0
LINE
  8
0
 10
598.0
 20
546.0
 30
0.0
 11
598.0
 21
545.0
 31
0.0
  0
LINE
  8
0
 10
598.0
 20
545.0
 30
0.0
 11
563.0
 21
545.0
 31
0.0
  0
LINE
  8
0
 10
563.0
 20
545.0
 30
0.0
 11
563.0
 21
546.0
 31
0.0
  0
LINE
  8
0
 10
600.0
 20
546.0
 30
0.0
 11
604.0
 21
546.0
 31
0.0
  0
LINE
  8
0
 10
604.0
 20
546.0
 30
0.0
 11
604.0
 21
545.0
 31
0.0
  0
LINE
  8
0
 10
604.0
 20
545.0
 30
0.0
 11
600.0
 21
545.0
 31
0.0
  0
LINE
  8
0
 10
600.0
 20
545.0
 30
0.0
 11
600.0
 21
546.0
 31
0.0
  0
LINE
  8
0
 10
419.0
 20
545.0
 30
0.0
 11
443.0
 21
545.0
 31
0.0
  0
LINE
  8
0
 10
443.0
 20
545.0
 30
0.0
 11
443.0
 21
544.0
 31
0.0
  0
LINE
  8
0
 10
443.0
 20
544.0
 30
0.0
 11
419.0
 21
544.0
 31
0.0
  0
LINE
  8
0
 10
419.0
 20
544.0
 30
0.0
 11
419.0
 21
545.0
 31
0.0
  0
LINE
  8
0
 10
446.0
 20
545.0
 30
0.0
 11
479.0
 21
545.0
 31
0.0
  0
LINE
  8
0
 10
479.0
 20
545.0
 30
0.0
 11
479.0
 21
544.0
 31
0.0
  0
LINE
  8
0
 10
479.0
 20
544.0
 30
0.0
 11
446.0
 21
544.0
 31
0.0
  0
LINE
  8
0
 10
446.0
 20
544.0
 30
0.0
 11
446.0
 21
545.0
 31
0.0
  0
LINE
  8
0
 10
558.0
 20
545.0
 30
0.0
 11
597.0
 21
545.0
 31
0.0
  0
LINE
  8
0
 10
597.0
 20
545.0
 30
0.0
 11
597.0
 21
544.0
 31
0.0
  0
LINE
  8
0
 10
597.0
 20
544.0
 30
0.0
 11
558.0
 21
544.0
 31
0.0
  0
LINE
  8
0
 10
558.0
 20
544.0
 30
0.0
 11
558.0
 21
545.0
 31
0.0
  0
LINE
  8
0
 10
598.0
 20
545.0
 30
0.0
 11
604.0
 21
545.0
 31
0.0
  0
LINE
  8
0
 10
604.0
 20
545.0
 30
0.0
 11
604.0
 21
544.0
 31
0.0
  0
LINE
  8
0
 10
604.0
 20
544.0
 30
0.0
 11
598.0
 21
544.0
 31
0.0
  0
LINE
  8
0
 10
598.0
 20
544.0
 30
0.0
 11
598.0
 21
545.0
 31
0.0
  0
LINE
  8
0
 10
419.0
 20
544.0
 30
0.0
 11
441.0
 21
544.0
 31
0.0
  0
LINE
  8
0
 10
441.0
 20
544.0
 30
0.0
 11
441.0
 21
543.0
 31
0.0
  0
LINE
  8
0
 10
441.0
 20
543.0
 30
0.0
 11
419.0
 21
543.0
 31
0.0
  0
LINE
  8
0
 10
419.0
 20
543.0
 30
0.0
 11
419.0
 21
544.0
 31
0.0
  0
LINE
  8
0
 10
445.0
 20
544.0
 30
0.0
 11
488.0
 21
544.0
 31
0.0
  0
LINE
  8
0
 10
488.0
 20
544.0
 30
0.0
 11
488.0
 21
543.0
 31
0.0
  0
LINE
  8
0
 10
488.0
 20
543.0
 30
0.0
 11
445.0
 21
543.0
 31
0.0
  0
LINE
  8
0
 10
445.0
 20
543.0
 30
0.0
 11
445.0
 21
544.0
 31
0.0
  0
LINE
  8
0
 10
550.0
 20
544.0
 30
0.0
 11
596.0
 21
544.0
 31
0.0
  0
LINE
  8
0
 10
596.0
 20
544.0
 30
0.0
 11
596.0
 21
543.0
 31
0.0
  0
LINE
  8
0
 10
596.0
 20
543.0
 30
0.0
 11
550.0
 21
543.0
 31
0.0
  0
LINE
  8
0
 10
550.0
 20
543.0
 30
0.0
 11
550.0
 21
544.0
 31
0.0
  0
LINE
  8
0
 10
597.0
 20
544.0
 30
0.0
 11
604.0
 21
544.0
 31
0.0
  0
LINE
  8
0
 10
604.0
 20
544.0
 30
0.0
 11
604.0
 21
543.0
 31
0.0
  0
LINE
  8
0
 10
604.0
 20
543.0
 30
0.0
 11
597.0
 21
543.0
 31
0.0
  0
LINE
  8
0
 10
597.0
 20
543.0
 30
0.0
 11
597.0
 21
544.0
 31
0.0
  0
LINE
  8
0
 10
419.0
 20
543.0
 30
0.0
 11
439.0
 21
543.0
 31
0.0
  0
LINE
  8
0
 10
439.0
 20
543.0
 30
0.0
 11
439.0
 21
542.0
 31
0.0
  0
LINE
  8
0
 10
439.0
 20
542.0
 30
0.0
 11
419.0
 21
542.0
 31
0.0
  0
LINE
  8
0
 10
419.0
 20
542.0
 30
0.0
 11
419.0
 21
543.0
 31
0.0
  0
LINE
  8
0
 10
440.0
 20
543.0
 30
0.0
 11
443.0
 21
543.0
 31
0.0
  0
LINE
  8
0
 10
443.0
 20
543.0
 30
0.0
 11
443.0
 21
542.0
 31
0.0
  0
LINE
  8
0
 10
443.0
 20
542.0
 30
0.0
 11
440.0
 21
542.0
 31
0.0
  0
LINE
  8
0
 10
440.0
 20
542.0
 30
0.0
 11
440.0
 21
543.0
 31
0.0
  0
LINE
  8
0
 10
444.0
 20
543.0
 30
0.0
 11
494.0
 21
543.0
 31
0.0
  0
LINE
  8
0
 10
494.0
 20
543.0
 30
0.0
 11
494.0
 21
542.0
 31
0.0
  0
LINE
  8
0
 10
494.0
 20
542.0
 30
0.0
 11
444.0
 21
542.0
 31
0.0
  0
LINE
  8
0
 10
444.0
 20
542.0
 30
0.0
 11
444.0
 21
543.0
 31
0.0
  0
LINE
  8
0
 10
544.0
 20
543.0
 30
0.0
 11
604.0
 21
543.0
 31
0.0
  0
LINE
  8
0
 10
604.0
 20
543.0
 30
0.0
 11
604.0
 21
542.0
 31
0.0
  0
LINE
  8
0
 10
604.0
 20
542.0
 30
0.0
 11
544.0
 21
542.0
 31
0.0
  0
LINE
  8
0
 10
544.0
 20
542.0
 30
0.0
 11
544.0
 21
543.0
 31
0.0
  0
LINE
  8
0
 10
419.0
 20
542.0
 30
0.0
 11
438.0
 21
542.0
 31
0.0
  0
LINE
  8
0
 10
438.0
 20
542.0
 30
0.0
 11
438.0
 21
541.0
 31
0.0
  0
LINE
  8
0
 10
438.0
 20
541.0
 30
0.0
 11
419.0
 21
541.0
 31
0.0
  0
LINE
  8
0
 10
419.0
 20
541.0
 30
0.0
 11
419.0
 21
542.0
 31
0.0
  0
LINE
  8
0
 10
439.0
 20
542.0
 30
0.0
 11
442.0
 21
542.0
 31
0.0
  0
LINE
  8
0
 10
442.0
 20
542.0
 30
0.0
 11
442.0
 21
541.0
 31
0.0
  0
LINE
  8
0
 10
442.0
 20
541.0
 30
0.0
 11
439.0
 21
541.0
 31
0.0
  0
LINE
  8
0
 10
439.0
 20
541.0
 30
0.0
 11
439.0
 21
542.0
 31
0.0
  0
LINE
  8
0
 10
443.0
 20
542.0
 30
0.0
 11
500.0
 21
542.0
 31
0.0
  0
LINE
  8
0
 10
500.0
 20
542.0
 30
0.0
 11
500.0
 21
541.0
 31
0.0
  0
LINE
  8
0
 10
500.0
 20
541.0
 30
0.0
 11
443.0
 21
541.0
 31
0.0
  0
LINE
  8
0
 10
443.0
 20
541.0
 30
0.0
 11
443.0
 21
542.0
 31
0.0
  0
LINE
  8
0
 10
537.0
 20
542.0
 30
0.0
 11
592.0
 21
542.0
 31
0.0
  0
LINE
  8
0
 10
592.0
 20
542.0
 30
0.0
 11
592.0
 21
541.0
 31
0.0
  0
LINE
  8
0
 10
592.0
 20
541.0
 30
0.0
 11
537.0
 21
541.0
 31
0.0
  0
LINE
  8
0
 10
537.0
 20
541.0
 30
0.0
 11
537.0
 21
542.0
 31
0.0
  0
LINE
  8
0
 10
596.0
 20
542.0
 30
0.0
 11
604.0
 21
542.0
 31
0.0
  0
LINE
  8
0
 10
604.0
 20
542.0
 30
0.0
 11
604.0
 21
541.0
 31
0.0
  0
LINE
  8
0
 10
604.0
 20
541.0
 30
0.0
 11
596.0
 21
541.0
 31
0.0
  0
LINE
  8
0
 10
596.0
 20
541.0
 30
0.0
 11
596.0
 21
542.0
 31
0.0
  0
LINE
  8
0
 10
419.0
 20
541.0
 30
0.0
 11
437.0
 21
541.0
 31
0.0
  0
LINE
  8
0
 10
437.0
 20
541.0
 30
0.0
 11
437.0
 21
540.0
 31
0.0
  0
LINE
  8
0
 10
437.0
 20
540.0
 30
0.0
 11
419.0
 21
540.0
 31
0.0
  0
LINE
  8
0
 10
419.0
 20
540.0
 30
0.0
 11
419.0
 21
541.0
 31
0.0
  0
LINE
  8
0
 10
438.0
 20
541.0
 30
0.0
 11
442.0
 21
541.0
 31
0.0
  0
LINE
  8
0
 10
442.0
 20
541.0
 30
0.0
 11
442.0
 21
540.0
 31
0.0
  0
LINE
  8
0
 10
442.0
 20
540.0
 30
0.0
 11
438.0
 21
540.0
 31
0.0
  0
LINE
  8
0
 10
438.0
 20
540.0
 30
0.0
 11
438.0
 21
541.0
 31
0.0
  0
LINE
  8
0
 10
443.0
 20
541.0
 30
0.0
 11
505.0
 21
541.0
 31
0.0
  0
LINE
  8
0
 10
505.0
 20
541.0
 30
0.0
 11
505.0
 21
540.0
 31
0.0
  0
LINE
  8
0
 10
505.0
 20
540.0
 30
0.0
 11
443.0
 21
540.0
 31
0.0
  0
LINE
  8
0
 10
443.0
 20
540.0
 30
0.0
 11
443.0
 21
541.0
 31
0.0
  0
LINE
  8
0
 10
531.0
 20
541.0
 30
0.0
 11
591.0
 21
541.0
 31
0.0
  0
LINE
  8
0
 10
591.0
 20
541.0
 30
0.0
 11
591.0
 21
540.0
 31
0.0
  0
LINE
  8
0
 10
591.0
 20
540.0
 30
0.0
 11
531.0
 21
540.0
 31
0.0
  0
LINE
  8
0
 10
531.0
 20
540.0
 30
0.0
 11
531.0
 21
541.0
 31
0.0
  0
LINE
  8
0
 10
592.0
 20
541.0
 30
0.0
 11
604.0
 21
541.0
 31
0.0
  0
LINE
  8
0
 10
604.0
 20
541.0
 30
0.0
 11
604.0
 21
540.0
 31
0.0
  0
LINE
  8
0
 10
604.0
 20
540.0
 30
0.0
 11
592.0
 21
540.0
 31
0.0
  0
LINE
  8
0
 10
592.0
 20
540.0
 30
0.0
 11
592.0
 21
541.0
 31
0.0
  0
LINE
  8
0
 10
419.0
 20
540.0
 30
0.0
 11
441.0
 21
540.0
 31
0.0
  0
LINE
  8
0
 10
441.0
 20
540.0
 30
0.0
 11
441.0
 21
539.0
 31
0.0
  0
LINE
  8
0
 10
441.0
 20
539.0
 30
0.0
 11
419.0
 21
539.0
 31
0.0
  0
LINE
  8
0
 10
419.0
 20
539.0
 30
0.0
 11
419.0
 21
540.0
 31
0.0
  0
LINE
  8
0
 10
442.0
 20
540.0
 30
0.0
 11
506.0
 21
540.0
 31
0.0
  0
LINE
  8
0
 10
506.0
 20
540.0
 30
0.0
 11
506.0
 21
539.0
 31
0.0
  0
LINE
  8
0
 10
506.0
 20
539.0
 30
0.0
 11
442.0
 21
539.0
 31
0.0
  0
LINE
  8
0
 10
442.0
 20
539.0
 30
0.0
 11
442.0
 21
540.0
 31
0.0
  0
LINE
  8
0
 10
527.0
 20
540.0
 30
0.0
 11
590.0
 21
540.0
 31
0.0
  0
LINE
  8
0
 10
590.0
 20
540.0
 30
0.0
 11
590.0
 21
539.0
 31
0.0
  0
LINE
  8
0
 10
590.0
 20
539.0
 30
0.0
 11
527.0
 21
539.0
 31
0.0
  0
LINE
  8
0
 10
527.0
 20
539.0
 30
0.0
 11
527.0
 21
540.0
 31
0.0
  0
LINE
  8
0
 10
591.0
 20
540.0
 30
0.0
 11
604.0
 21
540.0
 31
0.0
  0
LINE
  8
0
 10
604.0
 20
540.0
 30
0.0
 11
604.0
 21
539.0
 31
0.0
  0
LINE
  8
0
 10
604.0
 20
539.0
 30
0.0
 11
591.0
 21
539.0
 31
0.0
  0
LINE
  8
0
 10
591.0
 20
539.0
 30
0.0
 11
591.0
 21
540.0
 31
0.0
  0
LINE
  8
0
 10
419.0
 20
539.0
 30
0.0
 11
447.0
 21
539.0
 31
0.0
  0
LINE
  8
0
 10
447.0
 20
539.0
 30
0.0
 11
447.0
 21
538.0
 31
0.0
  0
LINE
  8
0
 10
447.0
 20
538.0
 30
0.0
 11
419.0
 21
538.0
 31
0.0
  0
LINE
  8
0
 10
419.0
 20
538.0
 30
0.0
 11
419.0
 21
539.0
 31
0.0
  0
LINE
  8
0
 10
448.0
 20
539.0
 30
0.0
 11
505.0
 21
539.0
 31
0.0
  0
LINE
  8
0
 10
505.0
 20
539.0
 30
0.0
 11
505.0
 21
538.0
 31
0.0
  0
LINE
  8
0
 10
505.0
 20
538.0
 30
0.0
 11
448.0
 21
538.0
 31
0.0
  0
LINE
  8
0
 10
448.0
 20
538.0
 30
0.0
 11
448.0
 21
539.0
 31
0.0
  0
LINE
  8
0
 10
525.0
 20
539.0
 30
0.0
 11
589.0
 21
539.0
 31
0.0
  0
LINE
  8
0
 10
589.0
 20
539.0
 30
0.0
 11
589.0
 21
538.0
 31
0.0
  0
LINE
  8
0
 10
589.0
 20
538.0
 30
0.0
 11
525.0
 21
538.0
 31
0.0
  0
LINE
  8
0
 10
525.0
 20
538.0
 30
0.0
 11
525.0
 21
539.0
 31
0.0
  0
LINE
  8
0
 10
590.0
 20
539.0
 30
0.0
 11
604.0
 21
539.0
 31
0.0
  0
LINE
  8
0
 10
604.0
 20
539.0
 30
0.0
 11
604.0
 21
538.0
 31
0.0
  0
LINE
  8
0
 10
604.0
 20
538.0
 30
0.0
 11
590.0
 21
538.0
 31
0.0
  0
LINE
  8
0
 10
590.0
 20
538.0
 30
0.0
 11
590.0
 21
539.0
 31
0.0
  0
LINE
  8
0
 10
419.0
 20
538.0
 30
0.0
 11
445.0
 21
538.0
 31
0.0
  0
LINE
  8
0
 10
445.0
 20
538.0
 30
0.0
 11
445.0
 21
537.0
 31
0.0
  0
LINE
  8
0
 10
445.0
 20
537.0
 30
0.0
 11
419.0
 21
537.0
 31
0.0
  0
LINE
  8
0
 10
419.0
 20
537.0
 30
0.0
 11
419.0
 21
538.0
 31
0.0
  0
LINE
  8
0
 10
446.0
 20
538.0
 30
0.0
 11
501.0
 21
538.0
 31
0.0
  0
LINE
  8
0
 10
501.0
 20
538.0
 30
0.0
 11
501.0
 21
537.0
 31
0.0
  0
LINE
  8
0
 10
501.0
 20
537.0
 30
0.0
 11
446.0
 21
537.0
 31
0.0
  0
LINE
  8
0
 10
446.0
 20
537.0
 30
0.0
 11
446.0
 21
538.0
 31
0.0
  0
LINE
  8
0
 10
526.0
 20
538.0
 30
0.0
 11
604.0
 21
538.0
 31
0.0
  0
LINE
  8
0
 10
604.0
 20
538.0
 30
0.0
 11
604.0
 21
537.0
 31
0.0
  0
LINE
  8
0
 10
604.0
 20
537.0
 30
0.0
 11
526.0
 21
537.0
 31
0.0
  0
LINE
  8
0
 10
526.0
 20
537.0
 30
0.0
 11
526.0
 21
538.0
 31
0.0
  0
LINE
  8
0
 10
419.0
 20
537.0
 30
0.0
 11
495.0
 21
537.0
 31
0.0
  0
LINE
  8
0
 10
495.0
 20
537.0
 30
0.0
 11
495.0
 21
536.0
 31
0.0
  0
LINE
  8
0
 10
495.0
 20
536.0
 30
0.0
 11
419.0
 21
536.0
 31
0.0
  0
LINE
  8
0
 10
419.0
 20
536.0
 30
0.0
 11
419.0
 21
537.0
 31
0.0
  0
LINE
  8
0
 10
531.0
 20
537.0
 30
0.0
 11
604.0
 21
537.0
 31
0.0
  0
LINE
  8
0
 10
604.0
 20
537.0
 30
0.0
 11
604.0
 21
536.0
 31
0.0
  0
LINE
  8
0
 10
604.0
 20
536.0
 30
0.0
 11
531.0
 21
536.0
 31
0.0
  0
LINE
  8
0
 10
531.0
 20
536.0
 30
0.0
 11
531.0
 21
537.0
 31
0.0
  0
LINE
  8
0
 10
419.0
 20
536.0
 30
0.0
 11
489.0
 21
536.0
 31
0.0
  0
LINE
  8
0
 10
489.0
 20
536.0
 30
0.0
 11
489.0
 21
535.0
 31
0.0
  0
LINE
  8
0
 10
489.0
 20
535.0
 30
0.0
 11
419.0
 21
535.0
 31
0.0
  0
LINE
  8
0
 10
419.0
 20
535.0
 30
0.0
 11
419.0
 21
536.0
 31
0.0
  0
LINE
  8
0
 10
539.0
 20
536.0
 30
0.0
 11
604.0
 21
536.0
 31
0.0
  0
LINE
  8
0
 10
604.0
 20
536.0
 30
0.0
 11
604.0
 21
535.0
 31
0.0
  0
LINE
  8
0
 10
604.0
 20
535.0
 30
0.0
 11
539.0
 21
535.0
 31
0.0
  0
LINE
  8
0
 10
539.0
 20
535.0
 30
0.0
 11
539.0
 21
536.0
 31
0.0
  0
LINE
  8
0
 10
419.0
 20
535.0
 30
0.0
 11
483.0
 21
535.0
 31
0.0
  0
LINE
  8
0
 10
483.0
 20
535.0
 30
0.0
 11
483.0
 21
534.0
 31
0.0
  0
LINE
  8
0
 10
483.0
 20
534.0
 30
0.0
 11
419.0
 21
534.0
 31
0.0
  0
LINE
  8
0
 10
419.0
 20
534.0
 30
0.0
 11
419.0
 21
535.0
 31
0.0
  0
LINE
  8
0
 10
544.0
 20
535.0
 30
0.0
 11
604.0
 21
535.0
 31
0.0
  0
LINE
  8
0
 10
604.0
 20
535.0
 30
0.0
 11
604.0
 21
534.0
 31
0.0
  0
LINE
  8
0
 10
604.0
 20
534.0
 30
0.0
 11
544.0
 21
534.0
 31
0.0
  0
LINE
  8
0
 10
544.0
 20
534.0
 30
0.0
 11
544.0
 21
535.0
 31
0.0
  0
LINE
  8
0
 10
419.0
 20
534.0
 30
0.0
 11
475.0
 21
534.0
 31
0.0
  0
LINE
  8
0
 10
475.0
 20
534.0
 30
0.0
 11
475.0
 21
533.0
 31
0.0
  0
LINE
  8
0
 10
475.0
 20
533.0
 30
0.0
 11
419.0
 21
533.0
 31
0.0
  0
LINE
  8
0
 10
419.0
 20
533.0
 30
0.0
 11
419.0
 21
534.0
 31
0.0
  0
LINE
  8
0
 10
557.0
 20
534.0
 30
0.0
 11
604.0
 21
534.0
 31
0.0
  0
LINE
  8
0
 10
604.0
 20
534.0
 30
0.0
 11
604.0
 21
533.0
 31
0.0
  0
LINE
  8
0
 10
604.0
 20
533.0
 30
0.0
 11
557.0
 21
533.0
 31
0.0
  0
LINE
  8
0
 10
557.0
 20
533.0
 30
0.0
 11
557.0
 21
534.0
 31
0.0
  0
LINE
  8
0
 10
419.0
 20
533.0
 30
0.0
 11
467.0
 21
533.0
 31
0.0
  0
LINE
  8
0
 10
467.0
 20
533.0
 30
0.0
 11
467.0
 21
532.0
 31
0.0
  0
LINE
  8
0
 10
467.0
 20
532.0
 30
0.0
 11
419.0
 21
532.0
 31
0.0
  0
LINE
  8
0
 10
419.0
 20
532.0
 30
0.0
 11
419.0
 21
533.0
 31
0.0
  0
LINE
  8
0
 10
560.0
 20
533.0
 30
0.0
 11
604.0
 21
533.0
 31
0.0
  0
LINE
  8
0
 10
604.0
 20
533.0
 30
0.0
 11
604.0
 21
532.0
 31
0.0
  0
LINE
  8
0
 10
604.0
 20
532.0
 30
0.0
 11
560.0
 21
532.0
 31
0.0
  0
LINE
  8
0
 10
560.0
 20
532.0
 30
0.0
 11
560.0
 21
533.0
 31
0.0
  0
LINE
  8
0
 10
419.0
 20
532.0
 30
0.0
 11
461.0
 21
532.0
 31
0.0
  0
LINE
  8
0
 10
461.0
 20
532.0
 30
0.0
 11
461.0
 21
531.0
 31
0.0
  0
LINE
  8
0
 10
461.0
 20
531.0
 30
0.0
 11
419.0
 21
531.0
 31
0.0
  0
LINE
  8
0
 10
419.0
 20
531.0
 30
0.0
 11
419.0
 21
532.0
 31
0.0
  0
LINE
  8
0
 10
570.0
 20
532.0
 30
0.0
 11
604.0
 21
532.0
 31
0.0
  0
LINE
  8
0
 10
604.0
 20
532.0
 30
0.0
 11
604.0
 21
531.0
 31
0.0
  0
LINE
  8
0
 10
604.0
 20
531.0
 30
0.0
 11
570.0
 21
531.0
 31
0.0
  0
LINE
  8
0
 10
570.0
 20
531.0
 30
0.0
 11
570.0
 21
532.0
 31
0.0
  0
LINE
  8
0
 10
419.0
 20
531.0
 30
0.0
 11
457.0
 21
531.0
 31
0.0
  0
LINE
  8
0
 10
457.0
 20
531.0
 30
0.0
 11
457.0
 21
530.0
 31
0.0
  0
LINE
  8
0
 10
457.0
 20
530.0
 30
0.0
 11
419.0
 21
530.0
 31
0.0
  0
LINE
  8
0
 10
419.0
 20
530.0
 30
0.0
 11
419.0
 21
531.0
 31
0.0
  0
LINE
  8
0
 10
575.0
 20
531.0
 30
0.0
 11
604.0
 21
531.0
 31
0.0
  0
LINE
  8
0
 10
604.0
 20
531.0
 30
0.0
 11
604.0
 21
530.0
 31
0.0
  0
LINE
  8
0
 10
604.0
 20
530.0
 30
0.0
 11
575.0
 21
530.0
 31
0.0
  0
LINE
  8
0
 10
575.0
 20
530.0
 30
0.0
 11
575.0
 21
531.0
 31
0.0
  0
LINE
  8
0
 10
419.0
 20
530.0
 30
0.0
 11
453.0
 21
530.0
 31
0.0
  0
LINE
  8
0
 10
453.0
 20
530.0
 30
0.0
 11
453.0
 21
529.0
 31
0.0
  0
LINE
  8
0
 10
453.0
 20
529.0
 30
0.0
 11
419.0
 21
529.0
 31
0.0
  0
LINE
  8
0
 10
419.0
 20
529.0
 30
0.0
 11
419.0
 21
530.0
 31
0.0
  0
LINE
  8
0
 10
579.0
 20
530.0
 30
0.0
 11
604.0
 21
530.0
 31
0.0
  0
LINE
  8
0
 10
604.0
 20
530.0
 30
0.0
 11
604.0
 21
529.0
 31
0.0
  0
LINE
  8
0
 10
604.0
 20
529.0
 30
0.0
 11
579.0
 21
529.0
 31
0.0
  0
LINE
  8
0
 10
579.0
 20
529.0
 30
0.0
 11
579.0
 21
530.0
 31
0.0
  0
LINE
  8
0
 10
419.0
 20
529.0
 30
0.0
 11
451.0
 21
529.0
 31
0.0
  0
LINE
  8
0
 10
451.0
 20
529.0
 30
0.0
 11
451.0
 21
528.0
 31
0.0
  0
LINE
  8
0
 10
451.0
 20
528.0
 30
0.0
 11
419.0
 21
528.0
 31
0.0
  0
LINE
  8
0
 10
419.0
 20
528.0
 30
0.0
 11
419.0
 21
529.0
 31
0.0
  0
LINE
  8
0
 10
516.0
 20
529.0
 30
0.0
 11
541.0
 21
529.0
 31
0.0
  0
LINE
  8
0
 10
541.0
 20
529.0
 30
0.0
 11
541.0
 21
528.0
 31
0.0
  0
LINE
  8
0
 10
541.0
 20
528.0
 30
0.0
 11
516.0
 21
528.0
 31
0.0
  0
LINE
  8
0
 10
516.0
 20
528.0
 30
0.0
 11
516.0
 21
529.0
 31
0.0
  0
LINE
  8
0
 10
582.0
 20
529.0
 30
0.0
 11
604.0
 21
529.0
 31
0.0
  0
LINE
  8
0
 10
604.0
 20
529.0
 30
0.0
 11
604.0
 21
528.0
 31
0.0
  0
LINE
  8
0
 10
604.0
 20
528.0
 30
0.0
 11
582.0
 21
528.0
 31
0.0
  0
LINE
  8
0
 10
582.0
 20
528.0
 30
0.0
 11
582.0
 21
529.0
 31
0.0
  0
LINE
  8
0
 10
419.0
 20
528.0
 30
0.0
 11
448.0
 21
528.0
 31
0.0
  0
LINE
  8
0
 10
448.0
 20
528.0
 30
0.0
 11
448.0
 21
527.0
 31
0.0
  0
LINE
  8
0
 10
448.0
 20
527.0
 30
0.0
 11
419.0
 21
527.0
 31
0.0
  0
LINE
  8
0
 10
419.0
 20
527.0
 30
0.0
 11
419.0
 21
528.0
 31
0.0
  0
LINE
  8
0
 10
498.0
 20
528.0
 30
0.0
 11
553.0
 21
528.0
 31
0.0
  0
LINE
  8
0
 10
553.0
 20
528.0
 30
0.0
 11
553.0
 21
527.0
 31
0.0
  0
LINE
  8
0
 10
553.0
 20
527.0
 30
0.0
 11
498.0
 21
527.0
 31
0.0
  0
LINE
  8
0
 10
498.0
 20
527.0
 30
0.0
 11
498.0
 21
528.0
 31
0.0
  0
LINE
  8
0
 10
584.0
 20
528.0
 30
0.0
 11
601.0
 21
528.0
 31
0.0
  0
LINE
  8
0
 10
601.0
 20
528.0
 30
0.0
 11
601.0
 21
527.0
 31
0.0
  0
LINE
  8
0
 10
601.0
 20
527.0
 30
0.0
 11
584.0
 21
527.0
 31
0.0
  0
LINE
  8
0
 10
584.0
 20
527.0
 30
0.0
 11
584.0
 21
528.0
 31
0.0
  0
LINE
  8
0
 10
603.0
 20
528.0
 30
0.0
 11
604.0
 21
528.0
 31
0.0
  0
LINE
  8
0
 10
604.0
 20
528.0
 30
0.0
 11
604.0
 21
527.0
 31
0.0
  0
LINE
  8
0
 10
604.0
 20
527.0
 30
0.0
 11
603.0
 21
527.0
 31
0.0
  0
LINE
  8
0
 10
603.0
 20
527.0
 30
0.0
 11
603.0
 21
528.0
 31
0.0
  0
LINE
  8
0
 10
419.0
 20
527.0
 30
0.0
 11
446.0
 21
527.0
 31
0.0
  0
LINE
  8
0
 10
446.0
 20
527.0
 30
0.0
 11
446.0
 21
526.0
 31
0.0
  0
LINE
  8
0
 10
446.0
 20
526.0
 30
0.0
 11
419.0
 21
526.0
 31
0.0
  0
LINE
  8
0
 10
419.0
 20
526.0
 30
0.0
 11
419.0
 21
527.0
 31
0.0
  0
LINE
  8
0
 10
481.0
 20
527.0
 30
0.0
 11
558.0
 21
527.0
 31
0.0
  0
LINE
  8
0
 10
558.0
 20
527.0
 30
0.0
 11
558.0
 21
526.0
 31
0.0
  0
LINE
  8
0
 10
558.0
 20
526.0
 30
0.0
 11
481.0
 21
526.0
 31
0.0
  0
LINE
  8
0
 10
481.0
 20
526.0
 30
0.0
 11
481.0
 21
527.0
 31
0.0
  0
LINE
  8
0
 10
587.0
 20
527.0
 30
0.0
 11
604.0
 21
527.0
 31
0.0
  0
LINE
  8
0
 10
604.0
 20
527.0
 30
0.0
 11
604.0
 21
526.0
 31
0.0
  0
LINE
  8
0
 10
604.0
 20
526.0
 30
0.0
 11
587.0
 21
526.0
 31
0.0
  0
LINE
  8
0
 10
587.0
 20
526.0
 30
0.0
 11
587.0
 21
527.0
 31
0.0
  0
LINE
  8
0
 10
420.0
 20
526.0
 30
0.0
 11
445.0
 21
526.0
 31
0.0
  0
LINE
  8
0
 10
445.0
 20
526.0
 30
0.0
 11
445.0
 21
525.0
 31
0.0
  0
LINE
  8
0
 10
445.0
 20
525.0
 30
0.0
 11
420.0
 21
525.0
 31
0.0
  0
LINE
  8
0
 10
420.0
 20
525.0
 30
0.0
 11
420.0
 21
526.0
 31
0.0
  0
LINE
  8
0
 10
475.0
 20
526.0
 30
0.0
 11
563.0
 21
526.0
 31
0.0
  0
LINE
  8
0
 10
563.0
 20
526.0
 30
0.0
 11
563.0
 21
525.0
 31
0.0
  0
LINE
  8
0
 10
563.0
 20
525.0
 30
0.0
 11
475.0
 21
525.0
 31
0.0
  0
LINE
  8
0
 10
475.0
 20
525.0
 30
0.0
 11
475.0
 21
526.0
 31
0.0
  0
LINE
  8
0
 10
584.0
 20
526.0
 30
0.0
 11
596.0
 21
526.0
 31
0.0
  0
LINE
  8
0
 10
596.0
 20
526.0
 30
0.0
 11
596.0
 21
525.0
 31
0.0
  0
LINE
  8
0
 10
596.0
 20
525.0
 30
0.0
 11
584.0
 21
525.0
 31
0.0
  0
LINE
  8
0
 10
584.0
 20
525.0
 30
0.0
 11
584.0
 21
526.0
 31
0.0
  0
LINE
  8
0
 10
597.0
 20
526.0
 30
0.0
 11
604.0
 21
526.0
 31
0.0
  0
LINE
  8
0
 10
604.0
 20
526.0
 30
0.0
 11
604.0
 21
525.0
 31
0.0
  0
LINE
  8
0
 10
604.0
 20
525.0
 30
0.0
 11
597.0
 21
525.0
 31
0.0
  0
LINE
  8
0
 10
597.0
 20
525.0
 30
0.0
 11
597.0
 21
526.0
 31
0.0
  0
LINE
  8
0
 10
419.0
 20
525.0
 30
0.0
 11
449.0
 21
525.0
 31
0.0
  0
LINE
  8
0
 10
449.0
 20
525.0
 30
0.0
 11
449.0
 21
524.0
 31
0.0
  0
LINE
  8
0
 10
449.0
 20
524.0
 30
0.0
 11
419.0
 21
524.0
 31
0.0
  0
LINE
  8
0
 10
419.0
 20
524.0
 30
0.0
 11
419.0
 21
525.0
 31
0.0
  0
LINE
  8
0
 10
471.0
 20
525.0
 30
0.0
 11
564.0
 21
525.0
 31
0.0
  0
LINE
  8
0
 10
564.0
 20
525.0
 30
0.0
 11
564.0
 21
524.0
 31
0.0
  0
LINE
  8
0
 10
564.0
 20
524.0
 30
0.0
 11
471.0
 21
524.0
 31
0.0
  0
LINE
  8
0
 10
471.0
 20
524.0
 30
0.0
 11
471.0
 21
525.0
 31
0.0
  0
LINE
  8
0
 10
580.0
 20
525.0
 30
0.0
 11
604.0
 21
525.0
 31
0.0
  0
LINE
  8
0
 10
604.0
 20
525.0
 30
0.0
 11
604.0
 21
524.0
 31
0.0
  0
LINE
  8
0
 10
604.0
 20
524.0
 30
0.0
 11
580.0
 21
524.0
 31
0.0
  0
LINE
  8
0
 10
580.0
 20
524.0
 30
0.0
 11
580.0
 21
525.0
 31
0.0
  0
LINE
  8
0
 10
419.0
 20
524.0
 30
0.0
 11
452.0
 21
524.0
 31
0.0
  0
LINE
  8
0
 10
452.0
 20
524.0
 30
0.0
 11
452.0
 21
523.0
 31
0.0
  0
LINE
  8
0
 10
452.0
 20
523.0
 30
0.0
 11
419.0
 21
523.0
 31
0.0
  0
LINE
  8
0
 10
419.0
 20
523.0
 30
0.0
 11
419.0
 21
524.0
 31
0.0
  0
LINE
  8
0
 10
469.0
 20
524.0
 30
0.0
 11
564.0
 21
524.0
 31
0.0
  0
LINE
  8
0
 10
564.0
 20
524.0
 30
0.0
 11
564.0
 21
523.0
 31
0.0
  0
LINE
  8
0
 10
564.0
 20
523.0
 30
0.0
 11
469.0
 21
523.0
 31
0.0
  0
LINE
  8
0
 10
469.0
 20
523.0
 30
0.0
 11
469.0
 21
524.0
 31
0.0
  0
LINE
  8
0
 10
576.0
 20
524.0
 30
0.0
 11
604.0
 21
524.0
 31
0.0
  0
LINE
  8
0
 10
604.0
 20
524.0
 30
0.0
 11
604.0
 21
523.0
 31
0.0
  0
LINE
  8
0
 10
604.0
 20
523.0
 30
0.0
 11
576.0
 21
523.0
 31
0.0
  0
LINE
  8
0
 10
576.0
 20
523.0
 30
0.0
 11
576.0
 21
524.0
 31
0.0
  0
LINE
  8
0
 10
419.0
 20
523.0
 30
0.0
 11
456.0
 21
523.0
 31
0.0
  0
LINE
  8
0
 10
456.0
 20
523.0
 30
0.0
 11
456.0
 21
522.0
 31
0.0
  0
LINE
  8
0
 10
456.0
 20
522.0
 30
0.0
 11
419.0
 21
522.0
 31
0.0
  0
LINE
  8
0
 10
419.0
 20
522.0
 30
0.0
 11
419.0
 21
523.0
 31
0.0
  0
LINE
  8
0
 10
469.0
 20
523.0
 30
0.0
 11
562.0
 21
523.0
 31
0.0
  0
LINE
  8
0
 10
562.0
 20
523.0
 30
0.0
 11
562.0
 21
522.0
 31
0.0
  0
LINE
  8
0
 10
562.0
 20
522.0
 30
0.0
 11
469.0
 21
522.0
 31
0.0
  0
LINE
  8
0
 10
469.0
 20
522.0
 30
0.0
 11
469.0
 21
523.0
 31
0.0
  0
LINE
  8
0
 10
573.0
 20
523.0
 30
0.0
 11
604.0
 21
523.0
 31
0.0
  0
LINE
  8
0
 10
604.0
 20
523.0
 30
0.0
 11
604.0
 21
522.0
 31
0.0
  0
LINE
  8
0
 10
604.0
 20
522.0
 30
0.0
 11
573.0
 21
522.0
 31
0.0
  0
LINE
  8
0
 10
573.0
 20
522.0
 30
0.0
 11
573.0
 21
523.0
 31
0.0
  0
LINE
  8
0
 10
419.0
 20
522.0
 30
0.0
 11
458.0
 21
522.0
 31
0.0
  0
LINE
  8
0
 10
458.0
 20
522.0
 30
0.0
 11
458.0
 21
521.0
 31
0.0
  0
LINE
  8
0
 10
458.0
 20
521.0
 30
0.0
 11
419.0
 21
521.0
 31
0.0
  0
LINE
  8
0
 10
419.0
 20
521.0
 30
0.0
 11
419.0
 21
522.0
 31
0.0
  0
LINE
  8
0
 10
473.0
 20
522.0
 30
0.0
 11
560.0
 21
522.0
 31
0.0
  0
LINE
  8
0
 10
560.0
 20
522.0
 30
0.0
 11
560.0
 21
521.0
 31
0.0
  0
LINE
  8
0
 10
560.0
 20
521.0
 30
0.0
 11
473.0
 21
521.0
 31
0.0
  0
LINE
  8
0
 10
473.0
 20
521.0
 30
0.0
 11
473.0
 21
522.0
 31
0.0
  0
LINE
  8
0
 10
571.0
 20
522.0
 30
0.0
 11
604.0
 21
522.0
 31
0.0
  0
LINE
  8
0
 10
604.0
 20
522.0
 30
0.0
 11
604.0
 21
521.0
 31
0.0
  0
LINE
  8
0
 10
604.0
 20
521.0
 30
0.0
 11
571.0
 21
521.0
 31
0.0
  0
LINE
  8
0
 10
571.0
 20
521.0
 30
0.0
 11
571.0
 21
522.0
 31
0.0
  0
LINE
  8
0
 10
419.0
 20
521.0
 30
0.0
 11
460.0
 21
521.0
 31
0.0
  0
LINE
  8
0
 10
460.0
 20
521.0
 30
0.0
 11
460.0
 21
520.0
 31
0.0
  0
LINE
  8
0
 10
460.0
 20
520.0
 30
0.0
 11
419.0
 21
520.0
 31
0.0
  0
LINE
  8
0
 10
419.0
 20
520.0
 30
0.0
 11
419.0
 21
521.0
 31
0.0
  0
LINE
  8
0
 10
477.0
 20
521.0
 30
0.0
 11
557.0
 21
521.0
 31
0.0
  0
LINE
  8
0
 10
557.0
 20
521.0
 30
0.0
 11
557.0
 21
520.0
 31
0.0
  0
LINE
  8
0
 10
557.0
 20
520.0
 30
0.0
 11
477.0
 21
520.0
 31
0.0
  0
LINE
  8
0
 10
477.0
 20
520.0
 30
0.0
 11
477.0
 21
521.0
 31
0.0
  0
LINE
  8
0
 10
569.0
 20
521.0
 30
0.0
 11
604.0
 21
521.0
 31
0.0
  0
LINE
  8
0
 10
604.0
 20
521.0
 30
0.0
 11
604.0
 21
520.0
 31
0.0
  0
LINE
  8
0
 10
604.0
 20
520.0
 30
0.0
 11
569.0
 21
520.0
 31
0.0
  0
LINE
  8
0
 10
569.0
 20
520.0
 30
0.0
 11
569.0
 21
521.0
 31
0.0
  0
LINE
  8
0
 10
419.0
 20
520.0
 30
0.0
 11
462.0
 21
520.0
 31
0.0
  0
LINE
  8
0
 10
462.0
 20
520.0
 30
0.0
 11
462.0
 21
519.0
 31
0.0
  0
LINE
  8
0
 10
462.0
 20
519.0
 30
0.0
 11
419.0
 21
519.0
 31
0.0
  0
LINE
  8
0
 10
419.0
 20
519.0
 30
0.0
 11
419.0
 21
520.0
 31
0.0
  0
LINE
  8
0
 10
481.0
 20
520.0
 30
0.0
 11
554.0
 21
520.0
 31
0.0
  0
LINE
  8
0
 10
554.0
 20
520.0
 30
0.0
 11
554.0
 21
519.0
 31
0.0
  0
LINE
  8
0
 10
554.0
 20
519.0
 30
0.0
 11
481.0
 21
519.0
 31
0.0
  0
LINE
  8
0
 10
481.0
 20
519.0
 30
0.0
 11
481.0
 21
520.0
 31
0.0
  0
LINE
  8
0
 10
567.0
 20
520.0
 30
0.0
 11
604.0
 21
520.0
 31
0.0
  0
LINE
  8
0
 10
604.0
 20
520.0
 30
0.0
 11
604.0
 21
519.0
 31
0.0
  0
LINE
  8
0
 10
604.0
 20
519.0
 30
0.0
 11
567.0
 21
519.0
 31
0.0
  0
LINE
  8
0
 10
567.0
 20
519.0
 30
0.0
 11
567.0
 21
520.0
 31
0.0
  0
LINE
  8
0
 10
419.0
 20
519.0
 30
0.0
 11
462.0
 21
519.0
 31
0.0
  0
LINE
  8
0
 10
462.0
 20
519.0
 30
0.0
 11
462.0
 21
518.0
 31
0.0
  0
LINE
  8
0
 10
462.0
 20
518.0
 30
0.0
 11
419.0
 21
518.0
 31
0.0
  0
LINE
  8
0
 10
419.0
 20
518.0
 30
0.0
 11
419.0
 21
519.0
 31
0.0
  0
LINE
  8
0
 10
487.0
 20
519.0
 30
0.0
 11
550.0
 21
519.0
 31
0.0
  0
LINE
  8
0
 10
550.0
 20
519.0
 30
0.0
 11
550.0
 21
518.0
 31
0.0
  0
LINE
  8
0
 10
550.0
 20
518.0
 30
0.0
 11
487.0
 21
518.0
 31
0.0
  0
LINE
  8
0
 10
487.0
 20
518.0
 30
0.0
 11
487.0
 21
519.0
 31
0.0
  0
LINE
  8
0
 10
566.0
 20
519.0
 30
0.0
 11
604.0
 21
519.0
 31
0.0
  0
LINE
  8
0
 10
604.0
 20
519.0
 30
0.0
 11
604.0
 21
518.0
 31
0.0
  0
LINE
  8
0
 10
604.0
 20
518.0
 30
0.0
 11
566.0
 21
518.0
 31
0.0
  0
LINE
  8
0
 10
566.0
 20
518.0
 30
0.0
 11
566.0
 21
519.0
 31
0.0
  0
LINE
  8
0
 10
419.0
 20
518.0
 30
0.0
 11
463.0
 21
518.0
 31
0.0
  0
LINE
  8
0
 10
463.0
 20
518.0
 30
0.0
 11
463.0
 21
517.0
 31
0.0
  0
LINE
  8
0
 10
463.0
 20
517.0
 30
0.0
 11
419.0
 21
517.0
 31
0.0
  0
LINE
  8
0
 10
419.0
 20
517.0
 30
0.0
 11
419.0
 21
518.0
 31
0.0
  0
LINE
  8
0
 10
493.0
 20
518.0
 30
0.0
 11
545.0
 21
518.0
 31
0.0
  0
LINE
  8
0
 10
545.0
 20
518.0
 30
0.0
 11
545.0
 21
517.0
 31
0.0
  0
LINE
  8
0
 10
545.0
 20
517.0
 30
0.0
 11
493.0
 21
517.0
 31
0.0
  0
LINE
  8
0
 10
493.0
 20
517.0
 30
0.0
 11
493.0
 21
518.0
 31
0.0
  0
LINE
  8
0
 10
565.0
 20
518.0
 30
0.0
 11
604.0
 21
518.0
 31
0.0
  0
LINE
  8
0
 10
604.0
 20
518.0
 30
0.0
 11
604.0
 21
517.0
 31
0.0
  0
LINE
  8
0
 10
604.0
 20
517.0
 30
0.0
 11
565.0
 21
517.0
 31
0.0
  0
LINE
  8
0
 10
565.0
 20
517.0
 30
0.0
 11
565.0
 21
518.0
 31
0.0
  0
LINE
  8
0
 10
419.0
 20
517.0
 30
0.0
 11
462.0
 21
517.0
 31
0.0
  0
LINE
  8
0
 10
462.0
 20
517.0
 30
0.0
 11
462.0
 21
516.0
 31
0.0
  0
LINE
  8
0
 10
462.0
 20
516.0
 30
0.0
 11
419.0
 21
516.0
 31
0.0
  0
LINE
  8
0
 10
419.0
 20
516.0
 30
0.0
 11
419.0
 21
517.0
 31
0.0
  0
LINE
  8
0
 10
496.0
 20
517.0
 30
0.0
 11
497.0
 21
517.0
 31
0.0
  0
LINE
  8
0
 10
497.0
 20
517.0
 30
0.0
 11
497.0
 21
516.0
 31
0.0
  0
LINE
  8
0
 10
497.0
 20
516.0
 30
0.0
 11
496.0
 21
516.0
 31
0.0
  0
LINE
  8
0
 10
496.0
 20
516.0
 30
0.0
 11
496.0
 21
517.0
 31
0.0
  0
LINE
  8
0
 10
498.0
 20
517.0
 30
0.0
 11
539.0
 21
517.0
 31
0.0
  0
LINE
  8
0
 10
539.0
 20
517.0
 30
0.0
 11
539.0
 21
516.0
 31
0.0
  0
LINE
  8
0
 10
539.0
 20
516.0
 30
0.0
 11
498.0
 21
516.0
 31
0.0
  0
LINE
  8
0
 10
498.0
 20
516.0
 30
0.0
 11
498.0
 21
517.0
 31
0.0
  0
LINE
  8
0
 10
564.0
 20
517.0
 30
0.0
 11
604.0
 21
517.0
 31
0.0
  0
LINE
  8
0
 10
604.0
 20
517.0
 30
0.0
 11
604.0
 21
516.0
 31
0.0
  0
LINE
  8
0
 10
604.0
 20
516.0
 30
0.0
 11
564.0
 21
516.0
 31
0.0
  0
LINE
  8
0
 10
564.0
 20
516.0
 30
0.0
 11
564.0
 21
517.0
 31
0.0
  0
LINE
  8
0
 10
419.0
 20
516.0
 30
0.0
 11
461.0
 21
516.0
 31
0.0
  0
LINE
  8
0
 10
461.0
 20
516.0
 30
0.0
 11
461.0
 21
515.0
 31
0.0
  0
LINE
  8
0
 10
461.0
 20
515.0
 30
0.0
 11
419.0
 21
515.0
 31
0.0
  0
LINE
  8
0
 10
419.0
 20
515.0
 30
0.0
 11
419.0
 21
516.0
 31
0.0
  0
LINE
  8
0
 10
496.0
 20
516.0
 30
0.0
 11
533.0
 21
516.0
 31
0.0
  0
LINE
  8
0
 10
533.0
 20
516.0
 30
0.0
 11
533.0
 21
515.0
 31
0.0
  0
LINE
  8
0
 10
533.0
 20
515.0
 30
0.0
 11
496.0
 21
515.0
 31
0.0
  0
LINE
  8
0
 10
496.0
 20
515.0
 30
0.0
 11
496.0
 21
516.0
 31
0.0
  0
LINE
  8
0
 10
565.0
 20
516.0
 30
0.0
 11
604.0
 21
516.0
 31
0.0
  0
LINE
  8
0
 10
604.0
 20
516.0
 30
0.0
 11
604.0
 21
515.0
 31
0.0
  0
LINE
  8
0
 10
604.0
 20
515.0
 30
0.0
 11
565.0
 21
515.0
 31
0.0
  0
LINE
  8
0
 10
565.0
 20
515.0
 30
0.0
 11
565.0
 21
516.0
 31
0.0
  0
LINE
  8
0
 10
419.0
 20
515.0
 30
0.0
 11
460.0
 21
515.0
 31
0.0
  0
LINE
  8
0
 10
460.0
 20
515.0
 30
0.0
 11
460.0
 21
514.0
 31
0.0
  0
LINE
  8
0
 10
460.0
 20
514.0
 30
0.0
 11
419.0
 21
514.0
 31
0.0
  0
LINE
  8
0
 10
419.0
 20
514.0
 30
0.0
 11
419.0
 21
515.0
 31
0.0
  0
LINE
  8
0
 10
490.0
 20
515.0
 30
0.0
 11
533.0
 21
515.0
 31
0.0
  0
LINE
  8
0
 10
533.0
 20
515.0
 30
0.0
 11
533.0
 21
514.0
 31
0.0
  0
LINE
  8
0
 10
533.0
 20
514.0
 30
0.0
 11
490.0
 21
514.0
 31
0.0
  0
LINE
  8
0
 10
490.0
 20
514.0
 30
0.0
 11
490.0
 21
515.0
 31
0.0
  0
LINE
  8
0
 10
566.0
 20
515.0
 30
0.0
 11
604.0
 21
515.0
 31
0.0
  0
LINE
  8
0
 10
604.0
 20
515.0
 30
0.0
 11
604.0
 21
514.0
 31
0.0
  0
LINE
  8
0
 10
604.0
 20
514.0
 30
0.0
 11
566.0
 21
514.0
 31
0.0
  0
LINE
  8
0
 10
566.0
 20
514.0
 30
0.0
 11
566.0
 21
515.0
 31
0.0
  0
LINE
  8
0
 10
419.0
 20
514.0
 30
0.0
 11
457.0
 21
514.0
 31
0.0
  0
LINE
  8
0
 10
457.0
 20
514.0
 30
0.0
 11
457.0
 21
513.0
 31
0.0
  0
LINE
  8
0
 10
457.0
 20
513.0
 30
0.0
 11
419.0
 21
513.0
 31
0.0
  0
LINE
  8
0
 10
419.0
 20
513.0
 30
0.0
 11
419.0
 21
514.0
 31
0.0
  0
LINE
  8
0
 10
485.0
 20
514.0
 30
0.0
 11
537.0
 21
514.0
 31
0.0
  0
LINE
  8
0
 10
537.0
 20
514.0
 30
0.0
 11
537.0
 21
513.0
 31
0.0
  0
LINE
  8
0
 10
537.0
 20
513.0
 30
0.0
 11
485.0
 21
513.0
 31
0.0
  0
LINE
  8
0
 10
485.0
 20
513.0
 30
0.0
 11
485.0
 21
514.0
 31
0.0
  0
LINE
  8
0
 10
567.0
 20
514.0
 30
0.0
 11
604.0
 21
514.0
 31
0.0
  0
LINE
  8
0
 10
604.0
 20
514.0
 30
0.0
 11
604.0
 21
513.0
 31
0.0
  0
LINE
  8
0
 10
604.0
 20
513.0
 30
0.0
 11
567.0
 21
513.0
 31
0.0
  0
LINE
  8
0
 10
567.0
 20
513.0
 30
0.0
 11
567.0
 21
514.0
 31
0.0
  0
LINE
  8
0
 10
419.0
 20
513.0
 30
0.0
 11
453.0
 21
513.0
 31
0.0
  0
LINE
  8
0
 10
453.0
 20
513.0
 30
0.0
 11
453.0
 21
512.0
 31
0.0
  0
LINE
  8
0
 10
453.0
 20
512.0
 30
0.0
 11
419.0
 21
512.0
 31
0.0
  0
LINE
  8
0
 10
419.0
 20
512.0
 30
0.0
 11
419.0
 21
513.0
 31
0.0
  0
LINE
  8
0
 10
480.0
 20
513.0
 30
0.0
 11
541.0
 21
513.0
 31
0.0
  0
LINE
  8
0
 10
541.0
 20
513.0
 30
0.0
 11
541.0
 21
512.0
 31
0.0
  0
LINE
  8
0
 10
541.0
 20
512.0
 30
0.0
 11
480.0
 21
512.0
 31
0.0
  0
LINE
  8
0
 10
480.0
 20
512.0
 30
0.0
 11
480.0
 21
513.0
 31
0.0
  0
LINE
  8
0
 10
570.0
 20
513.0
 30
0.0
 11
604.0
 21
513.0
 31
0.0
  0
LINE
  8
0
 10
604.0
 20
513.0
 30
0.0
 11
604.0
 21
512.0
 31
0.0
  0
LINE
  8
0
 10
604.0
 20
512.0
 30
0.0
 11
570.0
 21
512.0
 31
0.0
  0
LINE
  8
0
 10
570.0
 20
512.0
 30
0.0
 11
570.0
 21
513.0
 31
0.0
  0
LINE
  8
0
 10
421.0
 20
512.0
 30
0.0
 11
444.0
 21
512.0
 31
0.0
  0
LINE
  8
0
 10
444.0
 20
512.0
 30
0.0
 11
444.0
 21
511.0
 31
0.0
  0
LINE
  8
0
 10
444.0
 20
511.0
 30
0.0
 11
421.0
 21
511.0
 31
0.0
  0
LINE
  8
0
 10
421.0
 20
511.0
 30
0.0
 11
421.0
 21
512.0
 31
0.0
  0
LINE
  8
0
 10
474.0
 20
512.0
 30
0.0
 11
544.0
 21
512.0
 31
0.0
  0
LINE
  8
0
 10
544.0
 20
512.0
 30
0.0
 11
544.0
 21
511.0
 31
0.0
  0
LINE
  8
0
 10
544.0
 20
511.0
 30
0.0
 11
474.0
 21
511.0
 31
0.0
  0
LINE
  8
0
 10
474.0
 20
511.0
 30
0.0
 11
474.0
 21
512.0
 31
0.0
  0
LINE
  8
0
 10
573.0
 20
512.0
 30
0.0
 11
604.0
 21
512.0
 31
0.0
  0
LINE
  8
0
 10
604.0
 20
512.0
 30
0.0
 11
604.0
 21
511.0
 31
0.0
  0
LINE
  8
0
 10
604.0
 20
511.0
 30
0.0
 11
573.0
 21
511.0
 31
0.0
  0
LINE
  8
0
 10
573.0
 20
511.0
 30
0.0
 11
573.0
 21
512.0
 31
0.0
  0
LINE
  8
0
 10
468.0
 20
511.0
 30
0.0
 11
550.0
 21
511.0
 31
0.0
  0
LINE
  8
0
 10
550.0
 20
511.0
 30
0.0
 11
550.0
 21
510.0
 31
0.0
  0
LINE
  8
0
 10
550.0
 20
510.0
 30
0.0
 11
468.0
 21
510.0
 31
0.0
  0
LINE
  8
0
 10
468.0
 20
510.0
 30
0.0
 11
468.0
 21
511.0
 31
0.0
  0
LINE
  8
0
 10
578.0
 20
511.0
 30
0.0
 11
604.0
 21
511.0
 31
0.0
  0
LINE
  8
0
 10
604.0
 20
511.0
 30
0.0
 11
604.0
 21
510.0
 31
0.0
  0
LINE
  8
0
 10
604.0
 20
510.0
 30
0.0
 11
578.0
 21
510.0
 31
0.0
  0
LINE
  8
0
 10
578.0
 20
510.0
 30
0.0
 11
578.0
 21
511.0
 31
0.0
  0
LINE
  8
0
 10
464.0
 20
510.0
 30
0.0
 11
556.0
 21
510.0
 31
0.0
  0
LINE
  8
0
 10
556.0
 20
510.0
 30
0.0
 11
556.0
 21
509.0
 31
0.0
  0
LINE
  8
0
 10
556.0
 20
509.0
 30
0.0
 11
464.0
 21
509.0
 31
0.0
  0
LINE
  8
0
 10
464.0
 20
509.0
 30
0.0
 11
464.0
 21
510.0
 31
0.0
  0
LINE
  8
0
 10
588.0
 20
510.0
 30
0.0
 11
604.0
 21
510.0
 31
0.0
  0
LINE
  8
0
 10
604.0
 20
510.0
 30
0.0
 11
604.0
 21
509.0
 31
0.0
  0
LINE
  8
0
 10
604.0
 20
509.0
 30
0.0
 11
588.0
 21
509.0
 31
0.0
  0
LINE
  8
0
 10
588.0
 20
509.0
 30
0.0
 11
588.0
 21
510.0
 31
0.0
  0
LINE
  8
0
 10
459.0
 20
509.0
 30
0.0
 11
563.0
 21
509.0
 31
0.0
  0
LINE
  8
0
 10
563.0
 20
509.0
 30
0.0
 11
563.0
 21
508.0
 31
0.0
  0
LINE
  8
0
 10
563.0
 20
508.0
 30
0.0
 11
459.0
 21
508.0
 31
0.0
  0
LINE
  8
0
 10
459.0
 20
508.0
 30
0.0
 11
459.0
 21
509.0
 31
0.0
  0
LINE
  8
0
 10
454.0
 20
508.0
 30
0.0
 11
567.0
 21
508.0
 31
0.0
  0
LINE
  8
0
 10
567.0
 20
508.0
 30
0.0
 11
567.0
 21
507.0
 31
0.0
  0
LINE
  8
0
 10
567.0
 20
507.0
 30
0.0
 11
454.0
 21
507.0
 31
0.0
  0
LINE
  8
0
 10
454.0
 20
507.0
 30
0.0
 11
454.0
 21
508.0
 31
0.0
  0
LINE
  8
0
 10
451.0
 20
507.0
 30
0.0
 11
571.0
 21
507.0
 31
0.0
  0
LINE
  8
0
 10
571.0
 20
507.0
 30
0.0
 11
571.0
 21
506.0
 31
0.0
  0
LINE
  8
0
 10
571.0
 20
506.0
 30
0.0
 11
451.0
 21
506.0
 31
0.0
  0
LINE
  8
0
 10
451.0
 20
506.0
 30
0.0
 11
451.0
 21
507.0
 31
0.0
  0
LINE
  8
0
 10
447.0
 20
506.0
 30
0.0
 11
575.0
 21
506.0
 31
0.0
  0
LINE
  8
0
 10
575.0
 20
506.0
 30
0.0
 11
575.0
 21
505.0
 31
0.0
  0
LINE
  8
0
 10
575.0
 20
505.0
 30
0.0
 11
447.0
 21
505.0
 31
0.0
  0
LINE
  8
0
 10
447.0
 20
505.0
 30
0.0
 11
447.0
 21
506.0
 31
0.0
  0
LINE
  8
0
 10
442.0
 20
505.0
 30
0.0
 11
579.0
 21
505.0
 31
0.0
  0
LINE
  8
0
 10
579.0
 20
505.0
 30
0.0
 11
579.0
 21
504.0
 31
0.0
  0
LINE
  8
0
 10
579.0
 20
504.0
 30
0.0
 11
442.0
 21
504.0
 31
0.0
  0
LINE
  8
0
 10
442.0
 20
504.0
 30
0.0
 11
442.0
 21
505.0
 31
0.0
  0
LINE
  8
0
 10
439.0
 20
504.0
 30
0.0
 11
582.0
 21
504.0
 31
0.0
  0
LINE
  8
0
 10
582.0
 20
504.0
 30
0.0
 11
582.0
 21
503.0
 31
0.0
  0
LINE
  8
0
 10
582.0
 20
503.0
 30
0.0
 11
439.0
 21
503.0
 31
0.0
  0
LINE
  8
0
 10
439.0
 20
503.0
 30
0.0
 11
439.0
 21
504.0
 31
0.0
  0
LINE
  8
0
 10
439.0
 20
503.0
 30
0.0
 11
584.0
 21
503.0
 31
0.0
  0
LINE
  8
0
 10
584.0
 20
503.0
 30
0.0
 11
584.0
 21
502.0
 31
0.0
  0
LINE
  8
0
 10
584.0
 20
502.0
 30
0.0
 11
439.0
 21
502.0
 31
0.0
  0
LINE
  8
0
 10
439.0
 20
502.0
 30
0.0
 11
439.0
 21
503.0
 31
0.0
  0
LINE
  8
0
 10
444.0
 20
502.0
 30
0.0
 11
583.0
 21
502.0
 31
0.0
  0
LINE
  8
0
 10
583.0
 20
502.0
 30
0.0
 11
583.0
 21
501.0
 31
0.0
  0
LINE
  8
0
 10
583.0
 20
501.0
 30
0.0
 11
444.0
 21
501.0
 31
0.0
  0
LINE
  8
0
 10
444.0
 20
501.0
 30
0.0
 11
444.0
 21
502.0
 31
0.0
  0
LINE
  8
0
 10
448.0
 20
501.0
 30
0.0
 11
579.0
 21
501.0
 31
0.0
  0
LINE
  8
0
 10
579.0
 20
501.0
 30
0.0
 11
579.0
 21
500.0
 31
0.0
  0
LINE
  8
0
 10
579.0
 20
500.0
 30
0.0
 11
448.0
 21
500.0
 31
0.0
  0
LINE
  8
0
 10
448.0
 20
500.0
 30
0.0
 11
448.0
 21
501.0
 31
0.0
  0
LINE
  8
0
 10
454.0
 20
500.0
 30
0.0
 11
573.0
 21
500.0
 31
0.0
  0
LINE
  8
0
 10
573.0
 20
500.0
 30
0.0
 11
573.0
 21
499.0
 31
0.0
  0
LINE
  8
0
 10
573.0
 20
499.0
 30
0.0
 11
454.0
 21
499.0
 31
0.0
  0
LINE
  8
0
 10
454.0
 20
499.0
 30
0.0
 11
454.0
 21
500.0
 31
0.0
  0
LINE
  8
0
 10
461.0
 20
499.0
 30
0.0
 11
568.0
 21
499.0
 31
0.0
  0
LINE
  8
0
 10
568.0
 20
499.0
 30
0.0
 11
568.0
 21
498.0
 31
0.0
  0
LINE
  8
0
 10
568.0
 20
498.0
 30
0.0
 11
461.0
 21
498.0
 31
0.0
  0
LINE
  8
0
 10
461.0
 20
498.0
 30
0.0
 11
461.0
 21
499.0
 31
0.0
  0
LINE
  8
0
 10
469.0
 20
498.0
 30
0.0
 11
559.0
 21
498.0
 31
0.0
  0
LINE
  8
0
 10
559.0
 20
498.0
 30
0.0
 11
559.0
 21
497.0
 31
0.0
  0
LINE
  8
0
 10
559.0
 20
497.0
 30
0.0
 11
469.0
 21
497.0
 31
0.0
  0
LINE
  8
0
 10
469.0
 20
497.0
 30
0.0
 11
469.0
 21
498.0
 31
0.0
  0
LINE
  8
0
 10
476.0
 20
497.0
 30
0.0
 11
477.0
 21
497.0
 31
0.0
  0
LINE
  8
0
 10
477.0
 20
497.0
 30
0.0
 11
477.0
 21
496.0
 31
0.0
  0
LINE
  8
0
 10
477.0
 20
496.0
 30
0.0
 11
476.0
 21
496.0
 31
0.0
  0
LINE
  8
0
 10
476.0
 20
496.0
 30
0.0
 11
476.0
 21
497.0
 31
0.0
  0
LINE
  8
0
 10
478.0
 20
497.0
 30
0.0
 11
550.0
 21
497.0
 31
0.0
  0
LINE
  8
0
 10
550.0
 20
497.0
 30
0.0
 11
550.0
 21
496.0
 31
0.0
  0
LINE
  8
0
 10
550.0
 20
496.0
 30
0.0
 11
478.0
 21
496.0
 31
0.0
  0
LINE
  8
0
 10
478.0
 20
496.0
 30
0.0
 11
478.0
 21
497.0
 31
0.0
  0
LINE
  8
0
 10
495.0
 20
496.0
 30
0.0
 11
535.0
 21
496.0
 31
0.0
  0
LINE
  8
0
 10
535.0
 20
496.0
 30
0.0
 11
535.0
 21
495.0
 31
0.0
  0
LINE
  8
0
 10
535.0
 20
495.0
 30
0.0
 11
495.0
 21
495.0
 31
0.0
  0
LINE
  8
0
 10
495.0
 20
495.0
 30
0.0
 11
495.0
 21
496.0
 31
0.0
  0
ENDSEC
  0
EOF