  0
SECTION
  2
HEADER
  9
$ACADVER
  1
AC1009
  0
ENDSEC
  0
SECTION
  2
ENTITIES
  0
LINE
  8
0
 10
331.0
 20
591.0
 30
0.0
 11
335.0
 21
591.0
 31
0.0
  0
LINE
  8
0
 10
335.0
 20
591.0
 30
0.0
 11
335.0
 21
590.0
 31
0.0
  0
LINE
  8
0
 10
335.0
 20
590.0
 30
0.0
 11
331.0
 21
590.0
 31
0.0
  0
LINE
  8
0
 10
331.0
 20
590.0
 30
0.0
 11
331.0
 21
591.0
 31
0.0
  0
LINE
  8
0
 10
329.0
 20
590.0
 30
0.0
 11
337.0
 21
590.0
 31
0.0
  0
LINE
  8
0
 10
337.0
 20
590.0
 30
0.0
 11
337.0
 21
589.0
 31
0.0
  0
LINE
  8
0
 10
337.0
 20
589.0
 30
0.0
 11
329.0
 21
589.0
 31
0.0
  0
LINE
  8
0
 10
329.0
 20
589.0
 30
0.0
 11
329.0
 21
590.0
 31
0.0
  0
LINE
  8
0
 10
327.0
 20
589.0
 30
0.0
 11
339.0
 21
589.0
 31
0.0
  0
LINE
  8
0
 10
339.0
 20
589.0
 30
0.0
 11
339.0
 21
588.0
 31
0.0
  0
LINE
  8
0
 10
339.0
 20
588.0
 30
0.0
 11
327.0
 21
588.0
 31
0.0
  0
LINE
  8
0
 10
327.0
 20
588.0
 30
0.0
 11
327.0
 21
589.0
 31
0.0
  0
LINE
  8
0
 10
325.0
 20
588.0
 30
0.0
 11
341.0
 21
588.0
 31
0.0
  0
LINE
  8
0
 10
341.0
 20
588.0
 30
0.0
 11
341.0
 21
587.0
 31
0.0
  0
LINE
  8
0
 10
341.0
 20
587.0
 30
0.0
 11
325.0
 21
587.0
 31
0.0
  0
LINE
  8
0
 10
325.0
 20
587.0
 30
0.0
 11
325.0
 21
588.0
 31
0.0
  0
LINE
  8
0
 10
323.0
 20
587.0
 30
0.0
 11
343.0
 21
587.0
 31
0.0
  0
LINE
  8
0
 10
343.0
 20
587.0
 30
0.0
 11
343.0
 21
586.0
 31
0.0
  0
LINE
  8
0
 10
343.0
 20
586.0
 30
0.0
 11
323.0
 21
586.0
 31
0.0
  0
LINE
  8
0
 10
323.0
 20
586.0
 30
0.0
 11
323.0
 21
587.0
 31
0.0
  0
LINE
  8
0
 10
321.0
 20
586.0
 30
0.0
 11
344.0
 21
586.0
 31
0.0
  0
LINE
  8
0
 10
344.0
 20
586.0
 30
0.0
 11
344.0
 21
585.0
 31
0.0
  0
LINE
  8
0
 10
344.0
 20
585.0
 30
0.0
 11
321.0
 21
585.0
 31
0.0
  0
LINE
  8
0
 10
321.0
 20
585.0
 30
0.0
 11
321.0
 21
586.0
 31
0.0
  0
LINE
  8
0
 10
317.0
 20
585.0
 30
0.0
 11
346.0
 21
585.0
 31
0.0
  0
LINE
  8
0
 10
346.0
 20
585.0
 30
0.0
 11
346.0
 21
584.0
 31
0.0
  0
LINE
  8
0
 10
346.0
 20
584.0
 30
0.0
 11
317.0
 21
584.0
 31
0.0
  0
LINE
  8
0
 10
317.0
 20
584.0
 30
0.0
 11
317.0
 21
585.0
 31
0.0
  0
LINE
  8
0
 10
317.0
 20
584.0
 30
0.0
 11
347.0
 21
584.0
 31
0.0
  0
LINE
  8
0
 10
347.0
 20
584.0
 30
0.0
 11
347.0
 21
583.0
 31
0.0
  0
LINE
  8
0
 10
347.0
 20
583.0
 30
0.0
 11
317.0
 21
583.0
 31
0.0
  0
LINE
  8
0
 10
317.0
 20
583.0
 30
0.0
 11
317.0
 21
584.0
 31
0.0
  0
LINE
  8
0
 10
317.0
 20
583.0
 30
0.0
 11
356.0
 21
583.0
 31
0.0
  0
LINE
  8
0
 10
356.0
 20
583.0
 30
0.0
 11
356.0
 21
582.0
 31
0.0
  0
LINE
  8
0
 10
356.0
 20
582.0
 30
0.0
 11
317.0
 21
582.0
 31
0.0
  0
LINE
  8
0
 10
317.0
 20
582.0
 30
0.0
 11
317.0
 21
583.0
 31
0.0
  0
LINE
  8
0
 10
317.0
 20
582.0
 30
0.0
 11
357.0
 21
582.0
 31
0.0
  0
LINE
  8
0
 10
357.0
 20
582.0
 30
0.0
 11
357.0
 21
581.0
 31
0.0
  0
LINE
  8
0
 10
357.0
 20
581.0
 30
0.0
 11
317.0
 21
581.0
 31
0.0
  0
LINE
  8
0
 10
317.0
 20
581.0
 30
0.0
 11
317.0
 21
582.0
 31
0.0
  0
LINE
  8
0
 10
319.0
 20
581.0
 30
0.0
 11
357.0
 21
581.0
 31
0.0
  0
LINE
  8
0
 10
357.0
 20
581.0
 30
0.0
 11
357.0
 21
580.0
 31
0.0
  0
LINE
  8
0
 10
357.0
 20
580.0
 30
0.0
 11
319.0
 21
580.0
 31
0.0
  0
LINE
  8
0
 10
319.0
 20
580.0
 30
0.0
 11
319.0
 21
581.0
 31
0.0
  0
LINE
  8
0
 10
317.0
 20
580.0
 30
0.0
 11
358.0
 21
580.0
 31
0.0
  0
LINE
  8
0
 10
358.0
 20
580.0
 30
0.0
 11
358.0
 21
579.0
 31
0.0
  0
LINE
  8
0
 10
358.0
 20
579.0
 30
0.0
 11
317.0
 21
579.0
 31
0.0
  0
LINE
  8
0
 10
317.0
 20
579.0
 30
0.0
 11
317.0
 21
580.0
 31
0.0
  0
LINE
  8
0
 10
317.0
 20
579.0
 30
0.0
 11
358.0
 21
579.0
 31
0.0
  0
LINE
  8
0
 10
358.0
 20
579.0
 30
0.0
 11
358.0
 21
578.0
 31
0.0
  0
LINE
  8
0
 10
358.0
 20
578.0
 30
0.0
 11
317.0
 21
578.0
 31
0.0
  0
LINE
  8
0
 10
317.0
 20
578.0
 30
0.0
 11
317.0
 21
579.0
 31
0.0
  0
LINE
  8
0
 10
316.0
 20
578.0
 30
0.0
 11
358.0
 21
578.0
 31
0.0
  0
LINE
  8
0
 10
358.0
 20
578.0
 30
0.0
 11
358.0
 21
577.0
 31
0.0
  0
LINE
  8
0
 10
358.0
 20
577.0
 30
0.0
 11
316.0
 21
577.0
 31
0.0
  0
LINE
  8
0
 10
316.0
 20
577.0
 30
0.0
 11
316.0
 21
578.0
 31
0.0
  0
LINE
  8
0
 10
316.0
 20
577.0
 30
0.0
 11
358.0
 21
577.0
 31
0.0
  0
LINE
  8
0
 10
358.0
 20
577.0
 30
0.0
 11
358.0
 21
576.0
 31
0.0
  0
LINE
  8
0
 10
358.0
 20
576.0
 30
0.0
 11
316.0
 21
576.0
 31
0.0
  0
LINE
  8
0
 10
316.0
 20
576.0
 30
0.0
 11
316.0
 21
577.0
 31
0.0
  0
LINE
  8
0
 10
317.0
 20
576.0
 30
0.0
 11
358.0
 21
576.0
 31
0.0
  0
LINE
  8
0
 10
358.0
 20
576.0
 30
0.0
 11
358.0
 21
575.0
 31
0.0
  0
LINE
  8
0
 10
358.0
 20
575.0
 30
0.0
 11
317.0
 21
575.0
 31
0.0
  0
LINE
  8
0
 10
317.0
 20
575.0
 30
0.0
 11
317.0
 21
576.0
 31
0.0
  0
LINE
  8
0
 10
317.0
 20
575.0
 30
0.0
 11
359.0
 21
575.0
 31
0.0
  0
LINE
  8
0
 10
359.0
 20
575.0
 30
0.0
 11
359.0
 21
574.0
 31
0.0
  0
LINE
  8
0
 10
359.0
 20
574.0
 30
0.0
 11
317.0
 21
574.0
 31
0.0
  0
LINE
  8
0
 10
317.0
 20
574.0
 30
0.0
 11
317.0
 21
575.0
 31
0.0
  0
LINE
  8
0
 10
318.0
 20
574.0
 30
0.0
 11
360.0
 21
574.0
 31
0.0
  0
LINE
  8
0
 10
360.0
 20
574.0
 30
0.0
 11
360.0
 21
573.0
 31
0.0
  0
LINE
  8
0
 10
360.0
 20
573.0
 30
0.0
 11
318.0
 21
573.0
 31
0.0
  0
LINE
  8
0
 10
318.0
 20
573.0
 30
0.0
 11
318.0
 21
574.0
 31
0.0
  0
LINE
  8
0
 10
319.0
 20
573.0
 30
0.0
 11
361.0
 21
573.0
 31
0.0
  0
LINE
  8
0
 10
361.0
 20
573.0
 30
0.0
 11
361.0
 21
572.0
 31
0.0
  0
LINE
  8
0
 10
361.0
 20
572.0
 30
0.0
 11
319.0
 21
572.0
 31
0.0
  0
LINE
  8
0
 10
319.0
 20
572.0
 30
0.0
 11
319.0
 21
573.0
 31
0.0
  0
LINE
  8
0
 10
320.0
 20
572.0
 30
0.0
 11
363.0
 21
572.0
 31
0.0
  0
LINE
  8
0
 10
363.0
 20
572.0
 30
0.0
 11
363.0
 21
571.0
 31
0.0
  0
LINE
  8
0
 10
363.0
 20
571.0
 30
0.0
 11
320.0
 21
571.0
 31
0.0
  0
LINE
  8
0
 10
320.0
 20
571.0
 30
0.0
 11
320.0
 21
572.0
 31
0.0
  0
LINE
  8
0
 10
320.0
 20
571.0
 30
0.0
 11
364.0
 21
571.0
 31
0.0
  0
LINE
  8
0
 10
364.0
 20
571.0
 30
0.0
 11
364.0
 21
570.0
 31
0.0
  0
LINE
  8
0
 10
364.0
 20
570.0
 30
0.0
 11
320.0
 21
570.0
 31
0.0
  0
LINE
  8
0
 10
320.0
 20
570.0
 30
0.0
 11
320.0
 21
571.0
 31
0.0
  0
LINE
  8
0
 10
320.0
 20
570.0
 30
0.0
 11
365.0
 21
570.0
 31
0.0
  0
LINE
  8
0
 10
365.0
 20
570.0
 30
0.0
 11
365.0
 21
569.0
 31
0.0
  0
LINE
  8
0
 10
365.0
 20
569.0
 30
0.0
 11
320.0
 21
569.0
 31
0.0
  0
LINE
  8
0
 10
320.0
 20
569.0
 30
0.0
 11
320.0
 21
570.0
 31
0.0
  0
LINE
  8
0
 10
321.0
 20
569.0
 30
0.0
 11
366.0
 21
569.0
 31
0.0
  0
LINE
  8
0
 10
366.0
 20
569.0
 30
0.0
 11
366.0
 21
568.0
 31
0.0
  0
LINE
  8
0
 10
366.0
 20
568.0
 30
0.0
 11
321.0
 21
568.0
 31
0.0
  0
LINE
  8
0
 10
321.0
 20
568.0
 30
0.0
 11
321.0
 21
569.0
 31
0.0
  0
LINE
  8
0
 10
321.0
 20
568.0
 30
0.0
 11
367.0
 21
568.0
 31
0.0
  0
LINE
  8
0
 10
367.0
 20
568.0
 30
0.0
 11
367.0
 21
567.0
 31
0.0
  0
LINE
  8
0
 10
367.0
 20
567.0
 30
0.0
 11
321.0
 21
567.0
 31
0.0
  0
LINE
  8
0
 10
321.0
 20
567.0
 30
0.0
 11
321.0
 21
568.0
 31
0.0
  0
LINE
  8
0
 10
322.0
 20
567.0
 30
0.0
 11
368.0
 21
567.0
 31
0.0
  0
LINE
  8
0
 10
368.0
 20
567.0
 30
0.0
 11
368.0
 21
566.0
 31
0.0
  0
LINE
  8
0
 10
368.0
 20
566.0
 30
0.0
 11
322.0
 21
566.0
 31
0.0
  0
LINE
  8
0
 10
322.0
 20
566.0
 30
0.0
 11
322.0
 21
567.0
 31
0.0
  0
LINE
  8
0
 10
322.0
 20
566.0
 30
0.0
 11
369.0
 21
566.0
 31
0.0
  0
LINE
  8
0
 10
369.0
 20
566.0
 30
0.0
 11
369.0
 21
565.0
 31
0.0
  0
LINE
  8
0
 10
369.0
 20
565.0
 30
0.0
 11
322.0
 21
565.0
 31
0.0
  0
LINE
  8
0
 10
322.0
 20
565.0
 30
0.0
 11
322.0
 21
566.0
 31
0.0
  0
LINE
  8
0
 10
322.0
 20
565.0
 30
0.0
 11
370.0
 21
565.0
 31
0.0
  0
LINE
  8
0
 10
370.0
 20
565.0
 30
0.0
 11
370.0
 21
564.0
 31
0.0
  0
LINE
  8
0
 10
370.0
 20
564.0
 30
0.0
 11
322.0
 21
564.0
 31
0.0
  0
LINE
  8
0
 10
322.0
 20
564.0
 30
0.0
 11
322.0
 21
565.0
 31
0.0
  0
LINE
  8
0
 10
323.0
 20
564.0
 30
0.0
 11
371.0
 21
564.0
 31
0.0
  0
LINE
  8
0
 10
371.0
 20
564.0
 30
0.0
 11
371.0
 21
563.0
 31
0.0
  0
LINE
  8
0
 10
371.0
 20
563.0
 30
0.0
 11
323.0
 21
563.0
 31
0.0
  0
LINE
  8
0
 10
323.0
 20
563.0
 30
0.0
 11
323.0
 21
564.0
 31
0.0
  0
LINE
  8
0
 10
323.0
 20
563.0
 30
0.0
 11
372.0
 21
563.0
 31
0.0
  0
LINE
  8
0
 10
372.0
 20
563.0
 30
0.0
 11
372.0
 21
562.0
 31
0.0
  0
LINE
  8
0
 10
372.0
 20
562.0
 30
0.0
 11
323.0
 21
562.0
 31
0.0
  0
LINE
  8
0
 10
323.0
 20
562.0
 30
0.0
 11
323.0
 21
563.0
 31
0.0
  0
LINE
  8
0
 10
323.0
 20
562.0
 30
0.0
 11
374.0
 21
562.0
 31
0.0
  0
LINE
  8
0
 10
374.0
 20
562.0
 30
0.0
 11
374.0
 21
561.0
 31
0.0
  0
LINE
  8
0
 10
374.0
 20
561.0
 30
0.0
 11
323.0
 21
561.0
 31
0.0
  0
LINE
  8
0
 10
323.0
 20
561.0
 30
0.0
 11
323.0
 21
562.0
 31
0.0
  0
LINE
  8
0
 10
324.0
 20
561.0
 30
0.0
 11
375.0
 21
561.0
 31
0.0
  0
LINE
  8
0
 10
375.0
 20
561.0
 30
0.0
 11
375.0
 21
560.0
 31
0.0
  0
LINE
  8
0
 10
375.0
 20
560.0
 30
0.0
 11
324.0
 21
560.0
 31
0.0
  0
LINE
  8
0
 10
324.0
 20
560.0
 30
0.0
 11
324.0
 21
561.0
 31
0.0
  0
LINE
  8
0
 10
324.0
 20
560.0
 30
0.0
 11
376.0
 21
560.0
 31
0.0
  0
LINE
  8
0
 10
376.0
 20
560.0
 30
0.0
 11
376.0
 21
559.0
 31
0.0
  0
LINE
  8
0
 10
376.0
 20
559.0
 30
0.0
 11
324.0
 21
559.0
 31
0.0
  0
LINE
  8
0
 10
324.0
 20
559.0
 30
0.0
 11
324.0
 21
560.0
 31
0.0
  0
LINE
  8
0
 10
324.0
 20
559.0
 30
0.0
 11
377.0
 21
559.0
 31
0.0
  0
LINE
  8
0
 10
377.0
 20
559.0
 30
0.0
 11
377.0
 21
558.0
 31
0.0
  0
LINE
  8
0
 10
377.0
 20
558.0
 30
0.0
 11
324.0
 21
558.0
 31
0.0
  0
LINE
  8
0
 10
324.0
 20
558.0
 30
0.0
 11
324.0
 21
559.0
 31
0.0
  0
LINE
  8
0
 10
325.0
 20
558.0
 30
0.0
 11
378.0
 21
558.0
 31
0.0
  0
LINE
  8
0
 10
378.0
 20
558.0
 30
0.0
 11
378.0
 21
557.0
 31
0.0
  0
LINE
  8
0
 10
378.0
 20
557.0
 30
0.0
 11
325.0
 21
557.0
 31
0.0
  0
LINE
  8
0
 10
325.0
 20
557.0
 30
0.0
 11
325.0
 21
558.0
 31
0.0
  0
LINE
  8
0
 10
325.0
 20
557.0
 30
0.0
 11
379.0
 21
557.0
 31
0.0
  0
LINE
  8
0
 10
379.0
 20
557.0
 30
0.0
 11
379.0
 21
556.0
 31
0.0
  0
LINE
  8
0
 10
379.0
 20
556.0
 30
0.0
 11
325.0
 21
556.0
 31
0.0
  0
LINE
  8
0
 10
325.0
 20
556.0
 30
0.0
 11
325.0
 21
557.0
 31
0.0
  0
LINE
  8
0
 10
325.0
 20
556.0
 30
0.0
 11
380.0
 21
556.0
 31
0.0
  0
LINE
  8
0
 10
380.0
 20
556.0
 30
0.0
 11
380.0
 21
555.0
 31
0.0
  0
LINE
  8
0
 10
380.0
 20
555.0
 30
0.0
 11
325.0
 21
555.0
 31
0.0
  0
LINE
  8
0
 10
325.0
 20
555.0
 30
0.0
 11
325.0
 21
556.0
 31
0.0
  0
LINE
  8
0
 10
326.0
 20
555.0
 30
0.0
 11
381.0
 21
555.0
 31
0.0
  0
LINE
  8
0
 10
381.0
 20
555.0
 30
0.0
 11
381.0
 21
554.0
 31
0.0
  0
LINE
  8
0
 10
381.0
 20
554.0
 30
0.0
 11
326.0
 21
554.0
 31
0.0
  0
LINE
  8
0
 10
326.0
 20
554.0
 30
0.0
 11
326.0
 21
555.0
 31
0.0
  0
LINE
  8
0
 10
326.0
 20
554.0
 30
0.0
 11
382.0
 21
554.0
 31
0.0
  0
LINE
  8
0
 10
382.0
 20
554.0
 30
0.0
 11
382.0
 21
553.0
 31
0.0
  0
LINE
  8
0
 10
382.0
 20
553.0
 30
0.0
 11
326.0
 21
553.0
 31
0.0
  0
LINE
  8
0
 10
326.0
 20
553.0
 30
0.0
 11
326.0
 21
554.0
 31
0.0
  0
LINE
  8
0
 10
326.0
 20
553.0
 30
0.0
 11
384.0
 21
553.0
 31
0.0
  0
LINE
  8
0
 10
384.0
 20
553.0
 30
0.0
 11
384.0
 21
552.0
 31
0.0
  0
LINE
  8
0
 10
384.0
 20
552.0
 30
0.0
 11
326.0
 21
552.0
 31
0.0
  0
LINE
  8
0
 10
326.0
 20
552.0
 30
0.0
 11
326.0
 21
553.0
 31
0.0
  0
LINE
  8
0
 10
327.0
 20
552.0
 30
0.0
 11
385.0
 21
552.0
 31
0.0
  0
LINE
  8
0
 10
385.0
 20
552.0
 30
0.0
 11
385.0
 21
551.0
 31
0.0
  0
LINE
  8
0
 10
385.0
 20
551.0
 30
0.0
 11
327.0
 21
551.0
 31
0.0
  0
LINE
  8
0
 10
327.0
 20
551.0
 30
0.0
 11
327.0
 21
552.0
 31
0.0
  0
LINE
  8
0
 10
327.0
 20
551.0
 30
0.0
 11
386.0
 21
551.0
 31
0.0
  0
LINE
  8
0
 10
386.0
 20
551.0
 30
0.0
 11
386.0
 21
550.0
 31
0.0
  0
LINE
  8
0
 10
386.0
 20
550.0
 30
0.0
 11
327.0
 21
550.0
 31
0.0
  0
LINE
  8
0
 10
327.0
 20
550.0
 30
0.0
 11
327.0
 21
551.0
 31
0.0
  0
LINE
  8
0
 10
327.0
 20
550.0
 30
0.0
 11
387.0
 21
550.0
 31
0.0
  0
LINE
  8
0
 10
387.0
 20
550.0
 30
0.0
 11
387.0
 21
549.0
 31
0.0
  0
LINE
  8
0
 10
387.0
 20
549.0
 30
0.0
 11
327.0
 21
549.0
 31
0.0
  0
LINE
  8
0
 10
327.0
 20
549.0
 30
0.0
 11
327.0
 21
550.0
 31
0.0
  0
LINE
  8
0
 10
328.0
 20
549.0
 30
0.0
 11
388.0
 21
549.0
 31
0.0
  0
LINE
  8
0
 10
388.0
 20
549.0
 30
0.0
 11
388.0
 21
548.0
 31
0.0
  0
LINE
  8
0
 10
388.0
 20
548.0
 30
0.0
 11
328.0
 21
548.0
 31
0.0
  0
LINE
  8
0
 10
328.0
 20
548.0
 30
0.0
 11
328.0
 21
549.0
 31
0.0
  0
LINE
  8
0
 10
328.0
 20
548.0
 30
0.0
 11
389.0
 21
548.0
 31
0.0
  0
LINE
  8
0
 10
389.0
 20
548.0
 30
0.0
 11
389.0
 21
547.0
 31
0.0
  0
LINE
  8
0
 10
389.0
 20
547.0
 30
0.0
 11
328.0
 21
547.0
 31
0.0
  0
LINE
  8
0
 10
328.0
 20
547.0
 30
0.0
 11
328.0
 21
548.0
 31
0.0
  0
LINE
  8
0
 10
329.0
 20
547.0
 30
0.0
 11
390.0
 21
547.0
 31
0.0
  0
LINE
  8
0
 10
390.0
 20
547.0
 30
0.0
 11
390.0
 21
546.0
 31
0.0
  0
LINE
  8
0
 10
390.0
 20
546.0
 30
0.0
 11
329.0
 21
546.0
 31
0.0
  0
LINE
  8
0
 10
329.0
 20
546.0
 30
0.0
 11
329.0
 21
547.0
 31
0.0
  0
LINE
  8
0
 10
329.0
 20
546.0
 30
0.0
 11
391.0
 21
546.0
 31
0.0
  0
LINE
  8
0
 10
391.0
 20
546.0
 30
0.0
 11
391.0
 21
545.0
 31
0.0
  0
LINE
  8
0
 10
391.0
 20
545.0
 30
0.0
 11
329.0
 21
545.0
 31
0.0
  0
LINE
  8
0
 10
329.0
 20
545.0
 30
0.0
 11
329.0
 21
546.0
 31
0.0
  0
LINE
  8
0
 10
329.0
 20
545.0
 30
0.0
 11
393.0
 21
545.0
 31
0.0
  0
LINE
  8
0
 10
393.0
 20
545.0
 30
0.0
 11
393.0
 21
544.0
 31
0.0
  0
LINE
  8
0
 10
393.0
 20
544.0
 30
0.0
 11
329.0
 21
544.0
 31
0.0
  0
LINE
  8
0
 10
329.0
 20
544.0
 30
0.0
 11
329.0
 21
545.0
 31
0.0
  0
LINE
  8
0
 10
330.0
 20
544.0
 30
0.0
 11
394.0
 21
544.0
 31
0.0
  0
LINE
  8
0
 10
394.0
 20
544.0
 30
0.0
 11
394.0
 21
543.0
 31
0.0
  0
LINE
  8
0
 10
394.0
 20
543.0
 30
0.0
 11
330.0
 21
543.0
 31
0.0
  0
LINE
  8
0
 10
330.0
 20
543.0
 30
0.0
 11
330.0
 21
544.0
 31
0.0
  0
LINE
  8
0
 10
330.0
 20
543.0
 30
0.0
 11
395.0
 21
543.0
 31
0.0
  0
LINE
  8
0
 10
395.0
 20
543.0
 30
0.0
 11
395.0
 21
542.0
 31
0.0
  0
LINE
  8
0
 10
395.0
 20
542.0
 30
0.0
 11
330.0
 21
542.0
 31
0.0
  0
LINE
  8
0
 10
330.0
 20
542.0
 30
0.0
 11
330.0
 21
543.0
 31
0.0
  0
LINE
  8
0
 10
330.0
 20
542.0
 30
0.0
 11
396.0
 21
542.0
 31
0.0
  0
LINE
  8
0
 10
396.0
 20
542.0
 30
0.0
 11
396.0
 21
541.0
 31
0.0
  0
LINE
  8
0
 10
396.0
 20
541.0
 30
0.0
 11
330.0
 21
541.0
 31
0.0
  0
LINE
  8
0
 10
330.0
 20
541.0
 30
0.0
 11
330.0
 21
542.0
 31
0.0
  0
LINE
  8
0
 10
331.0
 20
541.0
 30
0.0
 11
397.0
 21
541.0
 31
0.0
  0
LINE
  8
0
 10
397.0
 20
541.0
 30
0.0
 11
397.0
 21
540.0
 31
0.0
  0
LINE
  8
0
 10
397.0
 20
540.0
 30
0.0
 11
331.0
 21
540.0
 31
0.0
  0
LINE
  8
0
 10
331.0
 20
540.0
 30
0.0
 11
331.0
 21
541.0
 31
0.0
  0
LINE
  8
0
 10
331.0
 20
540.0
 30
0.0
 11
398.0
 21
540.0
 31
0.0
  0
LINE
  8
0
 10
398.0
 20
540.0
 30
0.0
 11
398.0
 21
539.0
 31
0.0
  0
LINE
  8
0
 10
398.0
 20
539.0
 30
0.0
 11
331.0
 21
539.0
 31
0.0
  0
LINE
  8
0
 10
331.0
 20
539.0
 30
0.0
 11
331.0
 21
540.0
 31
0.0
  0
LINE
  8
0
 10
331.0
 20
539.0
 30
0.0
 11
399.0
 21
539.0
 31
0.0
  0
LINE
  8
0
 10
399.0
 20
539.0
 30
0.0
 11
399.0
 21
538.0
 31
0.0
  0
LINE
  8
0
 10
399.0
 20
538.0
 30
0.0
 11
331.0
 21
538.0
 31
0.0
  0
LINE
  8
0
 10
331.0
 20
538.0
 30
0.0
 11
331.0
 21
539.0
 31
0.0
  0
LINE
  8
0
 10
332.0
 20
538.0
 30
0.0
 11
400.0
 21
538.0
 31
0.0
  0
LINE
  8
0
 10
400.0
 20
538.0
 30
0.0
 11
400.0
 21
537.0
 31
0.0
  0
LINE
  8
0
 10
400.0
 20
537.0
 30
0.0
 11
332.0
 21
537.0
 31
0.0
  0
LINE
  8
0
 10
332.0
 20
537.0
 30
0.0
 11
332.0
 21
538.0
 31
0.0
  0
LINE
  8
0
 10
332.0
 20
537.0
 30
0.0
 11
401.0
 21
537.0
 31
0.0
  0
LINE
  8
0
 10
401.0
 20
537.0
 30
0.0
 11
401.0
 21
536.0
 31
0.0
  0
LINE
  8
0
 10
401.0
 20
536.0
 30
0.0
 11
332.0
 21
536.0
 31
0.0
  0
LINE
  8
0
 10
332.0
 20
536.0
 30
0.0
 11
332.0
 21
537.0
 31
0.0
  0
LINE
  8
0
 10
332.0
 20
536.0
 30
0.0
 11
403.0
 21
536.0
 31
0.0
  0
LINE
  8
0
 10
403.0
 20
536.0
 30
0.0
 11
403.0
 21
535.0
 31
0.0
  0
LINE
  8
0
 10
403.0
 20
535.0
 30
0.0
 11
332.0
 21
535.0
 31
0.0
  0
LINE
  8
0
 10
332.0
 20
535.0
 30
0.0
 11
332.0
 21
536.0
 31
0.0
  0
LINE
  8
0
 10
333.0
 20
535.0
 30
0.0
 11
404.0
 21
535.0
 31
0.0
  0
LINE
  8
0
 10
404.0
 20
535.0
 30
0.0
 11
404.0
 21
534.0
 31
0.0
  0
LINE
  8
0
 10
404.0
 20
534.0
 30
0.0
 11
333.0
 21
534.0
 31
0.0
  0
LINE
  8
0
 10
333.0
 20
534.0
 30
0.0
 11
333.0
 21
535.0
 31
0.0
  0
LINE
  8
0
 10
333.0
 20
534.0
 30
0.0
 11
405.0
 21
534.0
 31
0.0
  0
LINE
  8
0
 10
405.0
 20
534.0
 30
0.0
 11
405.0
 21
533.0
 31
0.0
  0
LINE
  8
0
 10
405.0
 20
533.0
 30
0.0
 11
333.0
 21
533.0
 31
0.0
  0
LINE
  8
0
 10
333.0
 20
533.0
 30
0.0
 11
333.0
 21
534.0
 31
0.0
  0
LINE
  8
0
 10
334.0
 20
533.0
 30
0.0
 11
406.0
 21
533.0
 31
0.0
  0
LINE
  8
0
 10
406.0
 20
533.0
 30
0.0
 11
406.0
 21
532.0
 31
0.0
  0
LINE
  8
0
 10
406.0
 20
532.0
 30
0.0
 11
334.0
 21
532.0
 31
0.0
  0
LINE
  8
0
 10
334.0
 20
532.0
 30
0.0
 11
334.0
 21
533.0
 31
0.0
  0
LINE
  8
0
 10
334.0
 20
532.0
 30
0.0
 11
407.0
 21
532.0
 31
0.0
  0
LINE
  8
0
 10
407.0
 20
532.0
 30
0.0
 11
407.0
 21
531.0
 31
0.0
  0
LINE
  8
0
 10
407.0
 20
531.0
 30
0.0
 11
334.0
 21
531.0
 31
0.0
  0
LINE
  8
0
 10
334.0
 20
531.0
 30
0.0
 11
334.0
 21
532.0
 31
0.0
  0
LINE
  8
0
 10
334.0
 20
531.0
 30
0.0
 11
408.0
 21
531.0
 31
0.0
  0
LINE
  8
0
 10
408.0
 20
531.0
 30
0.0
 11
408.0
 21
530.0
 31
0.0
  0
LINE
  8
0
 10
408.0
 20
530.0
 30
0.0
 11
334.0
 21
530.0
 31
0.0
  0
LINE
  8
0
 10
334.0
 20
530.0
 30
0.0
 11
334.0
 21
531.0
 31
0.0
  0
LINE
  8
0
 10
335.0
 20
530.0
 30
0.0
 11
409.0
 21
530.0
 31
0.0
  0
LINE
  8
0
 10
409.0
 20
530.0
 30
0.0
 11
409.0
 21
529.0
 31
0.0
  0
LINE
  8
0
 10
409.0
 20
529.0
 30
0.0
 11
335.0
 21
529.0
 31
0.0
  0
LINE
  8
0
 10
335.0
 20
529.0
 30
0.0
 11
335.0
 21
530.0
 31
0.0
  0
LINE
  8
0
 10
335.0
 20
529.0
 30
0.0
 11
410.0
 21
529.0
 31
0.0
  0
LINE
  8
0
 10
410.0
 20
529.0
 30
0.0
 11
410.0
 21
528.0
 31
0.0
  0
LINE
  8
0
 10
410.0
 20
528.0
 30
0.0
 11
335.0
 21
528.0
 31
0.0
  0
LINE
  8
0
 10
335.0
 20
528.0
 30
0.0
 11
335.0
 21
529.0
 31
0.0
  0
LINE
  8
0
 10
335.0
 20
528.0
 30
0.0
 11
412.0
 21
528.0
 31
0.0
  0
LINE
  8
0
 10
412.0
 20
528.0
 30
0.0
 11
412.0
 21
527.0
 31
0.0
  0
LINE
  8
0
 10
412.0
 20
527.0
 30
0.0
 11
335.0
 21
527.0
 31
0.0
  0
LINE
  8
0
 10
335.0
 20
527.0
 30
0.0
 11
335.0
 21
528.0
 31
0.0
  0
LINE
  8
0
 10
336.0
 20
527.0
 30
0.0
 11
413.0
 21
527.0
 31
0.0
  0
LINE
  8
0
 10
413.0
 20
527.0
 30
0.0
 11
413.0
 21
526.0
 31
0.0
  0
LINE
  8
0
 10
413.0
 20
526.0
 30
0.0
 11
336.0
 21
526.0
 31
0.0
  0
LINE
  8
0
 10
336.0
 20
526.0
 30
0.0
 11
336.0
 21
527.0
 31
0.0
  0
LINE
  8
0
 10
336.0
 20
526.0
 30
0.0
 11
414.0
 21
526.0
 31
0.0
  0
LINE
  8
0
 10
414.0
 20
526.0
 30
0.0
 11
414.0
 21
525.0
 31
0.0
  0
LINE
  8
0
 10
414.0
 20
525.0
 30
0.0
 11
336.0
 21
525.0
 31
0.0
  0
LINE
  8
0
 10
336.0
 20
525.0
 30
0.0
 11
336.0
 21
526.0
 31
0.0
  0
LINE
  8
0
 10
593.0
 20
526.0
 30
0.0
 11
609.0
 21
526.0
 31
0.0
  0
LINE
  8
0
 10
609.0
 20
526.0
 30
0.0
 11
609.0
 21
525.0
 31
0.0
  0
LINE
  8
0
 10
609.0
 20
525.0
 30
0.0
 11
593.0
 21
525.0
 31
0.0
  0
LINE
  8
0
 10
593.0
 20
525.0
 30
0.0
 11
593.0
 21
526.0
 31
0.0
  0
LINE
  8
0
 10
336.0
 20
525.0
 30
0.0
 11
415.0
 21
525.0
 31
0.0
  0
LINE
  8
0
 10
415.0
 20
525.0
 30
0.0
 11
415.0
 21
524.0
 31
0.0
  0
LINE
  8
0
 10
415.0
 20
524.0
 30
0.0
 11
336.0
 21
524.0
 31
0.0
  0
LINE
  8
0
 10
336.0
 20
524.0
 30
0.0
 11
336.0
 21
525.0
 31
0.0
  0
LINE
  8
0
 10
584.0
 20
525.0
 30
0.0
 11
615.0
 21
525.0
 31
0.0
  0
LINE
  8
0
 10
615.0
 20
525.0
 30
0.0
 11
615.0
 21
524.0
 31
0.0
  0
LINE
  8
0
 10
615.0
 20
524.0
 30
0.0
 11
584.0
 21
524.0
 31
0.0
  0
LINE
  8
0
 10
584.0
 20
524.0
 30
0.0
 11
584.0
 21
525.0
 31
0.0
  0
LINE
  8
0
 10
337.0
 20
524.0
 30
0.0
 11
416.0
 21
524.0
 31
0.0
  0
LINE
  8
0
 10
416.0
 20
524.0
 30
0.0
 11
416.0
 21
523.0
 31
0.0
  0
LINE
  8
0
 10
416.0
 20
523.0
 30
0.0
 11
337.0
 21
523.0
 31
0.0
  0
LINE
  8
0
 10
337.0
 20
523.0
 30
0.0
 11
337.0
 21
524.0
 31
0.0
  0
LINE
  8
0
 10
572.0
 20
524.0
 30
0.0
 11
619.0
 21
524.0
 31
0.0
  0
LINE
  8
0
 10
619.0
 20
524.0
 30
0.0
 11
619.0
 21
523.0
 31
0.0
  0
LINE
  8
0
 10
619.0
 20
523.0
 30
0.0
 11
572.0
 21
523.0
 31
0.0
  0
LINE
  8
0
 10
572.0
 20
523.0
 30
0.0
 11
572.0
 21
524.0
 31
0.0
  0
LINE
  8
0
 10
337.0
 20
523.0
 30
0.0
 11
417.0
 21
523.0
 31
0.0
  0
LINE
  8
0
 10
417.0
 20
523.0
 30
0.0
 11
417.0
 21
522.0
 31
0.0
  0
LINE
  8
0
 10
417.0
 20
522.0
 30
0.0
 11
337.0
 21
522.0
 31
0.0
  0
LINE
  8
0
 10
337.0
 20
522.0
 30
0.0
 11
337.0
 21
523.0
 31
0.0
  0
LINE
  8
0
 10
566.0
 20
523.0
 30
0.0
 11
623.0
 21
523.0
 31
0.0
  0
LINE
  8
0
 10
623.0
 20
523.0
 30
0.0
 11
623.0
 21
522.0
 31
0.0
  0
LINE
  8
0
 10
623.0
 20
522.0
 30
0.0
 11
566.0
 21
522.0
 31
0.0
  0
LINE
  8
0
 10
566.0
 20
522.0
 30
0.0
 11
566.0
 21
523.0
 31
0.0
  0
LINE
  8
0
 10
337.0
 20
522.0
 30
0.0
 11
422.0
 21
522.0
 31
0.0
  0
LINE
  8
0
 10
422.0
 20
522.0
 30
0.0
 11
422.0
 21
521.0
 31
0.0
  0
LINE
  8
0
 10
422.0
 20
521.0
 30
0.0
 11
337.0
 21
521.0
 31
0.0
  0
LINE
  8
0
 10
337.0
 20
521.0
 30
0.0
 11
337.0
 21
522.0
 31
0.0
  0
LINE
  8
0
 10
560.0
 20
522.0
 30
0.0
 11
587.0
 21
522.0
 31
0.0
  0
LINE
  8
0
 10
587.0
 20
522.0
 30
0.0
 11
587.0
 21
521.0
 31
0.0
  0
LINE
  8
0
 10
587.0
 20
521.0
 30
0.0
 11
560.0
 21
521.0
 31
0.0
  0
LINE
  8
0
 10
560.0
 20
521.0
 30
0.0
 11
560.0
 21
522.0
 31
0.0
  0
LINE
  8
0
 10
613.0
 20
522.0
 30
0.0
 11
625.0
 21
522.0
 31
0.0
  0
LINE
  8
0
 10
625.0
 20
522.0
 30
0.0
 11
625.0
 21
521.0
 31
0.0
  0
LINE
  8
0
 10
625.0
 20
521.0
 30
0.0
 11
613.0
 21
521.0
 31
0.0
  0
LINE
  8
0
 10
613.0
 20
521.0
 30
0.0
 11
613.0
 21
522.0
 31
0.0
  0
LINE
  8
0
 10
338.0
 20
521.0
 30
0.0
 11
428.0
 21
521.0
 31
0.0
  0
LINE
  8
0
 10
428.0
 20
521.0
 30
0.0
 11
428.0
 21
520.0
 31
0.0
  0
LINE
  8
0
 10
428.0
 20
520.0
 30
0.0
 11
338.0
 21
520.0
 31
0.0
  0
LINE
  8
0
 10
338.0
 20
520.0
 30
0.0
 11
338.0
 21
521.0
 31
0.0
  0
LINE
  8
0
 10
554.0
 20
521.0
 30
0.0
 11
582.0
 21
521.0
 31
0.0
  0
LINE
  8
0
 10
582.0
 20
521.0
 30
0.0
 11
582.0
 21
520.0
 31
0.0
  0
LINE
  8
0
 10
582.0
 20
520.0
 30
0.0
 11
554.0
 21
520.0
 31
0.0
  0
LINE
  8
0
 10
554.0
 20
520.0
 30
0.0
 11
554.0
 21
521.0
 31
0.0
  0
LINE
  8
0
 10
618.0
 20
521.0
 30
0.0
 11
628.0
 21
521.0
 31
0.0
  0
LINE
  8
0
 10
628.0
 20
521.0
 30
0.0
 11
628.0
 21
520.0
 31
0.0
  0
LINE
  8
0
 10
628.0
 20
520.0
 30
0.0
 11
618.0
 21
520.0
 31
0.0
  0
LINE
  8
0
 10
618.0
 20
520.0
 30
0.0
 11
618.0
 21
521.0
 31
0.0
  0
LINE
  8
0
 10
336.0
 20
520.0
 30
0.0
 11
337.0
 21
520.0
 31
0.0
  0
LINE
  8
0
 10
337.0
 20
520.0
 30
0.0
 11
337.0
 21
519.0
 31
0.0
  0
LINE
  8
0
 10
337.0
 20
519.0
 30
0.0
 11
336.0
 21
519.0
 31
0.0
  0
LINE
  8
0
 10
336.0
 20
519.0
 30
0.0
 11
336.0
 21
520.0
 31
0.0
  0
LINE
  8
0
 10
338.0
 20
520.0
 30
0.0
 11
429.0
 21
520.0
 31
0.0
  0
LINE
  8
0
 10
429.0
 20
520.0
 30
0.0
 11
429.0
 21
519.0
 31
0.0
  0
LINE
  8
0
 10
429.0
 20
519.0
 30
0.0
 11
338.0
 21
519.0
 31
0.0
  0
LINE
  8
0
 10
338.0
 20
519.0
 30
0.0
 11
338.0
 21
520.0
 31
0.0
  0
LINE
  8
0
 10
549.0
 20
520.0
 30
0.0
 11
582.0
 21
520.0
 31
0.0
  0
LINE
  8
0
 10
582.0
 20
520.0
 30
0.0
 11
582.0
 21
519.0
 31
0.0
  0
LINE
  8
0
 10
582.0
 20
519.0
 30
0.0
 11
549.0
 21
519.0
 31
0.0
  0
LINE
  8
0
 10
549.0
 20
519.0
 30
0.0
 11
549.0
 21
520.0
 31
0.0
  0
LINE
  8
0
 10
621.0
 20
520.0
 30
0.0
 11
630.0
 21
520.0
 31
0.0
  0
LINE
  8
0
 10
630.0
 20
520.0
 30
0.0
 11
630.0
 21
519.0
 31
0.0
  0
LINE
  8
0
 10
630.0
 20
519.0
 30
0.0
 11
621.0
 21
519.0
 31
0.0
  0
LINE
  8
0
 10
621.0
 20
519.0
 30
0.0
 11
621.0
 21
520.0
 31
0.0
  0
LINE
  8
0
 10
338.0
 20
519.0
 30
0.0
 11
432.0
 21
519.0
 31
0.0
  0
LINE
  8
0
 10
432.0
 20
519.0
 30
0.0
 11
432.0
 21
518.0
 31
0.0
  0
LINE
  8
0
 10
432.0
 20
518.0
 30
0.0
 11
338.0
 21
518.0
 31
0.0
  0
LINE
  8
0
 10
338.0
 20
518.0
 30
0.0
 11
338.0
 21
519.0
 31
0.0
  0
LINE
  8
0
 10
544.0
 20
519.0
 30
0.0
 11
583.0
 21
519.0
 31
0.0
  0
LINE
  8
0
 10
583.0
 20
519.0
 30
0.0
 11
583.0
 21
518.0
 31
0.0
  0
LINE
  8
0
 10
583.0
 20
518.0
 30
0.0
 11
544.0
 21
518.0
 31
0.0
  0
LINE
  8
0
 10
544.0
 20
518.0
 30
0.0
 11
544.0
 21
519.0
 31
0.0
  0
LINE
  8
0
 10
624.0
 20
519.0
 30
0.0
 11
632.0
 21
519.0
 31
0.0
  0
LINE
  8
0
 10
632.0
 20
519.0
 30
0.0
 11
632.0
 21
518.0
 31
0.0
  0
LINE
  8
0
 10
632.0
 20
518.0
 30
0.0
 11
624.0
 21
518.0
 31
0.0
  0
LINE
  8
0
 10
624.0
 20
518.0
 30
0.0
 11
624.0
 21
519.0
 31
0.0
  0
LINE
  8
0
 10
336.0
 20
518.0
 30
0.0
 11
435.0
 21
518.0
 31
0.0
  0
LINE
  8
0
 10
435.0
 20
518.0
 30
0.0
 11
435.0
 21
517.0
 31
0.0
  0
LINE
  8
0
 10
435.0
 20
517.0
 30
0.0
 11
336.0
 21
517.0
 31
0.0
  0
LINE
  8
0
 10
336.0
 20
517.0
 30
0.0
 11
336.0
 21
518.0
 31
0.0
  0
LINE
  8
0
 10
538.0
 20
518.0
 30
0.0
 11
583.0
 21
518.0
 31
0.0
  0
LINE
  8
0
 10
583.0
 20
518.0
 30
0.0
 11
583.0
 21
517.0
 31
0.0
  0
LINE
  8
0
 10
583.0
 20
517.0
 30
0.0
 11
538.0
 21
517.0
 31
0.0
  0
LINE
  8
0
 10
538.0
 20
517.0
 30
0.0
 11
538.0
 21
518.0
 31
0.0
  0
LINE
  8
0
 10
626.0
 20
518.0
 30
0.0
 11
633.0
 21
518.0
 31
0.0
  0
LINE
  8
0
 10
633.0
 20
518.0
 30
0.0
 11
633.0
 21
517.0
 31
0.0
  0
LINE
  8
0
 10
633.0
 20
517.0
 30
0.0
 11
626.0
 21
517.0
 31
0.0
  0
LINE
  8
0
 10
626.0
 20
517.0
 30
0.0
 11
626.0
 21
518.0
 31
0.0
  0
LINE
  8
0
 10
333.0
 20
517.0
 30
0.0
 11
438.0
 21
517.0
 31
0.0
  0
LINE
  8
0
 10
438.0
 20
517.0
 30
0.0
 11
438.0
 21
516.0
 31
0.0
  0
LINE
  8
0
 10
438.0
 20
516.0
 30
0.0
 11
333.0
 21
516.0
 31
0.0
  0
LINE
  8
0
 10
333.0
 20
516.0
 30
0.0
 11
333.0
 21
517.0
 31
0.0
  0
LINE
  8
0
 10
532.0
 20
517.0
 30
0.0
 11
583.0
 21
517.0
 31
0.0
  0
LINE
  8
0
 10
583.0
 20
517.0
 30
0.0
 11
583.0
 21
516.0
 31
0.0
  0
LINE
  8
0
 10
583.0
 20
516.0
 30
0.0
 11
532.0
 21
516.0
 31
0.0
  0
LINE
  8
0
 10
532.0
 20
516.0
 30
0.0
 11
532.0
 21
517.0
 31
0.0
  0
LINE
  8
0
 10
625.0
 20
517.0
 30
0.0
 11
635.0
 21
517.0
 31
0.0
  0
LINE
  8
0
 10
635.0
 20
517.0
 30
0.0
 11
635.0
 21
516.0
 31
0.0
  0
LINE
  8
0
 10
635.0
 20
516.0
 30
0.0
 11
625.0
 21
516.0
 31
0.0
  0
LINE
  8
0
 10
625.0
 20
516.0
 30
0.0
 11
625.0
 21
517.0
 31
0.0
  0
LINE
  8
0
 10
332.0
 20
516.0
 30
0.0
 11
441.0
 21
516.0
 31
0.0
  0
LINE
  8
0
 10
441.0
 20
516.0
 30
0.0
 11
441.0
 21
515.0
 31
0.0
  0
LINE
  8
0
 10
441.0
 20
515.0
 30
0.0
 11
332.0
 21
515.0
 31
0.0
  0
LINE
  8
0
 10
332.0
 20
515.0
 30
0.0
 11
332.0
 21
516.0
 31
0.0
  0
LINE
  8
0
 10
525.0
 20
516.0
 30
0.0
 11
584.0
 21
516.0
 31
0.0
  0
LINE
  8
0
 10
584.0
 20
516.0
 30
0.0
 11
584.0
 21
515.0
 31
0.0
  0
LINE
  8
0
 10
584.0
 20
515.0
 30
0.0
 11
525.0
 21
515.0
 31
0.0
  0
LINE
  8
0
 10
525.0
 20
515.0
 30
0.0
 11
525.0
 21
516.0
 31
0.0
  0
LINE
  8
0
 10
625.0
 20
516.0
 30
0.0
 11
629.0
 21
516.0
 31
0.0
  0
LINE
  8
0
 10
629.0
 20
516.0
 30
0.0
 11
629.0
 21
515.0
 31
0.0
  0
LINE
  8
0
 10
629.0
 20
515.0
 30
0.0
 11
625.0
 21
515.0
 31
0.0
  0
LINE
  8
0
 10
625.0
 20
515.0
 30
0.0
 11
625.0
 21
516.0
 31
0.0
  0
LINE
  8
0
 10
630.0
 20
516.0
 30
0.0
 11
637.0
 21
516.0
 31
0.0
  0
LINE
  8
0
 10
637.0
 20
516.0
 30
0.0
 11
637.0
 21
515.0
 31
0.0
  0
LINE
  8
0
 10
637.0
 20
515.0
 30
0.0
 11
630.0
 21
515.0
 31
0.0
  0
LINE
  8
0
 10
630.0
 20
515.0
 30
0.0
 11
630.0
 21
516.0
 31
0.0
  0
LINE
  8
0
 10
331.0
 20
515.0
 30
0.0
 11
450.0
 21
515.0
 31
0.0
  0
LINE
  8
0
 10
450.0
 20
515.0
 30
0.0
 11
450.0
 21
514.0
 31
0.0
  0
LINE
  8
0
 10
450.0
 20
514.0
 30
0.0
 11
331.0
 21
514.0
 31
0.0
  0
LINE
  8
0
 10
331.0
 20
514.0
 30
0.0
 11
331.0
 21
515.0
 31
0.0
  0
LINE
  8
0
 10
518.0
 20
515.0
 30
0.0
 11
584.0
 21
515.0
 31
0.0
  0
LINE
  8
0
 10
584.0
 20
515.0
 30
0.0
 11
584.0
 21
514.0
 31
0.0
  0
LINE
  8
0
 10
584.0
 20
514.0
 30
0.0
 11
518.0
 21
514.0
 31
0.0
  0
LINE
  8
0
 10
518.0
 20
514.0
 30
0.0
 11
518.0
 21
515.0
 31
0.0
  0
LINE
  8
0
 10
624.0
 20
515.0
 30
0.0
 11
629.0
 21
515.0
 31
0.0
  0
LINE
  8
0
 10
629.0
 20
515.0
 30
0.0
 11
629.0
 21
514.0
 31
0.0
  0
LINE
  8
0
 10
629.0
 20
514.0
 30
0.0
 11
624.0
 21
514.0
 31
0.0
  0
LINE
  8
0
 10
624.0
 20
514.0
 30
0.0
 11
624.0
 21
515.0
 31
0.0
  0
LINE
  8
0
 10
632.0
 20
515.0
 30
0.0
 11
639.0
 21
515.0
 31
0.0
  0
LINE
  8
0
 10
639.0
 20
515.0
 30
0.0
 11
639.0
 21
514.0
 31
0.0
  0
LINE
  8
0
 10
639.0
 20
514.0
 30
0.0
 11
632.0
 21
514.0
 31
0.0
  0
LINE
  8
0
 10
632.0
 20
514.0
 30
0.0
 11
632.0
 21
515.0
 31
0.0
  0
LINE
  8
0
 10
331.0
 20
514.0
 30
0.0
 11
452.0
 21
514.0
 31
0.0
  0
LINE
  8
0
 10
452.0
 20
514.0
 30
0.0
 11
452.0
 21
513.0
 31
0.0
  0
LINE
  8
0
 10
452.0
 20
513.0
 30
0.0
 11
331.0
 21
513.0
 31
0.0
  0
LINE
  8
0
 10
331.0
 20
513.0
 30
0.0
 11
331.0
 21
514.0
 31
0.0
  0
LINE
  8
0
 10
510.0
 20
514.0
 30
0.0
 11
585.0
 21
514.0
 31
0.0
  0
LINE
  8
0
 10
585.0
 20
514.0
 30
0.0
 11
585.0
 21
513.0
 31
0.0
  0
LINE
  8
0
 10
585.0
 20
513.0
 30
0.0
 11
510.0
 21
513.0
 31
0.0
  0
LINE
  8
0
 10
510.0
 20
513.0
 30
0.0
 11
510.0
 21
514.0
 31
0.0
  0
LINE
  8
0
 10
624.0
 20
514.0
 30
0.0
 11
628.0
 21
514.0
 31
0.0
  0
LINE
  8
0
 10
628.0
 20
514.0
 30
0.0
 11
628.0
 21
513.0
 31
0.0
  0
LINE
  8
0
 10
628.0
 20
513.0
 30
0.0
 11
624.0
 21
513.0
 31
0.0
  0
LINE
  8
0
 10
624.0
 20
513.0
 30
0.0
 11
624.0
 21
514.0
 31
0.0
  0
LINE
  8
0
 10
634.0
 20
514.0
 30
0.0
 11
640.0
 21
514.0
 31
0.0
  0
LINE
  8
0
 10
640.0
 20
514.0
 30
0.0
 11
640.0
 21
513.0
 31
0.0
  0
LINE
  8
0
 10
640.0
 20
513.0
 30
0.0
 11
634.0
 21
513.0
 31
0.0
  0
LINE
  8
0
 10
634.0
 20
513.0
 30
0.0
 11
634.0
 21
514.0
 31
0.0
  0
LINE
  8
0
 10
331.0
 20
513.0
 30
0.0
 11
453.0
 21
513.0
 31
0.0
  0
LINE
  8
0
 10
453.0
 20
513.0
 30
0.0
 11
453.0
 21
512.0
 31
0.0
  0
LINE
  8
0
 10
453.0
 20
512.0
 30
0.0
 11
331.0
 21
512.0
 31
0.0
  0
LINE
  8
0
 10
331.0
 20
512.0
 30
0.0
 11
331.0
 21
513.0
 31
0.0
  0
LINE
  8
0
 10
498.0
 20
513.0
 30
0.0
 11
585.0
 21
513.0
 31
0.0
  0
LINE
  8
0
 10
585.0
 20
513.0
 30
0.0
 11
585.0
 21
512.0
 31
0.0
  0
LINE
  8
0
 10
585.0
 20
512.0
 30
0.0
 11
498.0
 21
512.0
 31
0.0
  0
LINE
  8
0
 10
498.0
 20
512.0
 30
0.0
 11
498.0
 21
513.0
 31
0.0
  0
LINE
  8
0
 10
623.0
 20
513.0
 30
0.0
 11
628.0
 21
513.0
 31
0.0
  0
LINE
  8
0
 10
628.0
 20
513.0
 30
0.0
 11
628.0
 21
512.0
 31
0.0
  0
LINE
  8
0
 10
628.0
 20
512.0
 30
0.0
 11
623.0
 21
512.0
 31
0.0
  0
LINE
  8
0
 10
623.0
 20
512.0
 30
0.0
 11
623.0
 21
513.0
 31
0.0
  0
LINE
  8
0
 10
635.0
 20
513.0
 30
0.0
 11
642.0
 21
513.0
 31
0.0
  0
LINE
  8
0
 10
642.0
 20
513.0
 30
0.0
 11
642.0
 21
512.0
 31
0.0
  0
LINE
  8
0
 10
642.0
 20
512.0
 30
0.0
 11
635.0
 21
512.0
 31
0.0
  0
LINE
  8
0
 10
635.0
 20
512.0
 30
0.0
 11
635.0
 21
513.0
 31
0.0
  0
LINE
  8
0
 10
331.0
 20
512.0
 30
0.0
 11
586.0
 21
512.0
 31
0.0
  0
LINE
  8
0
 10
586.0
 20
512.0
 30
0.0
 11
586.0
 21
511.0
 31
0.0
  0
LINE
  8
0
 10
586.0
 20
511.0
 30
0.0
 11
331.0
 21
511.0
 31
0.0
  0
LINE
  8
0
 10
331.0
 20
511.0
 30
0.0
 11
331.0
 21
512.0
 31
0.0
  0
LINE
  8
0
 10
623.0
 20
512.0
 30
0.0
 11
627.0
 21
512.0
 31
0.0
  0
LINE
  8
0
 10
627.0
 20
512.0
 30
0.0
 11
627.0
 21
511.0
 31
0.0
  0
LINE
  8
0
 10
627.0
 20
511.0
 30
0.0
 11
623.0
 21
511.0
 31
0.0
  0
LINE
  8
0
 10
623.0
 20
511.0
 30
0.0
 11
623.0
 21
512.0
 31
0.0
  0
LINE
  8
0
 10
637.0
 20
512.0
 30
0.0
 11
643.0
 21
512.0
 31
0.0
  0
LINE
  8
0
 10
643.0
 20
512.0
 30
0.0
 11
643.0
 21
511.0
 31
0.0
  0
LINE
  8
0
 10
643.0
 20
511.0
 30
0.0
 11
637.0
 21
511.0
 31
0.0
  0
LINE
  8
0
 10
637.0
 20
511.0
 30
0.0
 11
637.0
 21
512.0
 31
0.0
  0
LINE
  8
0
 10
332.0
 20
511.0
 30
0.0
 11
586.0
 21
511.0
 31
0.0
  0
LINE
  8
0
 10
586.0
 20
511.0
 30
0.0
 11
586.0
 21
510.0
 31
0.0
  0
LINE
  8
0
 10
586.0
 20
510.0
 30
0.0
 11
332.0
 21
510.0
 31
0.0
  0
LINE
  8
0
 10
332.0
 20
510.0
 30
0.0
 11
332.0
 21
511.0
 31
0.0
  0
LINE
  8
0
 10
622.0
 20
511.0
 30
0.0
 11
627.0
 21
511.0
 31
0.0
  0
LINE
  8
0
 10
627.0
 20
511.0
 30
0.0
 11
627.0
 21
510.0
 31
0.0
  0
LINE
  8
0
 10
627.0
 20
510.0
 30
0.0
 11
622.0
 21
510.0
 31
0.0
  0
LINE
  8
0
 10
622.0
 20
510.0
 30
0.0
 11
622.0
 21
511.0
 31
0.0
  0
LINE
  8
0
 10
639.0
 20
511.0
 30
0.0
 11
645.0
 21
511.0
 31
0.0
  0
LINE
  8
0
 10
645.0
 20
511.0
 30
0.0
 11
645.0
 21
510.0
 31
0.0
  0
LINE
  8
0
 10
645.0
 20
510.0
 30
0.0
 11
639.0
 21
510.0
 31
0.0
  0
LINE
  8
0
 10
639.0
 20
510.0
 30
0.0
 11
639.0
 21
511.0
 31
0.0
  0
LINE
  8
0
 10
333.0
 20
510.0
 30
0.0
 11
589.0
 21
510.0
 31
0.0
  0
LINE
  8
0
 10
589.0
 20
510.0
 30
0.0
 11
589.0
 21
509.0
 31
0.0
  0
LINE
  8
0
 10
589.0
 20
509.0
 30
0.0
 11
333.0
 21
509.0
 31
0.0
  0
LINE
  8
0
 10
333.0
 20
509.0
 30
0.0
 11
333.0
 21
510.0
 31
0.0
  0
LINE
  8
0
 10
622.0
 20
510.0
 30
0.0
 11
626.0
 21
510.0
 31
0.0
  0
LINE
  8
0
 10
626.0
 20
510.0
 30
0.0
 11
626.0
 21
509.0
 31
0.0
  0
LINE
  8
0
 10
626.0
 20
509.0
 30
0.0
 11
622.0
 21
509.0
 31
0.0
  0
LINE
  8
0
 10
622.0
 20
509.0
 30
0.0
 11
622.0
 21
510.0
 31
0.0
  0
LINE
  8
0
 10
641.0
 20
510.0
 30
0.0
 11
647.0
 21
510.0
 31
0.0
  0
LINE
  8
0
 10
647.0
 20
510.0
 30
0.0
 11
647.0
 21
509.0
 31
0.0
  0
LINE
  8
0
 10
647.0
 20
509.0
 30
0.0
 11
641.0
 21
509.0
 31
0.0
  0
LINE
  8
0
 10
641.0
 20
509.0
 30
0.0
 11
641.0
 21
510.0
 31
0.0
  0
LINE
  8
0
 10
334.0
 20
509.0
 30
0.0
 11
597.0
 21
509.0
 31
0.0
  0
LINE
  8
0
 10
597.0
 20
509.0
 30
0.0
 11
597.0
 21
508.0
 31
0.0
  0
LINE
  8
0
 10
597.0
 20
508.0
 30
0.0
 11
334.0
 21
508.0
 31
0.0
  0
LINE
  8
0
 10
334.0
 20
508.0
 30
0.0
 11
334.0
 21
509.0
 31
0.0
  0
LINE
  8
0
 10
622.0
 20
509.0
 30
0.0
 11
626.0
 21
509.0
 31
0.0
  0
LINE
  8
0
 10
626.0
 20
509.0
 30
0.0
 11
626.0
 21
508.0
 31
0.0
  0
LINE
  8
0
 10
626.0
 20
508.0
 30
0.0
 11
622.0
 21
508.0
 31
0.0
  0
LINE
  8
0
 10
622.0
 20
508.0
 30
0.0
 11
622.0
 21
509.0
 31
0.0
  0
LINE
  8
0
 10
642.0
 20
509.0
 30
0.0
 11
648.0
 21
509.0
 31
0.0
  0
LINE
  8
0
 10
648.0
 20
509.0
 30
0.0
 11
648.0
 21
508.0
 31
0.0
  0
LINE
  8
0
 10
648.0
 20
508.0
 30
0.0
 11
642.0
 21
508.0
 31
0.0
  0
LINE
  8
0
 10
642.0
 20
508.0
 30
0.0
 11
642.0
 21
509.0
 31
0.0
  0
LINE
  8
0
 10
334.0
 20
508.0
 30
0.0
 11
606.0
 21
508.0
 31
0.0
  0
LINE
  8
0
 10
606.0
 20
508.0
 30
0.0
 11
606.0
 21
507.0
 31
0.0
  0
LINE
  8
0
 10
606.0
 20
507.0
 30
0.0
 11
334.0
 21
507.0
 31
0.0
  0
LINE
  8
0
 10
334.0
 20
507.0
 30
0.0
 11
334.0
 21
508.0
 31
0.0
  0
LINE
  8
0
 10
621.0
 20
508.0
 30
0.0
 11
626.0
 21
508.0
 31
0.0
  0
LINE
  8
0
 10
626.0
 20
508.0
 30
0.0
 11
626.0
 21
507.0
 31
0.0
  0
LINE
  8
0
 10
626.0
 20
507.0
 30
0.0
 11
621.0
 21
507.0
 31
0.0
  0
LINE
  8
0
 10
621.0
 20
507.0
 30
0.0
 11
621.0
 21
508.0
 31
0.0
  0
LINE
  8
0
 10
644.0
 20
508.0
 30
0.0
 11
650.0
 21
508.0
 31
0.0
  0
LINE
  8
0
 10
650.0
 20
508.0
 30
0.0
 11
650.0
 21
507.0
 31
0.0
  0
LINE
  8
0
 10
650.0
 20
507.0
 30
0.0
 11
644.0
 21
507.0
 31
0.0
  0
LINE
  8
0
 10
644.0
 20
507.0
 30
0.0
 11
644.0
 21
508.0
 31
0.0
  0
LINE
  8
0
 10
334.0
 20
507.0
 30
0.0
 11
620.0
 21
507.0
 31
0.0
  0
LINE
  8
0
 10
620.0
 20
507.0
 30
0.0
 11
620.0
 21
506.0
 31
0.0
  0
LINE
  8
0
 10
620.0
 20
506.0
 30
0.0
 11
334.0
 21
506.0
 31
0.0
  0
LINE
  8
0
 10
334.0
 20
506.0
 30
0.0
 11
334.0
 21
507.0
 31
0.0
  0
LINE
  8
0
 10
621.0
 20
507.0
 30
0.0
 11
625.0
 21
507.0
 31
0.0
  0
LINE
  8
0
 10
625.0
 20
507.0
 30
0.0
 11
625.0
 21
506.0
 31
0.0
  0
LINE
  8
0
 10
625.0
 20
506.0
 30
0.0
 11
621.0
 21
506.0
 31
0.0
  0
LINE
  8
0
 10
621.0
 20
506.0
 30
0.0
 11
621.0
 21
507.0
 31
0.0
  0
LINE
  8
0
 10
645.0
 20
507.0
 30
0.0
 11
651.0
 21
507.0
 31
0.0
  0
LINE
  8
0
 10
651.0
 20
507.0
 30
0.0
 11
651.0
 21
506.0
 31
0.0
  0
LINE
  8
0
 10
651.0
 20
506.0
 30
0.0
 11
645.0
 21
506.0
 31
0.0
  0
LINE
  8
0
 10
645.0
 20
506.0
 30
0.0
 11
645.0
 21
507.0
 31
0.0
  0
LINE
  8
0
 10
334.0
 20
506.0
 30
0.0
 11
640.0
 21
506.0
 31
0.0
  0
LINE
  8
0
 10
640.0
 20
506.0
 30
0.0
 11
640.0
 21
505.0
 31
0.0
  0
LINE
  8
0
 10
640.0
 20
505.0
 30
0.0
 11
334.0
 21
505.0
 31
0.0
  0
LINE
  8
0
 10
334.0
 20
505.0
 30
0.0
 11
334.0
 21
506.0
 31
0.0
  0
LINE
  8
0
 10
647.0
 20
506.0
 30
0.0
 11
653.0
 21
506.0
 31
0.0
  0
LINE
  8
0
 10
653.0
 20
506.0
 30
0.0
 11
653.0
 21
505.0
 31
0.0
  0
LINE
  8
0
 10
653.0
 20
505.0
 30
0.0
 11
647.0
 21
505.0
 31
0.0
  0
LINE
  8
0
 10
647.0
 20
505.0
 30
0.0
 11
647.0
 21
506.0
 31
0.0
  0
LINE
  8
0
 10
334.0
 20
505.0
 30
0.0
 11
657.0
 21
505.0
 31
0.0
  0
LINE
  8
0
 10
657.0
 20
505.0
 30
0.0
 11
657.0
 21
504.0
 31
0.0
  0
LINE
  8
0
 10
657.0
 20
504.0
 30
0.0
 11
334.0
 21
504.0
 31
0.0
  0
LINE
  8
0
 10
334.0
 20
504.0
 30
0.0
 11
334.0
 21
505.0
 31
0.0
  0
LINE
  8
0
 10
334.0
 20
504.0
 30
0.0
 11
661.0
 21
504.0
 31
0.0
  0
LINE
  8
0
 10
661.0
 20
504.0
 30
0.0
 11
661.0
 21
503.0
 31
0.0
  0
LINE
  8
0
 10
661.0
 20
503.0
 30
0.0
 11
334.0
 21
503.0
 31
0.0
  0
LINE
  8
0
 10
334.0
 20
503.0
 30
0.0
 11
334.0
 21
504.0
 31
0.0
  0
LINE
  8
0
 10
335.0
 20
503.0
 30
0.0
 11
359.0
 21
503.0
 31
0.0
  0
LINE
  8
0
 10
359.0
 20
503.0
 30
0.0
 11
359.0
 21
502.0
 31
0.0
  0
LINE
  8
0
 10
359.0
 20
502.0
 30
0.0
 11
335.0
 21
502.0
 31
0.0
  0
LINE
  8
0
 10
335.0
 20
502.0
 30
0.0
 11
335.0
 21
503.0
 31
0.0
  0
LINE
  8
0
 10
362.0
 20
503.0
 30
0.0
 11
666.0
 21
503.0
 31
0.0
  0
LINE
  8
0
 10
666.0
 20
503.0
 30
0.0
 11
666.0
 21
502.0
 31
0.0
  0
LINE
  8
0
 10
666.0
 20
502.0
 30
0.0
 11
362.0
 21
502.0
 31
0.0
  0
LINE
  8
0
 10
362.0
 20
502.0
 30
0.0
 11
362.0
 21
503.0
 31
0.0
  0
LINE
  8
0
 10
356.0
 20
502.0
 30
0.0
 11
670.0
 21
502.0
 31
0.0
  0
LINE
  8
0
 10
670.0
 20
502.0
 30
0.0
 11
670.0
 21
501.0
 31
0.0
  0
LINE
  8
0
 10
670.0
 20
501.0
 30
0.0
 11
356.0
 21
501.0
 31
0.0
  0
LINE
  8
0
 10
356.0
 20
501.0
 30
0.0
 11
356.0
 21
502.0
 31
0.0
  0
LINE
  8
0
 10
350.0
 20
501.0
 30
0.0
 11
674.0
 21
501.0
 31
0.0
  0
LINE
  8
0
 10
674.0
 20
501.0
 30
0.0
 11
674.0
 21
500.0
 31
0.0
  0
LINE
  8
0
 10
674.0
 20
500.0
 30
0.0
 11
350.0
 21
500.0
 31
0.0
  0
LINE
  8
0
 10
350.0
 20
500.0
 30
0.0
 11
350.0
 21
501.0
 31
0.0
  0
LINE
  8
0
 10
338.0
 20
500.0
 30
0.0
 11
341.0
 21
500.0
 31
0.0
  0
LINE
  8
0
 10
341.0
 20
500.0
 30
0.0
 11
341.0
 21
499.0
 31
0.0
  0
LINE
  8
0
 10
341.0
 20
499.0
 30
0.0
 11
338.0
 21
499.0
 31
0.0
  0
LINE
  8
0
 10
338.0
 20
499.0
 30
0.0
 11
338.0
 21
500.0
 31
0.0
  0
LINE
  8
0
 10
345.0
 20
500.0
 30
0.0
 11
678.0
 21
500.0
 31
0.0
  0
LINE
  8
0
 10
678.0
 20
500.0
 30
0.0
 11
678.0
 21
499.0
 31
0.0
  0
LINE
  8
0
 10
678.0
 20
499.0
 30
0.0
 11
345.0
 21
499.0
 31
0.0
  0
LINE
  8
0
 10
345.0
 20
499.0
 30
0.0
 11
345.0
 21
500.0
 31
0.0
  0
LINE
  8
0
 10
340.0
 20
499.0
 30
0.0
 11
682.0
 21
499.0
 31
0.0
  0
LINE
  8
0
 10
682.0
 20
499.0
 30
0.0
 11
682.0
 21
498.0
 31
0.0
  0
LINE
  8
0
 10
682.0
 20
498.0
 30
0.0
 11
340.0
 21
498.0
 31
0.0
  0
LINE
  8
0
 10
340.0
 20
498.0
 30
0.0
 11
340.0
 21
499.0
 31
0.0
  0
LINE
  8
0
 10
336.0
 20
498.0
 30
0.0
 11
685.0
 21
498.0
 31
0.0
  0
LINE
  8
0
 10
685.0
 20
498.0
 30
0.0
 11
685.0
 21
497.0
 31
0.0
  0
LINE
  8
0
 10
685.0
 20
497.0
 30
0.0
 11
336.0
 21
497.0
 31
0.0
  0
LINE
  8
0
 10
336.0
 20
497.0
 30
0.0
 11
336.0
 21
498.0
 31
0.0
  0
LINE
  8
0
 10
332.0
 20
497.0
 30
0.0
 11
689.0
 21
497.0
 31
0.0
  0
LINE
  8
0
 10
689.0
 20
497.0
 30
0.0
 11
689.0
 21
496.0
 31
0.0
  0
LINE
  8
0
 10
689.0
 20
496.0
 30
0.0
 11
332.0
 21
496.0
 31
0.0
  0
LINE
  8
0
 10
332.0
 20
496.0
 30
0.0
 11
332.0
 21
497.0
 31
0.0
  0
LINE
  8
0
 10
329.0
 20
496.0
 30
0.0
 11
693.0
 21
496.0
 31
0.0
  0
LINE
  8
0
 10
693.0
 20
496.0
 30
0.0
 11
693.0
 21
495.0
 31
0.0
  0
LINE
  8
0
 10
693.0
 20
495.0
 30
0.0
 11
329.0
 21
495.0
 31
0.0
  0
LINE
  8
0
 10
329.0
 20
495.0
 30
0.0
 11
329.0
 21
496.0
 31
0.0
  0
LINE
  8
0
 10
328.0
 20
495.0
 30
0.0
 11
696.0
 21
495.0
 31
0.0
  0
LINE
  8
0
 10
696.0
 20
495.0
 30
0.0
 11
696.0
 21
494.0
 31
0.0
  0
LINE
  8
0
 10
696.0
 20
494.0
 30
0.0
 11
328.0
 21
494.0
 31
0.0
  0
LINE
  8
0
 10
328.0
 20
494.0
 30
0.0
 11
328.0
 21
495.0
 31
0.0
  0
LINE
  8
0
 10
327.0
 20
494.0
 30
0.0
 11
699.0
 21
494.0
 31
0.0
  0
LINE
  8
0
 10
699.0
 20
494.0
 30
0.0
 11
699.0
 21
493.0
 31
0.0
  0
LINE
  8
0
 10
699.0
 20
493.0
 30
0.0
 11
327.0
 21
493.0
 31
0.0
  0
LINE
  8
0
 10
327.0
 20
493.0
 30
0.0
 11
327.0
 21
494.0
 31
0.0
  0
LINE
  8
0
 10
326.0
 20
493.0
 30
0.0
 11
702.0
 21
493.0
 31
0.0
  0
LINE
  8
0
 10
702.0
 20
493.0
 30
0.0
 11
702.0
 21
492.0
 31
0.0
  0
LINE
  8
0
 10
702.0
 20
492.0
 30
0.0
 11
326.0
 21
492.0
 31
0.0
  0
LINE
  8
0
 10
326.0
 20
492.0
 30
0.0
 11
326.0
 21
493.0
 31
0.0
  0
LINE
  8
0
 10
326.0
 20
492.0
 30
0.0
 11
704.0
 21
492.0
 31
0.0
  0
LINE
  8
0
 10
704.0
 20
492.0
 30
0.0
 11
704.0
 21
491.0
 31
0.0
  0
LINE
  8
0
 10
704.0
 20
491.0
 30
0.0
 11
326.0
 21
491.0
 31
0.0
  0
LINE
  8
0
 10
326.0
 20
491.0
 30
0.0
 11
326.0
 21
492.0
 31
0.0
  0
LINE
  8
0
 10
325.0
 20
491.0
 30
0.0
 11
707.0
 21
491.0
 31
0.0
  0
LINE
  8
0
 10
707.0
 20
491.0
 30
0.0
 11
707.0
 21
490.0
 31
0.0
  0
LINE
  8
0
 10
707.0
 20
490.0
 30
0.0
 11
325.0
 21
490.0
 31
0.0
  0
LINE
  8
0
 10
325.0
 20
490.0
 30
0.0
 11
325.0
 21
491.0
 31
0.0
  0
LINE
  8
0
 10
325.0
 20
490.0
 30
0.0
 11
710.0
 21
490.0
 31
0.0
  0
LINE
  8
0
 10
710.0
 20
490.0
 30
0.0
 11
710.0
 21
489.0
 31
0.0
  0
LINE
  8
0
 10
710.0
 20
489.0
 30
0.0
 11
325.0
 21
489.0
 31
0.0
  0
LINE
  8
0
 10
325.0
 20
489.0
 30
0.0
 11
325.0
 21
490.0
 31
0.0
  0
LINE
  8
0
 10
325.0
 20
489.0
 30
0.0
 11
713.0
 21
489.0
 31
0.0
  0
LINE
  8
0
 10
713.0
 20
489.0
 30
0.0
 11
713.0
 21
488.0
 31
0.0
  0
LINE
  8
0
 10
713.0
 20
488.0
 30
0.0
 11
325.0
 21
488.0
 31
0.0
  0
LINE
  8
0
 10
325.0
 20
488.0
 30
0.0
 11
325.0
 21
489.0
 31
0.0
  0
LINE
  8
0
 10
325.0
 20
488.0
 30
0.0
 11
715.0
 21
488.0
 31
0.0
  0
LINE
  8
0
 10
715.0
 20
488.0
 30
0.0
 11
715.0
 21
487.0
 31
0.0
  0
LINE
  8
0
 10
715.0
 20
487.0
 30
0.0
 11
325.0
 21
487.0
 31
0.0
  0
LINE
  8
0
 10
325.0
 20
487.0
 30
0.0
 11
325.0
 21
488.0
 31
0.0
  0
LINE
  8
0
 10
325.0
 20
487.0
 30
0.0
 11
718.0
 21
487.0
 31
0.0
  0
LINE
  8
0
 10
718.0
 20
487.0
 30
0.0
 11
718.0
 21
486.0
 31
0.0
  0
LINE
  8
0
 10
718.0
 20
486.0
 30
0.0
 11
325.0
 21
486.0
 31
0.0
  0
LINE
  8
0
 10
325.0
 20
486.0
 30
0.0
 11
325.0
 21
487.0
 31
0.0
  0
LINE
  8
0
 10
325.0
 20
486.0
 30
0.0
 11
720.0
 21
486.0
 31
0.0
  0
LINE
  8
0
 10
720.0
 20
486.0
 30
0.0
 11
720.0
 21
485.0
 31
0.0
  0
LINE
  8
0
 10
720.0
 20
485.0
 30
0.0
 11
325.0
 21
485.0
 31
0.0
  0
LINE
  8
0
 10
325.0
 20
485.0
 30
0.0
 11
325.0
 21
486.0
 31
0.0
  0
LINE
  8
0
 10
318.0
 20
485.0
 30
0.0
 11
731.0
 21
485.0
 31
0.0
  0
LINE
  8
0
 10
731.0
 20
485.0
 30
0.0
 11
731.0
 21
484.0
 31
0.0
  0
LINE
  8
0
 10
731.0
 20
484.0
 30
0.0
 11
318.0
 21
484.0
 31
0.0
  0
LINE
  8
0
 10
318.0
 20
484.0
 30
0.0
 11
318.0
 21
485.0
 31
0.0
  0
LINE
  8
0
 10
308.0
 20
484.0
 30
0.0
 11
733.0
 21
484.0
 31
0.0
  0
LINE
  8
0
 10
733.0
 20
484.0
 30
0.0
 11
733.0
 21
483.0
 31
0.0
  0
LINE
  8
0
 10
733.0
 20
483.0
 30
0.0
 11
308.0
 21
483.0
 31
0.0
  0
LINE
  8
0
 10
308.0
 20
483.0
 30
0.0
 11
308.0
 21
484.0
 31
0.0
  0
LINE
  8
0
 10
302.0
 20
483.0
 30
0.0
 11
732.0
 21
483.0
 31
0.0
  0
LINE
  8
0
 10
732.0
 20
483.0
 30
0.0
 11
732.0
 21
482.0
 31
0.0
  0
LINE
  8
0
 10
732.0
 20
482.0
 30
0.0
 11
302.0
 21
482.0
 31
0.0
  0
LINE
  8
0
 10
302.0
 20
482.0
 30
0.0
 11
302.0
 21
483.0
 31
0.0
  0
LINE
  8
0
 10
298.0
 20
482.0
 30
0.0
 11
716.0
 21
482.0
 31
0.0
  0
LINE
  8
0
 10
716.0
 20
482.0
 30
0.0
 11
716.0
 21
481.0
 31
0.0
  0
LINE
  8
0
 10
716.0
 20
481.0
 30
0.0
 11
298.0
 21
481.0
 31
0.0
  0
LINE
  8
0
 10
298.0
 20
481.0
 30
0.0
 11
298.0
 21
482.0
 31
0.0
  0
LINE
  8
0
 10
296.0
 20
481.0
 30
0.0
 11
713.0
 21
481.0
 31
0.0
  0
LINE
  8
0
 10
713.0
 20
481.0
 30
0.0
 11
713.0
 21
480.0
 31
0.0
  0
LINE
  8
0
 10
713.0
 20
480.0
 30
0.0
 11
296.0
 21
480.0
 31
0.0
  0
LINE
  8
0
 10
296.0
 20
480.0
 30
0.0
 11
296.0
 21
481.0
 31
0.0
  0
LINE
  8
0
 10
296.0
 20
480.0
 30
0.0
 11
708.0
 21
480.0
 31
0.0
  0
LINE
  8
0
 10
708.0
 20
480.0
 30
0.0
 11
708.0
 21
479.0
 31
0.0
  0
LINE
  8
0
 10
708.0
 20
479.0
 30
0.0
 11
296.0
 21
479.0
 31
0.0
  0
LINE
  8
0
 10
296.0
 20
479.0
 30
0.0
 11
296.0
 21
480.0
 31
0.0
  0
LINE
  8
0
 10
310.0
 20
479.0
 30
0.0
 11
703.0
 21
479.0
 31
0.0
  0
LINE
  8
0
 10
703.0
 20
479.0
 30
0.0
 11
703.0
 21
478.0
 31
0.0
  0
LINE
  8
0
 10
703.0
 20
478.0
 30
0.0
 11
310.0
 21
478.0
 31
0.0
  0
LINE
  8
0
 10
310.0
 20
478.0
 30
0.0
 11
310.0
 21
479.0
 31
0.0
  0
LINE
  8
0
 10
308.0
 20
478.0
 30
0.0
 11
695.0
 21
478.0
 31
0.0
  0
LINE
  8
0
 10
695.0
 20
478.0
 30
0.0
 11
695.0
 21
477.0
 31
0.0
  0
LINE
  8
0
 10
695.0
 20
477.0
 30
0.0
 11
308.0
 21
477.0
 31
0.0
  0
LINE
  8
0
 10
308.0
 20
477.0
 30
0.0
 11
308.0
 21
478.0
 31
0.0
  0
LINE
  8
0
 10
306.0
 20
477.0
 30
0.0
 11
592.0
 21
477.0
 31
0.0
  0
LINE
  8
0
 10
592.0
 20
477.0
 30
0.0
 11
592.0
 21
476.0
 31
0.0
  0
LINE
  8
0
 10
592.0
 20
476.0
 30
0.0
 11
306.0
 21
476.0
 31
0.0
  0
LINE
  8
0
 10
306.0
 20
476.0
 30
0.0
 11
306.0
 21
477.0
 31
0.0
  0
LINE
  8
0
 10
596.0
 20
477.0
 30
0.0
 11
684.0
 21
477.0
 31
0.0
  0
LINE
  8
0
 10
684.0
 20
477.0
 30
0.0
 11
684.0
 21
476.0
 31
0.0
  0
LINE
  8
0
 10
684.0
 20
476.0
 30
0.0
 11
596.0
 21
476.0
 31
0.0
  0
LINE
  8
0
 10
596.0
 20
476.0
 30
0.0
 11
596.0
 21
477.0
 31
0.0
  0
LINE
  8
0
 10
304.0
 20
476.0
 30
0.0
 11
590.0
 21
476.0
 31
0.0
  0
LINE
  8
0
 10
590.0
 20
476.0
 30
0.0
 11
590.0
 21
475.0
 31
0.0
  0
LINE
  8
0
 10
590.0
 20
475.0
 30
0.0
 11
304.0
 21
475.0
 31
0.0
  0
LINE
  8
0
 10
304.0
 20
475.0
 30
0.0
 11
304.0
 21
476.0
 31
0.0
  0
LINE
  8
0
 10
302.0
 20
475.0
 30
0.0
 11
600.0
 21
475.0
 31
0.0
  0
LINE
  8
0
 10
600.0
 20
475.0
 30
0.0
 11
600.0
 21
474.0
 31
0.0
  0
LINE
  8
0
 10
600.0
 20
474.0
 30
0.0
 11
302.0
 21
474.0
 31
0.0
  0
LINE
  8
0
 10
302.0
 20
474.0
 30
0.0
 11
302.0
 21
475.0
 31
0.0
  0
LINE
  8
0
 10
301.0
 20
474.0
 30
0.0
 11
600.0
 21
474.0
 31
0.0
  0
LINE
  8
0
 10
600.0
 20
474.0
 30
0.0
 11
600.0
 21
473.0
 31
0.0
  0
LINE
  8
0
 10
600.0
 20
473.0
 30
0.0
 11
301.0
 21
473.0
 31
0.0
  0
LINE
  8
0
 10
301.0
 20
473.0
 30
0.0
 11
301.0
 21
474.0
 31
0.0
  0
LINE
  8
0
 10
299.0
 20
473.0
 30
0.0
 11
598.0
 21
473.0
 31
0.0
  0
LINE
  8
0
 10
598.0
 20
473.0
 30
0.0
 11
598.0
 21
472.0
 31
0.0
  0
LINE
  8
0
 10
598.0
 20
472.0
 30
0.0
 11
299.0
 21
472.0
 31
0.0
  0
LINE
  8
0
 10
299.0
 20
472.0
 30
0.0
 11
299.0
 21
473.0
 31
0.0
  0
LINE
  8
0
 10
297.0
 20
472.0
 30
0.0
 11
595.0
 21
472.0
 31
0.0
  0
LINE
  8
0
 10
595.0
 20
472.0
 30
0.0
 11
595.0
 21
471.0
 31
0.0
  0
LINE
  8
0
 10
595.0
 20
471.0
 30
0.0
 11
297.0
 21
471.0
 31
0.0
  0
LINE
  8
0
 10
297.0
 20
471.0
 30
0.0
 11
297.0
 21
472.0
 31
0.0
  0
LINE
  8
0
 10
296.0
 20
471.0
 30
0.0
 11
591.0
 21
471.0
 31
0.0
  0
LINE
  8
0
 10
591.0
 20
471.0
 30
0.0
 11
591.0
 21
470.0
 31
0.0
  0
LINE
  8
0
 10
591.0
 20
470.0
 30
0.0
 11
296.0
 21
470.0
 31
0.0
  0
LINE
  8
0
 10
296.0
 20
470.0
 30
0.0
 11
296.0
 21
471.0
 31
0.0
  0
LINE
  8
0
 10
294.0
 20
470.0
 30
0.0
 11
593.0
 21
470.0
 31
0.0
  0
LINE
  8
0
 10
593.0
 20
470.0
 30
0.0
 11
593.0
 21
469.0
 31
0.0
  0
LINE
  8
0
 10
593.0
 20
469.0
 30
0.0
 11
294.0
 21
469.0
 31
0.0
  0
LINE
  8
0
 10
294.0
 20
469.0
 30
0.0
 11
294.0
 21
470.0
 31
0.0
  0
LINE
  8
0
 10
292.0
 20
469.0
 30
0.0
 11
595.0
 21
469.0
 31
0.0
  0
LINE
  8
0
 10
595.0
 20
469.0
 30
0.0
 11
595.0
 21
468.0
 31
0.0
  0
LINE
  8
0
 10
595.0
 20
468.0
 30
0.0
 11
292.0
 21
468.0
 31
0.0
  0
LINE
  8
0
 10
292.0
 20
468.0
 30
0.0
 11
292.0
 21
469.0
 31
0.0
  0
LINE
  8
0
 10
291.0
 20
468.0
 30
0.0
 11
325.0
 21
468.0
 31
0.0
  0
LINE
  8
0
 10
325.0
 20
468.0
 30
0.0
 11
325.0
 21
467.0
 31
0.0
  0
LINE
  8
0
 10
325.0
 20
467.0
 30
0.0
 11
291.0
 21
467.0
 31
0.0
  0
LINE
  8
0
 10
291.0
 20
467.0
 30
0.0
 11
291.0
 21
468.0
 31
0.0
  0
LINE
  8
0
 10
330.0
 20
468.0
 30
0.0
 11
596.0
 21
468.0
 31
0.0
  0
LINE
  8
0
 10
596.0
 20
468.0
 30
0.0
 11
596.0
 21
467.0
 31
0.0
  0
LINE
  8
0
 10
596.0
 20
467.0
 30
0.0
 11
330.0
 21
467.0
 31
0.0
  0
LINE
  8
0
 10
330.0
 20
467.0
 30
0.0
 11
330.0
 21
468.0
 31
0.0
  0
LINE
  8
0
 10
290.0
 20
467.0
 30
0.0
 11
320.0
 21
467.0
 31
0.0
  0
LINE
  8
0
 10
320.0
 20
467.0
 30
0.0
 11
320.0
 21
466.0
 31
0.0
  0
LINE
  8
0
 10
320.0
 20
466.0
 30
0.0
 11
290.0
 21
466.0
 31
0.0
  0
LINE
  8
0
 10
290.0
 20
466.0
 30
0.0
 11
290.0
 21
467.0
 31
0.0
  0
LINE
  8
0
 10
334.0
 20
467.0
 30
0.0
 11
597.0
 21
467.0
 31
0.0
  0
LINE
  8
0
 10
597.0
 20
467.0
 30
0.0
 11
597.0
 21
466.0
 31
0.0
  0
LINE
  8
0
 10
597.0
 20
466.0
 30
0.0
 11
334.0
 21
466.0
 31
0.0
  0
LINE
  8
0
 10
334.0
 20
466.0
 30
0.0
 11
334.0
 21
467.0
 31
0.0
  0
LINE
  8
0
 10
291.0
 20
466.0
 30
0.0
 11
315.0
 21
466.0
 31
0.0
  0
LINE
  8
0
 10
315.0
 20
466.0
 30
0.0
 11
315.0
 21
465.0
 31
0.0
  0
LINE
  8
0
 10
315.0
 20
465.0
 30
0.0
 11
291.0
 21
465.0
 31
0.0
  0
LINE
  8
0
 10
291.0
 20
465.0
 30
0.0
 11
291.0
 21
466.0
 31
0.0
  0
LINE
  8
0
 10
339.0
 20
466.0
 30
0.0
 11
598.0
 21
466.0
 31
0.0
  0
LINE
  8
0
 10
598.0
 20
466.0
 30
0.0
 11
598.0
 21
465.0
 31
0.0
  0
LINE
  8
0
 10
598.0
 20
465.0
 30
0.0
 11
339.0
 21
465.0
 31
0.0
  0
LINE
  8
0
 10
339.0
 20
465.0
 30
0.0
 11
339.0
 21
466.0
 31
0.0
  0
LINE
  8
0
 10
345.0
 20
465.0
 30
0.0
 11
598.0
 21
465.0
 31
0.0
  0
LINE
  8
0
 10
598.0
 20
465.0
 30
0.0
 11
598.0
 21
464.0
 31
0.0
  0
LINE
  8
0
 10
598.0
 20
464.0
 30
0.0
 11
345.0
 21
464.0
 31
0.0
  0
LINE
  8
0
 10
345.0
 20
464.0
 30
0.0
 11
345.0
 21
465.0
 31
0.0
  0
LINE
  8
0
 10
351.0
 20
464.0
 30
0.0
 11
598.0
 21
464.0
 31
0.0
  0
LINE
  8
0
 10
598.0
 20
464.0
 30
0.0
 11
598.0
 21
463.0
 31
0.0
  0
LINE
  8
0
 10
598.0
 20
463.0
 30
0.0
 11
351.0
 21
463.0
 31
0.0
  0
LINE
  8
0
 10
351.0
 20
463.0
 30
0.0
 11
351.0
 21
464.0
 31
0.0
  0
LINE
  8
0
 10
358.0
 20
463.0
 30
0.0
 11
598.0
 21
463.0
 31
0.0
  0
LINE
  8
0
 10
598.0
 20
463.0
 30
0.0
 11
598.0
 21
462.0
 31
0.0
  0
LINE
  8
0
 10
598.0
 20
462.0
 30
0.0
 11
358.0
 21
462.0
 31
0.0
  0
LINE
  8
0
 10
358.0
 20
462.0
 30
0.0
 11
358.0
 21
463.0
 31
0.0
  0
LINE
  8
0
 10
368.0
 20
462.0
 30
0.0
 11
597.0
 21
462.0
 31
0.0
  0
LINE
  8
0
 10
597.0
 20
462.0
 30
0.0
 11
597.0
 21
461.0
 31
0.0
  0
LINE
  8
0
 10
597.0
 20
461.0
 30
0.0
 11
368.0
 21
461.0
 31
0.0
  0
LINE
  8
0
 10
368.0
 20
461.0
 30
0.0
 11
368.0
 21
462.0
 31
0.0
  0
LINE
  8
0
 10
376.0
 20
461.0
 30
0.0
 11
597.0
 21
461.0
 31
0.0
  0
LINE
  8
0
 10
597.0
 20
461.0
 30
0.0
 11
597.0
 21
460.0
 31
0.0
  0
LINE
  8
0
 10
597.0
 20
460.0
 30
0.0
 11
376.0
 21
460.0
 31
0.0
  0
LINE
  8
0
 10
376.0
 20
460.0
 30
0.0
 11
376.0
 21
461.0
 31
0.0
  0
LINE
  8
0
 10
375.0
 20
460.0
 30
0.0
 11
596.0
 21
460.0
 31
0.0
  0
LINE
  8
0
 10
596.0
 20
460.0
 30
0.0
 11
596.0
 21
459.0
 31
0.0
  0
LINE
  8
0
 10
596.0
 20
459.0
 30
0.0
 11
375.0
 21
459.0
 31
0.0
  0
LINE
  8
0
 10
375.0
 20
459.0
 30
0.0
 11
375.0
 21
460.0
 31
0.0
  0
LINE
  8
0
 10
375.0
 20
459.0
 30
0.0
 11
595.0
 21
459.0
 31
0.0
  0
LINE
  8
0
 10
595.0
 20
459.0
 30
0.0
 11
595.0
 21
458.0
 31
0.0
  0
LINE
  8
0
 10
595.0
 20
458.0
 30
0.0
 11
375.0
 21
458.0
 31
0.0
  0
LINE
  8
0
 10
375.0
 20
458.0
 30
0.0
 11
375.0
 21
459.0
 31
0.0
  0
LINE
  8
0
 10
374.0
 20
458.0
 30
0.0
 11
593.0
 21
458.0
 31
0.0
  0
LINE
  8
0
 10
593.0
 20
458.0
 30
0.0
 11
593.0
 21
457.0
 31
0.0
  0
LINE
  8
0
 10
593.0
 20
457.0
 30
0.0
 11
374.0
 21
457.0
 31
0.0
  0
LINE
  8
0
 10
374.0
 20
457.0
 30
0.0
 11
374.0
 21
458.0
 31
0.0
  0
LINE
  8
0
 10
374.0
 20
457.0
 30
0.0
 11
589.0
 21
457.0
 31
0.0
  0
LINE
  8
0
 10
589.0
 20
457.0
 30
0.0
 11
589.0
 21
456.0
 31
0.0
  0
LINE
  8
0
 10
589.0
 20
456.0
 30
0.0
 11
374.0
 21
456.0
 31
0.0
  0
LINE
  8
0
 10
374.0
 20
456.0
 30
0.0
 11
374.0
 21
457.0
 31
0.0
  0
LINE
  8
0
 10
373.0
 20
456.0
 30
0.0
 11
527.0
 21
456.0
 31
0.0
  0
LINE
  8
0
 10
527.0
 20
456.0
 30
0.0
 11
527.0
 21
455.0
 31
0.0
  0
LINE
  8
0
 10
527.0
 20
455.0
 30
0.0
 11
373.0
 21
455.0
 31
0.0
  0
LINE
  8
0
 10
373.0
 20
455.0
 30
0.0
 11
373.0
 21
456.0
 31
0.0
  0
LINE
  8
0
 10
534.0
 20
456.0
 30
0.0
 11
579.0
 21
456.0
 31
0.0
  0
LINE
  8
0
 10
579.0
 20
456.0
 30
0.0
 11
579.0
 21
455.0
 31
0.0
  0
LINE
  8
0
 10
579.0
 20
455.0
 30
0.0
 11
534.0
 21
455.0
 31
0.0
  0
LINE
  8
0
 10
534.0
 20
455.0
 30
0.0
 11
534.0
 21
456.0
 31
0.0
  0
LINE
  8
0
 10
372.0
 20
455.0
 30
0.0
 11
530.0
 21
455.0
 31
0.0
  0
LINE
  8
0
 10
530.0
 20
455.0
 30
0.0
 11
530.0
 21
454.0
 31
0.0
  0
LINE
  8
0
 10
530.0
 20
454.0
 30
0.0
 11
372.0
 21
454.0
 31
0.0
  0
LINE
  8
0
 10
372.0
 20
454.0
 30
0.0
 11
372.0
 21
455.0
 31
0.0
  0
LINE
  8
0
 10
372.0
 20
454.0
 30
0.0
 11
533.0
 21
454.0
 31
0.0
  0
LINE
  8
0
 10
533.0
 20
454.0
 30
0.0
 11
533.0
 21
453.0
 31
0.0
  0
LINE
  8
0
 10
533.0
 20
453.0
 30
0.0
 11
372.0
 21
453.0
 31
0.0
  0
LINE
  8
0
 10
372.0
 20
453.0
 30
0.0
 11
372.0
 21
454.0
 31
0.0
  0
LINE
  8
0
 10
536.0
 20
454.0
 30
0.0
 11
538.0
 21
454.0
 31
0.0
  0
LINE
  8
0
 10
538.0
 20
454.0
 30
0.0
 11
538.0
 21
453.0
 31
0.0
  0
LINE
  8
0
 10
538.0
 20
453.0
 30
0.0
 11
536.0
 21
453.0
 31
0.0
  0
LINE
  8
0
 10
536.0
 20
453.0
 30
0.0
 11
536.0
 21
454.0
 31
0.0
  0
LINE
  8
0
 10
371.0
 20
453.0
 30
0.0
 11
535.0
 21
453.0
 31
0.0
  0
LINE
  8
0
 10
535.0
 20
453.0
 30
0.0
 11
535.0
 21
452.0
 31
0.0
  0
LINE
  8
0
 10
535.0
 20
452.0
 30
0.0
 11
371.0
 21
452.0
 31
0.0
  0
LINE
  8
0
 10
371.0
 20
452.0
 30
0.0
 11
371.0
 21
453.0
 31
0.0
  0
LINE
  8
0
 10
371.0
 20
452.0
 30
0.0
 11
537.0
 21
452.0
 31
0.0
  0
LINE
  8
0
 10
537.0
 20
452.0
 30
0.0
 11
537.0
 21
451.0
 31
0.0
  0
LINE
  8
0
 10
537.0
 20
451.0
 30
0.0
 11
371.0
 21
451.0
 31
0.0
  0
LINE
  8
0
 10
371.0
 20
451.0
 30
0.0
 11
371.0
 21
452.0
 31
0.0
  0
LINE
  8
0
 10
371.0
 20
451.0
 30
0.0
 11
539.0
 21
451.0
 31
0.0
  0
LINE
  8
0
 10
539.0
 20
451.0
 30
0.0
 11
539.0
 21
450.0
 31
0.0
  0
LINE
  8
0
 10
539.0
 20
450.0
 30
0.0
 11
371.0
 21
450.0
 31
0.0
  0
LINE
  8
0
 10
371.0
 20
450.0
 30
0.0
 11
371.0
 21
451.0
 31
0.0
  0
LINE
  8
0
 10
373.0
 20
450.0
 30
0.0
 11
540.0
 21
450.0
 31
0.0
  0
LINE
  8
0
 10
540.0
 20
450.0
 30
0.0
 11
540.0
 21
449.0
 31
0.0
  0
LINE
  8
0
 10
540.0
 20
449.0
 30
0.0
 11
373.0
 21
449.0
 31
0.0
  0
LINE
  8
0
 10
373.0
 20
449.0
 30
0.0
 11
373.0
 21
450.0
 31
0.0
  0
LINE
  8
0
 10
378.0
 20
449.0
 30
0.0
 11
541.0
 21
449.0
 31
0.0
  0
LINE
  8
0
 10
541.0
 20
449.0
 30
0.0
 11
541.0
 21
448.0
 31
0.0
  0
LINE
  8
0
 10
541.0
 20
448.0
 30
0.0
 11
378.0
 21
448.0
 31
0.0
  0
LINE
  8
0
 10
378.0
 20
448.0
 30
0.0
 11
378.0
 21
449.0
 31
0.0
  0
LINE
  8
0
 10
383.0
 20
448.0
 30
0.0
 11
542.0
 21
448.0
 31
0.0
  0
LINE
  8
0
 10
542.0
 20
448.0
 30
0.0
 11
542.0
 21
447.0
 31
0.0
  0
LINE
  8
0
 10
542.0
 20
447.0
 30
0.0
 11
383.0
 21
447.0
 31
0.0
  0
LINE
  8
0
 10
383.0
 20
447.0
 30
0.0
 11
383.0
 21
448.0
 31
0.0
  0
LINE
  8
0
 10
389.0
 20
447.0
 30
0.0
 11
542.0
 21
447.0
 31
0.0
  0
LINE
  8
0
 10
542.0
 20
447.0
 30
0.0
 11
542.0
 21
446.0
 31
0.0
  0
LINE
  8
0
 10
542.0
 20
446.0
 30
0.0
 11
389.0
 21
446.0
 31
0.0
  0
LINE
  8
0
 10
389.0
 20
446.0
 30
0.0
 11
389.0
 21
447.0
 31
0.0
  0
LINE
  8
0
 10
394.0
 20
446.0
 30
0.0
 11
541.0
 21
446.0
 31
0.0
  0
LINE
  8
0
 10
541.0
 20
446.0
 30
0.0
 11
541.0
 21
445.0
 31
0.0
  0
LINE
  8
0
 10
541.0
 20
445.0
 30
0.0
 11
394.0
 21
445.0
 31
0.0
  0
LINE
  8
0
 10
394.0
 20
445.0
 30
0.0
 11
394.0
 21
446.0
 31
0.0
  0
LINE
  8
0
 10
400.0
 20
445.0
 30
0.0
 11
540.0
 21
445.0
 31
0.0
  0
LINE
  8
0
 10
540.0
 20
445.0
 30
0.0
 11
540.0
 21
444.0
 31
0.0
  0
LINE
  8
0
 10
540.0
 20
444.0
 30
0.0
 11
400.0
 21
444.0
 31
0.0
  0
LINE
  8
0
 10
400.0
 20
444.0
 30
0.0
 11
400.0
 21
445.0
 31
0.0
  0
LINE
  8
0
 10
405.0
 20
444.0
 30
0.0
 11
539.0
 21
444.0
 31
0.0
  0
LINE
  8
0
 10
539.0
 20
444.0
 30
0.0
 11
539.0
 21
443.0
 31
0.0
  0
LINE
  8
0
 10
539.0
 20
443.0
 30
0.0
 11
405.0
 21
443.0
 31
0.0
  0
LINE
  8
0
 10
405.0
 20
443.0
 30
0.0
 11
405.0
 21
444.0
 31
0.0
  0
LINE
  8
0
 10
406.0
 20
443.0
 30
0.0
 11
537.0
 21
443.0
 31
0.0
  0
LINE
  8
0
 10
537.0
 20
443.0
 30
0.0
 11
537.0
 21
442.0
 31
0.0
  0
LINE
  8
0
 10
537.0
 20
442.0
 30
0.0
 11
406.0
 21
442.0
 31
0.0
  0
LINE
  8
0
 10
406.0
 20
442.0
 30
0.0
 11
406.0
 21
443.0
 31
0.0
  0
LINE
  8
0
 10
407.0
 20
442.0
 30
0.0
 11
415.0
 21
442.0
 31
0.0
  0
LINE
  8
0
 10
415.0
 20
442.0
 30
0.0
 11
415.0
 21
441.0
 31
0.0
  0
LINE
  8
0
 10
415.0
 20
441.0
 30
0.0
 11
407.0
 21
441.0
 31
0.0
  0
LINE
  8
0
 10
407.0
 20
441.0
 30
0.0
 11
407.0
 21
442.0
 31
0.0
  0
LINE
  8
0
 10
416.0
 20
442.0
 30
0.0
 11
535.0
 21
442.0
 31
0.0
  0
LINE
  8
0
 10
535.0
 20
442.0
 30
0.0
 11
535.0
 21
441.0
 31
0.0
  0
LINE
  8
0
 10
535.0
 20
441.0
 30
0.0
 11
416.0
 21
441.0
 31
0.0
  0
LINE
  8
0
 10
416.0
 20
441.0
 30
0.0
 11
416.0
 21
442.0
 31
0.0
  0
LINE
  8
0
 10
408.0
 20
441.0
 30
0.0
 11
414.0
 21
441.0
 31
0.0
  0
LINE
  8
0
 10
414.0
 20
441.0
 30
0.0
 11
414.0
 21
440.0
 31
0.0
  0
LINE
  8
0
 10
414.0
 20
440.0
 30
0.0
 11
408.0
 21
440.0
 31
0.0
  0
LINE
  8
0
 10
408.0
 20
440.0
 30
0.0
 11
408.0
 21
441.0
 31
0.0
  0
LINE
  8
0
 10
421.0
 20
441.0
 30
0.0
 11
532.0
 21
441.0
 31
0.0
  0
LINE
  8
0
 10
532.0
 20
441.0
 30
0.0
 11
532.0
 21
440.0
 31
0.0
  0
LINE
  8
0
 10
532.0
 20
440.0
 30
0.0
 11
421.0
 21
440.0
 31
0.0
  0
LINE
  8
0
 10
421.0
 20
440.0
 30
0.0
 11
421.0
 21
441.0
 31
0.0
  0
LINE
  8
0
 10
410.0
 20
440.0
 30
0.0
 11
412.0
 21
440.0
 31
0.0
  0
LINE
  8
0
 10
412.0
 20
440.0
 30
0.0
 11
412.0
 21
439.0
 31
0.0
  0
LINE
  8
0
 10
412.0
 20
439.0
 30
0.0
 11
410.0
 21
439.0
 31
0.0
  0
LINE
  8
0
 10
410.0
 20
439.0
 30
0.0
 11
410.0
 21
440.0
 31
0.0
  0
LINE
  8
0
 10
423.0
 20
440.0
 30
0.0
 11
529.0
 21
440.0
 31
0.0
  0
LINE
  8
0
 10
529.0
 20
440.0
 30
0.0
 11
529.0
 21
439.0
 31
0.0
  0
LINE
  8
0
 10
529.0
 20
439.0
 30
0.0
 11
423.0
 21
439.0
 31
0.0
  0
LINE
  8
0
 10
423.0
 20
439.0
 30
0.0
 11
423.0
 21
440.0
 31
0.0
  0
LINE
  8
0
 10
423.0
 20
439.0
 30
0.0
 11
523.0
 21
439.0
 31
0.0
  0
LINE
  8
0
 10
523.0
 20
439.0
 30
0.0
 11
523.0
 21
438.0
 31
0.0
  0
LINE
  8
0
 10
523.0
 20
438.0
 30
0.0
 11
423.0
 21
438.0
 31
0.0
  0
LINE
  8
0
 10
423.0
 20
438.0
 30
0.0
 11
423.0
 21
439.0
 31
0.0
  0
LINE
  8
0
 10
423.0
 20
438.0
 30
0.0
 11
452.0
 21
438.0
 31
0.0
  0
LINE
  8
0
 10
452.0
 20
438.0
 30
0.0
 11
452.0
 21
437.0
 31
0.0
  0
LINE
  8
0
 10
452.0
 20
437.0
 30
0.0
 11
423.0
 21
437.0
 31
0.0
  0
LINE
  8
0
 10
423.0
 20
437.0
 30
0.0
 11
423.0
 21
438.0
 31
0.0
  0
LINE
  8
0
 10
474.0
 20
438.0
 30
0.0
 11
511.0
 21
438.0
 31
0.0
  0
LINE
  8
0
 10
511.0
 20
438.0
 30
0.0
 11
511.0
 21
437.0
 31
0.0
  0
LINE
  8
0
 10
511.0
 20
437.0
 30
0.0
 11
474.0
 21
437.0
 31
0.0
  0
LINE
  8
0
 10
474.0
 20
437.0
 30
0.0
 11
474.0
 21
438.0
 31
0.0
  0
LINE
  8
0
 10
423.0
 20
437.0
 30
0.0
 11
452.0
 21
437.0
 31
0.0
  0
LINE
  8
0
 10
452.0
 20
437.0
 30
0.0
 11
452.0
 21
436.0
 31
0.0
  0
LINE
  8
0
 10
452.0
 20
436.0
 30
0.0
 11
423.0
 21
436.0
 31
0.0
  0
LINE
  8
0
 10
423.0
 20
436.0
 30
0.0
 11
423.0
 21
437.0
 31
0.0
  0
LINE
  8
0
 10
426.0
 20
436.0
 30
0.0
 11
452.0
 21
436.0
 31
0.0
  0
LINE
  8
0
 10
452.0
 20
436.0
 30
0.0
 11
452.0
 21
435.0
 31
0.0
  0
LINE
  8
0
 10
452.0
 20
435.0
 30
0.0
 11
426.0
 21
435.0
 31
0.0
  0
LINE
  8
0
 10
426.0
 20
435.0
 30
0.0
 11
426.0
 21
436.0
 31
0.0
  0
LINE
  8
0
 10
439.0
 20
435.0
 30
0.0
 11
451.0
 21
435.0
 31
0.0
  0
LINE
  8
0
 10
451.0
 20
435.0
 30
0.0
 11
451.0
 21
434.0
 31
0.0
  0
LINE
  8
0
 10
451.0
 20
434.0
 30
0.0
 11
439.0
 21
434.0
 31
0.0
  0
LINE
  8
0
 10
439.0
 20
434.0
 30
0.0
 11
439.0
 21
435.0
 31
0.0
  0
ENDSEC
  0
EOF