<svg xmlns="http://www.w3.org/2000/svg" viewBox="0 0 1024 1024" width="1024" height="1024">
  <path d="M459,452 h3 v1 h-3 z M469,452 h48 v1 h-48 z M459,453 h4 v1 h-4 z M470,453 h48 v1 h-48 z M459,454 h4 v1 h-4 z M470,454 h49 v1 h-49 z M459,455 h5 v1 h-5 z M471,455 h49 v1 h-49 z M459,456 h6 v1 h-6 z M472,456 h48 v1 h-48 z M459,457 h6 v1 h-6 z M472,457 h49 v1 h-49 z M459,458 h7 v1 h-7 z M473,458 h49 v1 h-49 z M459,459 h7 v1 h-7 z M473,459 h50 v1 h-50 z M459,460 h8 v1 h-8 z M475,460 h48 v1 h-48 z M459,461 h8 v1 h-8 z M476,461 h48 v1 h-48 z M459,462 h9 v1 h-9 z M477,462 h48 v1 h-48 z M459,463 h9 v1 h-9 z M478,463 h47 v1 h-47 z M459,464 h10 v1 h-10 z M480,464 h46 v1 h-46 z M459,465 h10 v1 h-10 z M482,465 h45 v1 h-45 z M459,466 h11 v1 h-11 z M483,466 h44 v1 h-44 z M459,467 h11 v1 h-11 z M485,467 h43 v1 h-43 z M459,468 h11 v1 h-11 z M488,468 h40 v1 h-40 z M459,469 h12 v1 h-12 z M490,469 h39 v1 h-39 z M459,470 h12 v1 h-12 z M493,470 h37 v1 h-37 z M459,471 h12 v1 h-12 z M496,471 h34 v1 h-34 z M459,472 h13 v1 h-13 z M479,472 h2 v1 h-2 z M500,472 h31 v1 h-31 z M459,473 h13 v1 h-13 z M479,473 h4 v1 h-4 z M503,473 h28 v1 h-28 z M459,474 h13 v1 h-13 z M480,474 h6 v1 h-6 z M507,474 h25 v1 h-25 z M459,475 h13 v1 h-13 z M480,475 h8 v1 h-8 z M509,475 h23 v1 h-23 z M459,476 h13 v1 h-13 z M481,476 h9 v1 h-9 z M512,476 h21 v1 h-21 z M459,477 h13 v1 h-13 z M481,477 h11 v1 h-11 z M514,477 h19 v1 h-19 z M459,478 h13 v1 h-13 z M481,478 h14 v1 h-14 z M516,478 h18 v1 h-18 z M459,479 h13 v1 h-13 z M482,479 h16 v1 h-16 z M518,479 h16 v1 h-16 z M459,480 h13 v1 h-13 z M482,480 h20 v1 h-20 z M520,480 h14 v1 h-14 z M459,481 h14 v1 h-14 z M483,481 h22 v1 h-22 z M522,481 h13 v1 h-13 z M459,482 h14 v1 h-14 z M483,482 h25 v1 h-25 z M524,482 h11 v1 h-11 z M459,483 h13 v1 h-13 z M484,483 h27 v1 h-27 z M526,483 h10 v1 h-10 z M459,484 h13 v1 h-13 z M484,484 h29 v1 h-29 z M527,484 h9 v1 h-9 z M459,485 h13 v1 h-13 z M484,485 h32 v1 h-32 z M528,485 h9 v1 h-9 z M459,486 h13 v1 h-13 z M485,486 h33 v1 h-33 z M530,486 h7 v1 h-7 z M459,487 h12 v1 h-12 z M485,487 h35 v1 h-35 z M531,487 h6 v1 h-6 z M459,488 h12 v1 h-12 z M477,488 h2 v1 h-2 z M486,488 h36 v1 h-36 z M532,488 h5 v1 h-5 z M459,489 h12 v1 h-12 z M477,489 h3 v1 h-3 z M486,489 h37 v1 h-37 z M533,489 h5 v1 h-5 z M459,490 h11 v1 h-11 z M477,490 h3 v1 h-3 z M486,490 h39 v1 h-39 z M534,490 h4 v1 h-4 z M459,491 h11 v1 h-11 z M477,491 h3 v1 h-3 z M486,491 h40 v1 h-40 z M535,491 h3 v1 h-3 z M459,492 h11 v1 h-11 z M477,492 h4 v1 h-4 z M487,492 h40 v1 h-40 z M536,492 h3 v1 h-3 z M459,493 h11 v1 h-11 z M476,493 h5 v1 h-5 z M487,493 h42 v1 h-42 z M537,493 h1 v1 h-1 z M459,494 h10 v1 h-10 z M476,494 h5 v1 h-5 z M487,494 h43 v1 h-43 z M459,495 h10 v1 h-10 z M476,495 h5 v1 h-5 z M488,495 h43 v1 h-43 z M459,496 h9 v1 h-9 z M475,496 h7 v1 h-7 z M488,496 h44 v1 h-44 z M459,497 h9 v1 h-9 z M475,497 h7 v1 h-7 z M488,497 h45 v1 h-45 z M459,498 h8 v1 h-8 z M475,498 h7 v1 h-7 z M488,498 h46 v1 h-46 z M461,499 h6 v1 h-6 z M474,499 h8 v1 h-8 z M489,499 h46 v1 h-46 z M462,500 h4 v1 h-4 z M474,500 h9 v1 h-9 z M489,500 h46 v1 h-46 z M463,501 h3 v1 h-3 z M473,501 h10 v1 h-10 z M489,501 h47 v1 h-47 z M464,502 h2 v1 h-2 z M473,502 h10 v1 h-10 z M489,502 h48 v1 h-48 z M472,503 h11 v1 h-11 z M489,503 h48 v1 h-48 z M472,504 h11 v1 h-11 z M490,504 h48 v1 h-48 z M471,505 h12 v1 h-12 z M490,505 h48 v1 h-48 z M459,506 h1 v1 h-1 z M471,506 h13 v1 h-13 z M491,506 h48 v1 h-48 z M459,507 h2 v1 h-2 z M470,507 h14 v1 h-14 z M492,507 h47 v1 h-47 z M459,508 h4 v1 h-4 z M469,508 h15 v1 h-15 z M493,508 h47 v1 h-47 z M459,509 h5 v1 h-5 z M468,509 h16 v1 h-16 z M493,509 h47 v1 h-47 z M459,510 h7 v1 h-7 z M468,510 h16 v1 h-16 z M494,510 h46 v1 h-46 z M459,511 h25 v1 h-25 z M495,511 h46 v1 h-46 z M459,512 h25 v1 h-25 z M496,512 h45 v1 h-45 z M459,513 h25 v1 h-25 z M498,513 h43 v1 h-43 z M459,514 h25 v1 h-25 z M499,514 h42 v1 h-42 z M459,515 h25 v1 h-25 z M500,515 h42 v1 h-42 z M459,516 h25 v1 h-25 z M501,516 h41 v1 h-41 z M459,517 h25 v1 h-25 z M491,517 h1 v1 h-1 z M503,517 h39 v1 h-39 z M459,518 h25 v1 h-25 z M490,518 h3 v1 h-3 z M505,518 h37 v1 h-37 z M459,519 h25 v1 h-25 z M490,519 h4 v1 h-4 z M507,519 h35 v1 h-35 z M459,520 h25 v1 h-25 z M490,520 h5 v1 h-5 z M509,520 h34 v1 h-34 z M459,521 h25 v1 h-25 z M490,521 h6 v1 h-6 z M511,521 h32 v1 h-32 z M459,522 h25 v1 h-25 z M490,522 h7 v1 h-7 z M513,522 h30 v1 h-30 z M459,523 h25 v1 h-25 z M490,523 h8 v1 h-8 z M515,523 h28 v1 h-28 z M459,524 h24 v1 h-24 z M490,524 h10 v1 h-10 z M516,524 h27 v1 h-27 z M459,525 h24 v1 h-24 z M489,525 h12 v1 h-12 z M518,525 h25 v1 h-25 z M459,526 h24 v1 h-24 z M489,526 h14 v1 h-14 z M520,526 h23 v1 h-23 z M459,527 h24 v1 h-24 z M489,527 h16 v1 h-16 z M521,527 h23 v1 h-23 z M459,528 h23 v1 h-23 z M489,528 h19 v1 h-19 z M523,528 h21 v1 h-21 z M459,529 h23 v1 h-23 z M489,529 h20 v1 h-20 z M524,529 h20 v1 h-20 z M459,530 h23 v1 h-23 z M488,530 h23 v1 h-23 z M525,530 h19 v1 h-19 z M459,531 h22 v1 h-22 z M488,531 h25 v1 h-25 z M527,531 h17 v1 h-17 z M459,532 h22 v1 h-22 z M488,532 h26 v1 h-26 z M528,532 h16 v1 h-16 z M459,533 h21 v1 h-21 z M488,533 h28 v1 h-28 z M529,533 h15 v1 h-15 z M459,534 h21 v1 h-21 z M488,534 h29 v1 h-29 z M530,534 h14 v1 h-14 z M459,535 h20 v1 h-20 z M487,535 h32 v1 h-32 z M531,535 h13 v1 h-13 z M460,536 h19 v1 h-19 z M487,536 h33 v1 h-33 z M532,536 h12 v1 h-12 z M460,537 h18 v1 h-18 z M487,537 h34 v1 h-34 z M532,537 h12 v1 h-12 z M461,538 h16 v1 h-16 z M486,538 h36 v1 h-36 z M533,538 h11 v1 h-11 z M462,539 h15 v1 h-15 z M486,539 h37 v1 h-37 z M534,539 h10 v1 h-10 z M463,540 h13 v1 h-13 z M485,540 h38 v1 h-38 z M535,540 h9 v1 h-9 z M464,541 h11 v1 h-11 z M485,541 h34 v1 h-34 z M535,541 h8 v1 h-8 z M465,542 h9 v1 h-9 z M484,542 h33 v1 h-33 z M536,542 h7 v1 h-7 z M466,543 h7 v1 h-7 z M484,543 h31 v1 h-31 z M536,543 h7 v1 h-7 z M466,544 h6 v1 h-6 z M483,544 h31 v1 h-31 z M537,544 h6 v1 h-6 z M467,545 h4 v1 h-4 z M483,545 h29 v1 h-29 z M537,545 h6 v1 h-6 z M468,546 h2 v1 h-2 z M482,546 h28 v1 h-28 z M538,546 h5 v1 h-5 z M482,547 h27 v1 h-27 z M538,547 h5 v1 h-5 z M481,548 h27 v1 h-27 z M539,548 h4 v1 h-4 z M480,549 h26 v1 h-26 z M539,549 h4 v1 h-4 z M480,550 h24 v1 h-24 z M540,550 h2 v1 h-2 z M479,551 h23 v1 h-23 z M540,551 h2 v1 h-2 z M478,552 h23 v1 h-23 z M477,553 h22 v1 h-22 z M476,554 h21 v1 h-21 z M476,555 h19 v1 h-19 z M474,556 h18 v1 h-18 z M474,557 h16 v1 h-16 z M473,558 h14 v1 h-14 z M471,559 h12 v1 h-12 z M470,560 h10 v1 h-10 z M470,561 h6 v1 h-6 z M470,562 h2 v1 h-2 z" fill="#000000" fill-rule="evenodd" />
</svg>