  0
SECTION
  2
HEADER
  9
$ACADVER
  1
AC1009
  0
ENDSEC
  0
SECTION
  2
ENTITIES
  0
LINE
  8
0
 10
469.0
 20
558.0
 30
0.0
 11
499.0
 21
558.0
 31
0.0
  0
LINE
  8
0
 10
499.0
 20
558.0
 30
0.0
 11
499.0
 21
557.0
 31
0.0
  0
LINE
  8
0
 10
499.0
 20
557.0
 30
0.0
 11
469.0
 21
557.0
 31
0.0
  0
LINE
  8
0
 10
469.0
 20
557.0
 30
0.0
 11
469.0
 21
558.0
 31
0.0
  0
LINE
  8
0
 10
508.0
 20
558.0
 30
0.0
 11
516.0
 21
558.0
 31
0.0
  0
LINE
  8
0
 10
516.0
 20
558.0
 30
0.0
 11
516.0
 21
557.0
 31
0.0
  0
LINE
  8
0
 10
516.0
 20
557.0
 30
0.0
 11
508.0
 21
557.0
 31
0.0
  0
LINE
  8
0
 10
508.0
 20
557.0
 30
0.0
 11
508.0
 21
558.0
 31
0.0
  0
LINE
  8
0
 10
531.0
 20
558.0
 30
0.0
 11
555.0
 21
558.0
 31
0.0
  0
LINE
  8
0
 10
555.0
 20
558.0
 30
0.0
 11
555.0
 21
557.0
 31
0.0
  0
LINE
  8
0
 10
555.0
 20
557.0
 30
0.0
 11
531.0
 21
557.0
 31
0.0
  0
LINE
  8
0
 10
531.0
 20
557.0
 30
0.0
 11
531.0
 21
558.0
 31
0.0
  0
LINE
  8
0
 10
469.0
 20
557.0
 30
0.0
 11
498.0
 21
557.0
 31
0.0
  0
LINE
  8
0
 10
498.0
 20
557.0
 30
0.0
 11
498.0
 21
556.0
 31
0.0
  0
LINE
  8
0
 10
498.0
 20
556.0
 30
0.0
 11
469.0
 21
556.0
 31
0.0
  0
LINE
  8
0
 10
469.0
 20
556.0
 30
0.0
 11
469.0
 21
557.0
 31
0.0
  0
LINE
  8
0
 10
507.0
 20
557.0
 30
0.0
 11
517.0
 21
557.0
 31
0.0
  0
LINE
  8
0
 10
517.0
 20
557.0
 30
0.0
 11
517.0
 21
556.0
 31
0.0
  0
LINE
  8
0
 10
517.0
 20
556.0
 30
0.0
 11
507.0
 21
556.0
 31
0.0
  0
LINE
  8
0
 10
507.0
 20
556.0
 30
0.0
 11
507.0
 21
557.0
 31
0.0
  0
LINE
  8
0
 10
533.0
 20
557.0
 30
0.0
 11
555.0
 21
557.0
 31
0.0
  0
LINE
  8
0
 10
555.0
 20
557.0
 30
0.0
 11
555.0
 21
556.0
 31
0.0
  0
LINE
  8
0
 10
555.0
 20
556.0
 30
0.0
 11
533.0
 21
556.0
 31
0.0
  0
LINE
  8
0
 10
533.0
 20
556.0
 30
0.0
 11
533.0
 21
557.0
 31
0.0
  0
LINE
  8
0
 10
469.0
 20
556.0
 30
0.0
 11
498.0
 21
556.0
 31
0.0
  0
LINE
  8
0
 10
498.0
 20
556.0
 30
0.0
 11
498.0
 21
555.0
 31
0.0
  0
LINE
  8
0
 10
498.0
 20
555.0
 30
0.0
 11
469.0
 21
555.0
 31
0.0
  0
LINE
  8
0
 10
469.0
 20
555.0
 30
0.0
 11
469.0
 21
556.0
 31
0.0
  0
LINE
  8
0
 10
506.0
 20
556.0
 30
0.0
 11
518.0
 21
556.0
 31
0.0
  0
LINE
  8
0
 10
518.0
 20
556.0
 30
0.0
 11
518.0
 21
555.0
 31
0.0
  0
LINE
  8
0
 10
518.0
 20
555.0
 30
0.0
 11
506.0
 21
555.0
 31
0.0
  0
LINE
  8
0
 10
506.0
 20
555.0
 30
0.0
 11
506.0
 21
556.0
 31
0.0
  0
LINE
  8
0
 10
539.0
 20
556.0
 30
0.0
 11
551.0
 21
556.0
 31
0.0
  0
LINE
  8
0
 10
551.0
 20
556.0
 30
0.0
 11
551.0
 21
555.0
 31
0.0
  0
LINE
  8
0
 10
551.0
 20
555.0
 30
0.0
 11
539.0
 21
555.0
 31
0.0
  0
LINE
  8
0
 10
539.0
 20
555.0
 30
0.0
 11
539.0
 21
556.0
 31
0.0
  0
LINE
  8
0
 10
469.0
 20
555.0
 30
0.0
 11
497.0
 21
555.0
 31
0.0
  0
LINE
  8
0
 10
497.0
 20
555.0
 30
0.0
 11
497.0
 21
554.0
 31
0.0
  0
LINE
  8
0
 10
497.0
 20
554.0
 30
0.0
 11
469.0
 21
554.0
 31
0.0
  0
LINE
  8
0
 10
469.0
 20
554.0
 30
0.0
 11
469.0
 21
555.0
 31
0.0
  0
LINE
  8
0
 10
505.0
 20
555.0
 30
0.0
 11
520.0
 21
555.0
 31
0.0
  0
LINE
  8
0
 10
520.0
 20
555.0
 30
0.0
 11
520.0
 21
554.0
 31
0.0
  0
LINE
  8
0
 10
520.0
 20
554.0
 30
0.0
 11
505.0
 21
554.0
 31
0.0
  0
LINE
  8
0
 10
505.0
 20
554.0
 30
0.0
 11
505.0
 21
555.0
 31
0.0
  0
LINE
  8
0
 10
469.0
 20
554.0
 30
0.0
 11
496.0
 21
554.0
 31
0.0
  0
LINE
  8
0
 10
496.0
 20
554.0
 30
0.0
 11
496.0
 21
553.0
 31
0.0
  0
LINE
  8
0
 10
496.0
 20
553.0
 30
0.0
 11
469.0
 21
553.0
 31
0.0
  0
LINE
  8
0
 10
469.0
 20
553.0
 30
0.0
 11
469.0
 21
554.0
 31
0.0
  0
LINE
  8
0
 10
504.0
 20
554.0
 30
0.0
 11
522.0
 21
554.0
 31
0.0
  0
LINE
  8
0
 10
522.0
 20
554.0
 30
0.0
 11
522.0
 21
553.0
 31
0.0
  0
LINE
  8
0
 10
522.0
 20
553.0
 30
0.0
 11
504.0
 21
553.0
 31
0.0
  0
LINE
  8
0
 10
504.0
 20
553.0
 30
0.0
 11
504.0
 21
554.0
 31
0.0
  0
LINE
  8
0
 10
469.0
 20
553.0
 30
0.0
 11
495.0
 21
553.0
 31
0.0
  0
LINE
  8
0
 10
495.0
 20
553.0
 30
0.0
 11
495.0
 21
552.0
 31
0.0
  0
LINE
  8
0
 10
495.0
 20
552.0
 30
0.0
 11
469.0
 21
552.0
 31
0.0
  0
LINE
  8
0
 10
469.0
 20
552.0
 30
0.0
 11
469.0
 21
553.0
 31
0.0
  0
LINE
  8
0
 10
503.0
 20
553.0
 30
0.0
 11
523.0
 21
553.0
 31
0.0
  0
LINE
  8
0
 10
523.0
 20
553.0
 30
0.0
 11
523.0
 21
552.0
 31
0.0
  0
LINE
  8
0
 10
523.0
 20
552.0
 30
0.0
 11
503.0
 21
552.0
 31
0.0
  0
LINE
  8
0
 10
503.0
 20
552.0
 30
0.0
 11
503.0
 21
553.0
 31
0.0
  0
LINE
  8
0
 10
469.0
 20
552.0
 30
0.0
 11
495.0
 21
552.0
 31
0.0
  0
LINE
  8
0
 10
495.0
 20
552.0
 30
0.0
 11
495.0
 21
551.0
 31
0.0
  0
LINE
  8
0
 10
495.0
 20
551.0
 30
0.0
 11
469.0
 21
551.0
 31
0.0
  0
LINE
  8
0
 10
469.0
 20
551.0
 30
0.0
 11
469.0
 21
552.0
 31
0.0
  0
LINE
  8
0
 10
503.0
 20
552.0
 30
0.0
 11
526.0
 21
552.0
 31
0.0
  0
LINE
  8
0
 10
526.0
 20
552.0
 30
0.0
 11
526.0
 21
551.0
 31
0.0
  0
LINE
  8
0
 10
526.0
 20
551.0
 30
0.0
 11
503.0
 21
551.0
 31
0.0
  0
LINE
  8
0
 10
503.0
 20
551.0
 30
0.0
 11
503.0
 21
552.0
 31
0.0
  0
LINE
  8
0
 10
469.0
 20
551.0
 30
0.0
 11
494.0
 21
551.0
 31
0.0
  0
LINE
  8
0
 10
494.0
 20
551.0
 30
0.0
 11
494.0
 21
550.0
 31
0.0
  0
LINE
  8
0
 10
494.0
 20
550.0
 30
0.0
 11
469.0
 21
550.0
 31
0.0
  0
LINE
  8
0
 10
469.0
 20
550.0
 30
0.0
 11
469.0
 21
551.0
 31
0.0
  0
LINE
  8
0
 10
502.0
 20
551.0
 30
0.0
 11
529.0
 21
551.0
 31
0.0
  0
LINE
  8
0
 10
529.0
 20
551.0
 30
0.0
 11
529.0
 21
550.0
 31
0.0
  0
LINE
  8
0
 10
529.0
 20
550.0
 30
0.0
 11
502.0
 21
550.0
 31
0.0
  0
LINE
  8
0
 10
502.0
 20
550.0
 30
0.0
 11
502.0
 21
551.0
 31
0.0
  0
LINE
  8
0
 10
469.0
 20
550.0
 30
0.0
 11
493.0
 21
550.0
 31
0.0
  0
LINE
  8
0
 10
493.0
 20
550.0
 30
0.0
 11
493.0
 21
549.0
 31
0.0
  0
LINE
  8
0
 10
493.0
 20
549.0
 30
0.0
 11
469.0
 21
549.0
 31
0.0
  0
LINE
  8
0
 10
469.0
 20
549.0
 30
0.0
 11
469.0
 21
550.0
 31
0.0
  0
LINE
  8
0
 10
501.0
 20
550.0
 30
0.0
 11
533.0
 21
550.0
 31
0.0
  0
LINE
  8
0
 10
533.0
 20
550.0
 30
0.0
 11
533.0
 21
549.0
 31
0.0
  0
LINE
  8
0
 10
533.0
 20
549.0
 30
0.0
 11
501.0
 21
549.0
 31
0.0
  0
LINE
  8
0
 10
501.0
 20
549.0
 30
0.0
 11
501.0
 21
550.0
 31
0.0
  0
LINE
  8
0
 10
469.0
 20
549.0
 30
0.0
 11
492.0
 21
549.0
 31
0.0
  0
LINE
  8
0
 10
492.0
 20
549.0
 30
0.0
 11
492.0
 21
548.0
 31
0.0
  0
LINE
  8
0
 10
492.0
 20
548.0
 30
0.0
 11
469.0
 21
548.0
 31
0.0
  0
LINE
  8
0
 10
469.0
 20
548.0
 30
0.0
 11
469.0
 21
549.0
 31
0.0
  0
LINE
  8
0
 10
501.0
 20
549.0
 30
0.0
 11
536.0
 21
549.0
 31
0.0
  0
LINE
  8
0
 10
536.0
 20
549.0
 30
0.0
 11
536.0
 21
548.0
 31
0.0
  0
LINE
  8
0
 10
536.0
 20
548.0
 30
0.0
 11
501.0
 21
548.0
 31
0.0
  0
LINE
  8
0
 10
501.0
 20
548.0
 30
0.0
 11
501.0
 21
549.0
 31
0.0
  0
LINE
  8
0
 10
469.0
 20
548.0
 30
0.0
 11
492.0
 21
548.0
 31
0.0
  0
LINE
  8
0
 10
492.0
 20
548.0
 30
0.0
 11
492.0
 21
547.0
 31
0.0
  0
LINE
  8
0
 10
492.0
 20
547.0
 30
0.0
 11
469.0
 21
547.0
 31
0.0
  0
LINE
  8
0
 10
469.0
 20
547.0
 30
0.0
 11
469.0
 21
548.0
 31
0.0
  0
LINE
  8
0
 10
500.0
 20
548.0
 30
0.0
 11
535.0
 21
548.0
 31
0.0
  0
LINE
  8
0
 10
535.0
 20
548.0
 30
0.0
 11
535.0
 21
547.0
 31
0.0
  0
LINE
  8
0
 10
535.0
 20
547.0
 30
0.0
 11
500.0
 21
547.0
 31
0.0
  0
LINE
  8
0
 10
500.0
 20
547.0
 30
0.0
 11
500.0
 21
548.0
 31
0.0
  0
LINE
  8
0
 10
469.0
 20
547.0
 30
0.0
 11
491.0
 21
547.0
 31
0.0
  0
LINE
  8
0
 10
491.0
 20
547.0
 30
0.0
 11
491.0
 21
546.0
 31
0.0
  0
LINE
  8
0
 10
491.0
 20
546.0
 30
0.0
 11
469.0
 21
546.0
 31
0.0
  0
LINE
  8
0
 10
469.0
 20
546.0
 30
0.0
 11
469.0
 21
547.0
 31
0.0
  0
LINE
  8
0
 10
500.0
 20
547.0
 30
0.0
 11
535.0
 21
547.0
 31
0.0
  0
LINE
  8
0
 10
535.0
 20
547.0
 30
0.0
 11
535.0
 21
546.0
 31
0.0
  0
LINE
  8
0
 10
535.0
 20
546.0
 30
0.0
 11
500.0
 21
546.0
 31
0.0
  0
LINE
  8
0
 10
500.0
 20
546.0
 30
0.0
 11
500.0
 21
547.0
 31
0.0
  0
LINE
  8
0
 10
469.0
 20
546.0
 30
0.0
 11
489.0
 21
546.0
 31
0.0
  0
LINE
  8
0
 10
489.0
 20
546.0
 30
0.0
 11
489.0
 21
545.0
 31
0.0
  0
LINE
  8
0
 10
489.0
 20
545.0
 30
0.0
 11
469.0
 21
545.0
 31
0.0
  0
LINE
  8
0
 10
469.0
 20
545.0
 30
0.0
 11
469.0
 21
546.0
 31
0.0
  0
LINE
  8
0
 10
499.0
 20
546.0
 30
0.0
 11
534.0
 21
546.0
 31
0.0
  0
LINE
  8
0
 10
534.0
 20
546.0
 30
0.0
 11
534.0
 21
545.0
 31
0.0
  0
LINE
  8
0
 10
534.0
 20
545.0
 30
0.0
 11
499.0
 21
545.0
 31
0.0
  0
LINE
  8
0
 10
499.0
 20
545.0
 30
0.0
 11
499.0
 21
546.0
 31
0.0
  0
LINE
  8
0
 10
469.0
 20
545.0
 30
0.0
 11
488.0
 21
545.0
 31
0.0
  0
LINE
  8
0
 10
488.0
 20
545.0
 30
0.0
 11
488.0
 21
544.0
 31
0.0
  0
LINE
  8
0
 10
488.0
 20
544.0
 30
0.0
 11
469.0
 21
544.0
 31
0.0
  0
LINE
  8
0
 10
469.0
 20
544.0
 30
0.0
 11
469.0
 21
545.0
 31
0.0
  0
LINE
  8
0
 10
499.0
 20
545.0
 30
0.0
 11
533.0
 21
545.0
 31
0.0
  0
LINE
  8
0
 10
533.0
 20
545.0
 30
0.0
 11
533.0
 21
544.0
 31
0.0
  0
LINE
  8
0
 10
533.0
 20
544.0
 30
0.0
 11
499.0
 21
544.0
 31
0.0
  0
LINE
  8
0
 10
499.0
 20
544.0
 30
0.0
 11
499.0
 21
545.0
 31
0.0
  0
LINE
  8
0
 10
469.0
 20
544.0
 30
0.0
 11
487.0
 21
544.0
 31
0.0
  0
LINE
  8
0
 10
487.0
 20
544.0
 30
0.0
 11
487.0
 21
543.0
 31
0.0
  0
LINE
  8
0
 10
487.0
 20
543.0
 30
0.0
 11
469.0
 21
543.0
 31
0.0
  0
LINE
  8
0
 10
469.0
 20
543.0
 30
0.0
 11
469.0
 21
544.0
 31
0.0
  0
LINE
  8
0
 10
500.0
 20
544.0
 30
0.0
 11
532.0
 21
544.0
 31
0.0
  0
LINE
  8
0
 10
532.0
 20
544.0
 30
0.0
 11
532.0
 21
543.0
 31
0.0
  0
LINE
  8
0
 10
532.0
 20
543.0
 30
0.0
 11
500.0
 21
543.0
 31
0.0
  0
LINE
  8
0
 10
500.0
 20
543.0
 30
0.0
 11
500.0
 21
544.0
 31
0.0
  0
LINE
  8
0
 10
469.0
 20
543.0
 30
0.0
 11
485.0
 21
543.0
 31
0.0
  0
LINE
  8
0
 10
485.0
 20
543.0
 30
0.0
 11
485.0
 21
542.0
 31
0.0
  0
LINE
  8
0
 10
485.0
 20
542.0
 30
0.0
 11
469.0
 21
542.0
 31
0.0
  0
LINE
  8
0
 10
469.0
 20
542.0
 30
0.0
 11
469.0
 21
543.0
 31
0.0
  0
LINE
  8
0
 10
500.0
 20
543.0
 30
0.0
 11
532.0
 21
543.0
 31
0.0
  0
LINE
  8
0
 10
532.0
 20
543.0
 30
0.0
 11
532.0
 21
542.0
 31
0.0
  0
LINE
  8
0
 10
532.0
 20
542.0
 30
0.0
 11
500.0
 21
542.0
 31
0.0
  0
LINE
  8
0
 10
500.0
 20
542.0
 30
0.0
 11
500.0
 21
543.0
 31
0.0
  0
LINE
  8
0
 10
469.0
 20
542.0
 30
0.0
 11
483.0
 21
542.0
 31
0.0
  0
LINE
  8
0
 10
483.0
 20
542.0
 30
0.0
 11
483.0
 21
541.0
 31
0.0
  0
LINE
  8
0
 10
483.0
 20
541.0
 30
0.0
 11
469.0
 21
541.0
 31
0.0
  0
LINE
  8
0
 10
469.0
 20
541.0
 30
0.0
 11
469.0
 21
542.0
 31
0.0
  0
LINE
  8
0
 10
501.0
 20
542.0
 30
0.0
 11
531.0
 21
542.0
 31
0.0
  0
LINE
  8
0
 10
531.0
 20
542.0
 30
0.0
 11
531.0
 21
541.0
 31
0.0
  0
LINE
  8
0
 10
531.0
 20
541.0
 30
0.0
 11
501.0
 21
541.0
 31
0.0
  0
LINE
  8
0
 10
501.0
 20
541.0
 30
0.0
 11
501.0
 21
542.0
 31
0.0
  0
LINE
  8
0
 10
469.0
 20
541.0
 30
0.0
 11
480.0
 21
541.0
 31
0.0
  0
LINE
  8
0
 10
480.0
 20
541.0
 30
0.0
 11
480.0
 21
540.0
 31
0.0
  0
LINE
  8
0
 10
480.0
 20
540.0
 30
0.0
 11
469.0
 21
540.0
 31
0.0
  0
LINE
  8
0
 10
469.0
 20
540.0
 30
0.0
 11
469.0
 21
541.0
 31
0.0
  0
LINE
  8
0
 10
501.0
 20
541.0
 30
0.0
 11
531.0
 21
541.0
 31
0.0
  0
LINE
  8
0
 10
531.0
 20
541.0
 30
0.0
 11
531.0
 21
540.0
 31
0.0
  0
LINE
  8
0
 10
531.0
 20
540.0
 30
0.0
 11
501.0
 21
540.0
 31
0.0
  0
LINE
  8
0
 10
501.0
 20
540.0
 30
0.0
 11
501.0
 21
541.0
 31
0.0
  0
LINE
  8
0
 10
471.0
 20
540.0
 30
0.0
 11
477.0
 21
540.0
 31
0.0
  0
LINE
  8
0
 10
477.0
 20
540.0
 30
0.0
 11
477.0
 21
539.0
 31
0.0
  0
LINE
  8
0
 10
477.0
 20
539.0
 30
0.0
 11
471.0
 21
539.0
 31
0.0
  0
LINE
  8
0
 10
471.0
 20
539.0
 30
0.0
 11
471.0
 21
540.0
 31
0.0
  0
LINE
  8
0
 10
502.0
 20
540.0
 30
0.0
 11
530.0
 21
540.0
 31
0.0
  0
LINE
  8
0
 10
530.0
 20
540.0
 30
0.0
 11
530.0
 21
539.0
 31
0.0
  0
LINE
  8
0
 10
530.0
 20
539.0
 30
0.0
 11
502.0
 21
539.0
 31
0.0
  0
LINE
  8
0
 10
502.0
 20
539.0
 30
0.0
 11
502.0
 21
540.0
 31
0.0
  0
LINE
  8
0
 10
503.0
 20
539.0
 30
0.0
 11
530.0
 21
539.0
 31
0.0
  0
LINE
  8
0
 10
530.0
 20
539.0
 30
0.0
 11
530.0
 21
538.0
 31
0.0
  0
LINE
  8
0
 10
530.0
 20
538.0
 30
0.0
 11
503.0
 21
538.0
 31
0.0
  0
LINE
  8
0
 10
503.0
 20
538.0
 30
0.0
 11
503.0
 21
539.0
 31
0.0
  0
LINE
  8
0
 10
494.0
 20
538.0
 30
0.0
 11
497.0
 21
538.0
 31
0.0
  0
LINE
  8
0
 10
497.0
 20
538.0
 30
0.0
 11
497.0
 21
537.0
 31
0.0
  0
LINE
  8
0
 10
497.0
 20
537.0
 30
0.0
 11
494.0
 21
537.0
 31
0.0
  0
LINE
  8
0
 10
494.0
 20
537.0
 30
0.0
 11
494.0
 21
538.0
 31
0.0
  0
LINE
  8
0
 10
503.0
 20
538.0
 30
0.0
 11
529.0
 21
538.0
 31
0.0
  0
LINE
  8
0
 10
529.0
 20
538.0
 30
0.0
 11
529.0
 21
537.0
 31
0.0
  0
LINE
  8
0
 10
529.0
 20
537.0
 30
0.0
 11
503.0
 21
537.0
 31
0.0
  0
LINE
  8
0
 10
503.0
 20
537.0
 30
0.0
 11
503.0
 21
538.0
 31
0.0
  0
LINE
  8
0
 10
494.0
 20
537.0
 30
0.0
 11
497.0
 21
537.0
 31
0.0
  0
LINE
  8
0
 10
497.0
 20
537.0
 30
0.0
 11
497.0
 21
536.0
 31
0.0
  0
LINE
  8
0
 10
497.0
 20
536.0
 30
0.0
 11
494.0
 21
536.0
 31
0.0
  0
LINE
  8
0
 10
494.0
 20
536.0
 30
0.0
 11
494.0
 21
537.0
 31
0.0
  0
LINE
  8
0
 10
504.0
 20
537.0
 30
0.0
 11
529.0
 21
537.0
 31
0.0
  0
LINE
  8
0
 10
529.0
 20
537.0
 30
0.0
 11
529.0
 21
536.0
 31
0.0
  0
LINE
  8
0
 10
529.0
 20
536.0
 30
0.0
 11
504.0
 21
536.0
 31
0.0
  0
LINE
  8
0
 10
504.0
 20
536.0
 30
0.0
 11
504.0
 21
537.0
 31
0.0
  0
LINE
  8
0
 10
494.0
 20
536.0
 30
0.0
 11
498.0
 21
536.0
 31
0.0
  0
LINE
  8
0
 10
498.0
 20
536.0
 30
0.0
 11
498.0
 21
535.0
 31
0.0
  0
LINE
  8
0
 10
498.0
 20
535.0
 30
0.0
 11
494.0
 21
535.0
 31
0.0
  0
LINE
  8
0
 10
494.0
 20
535.0
 30
0.0
 11
494.0
 21
536.0
 31
0.0
  0
LINE
  8
0
 10
505.0
 20
536.0
 30
0.0
 11
528.0
 21
536.0
 31
0.0
  0
LINE
  8
0
 10
528.0
 20
536.0
 30
0.0
 11
528.0
 21
535.0
 31
0.0
  0
LINE
  8
0
 10
528.0
 20
535.0
 30
0.0
 11
505.0
 21
535.0
 31
0.0
  0
LINE
  8
0
 10
505.0
 20
535.0
 30
0.0
 11
505.0
 21
536.0
 31
0.0
  0
LINE
  8
0
 10
469.0
 20
535.0
 30
0.0
 11
470.0
 21
535.0
 31
0.0
  0
LINE
  8
0
 10
470.0
 20
535.0
 30
0.0
 11
470.0
 21
534.0
 31
0.0
  0
LINE
  8
0
 10
470.0
 20
534.0
 30
0.0
 11
469.0
 21
534.0
 31
0.0
  0
LINE
  8
0
 10
469.0
 20
534.0
 30
0.0
 11
469.0
 21
535.0
 31
0.0
  0
LINE
  8
0
 10
484.0
 20
535.0
 30
0.0
 11
486.0
 21
535.0
 31
0.0
  0
LINE
  8
0
 10
486.0
 20
535.0
 30
0.0
 11
486.0
 21
534.0
 31
0.0
  0
LINE
  8
0
 10
486.0
 20
534.0
 30
0.0
 11
484.0
 21
534.0
 31
0.0
  0
LINE
  8
0
 10
484.0
 20
534.0
 30
0.0
 11
484.0
 21
535.0
 31
0.0
  0
LINE
  8
0
 10
493.0
 20
535.0
 30
0.0
 11
498.0
 21
535.0
 31
0.0
  0
LINE
  8
0
 10
498.0
 20
535.0
 30
0.0
 11
498.0
 21
534.0
 31
0.0
  0
LINE
  8
0
 10
498.0
 20
534.0
 30
0.0
 11
493.0
 21
534.0
 31
0.0
  0
LINE
  8
0
 10
493.0
 20
534.0
 30
0.0
 11
493.0
 21
535.0
 31
0.0
  0
LINE
  8
0
 10
506.0
 20
535.0
 30
0.0
 11
528.0
 21
535.0
 31
0.0
  0
LINE
  8
0
 10
528.0
 20
535.0
 30
0.0
 11
528.0
 21
534.0
 31
0.0
  0
LINE
  8
0
 10
528.0
 20
534.0
 30
0.0
 11
506.0
 21
534.0
 31
0.0
  0
LINE
  8
0
 10
506.0
 20
534.0
 30
0.0
 11
506.0
 21
535.0
 31
0.0
  0
LINE
  8
0
 10
469.0
 20
534.0
 30
0.0
 11
471.0
 21
534.0
 31
0.0
  0
LINE
  8
0
 10
471.0
 20
534.0
 30
0.0
 11
471.0
 21
533.0
 31
0.0
  0
LINE
  8
0
 10
471.0
 20
533.0
 30
0.0
 11
469.0
 21
533.0
 31
0.0
  0
LINE
  8
0
 10
469.0
 20
533.0
 30
0.0
 11
469.0
 21
534.0
 31
0.0
  0
LINE
  8
0
 10
482.0
 20
534.0
 30
0.0
 11
486.0
 21
534.0
 31
0.0
  0
LINE
  8
0
 10
486.0
 20
534.0
 30
0.0
 11
486.0
 21
533.0
 31
0.0
  0
LINE
  8
0
 10
486.0
 20
533.0
 30
0.0
 11
482.0
 21
533.0
 31
0.0
  0
LINE
  8
0
 10
482.0
 20
533.0
 30
0.0
 11
482.0
 21
534.0
 31
0.0
  0
LINE
  8
0
 10
493.0
 20
534.0
 30
0.0
 11
499.0
 21
534.0
 31
0.0
  0
LINE
  8
0
 10
499.0
 20
534.0
 30
0.0
 11
499.0
 21
533.0
 31
0.0
  0
LINE
  8
0
 10
499.0
 20
533.0
 30
0.0
 11
493.0
 21
533.0
 31
0.0
  0
LINE
  8
0
 10
493.0
 20
533.0
 30
0.0
 11
493.0
 21
534.0
 31
0.0
  0
LINE
  8
0
 10
507.0
 20
534.0
 30
0.0
 11
528.0
 21
534.0
 31
0.0
  0
LINE
  8
0
 10
528.0
 20
534.0
 30
0.0
 11
528.0
 21
533.0
 31
0.0
  0
LINE
  8
0
 10
528.0
 20
533.0
 30
0.0
 11
507.0
 21
533.0
 31
0.0
  0
LINE
  8
0
 10
507.0
 20
533.0
 30
0.0
 11
507.0
 21
534.0
 31
0.0
  0
LINE
  8
0
 10
469.0
 20
533.0
 30
0.0
 11
473.0
 21
533.0
 31
0.0
  0
LINE
  8
0
 10
473.0
 20
533.0
 30
0.0
 11
473.0
 21
532.0
 31
0.0
  0
LINE
  8
0
 10
473.0
 20
532.0
 30
0.0
 11
469.0
 21
532.0
 31
0.0
  0
LINE
  8
0
 10
469.0
 20
532.0
 30
0.0
 11
469.0
 21
533.0
 31
0.0
  0
LINE
  8
0
 10
479.0
 20
533.0
 30
0.0
 11
486.0
 21
533.0
 31
0.0
  0
LINE
  8
0
 10
486.0
 20
533.0
 30
0.0
 11
486.0
 21
532.0
 31
0.0
  0
LINE
  8
0
 10
486.0
 20
532.0
 30
0.0
 11
479.0
 21
532.0
 31
0.0
  0
LINE
  8
0
 10
479.0
 20
532.0
 30
0.0
 11
479.0
 21
533.0
 31
0.0
  0
LINE
  8
0
 10
492.0
 20
533.0
 30
0.0
 11
500.0
 21
533.0
 31
0.0
  0
LINE
  8
0
 10
500.0
 20
533.0
 30
0.0
 11
500.0
 21
532.0
 31
0.0
  0
LINE
  8
0
 10
500.0
 20
532.0
 30
0.0
 11
492.0
 21
532.0
 31
0.0
  0
LINE
  8
0
 10
492.0
 20
532.0
 30
0.0
 11
492.0
 21
533.0
 31
0.0
  0
LINE
  8
0
 10
508.0
 20
533.0
 30
0.0
 11
527.0
 21
533.0
 31
0.0
  0
LINE
  8
0
 10
527.0
 20
533.0
 30
0.0
 11
527.0
 21
532.0
 31
0.0
  0
LINE
  8
0
 10
527.0
 20
532.0
 30
0.0
 11
508.0
 21
532.0
 31
0.0
  0
LINE
  8
0
 10
508.0
 20
532.0
 30
0.0
 11
508.0
 21
533.0
 31
0.0
  0
LINE
  8
0
 10
469.0
 20
532.0
 30
0.0
 11
486.0
 21
532.0
 31
0.0
  0
LINE
  8
0
 10
486.0
 20
532.0
 30
0.0
 11
486.0
 21
531.0
 31
0.0
  0
LINE
  8
0
 10
486.0
 20
531.0
 30
0.0
 11
469.0
 21
531.0
 31
0.0
  0
LINE
  8
0
 10
469.0
 20
531.0
 30
0.0
 11
469.0
 21
532.0
 31
0.0
  0
LINE
  8
0
 10
492.0
 20
532.0
 30
0.0
 11
500.0
 21
532.0
 31
0.0
  0
LINE
  8
0
 10
500.0
 20
532.0
 30
0.0
 11
500.0
 21
531.0
 31
0.0
  0
LINE
  8
0
 10
500.0
 20
531.0
 30
0.0
 11
492.0
 21
531.0
 31
0.0
  0
LINE
  8
0
 10
492.0
 20
531.0
 30
0.0
 11
492.0
 21
532.0
 31
0.0
  0
LINE
  8
0
 10
509.0
 20
532.0
 30
0.0
 11
527.0
 21
532.0
 31
0.0
  0
LINE
  8
0
 10
527.0
 20
532.0
 30
0.0
 11
527.0
 21
531.0
 31
0.0
  0
LINE
  8
0
 10
527.0
 20
531.0
 30
0.0
 11
509.0
 21
531.0
 31
0.0
  0
LINE
  8
0
 10
509.0
 20
531.0
 30
0.0
 11
509.0
 21
532.0
 31
0.0
  0
LINE
  8
0
 10
469.0
 20
531.0
 30
0.0
 11
485.0
 21
531.0
 31
0.0
  0
LINE
  8
0
 10
485.0
 20
531.0
 30
0.0
 11
485.0
 21
530.0
 31
0.0
  0
LINE
  8
0
 10
485.0
 20
530.0
 30
0.0
 11
469.0
 21
530.0
 31
0.0
  0
LINE
  8
0
 10
469.0
 20
530.0
 30
0.0
 11
469.0
 21
531.0
 31
0.0
  0
LINE
  8
0
 10
492.0
 20
531.0
 30
0.0
 11
501.0
 21
531.0
 31
0.0
  0
LINE
  8
0
 10
501.0
 20
531.0
 30
0.0
 11
501.0
 21
530.0
 31
0.0
  0
LINE
  8
0
 10
501.0
 20
530.0
 30
0.0
 11
492.0
 21
530.0
 31
0.0
  0
LINE
  8
0
 10
492.0
 20
530.0
 30
0.0
 11
492.0
 21
531.0
 31
0.0
  0
LINE
  8
0
 10
511.0
 20
531.0
 30
0.0
 11
527.0
 21
531.0
 31
0.0
  0
LINE
  8
0
 10
527.0
 20
531.0
 30
0.0
 11
527.0
 21
530.0
 31
0.0
  0
LINE
  8
0
 10
527.0
 20
530.0
 30
0.0
 11
511.0
 21
530.0
 31
0.0
  0
LINE
  8
0
 10
511.0
 20
530.0
 30
0.0
 11
511.0
 21
531.0
 31
0.0
  0
LINE
  8
0
 10
469.0
 20
530.0
 30
0.0
 11
485.0
 21
530.0
 31
0.0
  0
LINE
  8
0
 10
485.0
 20
530.0
 30
0.0
 11
485.0
 21
529.0
 31
0.0
  0
LINE
  8
0
 10
485.0
 20
529.0
 30
0.0
 11
469.0
 21
529.0
 31
0.0
  0
LINE
  8
0
 10
469.0
 20
529.0
 30
0.0
 11
469.0
 21
530.0
 31
0.0
  0
LINE
  8
0
 10
491.0
 20
530.0
 30
0.0
 11
502.0
 21
530.0
 31
0.0
  0
LINE
  8
0
 10
502.0
 20
530.0
 30
0.0
 11
502.0
 21
529.0
 31
0.0
  0
LINE
  8
0
 10
502.0
 20
529.0
 30
0.0
 11
491.0
 21
529.0
 31
0.0
  0
LINE
  8
0
 10
491.0
 20
529.0
 30
0.0
 11
491.0
 21
530.0
 31
0.0
  0
LINE
  8
0
 10
512.0
 20
530.0
 30
0.0
 11
527.0
 21
530.0
 31
0.0
  0
LINE
  8
0
 10
527.0
 20
530.0
 30
0.0
 11
527.0
 21
529.0
 31
0.0
  0
LINE
  8
0
 10
527.0
 20
529.0
 30
0.0
 11
512.0
 21
529.0
 31
0.0
  0
LINE
  8
0
 10
512.0
 20
529.0
 30
0.0
 11
512.0
 21
530.0
 31
0.0
  0
LINE
  8
0
 10
469.0
 20
529.0
 30
0.0
 11
485.0
 21
529.0
 31
0.0
  0
LINE
  8
0
 10
485.0
 20
529.0
 30
0.0
 11
485.0
 21
528.0
 31
0.0
  0
LINE
  8
0
 10
485.0
 20
528.0
 30
0.0
 11
469.0
 21
528.0
 31
0.0
  0
LINE
  8
0
 10
469.0
 20
528.0
 30
0.0
 11
469.0
 21
529.0
 31
0.0
  0
LINE
  8
0
 10
491.0
 20
529.0
 30
0.0
 11
503.0
 21
529.0
 31
0.0
  0
LINE
  8
0
 10
503.0
 20
529.0
 30
0.0
 11
503.0
 21
528.0
 31
0.0
  0
LINE
  8
0
 10
503.0
 20
528.0
 30
0.0
 11
491.0
 21
528.0
 31
0.0
  0
LINE
  8
0
 10
491.0
 20
528.0
 30
0.0
 11
491.0
 21
529.0
 31
0.0
  0
LINE
  8
0
 10
514.0
 20
529.0
 30
0.0
 11
527.0
 21
529.0
 31
0.0
  0
LINE
  8
0
 10
527.0
 20
529.0
 30
0.0
 11
527.0
 21
528.0
 31
0.0
  0
LINE
  8
0
 10
527.0
 20
528.0
 30
0.0
 11
514.0
 21
528.0
 31
0.0
  0
LINE
  8
0
 10
514.0
 20
528.0
 30
0.0
 11
514.0
 21
529.0
 31
0.0
  0
LINE
  8
0
 10
469.0
 20
528.0
 30
0.0
 11
484.0
 21
528.0
 31
0.0
  0
LINE
  8
0
 10
484.0
 20
528.0
 30
0.0
 11
484.0
 21
527.0
 31
0.0
  0
LINE
  8
0
 10
484.0
 20
527.0
 30
0.0
 11
469.0
 21
527.0
 31
0.0
  0
LINE
  8
0
 10
469.0
 20
527.0
 30
0.0
 11
469.0
 21
528.0
 31
0.0
  0
LINE
  8
0
 10
491.0
 20
528.0
 30
0.0
 11
505.0
 21
528.0
 31
0.0
  0
LINE
  8
0
 10
505.0
 20
528.0
 30
0.0
 11
505.0
 21
527.0
 31
0.0
  0
LINE
  8
0
 10
505.0
 20
527.0
 30
0.0
 11
491.0
 21
527.0
 31
0.0
  0
LINE
  8
0
 10
491.0
 20
527.0
 30
0.0
 11
491.0
 21
528.0
 31
0.0
  0
LINE
  8
0
 10
515.0
 20
528.0
 30
0.0
 11
526.0
 21
528.0
 31
0.0
  0
LINE
  8
0
 10
526.0
 20
528.0
 30
0.0
 11
526.0
 21
527.0
 31
0.0
  0
LINE
  8
0
 10
526.0
 20
527.0
 30
0.0
 11
515.0
 21
527.0
 31
0.0
  0
LINE
  8
0
 10
515.0
 20
527.0
 30
0.0
 11
515.0
 21
528.0
 31
0.0
  0
LINE
  8
0
 10
469.0
 20
527.0
 30
0.0
 11
484.0
 21
527.0
 31
0.0
  0
LINE
  8
0
 10
484.0
 20
527.0
 30
0.0
 11
484.0
 21
526.0
 31
0.0
  0
LINE
  8
0
 10
484.0
 20
526.0
 30
0.0
 11
469.0
 21
526.0
 31
0.0
  0
LINE
  8
0
 10
469.0
 20
526.0
 30
0.0
 11
469.0
 21
527.0
 31
0.0
  0
LINE
  8
0
 10
491.0
 20
527.0
 30
0.0
 11
506.0
 21
527.0
 31
0.0
  0
LINE
  8
0
 10
506.0
 20
527.0
 30
0.0
 11
506.0
 21
526.0
 31
0.0
  0
LINE
  8
0
 10
506.0
 20
526.0
 30
0.0
 11
491.0
 21
526.0
 31
0.0
  0
LINE
  8
0
 10
491.0
 20
526.0
 30
0.0
 11
491.0
 21
527.0
 31
0.0
  0
LINE
  8
0
 10
517.0
 20
527.0
 30
0.0
 11
526.0
 21
527.0
 31
0.0
  0
LINE
  8
0
 10
526.0
 20
527.0
 30
0.0
 11
526.0
 21
526.0
 31
0.0
  0
LINE
  8
0
 10
526.0
 20
526.0
 30
0.0
 11
517.0
 21
526.0
 31
0.0
  0
LINE
  8
0
 10
517.0
 20
526.0
 30
0.0
 11
517.0
 21
527.0
 31
0.0
  0
LINE
  8
0
 10
469.0
 20
526.0
 30
0.0
 11
484.0
 21
526.0
 31
0.0
  0
LINE
  8
0
 10
484.0
 20
526.0
 30
0.0
 11
484.0
 21
525.0
 31
0.0
  0
LINE
  8
0
 10
484.0
 20
525.0
 30
0.0
 11
469.0
 21
525.0
 31
0.0
  0
LINE
  8
0
 10
469.0
 20
525.0
 30
0.0
 11
469.0
 21
526.0
 31
0.0
  0
LINE
  8
0
 10
490.0
 20
526.0
 30
0.0
 11
507.0
 21
526.0
 31
0.0
  0
LINE
  8
0
 10
507.0
 20
526.0
 30
0.0
 11
507.0
 21
525.0
 31
0.0
  0
LINE
  8
0
 10
507.0
 20
525.0
 30
0.0
 11
490.0
 21
525.0
 31
0.0
  0
LINE
  8
0
 10
490.0
 20
525.0
 30
0.0
 11
490.0
 21
526.0
 31
0.0
  0
LINE
  8
0
 10
519.0
 20
526.0
 30
0.0
 11
526.0
 21
526.0
 31
0.0
  0
LINE
  8
0
 10
526.0
 20
526.0
 30
0.0
 11
526.0
 21
525.0
 31
0.0
  0
LINE
  8
0
 10
526.0
 20
525.0
 30
0.0
 11
519.0
 21
525.0
 31
0.0
  0
LINE
  8
0
 10
519.0
 20
525.0
 30
0.0
 11
519.0
 21
526.0
 31
0.0
  0
LINE
  8
0
 10
469.0
 20
525.0
 30
0.0
 11
484.0
 21
525.0
 31
0.0
  0
LINE
  8
0
 10
484.0
 20
525.0
 30
0.0
 11
484.0
 21
524.0
 31
0.0
  0
LINE
  8
0
 10
484.0
 20
524.0
 30
0.0
 11
469.0
 21
524.0
 31
0.0
  0
LINE
  8
0
 10
469.0
 20
524.0
 30
0.0
 11
469.0
 21
525.0
 31
0.0
  0
LINE
  8
0
 10
490.0
 20
525.0
 30
0.0
 11
509.0
 21
525.0
 31
0.0
  0
LINE
  8
0
 10
509.0
 20
525.0
 30
0.0
 11
509.0
 21
524.0
 31
0.0
  0
LINE
  8
0
 10
509.0
 20
524.0
 30
0.0
 11
490.0
 21
524.0
 31
0.0
  0
LINE
  8
0
 10
490.0
 20
524.0
 30
0.0
 11
490.0
 21
525.0
 31
0.0
  0
LINE
  8
0
 10
521.0
 20
525.0
 30
0.0
 11
526.0
 21
525.0
 31
0.0
  0
LINE
  8
0
 10
526.0
 20
525.0
 30
0.0
 11
526.0
 21
524.0
 31
0.0
  0
LINE
  8
0
 10
526.0
 20
524.0
 30
0.0
 11
521.0
 21
524.0
 31
0.0
  0
LINE
  8
0
 10
521.0
 20
524.0
 30
0.0
 11
521.0
 21
525.0
 31
0.0
  0
LINE
  8
0
 10
469.0
 20
524.0
 30
0.0
 11
484.0
 21
524.0
 31
0.0
  0
LINE
  8
0
 10
484.0
 20
524.0
 30
0.0
 11
484.0
 21
523.0
 31
0.0
  0
LINE
  8
0
 10
484.0
 20
523.0
 30
0.0
 11
469.0
 21
523.0
 31
0.0
  0
LINE
  8
0
 10
469.0
 20
523.0
 30
0.0
 11
469.0
 21
524.0
 31
0.0
  0
LINE
  8
0
 10
490.0
 20
524.0
 30
0.0
 11
511.0
 21
524.0
 31
0.0
  0
LINE
  8
0
 10
511.0
 20
524.0
 30
0.0
 11
511.0
 21
523.0
 31
0.0
  0
LINE
  8
0
 10
511.0
 20
523.0
 30
0.0
 11
490.0
 21
523.0
 31
0.0
  0
LINE
  8
0
 10
490.0
 20
523.0
 30
0.0
 11
490.0
 21
524.0
 31
0.0
  0
LINE
  8
0
 10
522.0
 20
524.0
 30
0.0
 11
526.0
 21
524.0
 31
0.0
  0
LINE
  8
0
 10
526.0
 20
524.0
 30
0.0
 11
526.0
 21
523.0
 31
0.0
  0
LINE
  8
0
 10
526.0
 20
523.0
 30
0.0
 11
522.0
 21
523.0
 31
0.0
  0
LINE
  8
0
 10
522.0
 20
523.0
 30
0.0
 11
522.0
 21
524.0
 31
0.0
  0
LINE
  8
0
 10
469.0
 20
523.0
 30
0.0
 11
484.0
 21
523.0
 31
0.0
  0
LINE
  8
0
 10
484.0
 20
523.0
 30
0.0
 11
484.0
 21
522.0
 31
0.0
  0
LINE
  8
0
 10
484.0
 20
522.0
 30
0.0
 11
469.0
 21
522.0
 31
0.0
  0
LINE
  8
0
 10
469.0
 20
522.0
 30
0.0
 11
469.0
 21
523.0
 31
0.0
  0
LINE
  8
0
 10
490.0
 20
523.0
 30
0.0
 11
512.0
 21
523.0
 31
0.0
  0
LINE
  8
0
 10
512.0
 20
523.0
 30
0.0
 11
512.0
 21
522.0
 31
0.0
  0
LINE
  8
0
 10
512.0
 20
522.0
 30
0.0
 11
490.0
 21
522.0
 31
0.0
  0
LINE
  8
0
 10
490.0
 20
522.0
 30
0.0
 11
490.0
 21
523.0
 31
0.0
  0
LINE
  8
0
 10
524.0
 20
523.0
 30
0.0
 11
526.0
 21
523.0
 31
0.0
  0
LINE
  8
0
 10
526.0
 20
523.0
 30
0.0
 11
526.0
 21
522.0
 31
0.0
  0
LINE
  8
0
 10
526.0
 20
522.0
 30
0.0
 11
524.0
 21
522.0
 31
0.0
  0
LINE
  8
0
 10
524.0
 20
522.0
 30
0.0
 11
524.0
 21
523.0
 31
0.0
  0
LINE
  8
0
 10
469.0
 20
522.0
 30
0.0
 11
483.0
 21
522.0
 31
0.0
  0
LINE
  8
0
 10
483.0
 20
522.0
 30
0.0
 11
483.0
 21
521.0
 31
0.0
  0
LINE
  8
0
 10
483.0
 20
521.0
 30
0.0
 11
469.0
 21
521.0
 31
0.0
  0
LINE
  8
0
 10
469.0
 20
521.0
 30
0.0
 11
469.0
 21
522.0
 31
0.0
  0
LINE
  8
0
 10
490.0
 20
522.0
 30
0.0
 11
514.0
 21
522.0
 31
0.0
  0
LINE
  8
0
 10
514.0
 20
522.0
 30
0.0
 11
514.0
 21
521.0
 31
0.0
  0
LINE
  8
0
 10
514.0
 20
521.0
 30
0.0
 11
490.0
 21
521.0
 31
0.0
  0
LINE
  8
0
 10
490.0
 20
521.0
 30
0.0
 11
490.0
 21
522.0
 31
0.0
  0
LINE
  8
0
 10
525.0
 20
522.0
 30
0.0
 11
526.0
 21
522.0
 31
0.0
  0
LINE
  8
0
 10
526.0
 20
522.0
 30
0.0
 11
526.0
 21
521.0
 31
0.0
  0
LINE
  8
0
 10
526.0
 20
521.0
 30
0.0
 11
525.0
 21
521.0
 31
0.0
  0
LINE
  8
0
 10
525.0
 20
521.0
 30
0.0
 11
525.0
 21
522.0
 31
0.0
  0
LINE
  8
0
 10
469.0
 20
521.0
 30
0.0
 11
483.0
 21
521.0
 31
0.0
  0
LINE
  8
0
 10
483.0
 20
521.0
 30
0.0
 11
483.0
 21
520.0
 31
0.0
  0
LINE
  8
0
 10
483.0
 20
520.0
 30
0.0
 11
469.0
 21
520.0
 31
0.0
  0
LINE
  8
0
 10
469.0
 20
520.0
 30
0.0
 11
469.0
 21
521.0
 31
0.0
  0
LINE
  8
0
 10
489.0
 20
521.0
 30
0.0
 11
516.0
 21
521.0
 31
0.0
  0
LINE
  8
0
 10
516.0
 20
521.0
 30
0.0
 11
516.0
 21
520.0
 31
0.0
  0
LINE
  8
0
 10
516.0
 20
520.0
 30
0.0
 11
489.0
 21
520.0
 31
0.0
  0
LINE
  8
0
 10
489.0
 20
520.0
 30
0.0
 11
489.0
 21
521.0
 31
0.0
  0
LINE
  8
0
 10
469.0
 20
520.0
 30
0.0
 11
483.0
 21
520.0
 31
0.0
  0
LINE
  8
0
 10
483.0
 20
520.0
 30
0.0
 11
483.0
 21
519.0
 31
0.0
  0
LINE
  8
0
 10
483.0
 20
519.0
 30
0.0
 11
469.0
 21
519.0
 31
0.0
  0
LINE
  8
0
 10
469.0
 20
519.0
 30
0.0
 11
469.0
 21
520.0
 31
0.0
  0
LINE
  8
0
 10
489.0
 20
520.0
 30
0.0
 11
518.0
 21
520.0
 31
0.0
  0
LINE
  8
0
 10
518.0
 20
520.0
 30
0.0
 11
518.0
 21
519.0
 31
0.0
  0
LINE
  8
0
 10
518.0
 20
519.0
 30
0.0
 11
489.0
 21
519.0
 31
0.0
  0
LINE
  8
0
 10
489.0
 20
519.0
 30
0.0
 11
489.0
 21
520.0
 31
0.0
  0
LINE
  8
0
 10
469.0
 20
519.0
 30
0.0
 11
483.0
 21
519.0
 31
0.0
  0
LINE
  8
0
 10
483.0
 20
519.0
 30
0.0
 11
483.0
 21
518.0
 31
0.0
  0
LINE
  8
0
 10
483.0
 20
518.0
 30
0.0
 11
469.0
 21
518.0
 31
0.0
  0
LINE
  8
0
 10
469.0
 20
518.0
 30
0.0
 11
469.0
 21
519.0
 31
0.0
  0
LINE
  8
0
 10
489.0
 20
519.0
 30
0.0
 11
519.0
 21
519.0
 31
0.0
  0
LINE
  8
0
 10
519.0
 20
519.0
 30
0.0
 11
519.0
 21
518.0
 31
0.0
  0
LINE
  8
0
 10
519.0
 20
518.0
 30
0.0
 11
489.0
 21
518.0
 31
0.0
  0
LINE
  8
0
 10
489.0
 20
518.0
 30
0.0
 11
489.0
 21
519.0
 31
0.0
  0
LINE
  8
0
 10
469.0
 20
518.0
 30
0.0
 11
483.0
 21
518.0
 31
0.0
  0
LINE
  8
0
 10
483.0
 20
518.0
 30
0.0
 11
483.0
 21
517.0
 31
0.0
  0
LINE
  8
0
 10
483.0
 20
517.0
 30
0.0
 11
469.0
 21
517.0
 31
0.0
  0
LINE
  8
0
 10
469.0
 20
517.0
 30
0.0
 11
469.0
 21
518.0
 31
0.0
  0
LINE
  8
0
 10
489.0
 20
518.0
 30
0.0
 11
521.0
 21
518.0
 31
0.0
  0
LINE
  8
0
 10
521.0
 20
518.0
 30
0.0
 11
521.0
 21
517.0
 31
0.0
  0
LINE
  8
0
 10
521.0
 20
517.0
 30
0.0
 11
489.0
 21
517.0
 31
0.0
  0
LINE
  8
0
 10
489.0
 20
517.0
 30
0.0
 11
489.0
 21
518.0
 31
0.0
  0
LINE
  8
0
 10
469.0
 20
517.0
 30
0.0
 11
482.0
 21
517.0
 31
0.0
  0
LINE
  8
0
 10
482.0
 20
517.0
 30
0.0
 11
482.0
 21
516.0
 31
0.0
  0
LINE
  8
0
 10
482.0
 20
516.0
 30
0.0
 11
469.0
 21
516.0
 31
0.0
  0
LINE
  8
0
 10
469.0
 20
516.0
 30
0.0
 11
469.0
 21
517.0
 31
0.0
  0
LINE
  8
0
 10
489.0
 20
517.0
 30
0.0
 11
522.0
 21
517.0
 31
0.0
  0
LINE
  8
0
 10
522.0
 20
517.0
 30
0.0
 11
522.0
 21
516.0
 31
0.0
  0
LINE
  8
0
 10
522.0
 20
516.0
 30
0.0
 11
489.0
 21
516.0
 31
0.0
  0
LINE
  8
0
 10
489.0
 20
516.0
 30
0.0
 11
489.0
 21
517.0
 31
0.0
  0
LINE
  8
0
 10
469.0
 20
516.0
 30
0.0
 11
482.0
 21
516.0
 31
0.0
  0
LINE
  8
0
 10
482.0
 20
516.0
 30
0.0
 11
482.0
 21
515.0
 31
0.0
  0
LINE
  8
0
 10
482.0
 20
515.0
 30
0.0
 11
469.0
 21
515.0
 31
0.0
  0
LINE
  8
0
 10
469.0
 20
515.0
 30
0.0
 11
469.0
 21
516.0
 31
0.0
  0
LINE
  8
0
 10
489.0
 20
516.0
 30
0.0
 11
523.0
 21
516.0
 31
0.0
  0
LINE
  8
0
 10
523.0
 20
516.0
 30
0.0
 11
523.0
 21
515.0
 31
0.0
  0
LINE
  8
0
 10
523.0
 20
515.0
 30
0.0
 11
489.0
 21
515.0
 31
0.0
  0
LINE
  8
0
 10
489.0
 20
515.0
 30
0.0
 11
489.0
 21
516.0
 31
0.0
  0
LINE
  8
0
 10
469.0
 20
515.0
 30
0.0
 11
482.0
 21
515.0
 31
0.0
  0
LINE
  8
0
 10
482.0
 20
515.0
 30
0.0
 11
482.0
 21
514.0
 31
0.0
  0
LINE
  8
0
 10
482.0
 20
514.0
 30
0.0
 11
469.0
 21
514.0
 31
0.0
  0
LINE
  8
0
 10
469.0
 20
514.0
 30
0.0
 11
469.0
 21
515.0
 31
0.0
  0
LINE
  8
0
 10
489.0
 20
515.0
 30
0.0
 11
524.0
 21
515.0
 31
0.0
  0
LINE
  8
0
 10
524.0
 20
515.0
 30
0.0
 11
524.0
 21
514.0
 31
0.0
  0
LINE
  8
0
 10
524.0
 20
514.0
 30
0.0
 11
489.0
 21
514.0
 31
0.0
  0
LINE
  8
0
 10
489.0
 20
514.0
 30
0.0
 11
489.0
 21
515.0
 31
0.0
  0
LINE
  8
0
 10
469.0
 20
514.0
 30
0.0
 11
482.0
 21
514.0
 31
0.0
  0
LINE
  8
0
 10
482.0
 20
514.0
 30
0.0
 11
482.0
 21
513.0
 31
0.0
  0
LINE
  8
0
 10
482.0
 20
513.0
 30
0.0
 11
469.0
 21
513.0
 31
0.0
  0
LINE
  8
0
 10
469.0
 20
513.0
 30
0.0
 11
469.0
 21
514.0
 31
0.0
  0
LINE
  8
0
 10
489.0
 20
514.0
 30
0.0
 11
525.0
 21
514.0
 31
0.0
  0
LINE
  8
0
 10
525.0
 20
514.0
 30
0.0
 11
525.0
 21
513.0
 31
0.0
  0
LINE
  8
0
 10
525.0
 20
513.0
 30
0.0
 11
489.0
 21
513.0
 31
0.0
  0
LINE
  8
0
 10
489.0
 20
513.0
 30
0.0
 11
489.0
 21
514.0
 31
0.0
  0
LINE
  8
0
 10
469.0
 20
513.0
 30
0.0
 11
482.0
 21
513.0
 31
0.0
  0
LINE
  8
0
 10
482.0
 20
513.0
 30
0.0
 11
482.0
 21
512.0
 31
0.0
  0
LINE
  8
0
 10
482.0
 20
512.0
 30
0.0
 11
469.0
 21
512.0
 31
0.0
  0
LINE
  8
0
 10
469.0
 20
512.0
 30
0.0
 11
469.0
 21
513.0
 31
0.0
  0
LINE
  8
0
 10
489.0
 20
513.0
 30
0.0
 11
525.0
 21
513.0
 31
0.0
  0
LINE
  8
0
 10
525.0
 20
513.0
 30
0.0
 11
525.0
 21
512.0
 31
0.0
  0
LINE
  8
0
 10
525.0
 20
512.0
 30
0.0
 11
489.0
 21
512.0
 31
0.0
  0
LINE
  8
0
 10
489.0
 20
512.0
 30
0.0
 11
489.0
 21
513.0
 31
0.0
  0
LINE
  8
0
 10
469.0
 20
512.0
 30
0.0
 11
482.0
 21
512.0
 31
0.0
  0
LINE
  8
0
 10
482.0
 20
512.0
 30
0.0
 11
482.0
 21
511.0
 31
0.0
  0
LINE
  8
0
 10
482.0
 20
511.0
 30
0.0
 11
469.0
 21
511.0
 31
0.0
  0
LINE
  8
0
 10
469.0
 20
511.0
 30
0.0
 11
469.0
 21
512.0
 31
0.0
  0
LINE
  8
0
 10
489.0
 20
512.0
 30
0.0
 11
526.0
 21
512.0
 31
0.0
  0
LINE
  8
0
 10
526.0
 20
512.0
 30
0.0
 11
526.0
 21
511.0
 31
0.0
  0
LINE
  8
0
 10
526.0
 20
511.0
 30
0.0
 11
489.0
 21
511.0
 31
0.0
  0
LINE
  8
0
 10
489.0
 20
511.0
 30
0.0
 11
489.0
 21
512.0
 31
0.0
  0
LINE
  8
0
 10
469.0
 20
511.0
 30
0.0
 11
482.0
 21
511.0
 31
0.0
  0
LINE
  8
0
 10
482.0
 20
511.0
 30
0.0
 11
482.0
 21
510.0
 31
0.0
  0
LINE
  8
0
 10
482.0
 20
510.0
 30
0.0
 11
469.0
 21
510.0
 31
0.0
  0
LINE
  8
0
 10
469.0
 20
510.0
 30
0.0
 11
469.0
 21
511.0
 31
0.0
  0
LINE
  8
0
 10
489.0
 20
511.0
 30
0.0
 11
526.0
 21
511.0
 31
0.0
  0
LINE
  8
0
 10
526.0
 20
511.0
 30
0.0
 11
526.0
 21
510.0
 31
0.0
  0
LINE
  8
0
 10
526.0
 20
510.0
 30
0.0
 11
489.0
 21
510.0
 31
0.0
  0
LINE
  8
0
 10
489.0
 20
510.0
 30
0.0
 11
489.0
 21
511.0
 31
0.0
  0
LINE
  8
0
 10
469.0
 20
510.0
 30
0.0
 11
482.0
 21
510.0
 31
0.0
  0
LINE
  8
0
 10
482.0
 20
510.0
 30
0.0
 11
482.0
 21
509.0
 31
0.0
  0
LINE
  8
0
 10
482.0
 20
509.0
 30
0.0
 11
469.0
 21
509.0
 31
0.0
  0
LINE
  8
0
 10
469.0
 20
509.0
 30
0.0
 11
469.0
 21
510.0
 31
0.0
  0
LINE
  8
0
 10
489.0
 20
510.0
 30
0.0
 11
526.0
 21
510.0
 31
0.0
  0
LINE
  8
0
 10
526.0
 20
510.0
 30
0.0
 11
526.0
 21
509.0
 31
0.0
  0
LINE
  8
0
 10
526.0
 20
509.0
 30
0.0
 11
489.0
 21
509.0
 31
0.0
  0
LINE
  8
0
 10
489.0
 20
509.0
 30
0.0
 11
489.0
 21
510.0
 31
0.0
  0
LINE
  8
0
 10
469.0
 20
509.0
 30
0.0
 11
482.0
 21
509.0
 31
0.0
  0
LINE
  8
0
 10
482.0
 20
509.0
 30
0.0
 11
482.0
 21
508.0
 31
0.0
  0
LINE
  8
0
 10
482.0
 20
508.0
 30
0.0
 11
469.0
 21
508.0
 31
0.0
  0
LINE
  8
0
 10
469.0
 20
508.0
 30
0.0
 11
469.0
 21
509.0
 31
0.0
  0
LINE
  8
0
 10
489.0
 20
509.0
 30
0.0
 11
526.0
 21
509.0
 31
0.0
  0
LINE
  8
0
 10
526.0
 20
509.0
 30
0.0
 11
526.0
 21
508.0
 31
0.0
  0
LINE
  8
0
 10
526.0
 20
508.0
 30
0.0
 11
489.0
 21
508.0
 31
0.0
  0
LINE
  8
0
 10
489.0
 20
508.0
 30
0.0
 11
489.0
 21
509.0
 31
0.0
  0
LINE
  8
0
 10
469.0
 20
508.0
 30
0.0
 11
482.0
 21
508.0
 31
0.0
  0
LINE
  8
0
 10
482.0
 20
508.0
 30
0.0
 11
482.0
 21
507.0
 31
0.0
  0
LINE
  8
0
 10
482.0
 20
507.0
 30
0.0
 11
469.0
 21
507.0
 31
0.0
  0
LINE
  8
0
 10
469.0
 20
507.0
 30
0.0
 11
469.0
 21
508.0
 31
0.0
  0
LINE
  8
0
 10
490.0
 20
508.0
 30
0.0
 11
526.0
 21
508.0
 31
0.0
  0
LINE
  8
0
 10
526.0
 20
508.0
 30
0.0
 11
526.0
 21
507.0
 31
0.0
  0
LINE
  8
0
 10
526.0
 20
507.0
 30
0.0
 11
490.0
 21
507.0
 31
0.0
  0
LINE
  8
0
 10
490.0
 20
507.0
 30
0.0
 11
490.0
 21
508.0
 31
0.0
  0
LINE
  8
0
 10
469.0
 20
507.0
 30
0.0
 11
482.0
 21
507.0
 31
0.0
  0
LINE
  8
0
 10
482.0
 20
507.0
 30
0.0
 11
482.0
 21
506.0
 31
0.0
  0
LINE
  8
0
 10
482.0
 20
506.0
 30
0.0
 11
469.0
 21
506.0
 31
0.0
  0
LINE
  8
0
 10
469.0
 20
506.0
 30
0.0
 11
469.0
 21
507.0
 31
0.0
  0
LINE
  8
0
 10
490.0
 20
507.0
 30
0.0
 11
527.0
 21
507.0
 31
0.0
  0
LINE
  8
0
 10
527.0
 20
507.0
 30
0.0
 11
527.0
 21
506.0
 31
0.0
  0
LINE
  8
0
 10
527.0
 20
506.0
 30
0.0
 11
490.0
 21
506.0
 31
0.0
  0
LINE
  8
0
 10
490.0
 20
506.0
 30
0.0
 11
490.0
 21
507.0
 31
0.0
  0
LINE
  8
0
 10
469.0
 20
506.0
 30
0.0
 11
481.0
 21
506.0
 31
0.0
  0
LINE
  8
0
 10
481.0
 20
506.0
 30
0.0
 11
481.0
 21
505.0
 31
0.0
  0
LINE
  8
0
 10
481.0
 20
505.0
 30
0.0
 11
469.0
 21
505.0
 31
0.0
  0
LINE
  8
0
 10
469.0
 20
505.0
 30
0.0
 11
469.0
 21
506.0
 31
0.0
  0
LINE
  8
0
 10
491.0
 20
506.0
 30
0.0
 11
527.0
 21
506.0
 31
0.0
  0
LINE
  8
0
 10
527.0
 20
506.0
 30
0.0
 11
527.0
 21
505.0
 31
0.0
  0
LINE
  8
0
 10
527.0
 20
505.0
 30
0.0
 11
491.0
 21
505.0
 31
0.0
  0
LINE
  8
0
 10
491.0
 20
505.0
 30
0.0
 11
491.0
 21
506.0
 31
0.0
  0
LINE
  8
0
 10
469.0
 20
505.0
 30
0.0
 11
481.0
 21
505.0
 31
0.0
  0
LINE
  8
0
 10
481.0
 20
505.0
 30
0.0
 11
481.0
 21
504.0
 31
0.0
  0
LINE
  8
0
 10
481.0
 20
504.0
 30
0.0
 11
469.0
 21
504.0
 31
0.0
  0
LINE
  8
0
 10
469.0
 20
504.0
 30
0.0
 11
469.0
 21
505.0
 31
0.0
  0
LINE
  8
0
 10
492.0
 20
505.0
 30
0.0
 11
527.0
 21
505.0
 31
0.0
  0
LINE
  8
0
 10
527.0
 20
505.0
 30
0.0
 11
527.0
 21
504.0
 31
0.0
  0
LINE
  8
0
 10
527.0
 20
504.0
 30
0.0
 11
492.0
 21
504.0
 31
0.0
  0
LINE
  8
0
 10
492.0
 20
504.0
 30
0.0
 11
492.0
 21
505.0
 31
0.0
  0
LINE
  8
0
 10
469.0
 20
504.0
 30
0.0
 11
481.0
 21
504.0
 31
0.0
  0
LINE
  8
0
 10
481.0
 20
504.0
 30
0.0
 11
481.0
 21
503.0
 31
0.0
  0
LINE
  8
0
 10
481.0
 20
503.0
 30
0.0
 11
469.0
 21
503.0
 31
0.0
  0
LINE
  8
0
 10
469.0
 20
503.0
 30
0.0
 11
469.0
 21
504.0
 31
0.0
  0
LINE
  8
0
 10
493.0
 20
504.0
 30
0.0
 11
527.0
 21
504.0
 31
0.0
  0
LINE
  8
0
 10
527.0
 20
504.0
 30
0.0
 11
527.0
 21
503.0
 31
0.0
  0
LINE
  8
0
 10
527.0
 20
503.0
 30
0.0
 11
493.0
 21
503.0
 31
0.0
  0
LINE
  8
0
 10
493.0
 20
503.0
 30
0.0
 11
493.0
 21
504.0
 31
0.0
  0
LINE
  8
0
 10
469.0
 20
503.0
 30
0.0
 11
480.0
 21
503.0
 31
0.0
  0
LINE
  8
0
 10
480.0
 20
503.0
 30
0.0
 11
480.0
 21
502.0
 31
0.0
  0
LINE
  8
0
 10
480.0
 20
502.0
 30
0.0
 11
469.0
 21
502.0
 31
0.0
  0
LINE
  8
0
 10
469.0
 20
502.0
 30
0.0
 11
469.0
 21
503.0
 31
0.0
  0
LINE
  8
0
 10
494.0
 20
503.0
 30
0.0
 11
528.0
 21
503.0
 31
0.0
  0
LINE
  8
0
 10
528.0
 20
503.0
 30
0.0
 11
528.0
 21
502.0
 31
0.0
  0
LINE
  8
0
 10
528.0
 20
502.0
 30
0.0
 11
494.0
 21
502.0
 31
0.0
  0
LINE
  8
0
 10
494.0
 20
502.0
 30
0.0
 11
494.0
 21
503.0
 31
0.0
  0
LINE
  8
0
 10
469.0
 20
502.0
 30
0.0
 11
480.0
 21
502.0
 31
0.0
  0
LINE
  8
0
 10
480.0
 20
502.0
 30
0.0
 11
480.0
 21
501.0
 31
0.0
  0
LINE
  8
0
 10
480.0
 20
501.0
 30
0.0
 11
469.0
 21
501.0
 31
0.0
  0
LINE
  8
0
 10
469.0
 20
501.0
 30
0.0
 11
469.0
 21
502.0
 31
0.0
  0
LINE
  8
0
 10
495.0
 20
502.0
 30
0.0
 11
528.0
 21
502.0
 31
0.0
  0
LINE
  8
0
 10
528.0
 20
502.0
 30
0.0
 11
528.0
 21
501.0
 31
0.0
  0
LINE
  8
0
 10
528.0
 20
501.0
 30
0.0
 11
495.0
 21
501.0
 31
0.0
  0
LINE
  8
0
 10
495.0
 20
501.0
 30
0.0
 11
495.0
 21
502.0
 31
0.0
  0
LINE
  8
0
 10
469.0
 20
501.0
 30
0.0
 11
479.0
 21
501.0
 31
0.0
  0
LINE
  8
0
 10
479.0
 20
501.0
 30
0.0
 11
479.0
 21
500.0
 31
0.0
  0
LINE
  8
0
 10
479.0
 20
500.0
 30
0.0
 11
469.0
 21
500.0
 31
0.0
  0
LINE
  8
0
 10
469.0
 20
500.0
 30
0.0
 11
469.0
 21
501.0
 31
0.0
  0
LINE
  8
0
 10
497.0
 20
501.0
 30
0.0
 11
528.0
 21
501.0
 31
0.0
  0
LINE
  8
0
 10
528.0
 20
501.0
 30
0.0
 11
528.0
 21
500.0
 31
0.0
  0
LINE
  8
0
 10
528.0
 20
500.0
 30
0.0
 11
497.0
 21
500.0
 31
0.0
  0
LINE
  8
0
 10
497.0
 20
500.0
 30
0.0
 11
497.0
 21
501.0
 31
0.0
  0
LINE
  8
0
 10
469.0
 20
500.0
 30
0.0
 11
479.0
 21
500.0
 31
0.0
  0
LINE
  8
0
 10
479.0
 20
500.0
 30
0.0
 11
479.0
 21
499.0
 31
0.0
  0
LINE
  8
0
 10
479.0
 20
499.0
 30
0.0
 11
469.0
 21
499.0
 31
0.0
  0
LINE
  8
0
 10
469.0
 20
499.0
 30
0.0
 11
469.0
 21
500.0
 31
0.0
  0
LINE
  8
0
 10
498.0
 20
500.0
 30
0.0
 11
529.0
 21
500.0
 31
0.0
  0
LINE
  8
0
 10
529.0
 20
500.0
 30
0.0
 11
529.0
 21
499.0
 31
0.0
  0
LINE
  8
0
 10
529.0
 20
499.0
 30
0.0
 11
498.0
 21
499.0
 31
0.0
  0
LINE
  8
0
 10
498.0
 20
499.0
 30
0.0
 11
498.0
 21
500.0
 31
0.0
  0
LINE
  8
0
 10
469.0
 20
499.0
 30
0.0
 11
478.0
 21
499.0
 31
0.0
  0
LINE
  8
0
 10
478.0
 20
499.0
 30
0.0
 11
478.0
 21
498.0
 31
0.0
  0
LINE
  8
0
 10
478.0
 20
498.0
 30
0.0
 11
469.0
 21
498.0
 31
0.0
  0
LINE
  8
0
 10
469.0
 20
498.0
 30
0.0
 11
469.0
 21
499.0
 31
0.0
  0
LINE
  8
0
 10
500.0
 20
499.0
 30
0.0
 11
529.0
 21
499.0
 31
0.0
  0
LINE
  8
0
 10
529.0
 20
499.0
 30
0.0
 11
529.0
 21
498.0
 31
0.0
  0
LINE
  8
0
 10
529.0
 20
498.0
 30
0.0
 11
500.0
 21
498.0
 31
0.0
  0
LINE
  8
0
 10
500.0
 20
498.0
 30
0.0
 11
500.0
 21
499.0
 31
0.0
  0
LINE
  8
0
 10
469.0
 20
498.0
 30
0.0
 11
477.0
 21
498.0
 31
0.0
  0
LINE
  8
0
 10
477.0
 20
498.0
 30
0.0
 11
477.0
 21
497.0
 31
0.0
  0
LINE
  8
0
 10
477.0
 20
497.0
 30
0.0
 11
469.0
 21
497.0
 31
0.0
  0
LINE
  8
0
 10
469.0
 20
497.0
 30
0.0
 11
469.0
 21
498.0
 31
0.0
  0
LINE
  8
0
 10
501.0
 20
498.0
 30
0.0
 11
530.0
 21
498.0
 31
0.0
  0
LINE
  8
0
 10
530.0
 20
498.0
 30
0.0
 11
530.0
 21
497.0
 31
0.0
  0
LINE
  8
0
 10
530.0
 20
497.0
 30
0.0
 11
501.0
 21
497.0
 31
0.0
  0
LINE
  8
0
 10
501.0
 20
497.0
 30
0.0
 11
501.0
 21
498.0
 31
0.0
  0
LINE
  8
0
 10
469.0
 20
497.0
 30
0.0
 11
476.0
 21
497.0
 31
0.0
  0
LINE
  8
0
 10
476.0
 20
497.0
 30
0.0
 11
476.0
 21
496.0
 31
0.0
  0
LINE
  8
0
 10
476.0
 20
496.0
 30
0.0
 11
469.0
 21
496.0
 31
0.0
  0
LINE
  8
0
 10
469.0
 20
496.0
 30
0.0
 11
469.0
 21
497.0
 31
0.0
  0
LINE
  8
0
 10
489.0
 20
497.0
 30
0.0
 11
492.0
 21
497.0
 31
0.0
  0
LINE
  8
0
 10
492.0
 20
497.0
 30
0.0
 11
492.0
 21
496.0
 31
0.0
  0
LINE
  8
0
 10
492.0
 20
496.0
 30
0.0
 11
489.0
 21
496.0
 31
0.0
  0
LINE
  8
0
 10
489.0
 20
496.0
 30
0.0
 11
489.0
 21
497.0
 31
0.0
  0
LINE
  8
0
 10
503.0
 20
497.0
 30
0.0
 11
530.0
 21
497.0
 31
0.0
  0
LINE
  8
0
 10
530.0
 20
497.0
 30
0.0
 11
530.0
 21
496.0
 31
0.0
  0
LINE
  8
0
 10
530.0
 20
496.0
 30
0.0
 11
503.0
 21
496.0
 31
0.0
  0
LINE
  8
0
 10
503.0
 20
496.0
 30
0.0
 11
503.0
 21
497.0
 31
0.0
  0
LINE
  8
0
 10
469.0
 20
496.0
 30
0.0
 11
475.0
 21
496.0
 31
0.0
  0
LINE
  8
0
 10
475.0
 20
496.0
 30
0.0
 11
475.0
 21
495.0
 31
0.0
  0
LINE
  8
0
 10
475.0
 20
495.0
 30
0.0
 11
469.0
 21
495.0
 31
0.0
  0
LINE
  8
0
 10
469.0
 20
495.0
 30
0.0
 11
469.0
 21
496.0
 31
0.0
  0
LINE
  8
0
 10
489.0
 20
496.0
 30
0.0
 11
493.0
 21
496.0
 31
0.0
  0
LINE
  8
0
 10
493.0
 20
496.0
 30
0.0
 11
493.0
 21
495.0
 31
0.0
  0
LINE
  8
0
 10
493.0
 20
495.0
 30
0.0
 11
489.0
 21
495.0
 31
0.0
  0
LINE
  8
0
 10
489.0
 20
495.0
 30
0.0
 11
489.0
 21
496.0
 31
0.0
  0
LINE
  8
0
 10
506.0
 20
496.0
 30
0.0
 11
530.0
 21
496.0
 31
0.0
  0
LINE
  8
0
 10
530.0
 20
496.0
 30
0.0
 11
530.0
 21
495.0
 31
0.0
  0
LINE
  8
0
 10
530.0
 20
495.0
 30
0.0
 11
506.0
 21
495.0
 31
0.0
  0
LINE
  8
0
 10
506.0
 20
495.0
 30
0.0
 11
506.0
 21
496.0
 31
0.0
  0
LINE
  8
0
 10
469.0
 20
495.0
 30
0.0
 11
474.0
 21
495.0
 31
0.0
  0
LINE
  8
0
 10
474.0
 20
495.0
 30
0.0
 11
474.0
 21
494.0
 31
0.0
  0
LINE
  8
0
 10
474.0
 20
494.0
 30
0.0
 11
469.0
 21
494.0
 31
0.0
  0
LINE
  8
0
 10
469.0
 20
494.0
 30
0.0
 11
469.0
 21
495.0
 31
0.0
  0
LINE
  8
0
 10
489.0
 20
495.0
 30
0.0
 11
494.0
 21
495.0
 31
0.0
  0
LINE
  8
0
 10
494.0
 20
495.0
 30
0.0
 11
494.0
 21
494.0
 31
0.0
  0
LINE
  8
0
 10
494.0
 20
494.0
 30
0.0
 11
489.0
 21
494.0
 31
0.0
  0
LINE
  8
0
 10
489.0
 20
494.0
 30
0.0
 11
489.0
 21
495.0
 31
0.0
  0
LINE
  8
0
 10
508.0
 20
495.0
 30
0.0
 11
531.0
 21
495.0
 31
0.0
  0
LINE
  8
0
 10
531.0
 20
495.0
 30
0.0
 11
531.0
 21
494.0
 31
0.0
  0
LINE
  8
0
 10
531.0
 20
494.0
 30
0.0
 11
508.0
 21
494.0
 31
0.0
  0
LINE
  8
0
 10
508.0
 20
494.0
 30
0.0
 11
508.0
 21
495.0
 31
0.0
  0
LINE
  8
0
 10
469.0
 20
494.0
 30
0.0
 11
473.0
 21
494.0
 31
0.0
  0
LINE
  8
0
 10
473.0
 20
494.0
 30
0.0
 11
473.0
 21
493.0
 31
0.0
  0
LINE
  8
0
 10
473.0
 20
493.0
 30
0.0
 11
469.0
 21
493.0
 31
0.0
  0
LINE
  8
0
 10
469.0
 20
493.0
 30
0.0
 11
469.0
 21
494.0
 31
0.0
  0
LINE
  8
0
 10
489.0
 20
494.0
 30
0.0
 11
496.0
 21
494.0
 31
0.0
  0
LINE
  8
0
 10
496.0
 20
494.0
 30
0.0
 11
496.0
 21
493.0
 31
0.0
  0
LINE
  8
0
 10
496.0
 20
493.0
 30
0.0
 11
489.0
 21
493.0
 31
0.0
  0
LINE
  8
0
 10
489.0
 20
493.0
 30
0.0
 11
489.0
 21
494.0
 31
0.0
  0
LINE
  8
0
 10
511.0
 20
494.0
 30
0.0
 11
531.0
 21
494.0
 31
0.0
  0
LINE
  8
0
 10
531.0
 20
494.0
 30
0.0
 11
531.0
 21
493.0
 31
0.0
  0
LINE
  8
0
 10
531.0
 20
493.0
 30
0.0
 11
511.0
 21
493.0
 31
0.0
  0
LINE
  8
0
 10
511.0
 20
493.0
 30
0.0
 11
511.0
 21
494.0
 31
0.0
  0
LINE
  8
0
 10
469.0
 20
493.0
 30
0.0
 11
472.0
 21
493.0
 31
0.0
  0
LINE
  8
0
 10
472.0
 20
493.0
 30
0.0
 11
472.0
 21
492.0
 31
0.0
  0
LINE
  8
0
 10
472.0
 20
492.0
 30
0.0
 11
469.0
 21
492.0
 31
0.0
  0
LINE
  8
0
 10
469.0
 20
492.0
 30
0.0
 11
469.0
 21
493.0
 31
0.0
  0
LINE
  8
0
 10
489.0
 20
493.0
 30
0.0
 11
498.0
 21
493.0
 31
0.0
  0
LINE
  8
0
 10
498.0
 20
493.0
 30
0.0
 11
498.0
 21
492.0
 31
0.0
  0
LINE
  8
0
 10
498.0
 20
492.0
 30
0.0
 11
489.0
 21
492.0
 31
0.0
  0
LINE
  8
0
 10
489.0
 20
492.0
 30
0.0
 11
489.0
 21
493.0
 31
0.0
  0
LINE
  8
0
 10
515.0
 20
493.0
 30
0.0
 11
532.0
 21
493.0
 31
0.0
  0
LINE
  8
0
 10
532.0
 20
493.0
 30
0.0
 11
532.0
 21
492.0
 31
0.0
  0
LINE
  8
0
 10
532.0
 20
492.0
 30
0.0
 11
515.0
 21
492.0
 31
0.0
  0
LINE
  8
0
 10
515.0
 20
492.0
 30
0.0
 11
515.0
 21
493.0
 31
0.0
  0
LINE
  8
0
 10
469.0
 20
492.0
 30
0.0
 11
470.0
 21
492.0
 31
0.0
  0
LINE
  8
0
 10
470.0
 20
492.0
 30
0.0
 11
470.0
 21
491.0
 31
0.0
  0
LINE
  8
0
 10
470.0
 20
491.0
 30
0.0
 11
469.0
 21
491.0
 31
0.0
  0
LINE
  8
0
 10
469.0
 20
491.0
 30
0.0
 11
469.0
 21
492.0
 31
0.0
  0
LINE
  8
0
 10
490.0
 20
492.0
 30
0.0
 11
500.0
 21
492.0
 31
0.0
  0
LINE
  8
0
 10
500.0
 20
492.0
 30
0.0
 11
500.0
 21
491.0
 31
0.0
  0
LINE
  8
0
 10
500.0
 20
491.0
 30
0.0
 11
490.0
 21
491.0
 31
0.0
  0
LINE
  8
0
 10
490.0
 20
491.0
 30
0.0
 11
490.0
 21
492.0
 31
0.0
  0
LINE
  8
0
 10
517.0
 20
492.0
 30
0.0
 11
532.0
 21
492.0
 31
0.0
  0
LINE
  8
0
 10
532.0
 20
492.0
 30
0.0
 11
532.0
 21
491.0
 31
0.0
  0
LINE
  8
0
 10
532.0
 20
491.0
 30
0.0
 11
517.0
 21
491.0
 31
0.0
  0
LINE
  8
0
 10
517.0
 20
491.0
 30
0.0
 11
517.0
 21
492.0
 31
0.0
  0
LINE
  8
0
 10
481.0
 20
491.0
 30
0.0
 11
483.0
 21
491.0
 31
0.0
  0
LINE
  8
0
 10
483.0
 20
491.0
 30
0.0
 11
483.0
 21
490.0
 31
0.0
  0
LINE
  8
0
 10
483.0
 20
490.0
 30
0.0
 11
481.0
 21
490.0
 31
0.0
  0
LINE
  8
0
 10
481.0
 20
490.0
 30
0.0
 11
481.0
 21
491.0
 31
0.0
  0
LINE
  8
0
 10
490.0
 20
491.0
 30
0.0
 11
502.0
 21
491.0
 31
0.0
  0
LINE
  8
0
 10
502.0
 20
491.0
 30
0.0
 11
502.0
 21
490.0
 31
0.0
  0
LINE
  8
0
 10
502.0
 20
490.0
 30
0.0
 11
490.0
 21
490.0
 31
0.0
  0
LINE
  8
0
 10
490.0
 20
490.0
 30
0.0
 11
490.0
 21
491.0
 31
0.0
  0
LINE
  8
0
 10
520.0
 20
491.0
 30
0.0
 11
533.0
 21
491.0
 31
0.0
  0
LINE
  8
0
 10
533.0
 20
491.0
 30
0.0
 11
533.0
 21
490.0
 31
0.0
  0
LINE
  8
0
 10
533.0
 20
490.0
 30
0.0
 11
520.0
 21
490.0
 31
0.0
  0
LINE
  8
0
 10
520.0
 20
490.0
 30
0.0
 11
520.0
 21
491.0
 31
0.0
  0
LINE
  8
0
 10
480.0
 20
490.0
 30
0.0
 11
484.0
 21
490.0
 31
0.0
  0
LINE
  8
0
 10
484.0
 20
490.0
 30
0.0
 11
484.0
 21
489.0
 31
0.0
  0
LINE
  8
0
 10
484.0
 20
489.0
 30
0.0
 11
480.0
 21
489.0
 31
0.0
  0
LINE
  8
0
 10
480.0
 20
489.0
 30
0.0
 11
480.0
 21
490.0
 31
0.0
  0
LINE
  8
0
 10
490.0
 20
490.0
 30
0.0
 11
504.0
 21
490.0
 31
0.0
  0
LINE
  8
0
 10
504.0
 20
490.0
 30
0.0
 11
504.0
 21
489.0
 31
0.0
  0
LINE
  8
0
 10
504.0
 20
489.0
 30
0.0
 11
490.0
 21
489.0
 31
0.0
  0
LINE
  8
0
 10
490.0
 20
489.0
 30
0.0
 11
490.0
 21
490.0
 31
0.0
  0
LINE
  8
0
 10
524.0
 20
490.0
 30
0.0
 11
533.0
 21
490.0
 31
0.0
  0
LINE
  8
0
 10
533.0
 20
490.0
 30
0.0
 11
533.0
 21
489.0
 31
0.0
  0
LINE
  8
0
 10
533.0
 20
489.0
 30
0.0
 11
524.0
 21
489.0
 31
0.0
  0
LINE
  8
0
 10
524.0
 20
489.0
 30
0.0
 11
524.0
 21
490.0
 31
0.0
  0
LINE
  8
0
 10
480.0
 20
489.0
 30
0.0
 11
484.0
 21
489.0
 31
0.0
  0
LINE
  8
0
 10
484.0
 20
489.0
 30
0.0
 11
484.0
 21
488.0
 31
0.0
  0
LINE
  8
0
 10
484.0
 20
488.0
 30
0.0
 11
480.0
 21
488.0
 31
0.0
  0
LINE
  8
0
 10
480.0
 20
488.0
 30
0.0
 11
480.0
 21
489.0
 31
0.0
  0
LINE
  8
0
 10
490.0
 20
489.0
 30
0.0
 11
507.0
 21
489.0
 31
0.0
  0
LINE
  8
0
 10
507.0
 20
489.0
 30
0.0
 11
507.0
 21
488.0
 31
0.0
  0
LINE
  8
0
 10
507.0
 20
488.0
 30
0.0
 11
490.0
 21
488.0
 31
0.0
  0
LINE
  8
0
 10
490.0
 20
488.0
 30
0.0
 11
490.0
 21
489.0
 31
0.0
  0
LINE
  8
0
 10
527.0
 20
489.0
 30
0.0
 11
534.0
 21
489.0
 31
0.0
  0
LINE
  8
0
 10
534.0
 20
489.0
 30
0.0
 11
534.0
 21
488.0
 31
0.0
  0
LINE
  8
0
 10
534.0
 20
488.0
 30
0.0
 11
527.0
 21
488.0
 31
0.0
  0
LINE
  8
0
 10
527.0
 20
488.0
 30
0.0
 11
527.0
 21
489.0
 31
0.0
  0
LINE
  8
0
 10
478.0
 20
488.0
 30
0.0
 11
484.0
 21
488.0
 31
0.0
  0
LINE
  8
0
 10
484.0
 20
488.0
 30
0.0
 11
484.0
 21
487.0
 31
0.0
  0
LINE
  8
0
 10
484.0
 20
487.0
 30
0.0
 11
478.0
 21
487.0
 31
0.0
  0
LINE
  8
0
 10
478.0
 20
487.0
 30
0.0
 11
478.0
 21
488.0
 31
0.0
  0
LINE
  8
0
 10
490.0
 20
488.0
 30
0.0
 11
510.0
 21
488.0
 31
0.0
  0
LINE
  8
0
 10
510.0
 20
488.0
 30
0.0
 11
510.0
 21
487.0
 31
0.0
  0
LINE
  8
0
 10
510.0
 20
487.0
 30
0.0
 11
490.0
 21
487.0
 31
0.0
  0
LINE
  8
0
 10
490.0
 20
487.0
 30
0.0
 11
490.0
 21
488.0
 31
0.0
  0
LINE
  8
0
 10
530.0
 20
488.0
 30
0.0
 11
535.0
 21
488.0
 31
0.0
  0
LINE
  8
0
 10
535.0
 20
488.0
 30
0.0
 11
535.0
 21
487.0
 31
0.0
  0
LINE
  8
0
 10
535.0
 20
487.0
 30
0.0
 11
530.0
 21
487.0
 31
0.0
  0
LINE
  8
0
 10
530.0
 20
487.0
 30
0.0
 11
530.0
 21
488.0
 31
0.0
  0
LINE
  8
0
 10
477.0
 20
487.0
 30
0.0
 11
484.0
 21
487.0
 31
0.0
  0
LINE
  8
0
 10
484.0
 20
487.0
 30
0.0
 11
484.0
 21
486.0
 31
0.0
  0
LINE
  8
0
 10
484.0
 20
486.0
 30
0.0
 11
477.0
 21
486.0
 31
0.0
  0
LINE
  8
0
 10
477.0
 20
486.0
 30
0.0
 11
477.0
 21
487.0
 31
0.0
  0
LINE
  8
0
 10
490.0
 20
487.0
 30
0.0
 11
513.0
 21
487.0
 31
0.0
  0
LINE
  8
0
 10
513.0
 20
487.0
 30
0.0
 11
513.0
 21
486.0
 31
0.0
  0
LINE
  8
0
 10
513.0
 20
486.0
 30
0.0
 11
490.0
 21
486.0
 31
0.0
  0
LINE
  8
0
 10
490.0
 20
486.0
 30
0.0
 11
490.0
 21
487.0
 31
0.0
  0
LINE
  8
0
 10
532.0
 20
487.0
 30
0.0
 11
535.0
 21
487.0
 31
0.0
  0
LINE
  8
0
 10
535.0
 20
487.0
 30
0.0
 11
535.0
 21
486.0
 31
0.0
  0
LINE
  8
0
 10
535.0
 20
486.0
 30
0.0
 11
532.0
 21
486.0
 31
0.0
  0
LINE
  8
0
 10
532.0
 20
486.0
 30
0.0
 11
532.0
 21
487.0
 31
0.0
  0
LINE
  8
0
 10
475.0
 20
486.0
 30
0.0
 11
484.0
 21
486.0
 31
0.0
  0
LINE
  8
0
 10
484.0
 20
486.0
 30
0.0
 11
484.0
 21
485.0
 31
0.0
  0
LINE
  8
0
 10
484.0
 20
485.0
 30
0.0
 11
475.0
 21
485.0
 31
0.0
  0
LINE
  8
0
 10
475.0
 20
485.0
 30
0.0
 11
475.0
 21
486.0
 31
0.0
  0
LINE
  8
0
 10
491.0
 20
486.0
 30
0.0
 11
517.0
 21
486.0
 31
0.0
  0
LINE
  8
0
 10
517.0
 20
486.0
 30
0.0
 11
517.0
 21
485.0
 31
0.0
  0
LINE
  8
0
 10
517.0
 20
485.0
 30
0.0
 11
491.0
 21
485.0
 31
0.0
  0
LINE
  8
0
 10
491.0
 20
485.0
 30
0.0
 11
491.0
 21
486.0
 31
0.0
  0
LINE
  8
0
 10
472.0
 20
485.0
 30
0.0
 11
484.0
 21
485.0
 31
0.0
  0
LINE
  8
0
 10
484.0
 20
485.0
 30
0.0
 11
484.0
 21
484.0
 31
0.0
  0
LINE
  8
0
 10
484.0
 20
484.0
 30
0.0
 11
472.0
 21
484.0
 31
0.0
  0
LINE
  8
0
 10
472.0
 20
484.0
 30
0.0
 11
472.0
 21
485.0
 31
0.0
  0
LINE
  8
0
 10
491.0
 20
485.0
 30
0.0
 11
521.0
 21
485.0
 31
0.0
  0
LINE
  8
0
 10
521.0
 20
485.0
 30
0.0
 11
521.0
 21
484.0
 31
0.0
  0
LINE
  8
0
 10
521.0
 20
484.0
 30
0.0
 11
491.0
 21
484.0
 31
0.0
  0
LINE
  8
0
 10
491.0
 20
484.0
 30
0.0
 11
491.0
 21
485.0
 31
0.0
  0
LINE
  8
0
 10
469.0
 20
484.0
 30
0.0
 11
485.0
 21
484.0
 31
0.0
  0
LINE
  8
0
 10
485.0
 20
484.0
 30
0.0
 11
485.0
 21
483.0
 31
0.0
  0
LINE
  8
0
 10
485.0
 20
483.0
 30
0.0
 11
469.0
 21
483.0
 31
0.0
  0
LINE
  8
0
 10
469.0
 20
483.0
 30
0.0
 11
469.0
 21
484.0
 31
0.0
  0
LINE
  8
0
 10
491.0
 20
484.0
 30
0.0
 11
525.0
 21
484.0
 31
0.0
  0
LINE
  8
0
 10
525.0
 20
484.0
 30
0.0
 11
525.0
 21
483.0
 31
0.0
  0
LINE
  8
0
 10
525.0
 20
483.0
 30
0.0
 11
491.0
 21
483.0
 31
0.0
  0
LINE
  8
0
 10
491.0
 20
483.0
 30
0.0
 11
491.0
 21
484.0
 31
0.0
  0
LINE
  8
0
 10
469.0
 20
483.0
 30
0.0
 11
485.0
 21
483.0
 31
0.0
  0
LINE
  8
0
 10
485.0
 20
483.0
 30
0.0
 11
485.0
 21
482.0
 31
0.0
  0
LINE
  8
0
 10
485.0
 20
482.0
 30
0.0
 11
469.0
 21
482.0
 31
0.0
  0
LINE
  8
0
 10
469.0
 20
482.0
 30
0.0
 11
469.0
 21
483.0
 31
0.0
  0
LINE
  8
0
 10
492.0
 20
483.0
 30
0.0
 11
528.0
 21
483.0
 31
0.0
  0
LINE
  8
0
 10
528.0
 20
483.0
 30
0.0
 11
528.0
 21
482.0
 31
0.0
  0
LINE
  8
0
 10
528.0
 20
482.0
 30
0.0
 11
492.0
 21
482.0
 31
0.0
  0
LINE
  8
0
 10
492.0
 20
482.0
 30
0.0
 11
492.0
 21
483.0
 31
0.0
  0
LINE
  8
0
 10
469.0
 20
482.0
 30
0.0
 11
485.0
 21
482.0
 31
0.0
  0
LINE
  8
0
 10
485.0
 20
482.0
 30
0.0
 11
485.0
 21
481.0
 31
0.0
  0
LINE
  8
0
 10
485.0
 20
481.0
 30
0.0
 11
469.0
 21
481.0
 31
0.0
  0
LINE
  8
0
 10
469.0
 20
481.0
 30
0.0
 11
469.0
 21
482.0
 31
0.0
  0
LINE
  8
0
 10
492.0
 20
482.0
 30
0.0
 11
530.0
 21
482.0
 31
0.0
  0
LINE
  8
0
 10
530.0
 20
482.0
 30
0.0
 11
530.0
 21
481.0
 31
0.0
  0
LINE
  8
0
 10
530.0
 20
481.0
 30
0.0
 11
492.0
 21
481.0
 31
0.0
  0
LINE
  8
0
 10
492.0
 20
481.0
 30
0.0
 11
492.0
 21
482.0
 31
0.0
  0
LINE
  8
0
 10
469.0
 20
481.0
 30
0.0
 11
485.0
 21
481.0
 31
0.0
  0
LINE
  8
0
 10
485.0
 20
481.0
 30
0.0
 11
485.0
 21
480.0
 31
0.0
  0
LINE
  8
0
 10
485.0
 20
480.0
 30
0.0
 11
469.0
 21
480.0
 31
0.0
  0
LINE
  8
0
 10
469.0
 20
480.0
 30
0.0
 11
469.0
 21
481.0
 31
0.0
  0
LINE
  8
0
 10
492.0
 20
481.0
 30
0.0
 11
532.0
 21
481.0
 31
0.0
  0
LINE
  8
0
 10
532.0
 20
481.0
 30
0.0
 11
532.0
 21
480.0
 31
0.0
  0
LINE
  8
0
 10
532.0
 20
480.0
 30
0.0
 11
492.0
 21
480.0
 31
0.0
  0
LINE
  8
0
 10
492.0
 20
480.0
 30
0.0
 11
492.0
 21
481.0
 31
0.0
  0
LINE
  8
0
 10
469.0
 20
480.0
 30
0.0
 11
486.0
 21
480.0
 31
0.0
  0
LINE
  8
0
 10
486.0
 20
480.0
 30
0.0
 11
486.0
 21
479.0
 31
0.0
  0
LINE
  8
0
 10
486.0
 20
479.0
 30
0.0
 11
469.0
 21
479.0
 31
0.0
  0
LINE
  8
0
 10
469.0
 20
479.0
 30
0.0
 11
469.0
 21
480.0
 31
0.0
  0
LINE
  8
0
 10
493.0
 20
480.0
 30
0.0
 11
535.0
 21
480.0
 31
0.0
  0
LINE
  8
0
 10
535.0
 20
480.0
 30
0.0
 11
535.0
 21
479.0
 31
0.0
  0
LINE
  8
0
 10
535.0
 20
479.0
 30
0.0
 11
493.0
 21
479.0
 31
0.0
  0
LINE
  8
0
 10
493.0
 20
479.0
 30
0.0
 11
493.0
 21
480.0
 31
0.0
  0
LINE
  8
0
 10
469.0
 20
479.0
 30
0.0
 11
486.0
 21
479.0
 31
0.0
  0
LINE
  8
0
 10
486.0
 20
479.0
 30
0.0
 11
486.0
 21
478.0
 31
0.0
  0
LINE
  8
0
 10
486.0
 20
478.0
 30
0.0
 11
469.0
 21
478.0
 31
0.0
  0
LINE
  8
0
 10
469.0
 20
478.0
 30
0.0
 11
469.0
 21
479.0
 31
0.0
  0
LINE
  8
0
 10
493.0
 20
479.0
 30
0.0
 11
536.0
 21
479.0
 31
0.0
  0
LINE
  8
0
 10
536.0
 20
479.0
 30
0.0
 11
536.0
 21
478.0
 31
0.0
  0
LINE
  8
0
 10
536.0
 20
478.0
 30
0.0
 11
493.0
 21
478.0
 31
0.0
  0
LINE
  8
0
 10
493.0
 20
478.0
 30
0.0
 11
493.0
 21
479.0
 31
0.0
  0
LINE
  8
0
 10
469.0
 20
478.0
 30
0.0
 11
486.0
 21
478.0
 31
0.0
  0
LINE
  8
0
 10
486.0
 20
478.0
 30
0.0
 11
486.0
 21
477.0
 31
0.0
  0
LINE
  8
0
 10
486.0
 20
477.0
 30
0.0
 11
469.0
 21
477.0
 31
0.0
  0
LINE
  8
0
 10
469.0
 20
477.0
 30
0.0
 11
469.0
 21
478.0
 31
0.0
  0
LINE
  8
0
 10
493.0
 20
478.0
 30
0.0
 11
538.0
 21
478.0
 31
0.0
  0
LINE
  8
0
 10
538.0
 20
478.0
 30
0.0
 11
538.0
 21
477.0
 31
0.0
  0
LINE
  8
0
 10
538.0
 20
477.0
 30
0.0
 11
493.0
 21
477.0
 31
0.0
  0
LINE
  8
0
 10
493.0
 20
477.0
 30
0.0
 11
493.0
 21
478.0
 31
0.0
  0
LINE
  8
0
 10
469.0
 20
477.0
 30
0.0
 11
487.0
 21
477.0
 31
0.0
  0
LINE
  8
0
 10
487.0
 20
477.0
 30
0.0
 11
487.0
 21
476.0
 31
0.0
  0
LINE
  8
0
 10
487.0
 20
476.0
 30
0.0
 11
469.0
 21
476.0
 31
0.0
  0
LINE
  8
0
 10
469.0
 20
476.0
 30
0.0
 11
469.0
 21
477.0
 31
0.0
  0
LINE
  8
0
 10
493.0
 20
477.0
 30
0.0
 11
539.0
 21
477.0
 31
0.0
  0
LINE
  8
0
 10
539.0
 20
477.0
 30
0.0
 11
539.0
 21
476.0
 31
0.0
  0
LINE
  8
0
 10
539.0
 20
476.0
 30
0.0
 11
493.0
 21
476.0
 31
0.0
  0
LINE
  8
0
 10
493.0
 20
476.0
 30
0.0
 11
493.0
 21
477.0
 31
0.0
  0
LINE
  8
0
 10
469.0
 20
476.0
 30
0.0
 11
487.0
 21
476.0
 31
0.0
  0
LINE
  8
0
 10
487.0
 20
476.0
 30
0.0
 11
487.0
 21
475.0
 31
0.0
  0
LINE
  8
0
 10
487.0
 20
475.0
 30
0.0
 11
469.0
 21
475.0
 31
0.0
  0
LINE
  8
0
 10
469.0
 20
475.0
 30
0.0
 11
469.0
 21
476.0
 31
0.0
  0
LINE
  8
0
 10
494.0
 20
476.0
 30
0.0
 11
540.0
 21
476.0
 31
0.0
  0
LINE
  8
0
 10
540.0
 20
476.0
 30
0.0
 11
540.0
 21
475.0
 31
0.0
  0
LINE
  8
0
 10
540.0
 20
475.0
 30
0.0
 11
494.0
 21
475.0
 31
0.0
  0
LINE
  8
0
 10
494.0
 20
475.0
 30
0.0
 11
494.0
 21
476.0
 31
0.0
  0
LINE
  8
0
 10
469.0
 20
475.0
 30
0.0
 11
487.0
 21
475.0
 31
0.0
  0
LINE
  8
0
 10
487.0
 20
475.0
 30
0.0
 11
487.0
 21
474.0
 31
0.0
  0
LINE
  8
0
 10
487.0
 20
474.0
 30
0.0
 11
469.0
 21
474.0
 31
0.0
  0
LINE
  8
0
 10
469.0
 20
474.0
 30
0.0
 11
469.0
 21
475.0
 31
0.0
  0
LINE
  8
0
 10
494.0
 20
475.0
 30
0.0
 11
541.0
 21
475.0
 31
0.0
  0
LINE
  8
0
 10
541.0
 20
475.0
 30
0.0
 11
541.0
 21
474.0
 31
0.0
  0
LINE
  8
0
 10
541.0
 20
474.0
 30
0.0
 11
494.0
 21
474.0
 31
0.0
  0
LINE
  8
0
 10
494.0
 20
474.0
 30
0.0
 11
494.0
 21
475.0
 31
0.0
  0
LINE
  8
0
 10
469.0
 20
474.0
 30
0.0
 11
487.0
 21
474.0
 31
0.0
  0
LINE
  8
0
 10
487.0
 20
474.0
 30
0.0
 11
487.0
 21
473.0
 31
0.0
  0
LINE
  8
0
 10
487.0
 20
473.0
 30
0.0
 11
469.0
 21
473.0
 31
0.0
  0
LINE
  8
0
 10
469.0
 20
473.0
 30
0.0
 11
469.0
 21
474.0
 31
0.0
  0
LINE
  8
0
 10
495.0
 20
474.0
 30
0.0
 11
542.0
 21
474.0
 31
0.0
  0
LINE
  8
0
 10
542.0
 20
474.0
 30
0.0
 11
542.0
 21
473.0
 31
0.0
  0
LINE
  8
0
 10
542.0
 20
473.0
 30
0.0
 11
495.0
 21
473.0
 31
0.0
  0
LINE
  8
0
 10
495.0
 20
473.0
 30
0.0
 11
495.0
 21
474.0
 31
0.0
  0
LINE
  8
0
 10
469.0
 20
473.0
 30
0.0
 11
488.0
 21
473.0
 31
0.0
  0
LINE
  8
0
 10
488.0
 20
473.0
 30
0.0
 11
488.0
 21
472.0
 31
0.0
  0
LINE
  8
0
 10
488.0
 20
472.0
 30
0.0
 11
469.0
 21
472.0
 31
0.0
  0
LINE
  8
0
 10
469.0
 20
472.0
 30
0.0
 11
469.0
 21
473.0
 31
0.0
  0
LINE
  8
0
 10
495.0
 20
473.0
 30
0.0
 11
542.0
 21
473.0
 31
0.0
  0
LINE
  8
0
 10
542.0
 20
473.0
 30
0.0
 11
542.0
 21
472.0
 31
0.0
  0
LINE
  8
0
 10
542.0
 20
472.0
 30
0.0
 11
495.0
 21
472.0
 31
0.0
  0
LINE
  8
0
 10
495.0
 20
472.0
 30
0.0
 11
495.0
 21
473.0
 31
0.0
  0
LINE
  8
0
 10
469.0
 20
472.0
 30
0.0
 11
488.0
 21
472.0
 31
0.0
  0
LINE
  8
0
 10
488.0
 20
472.0
 30
0.0
 11
488.0
 21
471.0
 31
0.0
  0
LINE
  8
0
 10
488.0
 20
471.0
 30
0.0
 11
469.0
 21
471.0
 31
0.0
  0
LINE
  8
0
 10
469.0
 20
471.0
 30
0.0
 11
469.0
 21
472.0
 31
0.0
  0
LINE
  8
0
 10
495.0
 20
472.0
 30
0.0
 11
543.0
 21
472.0
 31
0.0
  0
LINE
  8
0
 10
543.0
 20
472.0
 30
0.0
 11
543.0
 21
471.0
 31
0.0
  0
LINE
  8
0
 10
543.0
 20
471.0
 30
0.0
 11
495.0
 21
471.0
 31
0.0
  0
LINE
  8
0
 10
495.0
 20
471.0
 30
0.0
 11
495.0
 21
472.0
 31
0.0
  0
LINE
  8
0
 10
469.0
 20
471.0
 30
0.0
 11
488.0
 21
471.0
 31
0.0
  0
LINE
  8
0
 10
488.0
 20
471.0
 30
0.0
 11
488.0
 21
470.0
 31
0.0
  0
LINE
  8
0
 10
488.0
 20
470.0
 30
0.0
 11
469.0
 21
470.0
 31
0.0
  0
LINE
  8
0
 10
469.0
 20
470.0
 30
0.0
 11
469.0
 21
471.0
 31
0.0
  0
LINE
  8
0
 10
496.0
 20
471.0
 30
0.0
 11
544.0
 21
471.0
 31
0.0
  0
LINE
  8
0
 10
544.0
 20
471.0
 30
0.0
 11
544.0
 21
470.0
 31
0.0
  0
LINE
  8
0
 10
544.0
 20
470.0
 30
0.0
 11
496.0
 21
470.0
 31
0.0
  0
LINE
  8
0
 10
496.0
 20
470.0
 30
0.0
 11
496.0
 21
471.0
 31
0.0
  0
LINE
  8
0
 10
469.0
 20
470.0
 30
0.0
 11
488.0
 21
470.0
 31
0.0
  0
LINE
  8
0
 10
488.0
 20
470.0
 30
0.0
 11
488.0
 21
469.0
 31
0.0
  0
LINE
  8
0
 10
488.0
 20
469.0
 30
0.0
 11
469.0
 21
469.0
 31
0.0
  0
LINE
  8
0
 10
469.0
 20
469.0
 30
0.0
 11
469.0
 21
470.0
 31
0.0
  0
LINE
  8
0
 10
496.0
 20
470.0
 30
0.0
 11
545.0
 21
470.0
 31
0.0
  0
LINE
  8
0
 10
545.0
 20
470.0
 30
0.0
 11
545.0
 21
469.0
 31
0.0
  0
LINE
  8
0
 10
545.0
 20
469.0
 30
0.0
 11
496.0
 21
469.0
 31
0.0
  0
LINE
  8
0
 10
496.0
 20
469.0
 30
0.0
 11
496.0
 21
470.0
 31
0.0
  0
LINE
  8
0
 10
469.0
 20
469.0
 30
0.0
 11
489.0
 21
469.0
 31
0.0
  0
LINE
  8
0
 10
489.0
 20
469.0
 30
0.0
 11
489.0
 21
468.0
 31
0.0
  0
LINE
  8
0
 10
489.0
 20
468.0
 30
0.0
 11
469.0
 21
468.0
 31
0.0
  0
LINE
  8
0
 10
469.0
 20
468.0
 30
0.0
 11
469.0
 21
469.0
 31
0.0
  0
LINE
  8
0
 10
497.0
 20
469.0
 30
0.0
 11
546.0
 21
469.0
 31
0.0
  0
LINE
  8
0
 10
546.0
 20
469.0
 30
0.0
 11
546.0
 21
468.0
 31
0.0
  0
LINE
  8
0
 10
546.0
 20
468.0
 30
0.0
 11
497.0
 21
468.0
 31
0.0
  0
LINE
  8
0
 10
497.0
 20
468.0
 30
0.0
 11
497.0
 21
469.0
 31
0.0
  0
LINE
  8
0
 10
469.0
 20
468.0
 30
0.0
 11
489.0
 21
468.0
 31
0.0
  0
LINE
  8
0
 10
489.0
 20
468.0
 30
0.0
 11
489.0
 21
467.0
 31
0.0
  0
LINE
  8
0
 10
489.0
 20
467.0
 30
0.0
 11
469.0
 21
467.0
 31
0.0
  0
LINE
  8
0
 10
469.0
 20
467.0
 30
0.0
 11
469.0
 21
468.0
 31
0.0
  0
LINE
  8
0
 10
497.0
 20
468.0
 30
0.0
 11
546.0
 21
468.0
 31
0.0
  0
LINE
  8
0
 10
546.0
 20
468.0
 30
0.0
 11
546.0
 21
467.0
 31
0.0
  0
LINE
  8
0
 10
546.0
 20
467.0
 30
0.0
 11
497.0
 21
467.0
 31
0.0
  0
LINE
  8
0
 10
497.0
 20
467.0
 30
0.0
 11
497.0
 21
468.0
 31
0.0
  0
LINE
  8
0
 10
469.0
 20
467.0
 30
0.0
 11
489.0
 21
467.0
 31
0.0
  0
LINE
  8
0
 10
489.0
 20
467.0
 30
0.0
 11
489.0
 21
466.0
 31
0.0
  0
LINE
  8
0
 10
489.0
 20
466.0
 30
0.0
 11
469.0
 21
466.0
 31
0.0
  0
LINE
  8
0
 10
469.0
 20
466.0
 30
0.0
 11
469.0
 21
467.0
 31
0.0
  0
LINE
  8
0
 10
498.0
 20
467.0
 30
0.0
 11
547.0
 21
467.0
 31
0.0
  0
LINE
  8
0
 10
547.0
 20
467.0
 30
0.0
 11
547.0
 21
466.0
 31
0.0
  0
LINE
  8
0
 10
547.0
 20
466.0
 30
0.0
 11
498.0
 21
466.0
 31
0.0
  0
LINE
  8
0
 10
498.0
 20
466.0
 30
0.0
 11
498.0
 21
467.0
 31
0.0
  0
ENDSEC
  0
EOF