<svg xmlns="http://www.w3.org/2000/svg" viewBox="0 0 1024 1024" width="1024" height="1024">
  <path d="M520,410 h6 v1 h-6 z M510,411 h23 v1 h-23 z M576,411 h7 v1 h-7 z M506,412 h30 v1 h-30 z M573,412 h11 v1 h-11 z M502,413 h36 v1 h-36 z M569,413 h16 v1 h-16 z M499,414 h40 v1 h-40 z M565,414 h20 v1 h-20 z M497,415 h43 v1 h-43 z M562,415 h24 v1 h-24 z M495,416 h46 v1 h-46 z M559,416 h27 v1 h-27 z M493,417 h49 v1 h-49 z M555,417 h31 v1 h-31 z M491,418 h53 v1 h-53 z M550,418 h36 v1 h-36 z M489,419 h97 v1 h-97 z M488,420 h98 v1 h-98 z M487,421 h99 v1 h-99 z M485,422 h101 v1 h-101 z M484,423 h103 v1 h-103 z M483,424 h104 v1 h-104 z M482,425 h105 v1 h-105 z M481,426 h106 v1 h-106 z M480,427 h108 v1 h-108 z M479,428 h109 v1 h-109 z M478,429 h110 v1 h-110 z M478,430 h110 v1 h-110 z M477,431 h111 v1 h-111 z M477,432 h111 v1 h-111 z M476,433 h112 v1 h-112 z M475,434 h113 v1 h-113 z M475,435 h113 v1 h-113 z M475,436 h25 v1 h-25 z M501,436 h86 v1 h-86 z M474,437 h113 v1 h-113 z M474,438 h27 v1 h-27 z M502,438 h85 v1 h-85 z M474,439 h27 v1 h-27 z M502,439 h85 v1 h-85 z M474,440 h28 v1 h-28 z M503,440 h83 v1 h-83 z M473,441 h29 v1 h-29 z M504,441 h82 v1 h-82 z M473,442 h30 v1 h-30 z M504,442 h82 v1 h-82 z M473,443 h30 v1 h-30 z M505,443 h80 v1 h-80 z M473,444 h31 v1 h-31 z M505,444 h80 v1 h-80 z M473,445 h31 v1 h-31 z M506,445 h78 v1 h-78 z M472,446 h33 v1 h-33 z M506,446 h77 v1 h-77 z M472,447 h33 v1 h-33 z M507,447 h76 v1 h-76 z M472,448 h34 v1 h-34 z M508,448 h74 v1 h-74 z M471,449 h35 v1 h-35 z M508,449 h73 v1 h-73 z M471,450 h36 v1 h-36 z M509,450 h71 v1 h-71 z M470,451 h37 v1 h-37 z M509,451 h70 v1 h-70 z M470,452 h38 v1 h-38 z M510,452 h68 v1 h-68 z M470,453 h38 v1 h-38 z M510,453 h67 v1 h-67 z M469,454 h40 v1 h-40 z M511,454 h65 v1 h-65 z M469,455 h40 v1 h-40 z M511,455 h64 v1 h-64 z M469,456 h41 v1 h-41 z M512,456 h61 v1 h-61 z M468,457 h42 v1 h-42 z M512,457 h60 v1 h-60 z M468,458 h43 v1 h-43 z M513,458 h58 v1 h-58 z M468,459 h43 v1 h-43 z M513,459 h56 v1 h-56 z M467,460 h45 v1 h-45 z M513,460 h54 v1 h-54 z M467,461 h45 v1 h-45 z M514,461 h51 v1 h-51 z M467,462 h45 v1 h-45 z M514,462 h49 v1 h-49 z M466,463 h47 v1 h-47 z M514,463 h48 v1 h-48 z M466,464 h47 v1 h-47 z M515,464 h45 v1 h-45 z M466,465 h47 v1 h-47 z M515,465 h43 v1 h-43 z M466,466 h48 v1 h-48 z M515,466 h42 v1 h-42 z M465,467 h49 v1 h-49 z M515,467 h41 v1 h-41 z M465,468 h10 v1 h-10 z M476,468 h38 v1 h-38 z M516,468 h38 v1 h-38 z M465,469 h11 v1 h-11 z M477,469 h37 v1 h-37 z M516,469 h37 v1 h-37 z M465,470 h12 v1 h-12 z M479,470 h35 v1 h-35 z M516,470 h36 v1 h-36 z M465,471 h13 v1 h-13 z M480,471 h34 v1 h-34 z M516,471 h35 v1 h-35 z M465,472 h14 v1 h-14 z M482,472 h32 v1 h-32 z M516,472 h35 v1 h-35 z M466,473 h15 v1 h-15 z M484,473 h30 v1 h-30 z M516,473 h34 v1 h-34 z M466,474 h16 v1 h-16 z M486,474 h28 v1 h-28 z M516,474 h34 v1 h-34 z M467,475 h17 v1 h-17 z M488,475 h26 v1 h-26 z M516,475 h33 v1 h-33 z M472,476 h14 v1 h-14 z M490,476 h24 v1 h-24 z M516,476 h33 v1 h-33 z M470,477 h1 v1 h-1 z M472,477 h16 v1 h-16 z M493,477 h21 v1 h-21 z M515,477 h34 v1 h-34 z M470,478 h1 v1 h-1 z M472,478 h18 v1 h-18 z M496,478 h17 v1 h-17 z M515,478 h33 v1 h-33 z M471,479 h21 v1 h-21 z M498,479 h15 v1 h-15 z M515,479 h33 v1 h-33 z M471,480 h24 v1 h-24 z M502,480 h9 v1 h-9 z M514,480 h34 v1 h-34 z M471,481 h28 v1 h-28 z M507,481 h1 v1 h-1 z M513,481 h35 v1 h-35 z M471,482 h31 v1 h-31 z M512,482 h36 v1 h-36 z M471,483 h77 v1 h-77 z M471,484 h77 v1 h-77 z M471,485 h77 v1 h-77 z M471,486 h77 v1 h-77 z M471,487 h77 v1 h-77 z M471,488 h77 v1 h-77 z M470,489 h78 v1 h-78 z M470,490 h78 v1 h-78 z M470,491 h78 v1 h-78 z M470,492 h79 v1 h-79 z M470,493 h79 v1 h-79 z M470,494 h79 v1 h-79 z M470,495 h79 v1 h-79 z M470,496 h79 v1 h-79 z M469,497 h80 v1 h-80 z M469,498 h80 v1 h-80 z M469,499 h80 v1 h-80 z M469,500 h81 v1 h-81 z M469,501 h81 v1 h-81 z M468,502 h82 v1 h-82 z M468,503 h82 v1 h-82 z M468,504 h82 v1 h-82 z M468,505 h82 v1 h-82 z M467,506 h83 v1 h-83 z M467,507 h83 v1 h-83 z M467,508 h83 v1 h-83 z M466,509 h85 v1 h-85 z M466,510 h85 v1 h-85 z M466,511 h85 v1 h-85 z M465,512 h86 v1 h-86 z M465,513 h86 v1 h-86 z M464,514 h87 v1 h-87 z M464,515 h87 v1 h-87 z M463,516 h89 v1 h-89 z M462,517 h90 v1 h-90 z M462,518 h90 v1 h-90 z M461,519 h91 v1 h-91 z M460,520 h92 v1 h-92 z M460,521 h92 v1 h-92 z M459,522 h94 v1 h-94 z M458,523 h95 v1 h-95 z M457,524 h96 v1 h-96 z M456,525 h97 v1 h-97 z M455,526 h99 v1 h-99 z M455,527 h99 v1 h-99 z M454,528 h100 v1 h-100 z M453,529 h101 v1 h-101 z M453,530 h102 v1 h-102 z M452,531 h103 v1 h-103 z M452,532 h103 v1 h-103 z M452,533 h104 v1 h-104 z M454,534 h102 v1 h-102 z M454,535 h102 v1 h-102 z M453,536 h104 v1 h-104 z M441,537 h7 v1 h-7 z M453,537 h104 v1 h-104 z M439,538 h10 v1 h-10 z M453,538 h104 v1 h-104 z M438,539 h12 v1 h-12 z M453,539 h105 v1 h-105 z M438,540 h12 v1 h-12 z M452,540 h11 v1 h-11 z M488,540 h70 v1 h-70 z M437,541 h6 v1 h-6 z M446,541 h9 v1 h-9 z M459,541 h1 v1 h-1 z M496,541 h62 v1 h-62 z M437,542 h5 v1 h-5 z M447,542 h4 v1 h-4 z M502,542 h57 v1 h-57 z M436,543 h5 v1 h-5 z M447,543 h4 v1 h-4 z M507,543 h52 v1 h-52 z M436,544 h5 v1 h-5 z M447,544 h4 v1 h-4 z M454,544 h4 v1 h-4 z M512,544 h47 v1 h-47 z M436,545 h5 v1 h-5 z M447,545 h12 v1 h-12 z M517,545 h43 v1 h-43 z M436,546 h5 v1 h-5 z M446,546 h13 v1 h-13 z M521,546 h39 v1 h-39 z M436,547 h5 v1 h-5 z M445,547 h14 v1 h-14 z M525,547 h35 v1 h-35 z M437,548 h5 v1 h-5 z M445,548 h14 v1 h-14 z M529,548 h31 v1 h-31 z M437,549 h22 v1 h-22 z M533,549 h27 v1 h-27 z M438,550 h21 v1 h-21 z M536,550 h24 v1 h-24 z M439,551 h21 v1 h-21 z M463,551 h22 v1 h-22 z M539,551 h17 v1 h-17 z M440,552 h20 v1 h-20 z M462,552 h30 v1 h-30 z M542,552 h14 v1 h-14 z M558,552 h1 v1 h-1 z M442,553 h3 v1 h-3 z M446,553 h13 v1 h-13 z M462,553 h38 v1 h-38 z M546,553 h10 v1 h-10 z M446,554 h12 v1 h-12 z M461,554 h44 v1 h-44 z M549,554 h8 v1 h-8 z M442,555 h1 v1 h-1 z M446,555 h10 v1 h-10 z M458,555 h1 v1 h-1 z M460,555 h49 v1 h-49 z M552,555 h6 v1 h-6 z M441,556 h2 v1 h-2 z M446,556 h9 v1 h-9 z M460,556 h54 v1 h-54 z M554,556 h4 v1 h-4 z M440,557 h3 v1 h-3 z M446,557 h8 v1 h-8 z M460,557 h58 v1 h-58 z M554,557 h5 v1 h-5 z M439,558 h4 v1 h-4 z M447,558 h5 v1 h-5 z M460,558 h62 v1 h-62 z M554,558 h5 v1 h-5 z M438,559 h6 v1 h-6 z M447,559 h4 v1 h-4 z M460,559 h66 v1 h-66 z M554,559 h4 v1 h-4 z M437,560 h7 v1 h-7 z M448,560 h2 v1 h-2 z M461,560 h69 v1 h-69 z M554,560 h4 v1 h-4 z M436,561 h9 v1 h-9 z M461,561 h73 v1 h-73 z M554,561 h4 v1 h-4 z M435,562 h11 v1 h-11 z M448,562 h1 v1 h-1 z M461,562 h76 v1 h-76 z M554,562 h4 v1 h-4 z M434,563 h14 v1 h-14 z M462,563 h78 v1 h-78 z M554,563 h4 v1 h-4 z M433,564 h17 v1 h-17 z M462,564 h81 v1 h-81 z M554,564 h5 v1 h-5 z M432,565 h18 v1 h-18 z M462,565 h85 v1 h-85 z M554,565 h5 v1 h-5 z M431,566 h19 v1 h-19 z M463,566 h87 v1 h-87 z M554,566 h5 v1 h-5 z M430,567 h21 v1 h-21 z M463,567 h88 v1 h-88 z M552,567 h1 v1 h-1 z M554,567 h5 v1 h-5 z M429,568 h22 v1 h-22 z M463,568 h88 v1 h-88 z M552,568 h1 v1 h-1 z M554,568 h5 v1 h-5 z M428,569 h23 v1 h-23 z M464,569 h87 v1 h-87 z M554,569 h6 v1 h-6 z M427,570 h25 v1 h-25 z M464,570 h88 v1 h-88 z M555,570 h5 v1 h-5 z M426,571 h26 v1 h-26 z M465,571 h87 v1 h-87 z M556,571 h4 v1 h-4 z M425,572 h27 v1 h-27 z M465,572 h88 v1 h-88 z M554,572 h1 v1 h-1 z M556,572 h4 v1 h-4 z M424,573 h29 v1 h-29 z M465,573 h88 v1 h-88 z M557,573 h4 v1 h-4 z M424,574 h29 v1 h-29 z M466,574 h88 v1 h-88 z M557,574 h4 v1 h-4 z M423,575 h31 v1 h-31 z M466,575 h88 v1 h-88 z M557,575 h4 v1 h-4 z M422,576 h32 v1 h-32 z M467,576 h87 v1 h-87 z M557,576 h4 v1 h-4 z M421,577 h33 v1 h-33 z M467,577 h87 v1 h-87 z M557,577 h4 v1 h-4 z M420,578 h35 v1 h-35 z M468,578 h86 v1 h-86 z M557,578 h3 v1 h-3 z M419,579 h36 v1 h-36 z M468,579 h86 v1 h-86 z M556,579 h4 v1 h-4 z M418,580 h38 v1 h-38 z M469,580 h85 v1 h-85 z M556,580 h4 v1 h-4 z M417,581 h39 v1 h-39 z M469,581 h85 v1 h-85 z M556,581 h4 v1 h-4 z M416,582 h41 v1 h-41 z M470,582 h83 v1 h-83 z M556,582 h4 v1 h-4 z M416,583 h41 v1 h-41 z M470,583 h83 v1 h-83 z M554,583 h1 v1 h-1 z M556,583 h4 v1 h-4 z M416,584 h42 v1 h-42 z M471,584 h82 v1 h-82 z M554,584 h6 v1 h-6 z M416,585 h42 v1 h-42 z M471,585 h82 v1 h-82 z M555,585 h4 v1 h-4 z M416,586 h43 v1 h-43 z M472,586 h81 v1 h-81 z M555,586 h4 v1 h-4 z M416,587 h43 v1 h-43 z M473,587 h79 v1 h-79 z M555,587 h4 v1 h-4 z M416,588 h44 v1 h-44 z M473,588 h79 v1 h-79 z M555,588 h4 v1 h-4 z M416,589 h44 v1 h-44 z M474,589 h78 v1 h-78 z M554,589 h4 v1 h-4 z M416,590 h45 v1 h-45 z M474,590 h78 v1 h-78 z M554,590 h4 v1 h-4 z M416,591 h45 v1 h-45 z M475,591 h76 v1 h-76 z M554,591 h4 v1 h-4 z M416,592 h46 v1 h-46 z M476,592 h75 v1 h-75 z M553,592 h4 v1 h-4 z M416,593 h47 v1 h-47 z M476,593 h75 v1 h-75 z M553,593 h4 v1 h-4 z M416,594 h47 v1 h-47 z M477,594 h73 v1 h-73 z M553,594 h3 v1 h-3 z M416,595 h48 v1 h-48 z M478,595 h72 v1 h-72 z M552,595 h4 v1 h-4 z M416,596 h48 v1 h-48 z M478,596 h71 v1 h-71 z M552,596 h4 v1 h-4 z M416,597 h49 v1 h-49 z M479,597 h70 v1 h-70 z M552,597 h3 v1 h-3 z M416,598 h50 v1 h-50 z M480,598 h68 v1 h-68 z M551,598 h4 v1 h-4 z M416,599 h50 v1 h-50 z M481,599 h67 v1 h-67 z M551,599 h3 v1 h-3 z M416,600 h51 v1 h-51 z M481,600 h67 v1 h-67 z M551,600 h3 v1 h-3 z M416,601 h52 v1 h-52 z M482,601 h65 v1 h-65 z M550,601 h3 v1 h-3 z M416,602 h52 v1 h-52 z M483,602 h63 v1 h-63 z M548,602 h1 v1 h-1 z M550,602 h3 v1 h-3 z M416,603 h53 v1 h-53 z M484,603 h62 v1 h-62 z M549,603 h3 v1 h-3 z M416,604 h54 v1 h-54 z M484,604 h62 v1 h-62 z M549,604 h3 v1 h-3 z M416,605 h54 v1 h-54 z M485,605 h60 v1 h-60 z M548,605 h3 v1 h-3 z M416,606 h55 v1 h-55 z M486,606 h58 v1 h-58 z M546,606 h1 v1 h-1 z M548,606 h2 v1 h-2 z M416,607 h56 v1 h-56 z M487,607 h57 v1 h-57 z M547,607 h3 v1 h-3 z M416,608 h57 v1 h-57 z M488,608 h55 v1 h-55 z M547,608 h2 v1 h-2 z M416,609 h57 v1 h-57 z M489,609 h53 v1 h-53 z M546,609 h3 v1 h-3 z M416,610 h58 v1 h-58 z M489,610 h53 v1 h-53 z M546,610 h2 v1 h-2 z M416,611 h59 v1 h-59 z M490,611 h51 v1 h-51 z M545,611 h2 v1 h-2 z M416,612 h60 v1 h-60 z M491,612 h49 v1 h-49 z M545,612 h2 v1 h-2 z M416,613 h61 v1 h-61 z M492,613 h48 v1 h-48 z M544,613 h2 v1 h-2 z M416,614 h62 v1 h-62 z M493,614 h46 v1 h-46 z M416,615 h62 v1 h-62 z M494,615 h44 v1 h-44 z M416,616 h63 v1 h-63 z M494,616 h43 v1 h-43 z M416,617 h64 v1 h-64 z M494,617 h43 v1 h-43 z M543,617 h1 v1 h-1 z M416,618 h65 v1 h-65 z M493,618 h43 v1 h-43 z M542,618 h2 v1 h-2 z M416,619 h66 v1 h-66 z M493,619 h42 v1 h-42 z M541,619 h3 v1 h-3 z M416,620 h67 v1 h-67 z M492,620 h42 v1 h-42 z M540,620 h4 v1 h-4 z M416,621 h68 v1 h-68 z M491,621 h43 v1 h-43 z M540,621 h4 v1 h-4 z M416,622 h69 v1 h-69 z M491,622 h42 v1 h-42 z M539,622 h5 v1 h-5 z M416,623 h70 v1 h-70 z M490,623 h43 v1 h-43 z M538,623 h6 v1 h-6 z M416,624 h71 v1 h-71 z M490,624 h43 v1 h-43 z M537,624 h6 v1 h-6 z M416,625 h72 v1 h-72 z M490,625 h42 v1 h-42 z M536,625 h7 v1 h-7 z M416,626 h72 v1 h-72 z M491,626 h41 v1 h-41 z M535,626 h8 v1 h-8 z M416,627 h72 v1 h-72 z M491,627 h41 v1 h-41 z M534,627 h9 v1 h-9 z M416,628 h72 v1 h-72 z M491,628 h41 v1 h-41 z M534,628 h9 v1 h-9 z M416,629 h72 v1 h-72 z M491,629 h41 v1 h-41 z M534,629 h9 v1 h-9 z M416,630 h72 v1 h-72 z M491,630 h41 v1 h-41 z M534,630 h9 v1 h-9 z M416,631 h73 v1 h-73 z M491,631 h40 v1 h-40 z M534,631 h9 v1 h-9 z M416,632 h73 v1 h-73 z M494,632 h37 v1 h-37 z M533,632 h10 v1 h-10 z M416,633 h74 v1 h-74 z M494,633 h37 v1 h-37 z M533,633 h10 v1 h-10 z" fill="#000000" fill-rule="evenodd" />
</svg>