<svg xmlns="http://www.w3.org/2000/svg" viewBox="0 0 1024 1024" width="1024" height="1024">
  <path d="M596,398 h8 v1 h-8 z M607,398 h6 v1 h-6 z M615,398 h6 v1 h-6 z M596,399 h8 v1 h-8 z M607,399 h6 v1 h-6 z M614,399 h6 v1 h-6 z M596,400 h7 v1 h-7 z M607,400 h6 v1 h-6 z M614,400 h6 v1 h-6 z M596,401 h6 v1 h-6 z M607,401 h13 v1 h-13 z M596,402 h5 v1 h-5 z M607,402 h12 v1 h-12 z M596,403 h4 v1 h-4 z M607,403 h12 v1 h-12 z M596,404 h3 v1 h-3 z M607,404 h11 v1 h-11 z M596,405 h2 v1 h-2 z M607,405 h11 v1 h-11 z M607,406 h10 v1 h-10 z M607,407 h10 v1 h-10 z M607,408 h9 v1 h-9 z M607,409 h8 v1 h-8 z M607,410 h8 v1 h-8 z M607,411 h7 v1 h-7 z M607,412 h6 v1 h-6 z M607,413 h5 v1 h-5 z M607,414 h4 v1 h-4 z M607,415 h3 v1 h-3 z M503,418 h1 v1 h-1 z M502,419 h3 v1 h-3 z M502,420 h4 v1 h-4 z M502,421 h5 v1 h-5 z M502,422 h6 v1 h-6 z M502,423 h7 v1 h-7 z M502,424 h8 v1 h-8 z M502,425 h9 v1 h-9 z M502,426 h9 v1 h-9 z M502,427 h10 v1 h-10 z M503,428 h10 v1 h-10 z M422,429 h5 v1 h-5 z M503,429 h10 v1 h-10 z M422,430 h8 v1 h-8 z M503,430 h11 v1 h-11 z M422,431 h12 v1 h-12 z M500,431 h2 v1 h-2 z M503,431 h12 v1 h-12 z M423,432 h14 v1 h-14 z M500,432 h15 v1 h-15 z M423,433 h17 v1 h-17 z M500,433 h16 v1 h-16 z M424,434 h18 v1 h-18 z M500,434 h16 v1 h-16 z M425,435 h20 v1 h-20 z M500,435 h17 v1 h-17 z M426,436 h21 v1 h-21 z M500,436 h18 v1 h-18 z M427,437 h23 v1 h-23 z M501,437 h17 v1 h-17 z M427,438 h26 v1 h-26 z M501,438 h18 v1 h-18 z M428,439 h27 v1 h-27 z M501,439 h18 v1 h-18 z M429,440 h28 v1 h-28 z M501,440 h19 v1 h-19 z M430,441 h10 v1 h-10 z M442,441 h17 v1 h-17 z M501,441 h19 v1 h-19 z M431,442 h11 v1 h-11 z M445,442 h16 v1 h-16 z M502,442 h11 v1 h-11 z M514,442 h6 v1 h-6 z M432,443 h12 v1 h-12 z M447,443 h16 v1 h-16 z M502,443 h19 v1 h-19 z M434,444 h12 v1 h-12 z M450,444 h16 v1 h-16 z M502,444 h7 v1 h-7 z M510,444 h4 v1 h-4 z M515,444 h6 v1 h-6 z M435,445 h13 v1 h-13 z M453,445 h15 v1 h-15 z M500,445 h14 v1 h-14 z M515,445 h7 v1 h-7 z M436,446 h14 v1 h-14 z M455,446 h15 v1 h-15 z M500,446 h10 v1 h-10 z M511,446 h4 v1 h-4 z M516,446 h6 v1 h-6 z M438,447 h14 v1 h-14 z M458,447 h13 v1 h-13 z M500,447 h11 v1 h-11 z M512,447 h3 v1 h-3 z M516,447 h6 v1 h-6 z M433,448 h21 v1 h-21 z M460,448 h13 v1 h-13 z M500,448 h11 v1 h-11 z M512,448 h3 v1 h-3 z M517,448 h6 v1 h-6 z M433,449 h23 v1 h-23 z M462,449 h13 v1 h-13 z M500,449 h11 v1 h-11 z M513,449 h3 v1 h-3 z M517,449 h6 v1 h-6 z M433,450 h25 v1 h-25 z M464,450 h13 v1 h-13 z M500,450 h11 v1 h-11 z M513,450 h3 v1 h-3 z M518,450 h5 v1 h-5 z M434,451 h26 v1 h-26 z M466,451 h12 v1 h-12 z M500,451 h12 v1 h-12 z M514,451 h2 v1 h-2 z M518,451 h6 v1 h-6 z M434,452 h28 v1 h-28 z M468,452 h12 v1 h-12 z M501,452 h11 v1 h-11 z M514,452 h3 v1 h-3 z M518,452 h6 v1 h-6 z M435,453 h29 v1 h-29 z M471,453 h11 v1 h-11 z M501,453 h12 v1 h-12 z M515,453 h2 v1 h-2 z M519,453 h5 v1 h-5 z M436,454 h30 v1 h-30 z M473,454 h10 v1 h-10 z M501,454 h7 v1 h-7 z M509,454 h4 v1 h-4 z M519,454 h6 v1 h-6 z M437,455 h12 v1 h-12 z M450,455 h18 v1 h-18 z M470,455 h1 v1 h-1 z M474,455 h11 v1 h-11 z M501,455 h7 v1 h-7 z M509,455 h4 v1 h-4 z M519,455 h6 v1 h-6 z M438,456 h13 v1 h-13 z M454,456 h15 v1 h-15 z M476,456 h10 v1 h-10 z M502,456 h7 v1 h-7 z M510,456 h4 v1 h-4 z M520,456 h5 v1 h-5 z M439,457 h14 v1 h-14 z M458,457 h13 v1 h-13 z M474,457 h1 v1 h-1 z M478,457 h10 v1 h-10 z M502,457 h7 v1 h-7 z M511,457 h3 v1 h-3 z M520,457 h6 v1 h-6 z M440,458 h15 v1 h-15 z M461,458 h12 v1 h-12 z M479,458 h10 v1 h-10 z M501,458 h1 v1 h-1 z M503,458 h7 v1 h-7 z M511,458 h3 v1 h-3 z M520,458 h6 v1 h-6 z M442,459 h15 v1 h-15 z M459,459 h2 v1 h-2 z M465,459 h9 v1 h-9 z M478,459 h1 v1 h-1 z M481,459 h9 v1 h-9 z M501,459 h9 v1 h-9 z M512,459 h3 v1 h-3 z M520,459 h6 v1 h-6 z M443,460 h16 v1 h-16 z M468,460 h8 v1 h-8 z M483,460 h8 v1 h-8 z M500,460 h10 v1 h-10 z M512,460 h3 v1 h-3 z M521,460 h5 v1 h-5 z M444,461 h17 v1 h-17 z M465,461 h2 v1 h-2 z M472,461 h6 v1 h-6 z M484,461 h9 v1 h-9 z M501,461 h10 v1 h-10 z M513,461 h3 v1 h-3 z M521,461 h5 v1 h-5 z M446,462 h18 v1 h-18 z M475,462 h4 v1 h-4 z M486,462 h8 v1 h-8 z M501,462 h10 v1 h-10 z M514,462 h2 v1 h-2 z M521,462 h5 v1 h-5 z M444,463 h1 v1 h-1 z M447,463 h19 v1 h-19 z M477,463 h2 v1 h-2 z M487,463 h8 v1 h-8 z M501,463 h11 v1 h-11 z M521,463 h6 v1 h-6 z M449,464 h19 v1 h-19 z M488,464 h8 v1 h-8 z M501,464 h11 v1 h-11 z M521,464 h6 v1 h-6 z M444,465 h27 v1 h-27 z M490,465 h7 v1 h-7 z M501,465 h12 v1 h-12 z M522,465 h5 v1 h-5 z M443,466 h30 v1 h-30 z M491,466 h7 v1 h-7 z M502,466 h6 v1 h-6 z M509,466 h4 v1 h-4 z M522,466 h5 v1 h-5 z M444,467 h32 v1 h-32 z M492,467 h7 v1 h-7 z M502,467 h7 v1 h-7 z M510,467 h4 v1 h-4 z M522,467 h5 v1 h-5 z M444,468 h34 v1 h-34 z M493,468 h8 v1 h-8 z M503,468 h6 v1 h-6 z M511,468 h3 v1 h-3 z M522,468 h6 v1 h-6 z M445,469 h14 v1 h-14 z M463,469 h17 v1 h-17 z M494,469 h8 v1 h-8 z M503,469 h7 v1 h-7 z M512,469 h2 v1 h-2 z M522,469 h6 v1 h-6 z M446,470 h15 v1 h-15 z M470,470 h12 v1 h-12 z M495,470 h7 v1 h-7 z M503,470 h7 v1 h-7 z M513,470 h2 v1 h-2 z M523,470 h5 v1 h-5 z M447,471 h17 v1 h-17 z M467,471 h2 v1 h-2 z M477,471 h5 v1 h-5 z M496,471 h7 v1 h-7 z M504,471 h7 v1 h-7 z M523,471 h5 v1 h-5 z M449,472 h18 v1 h-18 z M496,472 h15 v1 h-15 z M523,472 h5 v1 h-5 z M450,473 h20 v1 h-20 z M496,473 h16 v1 h-16 z M523,473 h5 v1 h-5 z M451,474 h22 v1 h-22 z M497,474 h15 v1 h-15 z M523,474 h5 v1 h-5 z M453,475 h23 v1 h-23 z M497,475 h11 v1 h-11 z M509,475 h4 v1 h-4 z M523,475 h5 v1 h-5 z M454,476 h26 v1 h-26 z M497,476 h12 v1 h-12 z M510,476 h3 v1 h-3 z M523,476 h5 v1 h-5 z M541,476 h7 v1 h-7 z M456,477 h27 v1 h-27 z M498,477 h12 v1 h-12 z M511,477 h3 v1 h-3 z M523,477 h5 v1 h-5 z M537,477 h15 v1 h-15 z M458,478 h28 v1 h-28 z M498,478 h12 v1 h-12 z M512,478 h1 v1 h-1 z M523,478 h6 v1 h-6 z M535,478 h19 v1 h-19 z M456,479 h30 v1 h-30 z M498,479 h13 v1 h-13 z M523,479 h6 v1 h-6 z M533,479 h23 v1 h-23 z M454,480 h13 v1 h-13 z M499,480 h13 v1 h-13 z M523,480 h6 v1 h-6 z M532,480 h25 v1 h-25 z M454,481 h16 v1 h-16 z M474,481 h5 v1 h-5 z M499,481 h13 v1 h-13 z M523,481 h6 v1 h-6 z M531,481 h10 v1 h-10 z M549,481 h10 v1 h-10 z M454,482 h20 v1 h-20 z M499,482 h14 v1 h-14 z M523,482 h6 v1 h-6 z M530,482 h9 v1 h-9 z M552,482 h9 v1 h-9 z M576,482 h22 v1 h-22 z M455,483 h23 v1 h-23 z M500,483 h6 v1 h-6 z M507,483 h6 v1 h-6 z M523,483 h14 v1 h-14 z M548,483 h1 v1 h-1 z M553,483 h48 v1 h-48 z M457,484 h26 v1 h-26 z M500,484 h7 v1 h-7 z M508,484 h6 v1 h-6 z M523,484 h12 v1 h-12 z M544,484 h9 v1 h-9 z M555,484 h46 v1 h-46 z M458,485 h32 v1 h-32 z M500,485 h14 v1 h-14 z M523,485 h11 v1 h-11 z M543,485 h11 v1 h-11 z M556,485 h42 v1 h-42 z M459,486 h31 v1 h-31 z M501,486 h7 v1 h-7 z M509,486 h6 v1 h-6 z M523,486 h10 v1 h-10 z M542,486 h13 v1 h-13 z M558,486 h30 v1 h-30 z M461,487 h29 v1 h-29 z M501,487 h8 v1 h-8 z M510,487 h5 v1 h-5 z M523,487 h9 v1 h-9 z M541,487 h16 v1 h-16 z M564,487 h17 v1 h-17 z M463,488 h20 v1 h-20 z M501,488 h15 v1 h-15 z M523,488 h9 v1 h-9 z M540,488 h37 v1 h-37 z M465,489 h10 v1 h-10 z M484,489 h2 v1 h-2 z M502,489 h8 v1 h-8 z M511,489 h6 v1 h-6 z M524,489 h7 v1 h-7 z M539,489 h34 v1 h-34 z M467,490 h10 v1 h-10 z M502,490 h9 v1 h-9 z M512,490 h5 v1 h-5 z M524,490 h6 v1 h-6 z M539,490 h31 v1 h-31 z M467,491 h15 v1 h-15 z M503,491 h15 v1 h-15 z M523,491 h7 v1 h-7 z M541,491 h26 v1 h-26 z M465,492 h28 v1 h-28 z M503,492 h9 v1 h-9 z M513,492 h7 v1 h-7 z M522,492 h7 v1 h-7 z M541,492 h24 v1 h-24 z M464,493 h30 v1 h-30 z M503,493 h10 v1 h-10 z M514,493 h14 v1 h-14 z M540,493 h23 v1 h-23 z M464,494 h28 v1 h-28 z M504,494 h10 v1 h-10 z M515,494 h13 v1 h-13 z M538,494 h24 v1 h-24 z M465,495 h24 v1 h-24 z M504,495 h11 v1 h-11 z M516,495 h11 v1 h-11 z M535,495 h26 v1 h-26 z M466,496 h20 v1 h-20 z M505,496 h10 v1 h-10 z M517,496 h8 v1 h-8 z M535,496 h25 v1 h-25 z M468,497 h14 v1 h-14 z M486,497 h4 v1 h-4 z M505,497 h11 v1 h-11 z M518,497 h6 v1 h-6 z M535,497 h25 v1 h-25 z M469,498 h14 v1 h-14 z M506,498 h11 v1 h-11 z M536,498 h23 v1 h-23 z M471,499 h26 v1 h-26 z M507,499 h11 v1 h-11 z M519,499 h2 v1 h-2 z M532,499 h26 v1 h-26 z M473,500 h24 v1 h-24 z M507,500 h12 v1 h-12 z M532,500 h26 v1 h-26 z M477,501 h18 v1 h-18 z M508,501 h12 v1 h-12 z M532,501 h25 v1 h-25 z M475,502 h19 v1 h-19 z M509,502 h12 v1 h-12 z M534,502 h22 v1 h-22 z M474,503 h18 v1 h-18 z M509,503 h12 v1 h-12 z M536,503 h19 v1 h-19 z M473,504 h17 v1 h-17 z M511,504 h11 v1 h-11 z M537,504 h18 v1 h-18 z M473,505 h14 v1 h-14 z M496,505 h4 v1 h-4 z M512,505 h11 v1 h-11 z M536,505 h1 v1 h-1 z M538,505 h16 v1 h-16 z M475,506 h25 v1 h-25 z M513,506 h9 v1 h-9 z M539,506 h14 v1 h-14 z M476,507 h23 v1 h-23 z M516,507 h4 v1 h-4 z M539,507 h14 v1 h-14 z M478,508 h20 v1 h-20 z M539,508 h13 v1 h-13 z M481,509 h15 v1 h-15 z M498,509 h1 v1 h-1 z M503,509 h1 v1 h-1 z M540,509 h11 v1 h-11 z M484,510 h11 v1 h-11 z M501,510 h3 v1 h-3 z M540,510 h10 v1 h-10 z M482,511 h12 v1 h-12 z M498,511 h6 v1 h-6 z M540,511 h10 v1 h-10 z M481,512 h22 v1 h-22 z M540,512 h9 v1 h-9 z M481,513 h21 v1 h-21 z M506,513 h2 v1 h-2 z M540,513 h9 v1 h-9 z M482,514 h19 v1 h-19 z M504,514 h4 v1 h-4 z M540,514 h8 v1 h-8 z M483,515 h17 v1 h-17 z M501,515 h6 v1 h-6 z M540,515 h8 v1 h-8 z M487,516 h19 v1 h-19 z M539,516 h8 v1 h-8 z M488,517 h18 v1 h-18 z M539,517 h8 v1 h-8 z M488,518 h17 v1 h-17 z M539,518 h7 v1 h-7 z M488,519 h16 v1 h-16 z M538,519 h8 v1 h-8 z M488,520 h15 v1 h-15 z M538,520 h7 v1 h-7 z M493,521 h9 v1 h-9 z M538,521 h7 v1 h-7 z M493,522 h8 v1 h-8 z M537,522 h7 v1 h-7 z M492,523 h9 v1 h-9 z M537,523 h6 v1 h-6 z M492,524 h8 v1 h-8 z M536,524 h7 v1 h-7 z M491,525 h8 v1 h-8 z M536,525 h6 v1 h-6 z M491,526 h8 v1 h-8 z M535,526 h7 v1 h-7 z M491,527 h7 v1 h-7 z M534,527 h7 v1 h-7 z M490,528 h7 v1 h-7 z M534,528 h6 v1 h-6 z M490,529 h7 v1 h-7 z M533,529 h6 v1 h-6 z M490,530 h7 v1 h-7 z M532,530 h6 v1 h-6 z M489,531 h7 v1 h-7 z M531,531 h7 v1 h-7 z M489,532 h7 v1 h-7 z M530,532 h7 v1 h-7 z M489,533 h6 v1 h-6 z M528,533 h8 v1 h-8 z M488,534 h7 v1 h-7 z M527,534 h8 v1 h-8 z M488,535 h7 v1 h-7 z M526,535 h8 v1 h-8 z M488,536 h6 v1 h-6 z M524,536 h9 v1 h-9 z M487,537 h7 v1 h-7 z M522,537 h9 v1 h-9 z M487,538 h7 v1 h-7 z M521,538 h9 v1 h-9 z M487,539 h6 v1 h-6 z M519,539 h10 v1 h-10 z M487,540 h6 v1 h-6 z M517,540 h10 v1 h-10 z M486,541 h7 v1 h-7 z M514,541 h12 v1 h-12 z M486,542 h6 v1 h-6 z M513,542 h11 v1 h-11 z M485,543 h7 v1 h-7 z M511,543 h11 v1 h-11 z M485,544 h7 v1 h-7 z M500,544 h2 v1 h-2 z M510,544 h10 v1 h-10 z M484,545 h7 v1 h-7 z M499,545 h3 v1 h-3 z M509,545 h9 v1 h-9 z M484,546 h7 v1 h-7 z M499,546 h3 v1 h-3 z M508,546 h9 v1 h-9 z M483,547 h7 v1 h-7 z M498,547 h4 v1 h-4 z M507,547 h8 v1 h-8 z M483,548 h7 v1 h-7 z M498,548 h4 v1 h-4 z M506,548 h8 v1 h-8 z M482,549 h7 v1 h-7 z M497,549 h5 v1 h-5 z M504,549 h1 v1 h-1 z M506,549 h8 v1 h-8 z M481,550 h8 v1 h-8 z M497,550 h5 v1 h-5 z M503,550 h12 v1 h-12 z M481,551 h7 v1 h-7 z M496,551 h6 v1 h-6 z M503,551 h12 v1 h-12 z M480,552 h7 v1 h-7 z M496,552 h19 v1 h-19 z M479,553 h7 v1 h-7 z M496,553 h19 v1 h-19 z M478,554 h7 v1 h-7 z M495,554 h20 v1 h-20 z M477,555 h8 v1 h-8 z M495,555 h20 v1 h-20 z M476,556 h7 v1 h-7 z M486,556 h2 v1 h-2 z M494,556 h16 v1 h-16 z M511,556 h4 v1 h-4 z M474,557 h8 v1 h-8 z M485,557 h2 v1 h-2 z M494,557 h16 v1 h-16 z M512,557 h3 v1 h-3 z M473,558 h8 v1 h-8 z M483,558 h4 v1 h-4 z M494,558 h4 v1 h-4 z M499,558 h5 v1 h-5 z M505,558 h6 v1 h-6 z M513,558 h1 v1 h-1 z M472,559 h8 v1 h-8 z M482,559 h4 v1 h-4 z M493,559 h5 v1 h-5 z M499,559 h5 v1 h-5 z M505,559 h6 v1 h-6 z M470,560 h9 v1 h-9 z M481,560 h4 v1 h-4 z M493,560 h4 v1 h-4 z M499,560 h5 v1 h-5 z M506,560 h5 v1 h-5 z M469,561 h9 v1 h-9 z M480,561 h5 v1 h-5 z M488,561 h1 v1 h-1 z M492,561 h4 v1 h-4 z M499,561 h5 v1 h-5 z M506,561 h5 v1 h-5 z M468,562 h8 v1 h-8 z M478,562 h6 v1 h-6 z M487,562 h2 v1 h-2 z M492,562 h3 v1 h-3 z M500,562 h2 v1 h-2 z M503,562 h2 v1 h-2 z M506,562 h6 v1 h-6 z M466,563 h9 v1 h-9 z M477,563 h6 v1 h-6 z M486,563 h2 v1 h-2 z M492,563 h2 v1 h-2 z M502,563 h3 v1 h-3 z M507,563 h5 v1 h-5 z M465,564 h8 v1 h-8 z M475,564 h7 v1 h-7 z M484,564 h4 v1 h-4 z M502,564 h4 v1 h-4 z M507,564 h5 v1 h-5 z M464,565 h17 v1 h-17 z M484,565 h3 v1 h-3 z M496,565 h2 v1 h-2 z M502,565 h10 v1 h-10 z M462,566 h18 v1 h-18 z M483,566 h4 v1 h-4 z M490,566 h2 v1 h-2 z M496,566 h2 v1 h-2 z M502,566 h11 v1 h-11 z M461,567 h18 v1 h-18 z M480,567 h1 v1 h-1 z M482,567 h4 v1 h-4 z M489,567 h3 v1 h-3 z M495,567 h3 v1 h-3 z M500,567 h1 v1 h-1 z M502,567 h11 v1 h-11 z M460,568 h18 v1 h-18 z M481,568 h4 v1 h-4 z M489,568 h3 v1 h-3 z M495,568 h3 v1 h-3 z M503,568 h10 v1 h-10 z M459,569 h18 v1 h-18 z M478,569 h1 v1 h-1 z M480,569 h5 v1 h-5 z M486,569 h1 v1 h-1 z M488,569 h3 v1 h-3 z M495,569 h3 v1 h-3 z M499,569 h2 v1 h-2 z M503,569 h10 v1 h-10 z M458,570 h18 v1 h-18 z M479,570 h5 v1 h-5 z M488,570 h3 v1 h-3 z M494,570 h4 v1 h-4 z M499,570 h2 v1 h-2 z M503,570 h10 v1 h-10 z M457,571 h18 v1 h-18 z M478,571 h5 v1 h-5 z M487,571 h4 v1 h-4 z M492,571 h1 v1 h-1 z M494,571 h19 v1 h-19 z M456,572 h18 v1 h-18 z M477,572 h6 v1 h-6 z M487,572 h3 v1 h-3 z M494,572 h19 v1 h-19 z M457,573 h3 v1 h-3 z M467,573 h6 v1 h-6 z M476,573 h6 v1 h-6 z M484,573 h1 v1 h-1 z M486,573 h4 v1 h-4 z M493,573 h14 v1 h-14 z M508,573 h5 v1 h-5 z M466,574 h7 v1 h-7 z M474,574 h8 v1 h-8 z M485,574 h4 v1 h-4 z M493,574 h14 v1 h-14 z M509,574 h3 v1 h-3 z M465,575 h7 v1 h-7 z M473,575 h8 v1 h-8 z M485,575 h4 v1 h-4 z M493,575 h14 v1 h-14 z M509,575 h3 v1 h-3 z M464,576 h7 v1 h-7 z M472,576 h8 v1 h-8 z M484,576 h5 v1 h-5 z M492,576 h15 v1 h-15 z M463,577 h17 v1 h-17 z M483,577 h5 v1 h-5 z M490,577 h1 v1 h-1 z M492,577 h15 v1 h-15 z M462,578 h17 v1 h-17 z M483,578 h5 v1 h-5 z M492,578 h15 v1 h-15 z M461,579 h18 v1 h-18 z M480,579 h1 v1 h-1 z M482,579 h6 v1 h-6 z M491,579 h15 v1 h-15 z M461,580 h17 v1 h-17 z M481,580 h6 v1 h-6 z M491,580 h15 v1 h-15 z M460,581 h18 v1 h-18 z M480,581 h7 v1 h-7 z M491,581 h15 v1 h-15 z M459,582 h18 v1 h-18 z M479,582 h8 v1 h-8 z M488,582 h1 v1 h-1 z M490,582 h15 v1 h-15 z M458,583 h12 v1 h-12 z M471,583 h6 v1 h-6 z M478,583 h8 v1 h-8 z M487,583 h2 v1 h-2 z M490,583 h15 v1 h-15 z M458,584 h10 v1 h-10 z M470,584 h6 v1 h-6 z M477,584 h9 v1 h-9 z M489,584 h16 v1 h-16 z M457,585 h10 v1 h-10 z M469,585 h6 v1 h-6 z M477,585 h9 v1 h-9 z M489,585 h8 v1 h-8 z M498,585 h6 v1 h-6 z M456,586 h9 v1 h-9 z M469,586 h6 v1 h-6 z M476,586 h9 v1 h-9 z M488,586 h9 v1 h-9 z M498,586 h6 v1 h-6 z M456,587 h7 v1 h-7 z M466,587 h1 v1 h-1 z M468,587 h17 v1 h-17 z M486,587 h11 v1 h-11 z M498,587 h5 v1 h-5 z M455,588 h6 v1 h-6 z M468,588 h17 v1 h-17 z M487,588 h9 v1 h-9 z M499,588 h3 v1 h-3 z M455,589 h3 v1 h-3 z M467,589 h17 v1 h-17 z M486,589 h10 v1 h-10 z M499,589 h2 v1 h-2 z M466,590 h18 v1 h-18 z M485,590 h10 v1 h-10 z M466,591 h11 v1 h-11 z M478,591 h6 v1 h-6 z M485,591 h10 v1 h-10 z M465,592 h12 v1 h-12 z M478,592 h5 v1 h-5 z M484,592 h10 v1 h-10 z M465,593 h11 v1 h-11 z M478,593 h11 v1 h-11 z M490,593 h3 v1 h-3 z M464,594 h11 v1 h-11 z M477,594 h11 v1 h-11 z M490,594 h3 v1 h-3 z M464,595 h9 v1 h-9 z M477,595 h11 v1 h-11 z M463,596 h9 v1 h-9 z M477,596 h10 v1 h-10 z M463,597 h8 v1 h-8 z M477,597 h9 v1 h-9 z M462,598 h8 v1 h-8 z M477,598 h8 v1 h-8 z M462,599 h6 v1 h-6 z M476,599 h8 v1 h-8 z M462,600 h5 v1 h-5 z M476,600 h7 v1 h-7 z M461,601 h4 v1 h-4 z M476,601 h6 v1 h-6 z M461,602 h2 v1 h-2 z M476,602 h5 v1 h-5 z M476,603 h4 v1 h-4 z M476,604 h2 v1 h-2 z" fill="#000000" fill-rule="evenodd" />
</svg>