  0
SECTION
  2
HEADER
  9
$ACADVER
  1
AC1009
  0
ENDSEC
  0
SECTION
  2
ENTITIES
  0
LINE
  8
0
 10
541.0
 20
596.0
 30
0.0
 11
544.0
 21
596.0
 31
0.0
  0
LINE
  8
0
 10
544.0
 20
596.0
 30
0.0
 11
544.0
 21
595.0
 31
0.0
  0
LINE
  8
0
 10
544.0
 20
595.0
 30
0.0
 11
541.0
 21
595.0
 31
0.0
  0
LINE
  8
0
 10
541.0
 20
595.0
 30
0.0
 11
541.0
 21
596.0
 31
0.0
  0
LINE
  8
0
 10
539.0
 20
595.0
 30
0.0
 11
544.0
 21
595.0
 31
0.0
  0
LINE
  8
0
 10
544.0
 20
595.0
 30
0.0
 11
544.0
 21
594.0
 31
0.0
  0
LINE
  8
0
 10
544.0
 20
594.0
 30
0.0
 11
539.0
 21
594.0
 31
0.0
  0
LINE
  8
0
 10
539.0
 20
594.0
 30
0.0
 11
539.0
 21
595.0
 31
0.0
  0
LINE
  8
0
 10
537.0
 20
594.0
 30
0.0
 11
544.0
 21
594.0
 31
0.0
  0
LINE
  8
0
 10
544.0
 20
594.0
 30
0.0
 11
544.0
 21
593.0
 31
0.0
  0
LINE
  8
0
 10
544.0
 20
593.0
 30
0.0
 11
537.0
 21
593.0
 31
0.0
  0
LINE
  8
0
 10
537.0
 20
593.0
 30
0.0
 11
537.0
 21
594.0
 31
0.0
  0
LINE
  8
0
 10
535.0
 20
593.0
 30
0.0
 11
543.0
 21
593.0
 31
0.0
  0
LINE
  8
0
 10
543.0
 20
593.0
 30
0.0
 11
543.0
 21
592.0
 31
0.0
  0
LINE
  8
0
 10
543.0
 20
592.0
 30
0.0
 11
535.0
 21
592.0
 31
0.0
  0
LINE
  8
0
 10
535.0
 20
592.0
 30
0.0
 11
535.0
 21
593.0
 31
0.0
  0
LINE
  8
0
 10
533.0
 20
592.0
 30
0.0
 11
543.0
 21
592.0
 31
0.0
  0
LINE
  8
0
 10
543.0
 20
592.0
 30
0.0
 11
543.0
 21
591.0
 31
0.0
  0
LINE
  8
0
 10
543.0
 20
591.0
 30
0.0
 11
533.0
 21
591.0
 31
0.0
  0
LINE
  8
0
 10
533.0
 20
591.0
 30
0.0
 11
533.0
 21
592.0
 31
0.0
  0
LINE
  8
0
 10
531.0
 20
591.0
 30
0.0
 11
542.0
 21
591.0
 31
0.0
  0
LINE
  8
0
 10
542.0
 20
591.0
 30
0.0
 11
542.0
 21
590.0
 31
0.0
  0
LINE
  8
0
 10
542.0
 20
590.0
 30
0.0
 11
531.0
 21
590.0
 31
0.0
  0
LINE
  8
0
 10
531.0
 20
590.0
 30
0.0
 11
531.0
 21
591.0
 31
0.0
  0
LINE
  8
0
 10
529.0
 20
590.0
 30
0.0
 11
542.0
 21
590.0
 31
0.0
  0
LINE
  8
0
 10
542.0
 20
590.0
 30
0.0
 11
542.0
 21
589.0
 31
0.0
  0
LINE
  8
0
 10
542.0
 20
589.0
 30
0.0
 11
529.0
 21
589.0
 31
0.0
  0
LINE
  8
0
 10
529.0
 20
589.0
 30
0.0
 11
529.0
 21
590.0
 31
0.0
  0
LINE
  8
0
 10
528.0
 20
589.0
 30
0.0
 11
541.0
 21
589.0
 31
0.0
  0
LINE
  8
0
 10
541.0
 20
589.0
 30
0.0
 11
541.0
 21
588.0
 31
0.0
  0
LINE
  8
0
 10
541.0
 20
588.0
 30
0.0
 11
528.0
 21
588.0
 31
0.0
  0
LINE
  8
0
 10
528.0
 20
588.0
 30
0.0
 11
528.0
 21
589.0
 31
0.0
  0
LINE
  8
0
 10
526.0
 20
588.0
 30
0.0
 11
540.0
 21
588.0
 31
0.0
  0
LINE
  8
0
 10
540.0
 20
588.0
 30
0.0
 11
540.0
 21
587.0
 31
0.0
  0
LINE
  8
0
 10
540.0
 20
587.0
 30
0.0
 11
526.0
 21
587.0
 31
0.0
  0
LINE
  8
0
 10
526.0
 20
587.0
 30
0.0
 11
526.0
 21
588.0
 31
0.0
  0
LINE
  8
0
 10
525.0
 20
587.0
 30
0.0
 11
540.0
 21
587.0
 31
0.0
  0
LINE
  8
0
 10
540.0
 20
587.0
 30
0.0
 11
540.0
 21
586.0
 31
0.0
  0
LINE
  8
0
 10
540.0
 20
586.0
 30
0.0
 11
525.0
 21
586.0
 31
0.0
  0
LINE
  8
0
 10
525.0
 20
586.0
 30
0.0
 11
525.0
 21
587.0
 31
0.0
  0
LINE
  8
0
 10
524.0
 20
586.0
 30
0.0
 11
539.0
 21
586.0
 31
0.0
  0
LINE
  8
0
 10
539.0
 20
586.0
 30
0.0
 11
539.0
 21
585.0
 31
0.0
  0
LINE
  8
0
 10
539.0
 20
585.0
 30
0.0
 11
524.0
 21
585.0
 31
0.0
  0
LINE
  8
0
 10
524.0
 20
585.0
 30
0.0
 11
524.0
 21
586.0
 31
0.0
  0
LINE
  8
0
 10
522.0
 20
585.0
 30
0.0
 11
538.0
 21
585.0
 31
0.0
  0
LINE
  8
0
 10
538.0
 20
585.0
 30
0.0
 11
538.0
 21
584.0
 31
0.0
  0
LINE
  8
0
 10
538.0
 20
584.0
 30
0.0
 11
522.0
 21
584.0
 31
0.0
  0
LINE
  8
0
 10
522.0
 20
584.0
 30
0.0
 11
522.0
 21
585.0
 31
0.0
  0
LINE
  8
0
 10
521.0
 20
584.0
 30
0.0
 11
537.0
 21
584.0
 31
0.0
  0
LINE
  8
0
 10
537.0
 20
584.0
 30
0.0
 11
537.0
 21
583.0
 31
0.0
  0
LINE
  8
0
 10
537.0
 20
583.0
 30
0.0
 11
521.0
 21
583.0
 31
0.0
  0
LINE
  8
0
 10
521.0
 20
583.0
 30
0.0
 11
521.0
 21
584.0
 31
0.0
  0
LINE
  8
0
 10
540.0
 20
584.0
 30
0.0
 11
541.0
 21
584.0
 31
0.0
  0
LINE
  8
0
 10
541.0
 20
584.0
 30
0.0
 11
541.0
 21
583.0
 31
0.0
  0
LINE
  8
0
 10
541.0
 20
583.0
 30
0.0
 11
540.0
 21
583.0
 31
0.0
  0
LINE
  8
0
 10
540.0
 20
583.0
 30
0.0
 11
540.0
 21
584.0
 31
0.0
  0
LINE
  8
0
 10
520.0
 20
583.0
 30
0.0
 11
541.0
 21
583.0
 31
0.0
  0
LINE
  8
0
 10
541.0
 20
583.0
 30
0.0
 11
541.0
 21
582.0
 31
0.0
  0
LINE
  8
0
 10
541.0
 20
582.0
 30
0.0
 11
520.0
 21
582.0
 31
0.0
  0
LINE
  8
0
 10
520.0
 20
582.0
 30
0.0
 11
520.0
 21
583.0
 31
0.0
  0
LINE
  8
0
 10
519.0
 20
582.0
 30
0.0
 11
541.0
 21
582.0
 31
0.0
  0
LINE
  8
0
 10
541.0
 20
582.0
 30
0.0
 11
541.0
 21
581.0
 31
0.0
  0
LINE
  8
0
 10
541.0
 20
581.0
 30
0.0
 11
519.0
 21
581.0
 31
0.0
  0
LINE
  8
0
 10
519.0
 20
581.0
 30
0.0
 11
519.0
 21
582.0
 31
0.0
  0
LINE
  8
0
 10
518.0
 20
581.0
 30
0.0
 11
540.0
 21
581.0
 31
0.0
  0
LINE
  8
0
 10
540.0
 20
581.0
 30
0.0
 11
540.0
 21
580.0
 31
0.0
  0
LINE
  8
0
 10
540.0
 20
580.0
 30
0.0
 11
518.0
 21
580.0
 31
0.0
  0
LINE
  8
0
 10
518.0
 20
580.0
 30
0.0
 11
518.0
 21
581.0
 31
0.0
  0
LINE
  8
0
 10
517.0
 20
580.0
 30
0.0
 11
540.0
 21
580.0
 31
0.0
  0
LINE
  8
0
 10
540.0
 20
580.0
 30
0.0
 11
540.0
 21
579.0
 31
0.0
  0
LINE
  8
0
 10
540.0
 20
579.0
 30
0.0
 11
517.0
 21
579.0
 31
0.0
  0
LINE
  8
0
 10
517.0
 20
579.0
 30
0.0
 11
517.0
 21
580.0
 31
0.0
  0
LINE
  8
0
 10
516.0
 20
579.0
 30
0.0
 11
525.0
 21
579.0
 31
0.0
  0
LINE
  8
0
 10
525.0
 20
579.0
 30
0.0
 11
525.0
 21
578.0
 31
0.0
  0
LINE
  8
0
 10
525.0
 20
578.0
 30
0.0
 11
516.0
 21
578.0
 31
0.0
  0
LINE
  8
0
 10
516.0
 20
578.0
 30
0.0
 11
516.0
 21
579.0
 31
0.0
  0
LINE
  8
0
 10
526.0
 20
579.0
 30
0.0
 11
539.0
 21
579.0
 31
0.0
  0
LINE
  8
0
 10
539.0
 20
579.0
 30
0.0
 11
539.0
 21
578.0
 31
0.0
  0
LINE
  8
0
 10
539.0
 20
578.0
 30
0.0
 11
526.0
 21
578.0
 31
0.0
  0
LINE
  8
0
 10
526.0
 20
578.0
 30
0.0
 11
526.0
 21
579.0
 31
0.0
  0
LINE
  8
0
 10
515.0
 20
578.0
 30
0.0
 11
524.0
 21
578.0
 31
0.0
  0
LINE
  8
0
 10
524.0
 20
578.0
 30
0.0
 11
524.0
 21
577.0
 31
0.0
  0
LINE
  8
0
 10
524.0
 20
577.0
 30
0.0
 11
515.0
 21
577.0
 31
0.0
  0
LINE
  8
0
 10
515.0
 20
577.0
 30
0.0
 11
515.0
 21
578.0
 31
0.0
  0
LINE
  8
0
 10
525.0
 20
578.0
 30
0.0
 11
539.0
 21
578.0
 31
0.0
  0
LINE
  8
0
 10
539.0
 20
578.0
 30
0.0
 11
539.0
 21
577.0
 31
0.0
  0
LINE
  8
0
 10
539.0
 20
577.0
 30
0.0
 11
525.0
 21
577.0
 31
0.0
  0
LINE
  8
0
 10
525.0
 20
577.0
 30
0.0
 11
525.0
 21
578.0
 31
0.0
  0
LINE
  8
0
 10
514.0
 20
577.0
 30
0.0
 11
522.0
 21
577.0
 31
0.0
  0
LINE
  8
0
 10
522.0
 20
577.0
 30
0.0
 11
522.0
 21
576.0
 31
0.0
  0
LINE
  8
0
 10
522.0
 20
576.0
 30
0.0
 11
514.0
 21
576.0
 31
0.0
  0
LINE
  8
0
 10
514.0
 20
576.0
 30
0.0
 11
514.0
 21
577.0
 31
0.0
  0
LINE
  8
0
 10
523.0
 20
577.0
 30
0.0
 11
538.0
 21
577.0
 31
0.0
  0
LINE
  8
0
 10
538.0
 20
577.0
 30
0.0
 11
538.0
 21
576.0
 31
0.0
  0
LINE
  8
0
 10
538.0
 20
576.0
 30
0.0
 11
523.0
 21
576.0
 31
0.0
  0
LINE
  8
0
 10
523.0
 20
576.0
 30
0.0
 11
523.0
 21
577.0
 31
0.0
  0
LINE
  8
0
 10
513.0
 20
576.0
 30
0.0
 11
521.0
 21
576.0
 31
0.0
  0
LINE
  8
0
 10
521.0
 20
576.0
 30
0.0
 11
521.0
 21
575.0
 31
0.0
  0
LINE
  8
0
 10
521.0
 20
575.0
 30
0.0
 11
513.0
 21
575.0
 31
0.0
  0
LINE
  8
0
 10
513.0
 20
575.0
 30
0.0
 11
513.0
 21
576.0
 31
0.0
  0
LINE
  8
0
 10
522.0
 20
576.0
 30
0.0
 11
538.0
 21
576.0
 31
0.0
  0
LINE
  8
0
 10
538.0
 20
576.0
 30
0.0
 11
538.0
 21
575.0
 31
0.0
  0
LINE
  8
0
 10
538.0
 20
575.0
 30
0.0
 11
522.0
 21
575.0
 31
0.0
  0
LINE
  8
0
 10
522.0
 20
575.0
 30
0.0
 11
522.0
 21
576.0
 31
0.0
  0
LINE
  8
0
 10
512.0
 20
575.0
 30
0.0
 11
520.0
 21
575.0
 31
0.0
  0
LINE
  8
0
 10
520.0
 20
575.0
 30
0.0
 11
520.0
 21
574.0
 31
0.0
  0
LINE
  8
0
 10
520.0
 20
574.0
 30
0.0
 11
512.0
 21
574.0
 31
0.0
  0
LINE
  8
0
 10
512.0
 20
574.0
 30
0.0
 11
512.0
 21
575.0
 31
0.0
  0
LINE
  8
0
 10
521.0
 20
575.0
 30
0.0
 11
537.0
 21
575.0
 31
0.0
  0
LINE
  8
0
 10
537.0
 20
575.0
 30
0.0
 11
537.0
 21
574.0
 31
0.0
  0
LINE
  8
0
 10
537.0
 20
574.0
 30
0.0
 11
521.0
 21
574.0
 31
0.0
  0
LINE
  8
0
 10
521.0
 20
574.0
 30
0.0
 11
521.0
 21
575.0
 31
0.0
  0
LINE
  8
0
 10
511.0
 20
574.0
 30
0.0
 11
519.0
 21
574.0
 31
0.0
  0
LINE
  8
0
 10
519.0
 20
574.0
 30
0.0
 11
519.0
 21
573.0
 31
0.0
  0
LINE
  8
0
 10
519.0
 20
573.0
 30
0.0
 11
511.0
 21
573.0
 31
0.0
  0
LINE
  8
0
 10
511.0
 20
573.0
 30
0.0
 11
511.0
 21
574.0
 31
0.0
  0
LINE
  8
0
 10
520.0
 20
574.0
 30
0.0
 11
536.0
 21
574.0
 31
0.0
  0
LINE
  8
0
 10
536.0
 20
574.0
 30
0.0
 11
536.0
 21
573.0
 31
0.0
  0
LINE
  8
0
 10
536.0
 20
573.0
 30
0.0
 11
520.0
 21
573.0
 31
0.0
  0
LINE
  8
0
 10
520.0
 20
573.0
 30
0.0
 11
520.0
 21
574.0
 31
0.0
  0
LINE
  8
0
 10
510.0
 20
573.0
 30
0.0
 11
518.0
 21
573.0
 31
0.0
  0
LINE
  8
0
 10
518.0
 20
573.0
 30
0.0
 11
518.0
 21
572.0
 31
0.0
  0
LINE
  8
0
 10
518.0
 20
572.0
 30
0.0
 11
510.0
 21
572.0
 31
0.0
  0
LINE
  8
0
 10
510.0
 20
572.0
 30
0.0
 11
510.0
 21
573.0
 31
0.0
  0
LINE
  8
0
 10
519.0
 20
573.0
 30
0.0
 11
535.0
 21
573.0
 31
0.0
  0
LINE
  8
0
 10
535.0
 20
573.0
 30
0.0
 11
535.0
 21
572.0
 31
0.0
  0
LINE
  8
0
 10
535.0
 20
572.0
 30
0.0
 11
519.0
 21
572.0
 31
0.0
  0
LINE
  8
0
 10
519.0
 20
572.0
 30
0.0
 11
519.0
 21
573.0
 31
0.0
  0
LINE
  8
0
 10
509.0
 20
572.0
 30
0.0
 11
517.0
 21
572.0
 31
0.0
  0
LINE
  8
0
 10
517.0
 20
572.0
 30
0.0
 11
517.0
 21
571.0
 31
0.0
  0
LINE
  8
0
 10
517.0
 20
571.0
 30
0.0
 11
509.0
 21
571.0
 31
0.0
  0
LINE
  8
0
 10
509.0
 20
571.0
 30
0.0
 11
509.0
 21
572.0
 31
0.0
  0
LINE
  8
0
 10
519.0
 20
572.0
 30
0.0
 11
527.0
 21
572.0
 31
0.0
  0
LINE
  8
0
 10
527.0
 20
572.0
 30
0.0
 11
527.0
 21
571.0
 31
0.0
  0
LINE
  8
0
 10
527.0
 20
571.0
 30
0.0
 11
519.0
 21
571.0
 31
0.0
  0
LINE
  8
0
 10
519.0
 20
571.0
 30
0.0
 11
519.0
 21
572.0
 31
0.0
  0
LINE
  8
0
 10
528.0
 20
572.0
 30
0.0
 11
534.0
 21
572.0
 31
0.0
  0
LINE
  8
0
 10
534.0
 20
572.0
 30
0.0
 11
534.0
 21
571.0
 31
0.0
  0
LINE
  8
0
 10
534.0
 20
571.0
 30
0.0
 11
528.0
 21
571.0
 31
0.0
  0
LINE
  8
0
 10
528.0
 20
571.0
 30
0.0
 11
528.0
 21
572.0
 31
0.0
  0
LINE
  8
0
 10
536.0
 20
572.0
 30
0.0
 11
538.0
 21
572.0
 31
0.0
  0
LINE
  8
0
 10
538.0
 20
572.0
 30
0.0
 11
538.0
 21
571.0
 31
0.0
  0
LINE
  8
0
 10
538.0
 20
571.0
 30
0.0
 11
536.0
 21
571.0
 31
0.0
  0
LINE
  8
0
 10
536.0
 20
571.0
 30
0.0
 11
536.0
 21
572.0
 31
0.0
  0
LINE
  8
0
 10
508.0
 20
571.0
 30
0.0
 11
516.0
 21
571.0
 31
0.0
  0
LINE
  8
0
 10
516.0
 20
571.0
 30
0.0
 11
516.0
 21
570.0
 31
0.0
  0
LINE
  8
0
 10
516.0
 20
570.0
 30
0.0
 11
508.0
 21
570.0
 31
0.0
  0
LINE
  8
0
 10
508.0
 20
570.0
 30
0.0
 11
508.0
 21
571.0
 31
0.0
  0
LINE
  8
0
 10
518.0
 20
571.0
 30
0.0
 11
526.0
 21
571.0
 31
0.0
  0
LINE
  8
0
 10
526.0
 20
571.0
 30
0.0
 11
526.0
 21
570.0
 31
0.0
  0
LINE
  8
0
 10
526.0
 20
570.0
 30
0.0
 11
518.0
 21
570.0
 31
0.0
  0
LINE
  8
0
 10
518.0
 20
570.0
 30
0.0
 11
518.0
 21
571.0
 31
0.0
  0
LINE
  8
0
 10
527.0
 20
571.0
 30
0.0
 11
538.0
 21
571.0
 31
0.0
  0
LINE
  8
0
 10
538.0
 20
571.0
 30
0.0
 11
538.0
 21
570.0
 31
0.0
  0
LINE
  8
0
 10
538.0
 20
570.0
 30
0.0
 11
527.0
 21
570.0
 31
0.0
  0
LINE
  8
0
 10
527.0
 20
570.0
 30
0.0
 11
527.0
 21
571.0
 31
0.0
  0
LINE
  8
0
 10
507.0
 20
570.0
 30
0.0
 11
515.0
 21
570.0
 31
0.0
  0
LINE
  8
0
 10
515.0
 20
570.0
 30
0.0
 11
515.0
 21
569.0
 31
0.0
  0
LINE
  8
0
 10
515.0
 20
569.0
 30
0.0
 11
507.0
 21
569.0
 31
0.0
  0
LINE
  8
0
 10
507.0
 20
569.0
 30
0.0
 11
507.0
 21
570.0
 31
0.0
  0
LINE
  8
0
 10
517.0
 20
570.0
 30
0.0
 11
524.0
 21
570.0
 31
0.0
  0
LINE
  8
0
 10
524.0
 20
570.0
 30
0.0
 11
524.0
 21
569.0
 31
0.0
  0
LINE
  8
0
 10
524.0
 20
569.0
 30
0.0
 11
517.0
 21
569.0
 31
0.0
  0
LINE
  8
0
 10
517.0
 20
569.0
 30
0.0
 11
517.0
 21
570.0
 31
0.0
  0
LINE
  8
0
 10
526.0
 20
570.0
 30
0.0
 11
538.0
 21
570.0
 31
0.0
  0
LINE
  8
0
 10
538.0
 20
570.0
 30
0.0
 11
538.0
 21
569.0
 31
0.0
  0
LINE
  8
0
 10
538.0
 20
569.0
 30
0.0
 11
526.0
 21
569.0
 31
0.0
  0
LINE
  8
0
 10
526.0
 20
569.0
 30
0.0
 11
526.0
 21
570.0
 31
0.0
  0
LINE
  8
0
 10
507.0
 20
569.0
 30
0.0
 11
514.0
 21
569.0
 31
0.0
  0
LINE
  8
0
 10
514.0
 20
569.0
 30
0.0
 11
514.0
 21
568.0
 31
0.0
  0
LINE
  8
0
 10
514.0
 20
568.0
 30
0.0
 11
507.0
 21
568.0
 31
0.0
  0
LINE
  8
0
 10
507.0
 20
568.0
 30
0.0
 11
507.0
 21
569.0
 31
0.0
  0
LINE
  8
0
 10
516.0
 20
569.0
 30
0.0
 11
523.0
 21
569.0
 31
0.0
  0
LINE
  8
0
 10
523.0
 20
569.0
 30
0.0
 11
523.0
 21
568.0
 31
0.0
  0
LINE
  8
0
 10
523.0
 20
568.0
 30
0.0
 11
516.0
 21
568.0
 31
0.0
  0
LINE
  8
0
 10
516.0
 20
568.0
 30
0.0
 11
516.0
 21
569.0
 31
0.0
  0
LINE
  8
0
 10
525.0
 20
569.0
 30
0.0
 11
537.0
 21
569.0
 31
0.0
  0
LINE
  8
0
 10
537.0
 20
569.0
 30
0.0
 11
537.0
 21
568.0
 31
0.0
  0
LINE
  8
0
 10
537.0
 20
568.0
 30
0.0
 11
525.0
 21
568.0
 31
0.0
  0
LINE
  8
0
 10
525.0
 20
568.0
 30
0.0
 11
525.0
 21
569.0
 31
0.0
  0
LINE
  8
0
 10
506.0
 20
568.0
 30
0.0
 11
513.0
 21
568.0
 31
0.0
  0
LINE
  8
0
 10
513.0
 20
568.0
 30
0.0
 11
513.0
 21
567.0
 31
0.0
  0
LINE
  8
0
 10
513.0
 20
567.0
 30
0.0
 11
506.0
 21
567.0
 31
0.0
  0
LINE
  8
0
 10
506.0
 20
567.0
 30
0.0
 11
506.0
 21
568.0
 31
0.0
  0
LINE
  8
0
 10
515.0
 20
568.0
 30
0.0
 11
522.0
 21
568.0
 31
0.0
  0
LINE
  8
0
 10
522.0
 20
568.0
 30
0.0
 11
522.0
 21
567.0
 31
0.0
  0
LINE
  8
0
 10
522.0
 20
567.0
 30
0.0
 11
515.0
 21
567.0
 31
0.0
  0
LINE
  8
0
 10
515.0
 20
567.0
 30
0.0
 11
515.0
 21
568.0
 31
0.0
  0
LINE
  8
0
 10
524.0
 20
568.0
 30
0.0
 11
537.0
 21
568.0
 31
0.0
  0
LINE
  8
0
 10
537.0
 20
568.0
 30
0.0
 11
537.0
 21
567.0
 31
0.0
  0
LINE
  8
0
 10
537.0
 20
567.0
 30
0.0
 11
524.0
 21
567.0
 31
0.0
  0
LINE
  8
0
 10
524.0
 20
567.0
 30
0.0
 11
524.0
 21
568.0
 31
0.0
  0
LINE
  8
0
 10
505.0
 20
567.0
 30
0.0
 11
512.0
 21
567.0
 31
0.0
  0
LINE
  8
0
 10
512.0
 20
567.0
 30
0.0
 11
512.0
 21
566.0
 31
0.0
  0
LINE
  8
0
 10
512.0
 20
566.0
 30
0.0
 11
505.0
 21
566.0
 31
0.0
  0
LINE
  8
0
 10
505.0
 20
566.0
 30
0.0
 11
505.0
 21
567.0
 31
0.0
  0
LINE
  8
0
 10
515.0
 20
567.0
 30
0.0
 11
520.0
 21
567.0
 31
0.0
  0
LINE
  8
0
 10
520.0
 20
567.0
 30
0.0
 11
520.0
 21
566.0
 31
0.0
  0
LINE
  8
0
 10
520.0
 20
566.0
 30
0.0
 11
515.0
 21
566.0
 31
0.0
  0
LINE
  8
0
 10
515.0
 20
566.0
 30
0.0
 11
515.0
 21
567.0
 31
0.0
  0
LINE
  8
0
 10
523.0
 20
567.0
 30
0.0
 11
536.0
 21
567.0
 31
0.0
  0
LINE
  8
0
 10
536.0
 20
567.0
 30
0.0
 11
536.0
 21
566.0
 31
0.0
  0
LINE
  8
0
 10
536.0
 20
566.0
 30
0.0
 11
523.0
 21
566.0
 31
0.0
  0
LINE
  8
0
 10
523.0
 20
566.0
 30
0.0
 11
523.0
 21
567.0
 31
0.0
  0
LINE
  8
0
 10
504.0
 20
566.0
 30
0.0
 11
511.0
 21
566.0
 31
0.0
  0
LINE
  8
0
 10
511.0
 20
566.0
 30
0.0
 11
511.0
 21
565.0
 31
0.0
  0
LINE
  8
0
 10
511.0
 20
565.0
 30
0.0
 11
504.0
 21
565.0
 31
0.0
  0
LINE
  8
0
 10
504.0
 20
565.0
 30
0.0
 11
504.0
 21
566.0
 31
0.0
  0
LINE
  8
0
 10
514.0
 20
566.0
 30
0.0
 11
519.0
 21
566.0
 31
0.0
  0
LINE
  8
0
 10
519.0
 20
566.0
 30
0.0
 11
519.0
 21
565.0
 31
0.0
  0
LINE
  8
0
 10
519.0
 20
565.0
 30
0.0
 11
514.0
 21
565.0
 31
0.0
  0
LINE
  8
0
 10
514.0
 20
565.0
 30
0.0
 11
514.0
 21
566.0
 31
0.0
  0
LINE
  8
0
 10
522.0
 20
566.0
 30
0.0
 11
536.0
 21
566.0
 31
0.0
  0
LINE
  8
0
 10
536.0
 20
566.0
 30
0.0
 11
536.0
 21
565.0
 31
0.0
  0
LINE
  8
0
 10
536.0
 20
565.0
 30
0.0
 11
522.0
 21
565.0
 31
0.0
  0
LINE
  8
0
 10
522.0
 20
565.0
 30
0.0
 11
522.0
 21
566.0
 31
0.0
  0
LINE
  8
0
 10
503.0
 20
565.0
 30
0.0
 11
510.0
 21
565.0
 31
0.0
  0
LINE
  8
0
 10
510.0
 20
565.0
 30
0.0
 11
510.0
 21
564.0
 31
0.0
  0
LINE
  8
0
 10
510.0
 20
564.0
 30
0.0
 11
503.0
 21
564.0
 31
0.0
  0
LINE
  8
0
 10
503.0
 20
564.0
 30
0.0
 11
503.0
 21
565.0
 31
0.0
  0
LINE
  8
0
 10
513.0
 20
565.0
 30
0.0
 11
517.0
 21
565.0
 31
0.0
  0
LINE
  8
0
 10
517.0
 20
565.0
 30
0.0
 11
517.0
 21
564.0
 31
0.0
  0
LINE
  8
0
 10
517.0
 20
564.0
 30
0.0
 11
513.0
 21
564.0
 31
0.0
  0
LINE
  8
0
 10
513.0
 20
564.0
 30
0.0
 11
513.0
 21
565.0
 31
0.0
  0
LINE
  8
0
 10
521.0
 20
565.0
 30
0.0
 11
535.0
 21
565.0
 31
0.0
  0
LINE
  8
0
 10
535.0
 20
565.0
 30
0.0
 11
535.0
 21
564.0
 31
0.0
  0
LINE
  8
0
 10
535.0
 20
564.0
 30
0.0
 11
521.0
 21
564.0
 31
0.0
  0
LINE
  8
0
 10
521.0
 20
564.0
 30
0.0
 11
521.0
 21
565.0
 31
0.0
  0
LINE
  8
0
 10
411.0
 20
564.0
 30
0.0
 11
415.0
 21
564.0
 31
0.0
  0
LINE
  8
0
 10
415.0
 20
564.0
 30
0.0
 11
415.0
 21
563.0
 31
0.0
  0
LINE
  8
0
 10
415.0
 20
563.0
 30
0.0
 11
411.0
 21
563.0
 31
0.0
  0
LINE
  8
0
 10
411.0
 20
563.0
 30
0.0
 11
411.0
 21
564.0
 31
0.0
  0
LINE
  8
0
 10
503.0
 20
564.0
 30
0.0
 11
510.0
 21
564.0
 31
0.0
  0
LINE
  8
0
 10
510.0
 20
564.0
 30
0.0
 11
510.0
 21
563.0
 31
0.0
  0
LINE
  8
0
 10
510.0
 20
563.0
 30
0.0
 11
503.0
 21
563.0
 31
0.0
  0
LINE
  8
0
 10
503.0
 20
563.0
 30
0.0
 11
503.0
 21
564.0
 31
0.0
  0
LINE
  8
0
 10
513.0
 20
564.0
 30
0.0
 11
516.0
 21
564.0
 31
0.0
  0
LINE
  8
0
 10
516.0
 20
564.0
 30
0.0
 11
516.0
 21
563.0
 31
0.0
  0
LINE
  8
0
 10
516.0
 20
563.0
 30
0.0
 11
513.0
 21
563.0
 31
0.0
  0
LINE
  8
0
 10
513.0
 20
563.0
 30
0.0
 11
513.0
 21
564.0
 31
0.0
  0
LINE
  8
0
 10
520.0
 20
564.0
 30
0.0
 11
534.0
 21
564.0
 31
0.0
  0
LINE
  8
0
 10
534.0
 20
564.0
 30
0.0
 11
534.0
 21
563.0
 31
0.0
  0
LINE
  8
0
 10
534.0
 20
563.0
 30
0.0
 11
520.0
 21
563.0
 31
0.0
  0
LINE
  8
0
 10
520.0
 20
563.0
 30
0.0
 11
520.0
 21
564.0
 31
0.0
  0
LINE
  8
0
 10
409.0
 20
563.0
 30
0.0
 11
421.0
 21
563.0
 31
0.0
  0
LINE
  8
0
 10
421.0
 20
563.0
 30
0.0
 11
421.0
 21
562.0
 31
0.0
  0
LINE
  8
0
 10
421.0
 20
562.0
 30
0.0
 11
409.0
 21
562.0
 31
0.0
  0
LINE
  8
0
 10
409.0
 20
562.0
 30
0.0
 11
409.0
 21
563.0
 31
0.0
  0
LINE
  8
0
 10
502.0
 20
563.0
 30
0.0
 11
509.0
 21
563.0
 31
0.0
  0
LINE
  8
0
 10
509.0
 20
563.0
 30
0.0
 11
509.0
 21
562.0
 31
0.0
  0
LINE
  8
0
 10
509.0
 20
562.0
 30
0.0
 11
502.0
 21
562.0
 31
0.0
  0
LINE
  8
0
 10
502.0
 20
562.0
 30
0.0
 11
502.0
 21
563.0
 31
0.0
  0
LINE
  8
0
 10
512.0
 20
563.0
 30
0.0
 11
514.0
 21
563.0
 31
0.0
  0
LINE
  8
0
 10
514.0
 20
563.0
 30
0.0
 11
514.0
 21
562.0
 31
0.0
  0
LINE
  8
0
 10
514.0
 20
562.0
 30
0.0
 11
512.0
 21
562.0
 31
0.0
  0
LINE
  8
0
 10
512.0
 20
562.0
 30
0.0
 11
512.0
 21
563.0
 31
0.0
  0
LINE
  8
0
 10
516.0
 20
563.0
 30
0.0
 11
517.0
 21
563.0
 31
0.0
  0
LINE
  8
0
 10
517.0
 20
563.0
 30
0.0
 11
517.0
 21
562.0
 31
0.0
  0
LINE
  8
0
 10
517.0
 20
562.0
 30
0.0
 11
516.0
 21
562.0
 31
0.0
  0
LINE
  8
0
 10
516.0
 20
562.0
 30
0.0
 11
516.0
 21
563.0
 31
0.0
  0
LINE
  8
0
 10
518.0
 20
563.0
 30
0.0
 11
533.0
 21
563.0
 31
0.0
  0
LINE
  8
0
 10
533.0
 20
563.0
 30
0.0
 11
533.0
 21
562.0
 31
0.0
  0
LINE
  8
0
 10
533.0
 20
562.0
 30
0.0
 11
518.0
 21
562.0
 31
0.0
  0
LINE
  8
0
 10
518.0
 20
562.0
 30
0.0
 11
518.0
 21
563.0
 31
0.0
  0
LINE
  8
0
 10
409.0
 20
562.0
 30
0.0
 11
425.0
 21
562.0
 31
0.0
  0
LINE
  8
0
 10
425.0
 20
562.0
 30
0.0
 11
425.0
 21
561.0
 31
0.0
  0
LINE
  8
0
 10
425.0
 20
561.0
 30
0.0
 11
409.0
 21
561.0
 31
0.0
  0
LINE
  8
0
 10
409.0
 20
561.0
 30
0.0
 11
409.0
 21
562.0
 31
0.0
  0
LINE
  8
0
 10
501.0
 20
562.0
 30
0.0
 11
508.0
 21
562.0
 31
0.0
  0
LINE
  8
0
 10
508.0
 20
562.0
 30
0.0
 11
508.0
 21
561.0
 31
0.0
  0
LINE
  8
0
 10
508.0
 20
561.0
 30
0.0
 11
501.0
 21
561.0
 31
0.0
  0
LINE
  8
0
 10
501.0
 20
561.0
 30
0.0
 11
501.0
 21
562.0
 31
0.0
  0
LINE
  8
0
 10
511.0
 20
562.0
 30
0.0
 11
513.0
 21
562.0
 31
0.0
  0
LINE
  8
0
 10
513.0
 20
562.0
 30
0.0
 11
513.0
 21
561.0
 31
0.0
  0
LINE
  8
0
 10
513.0
 20
561.0
 30
0.0
 11
511.0
 21
561.0
 31
0.0
  0
LINE
  8
0
 10
511.0
 20
561.0
 30
0.0
 11
511.0
 21
562.0
 31
0.0
  0
LINE
  8
0
 10
517.0
 20
562.0
 30
0.0
 11
533.0
 21
562.0
 31
0.0
  0
LINE
  8
0
 10
533.0
 20
562.0
 30
0.0
 11
533.0
 21
561.0
 31
0.0
  0
LINE
  8
0
 10
533.0
 20
561.0
 30
0.0
 11
517.0
 21
561.0
 31
0.0
  0
LINE
  8
0
 10
517.0
 20
561.0
 30
0.0
 11
517.0
 21
562.0
 31
0.0
  0
LINE
  8
0
 10
412.0
 20
561.0
 30
0.0
 11
428.0
 21
561.0
 31
0.0
  0
LINE
  8
0
 10
428.0
 20
561.0
 30
0.0
 11
428.0
 21
560.0
 31
0.0
  0
LINE
  8
0
 10
428.0
 20
560.0
 30
0.0
 11
412.0
 21
560.0
 31
0.0
  0
LINE
  8
0
 10
412.0
 20
560.0
 30
0.0
 11
412.0
 21
561.0
 31
0.0
  0
LINE
  8
0
 10
501.0
 20
561.0
 30
0.0
 11
507.0
 21
561.0
 31
0.0
  0
LINE
  8
0
 10
507.0
 20
561.0
 30
0.0
 11
507.0
 21
560.0
 31
0.0
  0
LINE
  8
0
 10
507.0
 20
560.0
 30
0.0
 11
501.0
 21
560.0
 31
0.0
  0
LINE
  8
0
 10
501.0
 20
560.0
 30
0.0
 11
501.0
 21
561.0
 31
0.0
  0
LINE
  8
0
 10
516.0
 20
561.0
 30
0.0
 11
532.0
 21
561.0
 31
0.0
  0
LINE
  8
0
 10
532.0
 20
561.0
 30
0.0
 11
532.0
 21
560.0
 31
0.0
  0
LINE
  8
0
 10
532.0
 20
560.0
 30
0.0
 11
516.0
 21
560.0
 31
0.0
  0
LINE
  8
0
 10
516.0
 20
560.0
 30
0.0
 11
516.0
 21
561.0
 31
0.0
  0
LINE
  8
0
 10
415.0
 20
560.0
 30
0.0
 11
431.0
 21
560.0
 31
0.0
  0
LINE
  8
0
 10
431.0
 20
560.0
 30
0.0
 11
431.0
 21
559.0
 31
0.0
  0
LINE
  8
0
 10
431.0
 20
559.0
 30
0.0
 11
415.0
 21
559.0
 31
0.0
  0
LINE
  8
0
 10
415.0
 20
559.0
 30
0.0
 11
415.0
 21
560.0
 31
0.0
  0
LINE
  8
0
 10
500.0
 20
560.0
 30
0.0
 11
507.0
 21
560.0
 31
0.0
  0
LINE
  8
0
 10
507.0
 20
560.0
 30
0.0
 11
507.0
 21
559.0
 31
0.0
  0
LINE
  8
0
 10
507.0
 20
559.0
 30
0.0
 11
500.0
 21
559.0
 31
0.0
  0
LINE
  8
0
 10
500.0
 20
559.0
 30
0.0
 11
500.0
 21
560.0
 31
0.0
  0
LINE
  8
0
 10
515.0
 20
560.0
 30
0.0
 11
523.0
 21
560.0
 31
0.0
  0
LINE
  8
0
 10
523.0
 20
560.0
 30
0.0
 11
523.0
 21
559.0
 31
0.0
  0
LINE
  8
0
 10
523.0
 20
559.0
 30
0.0
 11
515.0
 21
559.0
 31
0.0
  0
LINE
  8
0
 10
515.0
 20
559.0
 30
0.0
 11
515.0
 21
560.0
 31
0.0
  0
LINE
  8
0
 10
525.0
 20
560.0
 30
0.0
 11
534.0
 21
560.0
 31
0.0
  0
LINE
  8
0
 10
534.0
 20
560.0
 30
0.0
 11
534.0
 21
559.0
 31
0.0
  0
LINE
  8
0
 10
534.0
 20
559.0
 30
0.0
 11
525.0
 21
559.0
 31
0.0
  0
LINE
  8
0
 10
525.0
 20
559.0
 30
0.0
 11
525.0
 21
560.0
 31
0.0
  0
LINE
  8
0
 10
418.0
 20
559.0
 30
0.0
 11
434.0
 21
559.0
 31
0.0
  0
LINE
  8
0
 10
434.0
 20
559.0
 30
0.0
 11
434.0
 21
558.0
 31
0.0
  0
LINE
  8
0
 10
434.0
 20
558.0
 30
0.0
 11
418.0
 21
558.0
 31
0.0
  0
LINE
  8
0
 10
418.0
 20
558.0
 30
0.0
 11
418.0
 21
559.0
 31
0.0
  0
LINE
  8
0
 10
499.0
 20
559.0
 30
0.0
 11
506.0
 21
559.0
 31
0.0
  0
LINE
  8
0
 10
506.0
 20
559.0
 30
0.0
 11
506.0
 21
558.0
 31
0.0
  0
LINE
  8
0
 10
506.0
 20
558.0
 30
0.0
 11
499.0
 21
558.0
 31
0.0
  0
LINE
  8
0
 10
499.0
 20
558.0
 30
0.0
 11
499.0
 21
559.0
 31
0.0
  0
LINE
  8
0
 10
514.0
 20
559.0
 30
0.0
 11
521.0
 21
559.0
 31
0.0
  0
LINE
  8
0
 10
521.0
 20
559.0
 30
0.0
 11
521.0
 21
558.0
 31
0.0
  0
LINE
  8
0
 10
521.0
 20
558.0
 30
0.0
 11
514.0
 21
558.0
 31
0.0
  0
LINE
  8
0
 10
514.0
 20
558.0
 30
0.0
 11
514.0
 21
559.0
 31
0.0
  0
LINE
  8
0
 10
524.0
 20
559.0
 30
0.0
 11
534.0
 21
559.0
 31
0.0
  0
LINE
  8
0
 10
534.0
 20
559.0
 30
0.0
 11
534.0
 21
558.0
 31
0.0
  0
LINE
  8
0
 10
534.0
 20
558.0
 30
0.0
 11
524.0
 21
558.0
 31
0.0
  0
LINE
  8
0
 10
524.0
 20
558.0
 30
0.0
 11
524.0
 21
559.0
 31
0.0
  0
LINE
  8
0
 10
421.0
 20
558.0
 30
0.0
 11
436.0
 21
558.0
 31
0.0
  0
LINE
  8
0
 10
436.0
 20
558.0
 30
0.0
 11
436.0
 21
557.0
 31
0.0
  0
LINE
  8
0
 10
436.0
 20
557.0
 30
0.0
 11
421.0
 21
557.0
 31
0.0
  0
LINE
  8
0
 10
421.0
 20
557.0
 30
0.0
 11
421.0
 21
558.0
 31
0.0
  0
LINE
  8
0
 10
499.0
 20
558.0
 30
0.0
 11
505.0
 21
558.0
 31
0.0
  0
LINE
  8
0
 10
505.0
 20
558.0
 30
0.0
 11
505.0
 21
557.0
 31
0.0
  0
LINE
  8
0
 10
505.0
 20
557.0
 30
0.0
 11
499.0
 21
557.0
 31
0.0
  0
LINE
  8
0
 10
499.0
 20
557.0
 30
0.0
 11
499.0
 21
558.0
 31
0.0
  0
LINE
  8
0
 10
513.0
 20
558.0
 30
0.0
 11
519.0
 21
558.0
 31
0.0
  0
LINE
  8
0
 10
519.0
 20
558.0
 30
0.0
 11
519.0
 21
557.0
 31
0.0
  0
LINE
  8
0
 10
519.0
 20
557.0
 30
0.0
 11
513.0
 21
557.0
 31
0.0
  0
LINE
  8
0
 10
513.0
 20
557.0
 30
0.0
 11
513.0
 21
558.0
 31
0.0
  0
LINE
  8
0
 10
523.0
 20
558.0
 30
0.0
 11
534.0
 21
558.0
 31
0.0
  0
LINE
  8
0
 10
534.0
 20
558.0
 30
0.0
 11
534.0
 21
557.0
 31
0.0
  0
LINE
  8
0
 10
534.0
 20
557.0
 30
0.0
 11
523.0
 21
557.0
 31
0.0
  0
LINE
  8
0
 10
523.0
 20
557.0
 30
0.0
 11
523.0
 21
558.0
 31
0.0
  0
LINE
  8
0
 10
424.0
 20
557.0
 30
0.0
 11
439.0
 21
557.0
 31
0.0
  0
LINE
  8
0
 10
439.0
 20
557.0
 30
0.0
 11
439.0
 21
556.0
 31
0.0
  0
LINE
  8
0
 10
439.0
 20
556.0
 30
0.0
 11
424.0
 21
556.0
 31
0.0
  0
LINE
  8
0
 10
424.0
 20
556.0
 30
0.0
 11
424.0
 21
557.0
 31
0.0
  0
LINE
  8
0
 10
498.0
 20
557.0
 30
0.0
 11
504.0
 21
557.0
 31
0.0
  0
LINE
  8
0
 10
504.0
 20
557.0
 30
0.0
 11
504.0
 21
556.0
 31
0.0
  0
LINE
  8
0
 10
504.0
 20
556.0
 30
0.0
 11
498.0
 21
556.0
 31
0.0
  0
LINE
  8
0
 10
498.0
 20
556.0
 30
0.0
 11
498.0
 21
557.0
 31
0.0
  0
LINE
  8
0
 10
512.0
 20
557.0
 30
0.0
 11
517.0
 21
557.0
 31
0.0
  0
LINE
  8
0
 10
517.0
 20
557.0
 30
0.0
 11
517.0
 21
556.0
 31
0.0
  0
LINE
  8
0
 10
517.0
 20
556.0
 30
0.0
 11
512.0
 21
556.0
 31
0.0
  0
LINE
  8
0
 10
512.0
 20
556.0
 30
0.0
 11
512.0
 21
557.0
 31
0.0
  0
LINE
  8
0
 10
521.0
 20
557.0
 30
0.0
 11
533.0
 21
557.0
 31
0.0
  0
LINE
  8
0
 10
533.0
 20
557.0
 30
0.0
 11
533.0
 21
556.0
 31
0.0
  0
LINE
  8
0
 10
533.0
 20
556.0
 30
0.0
 11
521.0
 21
556.0
 31
0.0
  0
LINE
  8
0
 10
521.0
 20
556.0
 30
0.0
 11
521.0
 21
557.0
 31
0.0
  0
LINE
  8
0
 10
426.0
 20
556.0
 30
0.0
 11
442.0
 21
556.0
 31
0.0
  0
LINE
  8
0
 10
442.0
 20
556.0
 30
0.0
 11
442.0
 21
555.0
 31
0.0
  0
LINE
  8
0
 10
442.0
 20
555.0
 30
0.0
 11
426.0
 21
555.0
 31
0.0
  0
LINE
  8
0
 10
426.0
 20
555.0
 30
0.0
 11
426.0
 21
556.0
 31
0.0
  0
LINE
  8
0
 10
456.0
 20
556.0
 30
0.0
 11
468.0
 21
556.0
 31
0.0
  0
LINE
  8
0
 10
468.0
 20
556.0
 30
0.0
 11
468.0
 21
555.0
 31
0.0
  0
LINE
  8
0
 10
468.0
 20
555.0
 30
0.0
 11
456.0
 21
555.0
 31
0.0
  0
LINE
  8
0
 10
456.0
 20
555.0
 30
0.0
 11
456.0
 21
556.0
 31
0.0
  0
LINE
  8
0
 10
497.0
 20
556.0
 30
0.0
 11
504.0
 21
556.0
 31
0.0
  0
LINE
  8
0
 10
504.0
 20
556.0
 30
0.0
 11
504.0
 21
555.0
 31
0.0
  0
LINE
  8
0
 10
504.0
 20
555.0
 30
0.0
 11
497.0
 21
555.0
 31
0.0
  0
LINE
  8
0
 10
497.0
 20
555.0
 30
0.0
 11
497.0
 21
556.0
 31
0.0
  0
LINE
  8
0
 10
511.0
 20
556.0
 30
0.0
 11
515.0
 21
556.0
 31
0.0
  0
LINE
  8
0
 10
515.0
 20
556.0
 30
0.0
 11
515.0
 21
555.0
 31
0.0
  0
LINE
  8
0
 10
515.0
 20
555.0
 30
0.0
 11
511.0
 21
555.0
 31
0.0
  0
LINE
  8
0
 10
511.0
 20
555.0
 30
0.0
 11
511.0
 21
556.0
 31
0.0
  0
LINE
  8
0
 10
520.0
 20
556.0
 30
0.0
 11
533.0
 21
556.0
 31
0.0
  0
LINE
  8
0
 10
533.0
 20
556.0
 30
0.0
 11
533.0
 21
555.0
 31
0.0
  0
LINE
  8
0
 10
533.0
 20
555.0
 30
0.0
 11
520.0
 21
555.0
 31
0.0
  0
LINE
  8
0
 10
520.0
 20
555.0
 30
0.0
 11
520.0
 21
556.0
 31
0.0
  0
LINE
  8
0
 10
429.0
 20
555.0
 30
0.0
 11
445.0
 21
555.0
 31
0.0
  0
LINE
  8
0
 10
445.0
 20
555.0
 30
0.0
 11
445.0
 21
554.0
 31
0.0
  0
LINE
  8
0
 10
445.0
 20
554.0
 30
0.0
 11
429.0
 21
554.0
 31
0.0
  0
LINE
  8
0
 10
429.0
 20
554.0
 30
0.0
 11
429.0
 21
555.0
 31
0.0
  0
LINE
  8
0
 10
453.0
 20
555.0
 30
0.0
 11
471.0
 21
555.0
 31
0.0
  0
LINE
  8
0
 10
471.0
 20
555.0
 30
0.0
 11
471.0
 21
554.0
 31
0.0
  0
LINE
  8
0
 10
471.0
 20
554.0
 30
0.0
 11
453.0
 21
554.0
 31
0.0
  0
LINE
  8
0
 10
453.0
 20
554.0
 30
0.0
 11
453.0
 21
555.0
 31
0.0
  0
LINE
  8
0
 10
497.0
 20
555.0
 30
0.0
 11
503.0
 21
555.0
 31
0.0
  0
LINE
  8
0
 10
503.0
 20
555.0
 30
0.0
 11
503.0
 21
554.0
 31
0.0
  0
LINE
  8
0
 10
503.0
 20
554.0
 30
0.0
 11
497.0
 21
554.0
 31
0.0
  0
LINE
  8
0
 10
497.0
 20
554.0
 30
0.0
 11
497.0
 21
555.0
 31
0.0
  0
LINE
  8
0
 10
511.0
 20
555.0
 30
0.0
 11
513.0
 21
555.0
 31
0.0
  0
LINE
  8
0
 10
513.0
 20
555.0
 30
0.0
 11
513.0
 21
554.0
 31
0.0
  0
LINE
  8
0
 10
513.0
 20
554.0
 30
0.0
 11
511.0
 21
554.0
 31
0.0
  0
LINE
  8
0
 10
511.0
 20
554.0
 30
0.0
 11
511.0
 21
555.0
 31
0.0
  0
LINE
  8
0
 10
516.0
 20
555.0
 30
0.0
 11
517.0
 21
555.0
 31
0.0
  0
LINE
  8
0
 10
517.0
 20
555.0
 30
0.0
 11
517.0
 21
554.0
 31
0.0
  0
LINE
  8
0
 10
517.0
 20
554.0
 30
0.0
 11
516.0
 21
554.0
 31
0.0
  0
LINE
  8
0
 10
516.0
 20
554.0
 30
0.0
 11
516.0
 21
555.0
 31
0.0
  0
LINE
  8
0
 10
519.0
 20
555.0
 30
0.0
 11
532.0
 21
555.0
 31
0.0
  0
LINE
  8
0
 10
532.0
 20
555.0
 30
0.0
 11
532.0
 21
554.0
 31
0.0
  0
LINE
  8
0
 10
532.0
 20
554.0
 30
0.0
 11
519.0
 21
554.0
 31
0.0
  0
LINE
  8
0
 10
519.0
 20
554.0
 30
0.0
 11
519.0
 21
555.0
 31
0.0
  0
LINE
  8
0
 10
431.0
 20
554.0
 30
0.0
 11
473.0
 21
554.0
 31
0.0
  0
LINE
  8
0
 10
473.0
 20
554.0
 30
0.0
 11
473.0
 21
553.0
 31
0.0
  0
LINE
  8
0
 10
473.0
 20
553.0
 30
0.0
 11
431.0
 21
553.0
 31
0.0
  0
LINE
  8
0
 10
431.0
 20
553.0
 30
0.0
 11
431.0
 21
554.0
 31
0.0
  0
LINE
  8
0
 10
496.0
 20
554.0
 30
0.0
 11
503.0
 21
554.0
 31
0.0
  0
LINE
  8
0
 10
503.0
 20
554.0
 30
0.0
 11
503.0
 21
553.0
 31
0.0
  0
LINE
  8
0
 10
503.0
 20
553.0
 30
0.0
 11
496.0
 21
553.0
 31
0.0
  0
LINE
  8
0
 10
496.0
 20
553.0
 30
0.0
 11
496.0
 21
554.0
 31
0.0
  0
LINE
  8
0
 10
518.0
 20
554.0
 30
0.0
 11
531.0
 21
554.0
 31
0.0
  0
LINE
  8
0
 10
531.0
 20
554.0
 30
0.0
 11
531.0
 21
553.0
 31
0.0
  0
LINE
  8
0
 10
531.0
 20
553.0
 30
0.0
 11
518.0
 21
553.0
 31
0.0
  0
LINE
  8
0
 10
518.0
 20
553.0
 30
0.0
 11
518.0
 21
554.0
 31
0.0
  0
LINE
  8
0
 10
433.0
 20
553.0
 30
0.0
 11
475.0
 21
553.0
 31
0.0
  0
LINE
  8
0
 10
475.0
 20
553.0
 30
0.0
 11
475.0
 21
552.0
 31
0.0
  0
LINE
  8
0
 10
475.0
 20
552.0
 30
0.0
 11
433.0
 21
552.0
 31
0.0
  0
LINE
  8
0
 10
433.0
 20
552.0
 30
0.0
 11
433.0
 21
553.0
 31
0.0
  0
LINE
  8
0
 10
496.0
 20
553.0
 30
0.0
 11
502.0
 21
553.0
 31
0.0
  0
LINE
  8
0
 10
502.0
 20
553.0
 30
0.0
 11
502.0
 21
552.0
 31
0.0
  0
LINE
  8
0
 10
502.0
 20
552.0
 30
0.0
 11
496.0
 21
552.0
 31
0.0
  0
LINE
  8
0
 10
496.0
 20
552.0
 30
0.0
 11
496.0
 21
553.0
 31
0.0
  0
LINE
  8
0
 10
516.0
 20
553.0
 30
0.0
 11
530.0
 21
553.0
 31
0.0
  0
LINE
  8
0
 10
530.0
 20
553.0
 30
0.0
 11
530.0
 21
552.0
 31
0.0
  0
LINE
  8
0
 10
530.0
 20
552.0
 30
0.0
 11
516.0
 21
552.0
 31
0.0
  0
LINE
  8
0
 10
516.0
 20
552.0
 30
0.0
 11
516.0
 21
553.0
 31
0.0
  0
LINE
  8
0
 10
435.0
 20
552.0
 30
0.0
 11
459.0
 21
552.0
 31
0.0
  0
LINE
  8
0
 10
459.0
 20
552.0
 30
0.0
 11
459.0
 21
551.0
 31
0.0
  0
LINE
  8
0
 10
459.0
 20
551.0
 30
0.0
 11
435.0
 21
551.0
 31
0.0
  0
LINE
  8
0
 10
435.0
 20
551.0
 30
0.0
 11
435.0
 21
552.0
 31
0.0
  0
LINE
  8
0
 10
465.0
 20
552.0
 30
0.0
 11
476.0
 21
552.0
 31
0.0
  0
LINE
  8
0
 10
476.0
 20
552.0
 30
0.0
 11
476.0
 21
551.0
 31
0.0
  0
LINE
  8
0
 10
476.0
 20
551.0
 30
0.0
 11
465.0
 21
551.0
 31
0.0
  0
LINE
  8
0
 10
465.0
 20
551.0
 30
0.0
 11
465.0
 21
552.0
 31
0.0
  0
LINE
  8
0
 10
495.0
 20
552.0
 30
0.0
 11
501.0
 21
552.0
 31
0.0
  0
LINE
  8
0
 10
501.0
 20
552.0
 30
0.0
 11
501.0
 21
551.0
 31
0.0
  0
LINE
  8
0
 10
501.0
 20
551.0
 30
0.0
 11
495.0
 21
551.0
 31
0.0
  0
LINE
  8
0
 10
495.0
 20
551.0
 30
0.0
 11
495.0
 21
552.0
 31
0.0
  0
LINE
  8
0
 10
515.0
 20
552.0
 30
0.0
 11
529.0
 21
552.0
 31
0.0
  0
LINE
  8
0
 10
529.0
 20
552.0
 30
0.0
 11
529.0
 21
551.0
 31
0.0
  0
LINE
  8
0
 10
529.0
 20
551.0
 30
0.0
 11
515.0
 21
551.0
 31
0.0
  0
LINE
  8
0
 10
515.0
 20
551.0
 30
0.0
 11
515.0
 21
552.0
 31
0.0
  0
LINE
  8
0
 10
437.0
 20
551.0
 30
0.0
 11
456.0
 21
551.0
 31
0.0
  0
LINE
  8
0
 10
456.0
 20
551.0
 30
0.0
 11
456.0
 21
550.0
 31
0.0
  0
LINE
  8
0
 10
456.0
 20
550.0
 30
0.0
 11
437.0
 21
550.0
 31
0.0
  0
LINE
  8
0
 10
437.0
 20
550.0
 30
0.0
 11
437.0
 21
551.0
 31
0.0
  0
LINE
  8
0
 10
458.0
 20
551.0
 30
0.0
 11
460.0
 21
551.0
 31
0.0
  0
LINE
  8
0
 10
460.0
 20
551.0
 30
0.0
 11
460.0
 21
550.0
 31
0.0
  0
LINE
  8
0
 10
460.0
 20
550.0
 30
0.0
 11
458.0
 21
550.0
 31
0.0
  0
LINE
  8
0
 10
458.0
 20
550.0
 30
0.0
 11
458.0
 21
551.0
 31
0.0
  0
LINE
  8
0
 10
468.0
 20
551.0
 30
0.0
 11
477.0
 21
551.0
 31
0.0
  0
LINE
  8
0
 10
477.0
 20
551.0
 30
0.0
 11
477.0
 21
550.0
 31
0.0
  0
LINE
  8
0
 10
477.0
 20
550.0
 30
0.0
 11
468.0
 21
550.0
 31
0.0
  0
LINE
  8
0
 10
468.0
 20
550.0
 30
0.0
 11
468.0
 21
551.0
 31
0.0
  0
LINE
  8
0
 10
495.0
 20
551.0
 30
0.0
 11
501.0
 21
551.0
 31
0.0
  0
LINE
  8
0
 10
501.0
 20
551.0
 30
0.0
 11
501.0
 21
550.0
 31
0.0
  0
LINE
  8
0
 10
501.0
 20
550.0
 30
0.0
 11
495.0
 21
550.0
 31
0.0
  0
LINE
  8
0
 10
495.0
 20
550.0
 30
0.0
 11
495.0
 21
551.0
 31
0.0
  0
LINE
  8
0
 10
514.0
 20
551.0
 30
0.0
 11
528.0
 21
551.0
 31
0.0
  0
LINE
  8
0
 10
528.0
 20
551.0
 30
0.0
 11
528.0
 21
550.0
 31
0.0
  0
LINE
  8
0
 10
528.0
 20
550.0
 30
0.0
 11
514.0
 21
550.0
 31
0.0
  0
LINE
  8
0
 10
514.0
 20
550.0
 30
0.0
 11
514.0
 21
551.0
 31
0.0
  0
LINE
  8
0
 10
438.0
 20
550.0
 30
0.0
 11
464.0
 21
550.0
 31
0.0
  0
LINE
  8
0
 10
464.0
 20
550.0
 30
0.0
 11
464.0
 21
549.0
 31
0.0
  0
LINE
  8
0
 10
464.0
 20
549.0
 30
0.0
 11
438.0
 21
549.0
 31
0.0
  0
LINE
  8
0
 10
438.0
 20
549.0
 30
0.0
 11
438.0
 21
550.0
 31
0.0
  0
LINE
  8
0
 10
470.0
 20
550.0
 30
0.0
 11
478.0
 21
550.0
 31
0.0
  0
LINE
  8
0
 10
478.0
 20
550.0
 30
0.0
 11
478.0
 21
549.0
 31
0.0
  0
LINE
  8
0
 10
478.0
 20
549.0
 30
0.0
 11
470.0
 21
549.0
 31
0.0
  0
LINE
  8
0
 10
470.0
 20
549.0
 30
0.0
 11
470.0
 21
550.0
 31
0.0
  0
LINE
  8
0
 10
494.0
 20
550.0
 30
0.0
 11
500.0
 21
550.0
 31
0.0
  0
LINE
  8
0
 10
500.0
 20
550.0
 30
0.0
 11
500.0
 21
549.0
 31
0.0
  0
LINE
  8
0
 10
500.0
 20
549.0
 30
0.0
 11
494.0
 21
549.0
 31
0.0
  0
LINE
  8
0
 10
494.0
 20
549.0
 30
0.0
 11
494.0
 21
550.0
 31
0.0
  0
LINE
  8
0
 10
512.0
 20
550.0
 30
0.0
 11
520.0
 21
550.0
 31
0.0
  0
LINE
  8
0
 10
520.0
 20
550.0
 30
0.0
 11
520.0
 21
549.0
 31
0.0
  0
LINE
  8
0
 10
520.0
 20
549.0
 30
0.0
 11
512.0
 21
549.0
 31
0.0
  0
LINE
  8
0
 10
512.0
 20
549.0
 30
0.0
 11
512.0
 21
550.0
 31
0.0
  0
LINE
  8
0
 10
522.0
 20
550.0
 30
0.0
 11
529.0
 21
550.0
 31
0.0
  0
LINE
  8
0
 10
529.0
 20
550.0
 30
0.0
 11
529.0
 21
549.0
 31
0.0
  0
LINE
  8
0
 10
529.0
 20
549.0
 30
0.0
 11
522.0
 21
549.0
 31
0.0
  0
LINE
  8
0
 10
522.0
 20
549.0
 30
0.0
 11
522.0
 21
550.0
 31
0.0
  0
LINE
  8
0
 10
440.0
 20
549.0
 30
0.0
 11
466.0
 21
549.0
 31
0.0
  0
LINE
  8
0
 10
466.0
 20
549.0
 30
0.0
 11
466.0
 21
548.0
 31
0.0
  0
LINE
  8
0
 10
466.0
 20
548.0
 30
0.0
 11
440.0
 21
548.0
 31
0.0
  0
LINE
  8
0
 10
440.0
 20
548.0
 30
0.0
 11
440.0
 21
549.0
 31
0.0
  0
LINE
  8
0
 10
472.0
 20
549.0
 30
0.0
 11
479.0
 21
549.0
 31
0.0
  0
LINE
  8
0
 10
479.0
 20
549.0
 30
0.0
 11
479.0
 21
548.0
 31
0.0
  0
LINE
  8
0
 10
479.0
 20
548.0
 30
0.0
 11
472.0
 21
548.0
 31
0.0
  0
LINE
  8
0
 10
472.0
 20
548.0
 30
0.0
 11
472.0
 21
549.0
 31
0.0
  0
LINE
  8
0
 10
494.0
 20
549.0
 30
0.0
 11
500.0
 21
549.0
 31
0.0
  0
LINE
  8
0
 10
500.0
 20
549.0
 30
0.0
 11
500.0
 21
548.0
 31
0.0
  0
LINE
  8
0
 10
500.0
 20
548.0
 30
0.0
 11
494.0
 21
548.0
 31
0.0
  0
LINE
  8
0
 10
494.0
 20
548.0
 30
0.0
 11
494.0
 21
549.0
 31
0.0
  0
LINE
  8
0
 10
511.0
 20
549.0
 30
0.0
 11
517.0
 21
549.0
 31
0.0
  0
LINE
  8
0
 10
517.0
 20
549.0
 30
0.0
 11
517.0
 21
548.0
 31
0.0
  0
LINE
  8
0
 10
517.0
 20
548.0
 30
0.0
 11
511.0
 21
548.0
 31
0.0
  0
LINE
  8
0
 10
511.0
 20
548.0
 30
0.0
 11
511.0
 21
549.0
 31
0.0
  0
LINE
  8
0
 10
521.0
 20
549.0
 30
0.0
 11
530.0
 21
549.0
 31
0.0
  0
LINE
  8
0
 10
530.0
 20
549.0
 30
0.0
 11
530.0
 21
548.0
 31
0.0
  0
LINE
  8
0
 10
530.0
 20
548.0
 30
0.0
 11
521.0
 21
548.0
 31
0.0
  0
LINE
  8
0
 10
521.0
 20
548.0
 30
0.0
 11
521.0
 21
549.0
 31
0.0
  0
LINE
  8
0
 10
441.0
 20
548.0
 30
0.0
 11
467.0
 21
548.0
 31
0.0
  0
LINE
  8
0
 10
467.0
 20
548.0
 30
0.0
 11
467.0
 21
547.0
 31
0.0
  0
LINE
  8
0
 10
467.0
 20
547.0
 30
0.0
 11
441.0
 21
547.0
 31
0.0
  0
LINE
  8
0
 10
441.0
 20
547.0
 30
0.0
 11
441.0
 21
548.0
 31
0.0
  0
LINE
  8
0
 10
473.0
 20
548.0
 30
0.0
 11
480.0
 21
548.0
 31
0.0
  0
LINE
  8
0
 10
480.0
 20
548.0
 30
0.0
 11
480.0
 21
547.0
 31
0.0
  0
LINE
  8
0
 10
480.0
 20
547.0
 30
0.0
 11
473.0
 21
547.0
 31
0.0
  0
LINE
  8
0
 10
473.0
 20
547.0
 30
0.0
 11
473.0
 21
548.0
 31
0.0
  0
LINE
  8
0
 10
493.0
 20
548.0
 30
0.0
 11
500.0
 21
548.0
 31
0.0
  0
LINE
  8
0
 10
500.0
 20
548.0
 30
0.0
 11
500.0
 21
547.0
 31
0.0
  0
LINE
  8
0
 10
500.0
 20
547.0
 30
0.0
 11
493.0
 21
547.0
 31
0.0
  0
LINE
  8
0
 10
493.0
 20
547.0
 30
0.0
 11
493.0
 21
548.0
 31
0.0
  0
LINE
  8
0
 10
512.0
 20
548.0
 30
0.0
 11
514.0
 21
548.0
 31
0.0
  0
LINE
  8
0
 10
514.0
 20
548.0
 30
0.0
 11
514.0
 21
547.0
 31
0.0
  0
LINE
  8
0
 10
514.0
 20
547.0
 30
0.0
 11
512.0
 21
547.0
 31
0.0
  0
LINE
  8
0
 10
512.0
 20
547.0
 30
0.0
 11
512.0
 21
548.0
 31
0.0
  0
LINE
  8
0
 10
519.0
 20
548.0
 30
0.0
 11
530.0
 21
548.0
 31
0.0
  0
LINE
  8
0
 10
530.0
 20
548.0
 30
0.0
 11
530.0
 21
547.0
 31
0.0
  0
LINE
  8
0
 10
530.0
 20
547.0
 30
0.0
 11
519.0
 21
547.0
 31
0.0
  0
LINE
  8
0
 10
519.0
 20
547.0
 30
0.0
 11
519.0
 21
548.0
 31
0.0
  0
LINE
  8
0
 10
443.0
 20
547.0
 30
0.0
 11
459.0
 21
547.0
 31
0.0
  0
LINE
  8
0
 10
459.0
 20
547.0
 30
0.0
 11
459.0
 21
546.0
 31
0.0
  0
LINE
  8
0
 10
459.0
 20
546.0
 30
0.0
 11
443.0
 21
546.0
 31
0.0
  0
LINE
  8
0
 10
443.0
 20
546.0
 30
0.0
 11
443.0
 21
547.0
 31
0.0
  0
LINE
  8
0
 10
460.0
 20
547.0
 30
0.0
 11
467.0
 21
547.0
 31
0.0
  0
LINE
  8
0
 10
467.0
 20
547.0
 30
0.0
 11
467.0
 21
546.0
 31
0.0
  0
LINE
  8
0
 10
467.0
 20
546.0
 30
0.0
 11
460.0
 21
546.0
 31
0.0
  0
LINE
  8
0
 10
460.0
 20
546.0
 30
0.0
 11
460.0
 21
547.0
 31
0.0
  0
LINE
  8
0
 10
475.0
 20
547.0
 30
0.0
 11
480.0
 21
547.0
 31
0.0
  0
LINE
  8
0
 10
480.0
 20
547.0
 30
0.0
 11
480.0
 21
546.0
 31
0.0
  0
LINE
  8
0
 10
480.0
 20
546.0
 30
0.0
 11
475.0
 21
546.0
 31
0.0
  0
LINE
  8
0
 10
475.0
 20
546.0
 30
0.0
 11
475.0
 21
547.0
 31
0.0
  0
LINE
  8
0
 10
493.0
 20
547.0
 30
0.0
 11
499.0
 21
547.0
 31
0.0
  0
LINE
  8
0
 10
499.0
 20
547.0
 30
0.0
 11
499.0
 21
546.0
 31
0.0
  0
LINE
  8
0
 10
499.0
 20
546.0
 30
0.0
 11
493.0
 21
546.0
 31
0.0
  0
LINE
  8
0
 10
493.0
 20
546.0
 30
0.0
 11
493.0
 21
547.0
 31
0.0
  0
LINE
  8
0
 10
514.0
 20
547.0
 30
0.0
 11
515.0
 21
547.0
 31
0.0
  0
LINE
  8
0
 10
515.0
 20
547.0
 30
0.0
 11
515.0
 21
546.0
 31
0.0
  0
LINE
  8
0
 10
515.0
 20
546.0
 30
0.0
 11
514.0
 21
546.0
 31
0.0
  0
LINE
  8
0
 10
514.0
 20
546.0
 30
0.0
 11
514.0
 21
547.0
 31
0.0
  0
LINE
  8
0
 10
517.0
 20
547.0
 30
0.0
 11
529.0
 21
547.0
 31
0.0
  0
LINE
  8
0
 10
529.0
 20
547.0
 30
0.0
 11
529.0
 21
546.0
 31
0.0
  0
LINE
  8
0
 10
529.0
 20
546.0
 30
0.0
 11
517.0
 21
546.0
 31
0.0
  0
LINE
  8
0
 10
517.0
 20
546.0
 30
0.0
 11
517.0
 21
547.0
 31
0.0
  0
LINE
  8
0
 10
564.0
 20
547.0
 30
0.0
 11
567.0
 21
547.0
 31
0.0
  0
LINE
  8
0
 10
567.0
 20
547.0
 30
0.0
 11
567.0
 21
546.0
 31
0.0
  0
LINE
  8
0
 10
567.0
 20
546.0
 30
0.0
 11
564.0
 21
546.0
 31
0.0
  0
LINE
  8
0
 10
564.0
 20
546.0
 30
0.0
 11
564.0
 21
547.0
 31
0.0
  0
LINE
  8
0
 10
444.0
 20
546.0
 30
0.0
 11
467.0
 21
546.0
 31
0.0
  0
LINE
  8
0
 10
467.0
 20
546.0
 30
0.0
 11
467.0
 21
545.0
 31
0.0
  0
LINE
  8
0
 10
467.0
 20
545.0
 30
0.0
 11
444.0
 21
545.0
 31
0.0
  0
LINE
  8
0
 10
444.0
 20
545.0
 30
0.0
 11
444.0
 21
546.0
 31
0.0
  0
LINE
  8
0
 10
475.0
 20
546.0
 30
0.0
 11
481.0
 21
546.0
 31
0.0
  0
LINE
  8
0
 10
481.0
 20
546.0
 30
0.0
 11
481.0
 21
545.0
 31
0.0
  0
LINE
  8
0
 10
481.0
 20
545.0
 30
0.0
 11
475.0
 21
545.0
 31
0.0
  0
LINE
  8
0
 10
475.0
 20
545.0
 30
0.0
 11
475.0
 21
546.0
 31
0.0
  0
LINE
  8
0
 10
492.0
 20
546.0
 30
0.0
 11
499.0
 21
546.0
 31
0.0
  0
LINE
  8
0
 10
499.0
 20
546.0
 30
0.0
 11
499.0
 21
545.0
 31
0.0
  0
LINE
  8
0
 10
499.0
 20
545.0
 30
0.0
 11
492.0
 21
545.0
 31
0.0
  0
LINE
  8
0
 10
492.0
 20
545.0
 30
0.0
 11
492.0
 21
546.0
 31
0.0
  0
LINE
  8
0
 10
516.0
 20
546.0
 30
0.0
 11
528.0
 21
546.0
 31
0.0
  0
LINE
  8
0
 10
528.0
 20
546.0
 30
0.0
 11
528.0
 21
545.0
 31
0.0
  0
LINE
  8
0
 10
528.0
 20
545.0
 30
0.0
 11
516.0
 21
545.0
 31
0.0
  0
LINE
  8
0
 10
516.0
 20
545.0
 30
0.0
 11
516.0
 21
546.0
 31
0.0
  0
LINE
  8
0
 10
542.0
 20
546.0
 30
0.0
 11
579.0
 21
546.0
 31
0.0
  0
LINE
  8
0
 10
579.0
 20
546.0
 30
0.0
 11
579.0
 21
545.0
 31
0.0
  0
LINE
  8
0
 10
579.0
 20
545.0
 30
0.0
 11
542.0
 21
545.0
 31
0.0
  0
LINE
  8
0
 10
542.0
 20
545.0
 30
0.0
 11
542.0
 21
546.0
 31
0.0
  0
LINE
  8
0
 10
445.0
 20
545.0
 30
0.0
 11
459.0
 21
545.0
 31
0.0
  0
LINE
  8
0
 10
459.0
 20
545.0
 30
0.0
 11
459.0
 21
544.0
 31
0.0
  0
LINE
  8
0
 10
459.0
 20
544.0
 30
0.0
 11
445.0
 21
544.0
 31
0.0
  0
LINE
  8
0
 10
445.0
 20
544.0
 30
0.0
 11
445.0
 21
545.0
 31
0.0
  0
LINE
  8
0
 10
460.0
 20
545.0
 30
0.0
 11
461.0
 21
545.0
 31
0.0
  0
LINE
  8
0
 10
461.0
 20
545.0
 30
0.0
 11
461.0
 21
544.0
 31
0.0
  0
LINE
  8
0
 10
461.0
 20
544.0
 30
0.0
 11
460.0
 21
544.0
 31
0.0
  0
LINE
  8
0
 10
460.0
 20
544.0
 30
0.0
 11
460.0
 21
545.0
 31
0.0
  0
LINE
  8
0
 10
462.0
 20
545.0
 30
0.0
 11
468.0
 21
545.0
 31
0.0
  0
LINE
  8
0
 10
468.0
 20
545.0
 30
0.0
 11
468.0
 21
544.0
 31
0.0
  0
LINE
  8
0
 10
468.0
 20
544.0
 30
0.0
 11
462.0
 21
544.0
 31
0.0
  0
LINE
  8
0
 10
462.0
 20
544.0
 30
0.0
 11
462.0
 21
545.0
 31
0.0
  0
LINE
  8
0
 10
476.0
 20
545.0
 30
0.0
 11
482.0
 21
545.0
 31
0.0
  0
LINE
  8
0
 10
482.0
 20
545.0
 30
0.0
 11
482.0
 21
544.0
 31
0.0
  0
LINE
  8
0
 10
482.0
 20
544.0
 30
0.0
 11
476.0
 21
544.0
 31
0.0
  0
LINE
  8
0
 10
476.0
 20
544.0
 30
0.0
 11
476.0
 21
545.0
 31
0.0
  0
LINE
  8
0
 10
492.0
 20
545.0
 30
0.0
 11
498.0
 21
545.0
 31
0.0
  0
LINE
  8
0
 10
498.0
 20
545.0
 30
0.0
 11
498.0
 21
544.0
 31
0.0
  0
LINE
  8
0
 10
498.0
 20
544.0
 30
0.0
 11
492.0
 21
544.0
 31
0.0
  0
LINE
  8
0
 10
492.0
 20
544.0
 30
0.0
 11
492.0
 21
545.0
 31
0.0
  0
LINE
  8
0
 10
515.0
 20
545.0
 30
0.0
 11
527.0
 21
545.0
 31
0.0
  0
LINE
  8
0
 10
527.0
 20
545.0
 30
0.0
 11
527.0
 21
544.0
 31
0.0
  0
LINE
  8
0
 10
527.0
 20
544.0
 30
0.0
 11
515.0
 21
544.0
 31
0.0
  0
LINE
  8
0
 10
515.0
 20
544.0
 30
0.0
 11
515.0
 21
545.0
 31
0.0
  0
LINE
  8
0
 10
534.0
 20
545.0
 30
0.0
 11
588.0
 21
545.0
 31
0.0
  0
LINE
  8
0
 10
588.0
 20
545.0
 30
0.0
 11
588.0
 21
544.0
 31
0.0
  0
LINE
  8
0
 10
588.0
 20
544.0
 30
0.0
 11
534.0
 21
544.0
 31
0.0
  0
LINE
  8
0
 10
534.0
 20
544.0
 30
0.0
 11
534.0
 21
545.0
 31
0.0
  0
LINE
  8
0
 10
446.0
 20
544.0
 30
0.0
 11
468.0
 21
544.0
 31
0.0
  0
LINE
  8
0
 10
468.0
 20
544.0
 30
0.0
 11
468.0
 21
543.0
 31
0.0
  0
LINE
  8
0
 10
468.0
 20
543.0
 30
0.0
 11
446.0
 21
543.0
 31
0.0
  0
LINE
  8
0
 10
446.0
 20
543.0
 30
0.0
 11
446.0
 21
544.0
 31
0.0
  0
LINE
  8
0
 10
477.0
 20
544.0
 30
0.0
 11
482.0
 21
544.0
 31
0.0
  0
LINE
  8
0
 10
482.0
 20
544.0
 30
0.0
 11
482.0
 21
543.0
 31
0.0
  0
LINE
  8
0
 10
482.0
 20
543.0
 30
0.0
 11
477.0
 21
543.0
 31
0.0
  0
LINE
  8
0
 10
477.0
 20
543.0
 30
0.0
 11
477.0
 21
544.0
 31
0.0
  0
LINE
  8
0
 10
491.0
 20
544.0
 30
0.0
 11
498.0
 21
544.0
 31
0.0
  0
LINE
  8
0
 10
498.0
 20
544.0
 30
0.0
 11
498.0
 21
543.0
 31
0.0
  0
LINE
  8
0
 10
498.0
 20
543.0
 30
0.0
 11
491.0
 21
543.0
 31
0.0
  0
LINE
  8
0
 10
491.0
 20
543.0
 30
0.0
 11
491.0
 21
544.0
 31
0.0
  0
LINE
  8
0
 10
513.0
 20
544.0
 30
0.0
 11
526.0
 21
544.0
 31
0.0
  0
LINE
  8
0
 10
526.0
 20
544.0
 30
0.0
 11
526.0
 21
543.0
 31
0.0
  0
LINE
  8
0
 10
526.0
 20
543.0
 30
0.0
 11
513.0
 21
543.0
 31
0.0
  0
LINE
  8
0
 10
513.0
 20
543.0
 30
0.0
 11
513.0
 21
544.0
 31
0.0
  0
LINE
  8
0
 10
528.0
 20
544.0
 30
0.0
 11
594.0
 21
544.0
 31
0.0
  0
LINE
  8
0
 10
594.0
 20
544.0
 30
0.0
 11
594.0
 21
543.0
 31
0.0
  0
LINE
  8
0
 10
594.0
 20
543.0
 30
0.0
 11
528.0
 21
543.0
 31
0.0
  0
LINE
  8
0
 10
528.0
 20
543.0
 30
0.0
 11
528.0
 21
544.0
 31
0.0
  0
LINE
  8
0
 10
446.0
 20
543.0
 30
0.0
 11
470.0
 21
543.0
 31
0.0
  0
LINE
  8
0
 10
470.0
 20
543.0
 30
0.0
 11
470.0
 21
542.0
 31
0.0
  0
LINE
  8
0
 10
470.0
 20
542.0
 30
0.0
 11
446.0
 21
542.0
 31
0.0
  0
LINE
  8
0
 10
446.0
 20
542.0
 30
0.0
 11
446.0
 21
543.0
 31
0.0
  0
LINE
  8
0
 10
477.0
 20
543.0
 30
0.0
 11
483.0
 21
543.0
 31
0.0
  0
LINE
  8
0
 10
483.0
 20
543.0
 30
0.0
 11
483.0
 21
542.0
 31
0.0
  0
LINE
  8
0
 10
483.0
 20
542.0
 30
0.0
 11
477.0
 21
542.0
 31
0.0
  0
LINE
  8
0
 10
477.0
 20
542.0
 30
0.0
 11
477.0
 21
543.0
 31
0.0
  0
LINE
  8
0
 10
491.0
 20
543.0
 30
0.0
 11
497.0
 21
543.0
 31
0.0
  0
LINE
  8
0
 10
497.0
 20
543.0
 30
0.0
 11
497.0
 21
542.0
 31
0.0
  0
LINE
  8
0
 10
497.0
 20
542.0
 30
0.0
 11
491.0
 21
542.0
 31
0.0
  0
LINE
  8
0
 10
491.0
 20
542.0
 30
0.0
 11
491.0
 21
543.0
 31
0.0
  0
LINE
  8
0
 10
511.0
 20
543.0
 30
0.0
 11
600.0
 21
543.0
 31
0.0
  0
LINE
  8
0
 10
600.0
 20
543.0
 30
0.0
 11
600.0
 21
542.0
 31
0.0
  0
LINE
  8
0
 10
600.0
 20
542.0
 30
0.0
 11
511.0
 21
542.0
 31
0.0
  0
LINE
  8
0
 10
511.0
 20
542.0
 30
0.0
 11
511.0
 21
543.0
 31
0.0
  0
LINE
  8
0
 10
447.0
 20
542.0
 30
0.0
 11
471.0
 21
542.0
 31
0.0
  0
LINE
  8
0
 10
471.0
 20
542.0
 30
0.0
 11
471.0
 21
541.0
 31
0.0
  0
LINE
  8
0
 10
471.0
 20
541.0
 30
0.0
 11
447.0
 21
541.0
 31
0.0
  0
LINE
  8
0
 10
447.0
 20
541.0
 30
0.0
 11
447.0
 21
542.0
 31
0.0
  0
LINE
  8
0
 10
478.0
 20
542.0
 30
0.0
 11
483.0
 21
542.0
 31
0.0
  0
LINE
  8
0
 10
483.0
 20
542.0
 30
0.0
 11
483.0
 21
541.0
 31
0.0
  0
LINE
  8
0
 10
483.0
 20
541.0
 30
0.0
 11
478.0
 21
541.0
 31
0.0
  0
LINE
  8
0
 10
478.0
 20
541.0
 30
0.0
 11
478.0
 21
542.0
 31
0.0
  0
LINE
  8
0
 10
490.0
 20
542.0
 30
0.0
 11
497.0
 21
542.0
 31
0.0
  0
LINE
  8
0
 10
497.0
 20
542.0
 30
0.0
 11
497.0
 21
541.0
 31
0.0
  0
LINE
  8
0
 10
497.0
 20
541.0
 30
0.0
 11
490.0
 21
541.0
 31
0.0
  0
LINE
  8
0
 10
490.0
 20
541.0
 30
0.0
 11
490.0
 21
542.0
 31
0.0
  0
LINE
  8
0
 10
510.0
 20
542.0
 30
0.0
 11
605.0
 21
542.0
 31
0.0
  0
LINE
  8
0
 10
605.0
 20
542.0
 30
0.0
 11
605.0
 21
541.0
 31
0.0
  0
LINE
  8
0
 10
605.0
 20
541.0
 30
0.0
 11
510.0
 21
541.0
 31
0.0
  0
LINE
  8
0
 10
510.0
 20
541.0
 30
0.0
 11
510.0
 21
542.0
 31
0.0
  0
LINE
  8
0
 10
447.0
 20
541.0
 30
0.0
 11
471.0
 21
541.0
 31
0.0
  0
LINE
  8
0
 10
471.0
 20
541.0
 30
0.0
 11
471.0
 21
540.0
 31
0.0
  0
LINE
  8
0
 10
471.0
 20
540.0
 30
0.0
 11
447.0
 21
540.0
 31
0.0
  0
LINE
  8
0
 10
447.0
 20
540.0
 30
0.0
 11
447.0
 21
541.0
 31
0.0
  0
LINE
  8
0
 10
478.0
 20
541.0
 30
0.0
 11
483.0
 21
541.0
 31
0.0
  0
LINE
  8
0
 10
483.0
 20
541.0
 30
0.0
 11
483.0
 21
540.0
 31
0.0
  0
LINE
  8
0
 10
483.0
 20
540.0
 30
0.0
 11
478.0
 21
540.0
 31
0.0
  0
LINE
  8
0
 10
478.0
 20
540.0
 30
0.0
 11
478.0
 21
541.0
 31
0.0
  0
LINE
  8
0
 10
489.0
 20
541.0
 30
0.0
 11
496.0
 21
541.0
 31
0.0
  0
LINE
  8
0
 10
496.0
 20
541.0
 30
0.0
 11
496.0
 21
540.0
 31
0.0
  0
LINE
  8
0
 10
496.0
 20
540.0
 30
0.0
 11
489.0
 21
540.0
 31
0.0
  0
LINE
  8
0
 10
489.0
 20
540.0
 30
0.0
 11
489.0
 21
541.0
 31
0.0
  0
LINE
  8
0
 10
510.0
 20
541.0
 30
0.0
 11
512.0
 21
541.0
 31
0.0
  0
LINE
  8
0
 10
512.0
 20
541.0
 30
0.0
 11
512.0
 21
540.0
 31
0.0
  0
LINE
  8
0
 10
512.0
 20
540.0
 30
0.0
 11
510.0
 21
540.0
 31
0.0
  0
LINE
  8
0
 10
510.0
 20
540.0
 30
0.0
 11
510.0
 21
541.0
 31
0.0
  0
LINE
  8
0
 10
517.0
 20
541.0
 30
0.0
 11
542.0
 21
541.0
 31
0.0
  0
LINE
  8
0
 10
542.0
 20
541.0
 30
0.0
 11
542.0
 21
540.0
 31
0.0
  0
LINE
  8
0
 10
542.0
 20
540.0
 30
0.0
 11
517.0
 21
540.0
 31
0.0
  0
LINE
  8
0
 10
517.0
 20
540.0
 30
0.0
 11
517.0
 21
541.0
 31
0.0
  0
LINE
  8
0
 10
569.0
 20
541.0
 30
0.0
 11
609.0
 21
541.0
 31
0.0
  0
LINE
  8
0
 10
609.0
 20
541.0
 30
0.0
 11
609.0
 21
540.0
 31
0.0
  0
LINE
  8
0
 10
609.0
 20
540.0
 30
0.0
 11
569.0
 21
540.0
 31
0.0
  0
LINE
  8
0
 10
569.0
 20
540.0
 30
0.0
 11
569.0
 21
541.0
 31
0.0
  0
LINE
  8
0
 10
448.0
 20
540.0
 30
0.0
 11
469.0
 21
540.0
 31
0.0
  0
LINE
  8
0
 10
469.0
 20
540.0
 30
0.0
 11
469.0
 21
539.0
 31
0.0
  0
LINE
  8
0
 10
469.0
 20
539.0
 30
0.0
 11
448.0
 21
539.0
 31
0.0
  0
LINE
  8
0
 10
448.0
 20
539.0
 30
0.0
 11
448.0
 21
540.0
 31
0.0
  0
LINE
  8
0
 10
479.0
 20
540.0
 30
0.0
 11
484.0
 21
540.0
 31
0.0
  0
LINE
  8
0
 10
484.0
 20
540.0
 30
0.0
 11
484.0
 21
539.0
 31
0.0
  0
LINE
  8
0
 10
484.0
 20
539.0
 30
0.0
 11
479.0
 21
539.0
 31
0.0
  0
LINE
  8
0
 10
479.0
 20
539.0
 30
0.0
 11
479.0
 21
540.0
 31
0.0
  0
LINE
  8
0
 10
489.0
 20
540.0
 30
0.0
 11
496.0
 21
540.0
 31
0.0
  0
LINE
  8
0
 10
496.0
 20
540.0
 30
0.0
 11
496.0
 21
539.0
 31
0.0
  0
LINE
  8
0
 10
496.0
 20
539.0
 30
0.0
 11
489.0
 21
539.0
 31
0.0
  0
LINE
  8
0
 10
489.0
 20
539.0
 30
0.0
 11
489.0
 21
540.0
 31
0.0
  0
LINE
  8
0
 10
514.0
 20
540.0
 30
0.0
 11
535.0
 21
540.0
 31
0.0
  0
LINE
  8
0
 10
535.0
 20
540.0
 30
0.0
 11
535.0
 21
539.0
 31
0.0
  0
LINE
  8
0
 10
535.0
 20
539.0
 30
0.0
 11
514.0
 21
539.0
 31
0.0
  0
LINE
  8
0
 10
514.0
 20
539.0
 30
0.0
 11
514.0
 21
540.0
 31
0.0
  0
LINE
  8
0
 10
576.0
 20
540.0
 30
0.0
 11
612.0
 21
540.0
 31
0.0
  0
LINE
  8
0
 10
612.0
 20
540.0
 30
0.0
 11
612.0
 21
539.0
 31
0.0
  0
LINE
  8
0
 10
612.0
 20
539.0
 30
0.0
 11
576.0
 21
539.0
 31
0.0
  0
LINE
  8
0
 10
576.0
 20
539.0
 30
0.0
 11
576.0
 21
540.0
 31
0.0
  0
LINE
  8
0
 10
448.0
 20
539.0
 30
0.0
 11
469.0
 21
539.0
 31
0.0
  0
LINE
  8
0
 10
469.0
 20
539.0
 30
0.0
 11
469.0
 21
538.0
 31
0.0
  0
LINE
  8
0
 10
469.0
 20
538.0
 30
0.0
 11
448.0
 21
538.0
 31
0.0
  0
LINE
  8
0
 10
448.0
 20
538.0
 30
0.0
 11
448.0
 21
539.0
 31
0.0
  0
LINE
  8
0
 10
479.0
 20
539.0
 30
0.0
 11
484.0
 21
539.0
 31
0.0
  0
LINE
  8
0
 10
484.0
 20
539.0
 30
0.0
 11
484.0
 21
538.0
 31
0.0
  0
LINE
  8
0
 10
484.0
 20
538.0
 30
0.0
 11
479.0
 21
538.0
 31
0.0
  0
LINE
  8
0
 10
479.0
 20
538.0
 30
0.0
 11
479.0
 21
539.0
 31
0.0
  0
LINE
  8
0
 10
486.0
 20
539.0
 30
0.0
 11
487.0
 21
539.0
 31
0.0
  0
LINE
  8
0
 10
487.0
 20
539.0
 30
0.0
 11
487.0
 21
538.0
 31
0.0
  0
LINE
  8
0
 10
487.0
 20
538.0
 30
0.0
 11
486.0
 21
538.0
 31
0.0
  0
LINE
  8
0
 10
486.0
 20
538.0
 30
0.0
 11
486.0
 21
539.0
 31
0.0
  0
LINE
  8
0
 10
488.0
 20
539.0
 30
0.0
 11
495.0
 21
539.0
 31
0.0
  0
LINE
  8
0
 10
495.0
 20
539.0
 30
0.0
 11
495.0
 21
538.0
 31
0.0
  0
LINE
  8
0
 10
495.0
 20
538.0
 30
0.0
 11
488.0
 21
538.0
 31
0.0
  0
LINE
  8
0
 10
488.0
 20
538.0
 30
0.0
 11
488.0
 21
539.0
 31
0.0
  0
LINE
  8
0
 10
512.0
 20
539.0
 30
0.0
 11
530.0
 21
539.0
 31
0.0
  0
LINE
  8
0
 10
530.0
 20
539.0
 30
0.0
 11
530.0
 21
538.0
 31
0.0
  0
LINE
  8
0
 10
530.0
 20
538.0
 30
0.0
 11
512.0
 21
538.0
 31
0.0
  0
LINE
  8
0
 10
512.0
 20
538.0
 30
0.0
 11
512.0
 21
539.0
 31
0.0
  0
LINE
  8
0
 10
569.0
 20
539.0
 30
0.0
 11
576.0
 21
539.0
 31
0.0
  0
LINE
  8
0
 10
576.0
 20
539.0
 30
0.0
 11
576.0
 21
538.0
 31
0.0
  0
LINE
  8
0
 10
576.0
 20
538.0
 30
0.0
 11
569.0
 21
538.0
 31
0.0
  0
LINE
  8
0
 10
569.0
 20
538.0
 30
0.0
 11
569.0
 21
539.0
 31
0.0
  0
LINE
  8
0
 10
582.0
 20
539.0
 30
0.0
 11
615.0
 21
539.0
 31
0.0
  0
LINE
  8
0
 10
615.0
 20
539.0
 30
0.0
 11
615.0
 21
538.0
 31
0.0
  0
LINE
  8
0
 10
615.0
 20
538.0
 30
0.0
 11
582.0
 21
538.0
 31
0.0
  0
LINE
  8
0
 10
582.0
 20
538.0
 30
0.0
 11
582.0
 21
539.0
 31
0.0
  0
LINE
  8
0
 10
449.0
 20
538.0
 30
0.0
 11
469.0
 21
538.0
 31
0.0
  0
LINE
  8
0
 10
469.0
 20
538.0
 30
0.0
 11
469.0
 21
537.0
 31
0.0
  0
LINE
  8
0
 10
469.0
 20
537.0
 30
0.0
 11
449.0
 21
537.0
 31
0.0
  0
LINE
  8
0
 10
449.0
 20
537.0
 30
0.0
 11
449.0
 21
538.0
 31
0.0
  0
LINE
  8
0
 10
479.0
 20
538.0
 30
0.0
 11
485.0
 21
538.0
 31
0.0
  0
LINE
  8
0
 10
485.0
 20
538.0
 30
0.0
 11
485.0
 21
537.0
 31
0.0
  0
LINE
  8
0
 10
485.0
 20
537.0
 30
0.0
 11
479.0
 21
537.0
 31
0.0
  0
LINE
  8
0
 10
479.0
 20
537.0
 30
0.0
 11
479.0
 21
538.0
 31
0.0
  0
LINE
  8
0
 10
488.0
 20
538.0
 30
0.0
 11
495.0
 21
538.0
 31
0.0
  0
LINE
  8
0
 10
495.0
 20
538.0
 30
0.0
 11
495.0
 21
537.0
 31
0.0
  0
LINE
  8
0
 10
495.0
 20
537.0
 30
0.0
 11
488.0
 21
537.0
 31
0.0
  0
LINE
  8
0
 10
488.0
 20
537.0
 30
0.0
 11
488.0
 21
538.0
 31
0.0
  0
LINE
  8
0
 10
509.0
 20
538.0
 30
0.0
 11
526.0
 21
538.0
 31
0.0
  0
LINE
  8
0
 10
526.0
 20
538.0
 30
0.0
 11
526.0
 21
537.0
 31
0.0
  0
LINE
  8
0
 10
526.0
 20
537.0
 30
0.0
 11
509.0
 21
537.0
 31
0.0
  0
LINE
  8
0
 10
509.0
 20
537.0
 30
0.0
 11
509.0
 21
538.0
 31
0.0
  0
LINE
  8
0
 10
588.0
 20
538.0
 30
0.0
 11
615.0
 21
538.0
 31
0.0
  0
LINE
  8
0
 10
615.0
 20
538.0
 30
0.0
 11
615.0
 21
537.0
 31
0.0
  0
LINE
  8
0
 10
615.0
 20
537.0
 30
0.0
 11
588.0
 21
537.0
 31
0.0
  0
LINE
  8
0
 10
588.0
 20
537.0
 30
0.0
 11
588.0
 21
538.0
 31
0.0
  0
LINE
  8
0
 10
449.0
 20
537.0
 30
0.0
 11
470.0
 21
537.0
 31
0.0
  0
LINE
  8
0
 10
470.0
 20
537.0
 30
0.0
 11
470.0
 21
536.0
 31
0.0
  0
LINE
  8
0
 10
470.0
 20
536.0
 30
0.0
 11
449.0
 21
536.0
 31
0.0
  0
LINE
  8
0
 10
449.0
 20
536.0
 30
0.0
 11
449.0
 21
537.0
 31
0.0
  0
LINE
  8
0
 10
480.0
 20
537.0
 30
0.0
 11
486.0
 21
537.0
 31
0.0
  0
LINE
  8
0
 10
486.0
 20
537.0
 30
0.0
 11
486.0
 21
536.0
 31
0.0
  0
LINE
  8
0
 10
486.0
 20
536.0
 30
0.0
 11
480.0
 21
536.0
 31
0.0
  0
LINE
  8
0
 10
480.0
 20
536.0
 30
0.0
 11
480.0
 21
537.0
 31
0.0
  0
LINE
  8
0
 10
487.0
 20
537.0
 30
0.0
 11
494.0
 21
537.0
 31
0.0
  0
LINE
  8
0
 10
494.0
 20
537.0
 30
0.0
 11
494.0
 21
536.0
 31
0.0
  0
LINE
  8
0
 10
494.0
 20
536.0
 30
0.0
 11
487.0
 21
536.0
 31
0.0
  0
LINE
  8
0
 10
487.0
 20
536.0
 30
0.0
 11
487.0
 21
537.0
 31
0.0
  0
LINE
  8
0
 10
507.0
 20
537.0
 30
0.0
 11
522.0
 21
537.0
 31
0.0
  0
LINE
  8
0
 10
522.0
 20
537.0
 30
0.0
 11
522.0
 21
536.0
 31
0.0
  0
LINE
  8
0
 10
522.0
 20
536.0
 30
0.0
 11
507.0
 21
536.0
 31
0.0
  0
LINE
  8
0
 10
507.0
 20
536.0
 30
0.0
 11
507.0
 21
537.0
 31
0.0
  0
LINE
  8
0
 10
549.0
 20
537.0
 30
0.0
 11
576.0
 21
537.0
 31
0.0
  0
LINE
  8
0
 10
576.0
 20
537.0
 30
0.0
 11
576.0
 21
536.0
 31
0.0
  0
LINE
  8
0
 10
576.0
 20
536.0
 30
0.0
 11
549.0
 21
536.0
 31
0.0
  0
LINE
  8
0
 10
549.0
 20
536.0
 30
0.0
 11
549.0
 21
537.0
 31
0.0
  0
LINE
  8
0
 10
592.0
 20
537.0
 30
0.0
 11
615.0
 21
537.0
 31
0.0
  0
LINE
  8
0
 10
615.0
 20
537.0
 30
0.0
 11
615.0
 21
536.0
 31
0.0
  0
LINE
  8
0
 10
615.0
 20
536.0
 30
0.0
 11
592.0
 21
536.0
 31
0.0
  0
LINE
  8
0
 10
592.0
 20
536.0
 30
0.0
 11
592.0
 21
537.0
 31
0.0
  0
LINE
  8
0
 10
450.0
 20
536.0
 30
0.0
 11
471.0
 21
536.0
 31
0.0
  0
LINE
  8
0
 10
471.0
 20
536.0
 30
0.0
 11
471.0
 21
535.0
 31
0.0
  0
LINE
  8
0
 10
471.0
 20
535.0
 30
0.0
 11
450.0
 21
535.0
 31
0.0
  0
LINE
  8
0
 10
450.0
 20
535.0
 30
0.0
 11
450.0
 21
536.0
 31
0.0
  0
LINE
  8
0
 10
480.0
 20
536.0
 30
0.0
 11
494.0
 21
536.0
 31
0.0
  0
LINE
  8
0
 10
494.0
 20
536.0
 30
0.0
 11
494.0
 21
535.0
 31
0.0
  0
LINE
  8
0
 10
494.0
 20
535.0
 30
0.0
 11
480.0
 21
535.0
 31
0.0
  0
LINE
  8
0
 10
480.0
 20
535.0
 30
0.0
 11
480.0
 21
536.0
 31
0.0
  0
LINE
  8
0
 10
505.0
 20
536.0
 30
0.0
 11
519.0
 21
536.0
 31
0.0
  0
LINE
  8
0
 10
519.0
 20
536.0
 30
0.0
 11
519.0
 21
535.0
 31
0.0
  0
LINE
  8
0
 10
519.0
 20
535.0
 30
0.0
 11
505.0
 21
535.0
 31
0.0
  0
LINE
  8
0
 10
505.0
 20
535.0
 30
0.0
 11
505.0
 21
536.0
 31
0.0
  0
LINE
  8
0
 10
548.0
 20
536.0
 30
0.0
 11
613.0
 21
536.0
 31
0.0
  0
LINE
  8
0
 10
613.0
 20
536.0
 30
0.0
 11
613.0
 21
535.0
 31
0.0
  0
LINE
  8
0
 10
613.0
 20
535.0
 30
0.0
 11
548.0
 21
535.0
 31
0.0
  0
LINE
  8
0
 10
548.0
 20
535.0
 30
0.0
 11
548.0
 21
536.0
 31
0.0
  0
LINE
  8
0
 10
450.0
 20
535.0
 30
0.0
 11
472.0
 21
535.0
 31
0.0
  0
LINE
  8
0
 10
472.0
 20
535.0
 30
0.0
 11
472.0
 21
534.0
 31
0.0
  0
LINE
  8
0
 10
472.0
 20
534.0
 30
0.0
 11
450.0
 21
534.0
 31
0.0
  0
LINE
  8
0
 10
450.0
 20
534.0
 30
0.0
 11
450.0
 21
535.0
 31
0.0
  0
LINE
  8
0
 10
481.0
 20
535.0
 30
0.0
 11
493.0
 21
535.0
 31
0.0
  0
LINE
  8
0
 10
493.0
 20
535.0
 30
0.0
 11
493.0
 21
534.0
 31
0.0
  0
LINE
  8
0
 10
493.0
 20
534.0
 30
0.0
 11
481.0
 21
534.0
 31
0.0
  0
LINE
  8
0
 10
481.0
 20
534.0
 30
0.0
 11
481.0
 21
535.0
 31
0.0
  0
LINE
  8
0
 10
503.0
 20
535.0
 30
0.0
 11
516.0
 21
535.0
 31
0.0
  0
LINE
  8
0
 10
516.0
 20
535.0
 30
0.0
 11
516.0
 21
534.0
 31
0.0
  0
LINE
  8
0
 10
516.0
 20
534.0
 30
0.0
 11
503.0
 21
534.0
 31
0.0
  0
LINE
  8
0
 10
503.0
 20
534.0
 30
0.0
 11
503.0
 21
535.0
 31
0.0
  0
LINE
  8
0
 10
550.0
 20
535.0
 30
0.0
 11
610.0
 21
535.0
 31
0.0
  0
LINE
  8
0
 10
610.0
 20
535.0
 30
0.0
 11
610.0
 21
534.0
 31
0.0
  0
LINE
  8
0
 10
610.0
 20
534.0
 30
0.0
 11
550.0
 21
534.0
 31
0.0
  0
LINE
  8
0
 10
550.0
 20
534.0
 30
0.0
 11
550.0
 21
535.0
 31
0.0
  0
LINE
  8
0
 10
450.0
 20
534.0
 30
0.0
 11
474.0
 21
534.0
 31
0.0
  0
LINE
  8
0
 10
474.0
 20
534.0
 30
0.0
 11
474.0
 21
533.0
 31
0.0
  0
LINE
  8
0
 10
474.0
 20
533.0
 30
0.0
 11
450.0
 21
533.0
 31
0.0
  0
LINE
  8
0
 10
450.0
 20
533.0
 30
0.0
 11
450.0
 21
534.0
 31
0.0
  0
LINE
  8
0
 10
482.0
 20
534.0
 30
0.0
 11
493.0
 21
534.0
 31
0.0
  0
LINE
  8
0
 10
493.0
 20
534.0
 30
0.0
 11
493.0
 21
533.0
 31
0.0
  0
LINE
  8
0
 10
493.0
 20
533.0
 30
0.0
 11
482.0
 21
533.0
 31
0.0
  0
LINE
  8
0
 10
482.0
 20
533.0
 30
0.0
 11
482.0
 21
534.0
 31
0.0
  0
LINE
  8
0
 10
501.0
 20
534.0
 30
0.0
 11
514.0
 21
534.0
 31
0.0
  0
LINE
  8
0
 10
514.0
 20
534.0
 30
0.0
 11
514.0
 21
533.0
 31
0.0
  0
LINE
  8
0
 10
514.0
 20
533.0
 30
0.0
 11
501.0
 21
533.0
 31
0.0
  0
LINE
  8
0
 10
501.0
 20
533.0
 30
0.0
 11
501.0
 21
534.0
 31
0.0
  0
LINE
  8
0
 10
556.0
 20
534.0
 30
0.0
 11
608.0
 21
534.0
 31
0.0
  0
LINE
  8
0
 10
608.0
 20
534.0
 30
0.0
 11
608.0
 21
533.0
 31
0.0
  0
LINE
  8
0
 10
608.0
 20
533.0
 30
0.0
 11
556.0
 21
533.0
 31
0.0
  0
LINE
  8
0
 10
556.0
 20
533.0
 30
0.0
 11
556.0
 21
534.0
 31
0.0
  0
LINE
  8
0
 10
451.0
 20
533.0
 30
0.0
 11
475.0
 21
533.0
 31
0.0
  0
LINE
  8
0
 10
475.0
 20
533.0
 30
0.0
 11
475.0
 21
532.0
 31
0.0
  0
LINE
  8
0
 10
475.0
 20
532.0
 30
0.0
 11
451.0
 21
532.0
 31
0.0
  0
LINE
  8
0
 10
451.0
 20
532.0
 30
0.0
 11
451.0
 21
533.0
 31
0.0
  0
LINE
  8
0
 10
483.0
 20
533.0
 30
0.0
 11
492.0
 21
533.0
 31
0.0
  0
LINE
  8
0
 10
492.0
 20
533.0
 30
0.0
 11
492.0
 21
532.0
 31
0.0
  0
LINE
  8
0
 10
492.0
 20
532.0
 30
0.0
 11
483.0
 21
532.0
 31
0.0
  0
LINE
  8
0
 10
483.0
 20
532.0
 30
0.0
 11
483.0
 21
533.0
 31
0.0
  0
LINE
  8
0
 10
498.0
 20
533.0
 30
0.0
 11
512.0
 21
533.0
 31
0.0
  0
LINE
  8
0
 10
512.0
 20
533.0
 30
0.0
 11
512.0
 21
532.0
 31
0.0
  0
LINE
  8
0
 10
512.0
 20
532.0
 30
0.0
 11
498.0
 21
532.0
 31
0.0
  0
LINE
  8
0
 10
498.0
 20
532.0
 30
0.0
 11
498.0
 21
533.0
 31
0.0
  0
LINE
  8
0
 10
550.0
 20
533.0
 30
0.0
 11
551.0
 21
533.0
 31
0.0
  0
LINE
  8
0
 10
551.0
 20
533.0
 30
0.0
 11
551.0
 21
532.0
 31
0.0
  0
LINE
  8
0
 10
551.0
 20
532.0
 30
0.0
 11
550.0
 21
532.0
 31
0.0
  0
LINE
  8
0
 10
550.0
 20
532.0
 30
0.0
 11
550.0
 21
533.0
 31
0.0
  0
LINE
  8
0
 10
552.0
 20
533.0
 30
0.0
 11
555.0
 21
533.0
 31
0.0
  0
LINE
  8
0
 10
555.0
 20
533.0
 30
0.0
 11
555.0
 21
532.0
 31
0.0
  0
LINE
  8
0
 10
555.0
 20
532.0
 30
0.0
 11
552.0
 21
532.0
 31
0.0
  0
LINE
  8
0
 10
552.0
 20
532.0
 30
0.0
 11
552.0
 21
533.0
 31
0.0
  0
LINE
  8
0
 10
560.0
 20
533.0
 30
0.0
 11
605.0
 21
533.0
 31
0.0
  0
LINE
  8
0
 10
605.0
 20
533.0
 30
0.0
 11
605.0
 21
532.0
 31
0.0
  0
LINE
  8
0
 10
605.0
 20
532.0
 30
0.0
 11
560.0
 21
532.0
 31
0.0
  0
LINE
  8
0
 10
560.0
 20
532.0
 30
0.0
 11
560.0
 21
533.0
 31
0.0
  0
LINE
  8
0
 10
451.0
 20
532.0
 30
0.0
 11
476.0
 21
532.0
 31
0.0
  0
LINE
  8
0
 10
476.0
 20
532.0
 30
0.0
 11
476.0
 21
531.0
 31
0.0
  0
LINE
  8
0
 10
476.0
 20
531.0
 30
0.0
 11
451.0
 21
531.0
 31
0.0
  0
LINE
  8
0
 10
451.0
 20
531.0
 30
0.0
 11
451.0
 21
532.0
 31
0.0
  0
LINE
  8
0
 10
484.0
 20
532.0
 30
0.0
 11
510.0
 21
532.0
 31
0.0
  0
LINE
  8
0
 10
510.0
 20
532.0
 30
0.0
 11
510.0
 21
531.0
 31
0.0
  0
LINE
  8
0
 10
510.0
 20
531.0
 30
0.0
 11
484.0
 21
531.0
 31
0.0
  0
LINE
  8
0
 10
484.0
 20
531.0
 30
0.0
 11
484.0
 21
532.0
 31
0.0
  0
LINE
  8
0
 10
564.0
 20
532.0
 30
0.0
 11
600.0
 21
532.0
 31
0.0
  0
LINE
  8
0
 10
600.0
 20
532.0
 30
0.0
 11
600.0
 21
531.0
 31
0.0
  0
LINE
  8
0
 10
600.0
 20
531.0
 30
0.0
 11
564.0
 21
531.0
 31
0.0
  0
LINE
  8
0
 10
564.0
 20
531.0
 30
0.0
 11
564.0
 21
532.0
 31
0.0
  0
LINE
  8
0
 10
452.0
 20
531.0
 30
0.0
 11
476.0
 21
531.0
 31
0.0
  0
LINE
  8
0
 10
476.0
 20
531.0
 30
0.0
 11
476.0
 21
530.0
 31
0.0
  0
LINE
  8
0
 10
476.0
 20
530.0
 30
0.0
 11
452.0
 21
530.0
 31
0.0
  0
LINE
  8
0
 10
452.0
 20
530.0
 30
0.0
 11
452.0
 21
531.0
 31
0.0
  0
LINE
  8
0
 10
485.0
 20
531.0
 30
0.0
 11
507.0
 21
531.0
 31
0.0
  0
LINE
  8
0
 10
507.0
 20
531.0
 30
0.0
 11
507.0
 21
530.0
 31
0.0
  0
LINE
  8
0
 10
507.0
 20
530.0
 30
0.0
 11
485.0
 21
530.0
 31
0.0
  0
LINE
  8
0
 10
485.0
 20
530.0
 30
0.0
 11
485.0
 21
531.0
 31
0.0
  0
LINE
  8
0
 10
540.0
 20
531.0
 30
0.0
 11
553.0
 21
531.0
 31
0.0
  0
LINE
  8
0
 10
553.0
 20
531.0
 30
0.0
 11
553.0
 21
530.0
 31
0.0
  0
LINE
  8
0
 10
553.0
 20
530.0
 30
0.0
 11
540.0
 21
530.0
 31
0.0
  0
LINE
  8
0
 10
540.0
 20
530.0
 30
0.0
 11
540.0
 21
531.0
 31
0.0
  0
LINE
  8
0
 10
562.0
 20
531.0
 30
0.0
 11
563.0
 21
531.0
 31
0.0
  0
LINE
  8
0
 10
563.0
 20
531.0
 30
0.0
 11
563.0
 21
530.0
 31
0.0
  0
LINE
  8
0
 10
563.0
 20
530.0
 30
0.0
 11
562.0
 21
530.0
 31
0.0
  0
LINE
  8
0
 10
562.0
 20
530.0
 30
0.0
 11
562.0
 21
531.0
 31
0.0
  0
LINE
  8
0
 10
568.0
 20
531.0
 30
0.0
 11
594.0
 21
531.0
 31
0.0
  0
LINE
  8
0
 10
594.0
 20
531.0
 30
0.0
 11
594.0
 21
530.0
 31
0.0
  0
LINE
  8
0
 10
594.0
 20
530.0
 30
0.0
 11
568.0
 21
530.0
 31
0.0
  0
LINE
  8
0
 10
568.0
 20
530.0
 30
0.0
 11
568.0
 21
531.0
 31
0.0
  0
LINE
  8
0
 10
452.0
 20
530.0
 30
0.0
 11
475.0
 21
530.0
 31
0.0
  0
LINE
  8
0
 10
475.0
 20
530.0
 30
0.0
 11
475.0
 21
529.0
 31
0.0
  0
LINE
  8
0
 10
475.0
 20
529.0
 30
0.0
 11
452.0
 21
529.0
 31
0.0
  0
LINE
  8
0
 10
452.0
 20
529.0
 30
0.0
 11
452.0
 21
530.0
 31
0.0
  0
LINE
  8
0
 10
487.0
 20
530.0
 30
0.0
 11
505.0
 21
530.0
 31
0.0
  0
LINE
  8
0
 10
505.0
 20
530.0
 30
0.0
 11
505.0
 21
529.0
 31
0.0
  0
LINE
  8
0
 10
505.0
 20
529.0
 30
0.0
 11
487.0
 21
529.0
 31
0.0
  0
LINE
  8
0
 10
487.0
 20
529.0
 30
0.0
 11
487.0
 21
530.0
 31
0.0
  0
LINE
  8
0
 10
541.0
 20
530.0
 30
0.0
 11
561.0
 21
530.0
 31
0.0
  0
LINE
  8
0
 10
561.0
 20
530.0
 30
0.0
 11
561.0
 21
529.0
 31
0.0
  0
LINE
  8
0
 10
561.0
 20
529.0
 30
0.0
 11
541.0
 21
529.0
 31
0.0
  0
LINE
  8
0
 10
541.0
 20
529.0
 30
0.0
 11
541.0
 21
530.0
 31
0.0
  0
LINE
  8
0
 10
573.0
 20
530.0
 30
0.0
 11
597.0
 21
530.0
 31
0.0
  0
LINE
  8
0
 10
597.0
 20
530.0
 30
0.0
 11
597.0
 21
529.0
 31
0.0
  0
LINE
  8
0
 10
597.0
 20
529.0
 30
0.0
 11
573.0
 21
529.0
 31
0.0
  0
LINE
  8
0
 10
573.0
 20
529.0
 30
0.0
 11
573.0
 21
530.0
 31
0.0
  0
LINE
  8
0
 10
452.0
 20
529.0
 30
0.0
 11
472.0
 21
529.0
 31
0.0
  0
LINE
  8
0
 10
472.0
 20
529.0
 30
0.0
 11
472.0
 21
528.0
 31
0.0
  0
LINE
  8
0
 10
472.0
 20
528.0
 30
0.0
 11
452.0
 21
528.0
 31
0.0
  0
LINE
  8
0
 10
452.0
 20
528.0
 30
0.0
 11
452.0
 21
529.0
 31
0.0
  0
LINE
  8
0
 10
490.0
 20
529.0
 30
0.0
 11
503.0
 21
529.0
 31
0.0
  0
LINE
  8
0
 10
503.0
 20
529.0
 30
0.0
 11
503.0
 21
528.0
 31
0.0
  0
LINE
  8
0
 10
503.0
 20
528.0
 30
0.0
 11
490.0
 21
528.0
 31
0.0
  0
LINE
  8
0
 10
490.0
 20
528.0
 30
0.0
 11
490.0
 21
529.0
 31
0.0
  0
LINE
  8
0
 10
544.0
 20
529.0
 30
0.0
 11
573.0
 21
529.0
 31
0.0
  0
LINE
  8
0
 10
573.0
 20
529.0
 30
0.0
 11
573.0
 21
528.0
 31
0.0
  0
LINE
  8
0
 10
573.0
 20
528.0
 30
0.0
 11
544.0
 21
528.0
 31
0.0
  0
LINE
  8
0
 10
544.0
 20
528.0
 30
0.0
 11
544.0
 21
529.0
 31
0.0
  0
LINE
  8
0
 10
576.0
 20
529.0
 30
0.0
 11
599.0
 21
529.0
 31
0.0
  0
LINE
  8
0
 10
599.0
 20
529.0
 30
0.0
 11
599.0
 21
528.0
 31
0.0
  0
LINE
  8
0
 10
599.0
 20
528.0
 30
0.0
 11
576.0
 21
528.0
 31
0.0
  0
LINE
  8
0
 10
576.0
 20
528.0
 30
0.0
 11
576.0
 21
529.0
 31
0.0
  0
LINE
  8
0
 10
453.0
 20
528.0
 30
0.0
 11
470.0
 21
528.0
 31
0.0
  0
LINE
  8
0
 10
470.0
 20
528.0
 30
0.0
 11
470.0
 21
527.0
 31
0.0
  0
LINE
  8
0
 10
470.0
 20
527.0
 30
0.0
 11
453.0
 21
527.0
 31
0.0
  0
LINE
  8
0
 10
453.0
 20
527.0
 30
0.0
 11
453.0
 21
528.0
 31
0.0
  0
LINE
  8
0
 10
489.0
 20
528.0
 30
0.0
 11
501.0
 21
528.0
 31
0.0
  0
LINE
  8
0
 10
501.0
 20
528.0
 30
0.0
 11
501.0
 21
527.0
 31
0.0
  0
LINE
  8
0
 10
501.0
 20
527.0
 30
0.0
 11
489.0
 21
527.0
 31
0.0
  0
LINE
  8
0
 10
489.0
 20
527.0
 30
0.0
 11
489.0
 21
528.0
 31
0.0
  0
LINE
  8
0
 10
547.0
 20
528.0
 30
0.0
 11
600.0
 21
528.0
 31
0.0
  0
LINE
  8
0
 10
600.0
 20
528.0
 30
0.0
 11
600.0
 21
527.0
 31
0.0
  0
LINE
  8
0
 10
600.0
 20
527.0
 30
0.0
 11
547.0
 21
527.0
 31
0.0
  0
LINE
  8
0
 10
547.0
 20
527.0
 30
0.0
 11
547.0
 21
528.0
 31
0.0
  0
LINE
  8
0
 10
453.0
 20
527.0
 30
0.0
 11
468.0
 21
527.0
 31
0.0
  0
LINE
  8
0
 10
468.0
 20
527.0
 30
0.0
 11
468.0
 21
526.0
 31
0.0
  0
LINE
  8
0
 10
468.0
 20
526.0
 30
0.0
 11
453.0
 21
526.0
 31
0.0
  0
LINE
  8
0
 10
453.0
 20
526.0
 30
0.0
 11
453.0
 21
527.0
 31
0.0
  0
LINE
  8
0
 10
487.0
 20
527.0
 30
0.0
 11
499.0
 21
527.0
 31
0.0
  0
LINE
  8
0
 10
499.0
 20
527.0
 30
0.0
 11
499.0
 21
526.0
 31
0.0
  0
LINE
  8
0
 10
499.0
 20
526.0
 30
0.0
 11
487.0
 21
526.0
 31
0.0
  0
LINE
  8
0
 10
487.0
 20
526.0
 30
0.0
 11
487.0
 21
527.0
 31
0.0
  0
LINE
  8
0
 10
532.0
 20
527.0
 30
0.0
 11
535.0
 21
527.0
 31
0.0
  0
LINE
  8
0
 10
535.0
 20
527.0
 30
0.0
 11
535.0
 21
526.0
 31
0.0
  0
LINE
  8
0
 10
535.0
 20
526.0
 30
0.0
 11
532.0
 21
526.0
 31
0.0
  0
LINE
  8
0
 10
532.0
 20
526.0
 30
0.0
 11
532.0
 21
527.0
 31
0.0
  0
LINE
  8
0
 10
544.0
 20
527.0
 30
0.0
 11
546.0
 21
527.0
 31
0.0
  0
LINE
  8
0
 10
546.0
 20
527.0
 30
0.0
 11
546.0
 21
526.0
 31
0.0
  0
LINE
  8
0
 10
546.0
 20
526.0
 30
0.0
 11
544.0
 21
526.0
 31
0.0
  0
LINE
  8
0
 10
544.0
 20
526.0
 30
0.0
 11
544.0
 21
527.0
 31
0.0
  0
LINE
  8
0
 10
550.0
 20
527.0
 30
0.0
 11
600.0
 21
527.0
 31
0.0
  0
LINE
  8
0
 10
600.0
 20
527.0
 30
0.0
 11
600.0
 21
526.0
 31
0.0
  0
LINE
  8
0
 10
600.0
 20
526.0
 30
0.0
 11
550.0
 21
526.0
 31
0.0
  0
LINE
  8
0
 10
550.0
 20
526.0
 30
0.0
 11
550.0
 21
527.0
 31
0.0
  0
LINE
  8
0
 10
454.0
 20
526.0
 30
0.0
 11
467.0
 21
526.0
 31
0.0
  0
LINE
  8
0
 10
467.0
 20
526.0
 30
0.0
 11
467.0
 21
525.0
 31
0.0
  0
LINE
  8
0
 10
467.0
 20
525.0
 30
0.0
 11
454.0
 21
525.0
 31
0.0
  0
LINE
  8
0
 10
454.0
 20
525.0
 30
0.0
 11
454.0
 21
526.0
 31
0.0
  0
LINE
  8
0
 10
485.0
 20
526.0
 30
0.0
 11
497.0
 21
526.0
 31
0.0
  0
LINE
  8
0
 10
497.0
 20
526.0
 30
0.0
 11
497.0
 21
525.0
 31
0.0
  0
LINE
  8
0
 10
497.0
 20
525.0
 30
0.0
 11
485.0
 21
525.0
 31
0.0
  0
LINE
  8
0
 10
485.0
 20
525.0
 30
0.0
 11
485.0
 21
526.0
 31
0.0
  0
LINE
  8
0
 10
532.0
 20
526.0
 30
0.0
 11
540.0
 21
526.0
 31
0.0
  0
LINE
  8
0
 10
540.0
 20
526.0
 30
0.0
 11
540.0
 21
525.0
 31
0.0
  0
LINE
  8
0
 10
540.0
 20
525.0
 30
0.0
 11
532.0
 21
525.0
 31
0.0
  0
LINE
  8
0
 10
532.0
 20
525.0
 30
0.0
 11
532.0
 21
526.0
 31
0.0
  0
LINE
  8
0
 10
552.0
 20
526.0
 30
0.0
 11
598.0
 21
526.0
 31
0.0
  0
LINE
  8
0
 10
598.0
 20
526.0
 30
0.0
 11
598.0
 21
525.0
 31
0.0
  0
LINE
  8
0
 10
598.0
 20
525.0
 30
0.0
 11
552.0
 21
525.0
 31
0.0
  0
LINE
  8
0
 10
552.0
 20
525.0
 30
0.0
 11
552.0
 21
526.0
 31
0.0
  0
LINE
  8
0
 10
454.0
 20
525.0
 30
0.0
 11
467.0
 21
525.0
 31
0.0
  0
LINE
  8
0
 10
467.0
 20
525.0
 30
0.0
 11
467.0
 21
524.0
 31
0.0
  0
LINE
  8
0
 10
467.0
 20
524.0
 30
0.0
 11
454.0
 21
524.0
 31
0.0
  0
LINE
  8
0
 10
454.0
 20
524.0
 30
0.0
 11
454.0
 21
525.0
 31
0.0
  0
LINE
  8
0
 10
485.0
 20
525.0
 30
0.0
 11
494.0
 21
525.0
 31
0.0
  0
LINE
  8
0
 10
494.0
 20
525.0
 30
0.0
 11
494.0
 21
524.0
 31
0.0
  0
LINE
  8
0
 10
494.0
 20
524.0
 30
0.0
 11
485.0
 21
524.0
 31
0.0
  0
LINE
  8
0
 10
485.0
 20
524.0
 30
0.0
 11
485.0
 21
525.0
 31
0.0
  0
LINE
  8
0
 10
534.0
 20
525.0
 30
0.0
 11
545.0
 21
525.0
 31
0.0
  0
LINE
  8
0
 10
545.0
 20
525.0
 30
0.0
 11
545.0
 21
524.0
 31
0.0
  0
LINE
  8
0
 10
545.0
 20
524.0
 30
0.0
 11
534.0
 21
524.0
 31
0.0
  0
LINE
  8
0
 10
534.0
 20
524.0
 30
0.0
 11
534.0
 21
525.0
 31
0.0
  0
LINE
  8
0
 10
551.0
 20
525.0
 30
0.0
 11
552.0
 21
525.0
 31
0.0
  0
LINE
  8
0
 10
552.0
 20
525.0
 30
0.0
 11
552.0
 21
524.0
 31
0.0
  0
LINE
  8
0
 10
552.0
 20
524.0
 30
0.0
 11
551.0
 21
524.0
 31
0.0
  0
LINE
  8
0
 10
551.0
 20
524.0
 30
0.0
 11
551.0
 21
525.0
 31
0.0
  0
LINE
  8
0
 10
556.0
 20
525.0
 30
0.0
 11
594.0
 21
525.0
 31
0.0
  0
LINE
  8
0
 10
594.0
 20
525.0
 30
0.0
 11
594.0
 21
524.0
 31
0.0
  0
LINE
  8
0
 10
594.0
 20
524.0
 30
0.0
 11
556.0
 21
524.0
 31
0.0
  0
LINE
  8
0
 10
556.0
 20
524.0
 30
0.0
 11
556.0
 21
525.0
 31
0.0
  0
LINE
  8
0
 10
455.0
 20
524.0
 30
0.0
 11
466.0
 21
524.0
 31
0.0
  0
LINE
  8
0
 10
466.0
 20
524.0
 30
0.0
 11
466.0
 21
523.0
 31
0.0
  0
LINE
  8
0
 10
466.0
 20
523.0
 30
0.0
 11
455.0
 21
523.0
 31
0.0
  0
LINE
  8
0
 10
455.0
 20
523.0
 30
0.0
 11
455.0
 21
524.0
 31
0.0
  0
LINE
  8
0
 10
486.0
 20
524.0
 30
0.0
 11
492.0
 21
524.0
 31
0.0
  0
LINE
  8
0
 10
492.0
 20
524.0
 30
0.0
 11
492.0
 21
523.0
 31
0.0
  0
LINE
  8
0
 10
492.0
 20
523.0
 30
0.0
 11
486.0
 21
523.0
 31
0.0
  0
LINE
  8
0
 10
486.0
 20
523.0
 30
0.0
 11
486.0
 21
524.0
 31
0.0
  0
LINE
  8
0
 10
536.0
 20
524.0
 30
0.0
 11
550.0
 21
524.0
 31
0.0
  0
LINE
  8
0
 10
550.0
 20
524.0
 30
0.0
 11
550.0
 21
523.0
 31
0.0
  0
LINE
  8
0
 10
550.0
 20
523.0
 30
0.0
 11
536.0
 21
523.0
 31
0.0
  0
LINE
  8
0
 10
536.0
 20
523.0
 30
0.0
 11
536.0
 21
524.0
 31
0.0
  0
LINE
  8
0
 10
559.0
 20
524.0
 30
0.0
 11
591.0
 21
524.0
 31
0.0
  0
LINE
  8
0
 10
591.0
 20
524.0
 30
0.0
 11
591.0
 21
523.0
 31
0.0
  0
LINE
  8
0
 10
591.0
 20
523.0
 30
0.0
 11
559.0
 21
523.0
 31
0.0
  0
LINE
  8
0
 10
559.0
 20
523.0
 30
0.0
 11
559.0
 21
524.0
 31
0.0
  0
LINE
  8
0
 10
455.0
 20
523.0
 30
0.0
 11
466.0
 21
523.0
 31
0.0
  0
LINE
  8
0
 10
466.0
 20
523.0
 30
0.0
 11
466.0
 21
522.0
 31
0.0
  0
LINE
  8
0
 10
466.0
 20
522.0
 30
0.0
 11
455.0
 21
522.0
 31
0.0
  0
LINE
  8
0
 10
455.0
 20
522.0
 30
0.0
 11
455.0
 21
523.0
 31
0.0
  0
LINE
  8
0
 10
538.0
 20
523.0
 30
0.0
 11
556.0
 21
523.0
 31
0.0
  0
LINE
  8
0
 10
556.0
 20
523.0
 30
0.0
 11
556.0
 21
522.0
 31
0.0
  0
LINE
  8
0
 10
556.0
 20
522.0
 30
0.0
 11
538.0
 21
522.0
 31
0.0
  0
LINE
  8
0
 10
538.0
 20
522.0
 30
0.0
 11
538.0
 21
523.0
 31
0.0
  0
LINE
  8
0
 10
561.0
 20
523.0
 30
0.0
 11
580.0
 21
523.0
 31
0.0
  0
LINE
  8
0
 10
580.0
 20
523.0
 30
0.0
 11
580.0
 21
522.0
 31
0.0
  0
LINE
  8
0
 10
580.0
 20
522.0
 30
0.0
 11
561.0
 21
522.0
 31
0.0
  0
LINE
  8
0
 10
561.0
 20
522.0
 30
0.0
 11
561.0
 21
523.0
 31
0.0
  0
LINE
  8
0
 10
455.0
 20
522.0
 30
0.0
 11
465.0
 21
522.0
 31
0.0
  0
LINE
  8
0
 10
465.0
 20
522.0
 30
0.0
 11
465.0
 21
521.0
 31
0.0
  0
LINE
  8
0
 10
465.0
 20
521.0
 30
0.0
 11
455.0
 21
521.0
 31
0.0
  0
LINE
  8
0
 10
455.0
 20
521.0
 30
0.0
 11
455.0
 21
522.0
 31
0.0
  0
LINE
  8
0
 10
525.0
 20
522.0
 30
0.0
 11
529.0
 21
522.0
 31
0.0
  0
LINE
  8
0
 10
529.0
 20
522.0
 30
0.0
 11
529.0
 21
521.0
 31
0.0
  0
LINE
  8
0
 10
529.0
 20
521.0
 30
0.0
 11
525.0
 21
521.0
 31
0.0
  0
LINE
  8
0
 10
525.0
 20
521.0
 30
0.0
 11
525.0
 21
522.0
 31
0.0
  0
LINE
  8
0
 10
540.0
 20
522.0
 30
0.0
 11
581.0
 21
522.0
 31
0.0
  0
LINE
  8
0
 10
581.0
 20
522.0
 30
0.0
 11
581.0
 21
521.0
 31
0.0
  0
LINE
  8
0
 10
581.0
 20
521.0
 30
0.0
 11
540.0
 21
521.0
 31
0.0
  0
LINE
  8
0
 10
540.0
 20
521.0
 30
0.0
 11
540.0
 21
522.0
 31
0.0
  0
LINE
  8
0
 10
455.0
 20
521.0
 30
0.0
 11
465.0
 21
521.0
 31
0.0
  0
LINE
  8
0
 10
465.0
 20
521.0
 30
0.0
 11
465.0
 21
520.0
 31
0.0
  0
LINE
  8
0
 10
465.0
 20
520.0
 30
0.0
 11
455.0
 21
520.0
 31
0.0
  0
LINE
  8
0
 10
455.0
 20
520.0
 30
0.0
 11
455.0
 21
521.0
 31
0.0
  0
LINE
  8
0
 10
525.0
 20
521.0
 30
0.0
 11
532.0
 21
521.0
 31
0.0
  0
LINE
  8
0
 10
532.0
 20
521.0
 30
0.0
 11
532.0
 21
520.0
 31
0.0
  0
LINE
  8
0
 10
532.0
 20
520.0
 30
0.0
 11
525.0
 21
520.0
 31
0.0
  0
LINE
  8
0
 10
525.0
 20
520.0
 30
0.0
 11
525.0
 21
521.0
 31
0.0
  0
LINE
  8
0
 10
538.0
 20
521.0
 30
0.0
 11
539.0
 21
521.0
 31
0.0
  0
LINE
  8
0
 10
539.0
 20
521.0
 30
0.0
 11
539.0
 21
520.0
 31
0.0
  0
LINE
  8
0
 10
539.0
 20
520.0
 30
0.0
 11
538.0
 21
520.0
 31
0.0
  0
LINE
  8
0
 10
538.0
 20
520.0
 30
0.0
 11
538.0
 21
521.0
 31
0.0
  0
LINE
  8
0
 10
542.0
 20
521.0
 30
0.0
 11
582.0
 21
521.0
 31
0.0
  0
LINE
  8
0
 10
582.0
 20
521.0
 30
0.0
 11
582.0
 21
520.0
 31
0.0
  0
LINE
  8
0
 10
582.0
 20
520.0
 30
0.0
 11
542.0
 21
520.0
 31
0.0
  0
LINE
  8
0
 10
542.0
 20
520.0
 30
0.0
 11
542.0
 21
521.0
 31
0.0
  0
LINE
  8
0
 10
456.0
 20
520.0
 30
0.0
 11
465.0
 21
520.0
 31
0.0
  0
LINE
  8
0
 10
465.0
 20
520.0
 30
0.0
 11
465.0
 21
519.0
 31
0.0
  0
LINE
  8
0
 10
465.0
 20
519.0
 30
0.0
 11
456.0
 21
519.0
 31
0.0
  0
LINE
  8
0
 10
456.0
 20
519.0
 30
0.0
 11
456.0
 21
520.0
 31
0.0
  0
LINE
  8
0
 10
527.0
 20
520.0
 30
0.0
 11
536.0
 21
520.0
 31
0.0
  0
LINE
  8
0
 10
536.0
 20
520.0
 30
0.0
 11
536.0
 21
519.0
 31
0.0
  0
LINE
  8
0
 10
536.0
 20
519.0
 30
0.0
 11
527.0
 21
519.0
 31
0.0
  0
LINE
  8
0
 10
527.0
 20
519.0
 30
0.0
 11
527.0
 21
520.0
 31
0.0
  0
LINE
  8
0
 10
543.0
 20
520.0
 30
0.0
 11
583.0
 21
520.0
 31
0.0
  0
LINE
  8
0
 10
583.0
 20
520.0
 30
0.0
 11
583.0
 21
519.0
 31
0.0
  0
LINE
  8
0
 10
583.0
 20
519.0
 30
0.0
 11
543.0
 21
519.0
 31
0.0
  0
LINE
  8
0
 10
543.0
 20
519.0
 30
0.0
 11
543.0
 21
520.0
 31
0.0
  0
LINE
  8
0
 10
456.0
 20
519.0
 30
0.0
 11
465.0
 21
519.0
 31
0.0
  0
LINE
  8
0
 10
465.0
 20
519.0
 30
0.0
 11
465.0
 21
518.0
 31
0.0
  0
LINE
  8
0
 10
465.0
 20
518.0
 30
0.0
 11
456.0
 21
518.0
 31
0.0
  0
LINE
  8
0
 10
456.0
 20
518.0
 30
0.0
 11
456.0
 21
519.0
 31
0.0
  0
LINE
  8
0
 10
517.0
 20
519.0
 30
0.0
 11
520.0
 21
519.0
 31
0.0
  0
LINE
  8
0
 10
520.0
 20
519.0
 30
0.0
 11
520.0
 21
518.0
 31
0.0
  0
LINE
  8
0
 10
520.0
 20
518.0
 30
0.0
 11
517.0
 21
518.0
 31
0.0
  0
LINE
  8
0
 10
517.0
 20
518.0
 30
0.0
 11
517.0
 21
519.0
 31
0.0
  0
LINE
  8
0
 10
528.0
 20
519.0
 30
0.0
 11
540.0
 21
519.0
 31
0.0
  0
LINE
  8
0
 10
540.0
 20
519.0
 30
0.0
 11
540.0
 21
518.0
 31
0.0
  0
LINE
  8
0
 10
540.0
 20
518.0
 30
0.0
 11
528.0
 21
518.0
 31
0.0
  0
LINE
  8
0
 10
528.0
 20
518.0
 30
0.0
 11
528.0
 21
519.0
 31
0.0
  0
LINE
  8
0
 10
546.0
 20
519.0
 30
0.0
 11
582.0
 21
519.0
 31
0.0
  0
LINE
  8
0
 10
582.0
 20
519.0
 30
0.0
 11
582.0
 21
518.0
 31
0.0
  0
LINE
  8
0
 10
582.0
 20
518.0
 30
0.0
 11
546.0
 21
518.0
 31
0.0
  0
LINE
  8
0
 10
546.0
 20
518.0
 30
0.0
 11
546.0
 21
519.0
 31
0.0
  0
LINE
  8
0
 10
457.0
 20
518.0
 30
0.0
 11
465.0
 21
518.0
 31
0.0
  0
LINE
  8
0
 10
465.0
 20
518.0
 30
0.0
 11
465.0
 21
517.0
 31
0.0
  0
LINE
  8
0
 10
465.0
 20
517.0
 30
0.0
 11
457.0
 21
517.0
 31
0.0
  0
LINE
  8
0
 10
457.0
 20
517.0
 30
0.0
 11
457.0
 21
518.0
 31
0.0
  0
LINE
  8
0
 10
517.0
 20
518.0
 30
0.0
 11
522.0
 21
518.0
 31
0.0
  0
LINE
  8
0
 10
522.0
 20
518.0
 30
0.0
 11
522.0
 21
517.0
 31
0.0
  0
LINE
  8
0
 10
522.0
 20
517.0
 30
0.0
 11
517.0
 21
517.0
 31
0.0
  0
LINE
  8
0
 10
517.0
 20
517.0
 30
0.0
 11
517.0
 21
518.0
 31
0.0
  0
LINE
  8
0
 10
529.0
 20
518.0
 30
0.0
 11
545.0
 21
518.0
 31
0.0
  0
LINE
  8
0
 10
545.0
 20
518.0
 30
0.0
 11
545.0
 21
517.0
 31
0.0
  0
LINE
  8
0
 10
545.0
 20
517.0
 30
0.0
 11
529.0
 21
517.0
 31
0.0
  0
LINE
  8
0
 10
529.0
 20
517.0
 30
0.0
 11
529.0
 21
518.0
 31
0.0
  0
LINE
  8
0
 10
548.0
 20
518.0
 30
0.0
 11
579.0
 21
518.0
 31
0.0
  0
LINE
  8
0
 10
579.0
 20
518.0
 30
0.0
 11
579.0
 21
517.0
 31
0.0
  0
LINE
  8
0
 10
579.0
 20
517.0
 30
0.0
 11
548.0
 21
517.0
 31
0.0
  0
LINE
  8
0
 10
548.0
 20
517.0
 30
0.0
 11
548.0
 21
518.0
 31
0.0
  0
LINE
  8
0
 10
457.0
 20
517.0
 30
0.0
 11
465.0
 21
517.0
 31
0.0
  0
LINE
  8
0
 10
465.0
 20
517.0
 30
0.0
 11
465.0
 21
516.0
 31
0.0
  0
LINE
  8
0
 10
465.0
 20
516.0
 30
0.0
 11
457.0
 21
516.0
 31
0.0
  0
LINE
  8
0
 10
457.0
 20
516.0
 30
0.0
 11
457.0
 21
517.0
 31
0.0
  0
LINE
  8
0
 10
518.0
 20
517.0
 30
0.0
 11
524.0
 21
517.0
 31
0.0
  0
LINE
  8
0
 10
524.0
 20
517.0
 30
0.0
 11
524.0
 21
516.0
 31
0.0
  0
LINE
  8
0
 10
524.0
 20
516.0
 30
0.0
 11
518.0
 21
516.0
 31
0.0
  0
LINE
  8
0
 10
518.0
 20
516.0
 30
0.0
 11
518.0
 21
517.0
 31
0.0
  0
LINE
  8
0
 10
528.0
 20
517.0
 30
0.0
 11
529.0
 21
517.0
 31
0.0
  0
LINE
  8
0
 10
529.0
 20
517.0
 30
0.0
 11
529.0
 21
516.0
 31
0.0
  0
LINE
  8
0
 10
529.0
 20
516.0
 30
0.0
 11
528.0
 21
516.0
 31
0.0
  0
LINE
  8
0
 10
528.0
 20
516.0
 30
0.0
 11
528.0
 21
517.0
 31
0.0
  0
LINE
  8
0
 10
531.0
 20
517.0
 30
0.0
 11
564.0
 21
517.0
 31
0.0
  0
LINE
  8
0
 10
564.0
 20
517.0
 30
0.0
 11
564.0
 21
516.0
 31
0.0
  0
LINE
  8
0
 10
564.0
 20
516.0
 30
0.0
 11
531.0
 21
516.0
 31
0.0
  0
LINE
  8
0
 10
531.0
 20
516.0
 30
0.0
 11
531.0
 21
517.0
 31
0.0
  0
LINE
  8
0
 10
457.0
 20
516.0
 30
0.0
 11
465.0
 21
516.0
 31
0.0
  0
LINE
  8
0
 10
465.0
 20
516.0
 30
0.0
 11
465.0
 21
515.0
 31
0.0
  0
LINE
  8
0
 10
465.0
 20
515.0
 30
0.0
 11
457.0
 21
515.0
 31
0.0
  0
LINE
  8
0
 10
457.0
 20
515.0
 30
0.0
 11
457.0
 21
516.0
 31
0.0
  0
LINE
  8
0
 10
511.0
 20
516.0
 30
0.0
 11
512.0
 21
516.0
 31
0.0
  0
LINE
  8
0
 10
512.0
 20
516.0
 30
0.0
 11
512.0
 21
515.0
 31
0.0
  0
LINE
  8
0
 10
512.0
 20
515.0
 30
0.0
 11
511.0
 21
515.0
 31
0.0
  0
LINE
  8
0
 10
511.0
 20
515.0
 30
0.0
 11
511.0
 21
516.0
 31
0.0
  0
LINE
  8
0
 10
519.0
 20
516.0
 30
0.0
 11
527.0
 21
516.0
 31
0.0
  0
LINE
  8
0
 10
527.0
 20
516.0
 30
0.0
 11
527.0
 21
515.0
 31
0.0
  0
LINE
  8
0
 10
527.0
 20
515.0
 30
0.0
 11
519.0
 21
515.0
 31
0.0
  0
LINE
  8
0
 10
519.0
 20
515.0
 30
0.0
 11
519.0
 21
516.0
 31
0.0
  0
LINE
  8
0
 10
532.0
 20
516.0
 30
0.0
 11
565.0
 21
516.0
 31
0.0
  0
LINE
  8
0
 10
565.0
 20
516.0
 30
0.0
 11
565.0
 21
515.0
 31
0.0
  0
LINE
  8
0
 10
565.0
 20
515.0
 30
0.0
 11
532.0
 21
515.0
 31
0.0
  0
LINE
  8
0
 10
532.0
 20
515.0
 30
0.0
 11
532.0
 21
516.0
 31
0.0
  0
LINE
  8
0
 10
457.0
 20
515.0
 30
0.0
 11
465.0
 21
515.0
 31
0.0
  0
LINE
  8
0
 10
465.0
 20
515.0
 30
0.0
 11
465.0
 21
514.0
 31
0.0
  0
LINE
  8
0
 10
465.0
 20
514.0
 30
0.0
 11
457.0
 21
514.0
 31
0.0
  0
LINE
  8
0
 10
457.0
 20
514.0
 30
0.0
 11
457.0
 21
515.0
 31
0.0
  0
LINE
  8
0
 10
510.0
 20
515.0
 30
0.0
 11
514.0
 21
515.0
 31
0.0
  0
LINE
  8
0
 10
514.0
 20
515.0
 30
0.0
 11
514.0
 21
514.0
 31
0.0
  0
LINE
  8
0
 10
514.0
 20
514.0
 30
0.0
 11
510.0
 21
514.0
 31
0.0
  0
LINE
  8
0
 10
510.0
 20
514.0
 30
0.0
 11
510.0
 21
515.0
 31
0.0
  0
LINE
  8
0
 10
520.0
 20
515.0
 30
0.0
 11
530.0
 21
515.0
 31
0.0
  0
LINE
  8
0
 10
530.0
 20
515.0
 30
0.0
 11
530.0
 21
514.0
 31
0.0
  0
LINE
  8
0
 10
530.0
 20
514.0
 30
0.0
 11
520.0
 21
514.0
 31
0.0
  0
LINE
  8
0
 10
520.0
 20
514.0
 30
0.0
 11
520.0
 21
515.0
 31
0.0
  0
LINE
  8
0
 10
534.0
 20
515.0
 30
0.0
 11
567.0
 21
515.0
 31
0.0
  0
LINE
  8
0
 10
567.0
 20
515.0
 30
0.0
 11
567.0
 21
514.0
 31
0.0
  0
LINE
  8
0
 10
567.0
 20
514.0
 30
0.0
 11
534.0
 21
514.0
 31
0.0
  0
LINE
  8
0
 10
534.0
 20
514.0
 30
0.0
 11
534.0
 21
515.0
 31
0.0
  0
LINE
  8
0
 10
458.0
 20
514.0
 30
0.0
 11
465.0
 21
514.0
 31
0.0
  0
LINE
  8
0
 10
465.0
 20
514.0
 30
0.0
 11
465.0
 21
513.0
 31
0.0
  0
LINE
  8
0
 10
465.0
 20
513.0
 30
0.0
 11
458.0
 21
513.0
 31
0.0
  0
LINE
  8
0
 10
458.0
 20
513.0
 30
0.0
 11
458.0
 21
514.0
 31
0.0
  0
LINE
  8
0
 10
511.0
 20
514.0
 30
0.0
 11
515.0
 21
514.0
 31
0.0
  0
LINE
  8
0
 10
515.0
 20
514.0
 30
0.0
 11
515.0
 21
513.0
 31
0.0
  0
LINE
  8
0
 10
515.0
 20
513.0
 30
0.0
 11
511.0
 21
513.0
 31
0.0
  0
LINE
  8
0
 10
511.0
 20
513.0
 30
0.0
 11
511.0
 21
514.0
 31
0.0
  0
LINE
  8
0
 10
521.0
 20
514.0
 30
0.0
 11
534.0
 21
514.0
 31
0.0
  0
LINE
  8
0
 10
534.0
 20
514.0
 30
0.0
 11
534.0
 21
513.0
 31
0.0
  0
LINE
  8
0
 10
534.0
 20
513.0
 30
0.0
 11
521.0
 21
513.0
 31
0.0
  0
LINE
  8
0
 10
521.0
 20
513.0
 30
0.0
 11
521.0
 21
514.0
 31
0.0
  0
LINE
  8
0
 10
536.0
 20
514.0
 30
0.0
 11
567.0
 21
514.0
 31
0.0
  0
LINE
  8
0
 10
567.0
 20
514.0
 30
0.0
 11
567.0
 21
513.0
 31
0.0
  0
LINE
  8
0
 10
567.0
 20
513.0
 30
0.0
 11
536.0
 21
513.0
 31
0.0
  0
LINE
  8
0
 10
536.0
 20
513.0
 30
0.0
 11
536.0
 21
514.0
 31
0.0
  0
LINE
  8
0
 10
458.0
 20
513.0
 30
0.0
 11
465.0
 21
513.0
 31
0.0
  0
LINE
  8
0
 10
465.0
 20
513.0
 30
0.0
 11
465.0
 21
512.0
 31
0.0
  0
LINE
  8
0
 10
465.0
 20
512.0
 30
0.0
 11
458.0
 21
512.0
 31
0.0
  0
LINE
  8
0
 10
458.0
 20
512.0
 30
0.0
 11
458.0
 21
513.0
 31
0.0
  0
LINE
  8
0
 10
503.0
 20
513.0
 30
0.0
 11
505.0
 21
513.0
 31
0.0
  0
LINE
  8
0
 10
505.0
 20
513.0
 30
0.0
 11
505.0
 21
512.0
 31
0.0
  0
LINE
  8
0
 10
505.0
 20
512.0
 30
0.0
 11
503.0
 21
512.0
 31
0.0
  0
LINE
  8
0
 10
503.0
 20
512.0
 30
0.0
 11
503.0
 21
513.0
 31
0.0
  0
LINE
  8
0
 10
511.0
 20
513.0
 30
0.0
 11
517.0
 21
513.0
 31
0.0
  0
LINE
  8
0
 10
517.0
 20
513.0
 30
0.0
 11
517.0
 21
512.0
 31
0.0
  0
LINE
  8
0
 10
517.0
 20
512.0
 30
0.0
 11
511.0
 21
512.0
 31
0.0
  0
LINE
  8
0
 10
511.0
 20
512.0
 30
0.0
 11
511.0
 21
513.0
 31
0.0
  0
LINE
  8
0
 10
520.0
 20
513.0
 30
0.0
 11
521.0
 21
513.0
 31
0.0
  0
LINE
  8
0
 10
521.0
 20
513.0
 30
0.0
 11
521.0
 21
512.0
 31
0.0
  0
LINE
  8
0
 10
521.0
 20
512.0
 30
0.0
 11
520.0
 21
512.0
 31
0.0
  0
LINE
  8
0
 10
520.0
 20
512.0
 30
0.0
 11
520.0
 21
513.0
 31
0.0
  0
LINE
  8
0
 10
522.0
 20
513.0
 30
0.0
 11
567.0
 21
513.0
 31
0.0
  0
LINE
  8
0
 10
567.0
 20
513.0
 30
0.0
 11
567.0
 21
512.0
 31
0.0
  0
LINE
  8
0
 10
567.0
 20
512.0
 30
0.0
 11
522.0
 21
512.0
 31
0.0
  0
LINE
  8
0
 10
522.0
 20
512.0
 30
0.0
 11
522.0
 21
513.0
 31
0.0
  0
LINE
  8
0
 10
458.0
 20
512.0
 30
0.0
 11
465.0
 21
512.0
 31
0.0
  0
LINE
  8
0
 10
465.0
 20
512.0
 30
0.0
 11
465.0
 21
511.0
 31
0.0
  0
LINE
  8
0
 10
465.0
 20
511.0
 30
0.0
 11
458.0
 21
511.0
 31
0.0
  0
LINE
  8
0
 10
458.0
 20
511.0
 30
0.0
 11
458.0
 21
512.0
 31
0.0
  0
LINE
  8
0
 10
496.0
 20
512.0
 30
0.0
 11
497.0
 21
512.0
 31
0.0
  0
LINE
  8
0
 10
497.0
 20
512.0
 30
0.0
 11
497.0
 21
511.0
 31
0.0
  0
LINE
  8
0
 10
497.0
 20
511.0
 30
0.0
 11
496.0
 21
511.0
 31
0.0
  0
LINE
  8
0
 10
496.0
 20
511.0
 30
0.0
 11
496.0
 21
512.0
 31
0.0
  0
LINE
  8
0
 10
503.0
 20
512.0
 30
0.0
 11
506.0
 21
512.0
 31
0.0
  0
LINE
  8
0
 10
506.0
 20
512.0
 30
0.0
 11
506.0
 21
511.0
 31
0.0
  0
LINE
  8
0
 10
506.0
 20
511.0
 30
0.0
 11
503.0
 21
511.0
 31
0.0
  0
LINE
  8
0
 10
503.0
 20
511.0
 30
0.0
 11
503.0
 21
512.0
 31
0.0
  0
LINE
  8
0
 10
512.0
 20
512.0
 30
0.0
 11
520.0
 21
512.0
 31
0.0
  0
LINE
  8
0
 10
520.0
 20
512.0
 30
0.0
 11
520.0
 21
511.0
 31
0.0
  0
LINE
  8
0
 10
520.0
 20
511.0
 30
0.0
 11
512.0
 21
511.0
 31
0.0
  0
LINE
  8
0
 10
512.0
 20
511.0
 30
0.0
 11
512.0
 21
512.0
 31
0.0
  0
LINE
  8
0
 10
523.0
 20
512.0
 30
0.0
 11
549.0
 21
512.0
 31
0.0
  0
LINE
  8
0
 10
549.0
 20
512.0
 30
0.0
 11
549.0
 21
511.0
 31
0.0
  0
LINE
  8
0
 10
549.0
 20
511.0
 30
0.0
 11
523.0
 21
511.0
 31
0.0
  0
LINE
  8
0
 10
523.0
 20
511.0
 30
0.0
 11
523.0
 21
512.0
 31
0.0
  0
LINE
  8
0
 10
555.0
 20
512.0
 30
0.0
 11
562.0
 21
512.0
 31
0.0
  0
LINE
  8
0
 10
562.0
 20
512.0
 30
0.0
 11
562.0
 21
511.0
 31
0.0
  0
LINE
  8
0
 10
562.0
 20
511.0
 30
0.0
 11
555.0
 21
511.0
 31
0.0
  0
LINE
  8
0
 10
555.0
 20
511.0
 30
0.0
 11
555.0
 21
512.0
 31
0.0
  0
LINE
  8
0
 10
459.0
 20
511.0
 30
0.0
 11
466.0
 21
511.0
 31
0.0
  0
LINE
  8
0
 10
466.0
 20
511.0
 30
0.0
 11
466.0
 21
510.0
 31
0.0
  0
LINE
  8
0
 10
466.0
 20
510.0
 30
0.0
 11
459.0
 21
510.0
 31
0.0
  0
LINE
  8
0
 10
459.0
 20
510.0
 30
0.0
 11
459.0
 21
511.0
 31
0.0
  0
LINE
  8
0
 10
495.0
 20
511.0
 30
0.0
 11
498.0
 21
511.0
 31
0.0
  0
LINE
  8
0
 10
498.0
 20
511.0
 30
0.0
 11
498.0
 21
510.0
 31
0.0
  0
LINE
  8
0
 10
498.0
 20
510.0
 30
0.0
 11
495.0
 21
510.0
 31
0.0
  0
LINE
  8
0
 10
495.0
 20
510.0
 30
0.0
 11
495.0
 21
511.0
 31
0.0
  0
LINE
  8
0
 10
504.0
 20
511.0
 30
0.0
 11
508.0
 21
511.0
 31
0.0
  0
LINE
  8
0
 10
508.0
 20
511.0
 30
0.0
 11
508.0
 21
510.0
 31
0.0
  0
LINE
  8
0
 10
508.0
 20
510.0
 30
0.0
 11
504.0
 21
510.0
 31
0.0
  0
LINE
  8
0
 10
504.0
 20
510.0
 30
0.0
 11
504.0
 21
511.0
 31
0.0
  0
LINE
  8
0
 10
513.0
 20
511.0
 30
0.0
 11
522.0
 21
511.0
 31
0.0
  0
LINE
  8
0
 10
522.0
 20
511.0
 30
0.0
 11
522.0
 21
510.0
 31
0.0
  0
LINE
  8
0
 10
522.0
 20
510.0
 30
0.0
 11
513.0
 21
510.0
 31
0.0
  0
LINE
  8
0
 10
513.0
 20
510.0
 30
0.0
 11
513.0
 21
511.0
 31
0.0
  0
LINE
  8
0
 10
525.0
 20
511.0
 30
0.0
 11
551.0
 21
511.0
 31
0.0
  0
LINE
  8
0
 10
551.0
 20
511.0
 30
0.0
 11
551.0
 21
510.0
 31
0.0
  0
LINE
  8
0
 10
551.0
 20
510.0
 30
0.0
 11
525.0
 21
510.0
 31
0.0
  0
LINE
  8
0
 10
525.0
 20
510.0
 30
0.0
 11
525.0
 21
511.0
 31
0.0
  0
LINE
  8
0
 10
459.0
 20
510.0
 30
0.0
 11
466.0
 21
510.0
 31
0.0
  0
LINE
  8
0
 10
466.0
 20
510.0
 30
0.0
 11
466.0
 21
509.0
 31
0.0
  0
LINE
  8
0
 10
466.0
 20
509.0
 30
0.0
 11
459.0
 21
509.0
 31
0.0
  0
LINE
  8
0
 10
459.0
 20
509.0
 30
0.0
 11
459.0
 21
510.0
 31
0.0
  0
LINE
  8
0
 10
496.0
 20
510.0
 30
0.0
 11
500.0
 21
510.0
 31
0.0
  0
LINE
  8
0
 10
500.0
 20
510.0
 30
0.0
 11
500.0
 21
509.0
 31
0.0
  0
LINE
  8
0
 10
500.0
 20
509.0
 30
0.0
 11
496.0
 21
509.0
 31
0.0
  0
LINE
  8
0
 10
496.0
 20
509.0
 30
0.0
 11
496.0
 21
510.0
 31
0.0
  0
LINE
  8
0
 10
504.0
 20
510.0
 30
0.0
 11
509.0
 21
510.0
 31
0.0
  0
LINE
  8
0
 10
509.0
 20
510.0
 30
0.0
 11
509.0
 21
509.0
 31
0.0
  0
LINE
  8
0
 10
509.0
 20
509.0
 30
0.0
 11
504.0
 21
509.0
 31
0.0
  0
LINE
  8
0
 10
504.0
 20
509.0
 30
0.0
 11
504.0
 21
510.0
 31
0.0
  0
LINE
  8
0
 10
514.0
 20
510.0
 30
0.0
 11
551.0
 21
510.0
 31
0.0
  0
LINE
  8
0
 10
551.0
 20
510.0
 30
0.0
 11
551.0
 21
509.0
 31
0.0
  0
LINE
  8
0
 10
551.0
 20
509.0
 30
0.0
 11
514.0
 21
509.0
 31
0.0
  0
LINE
  8
0
 10
514.0
 20
509.0
 30
0.0
 11
514.0
 21
510.0
 31
0.0
  0
LINE
  8
0
 10
460.0
 20
509.0
 30
0.0
 11
466.0
 21
509.0
 31
0.0
  0
LINE
  8
0
 10
466.0
 20
509.0
 30
0.0
 11
466.0
 21
508.0
 31
0.0
  0
LINE
  8
0
 10
466.0
 20
508.0
 30
0.0
 11
460.0
 21
508.0
 31
0.0
  0
LINE
  8
0
 10
460.0
 20
508.0
 30
0.0
 11
460.0
 21
509.0
 31
0.0
  0
LINE
  8
0
 10
496.0
 20
509.0
 30
0.0
 11
501.0
 21
509.0
 31
0.0
  0
LINE
  8
0
 10
501.0
 20
509.0
 30
0.0
 11
501.0
 21
508.0
 31
0.0
  0
LINE
  8
0
 10
501.0
 20
508.0
 30
0.0
 11
496.0
 21
508.0
 31
0.0
  0
LINE
  8
0
 10
496.0
 20
508.0
 30
0.0
 11
496.0
 21
509.0
 31
0.0
  0
LINE
  8
0
 10
505.0
 20
509.0
 30
0.0
 11
511.0
 21
509.0
 31
0.0
  0
LINE
  8
0
 10
511.0
 20
509.0
 30
0.0
 11
511.0
 21
508.0
 31
0.0
  0
LINE
  8
0
 10
511.0
 20
508.0
 30
0.0
 11
505.0
 21
508.0
 31
0.0
  0
LINE
  8
0
 10
505.0
 20
508.0
 30
0.0
 11
505.0
 21
509.0
 31
0.0
  0
LINE
  8
0
 10
514.0
 20
509.0
 30
0.0
 11
551.0
 21
509.0
 31
0.0
  0
LINE
  8
0
 10
551.0
 20
509.0
 30
0.0
 11
551.0
 21
508.0
 31
0.0
  0
LINE
  8
0
 10
551.0
 20
508.0
 30
0.0
 11
514.0
 21
508.0
 31
0.0
  0
LINE
  8
0
 10
514.0
 20
508.0
 30
0.0
 11
514.0
 21
509.0
 31
0.0
  0
LINE
  8
0
 10
460.0
 20
508.0
 30
0.0
 11
467.0
 21
508.0
 31
0.0
  0
LINE
  8
0
 10
467.0
 20
508.0
 30
0.0
 11
467.0
 21
507.0
 31
0.0
  0
LINE
  8
0
 10
467.0
 20
507.0
 30
0.0
 11
460.0
 21
507.0
 31
0.0
  0
LINE
  8
0
 10
460.0
 20
507.0
 30
0.0
 11
460.0
 21
508.0
 31
0.0
  0
LINE
  8
0
 10
497.0
 20
508.0
 30
0.0
 11
503.0
 21
508.0
 31
0.0
  0
LINE
  8
0
 10
503.0
 20
508.0
 30
0.0
 11
503.0
 21
507.0
 31
0.0
  0
LINE
  8
0
 10
503.0
 20
507.0
 30
0.0
 11
497.0
 21
507.0
 31
0.0
  0
LINE
  8
0
 10
497.0
 20
507.0
 30
0.0
 11
497.0
 21
508.0
 31
0.0
  0
LINE
  8
0
 10
505.0
 20
508.0
 30
0.0
 11
514.0
 21
508.0
 31
0.0
  0
LINE
  8
0
 10
514.0
 20
508.0
 30
0.0
 11
514.0
 21
507.0
 31
0.0
  0
LINE
  8
0
 10
514.0
 20
507.0
 30
0.0
 11
505.0
 21
507.0
 31
0.0
  0
LINE
  8
0
 10
505.0
 20
507.0
 30
0.0
 11
505.0
 21
508.0
 31
0.0
  0
LINE
  8
0
 10
515.0
 20
508.0
 30
0.0
 11
537.0
 21
508.0
 31
0.0
  0
LINE
  8
0
 10
537.0
 20
508.0
 30
0.0
 11
537.0
 21
507.0
 31
0.0
  0
LINE
  8
0
 10
537.0
 20
507.0
 30
0.0
 11
515.0
 21
507.0
 31
0.0
  0
LINE
  8
0
 10
515.0
 20
507.0
 30
0.0
 11
515.0
 21
508.0
 31
0.0
  0
LINE
  8
0
 10
539.0
 20
508.0
 30
0.0
 11
549.0
 21
508.0
 31
0.0
  0
LINE
  8
0
 10
549.0
 20
508.0
 30
0.0
 11
549.0
 21
507.0
 31
0.0
  0
LINE
  8
0
 10
549.0
 20
507.0
 30
0.0
 11
539.0
 21
507.0
 31
0.0
  0
LINE
  8
0
 10
539.0
 20
507.0
 30
0.0
 11
539.0
 21
508.0
 31
0.0
  0
LINE
  8
0
 10
461.0
 20
507.0
 30
0.0
 11
467.0
 21
507.0
 31
0.0
  0
LINE
  8
0
 10
467.0
 20
507.0
 30
0.0
 11
467.0
 21
506.0
 31
0.0
  0
LINE
  8
0
 10
467.0
 20
506.0
 30
0.0
 11
461.0
 21
506.0
 31
0.0
  0
LINE
  8
0
 10
461.0
 20
506.0
 30
0.0
 11
461.0
 21
507.0
 31
0.0
  0
LINE
  8
0
 10
498.0
 20
507.0
 30
0.0
 11
538.0
 21
507.0
 31
0.0
  0
LINE
  8
0
 10
538.0
 20
507.0
 30
0.0
 11
538.0
 21
506.0
 31
0.0
  0
LINE
  8
0
 10
538.0
 20
506.0
 30
0.0
 11
498.0
 21
506.0
 31
0.0
  0
LINE
  8
0
 10
498.0
 20
506.0
 30
0.0
 11
498.0
 21
507.0
 31
0.0
  0
LINE
  8
0
 10
461.0
 20
506.0
 30
0.0
 11
468.0
 21
506.0
 31
0.0
  0
LINE
  8
0
 10
468.0
 20
506.0
 30
0.0
 11
468.0
 21
505.0
 31
0.0
  0
LINE
  8
0
 10
468.0
 20
505.0
 30
0.0
 11
461.0
 21
505.0
 31
0.0
  0
LINE
  8
0
 10
461.0
 20
505.0
 30
0.0
 11
461.0
 21
506.0
 31
0.0
  0
LINE
  8
0
 10
498.0
 20
506.0
 30
0.0
 11
538.0
 21
506.0
 31
0.0
  0
LINE
  8
0
 10
538.0
 20
506.0
 30
0.0
 11
538.0
 21
505.0
 31
0.0
  0
LINE
  8
0
 10
538.0
 20
505.0
 30
0.0
 11
498.0
 21
505.0
 31
0.0
  0
LINE
  8
0
 10
498.0
 20
505.0
 30
0.0
 11
498.0
 21
506.0
 31
0.0
  0
LINE
  8
0
 10
462.0
 20
505.0
 30
0.0
 11
468.0
 21
505.0
 31
0.0
  0
LINE
  8
0
 10
468.0
 20
505.0
 30
0.0
 11
468.0
 21
504.0
 31
0.0
  0
LINE
  8
0
 10
468.0
 20
504.0
 30
0.0
 11
462.0
 21
504.0
 31
0.0
  0
LINE
  8
0
 10
462.0
 20
504.0
 30
0.0
 11
462.0
 21
505.0
 31
0.0
  0
LINE
  8
0
 10
499.0
 20
505.0
 30
0.0
 11
538.0
 21
505.0
 31
0.0
  0
LINE
  8
0
 10
538.0
 20
505.0
 30
0.0
 11
538.0
 21
504.0
 31
0.0
  0
LINE
  8
0
 10
538.0
 20
504.0
 30
0.0
 11
499.0
 21
504.0
 31
0.0
  0
LINE
  8
0
 10
499.0
 20
504.0
 30
0.0
 11
499.0
 21
505.0
 31
0.0
  0
LINE
  8
0
 10
462.0
 20
504.0
 30
0.0
 11
469.0
 21
504.0
 31
0.0
  0
LINE
  8
0
 10
469.0
 20
504.0
 30
0.0
 11
469.0
 21
503.0
 31
0.0
  0
LINE
  8
0
 10
469.0
 20
503.0
 30
0.0
 11
462.0
 21
503.0
 31
0.0
  0
LINE
  8
0
 10
462.0
 20
503.0
 30
0.0
 11
462.0
 21
504.0
 31
0.0
  0
LINE
  8
0
 10
500.0
 20
504.0
 30
0.0
 11
527.0
 21
504.0
 31
0.0
  0
LINE
  8
0
 10
527.0
 20
504.0
 30
0.0
 11
527.0
 21
503.0
 31
0.0
  0
LINE
  8
0
 10
527.0
 20
503.0
 30
0.0
 11
500.0
 21
503.0
 31
0.0
  0
LINE
  8
0
 10
500.0
 20
503.0
 30
0.0
 11
500.0
 21
504.0
 31
0.0
  0
LINE
  8
0
 10
529.0
 20
504.0
 30
0.0
 11
536.0
 21
504.0
 31
0.0
  0
LINE
  8
0
 10
536.0
 20
504.0
 30
0.0
 11
536.0
 21
503.0
 31
0.0
  0
LINE
  8
0
 10
536.0
 20
503.0
 30
0.0
 11
529.0
 21
503.0
 31
0.0
  0
LINE
  8
0
 10
529.0
 20
503.0
 30
0.0
 11
529.0
 21
504.0
 31
0.0
  0
LINE
  8
0
 10
463.0
 20
503.0
 30
0.0
 11
469.0
 21
503.0
 31
0.0
  0
LINE
  8
0
 10
469.0
 20
503.0
 30
0.0
 11
469.0
 21
502.0
 31
0.0
  0
LINE
  8
0
 10
469.0
 20
502.0
 30
0.0
 11
463.0
 21
502.0
 31
0.0
  0
LINE
  8
0
 10
463.0
 20
502.0
 30
0.0
 11
463.0
 21
503.0
 31
0.0
  0
LINE
  8
0
 10
502.0
 20
503.0
 30
0.0
 11
527.0
 21
503.0
 31
0.0
  0
LINE
  8
0
 10
527.0
 20
503.0
 30
0.0
 11
527.0
 21
502.0
 31
0.0
  0
LINE
  8
0
 10
527.0
 20
502.0
 30
0.0
 11
502.0
 21
502.0
 31
0.0
  0
LINE
  8
0
 10
502.0
 20
502.0
 30
0.0
 11
502.0
 21
503.0
 31
0.0
  0
LINE
  8
0
 10
528.0
 20
503.0
 30
0.0
 11
529.0
 21
503.0
 31
0.0
  0
LINE
  8
0
 10
529.0
 20
503.0
 30
0.0
 11
529.0
 21
502.0
 31
0.0
  0
LINE
  8
0
 10
529.0
 20
502.0
 30
0.0
 11
528.0
 21
502.0
 31
0.0
  0
LINE
  8
0
 10
528.0
 20
502.0
 30
0.0
 11
528.0
 21
503.0
 31
0.0
  0
LINE
  8
0
 10
464.0
 20
502.0
 30
0.0
 11
470.0
 21
502.0
 31
0.0
  0
LINE
  8
0
 10
470.0
 20
502.0
 30
0.0
 11
470.0
 21
501.0
 31
0.0
  0
LINE
  8
0
 10
470.0
 20
501.0
 30
0.0
 11
464.0
 21
501.0
 31
0.0
  0
LINE
  8
0
 10
464.0
 20
501.0
 30
0.0
 11
464.0
 21
502.0
 31
0.0
  0
LINE
  8
0
 10
503.0
 20
502.0
 30
0.0
 11
517.0
 21
502.0
 31
0.0
  0
LINE
  8
0
 10
517.0
 20
502.0
 30
0.0
 11
517.0
 21
501.0
 31
0.0
  0
LINE
  8
0
 10
517.0
 20
501.0
 30
0.0
 11
503.0
 21
501.0
 31
0.0
  0
LINE
  8
0
 10
503.0
 20
501.0
 30
0.0
 11
503.0
 21
502.0
 31
0.0
  0
LINE
  8
0
 10
518.0
 20
502.0
 30
0.0
 11
527.0
 21
502.0
 31
0.0
  0
LINE
  8
0
 10
527.0
 20
502.0
 30
0.0
 11
527.0
 21
501.0
 31
0.0
  0
LINE
  8
0
 10
527.0
 20
501.0
 30
0.0
 11
518.0
 21
501.0
 31
0.0
  0
LINE
  8
0
 10
518.0
 20
501.0
 30
0.0
 11
518.0
 21
502.0
 31
0.0
  0
LINE
  8
0
 10
464.0
 20
501.0
 30
0.0
 11
471.0
 21
501.0
 31
0.0
  0
LINE
  8
0
 10
471.0
 20
501.0
 30
0.0
 11
471.0
 21
500.0
 31
0.0
  0
LINE
  8
0
 10
471.0
 20
500.0
 30
0.0
 11
464.0
 21
500.0
 31
0.0
  0
LINE
  8
0
 10
464.0
 20
500.0
 30
0.0
 11
464.0
 21
501.0
 31
0.0
  0
LINE
  8
0
 10
505.0
 20
501.0
 30
0.0
 11
517.0
 21
501.0
 31
0.0
  0
LINE
  8
0
 10
517.0
 20
501.0
 30
0.0
 11
517.0
 21
500.0
 31
0.0
  0
LINE
  8
0
 10
517.0
 20
500.0
 30
0.0
 11
505.0
 21
500.0
 31
0.0
  0
LINE
  8
0
 10
505.0
 20
500.0
 30
0.0
 11
505.0
 21
501.0
 31
0.0
  0
LINE
  8
0
 10
465.0
 20
500.0
 30
0.0
 11
472.0
 21
500.0
 31
0.0
  0
LINE
  8
0
 10
472.0
 20
500.0
 30
0.0
 11
472.0
 21
499.0
 31
0.0
  0
LINE
  8
0
 10
472.0
 20
499.0
 30
0.0
 11
465.0
 21
499.0
 31
0.0
  0
LINE
  8
0
 10
465.0
 20
499.0
 30
0.0
 11
465.0
 21
500.0
 31
0.0
  0
LINE
  8
0
 10
507.0
 20
500.0
 30
0.0
 11
517.0
 21
500.0
 31
0.0
  0
LINE
  8
0
 10
517.0
 20
500.0
 30
0.0
 11
517.0
 21
499.0
 31
0.0
  0
LINE
  8
0
 10
517.0
 20
499.0
 30
0.0
 11
507.0
 21
499.0
 31
0.0
  0
LINE
  8
0
 10
507.0
 20
499.0
 30
0.0
 11
507.0
 21
500.0
 31
0.0
  0
LINE
  8
0
 10
466.0
 20
499.0
 30
0.0
 11
473.0
 21
499.0
 31
0.0
  0
LINE
  8
0
 10
473.0
 20
499.0
 30
0.0
 11
473.0
 21
498.0
 31
0.0
  0
LINE
  8
0
 10
473.0
 20
498.0
 30
0.0
 11
466.0
 21
498.0
 31
0.0
  0
LINE
  8
0
 10
466.0
 20
498.0
 30
0.0
 11
466.0
 21
499.0
 31
0.0
  0
LINE
  8
0
 10
507.0
 20
499.0
 30
0.0
 11
515.0
 21
499.0
 31
0.0
  0
LINE
  8
0
 10
515.0
 20
499.0
 30
0.0
 11
515.0
 21
498.0
 31
0.0
  0
LINE
  8
0
 10
515.0
 20
498.0
 30
0.0
 11
507.0
 21
498.0
 31
0.0
  0
LINE
  8
0
 10
507.0
 20
498.0
 30
0.0
 11
507.0
 21
499.0
 31
0.0
  0
LINE
  8
0
 10
467.0
 20
498.0
 30
0.0
 11
474.0
 21
498.0
 31
0.0
  0
LINE
  8
0
 10
474.0
 20
498.0
 30
0.0
 11
474.0
 21
497.0
 31
0.0
  0
LINE
  8
0
 10
474.0
 20
497.0
 30
0.0
 11
467.0
 21
497.0
 31
0.0
  0
LINE
  8
0
 10
467.0
 20
497.0
 30
0.0
 11
467.0
 21
498.0
 31
0.0
  0
LINE
  8
0
 10
508.0
 20
498.0
 30
0.0
 11
516.0
 21
498.0
 31
0.0
  0
LINE
  8
0
 10
516.0
 20
498.0
 30
0.0
 11
516.0
 21
497.0
 31
0.0
  0
LINE
  8
0
 10
516.0
 20
497.0
 30
0.0
 11
508.0
 21
497.0
 31
0.0
  0
LINE
  8
0
 10
508.0
 20
497.0
 30
0.0
 11
508.0
 21
498.0
 31
0.0
  0
LINE
  8
0
 10
467.0
 20
497.0
 30
0.0
 11
475.0
 21
497.0
 31
0.0
  0
LINE
  8
0
 10
475.0
 20
497.0
 30
0.0
 11
475.0
 21
496.0
 31
0.0
  0
LINE
  8
0
 10
475.0
 20
496.0
 30
0.0
 11
467.0
 21
496.0
 31
0.0
  0
LINE
  8
0
 10
467.0
 20
496.0
 30
0.0
 11
467.0
 21
497.0
 31
0.0
  0
LINE
  8
0
 10
509.0
 20
497.0
 30
0.0
 11
516.0
 21
497.0
 31
0.0
  0
LINE
  8
0
 10
516.0
 20
497.0
 30
0.0
 11
516.0
 21
496.0
 31
0.0
  0
LINE
  8
0
 10
516.0
 20
496.0
 30
0.0
 11
509.0
 21
496.0
 31
0.0
  0
LINE
  8
0
 10
509.0
 20
496.0
 30
0.0
 11
509.0
 21
497.0
 31
0.0
  0
LINE
  8
0
 10
468.0
 20
496.0
 30
0.0
 11
476.0
 21
496.0
 31
0.0
  0
LINE
  8
0
 10
476.0
 20
496.0
 30
0.0
 11
476.0
 21
495.0
 31
0.0
  0
LINE
  8
0
 10
476.0
 20
495.0
 30
0.0
 11
468.0
 21
495.0
 31
0.0
  0
LINE
  8
0
 10
468.0
 20
495.0
 30
0.0
 11
468.0
 21
496.0
 31
0.0
  0
LINE
  8
0
 10
509.0
 20
496.0
 30
0.0
 11
517.0
 21
496.0
 31
0.0
  0
LINE
  8
0
 10
517.0
 20
496.0
 30
0.0
 11
517.0
 21
495.0
 31
0.0
  0
LINE
  8
0
 10
517.0
 20
495.0
 30
0.0
 11
509.0
 21
495.0
 31
0.0
  0
LINE
  8
0
 10
509.0
 20
495.0
 30
0.0
 11
509.0
 21
496.0
 31
0.0
  0
LINE
  8
0
 10
469.0
 20
495.0
 30
0.0
 11
477.0
 21
495.0
 31
0.0
  0
LINE
  8
0
 10
477.0
 20
495.0
 30
0.0
 11
477.0
 21
494.0
 31
0.0
  0
LINE
  8
0
 10
477.0
 20
494.0
 30
0.0
 11
469.0
 21
494.0
 31
0.0
  0
LINE
  8
0
 10
469.0
 20
494.0
 30
0.0
 11
469.0
 21
495.0
 31
0.0
  0
LINE
  8
0
 10
510.0
 20
495.0
 30
0.0
 11
517.0
 21
495.0
 31
0.0
  0
LINE
  8
0
 10
517.0
 20
495.0
 30
0.0
 11
517.0
 21
494.0
 31
0.0
  0
LINE
  8
0
 10
517.0
 20
494.0
 30
0.0
 11
510.0
 21
494.0
 31
0.0
  0
LINE
  8
0
 10
510.0
 20
494.0
 30
0.0
 11
510.0
 21
495.0
 31
0.0
  0
LINE
  8
0
 10
470.0
 20
494.0
 30
0.0
 11
478.0
 21
494.0
 31
0.0
  0
LINE
  8
0
 10
478.0
 20
494.0
 30
0.0
 11
478.0
 21
493.0
 31
0.0
  0
LINE
  8
0
 10
478.0
 20
493.0
 30
0.0
 11
470.0
 21
493.0
 31
0.0
  0
LINE
  8
0
 10
470.0
 20
493.0
 30
0.0
 11
470.0
 21
494.0
 31
0.0
  0
LINE
  8
0
 10
511.0
 20
494.0
 30
0.0
 11
518.0
 21
494.0
 31
0.0
  0
LINE
  8
0
 10
518.0
 20
494.0
 30
0.0
 11
518.0
 21
493.0
 31
0.0
  0
LINE
  8
0
 10
518.0
 20
493.0
 30
0.0
 11
511.0
 21
493.0
 31
0.0
  0
LINE
  8
0
 10
511.0
 20
493.0
 30
0.0
 11
511.0
 21
494.0
 31
0.0
  0
LINE
  8
0
 10
472.0
 20
493.0
 30
0.0
 11
480.0
 21
493.0
 31
0.0
  0
LINE
  8
0
 10
480.0
 20
493.0
 30
0.0
 11
480.0
 21
492.0
 31
0.0
  0
LINE
  8
0
 10
480.0
 20
492.0
 30
0.0
 11
472.0
 21
492.0
 31
0.0
  0
LINE
  8
0
 10
472.0
 20
492.0
 30
0.0
 11
472.0
 21
493.0
 31
0.0
  0
LINE
  8
0
 10
511.0
 20
493.0
 30
0.0
 11
518.0
 21
493.0
 31
0.0
  0
LINE
  8
0
 10
518.0
 20
493.0
 30
0.0
 11
518.0
 21
492.0
 31
0.0
  0
LINE
  8
0
 10
518.0
 20
492.0
 30
0.0
 11
511.0
 21
492.0
 31
0.0
  0
LINE
  8
0
 10
511.0
 20
492.0
 30
0.0
 11
511.0
 21
493.0
 31
0.0
  0
LINE
  8
0
 10
473.0
 20
492.0
 30
0.0
 11
482.0
 21
492.0
 31
0.0
  0
LINE
  8
0
 10
482.0
 20
492.0
 30
0.0
 11
482.0
 21
491.0
 31
0.0
  0
LINE
  8
0
 10
482.0
 20
491.0
 30
0.0
 11
473.0
 21
491.0
 31
0.0
  0
LINE
  8
0
 10
473.0
 20
491.0
 30
0.0
 11
473.0
 21
492.0
 31
0.0
  0
LINE
  8
0
 10
512.0
 20
492.0
 30
0.0
 11
519.0
 21
492.0
 31
0.0
  0
LINE
  8
0
 10
519.0
 20
492.0
 30
0.0
 11
519.0
 21
491.0
 31
0.0
  0
LINE
  8
0
 10
519.0
 20
491.0
 30
0.0
 11
512.0
 21
491.0
 31
0.0
  0
LINE
  8
0
 10
512.0
 20
491.0
 30
0.0
 11
512.0
 21
492.0
 31
0.0
  0
LINE
  8
0
 10
474.0
 20
491.0
 30
0.0
 11
483.0
 21
491.0
 31
0.0
  0
LINE
  8
0
 10
483.0
 20
491.0
 30
0.0
 11
483.0
 21
490.0
 31
0.0
  0
LINE
  8
0
 10
483.0
 20
490.0
 30
0.0
 11
474.0
 21
490.0
 31
0.0
  0
LINE
  8
0
 10
474.0
 20
490.0
 30
0.0
 11
474.0
 21
491.0
 31
0.0
  0
LINE
  8
0
 10
513.0
 20
491.0
 30
0.0
 11
519.0
 21
491.0
 31
0.0
  0
LINE
  8
0
 10
519.0
 20
491.0
 30
0.0
 11
519.0
 21
490.0
 31
0.0
  0
LINE
  8
0
 10
519.0
 20
490.0
 30
0.0
 11
513.0
 21
490.0
 31
0.0
  0
LINE
  8
0
 10
513.0
 20
490.0
 30
0.0
 11
513.0
 21
491.0
 31
0.0
  0
LINE
  8
0
 10
475.0
 20
490.0
 30
0.0
 11
486.0
 21
490.0
 31
0.0
  0
LINE
  8
0
 10
486.0
 20
490.0
 30
0.0
 11
486.0
 21
489.0
 31
0.0
  0
LINE
  8
0
 10
486.0
 20
489.0
 30
0.0
 11
475.0
 21
489.0
 31
0.0
  0
LINE
  8
0
 10
475.0
 20
489.0
 30
0.0
 11
475.0
 21
490.0
 31
0.0
  0
LINE
  8
0
 10
513.0
 20
490.0
 30
0.0
 11
520.0
 21
490.0
 31
0.0
  0
LINE
  8
0
 10
520.0
 20
490.0
 30
0.0
 11
520.0
 21
489.0
 31
0.0
  0
LINE
  8
0
 10
520.0
 20
489.0
 30
0.0
 11
513.0
 21
489.0
 31
0.0
  0
LINE
  8
0
 10
513.0
 20
489.0
 30
0.0
 11
513.0
 21
490.0
 31
0.0
  0
LINE
  8
0
 10
477.0
 20
489.0
 30
0.0
 11
488.0
 21
489.0
 31
0.0
  0
LINE
  8
0
 10
488.0
 20
489.0
 30
0.0
 11
488.0
 21
488.0
 31
0.0
  0
LINE
  8
0
 10
488.0
 20
488.0
 30
0.0
 11
477.0
 21
488.0
 31
0.0
  0
LINE
  8
0
 10
477.0
 20
488.0
 30
0.0
 11
477.0
 21
489.0
 31
0.0
  0
LINE
  8
0
 10
514.0
 20
489.0
 30
0.0
 11
520.0
 21
489.0
 31
0.0
  0
LINE
  8
0
 10
520.0
 20
489.0
 30
0.0
 11
520.0
 21
488.0
 31
0.0
  0
LINE
  8
0
 10
520.0
 20
488.0
 30
0.0
 11
514.0
 21
488.0
 31
0.0
  0
LINE
  8
0
 10
514.0
 20
488.0
 30
0.0
 11
514.0
 21
489.0
 31
0.0
  0
LINE
  8
0
 10
478.0
 20
488.0
 30
0.0
 11
491.0
 21
488.0
 31
0.0
  0
LINE
  8
0
 10
491.0
 20
488.0
 30
0.0
 11
491.0
 21
487.0
 31
0.0
  0
LINE
  8
0
 10
491.0
 20
487.0
 30
0.0
 11
478.0
 21
487.0
 31
0.0
  0
LINE
  8
0
 10
478.0
 20
487.0
 30
0.0
 11
478.0
 21
488.0
 31
0.0
  0
LINE
  8
0
 10
494.0
 20
488.0
 30
0.0
 11
496.0
 21
488.0
 31
0.0
  0
LINE
  8
0
 10
496.0
 20
488.0
 30
0.0
 11
496.0
 21
487.0
 31
0.0
  0
LINE
  8
0
 10
496.0
 20
487.0
 30
0.0
 11
494.0
 21
487.0
 31
0.0
  0
LINE
  8
0
 10
494.0
 20
487.0
 30
0.0
 11
494.0
 21
488.0
 31
0.0
  0
LINE
  8
0
 10
514.0
 20
488.0
 30
0.0
 11
521.0
 21
488.0
 31
0.0
  0
LINE
  8
0
 10
521.0
 20
488.0
 30
0.0
 11
521.0
 21
487.0
 31
0.0
  0
LINE
  8
0
 10
521.0
 20
487.0
 30
0.0
 11
514.0
 21
487.0
 31
0.0
  0
LINE
  8
0
 10
514.0
 20
487.0
 30
0.0
 11
514.0
 21
488.0
 31
0.0
  0
LINE
  8
0
 10
480.0
 20
487.0
 30
0.0
 11
497.0
 21
487.0
 31
0.0
  0
LINE
  8
0
 10
497.0
 20
487.0
 30
0.0
 11
497.0
 21
486.0
 31
0.0
  0
LINE
  8
0
 10
497.0
 20
486.0
 30
0.0
 11
480.0
 21
486.0
 31
0.0
  0
LINE
  8
0
 10
480.0
 20
486.0
 30
0.0
 11
480.0
 21
487.0
 31
0.0
  0
LINE
  8
0
 10
503.0
 20
487.0
 30
0.0
 11
505.0
 21
487.0
 31
0.0
  0
LINE
  8
0
 10
505.0
 20
487.0
 30
0.0
 11
505.0
 21
486.0
 31
0.0
  0
LINE
  8
0
 10
505.0
 20
486.0
 30
0.0
 11
503.0
 21
486.0
 31
0.0
  0
LINE
  8
0
 10
503.0
 20
486.0
 30
0.0
 11
503.0
 21
487.0
 31
0.0
  0
LINE
  8
0
 10
515.0
 20
487.0
 30
0.0
 11
521.0
 21
487.0
 31
0.0
  0
LINE
  8
0
 10
521.0
 20
487.0
 30
0.0
 11
521.0
 21
486.0
 31
0.0
  0
LINE
  8
0
 10
521.0
 20
486.0
 30
0.0
 11
515.0
 21
486.0
 31
0.0
  0
LINE
  8
0
 10
515.0
 20
486.0
 30
0.0
 11
515.0
 21
487.0
 31
0.0
  0
LINE
  8
0
 10
482.0
 20
486.0
 30
0.0
 11
498.0
 21
486.0
 31
0.0
  0
LINE
  8
0
 10
498.0
 20
486.0
 30
0.0
 11
498.0
 21
485.0
 31
0.0
  0
LINE
  8
0
 10
498.0
 20
485.0
 30
0.0
 11
482.0
 21
485.0
 31
0.0
  0
LINE
  8
0
 10
482.0
 20
485.0
 30
0.0
 11
482.0
 21
486.0
 31
0.0
  0
LINE
  8
0
 10
503.0
 20
486.0
 30
0.0
 11
506.0
 21
486.0
 31
0.0
  0
LINE
  8
0
 10
506.0
 20
486.0
 30
0.0
 11
506.0
 21
485.0
 31
0.0
  0
LINE
  8
0
 10
506.0
 20
485.0
 30
0.0
 11
503.0
 21
485.0
 31
0.0
  0
LINE
  8
0
 10
503.0
 20
485.0
 30
0.0
 11
503.0
 21
486.0
 31
0.0
  0
LINE
  8
0
 10
515.0
 20
486.0
 30
0.0
 11
522.0
 21
486.0
 31
0.0
  0
LINE
  8
0
 10
522.0
 20
486.0
 30
0.0
 11
522.0
 21
485.0
 31
0.0
  0
LINE
  8
0
 10
522.0
 20
485.0
 30
0.0
 11
515.0
 21
485.0
 31
0.0
  0
LINE
  8
0
 10
515.0
 20
485.0
 30
0.0
 11
515.0
 21
486.0
 31
0.0
  0
LINE
  8
0
 10
483.0
 20
485.0
 30
0.0
 11
499.0
 21
485.0
 31
0.0
  0
LINE
  8
0
 10
499.0
 20
485.0
 30
0.0
 11
499.0
 21
484.0
 31
0.0
  0
LINE
  8
0
 10
499.0
 20
484.0
 30
0.0
 11
483.0
 21
484.0
 31
0.0
  0
LINE
  8
0
 10
483.0
 20
484.0
 30
0.0
 11
483.0
 21
485.0
 31
0.0
  0
LINE
  8
0
 10
503.0
 20
485.0
 30
0.0
 11
507.0
 21
485.0
 31
0.0
  0
LINE
  8
0
 10
507.0
 20
485.0
 30
0.0
 11
507.0
 21
484.0
 31
0.0
  0
LINE
  8
0
 10
507.0
 20
484.0
 30
0.0
 11
503.0
 21
484.0
 31
0.0
  0
LINE
  8
0
 10
503.0
 20
484.0
 30
0.0
 11
503.0
 21
485.0
 31
0.0
  0
LINE
  8
0
 10
516.0
 20
485.0
 30
0.0
 11
523.0
 21
485.0
 31
0.0
  0
LINE
  8
0
 10
523.0
 20
485.0
 30
0.0
 11
523.0
 21
484.0
 31
0.0
  0
LINE
  8
0
 10
523.0
 20
484.0
 30
0.0
 11
516.0
 21
484.0
 31
0.0
  0
LINE
  8
0
 10
516.0
 20
484.0
 30
0.0
 11
516.0
 21
485.0
 31
0.0
  0
LINE
  8
0
 10
485.0
 20
484.0
 30
0.0
 11
500.0
 21
484.0
 31
0.0
  0
LINE
  8
0
 10
500.0
 20
484.0
 30
0.0
 11
500.0
 21
483.0
 31
0.0
  0
LINE
  8
0
 10
500.0
 20
483.0
 30
0.0
 11
485.0
 21
483.0
 31
0.0
  0
LINE
  8
0
 10
485.0
 20
483.0
 30
0.0
 11
485.0
 21
484.0
 31
0.0
  0
LINE
  8
0
 10
503.0
 20
484.0
 30
0.0
 11
508.0
 21
484.0
 31
0.0
  0
LINE
  8
0
 10
508.0
 20
484.0
 30
0.0
 11
508.0
 21
483.0
 31
0.0
  0
LINE
  8
0
 10
508.0
 20
483.0
 30
0.0
 11
503.0
 21
483.0
 31
0.0
  0
LINE
  8
0
 10
503.0
 20
483.0
 30
0.0
 11
503.0
 21
484.0
 31
0.0
  0
LINE
  8
0
 10
517.0
 20
484.0
 30
0.0
 11
523.0
 21
484.0
 31
0.0
  0
LINE
  8
0
 10
523.0
 20
484.0
 30
0.0
 11
523.0
 21
483.0
 31
0.0
  0
LINE
  8
0
 10
523.0
 20
483.0
 30
0.0
 11
517.0
 21
483.0
 31
0.0
  0
LINE
  8
0
 10
517.0
 20
483.0
 30
0.0
 11
517.0
 21
484.0
 31
0.0
  0
LINE
  8
0
 10
488.0
 20
483.0
 30
0.0
 11
501.0
 21
483.0
 31
0.0
  0
LINE
  8
0
 10
501.0
 20
483.0
 30
0.0
 11
501.0
 21
482.0
 31
0.0
  0
LINE
  8
0
 10
501.0
 20
482.0
 30
0.0
 11
488.0
 21
482.0
 31
0.0
  0
LINE
  8
0
 10
488.0
 20
482.0
 30
0.0
 11
488.0
 21
483.0
 31
0.0
  0
LINE
  8
0
 10
503.0
 20
483.0
 30
0.0
 11
509.0
 21
483.0
 31
0.0
  0
LINE
  8
0
 10
509.0
 20
483.0
 30
0.0
 11
509.0
 21
482.0
 31
0.0
  0
LINE
  8
0
 10
509.0
 20
482.0
 30
0.0
 11
503.0
 21
482.0
 31
0.0
  0
LINE
  8
0
 10
503.0
 20
482.0
 30
0.0
 11
503.0
 21
483.0
 31
0.0
  0
LINE
  8
0
 10
517.0
 20
483.0
 30
0.0
 11
524.0
 21
483.0
 31
0.0
  0
LINE
  8
0
 10
524.0
 20
483.0
 30
0.0
 11
524.0
 21
482.0
 31
0.0
  0
LINE
  8
0
 10
524.0
 20
482.0
 30
0.0
 11
517.0
 21
482.0
 31
0.0
  0
LINE
  8
0
 10
517.0
 20
482.0
 30
0.0
 11
517.0
 21
483.0
 31
0.0
  0
LINE
  8
0
 10
490.0
 20
482.0
 30
0.0
 11
502.0
 21
482.0
 31
0.0
  0
LINE
  8
0
 10
502.0
 20
482.0
 30
0.0
 11
502.0
 21
481.0
 31
0.0
  0
LINE
  8
0
 10
502.0
 20
481.0
 30
0.0
 11
490.0
 21
481.0
 31
0.0
  0
LINE
  8
0
 10
490.0
 20
481.0
 30
0.0
 11
490.0
 21
482.0
 31
0.0
  0
LINE
  8
0
 10
503.0
 20
482.0
 30
0.0
 11
510.0
 21
482.0
 31
0.0
  0
LINE
  8
0
 10
510.0
 20
482.0
 30
0.0
 11
510.0
 21
481.0
 31
0.0
  0
LINE
  8
0
 10
510.0
 20
481.0
 30
0.0
 11
503.0
 21
481.0
 31
0.0
  0
LINE
  8
0
 10
503.0
 20
481.0
 30
0.0
 11
503.0
 21
482.0
 31
0.0
  0
LINE
  8
0
 10
518.0
 20
482.0
 30
0.0
 11
524.0
 21
482.0
 31
0.0
  0
LINE
  8
0
 10
524.0
 20
482.0
 30
0.0
 11
524.0
 21
481.0
 31
0.0
  0
LINE
  8
0
 10
524.0
 20
481.0
 30
0.0
 11
518.0
 21
481.0
 31
0.0
  0
LINE
  8
0
 10
518.0
 20
481.0
 30
0.0
 11
518.0
 21
482.0
 31
0.0
  0
LINE
  8
0
 10
492.0
 20
481.0
 30
0.0
 11
511.0
 21
481.0
 31
0.0
  0
LINE
  8
0
 10
511.0
 20
481.0
 30
0.0
 11
511.0
 21
480.0
 31
0.0
  0
LINE
  8
0
 10
511.0
 20
480.0
 30
0.0
 11
492.0
 21
480.0
 31
0.0
  0
LINE
  8
0
 10
492.0
 20
480.0
 30
0.0
 11
492.0
 21
481.0
 31
0.0
  0
LINE
  8
0
 10
518.0
 20
481.0
 30
0.0
 11
525.0
 21
481.0
 31
0.0
  0
LINE
  8
0
 10
525.0
 20
481.0
 30
0.0
 11
525.0
 21
480.0
 31
0.0
  0
LINE
  8
0
 10
525.0
 20
480.0
 30
0.0
 11
518.0
 21
480.0
 31
0.0
  0
LINE
  8
0
 10
518.0
 20
480.0
 30
0.0
 11
518.0
 21
481.0
 31
0.0
  0
LINE
  8
0
 10
492.0
 20
480.0
 30
0.0
 11
512.0
 21
480.0
 31
0.0
  0
LINE
  8
0
 10
512.0
 20
480.0
 30
0.0
 11
512.0
 21
479.0
 31
0.0
  0
LINE
  8
0
 10
512.0
 20
479.0
 30
0.0
 11
492.0
 21
479.0
 31
0.0
  0
LINE
  8
0
 10
492.0
 20
479.0
 30
0.0
 11
492.0
 21
480.0
 31
0.0
  0
LINE
  8
0
 10
519.0
 20
480.0
 30
0.0
 11
525.0
 21
480.0
 31
0.0
  0
LINE
  8
0
 10
525.0
 20
480.0
 30
0.0
 11
525.0
 21
479.0
 31
0.0
  0
LINE
  8
0
 10
525.0
 20
479.0
 30
0.0
 11
519.0
 21
479.0
 31
0.0
  0
LINE
  8
0
 10
519.0
 20
479.0
 30
0.0
 11
519.0
 21
480.0
 31
0.0
  0
LINE
  8
0
 10
492.0
 20
479.0
 30
0.0
 11
514.0
 21
479.0
 31
0.0
  0
LINE
  8
0
 10
514.0
 20
479.0
 30
0.0
 11
514.0
 21
478.0
 31
0.0
  0
LINE
  8
0
 10
514.0
 20
478.0
 30
0.0
 11
492.0
 21
478.0
 31
0.0
  0
LINE
  8
0
 10
492.0
 20
478.0
 30
0.0
 11
492.0
 21
479.0
 31
0.0
  0
LINE
  8
0
 10
520.0
 20
479.0
 30
0.0
 11
526.0
 21
479.0
 31
0.0
  0
LINE
  8
0
 10
526.0
 20
479.0
 30
0.0
 11
526.0
 21
478.0
 31
0.0
  0
LINE
  8
0
 10
526.0
 20
478.0
 30
0.0
 11
520.0
 21
478.0
 31
0.0
  0
LINE
  8
0
 10
520.0
 20
478.0
 30
0.0
 11
520.0
 21
479.0
 31
0.0
  0
LINE
  8
0
 10
492.0
 20
478.0
 30
0.0
 11
515.0
 21
478.0
 31
0.0
  0
LINE
  8
0
 10
515.0
 20
478.0
 30
0.0
 11
515.0
 21
477.0
 31
0.0
  0
LINE
  8
0
 10
515.0
 20
477.0
 30
0.0
 11
492.0
 21
477.0
 31
0.0
  0
LINE
  8
0
 10
492.0
 20
477.0
 30
0.0
 11
492.0
 21
478.0
 31
0.0
  0
LINE
  8
0
 10
520.0
 20
478.0
 30
0.0
 11
526.0
 21
478.0
 31
0.0
  0
LINE
  8
0
 10
526.0
 20
478.0
 30
0.0
 11
526.0
 21
477.0
 31
0.0
  0
LINE
  8
0
 10
526.0
 20
477.0
 30
0.0
 11
520.0
 21
477.0
 31
0.0
  0
LINE
  8
0
 10
520.0
 20
477.0
 30
0.0
 11
520.0
 21
478.0
 31
0.0
  0
LINE
  8
0
 10
492.0
 20
477.0
 30
0.0
 11
516.0
 21
477.0
 31
0.0
  0
LINE
  8
0
 10
516.0
 20
477.0
 30
0.0
 11
516.0
 21
476.0
 31
0.0
  0
LINE
  8
0
 10
516.0
 20
476.0
 30
0.0
 11
492.0
 21
476.0
 31
0.0
  0
LINE
  8
0
 10
492.0
 20
476.0
 30
0.0
 11
492.0
 21
477.0
 31
0.0
  0
LINE
  8
0
 10
521.0
 20
477.0
 30
0.0
 11
527.0
 21
477.0
 31
0.0
  0
LINE
  8
0
 10
527.0
 20
477.0
 30
0.0
 11
527.0
 21
476.0
 31
0.0
  0
LINE
  8
0
 10
527.0
 20
476.0
 30
0.0
 11
521.0
 21
476.0
 31
0.0
  0
LINE
  8
0
 10
521.0
 20
476.0
 30
0.0
 11
521.0
 21
477.0
 31
0.0
  0
LINE
  8
0
 10
492.0
 20
476.0
 30
0.0
 11
517.0
 21
476.0
 31
0.0
  0
LINE
  8
0
 10
517.0
 20
476.0
 30
0.0
 11
517.0
 21
475.0
 31
0.0
  0
LINE
  8
0
 10
517.0
 20
475.0
 30
0.0
 11
492.0
 21
475.0
 31
0.0
  0
LINE
  8
0
 10
492.0
 20
475.0
 30
0.0
 11
492.0
 21
476.0
 31
0.0
  0
LINE
  8
0
 10
522.0
 20
476.0
 30
0.0
 11
528.0
 21
476.0
 31
0.0
  0
LINE
  8
0
 10
528.0
 20
476.0
 30
0.0
 11
528.0
 21
475.0
 31
0.0
  0
LINE
  8
0
 10
528.0
 20
475.0
 30
0.0
 11
522.0
 21
475.0
 31
0.0
  0
LINE
  8
0
 10
522.0
 20
475.0
 30
0.0
 11
522.0
 21
476.0
 31
0.0
  0
LINE
  8
0
 10
491.0
 20
475.0
 30
0.0
 11
518.0
 21
475.0
 31
0.0
  0
LINE
  8
0
 10
518.0
 20
475.0
 30
0.0
 11
518.0
 21
474.0
 31
0.0
  0
LINE
  8
0
 10
518.0
 20
474.0
 30
0.0
 11
491.0
 21
474.0
 31
0.0
  0
LINE
  8
0
 10
491.0
 20
474.0
 30
0.0
 11
491.0
 21
475.0
 31
0.0
  0
LINE
  8
0
 10
520.0
 20
475.0
 30
0.0
 11
521.0
 21
475.0
 31
0.0
  0
LINE
  8
0
 10
521.0
 20
475.0
 30
0.0
 11
521.0
 21
474.0
 31
0.0
  0
LINE
  8
0
 10
521.0
 20
474.0
 30
0.0
 11
520.0
 21
474.0
 31
0.0
  0
LINE
  8
0
 10
520.0
 20
474.0
 30
0.0
 11
520.0
 21
475.0
 31
0.0
  0
LINE
  8
0
 10
522.0
 20
475.0
 30
0.0
 11
528.0
 21
475.0
 31
0.0
  0
LINE
  8
0
 10
528.0
 20
475.0
 30
0.0
 11
528.0
 21
474.0
 31
0.0
  0
LINE
  8
0
 10
528.0
 20
474.0
 30
0.0
 11
522.0
 21
474.0
 31
0.0
  0
LINE
  8
0
 10
522.0
 20
474.0
 30
0.0
 11
522.0
 21
475.0
 31
0.0
  0
LINE
  8
0
 10
491.0
 20
474.0
 30
0.0
 11
519.0
 21
474.0
 31
0.0
  0
LINE
  8
0
 10
519.0
 20
474.0
 30
0.0
 11
519.0
 21
473.0
 31
0.0
  0
LINE
  8
0
 10
519.0
 20
473.0
 30
0.0
 11
491.0
 21
473.0
 31
0.0
  0
LINE
  8
0
 10
491.0
 20
473.0
 30
0.0
 11
491.0
 21
474.0
 31
0.0
  0
LINE
  8
0
 10
523.0
 20
474.0
 30
0.0
 11
529.0
 21
474.0
 31
0.0
  0
LINE
  8
0
 10
529.0
 20
474.0
 30
0.0
 11
529.0
 21
473.0
 31
0.0
  0
LINE
  8
0
 10
529.0
 20
473.0
 30
0.0
 11
523.0
 21
473.0
 31
0.0
  0
LINE
  8
0
 10
523.0
 20
473.0
 30
0.0
 11
523.0
 21
474.0
 31
0.0
  0
LINE
  8
0
 10
491.0
 20
473.0
 30
0.0
 11
497.0
 21
473.0
 31
0.0
  0
LINE
  8
0
 10
497.0
 20
473.0
 30
0.0
 11
497.0
 21
472.0
 31
0.0
  0
LINE
  8
0
 10
497.0
 20
472.0
 30
0.0
 11
491.0
 21
472.0
 31
0.0
  0
LINE
  8
0
 10
491.0
 20
472.0
 30
0.0
 11
491.0
 21
473.0
 31
0.0
  0
LINE
  8
0
 10
498.0
 20
473.0
 30
0.0
 11
513.0
 21
473.0
 31
0.0
  0
LINE
  8
0
 10
513.0
 20
473.0
 30
0.0
 11
513.0
 21
472.0
 31
0.0
  0
LINE
  8
0
 10
513.0
 20
472.0
 30
0.0
 11
498.0
 21
472.0
 31
0.0
  0
LINE
  8
0
 10
498.0
 20
472.0
 30
0.0
 11
498.0
 21
473.0
 31
0.0
  0
LINE
  8
0
 10
514.0
 20
473.0
 30
0.0
 11
520.0
 21
473.0
 31
0.0
  0
LINE
  8
0
 10
520.0
 20
473.0
 30
0.0
 11
520.0
 21
472.0
 31
0.0
  0
LINE
  8
0
 10
520.0
 20
472.0
 30
0.0
 11
514.0
 21
472.0
 31
0.0
  0
LINE
  8
0
 10
514.0
 20
472.0
 30
0.0
 11
514.0
 21
473.0
 31
0.0
  0
LINE
  8
0
 10
522.0
 20
473.0
 30
0.0
 11
523.0
 21
473.0
 31
0.0
  0
LINE
  8
0
 10
523.0
 20
473.0
 30
0.0
 11
523.0
 21
472.0
 31
0.0
  0
LINE
  8
0
 10
523.0
 20
472.0
 30
0.0
 11
522.0
 21
472.0
 31
0.0
  0
LINE
  8
0
 10
522.0
 20
472.0
 30
0.0
 11
522.0
 21
473.0
 31
0.0
  0
LINE
  8
0
 10
524.0
 20
473.0
 30
0.0
 11
529.0
 21
473.0
 31
0.0
  0
LINE
  8
0
 10
529.0
 20
473.0
 30
0.0
 11
529.0
 21
472.0
 31
0.0
  0
LINE
  8
0
 10
529.0
 20
472.0
 30
0.0
 11
524.0
 21
472.0
 31
0.0
  0
LINE
  8
0
 10
524.0
 20
472.0
 30
0.0
 11
524.0
 21
473.0
 31
0.0
  0
LINE
  8
0
 10
490.0
 20
472.0
 30
0.0
 11
497.0
 21
472.0
 31
0.0
  0
LINE
  8
0
 10
497.0
 20
472.0
 30
0.0
 11
497.0
 21
471.0
 31
0.0
  0
LINE
  8
0
 10
497.0
 20
471.0
 30
0.0
 11
490.0
 21
471.0
 31
0.0
  0
LINE
  8
0
 10
490.0
 20
471.0
 30
0.0
 11
490.0
 21
472.0
 31
0.0
  0
LINE
  8
0
 10
498.0
 20
472.0
 30
0.0
 11
507.0
 21
472.0
 31
0.0
  0
LINE
  8
0
 10
507.0
 20
472.0
 30
0.0
 11
507.0
 21
471.0
 31
0.0
  0
LINE
  8
0
 10
507.0
 20
471.0
 30
0.0
 11
498.0
 21
471.0
 31
0.0
  0
LINE
  8
0
 10
498.0
 20
471.0
 30
0.0
 11
498.0
 21
472.0
 31
0.0
  0
LINE
  8
0
 10
508.0
 20
472.0
 30
0.0
 11
513.0
 21
472.0
 31
0.0
  0
LINE
  8
0
 10
513.0
 20
472.0
 30
0.0
 11
513.0
 21
471.0
 31
0.0
  0
LINE
  8
0
 10
513.0
 20
471.0
 30
0.0
 11
508.0
 21
471.0
 31
0.0
  0
LINE
  8
0
 10
508.0
 20
471.0
 30
0.0
 11
508.0
 21
472.0
 31
0.0
  0
LINE
  8
0
 10
515.0
 20
472.0
 30
0.0
 11
522.0
 21
472.0
 31
0.0
  0
LINE
  8
0
 10
522.0
 20
472.0
 30
0.0
 11
522.0
 21
471.0
 31
0.0
  0
LINE
  8
0
 10
522.0
 20
471.0
 30
0.0
 11
515.0
 21
471.0
 31
0.0
  0
LINE
  8
0
 10
515.0
 20
471.0
 30
0.0
 11
515.0
 21
472.0
 31
0.0
  0
LINE
  8
0
 10
524.0
 20
472.0
 30
0.0
 11
530.0
 21
472.0
 31
0.0
  0
LINE
  8
0
 10
530.0
 20
472.0
 30
0.0
 11
530.0
 21
471.0
 31
0.0
  0
LINE
  8
0
 10
530.0
 20
471.0
 30
0.0
 11
524.0
 21
471.0
 31
0.0
  0
LINE
  8
0
 10
524.0
 20
471.0
 30
0.0
 11
524.0
 21
472.0
 31
0.0
  0
LINE
  8
0
 10
490.0
 20
471.0
 30
0.0
 11
496.0
 21
471.0
 31
0.0
  0
LINE
  8
0
 10
496.0
 20
471.0
 30
0.0
 11
496.0
 21
470.0
 31
0.0
  0
LINE
  8
0
 10
496.0
 20
470.0
 30
0.0
 11
490.0
 21
470.0
 31
0.0
  0
LINE
  8
0
 10
490.0
 20
470.0
 30
0.0
 11
490.0
 21
471.0
 31
0.0
  0
LINE
  8
0
 10
498.0
 20
471.0
 30
0.0
 11
507.0
 21
471.0
 31
0.0
  0
LINE
  8
0
 10
507.0
 20
471.0
 30
0.0
 11
507.0
 21
470.0
 31
0.0
  0
LINE
  8
0
 10
507.0
 20
470.0
 30
0.0
 11
498.0
 21
470.0
 31
0.0
  0
LINE
  8
0
 10
498.0
 20
470.0
 30
0.0
 11
498.0
 21
471.0
 31
0.0
  0
LINE
  8
0
 10
508.0
 20
471.0
 30
0.0
 11
513.0
 21
471.0
 31
0.0
  0
LINE
  8
0
 10
513.0
 20
471.0
 30
0.0
 11
513.0
 21
470.0
 31
0.0
  0
LINE
  8
0
 10
513.0
 20
470.0
 30
0.0
 11
508.0
 21
470.0
 31
0.0
  0
LINE
  8
0
 10
508.0
 20
470.0
 30
0.0
 11
508.0
 21
471.0
 31
0.0
  0
LINE
  8
0
 10
516.0
 20
471.0
 30
0.0
 11
523.0
 21
471.0
 31
0.0
  0
LINE
  8
0
 10
523.0
 20
471.0
 30
0.0
 11
523.0
 21
470.0
 31
0.0
  0
LINE
  8
0
 10
523.0
 20
470.0
 30
0.0
 11
516.0
 21
470.0
 31
0.0
  0
LINE
  8
0
 10
516.0
 20
470.0
 30
0.0
 11
516.0
 21
471.0
 31
0.0
  0
LINE
  8
0
 10
525.0
 20
471.0
 30
0.0
 11
530.0
 21
471.0
 31
0.0
  0
LINE
  8
0
 10
530.0
 20
471.0
 30
0.0
 11
530.0
 21
470.0
 31
0.0
  0
LINE
  8
0
 10
530.0
 20
470.0
 30
0.0
 11
525.0
 21
470.0
 31
0.0
  0
LINE
  8
0
 10
525.0
 20
470.0
 30
0.0
 11
525.0
 21
471.0
 31
0.0
  0
LINE
  8
0
 10
490.0
 20
470.0
 30
0.0
 11
496.0
 21
470.0
 31
0.0
  0
LINE
  8
0
 10
496.0
 20
470.0
 30
0.0
 11
496.0
 21
469.0
 31
0.0
  0
LINE
  8
0
 10
496.0
 20
469.0
 30
0.0
 11
490.0
 21
469.0
 31
0.0
  0
LINE
  8
0
 10
490.0
 20
469.0
 30
0.0
 11
490.0
 21
470.0
 31
0.0
  0
LINE
  8
0
 10
498.0
 20
470.0
 30
0.0
 11
502.0
 21
470.0
 31
0.0
  0
LINE
  8
0
 10
502.0
 20
470.0
 30
0.0
 11
502.0
 21
469.0
 31
0.0
  0
LINE
  8
0
 10
502.0
 20
469.0
 30
0.0
 11
498.0
 21
469.0
 31
0.0
  0
LINE
  8
0
 10
498.0
 20
469.0
 30
0.0
 11
498.0
 21
470.0
 31
0.0
  0
LINE
  8
0
 10
503.0
 20
470.0
 30
0.0
 11
507.0
 21
470.0
 31
0.0
  0
LINE
  8
0
 10
507.0
 20
470.0
 30
0.0
 11
507.0
 21
469.0
 31
0.0
  0
LINE
  8
0
 10
507.0
 20
469.0
 30
0.0
 11
503.0
 21
469.0
 31
0.0
  0
LINE
  8
0
 10
503.0
 20
469.0
 30
0.0
 11
503.0
 21
470.0
 31
0.0
  0
LINE
  8
0
 10
509.0
 20
470.0
 30
0.0
 11
514.0
 21
470.0
 31
0.0
  0
LINE
  8
0
 10
514.0
 20
470.0
 30
0.0
 11
514.0
 21
469.0
 31
0.0
  0
LINE
  8
0
 10
514.0
 20
469.0
 30
0.0
 11
509.0
 21
469.0
 31
0.0
  0
LINE
  8
0
 10
509.0
 20
469.0
 30
0.0
 11
509.0
 21
470.0
 31
0.0
  0
LINE
  8
0
 10
517.0
 20
470.0
 30
0.0
 11
524.0
 21
470.0
 31
0.0
  0
LINE
  8
0
 10
524.0
 20
470.0
 30
0.0
 11
524.0
 21
469.0
 31
0.0
  0
LINE
  8
0
 10
524.0
 20
469.0
 30
0.0
 11
517.0
 21
469.0
 31
0.0
  0
LINE
  8
0
 10
517.0
 20
469.0
 30
0.0
 11
517.0
 21
470.0
 31
0.0
  0
LINE
  8
0
 10
525.0
 20
470.0
 30
0.0
 11
531.0
 21
470.0
 31
0.0
  0
LINE
  8
0
 10
531.0
 20
470.0
 30
0.0
 11
531.0
 21
469.0
 31
0.0
  0
LINE
  8
0
 10
531.0
 20
469.0
 30
0.0
 11
525.0
 21
469.0
 31
0.0
  0
LINE
  8
0
 10
525.0
 20
469.0
 30
0.0
 11
525.0
 21
470.0
 31
0.0
  0
LINE
  8
0
 10
489.0
 20
469.0
 30
0.0
 11
495.0
 21
469.0
 31
0.0
  0
LINE
  8
0
 10
495.0
 20
469.0
 30
0.0
 11
495.0
 21
468.0
 31
0.0
  0
LINE
  8
0
 10
495.0
 20
468.0
 30
0.0
 11
489.0
 21
468.0
 31
0.0
  0
LINE
  8
0
 10
489.0
 20
468.0
 30
0.0
 11
489.0
 21
469.0
 31
0.0
  0
LINE
  8
0
 10
498.0
 20
469.0
 30
0.0
 11
502.0
 21
469.0
 31
0.0
  0
LINE
  8
0
 10
502.0
 20
469.0
 30
0.0
 11
502.0
 21
468.0
 31
0.0
  0
LINE
  8
0
 10
502.0
 20
468.0
 30
0.0
 11
498.0
 21
468.0
 31
0.0
  0
LINE
  8
0
 10
498.0
 20
468.0
 30
0.0
 11
498.0
 21
469.0
 31
0.0
  0
LINE
  8
0
 10
503.0
 20
469.0
 30
0.0
 11
507.0
 21
469.0
 31
0.0
  0
LINE
  8
0
 10
507.0
 20
469.0
 30
0.0
 11
507.0
 21
468.0
 31
0.0
  0
LINE
  8
0
 10
507.0
 20
468.0
 30
0.0
 11
503.0
 21
468.0
 31
0.0
  0
LINE
  8
0
 10
503.0
 20
468.0
 30
0.0
 11
503.0
 21
469.0
 31
0.0
  0
LINE
  8
0
 10
510.0
 20
469.0
 30
0.0
 11
514.0
 21
469.0
 31
0.0
  0
LINE
  8
0
 10
514.0
 20
469.0
 30
0.0
 11
514.0
 21
468.0
 31
0.0
  0
LINE
  8
0
 10
514.0
 20
468.0
 30
0.0
 11
510.0
 21
468.0
 31
0.0
  0
LINE
  8
0
 10
510.0
 20
468.0
 30
0.0
 11
510.0
 21
469.0
 31
0.0
  0
LINE
  8
0
 10
518.0
 20
469.0
 30
0.0
 11
525.0
 21
469.0
 31
0.0
  0
LINE
  8
0
 10
525.0
 20
469.0
 30
0.0
 11
525.0
 21
468.0
 31
0.0
  0
LINE
  8
0
 10
525.0
 20
468.0
 30
0.0
 11
518.0
 21
468.0
 31
0.0
  0
LINE
  8
0
 10
518.0
 20
468.0
 30
0.0
 11
518.0
 21
469.0
 31
0.0
  0
LINE
  8
0
 10
526.0
 20
469.0
 30
0.0
 11
532.0
 21
469.0
 31
0.0
  0
LINE
  8
0
 10
532.0
 20
469.0
 30
0.0
 11
532.0
 21
468.0
 31
0.0
  0
LINE
  8
0
 10
532.0
 20
468.0
 30
0.0
 11
526.0
 21
468.0
 31
0.0
  0
LINE
  8
0
 10
526.0
 20
468.0
 30
0.0
 11
526.0
 21
469.0
 31
0.0
  0
LINE
  8
0
 10
489.0
 20
468.0
 30
0.0
 11
495.0
 21
468.0
 31
0.0
  0
LINE
  8
0
 10
495.0
 20
468.0
 30
0.0
 11
495.0
 21
467.0
 31
0.0
  0
LINE
  8
0
 10
495.0
 20
467.0
 30
0.0
 11
489.0
 21
467.0
 31
0.0
  0
LINE
  8
0
 10
489.0
 20
467.0
 30
0.0
 11
489.0
 21
468.0
 31
0.0
  0
LINE
  8
0
 10
496.0
 20
468.0
 30
0.0
 11
497.0
 21
468.0
 31
0.0
  0
LINE
  8
0
 10
497.0
 20
468.0
 30
0.0
 11
497.0
 21
467.0
 31
0.0
  0
LINE
  8
0
 10
497.0
 20
467.0
 30
0.0
 11
496.0
 21
467.0
 31
0.0
  0
LINE
  8
0
 10
496.0
 20
467.0
 30
0.0
 11
496.0
 21
468.0
 31
0.0
  0
LINE
  8
0
 10
498.0
 20
468.0
 30
0.0
 11
502.0
 21
468.0
 31
0.0
  0
LINE
  8
0
 10
502.0
 20
468.0
 30
0.0
 11
502.0
 21
467.0
 31
0.0
  0
LINE
  8
0
 10
502.0
 20
467.0
 30
0.0
 11
498.0
 21
467.0
 31
0.0
  0
LINE
  8
0
 10
498.0
 20
467.0
 30
0.0
 11
498.0
 21
468.0
 31
0.0
  0
LINE
  8
0
 10
503.0
 20
468.0
 30
0.0
 11
507.0
 21
468.0
 31
0.0
  0
LINE
  8
0
 10
507.0
 20
468.0
 30
0.0
 11
507.0
 21
467.0
 31
0.0
  0
LINE
  8
0
 10
507.0
 20
467.0
 30
0.0
 11
503.0
 21
467.0
 31
0.0
  0
LINE
  8
0
 10
503.0
 20
467.0
 30
0.0
 11
503.0
 21
468.0
 31
0.0
  0
LINE
  8
0
 10
510.0
 20
468.0
 30
0.0
 11
514.0
 21
468.0
 31
0.0
  0
LINE
  8
0
 10
514.0
 20
468.0
 30
0.0
 11
514.0
 21
467.0
 31
0.0
  0
LINE
  8
0
 10
514.0
 20
467.0
 30
0.0
 11
510.0
 21
467.0
 31
0.0
  0
LINE
  8
0
 10
510.0
 20
467.0
 30
0.0
 11
510.0
 21
468.0
 31
0.0
  0
LINE
  8
0
 10
519.0
 20
468.0
 30
0.0
 11
532.0
 21
468.0
 31
0.0
  0
LINE
  8
0
 10
532.0
 20
468.0
 30
0.0
 11
532.0
 21
467.0
 31
0.0
  0
LINE
  8
0
 10
532.0
 20
467.0
 30
0.0
 11
519.0
 21
467.0
 31
0.0
  0
LINE
  8
0
 10
519.0
 20
467.0
 30
0.0
 11
519.0
 21
468.0
 31
0.0
  0
LINE
  8
0
 10
489.0
 20
467.0
 30
0.0
 11
494.0
 21
467.0
 31
0.0
  0
LINE
  8
0
 10
494.0
 20
467.0
 30
0.0
 11
494.0
 21
466.0
 31
0.0
  0
LINE
  8
0
 10
494.0
 20
466.0
 30
0.0
 11
489.0
 21
466.0
 31
0.0
  0
LINE
  8
0
 10
489.0
 20
466.0
 30
0.0
 11
489.0
 21
467.0
 31
0.0
  0
LINE
  8
0
 10
496.0
 20
467.0
 30
0.0
 11
497.0
 21
467.0
 31
0.0
  0
LINE
  8
0
 10
497.0
 20
467.0
 30
0.0
 11
497.0
 21
466.0
 31
0.0
  0
LINE
  8
0
 10
497.0
 20
466.0
 30
0.0
 11
496.0
 21
466.0
 31
0.0
  0
LINE
  8
0
 10
496.0
 20
466.0
 30
0.0
 11
496.0
 21
467.0
 31
0.0
  0
LINE
  8
0
 10
498.0
 20
467.0
 30
0.0
 11
501.0
 21
467.0
 31
0.0
  0
LINE
  8
0
 10
501.0
 20
467.0
 30
0.0
 11
501.0
 21
466.0
 31
0.0
  0
LINE
  8
0
 10
501.0
 20
466.0
 30
0.0
 11
498.0
 21
466.0
 31
0.0
  0
LINE
  8
0
 10
498.0
 20
466.0
 30
0.0
 11
498.0
 21
467.0
 31
0.0
  0
LINE
  8
0
 10
503.0
 20
467.0
 30
0.0
 11
507.0
 21
467.0
 31
0.0
  0
LINE
  8
0
 10
507.0
 20
467.0
 30
0.0
 11
507.0
 21
466.0
 31
0.0
  0
LINE
  8
0
 10
507.0
 20
466.0
 30
0.0
 11
503.0
 21
466.0
 31
0.0
  0
LINE
  8
0
 10
503.0
 20
466.0
 30
0.0
 11
503.0
 21
467.0
 31
0.0
  0
LINE
  8
0
 10
511.0
 20
467.0
 30
0.0
 11
513.0
 21
467.0
 31
0.0
  0
LINE
  8
0
 10
513.0
 20
467.0
 30
0.0
 11
513.0
 21
466.0
 31
0.0
  0
LINE
  8
0
 10
513.0
 20
466.0
 30
0.0
 11
511.0
 21
466.0
 31
0.0
  0
LINE
  8
0
 10
511.0
 20
466.0
 30
0.0
 11
511.0
 21
467.0
 31
0.0
  0
LINE
  8
0
 10
519.0
 20
467.0
 30
0.0
 11
533.0
 21
467.0
 31
0.0
  0
LINE
  8
0
 10
533.0
 20
467.0
 30
0.0
 11
533.0
 21
466.0
 31
0.0
  0
LINE
  8
0
 10
533.0
 20
466.0
 30
0.0
 11
519.0
 21
466.0
 31
0.0
  0
LINE
  8
0
 10
519.0
 20
466.0
 30
0.0
 11
519.0
 21
467.0
 31
0.0
  0
LINE
  8
0
 10
488.0
 20
466.0
 30
0.0
 11
494.0
 21
466.0
 31
0.0
  0
LINE
  8
0
 10
494.0
 20
466.0
 30
0.0
 11
494.0
 21
465.0
 31
0.0
  0
LINE
  8
0
 10
494.0
 20
465.0
 30
0.0
 11
488.0
 21
465.0
 31
0.0
  0
LINE
  8
0
 10
488.0
 20
465.0
 30
0.0
 11
488.0
 21
466.0
 31
0.0
  0
LINE
  8
0
 10
498.0
 20
466.0
 30
0.0
 11
501.0
 21
466.0
 31
0.0
  0
LINE
  8
0
 10
501.0
 20
466.0
 30
0.0
 11
501.0
 21
465.0
 31
0.0
  0
LINE
  8
0
 10
501.0
 20
465.0
 30
0.0
 11
498.0
 21
465.0
 31
0.0
  0
LINE
  8
0
 10
498.0
 20
465.0
 30
0.0
 11
498.0
 21
466.0
 31
0.0
  0
LINE
  8
0
 10
503.0
 20
466.0
 30
0.0
 11
507.0
 21
466.0
 31
0.0
  0
LINE
  8
0
 10
507.0
 20
466.0
 30
0.0
 11
507.0
 21
465.0
 31
0.0
  0
LINE
  8
0
 10
507.0
 20
465.0
 30
0.0
 11
503.0
 21
465.0
 31
0.0
  0
LINE
  8
0
 10
503.0
 20
465.0
 30
0.0
 11
503.0
 21
466.0
 31
0.0
  0
LINE
  8
0
 10
511.0
 20
466.0
 30
0.0
 11
515.0
 21
466.0
 31
0.0
  0
LINE
  8
0
 10
515.0
 20
466.0
 30
0.0
 11
515.0
 21
465.0
 31
0.0
  0
LINE
  8
0
 10
515.0
 20
465.0
 30
0.0
 11
511.0
 21
465.0
 31
0.0
  0
LINE
  8
0
 10
511.0
 20
465.0
 30
0.0
 11
511.0
 21
466.0
 31
0.0
  0
LINE
  8
0
 10
520.0
 20
466.0
 30
0.0
 11
533.0
 21
466.0
 31
0.0
  0
LINE
  8
0
 10
533.0
 20
466.0
 30
0.0
 11
533.0
 21
465.0
 31
0.0
  0
LINE
  8
0
 10
533.0
 20
465.0
 30
0.0
 11
520.0
 21
465.0
 31
0.0
  0
LINE
  8
0
 10
520.0
 20
465.0
 30
0.0
 11
520.0
 21
466.0
 31
0.0
  0
LINE
  8
0
 10
488.0
 20
465.0
 30
0.0
 11
494.0
 21
465.0
 31
0.0
  0
LINE
  8
0
 10
494.0
 20
465.0
 30
0.0
 11
494.0
 21
464.0
 31
0.0
  0
LINE
  8
0
 10
494.0
 20
464.0
 30
0.0
 11
488.0
 21
464.0
 31
0.0
  0
LINE
  8
0
 10
488.0
 20
464.0
 30
0.0
 11
488.0
 21
465.0
 31
0.0
  0
LINE
  8
0
 10
497.0
 20
465.0
 30
0.0
 11
501.0
 21
465.0
 31
0.0
  0
LINE
  8
0
 10
501.0
 20
465.0
 30
0.0
 11
501.0
 21
464.0
 31
0.0
  0
LINE
  8
0
 10
501.0
 20
464.0
 30
0.0
 11
497.0
 21
464.0
 31
0.0
  0
LINE
  8
0
 10
497.0
 20
464.0
 30
0.0
 11
497.0
 21
465.0
 31
0.0
  0
LINE
  8
0
 10
504.0
 20
465.0
 30
0.0
 11
506.0
 21
465.0
 31
0.0
  0
LINE
  8
0
 10
506.0
 20
465.0
 30
0.0
 11
506.0
 21
464.0
 31
0.0
  0
LINE
  8
0
 10
506.0
 20
464.0
 30
0.0
 11
504.0
 21
464.0
 31
0.0
  0
LINE
  8
0
 10
504.0
 20
464.0
 30
0.0
 11
504.0
 21
465.0
 31
0.0
  0
LINE
  8
0
 10
513.0
 20
465.0
 30
0.0
 11
515.0
 21
465.0
 31
0.0
  0
LINE
  8
0
 10
515.0
 20
465.0
 30
0.0
 11
515.0
 21
464.0
 31
0.0
  0
LINE
  8
0
 10
515.0
 20
464.0
 30
0.0
 11
513.0
 21
464.0
 31
0.0
  0
LINE
  8
0
 10
513.0
 20
464.0
 30
0.0
 11
513.0
 21
465.0
 31
0.0
  0
LINE
  8
0
 10
521.0
 20
465.0
 30
0.0
 11
533.0
 21
465.0
 31
0.0
  0
LINE
  8
0
 10
533.0
 20
465.0
 30
0.0
 11
533.0
 21
464.0
 31
0.0
  0
LINE
  8
0
 10
533.0
 20
464.0
 30
0.0
 11
521.0
 21
464.0
 31
0.0
  0
LINE
  8
0
 10
521.0
 20
464.0
 30
0.0
 11
521.0
 21
465.0
 31
0.0
  0
LINE
  8
0
 10
488.0
 20
464.0
 30
0.0
 11
493.0
 21
464.0
 31
0.0
  0
LINE
  8
0
 10
493.0
 20
464.0
 30
0.0
 11
493.0
 21
463.0
 31
0.0
  0
LINE
  8
0
 10
493.0
 20
463.0
 30
0.0
 11
488.0
 21
463.0
 31
0.0
  0
LINE
  8
0
 10
488.0
 20
463.0
 30
0.0
 11
488.0
 21
464.0
 31
0.0
  0
LINE
  8
0
 10
497.0
 20
464.0
 30
0.0
 11
501.0
 21
464.0
 31
0.0
  0
LINE
  8
0
 10
501.0
 20
464.0
 30
0.0
 11
501.0
 21
463.0
 31
0.0
  0
LINE
  8
0
 10
501.0
 20
463.0
 30
0.0
 11
497.0
 21
463.0
 31
0.0
  0
LINE
  8
0
 10
497.0
 20
463.0
 30
0.0
 11
497.0
 21
464.0
 31
0.0
  0
LINE
  8
0
 10
505.0
 20
464.0
 30
0.0
 11
508.0
 21
464.0
 31
0.0
  0
LINE
  8
0
 10
508.0
 20
464.0
 30
0.0
 11
508.0
 21
463.0
 31
0.0
  0
LINE
  8
0
 10
508.0
 20
463.0
 30
0.0
 11
505.0
 21
463.0
 31
0.0
  0
LINE
  8
0
 10
505.0
 20
463.0
 30
0.0
 11
505.0
 21
464.0
 31
0.0
  0
LINE
  8
0
 10
513.0
 20
464.0
 30
0.0
 11
516.0
 21
464.0
 31
0.0
  0
LINE
  8
0
 10
516.0
 20
464.0
 30
0.0
 11
516.0
 21
463.0
 31
0.0
  0
LINE
  8
0
 10
516.0
 20
463.0
 30
0.0
 11
513.0
 21
463.0
 31
0.0
  0
LINE
  8
0
 10
513.0
 20
463.0
 30
0.0
 11
513.0
 21
464.0
 31
0.0
  0
LINE
  8
0
 10
521.0
 20
464.0
 30
0.0
 11
534.0
 21
464.0
 31
0.0
  0
LINE
  8
0
 10
534.0
 20
464.0
 30
0.0
 11
534.0
 21
463.0
 31
0.0
  0
LINE
  8
0
 10
534.0
 20
463.0
 30
0.0
 11
521.0
 21
463.0
 31
0.0
  0
LINE
  8
0
 10
521.0
 20
463.0
 30
0.0
 11
521.0
 21
464.0
 31
0.0
  0
LINE
  8
0
 10
487.0
 20
463.0
 30
0.0
 11
493.0
 21
463.0
 31
0.0
  0
LINE
  8
0
 10
493.0
 20
463.0
 30
0.0
 11
493.0
 21
462.0
 31
0.0
  0
LINE
  8
0
 10
493.0
 20
462.0
 30
0.0
 11
487.0
 21
462.0
 31
0.0
  0
LINE
  8
0
 10
487.0
 20
462.0
 30
0.0
 11
487.0
 21
463.0
 31
0.0
  0
LINE
  8
0
 10
494.0
 20
463.0
 30
0.0
 11
495.0
 21
463.0
 31
0.0
  0
LINE
  8
0
 10
495.0
 20
463.0
 30
0.0
 11
495.0
 21
462.0
 31
0.0
  0
LINE
  8
0
 10
495.0
 20
462.0
 30
0.0
 11
494.0
 21
462.0
 31
0.0
  0
LINE
  8
0
 10
494.0
 20
462.0
 30
0.0
 11
494.0
 21
463.0
 31
0.0
  0
LINE
  8
0
 10
496.0
 20
463.0
 30
0.0
 11
500.0
 21
463.0
 31
0.0
  0
LINE
  8
0
 10
500.0
 20
463.0
 30
0.0
 11
500.0
 21
462.0
 31
0.0
  0
LINE
  8
0
 10
500.0
 20
462.0
 30
0.0
 11
496.0
 21
462.0
 31
0.0
  0
LINE
  8
0
 10
496.0
 20
462.0
 30
0.0
 11
496.0
 21
463.0
 31
0.0
  0
LINE
  8
0
 10
505.0
 20
463.0
 30
0.0
 11
508.0
 21
463.0
 31
0.0
  0
LINE
  8
0
 10
508.0
 20
463.0
 30
0.0
 11
508.0
 21
462.0
 31
0.0
  0
LINE
  8
0
 10
508.0
 20
462.0
 30
0.0
 11
505.0
 21
462.0
 31
0.0
  0
LINE
  8
0
 10
505.0
 20
462.0
 30
0.0
 11
505.0
 21
463.0
 31
0.0
  0
LINE
  8
0
 10
513.0
 20
463.0
 30
0.0
 11
517.0
 21
463.0
 31
0.0
  0
LINE
  8
0
 10
517.0
 20
463.0
 30
0.0
 11
517.0
 21
462.0
 31
0.0
  0
LINE
  8
0
 10
517.0
 20
462.0
 30
0.0
 11
513.0
 21
462.0
 31
0.0
  0
LINE
  8
0
 10
513.0
 20
462.0
 30
0.0
 11
513.0
 21
463.0
 31
0.0
  0
LINE
  8
0
 10
522.0
 20
463.0
 30
0.0
 11
534.0
 21
463.0
 31
0.0
  0
LINE
  8
0
 10
534.0
 20
463.0
 30
0.0
 11
534.0
 21
462.0
 31
0.0
  0
LINE
  8
0
 10
534.0
 20
462.0
 30
0.0
 11
522.0
 21
462.0
 31
0.0
  0
LINE
  8
0
 10
522.0
 20
462.0
 30
0.0
 11
522.0
 21
463.0
 31
0.0
  0
LINE
  8
0
 10
487.0
 20
462.0
 30
0.0
 11
493.0
 21
462.0
 31
0.0
  0
LINE
  8
0
 10
493.0
 20
462.0
 30
0.0
 11
493.0
 21
461.0
 31
0.0
  0
LINE
  8
0
 10
493.0
 20
461.0
 30
0.0
 11
487.0
 21
461.0
 31
0.0
  0
LINE
  8
0
 10
487.0
 20
461.0
 30
0.0
 11
487.0
 21
462.0
 31
0.0
  0
LINE
  8
0
 10
495.0
 20
462.0
 30
0.0
 11
500.0
 21
462.0
 31
0.0
  0
LINE
  8
0
 10
500.0
 20
462.0
 30
0.0
 11
500.0
 21
461.0
 31
0.0
  0
LINE
  8
0
 10
500.0
 20
461.0
 30
0.0
 11
495.0
 21
461.0
 31
0.0
  0
LINE
  8
0
 10
495.0
 20
461.0
 30
0.0
 11
495.0
 21
462.0
 31
0.0
  0
LINE
  8
0
 10
505.0
 20
462.0
 30
0.0
 11
508.0
 21
462.0
 31
0.0
  0
LINE
  8
0
 10
508.0
 20
462.0
 30
0.0
 11
508.0
 21
461.0
 31
0.0
  0
LINE
  8
0
 10
508.0
 20
461.0
 30
0.0
 11
505.0
 21
461.0
 31
0.0
  0
LINE
  8
0
 10
505.0
 20
461.0
 30
0.0
 11
505.0
 21
462.0
 31
0.0
  0
LINE
  8
0
 10
513.0
 20
462.0
 30
0.0
 11
517.0
 21
462.0
 31
0.0
  0
LINE
  8
0
 10
517.0
 20
462.0
 30
0.0
 11
517.0
 21
461.0
 31
0.0
  0
LINE
  8
0
 10
517.0
 20
461.0
 30
0.0
 11
513.0
 21
461.0
 31
0.0
  0
LINE
  8
0
 10
513.0
 20
461.0
 30
0.0
 11
513.0
 21
462.0
 31
0.0
  0
LINE
  8
0
 10
522.0
 20
462.0
 30
0.0
 11
534.0
 21
462.0
 31
0.0
  0
LINE
  8
0
 10
534.0
 20
462.0
 30
0.0
 11
534.0
 21
461.0
 31
0.0
  0
LINE
  8
0
 10
534.0
 20
461.0
 30
0.0
 11
522.0
 21
461.0
 31
0.0
  0
LINE
  8
0
 10
522.0
 20
461.0
 30
0.0
 11
522.0
 21
462.0
 31
0.0
  0
LINE
  8
0
 10
487.0
 20
461.0
 30
0.0
 11
492.0
 21
461.0
 31
0.0
  0
LINE
  8
0
 10
492.0
 20
461.0
 30
0.0
 11
492.0
 21
460.0
 31
0.0
  0
LINE
  8
0
 10
492.0
 20
460.0
 30
0.0
 11
487.0
 21
460.0
 31
0.0
  0
LINE
  8
0
 10
487.0
 20
460.0
 30
0.0
 11
487.0
 21
461.0
 31
0.0
  0
LINE
  8
0
 10
495.0
 20
461.0
 30
0.0
 11
500.0
 21
461.0
 31
0.0
  0
LINE
  8
0
 10
500.0
 20
461.0
 30
0.0
 11
500.0
 21
460.0
 31
0.0
  0
LINE
  8
0
 10
500.0
 20
460.0
 30
0.0
 11
495.0
 21
460.0
 31
0.0
  0
LINE
  8
0
 10
495.0
 20
460.0
 30
0.0
 11
495.0
 21
461.0
 31
0.0
  0
LINE
  8
0
 10
505.0
 20
461.0
 30
0.0
 11
508.0
 21
461.0
 31
0.0
  0
LINE
  8
0
 10
508.0
 20
461.0
 30
0.0
 11
508.0
 21
460.0
 31
0.0
  0
LINE
  8
0
 10
508.0
 20
460.0
 30
0.0
 11
505.0
 21
460.0
 31
0.0
  0
LINE
  8
0
 10
505.0
 20
460.0
 30
0.0
 11
505.0
 21
461.0
 31
0.0
  0
LINE
  8
0
 10
513.0
 20
461.0
 30
0.0
 11
517.0
 21
461.0
 31
0.0
  0
LINE
  8
0
 10
517.0
 20
461.0
 30
0.0
 11
517.0
 21
460.0
 31
0.0
  0
LINE
  8
0
 10
517.0
 20
460.0
 30
0.0
 11
513.0
 21
460.0
 31
0.0
  0
LINE
  8
0
 10
513.0
 20
460.0
 30
0.0
 11
513.0
 21
461.0
 31
0.0
  0
LINE
  8
0
 10
523.0
 20
461.0
 30
0.0
 11
535.0
 21
461.0
 31
0.0
  0
LINE
  8
0
 10
535.0
 20
461.0
 30
0.0
 11
535.0
 21
460.0
 31
0.0
  0
LINE
  8
0
 10
535.0
 20
460.0
 30
0.0
 11
523.0
 21
460.0
 31
0.0
  0
LINE
  8
0
 10
523.0
 20
460.0
 30
0.0
 11
523.0
 21
461.0
 31
0.0
  0
LINE
  8
0
 10
487.0
 20
460.0
 30
0.0
 11
492.0
 21
460.0
 31
0.0
  0
LINE
  8
0
 10
492.0
 20
460.0
 30
0.0
 11
492.0
 21
459.0
 31
0.0
  0
LINE
  8
0
 10
492.0
 20
459.0
 30
0.0
 11
487.0
 21
459.0
 31
0.0
  0
LINE
  8
0
 10
487.0
 20
459.0
 30
0.0
 11
487.0
 21
460.0
 31
0.0
  0
LINE
  8
0
 10
494.0
 20
460.0
 30
0.0
 11
500.0
 21
460.0
 31
0.0
  0
LINE
  8
0
 10
500.0
 20
460.0
 30
0.0
 11
500.0
 21
459.0
 31
0.0
  0
LINE
  8
0
 10
500.0
 20
459.0
 30
0.0
 11
494.0
 21
459.0
 31
0.0
  0
LINE
  8
0
 10
494.0
 20
459.0
 30
0.0
 11
494.0
 21
460.0
 31
0.0
  0
LINE
  8
0
 10
505.0
 20
460.0
 30
0.0
 11
508.0
 21
460.0
 31
0.0
  0
LINE
  8
0
 10
508.0
 20
460.0
 30
0.0
 11
508.0
 21
459.0
 31
0.0
  0
LINE
  8
0
 10
508.0
 20
459.0
 30
0.0
 11
505.0
 21
459.0
 31
0.0
  0
LINE
  8
0
 10
505.0
 20
459.0
 30
0.0
 11
505.0
 21
460.0
 31
0.0
  0
LINE
  8
0
 10
513.0
 20
460.0
 30
0.0
 11
518.0
 21
460.0
 31
0.0
  0
LINE
  8
0
 10
518.0
 20
460.0
 30
0.0
 11
518.0
 21
459.0
 31
0.0
  0
LINE
  8
0
 10
518.0
 20
459.0
 30
0.0
 11
513.0
 21
459.0
 31
0.0
  0
LINE
  8
0
 10
513.0
 20
459.0
 30
0.0
 11
513.0
 21
460.0
 31
0.0
  0
LINE
  8
0
 10
523.0
 20
460.0
 30
0.0
 11
535.0
 21
460.0
 31
0.0
  0
LINE
  8
0
 10
535.0
 20
460.0
 30
0.0
 11
535.0
 21
459.0
 31
0.0
  0
LINE
  8
0
 10
535.0
 20
459.0
 30
0.0
 11
523.0
 21
459.0
 31
0.0
  0
LINE
  8
0
 10
523.0
 20
459.0
 30
0.0
 11
523.0
 21
460.0
 31
0.0
  0
LINE
  8
0
 10
486.0
 20
459.0
 30
0.0
 11
492.0
 21
459.0
 31
0.0
  0
LINE
  8
0
 10
492.0
 20
459.0
 30
0.0
 11
492.0
 21
458.0
 31
0.0
  0
LINE
  8
0
 10
492.0
 20
458.0
 30
0.0
 11
486.0
 21
458.0
 31
0.0
  0
LINE
  8
0
 10
486.0
 20
458.0
 30
0.0
 11
486.0
 21
459.0
 31
0.0
  0
LINE
  8
0
 10
493.0
 20
459.0
 30
0.0
 11
500.0
 21
459.0
 31
0.0
  0
LINE
  8
0
 10
500.0
 20
459.0
 30
0.0
 11
500.0
 21
458.0
 31
0.0
  0
LINE
  8
0
 10
500.0
 20
458.0
 30
0.0
 11
493.0
 21
458.0
 31
0.0
  0
LINE
  8
0
 10
493.0
 20
458.0
 30
0.0
 11
493.0
 21
459.0
 31
0.0
  0
LINE
  8
0
 10
505.0
 20
459.0
 30
0.0
 11
508.0
 21
459.0
 31
0.0
  0
LINE
  8
0
 10
508.0
 20
459.0
 30
0.0
 11
508.0
 21
458.0
 31
0.0
  0
LINE
  8
0
 10
508.0
 20
458.0
 30
0.0
 11
505.0
 21
458.0
 31
0.0
  0
LINE
  8
0
 10
505.0
 20
458.0
 30
0.0
 11
505.0
 21
459.0
 31
0.0
  0
LINE
  8
0
 10
513.0
 20
459.0
 30
0.0
 11
519.0
 21
459.0
 31
0.0
  0
LINE
  8
0
 10
519.0
 20
459.0
 30
0.0
 11
519.0
 21
458.0
 31
0.0
  0
LINE
  8
0
 10
519.0
 20
458.0
 30
0.0
 11
513.0
 21
458.0
 31
0.0
  0
LINE
  8
0
 10
513.0
 20
458.0
 30
0.0
 11
513.0
 21
459.0
 31
0.0
  0
LINE
  8
0
 10
524.0
 20
459.0
 30
0.0
 11
535.0
 21
459.0
 31
0.0
  0
LINE
  8
0
 10
535.0
 20
459.0
 30
0.0
 11
535.0
 21
458.0
 31
0.0
  0
LINE
  8
0
 10
535.0
 20
458.0
 30
0.0
 11
524.0
 21
458.0
 31
0.0
  0
LINE
  8
0
 10
524.0
 20
458.0
 30
0.0
 11
524.0
 21
459.0
 31
0.0
  0
LINE
  8
0
 10
486.0
 20
458.0
 30
0.0
 11
499.0
 21
458.0
 31
0.0
  0
LINE
  8
0
 10
499.0
 20
458.0
 30
0.0
 11
499.0
 21
457.0
 31
0.0
  0
LINE
  8
0
 10
499.0
 20
457.0
 30
0.0
 11
486.0
 21
457.0
 31
0.0
  0
LINE
  8
0
 10
486.0
 20
457.0
 30
0.0
 11
486.0
 21
458.0
 31
0.0
  0
LINE
  8
0
 10
504.0
 20
458.0
 30
0.0
 11
508.0
 21
458.0
 31
0.0
  0
LINE
  8
0
 10
508.0
 20
458.0
 30
0.0
 11
508.0
 21
457.0
 31
0.0
  0
LINE
  8
0
 10
508.0
 20
457.0
 30
0.0
 11
504.0
 21
457.0
 31
0.0
  0
LINE
  8
0
 10
504.0
 20
457.0
 30
0.0
 11
504.0
 21
458.0
 31
0.0
  0
LINE
  8
0
 10
514.0
 20
458.0
 30
0.0
 11
519.0
 21
458.0
 31
0.0
  0
LINE
  8
0
 10
519.0
 20
458.0
 30
0.0
 11
519.0
 21
457.0
 31
0.0
  0
LINE
  8
0
 10
519.0
 20
457.0
 30
0.0
 11
514.0
 21
457.0
 31
0.0
  0
LINE
  8
0
 10
514.0
 20
457.0
 30
0.0
 11
514.0
 21
458.0
 31
0.0
  0
LINE
  8
0
 10
524.0
 20
458.0
 30
0.0
 11
536.0
 21
458.0
 31
0.0
  0
LINE
  8
0
 10
536.0
 20
458.0
 30
0.0
 11
536.0
 21
457.0
 31
0.0
  0
LINE
  8
0
 10
536.0
 20
457.0
 30
0.0
 11
524.0
 21
457.0
 31
0.0
  0
LINE
  8
0
 10
524.0
 20
457.0
 30
0.0
 11
524.0
 21
458.0
 31
0.0
  0
LINE
  8
0
 10
486.0
 20
457.0
 30
0.0
 11
499.0
 21
457.0
 31
0.0
  0
LINE
  8
0
 10
499.0
 20
457.0
 30
0.0
 11
499.0
 21
456.0
 31
0.0
  0
LINE
  8
0
 10
499.0
 20
456.0
 30
0.0
 11
486.0
 21
456.0
 31
0.0
  0
LINE
  8
0
 10
486.0
 20
456.0
 30
0.0
 11
486.0
 21
457.0
 31
0.0
  0
LINE
  8
0
 10
504.0
 20
457.0
 30
0.0
 11
509.0
 21
457.0
 31
0.0
  0
LINE
  8
0
 10
509.0
 20
457.0
 30
0.0
 11
509.0
 21
456.0
 31
0.0
  0
LINE
  8
0
 10
509.0
 20
456.0
 30
0.0
 11
504.0
 21
456.0
 31
0.0
  0
LINE
  8
0
 10
504.0
 20
456.0
 30
0.0
 11
504.0
 21
457.0
 31
0.0
  0
LINE
  8
0
 10
514.0
 20
457.0
 30
0.0
 11
520.0
 21
457.0
 31
0.0
  0
LINE
  8
0
 10
520.0
 20
457.0
 30
0.0
 11
520.0
 21
456.0
 31
0.0
  0
LINE
  8
0
 10
520.0
 20
456.0
 30
0.0
 11
514.0
 21
456.0
 31
0.0
  0
LINE
  8
0
 10
514.0
 20
456.0
 30
0.0
 11
514.0
 21
457.0
 31
0.0
  0
LINE
  8
0
 10
524.0
 20
457.0
 30
0.0
 11
536.0
 21
457.0
 31
0.0
  0
LINE
  8
0
 10
536.0
 20
457.0
 30
0.0
 11
536.0
 21
456.0
 31
0.0
  0
LINE
  8
0
 10
536.0
 20
456.0
 30
0.0
 11
524.0
 21
456.0
 31
0.0
  0
LINE
  8
0
 10
524.0
 20
456.0
 30
0.0
 11
524.0
 21
457.0
 31
0.0
  0
LINE
  8
0
 10
486.0
 20
456.0
 30
0.0
 11
499.0
 21
456.0
 31
0.0
  0
LINE
  8
0
 10
499.0
 20
456.0
 30
0.0
 11
499.0
 21
455.0
 31
0.0
  0
LINE
  8
0
 10
499.0
 20
455.0
 30
0.0
 11
486.0
 21
455.0
 31
0.0
  0
LINE
  8
0
 10
486.0
 20
455.0
 30
0.0
 11
486.0
 21
456.0
 31
0.0
  0
LINE
  8
0
 10
504.0
 20
456.0
 30
0.0
 11
509.0
 21
456.0
 31
0.0
  0
LINE
  8
0
 10
509.0
 20
456.0
 30
0.0
 11
509.0
 21
455.0
 31
0.0
  0
LINE
  8
0
 10
509.0
 20
455.0
 30
0.0
 11
504.0
 21
455.0
 31
0.0
  0
LINE
  8
0
 10
504.0
 20
455.0
 30
0.0
 11
504.0
 21
456.0
 31
0.0
  0
LINE
  8
0
 10
514.0
 20
456.0
 30
0.0
 11
520.0
 21
456.0
 31
0.0
  0
LINE
  8
0
 10
520.0
 20
456.0
 30
0.0
 11
520.0
 21
455.0
 31
0.0
  0
LINE
  8
0
 10
520.0
 20
455.0
 30
0.0
 11
514.0
 21
455.0
 31
0.0
  0
LINE
  8
0
 10
514.0
 20
455.0
 30
0.0
 11
514.0
 21
456.0
 31
0.0
  0
LINE
  8
0
 10
525.0
 20
456.0
 30
0.0
 11
530.0
 21
456.0
 31
0.0
  0
LINE
  8
0
 10
530.0
 20
456.0
 30
0.0
 11
530.0
 21
455.0
 31
0.0
  0
LINE
  8
0
 10
530.0
 20
455.0
 30
0.0
 11
525.0
 21
455.0
 31
0.0
  0
LINE
  8
0
 10
525.0
 20
455.0
 30
0.0
 11
525.0
 21
456.0
 31
0.0
  0
LINE
  8
0
 10
531.0
 20
456.0
 30
0.0
 11
536.0
 21
456.0
 31
0.0
  0
LINE
  8
0
 10
536.0
 20
456.0
 30
0.0
 11
536.0
 21
455.0
 31
0.0
  0
LINE
  8
0
 10
536.0
 20
455.0
 30
0.0
 11
531.0
 21
455.0
 31
0.0
  0
LINE
  8
0
 10
531.0
 20
455.0
 30
0.0
 11
531.0
 21
456.0
 31
0.0
  0
LINE
  8
0
 10
485.0
 20
455.0
 30
0.0
 11
499.0
 21
455.0
 31
0.0
  0
LINE
  8
0
 10
499.0
 20
455.0
 30
0.0
 11
499.0
 21
454.0
 31
0.0
  0
LINE
  8
0
 10
499.0
 20
454.0
 30
0.0
 11
485.0
 21
454.0
 31
0.0
  0
LINE
  8
0
 10
485.0
 20
454.0
 30
0.0
 11
485.0
 21
455.0
 31
0.0
  0
LINE
  8
0
 10
503.0
 20
455.0
 30
0.0
 11
509.0
 21
455.0
 31
0.0
  0
LINE
  8
0
 10
509.0
 20
455.0
 30
0.0
 11
509.0
 21
454.0
 31
0.0
  0
LINE
  8
0
 10
509.0
 20
454.0
 30
0.0
 11
503.0
 21
454.0
 31
0.0
  0
LINE
  8
0
 10
503.0
 20
454.0
 30
0.0
 11
503.0
 21
455.0
 31
0.0
  0
LINE
  8
0
 10
514.0
 20
455.0
 30
0.0
 11
521.0
 21
455.0
 31
0.0
  0
LINE
  8
0
 10
521.0
 20
455.0
 30
0.0
 11
521.0
 21
454.0
 31
0.0
  0
LINE
  8
0
 10
521.0
 20
454.0
 30
0.0
 11
514.0
 21
454.0
 31
0.0
  0
LINE
  8
0
 10
514.0
 20
454.0
 30
0.0
 11
514.0
 21
455.0
 31
0.0
  0
LINE
  8
0
 10
525.0
 20
455.0
 30
0.0
 11
531.0
 21
455.0
 31
0.0
  0
LINE
  8
0
 10
531.0
 20
455.0
 30
0.0
 11
531.0
 21
454.0
 31
0.0
  0
LINE
  8
0
 10
531.0
 20
454.0
 30
0.0
 11
525.0
 21
454.0
 31
0.0
  0
LINE
  8
0
 10
525.0
 20
454.0
 30
0.0
 11
525.0
 21
455.0
 31
0.0
  0
LINE
  8
0
 10
532.0
 20
455.0
 30
0.0
 11
536.0
 21
455.0
 31
0.0
  0
LINE
  8
0
 10
536.0
 20
455.0
 30
0.0
 11
536.0
 21
454.0
 31
0.0
  0
LINE
  8
0
 10
536.0
 20
454.0
 30
0.0
 11
532.0
 21
454.0
 31
0.0
  0
LINE
  8
0
 10
532.0
 20
454.0
 30
0.0
 11
532.0
 21
455.0
 31
0.0
  0
LINE
  8
0
 10
485.0
 20
454.0
 30
0.0
 11
499.0
 21
454.0
 31
0.0
  0
LINE
  8
0
 10
499.0
 20
454.0
 30
0.0
 11
499.0
 21
453.0
 31
0.0
  0
LINE
  8
0
 10
499.0
 20
453.0
 30
0.0
 11
485.0
 21
453.0
 31
0.0
  0
LINE
  8
0
 10
485.0
 20
453.0
 30
0.0
 11
485.0
 21
454.0
 31
0.0
  0
LINE
  8
0
 10
503.0
 20
454.0
 30
0.0
 11
509.0
 21
454.0
 31
0.0
  0
LINE
  8
0
 10
509.0
 20
454.0
 30
0.0
 11
509.0
 21
453.0
 31
0.0
  0
LINE
  8
0
 10
509.0
 20
453.0
 30
0.0
 11
503.0
 21
453.0
 31
0.0
  0
LINE
  8
0
 10
503.0
 20
453.0
 30
0.0
 11
503.0
 21
454.0
 31
0.0
  0
LINE
  8
0
 10
514.0
 20
454.0
 30
0.0
 11
522.0
 21
454.0
 31
0.0
  0
LINE
  8
0
 10
522.0
 20
454.0
 30
0.0
 11
522.0
 21
453.0
 31
0.0
  0
LINE
  8
0
 10
522.0
 20
453.0
 30
0.0
 11
514.0
 21
453.0
 31
0.0
  0
LINE
  8
0
 10
514.0
 20
453.0
 30
0.0
 11
514.0
 21
454.0
 31
0.0
  0
LINE
  8
0
 10
525.0
 20
454.0
 30
0.0
 11
531.0
 21
454.0
 31
0.0
  0
LINE
  8
0
 10
531.0
 20
454.0
 30
0.0
 11
531.0
 21
453.0
 31
0.0
  0
LINE
  8
0
 10
531.0
 20
453.0
 30
0.0
 11
525.0
 21
453.0
 31
0.0
  0
LINE
  8
0
 10
525.0
 20
453.0
 30
0.0
 11
525.0
 21
454.0
 31
0.0
  0
LINE
  8
0
 10
533.0
 20
454.0
 30
0.0
 11
537.0
 21
454.0
 31
0.0
  0
LINE
  8
0
 10
537.0
 20
454.0
 30
0.0
 11
537.0
 21
453.0
 31
0.0
  0
LINE
  8
0
 10
537.0
 20
453.0
 30
0.0
 11
533.0
 21
453.0
 31
0.0
  0
LINE
  8
0
 10
533.0
 20
453.0
 30
0.0
 11
533.0
 21
454.0
 31
0.0
  0
LINE
  8
0
 10
485.0
 20
453.0
 30
0.0
 11
499.0
 21
453.0
 31
0.0
  0
LINE
  8
0
 10
499.0
 20
453.0
 30
0.0
 11
499.0
 21
452.0
 31
0.0
  0
LINE
  8
0
 10
499.0
 20
452.0
 30
0.0
 11
485.0
 21
452.0
 31
0.0
  0
LINE
  8
0
 10
485.0
 20
452.0
 30
0.0
 11
485.0
 21
453.0
 31
0.0
  0
LINE
  8
0
 10
500.0
 20
453.0
 30
0.0
 11
501.0
 21
453.0
 31
0.0
  0
LINE
  8
0
 10
501.0
 20
453.0
 30
0.0
 11
501.0
 21
452.0
 31
0.0
  0
LINE
  8
0
 10
501.0
 20
452.0
 30
0.0
 11
500.0
 21
452.0
 31
0.0
  0
LINE
  8
0
 10
500.0
 20
452.0
 30
0.0
 11
500.0
 21
453.0
 31
0.0
  0
LINE
  8
0
 10
502.0
 20
453.0
 30
0.0
 11
510.0
 21
453.0
 31
0.0
  0
LINE
  8
0
 10
510.0
 20
453.0
 30
0.0
 11
510.0
 21
452.0
 31
0.0
  0
LINE
  8
0
 10
510.0
 20
452.0
 30
0.0
 11
502.0
 21
452.0
 31
0.0
  0
LINE
  8
0
 10
502.0
 20
452.0
 30
0.0
 11
502.0
 21
453.0
 31
0.0
  0
LINE
  8
0
 10
514.0
 20
453.0
 30
0.0
 11
523.0
 21
453.0
 31
0.0
  0
LINE
  8
0
 10
523.0
 20
453.0
 30
0.0
 11
523.0
 21
452.0
 31
0.0
  0
LINE
  8
0
 10
523.0
 20
452.0
 30
0.0
 11
514.0
 21
452.0
 31
0.0
  0
LINE
  8
0
 10
514.0
 20
452.0
 30
0.0
 11
514.0
 21
453.0
 31
0.0
  0
LINE
  8
0
 10
524.0
 20
453.0
 30
0.0
 11
525.0
 21
453.0
 31
0.0
  0
LINE
  8
0
 10
525.0
 20
453.0
 30
0.0
 11
525.0
 21
452.0
 31
0.0
  0
LINE
  8
0
 10
525.0
 20
452.0
 30
0.0
 11
524.0
 21
452.0
 31
0.0
  0
LINE
  8
0
 10
524.0
 20
452.0
 30
0.0
 11
524.0
 21
453.0
 31
0.0
  0
LINE
  8
0
 10
526.0
 20
453.0
 30
0.0
 11
531.0
 21
453.0
 31
0.0
  0
LINE
  8
0
 10
531.0
 20
453.0
 30
0.0
 11
531.0
 21
452.0
 31
0.0
  0
LINE
  8
0
 10
531.0
 20
452.0
 30
0.0
 11
526.0
 21
452.0
 31
0.0
  0
LINE
  8
0
 10
526.0
 20
452.0
 30
0.0
 11
526.0
 21
453.0
 31
0.0
  0
LINE
  8
0
 10
532.0
 20
453.0
 30
0.0
 11
533.0
 21
453.0
 31
0.0
  0
LINE
  8
0
 10
533.0
 20
453.0
 30
0.0
 11
533.0
 21
452.0
 31
0.0
  0
LINE
  8
0
 10
533.0
 20
452.0
 30
0.0
 11
532.0
 21
452.0
 31
0.0
  0
LINE
  8
0
 10
532.0
 20
452.0
 30
0.0
 11
532.0
 21
453.0
 31
0.0
  0
LINE
  8
0
 10
534.0
 20
453.0
 30
0.0
 11
537.0
 21
453.0
 31
0.0
  0
LINE
  8
0
 10
537.0
 20
453.0
 30
0.0
 11
537.0
 21
452.0
 31
0.0
  0
LINE
  8
0
 10
537.0
 20
452.0
 30
0.0
 11
534.0
 21
452.0
 31
0.0
  0
LINE
  8
0
 10
534.0
 20
452.0
 30
0.0
 11
534.0
 21
453.0
 31
0.0
  0
LINE
  8
0
 10
485.0
 20
452.0
 30
0.0
 11
499.0
 21
452.0
 31
0.0
  0
LINE
  8
0
 10
499.0
 20
452.0
 30
0.0
 11
499.0
 21
451.0
 31
0.0
  0
LINE
  8
0
 10
499.0
 20
451.0
 30
0.0
 11
485.0
 21
451.0
 31
0.0
  0
LINE
  8
0
 10
485.0
 20
451.0
 30
0.0
 11
485.0
 21
452.0
 31
0.0
  0
LINE
  8
0
 10
500.0
 20
452.0
 30
0.0
 11
501.0
 21
452.0
 31
0.0
  0
LINE
  8
0
 10
501.0
 20
452.0
 30
0.0
 11
501.0
 21
451.0
 31
0.0
  0
LINE
  8
0
 10
501.0
 20
451.0
 30
0.0
 11
500.0
 21
451.0
 31
0.0
  0
LINE
  8
0
 10
500.0
 20
451.0
 30
0.0
 11
500.0
 21
452.0
 31
0.0
  0
LINE
  8
0
 10
502.0
 20
452.0
 30
0.0
 11
510.0
 21
452.0
 31
0.0
  0
LINE
  8
0
 10
510.0
 20
452.0
 30
0.0
 11
510.0
 21
451.0
 31
0.0
  0
LINE
  8
0
 10
510.0
 20
451.0
 30
0.0
 11
502.0
 21
451.0
 31
0.0
  0
LINE
  8
0
 10
502.0
 20
451.0
 30
0.0
 11
502.0
 21
452.0
 31
0.0
  0
LINE
  8
0
 10
514.0
 20
452.0
 30
0.0
 11
523.0
 21
452.0
 31
0.0
  0
LINE
  8
0
 10
523.0
 20
452.0
 30
0.0
 11
523.0
 21
451.0
 31
0.0
  0
LINE
  8
0
 10
523.0
 20
451.0
 30
0.0
 11
514.0
 21
451.0
 31
0.0
  0
LINE
  8
0
 10
514.0
 20
451.0
 30
0.0
 11
514.0
 21
452.0
 31
0.0
  0
LINE
  8
0
 10
524.0
 20
452.0
 30
0.0
 11
525.0
 21
452.0
 31
0.0
  0
LINE
  8
0
 10
525.0
 20
452.0
 30
0.0
 11
525.0
 21
451.0
 31
0.0
  0
LINE
  8
0
 10
525.0
 20
451.0
 30
0.0
 11
524.0
 21
451.0
 31
0.0
  0
LINE
  8
0
 10
524.0
 20
451.0
 30
0.0
 11
524.0
 21
452.0
 31
0.0
  0
LINE
  8
0
 10
526.0
 20
452.0
 30
0.0
 11
532.0
 21
452.0
 31
0.0
  0
LINE
  8
0
 10
532.0
 20
452.0
 30
0.0
 11
532.0
 21
451.0
 31
0.0
  0
LINE
  8
0
 10
532.0
 20
451.0
 30
0.0
 11
526.0
 21
451.0
 31
0.0
  0
LINE
  8
0
 10
526.0
 20
451.0
 30
0.0
 11
526.0
 21
452.0
 31
0.0
  0
LINE
  8
0
 10
535.0
 20
452.0
 30
0.0
 11
537.0
 21
452.0
 31
0.0
  0
LINE
  8
0
 10
537.0
 20
452.0
 30
0.0
 11
537.0
 21
451.0
 31
0.0
  0
LINE
  8
0
 10
537.0
 20
451.0
 30
0.0
 11
535.0
 21
451.0
 31
0.0
  0
LINE
  8
0
 10
535.0
 20
451.0
 30
0.0
 11
535.0
 21
452.0
 31
0.0
  0
LINE
  8
0
 10
485.0
 20
451.0
 30
0.0
 11
492.0
 21
451.0
 31
0.0
  0
LINE
  8
0
 10
492.0
 20
451.0
 30
0.0
 11
492.0
 21
450.0
 31
0.0
  0
LINE
  8
0
 10
492.0
 20
450.0
 30
0.0
 11
485.0
 21
450.0
 31
0.0
  0
LINE
  8
0
 10
485.0
 20
450.0
 30
0.0
 11
485.0
 21
451.0
 31
0.0
  0
LINE
  8
0
 10
493.0
 20
451.0
 30
0.0
 11
498.0
 21
451.0
 31
0.0
  0
LINE
  8
0
 10
498.0
 20
451.0
 30
0.0
 11
498.0
 21
450.0
 31
0.0
  0
LINE
  8
0
 10
498.0
 20
450.0
 30
0.0
 11
493.0
 21
450.0
 31
0.0
  0
LINE
  8
0
 10
493.0
 20
450.0
 30
0.0
 11
493.0
 21
451.0
 31
0.0
  0
LINE
  8
0
 10
501.0
 20
451.0
 30
0.0
 11
510.0
 21
451.0
 31
0.0
  0
LINE
  8
0
 10
510.0
 20
451.0
 30
0.0
 11
510.0
 21
450.0
 31
0.0
  0
LINE
  8
0
 10
510.0
 20
450.0
 30
0.0
 11
501.0
 21
450.0
 31
0.0
  0
LINE
  8
0
 10
501.0
 20
450.0
 30
0.0
 11
501.0
 21
451.0
 31
0.0
  0
LINE
  8
0
 10
514.0
 20
451.0
 30
0.0
 11
524.0
 21
451.0
 31
0.0
  0
LINE
  8
0
 10
524.0
 20
451.0
 30
0.0
 11
524.0
 21
450.0
 31
0.0
  0
LINE
  8
0
 10
524.0
 20
450.0
 30
0.0
 11
514.0
 21
450.0
 31
0.0
  0
LINE
  8
0
 10
514.0
 20
450.0
 30
0.0
 11
514.0
 21
451.0
 31
0.0
  0
LINE
  8
0
 10
526.0
 20
451.0
 30
0.0
 11
532.0
 21
451.0
 31
0.0
  0
LINE
  8
0
 10
532.0
 20
451.0
 30
0.0
 11
532.0
 21
450.0
 31
0.0
  0
LINE
  8
0
 10
532.0
 20
450.0
 30
0.0
 11
526.0
 21
450.0
 31
0.0
  0
LINE
  8
0
 10
526.0
 20
450.0
 30
0.0
 11
526.0
 21
451.0
 31
0.0
  0
LINE
  8
0
 10
485.0
 20
450.0
 30
0.0
 11
491.0
 21
450.0
 31
0.0
  0
LINE
  8
0
 10
491.0
 20
450.0
 30
0.0
 11
491.0
 21
449.0
 31
0.0
  0
LINE
  8
0
 10
491.0
 20
449.0
 30
0.0
 11
485.0
 21
449.0
 31
0.0
  0
LINE
  8
0
 10
485.0
 20
449.0
 30
0.0
 11
485.0
 21
450.0
 31
0.0
  0
LINE
  8
0
 10
493.0
 20
450.0
 30
0.0
 11
498.0
 21
450.0
 31
0.0
  0
LINE
  8
0
 10
498.0
 20
450.0
 30
0.0
 11
498.0
 21
449.0
 31
0.0
  0
LINE
  8
0
 10
498.0
 20
449.0
 30
0.0
 11
493.0
 21
449.0
 31
0.0
  0
LINE
  8
0
 10
493.0
 20
449.0
 30
0.0
 11
493.0
 21
450.0
 31
0.0
  0
LINE
  8
0
 10
501.0
 20
450.0
 30
0.0
 11
510.0
 21
450.0
 31
0.0
  0
LINE
  8
0
 10
510.0
 20
450.0
 30
0.0
 11
510.0
 21
449.0
 31
0.0
  0
LINE
  8
0
 10
510.0
 20
449.0
 30
0.0
 11
501.0
 21
449.0
 31
0.0
  0
LINE
  8
0
 10
501.0
 20
449.0
 30
0.0
 11
501.0
 21
450.0
 31
0.0
  0
LINE
  8
0
 10
512.0
 20
450.0
 30
0.0
 11
513.0
 21
450.0
 31
0.0
  0
LINE
  8
0
 10
513.0
 20
450.0
 30
0.0
 11
513.0
 21
449.0
 31
0.0
  0
LINE
  8
0
 10
513.0
 20
449.0
 30
0.0
 11
512.0
 21
449.0
 31
0.0
  0
LINE
  8
0
 10
512.0
 20
449.0
 30
0.0
 11
512.0
 21
450.0
 31
0.0
  0
LINE
  8
0
 10
514.0
 20
450.0
 30
0.0
 11
525.0
 21
450.0
 31
0.0
  0
LINE
  8
0
 10
525.0
 20
450.0
 30
0.0
 11
525.0
 21
449.0
 31
0.0
  0
LINE
  8
0
 10
525.0
 20
449.0
 30
0.0
 11
514.0
 21
449.0
 31
0.0
  0
LINE
  8
0
 10
514.0
 20
449.0
 30
0.0
 11
514.0
 21
450.0
 31
0.0
  0
LINE
  8
0
 10
526.0
 20
450.0
 30
0.0
 11
532.0
 21
450.0
 31
0.0
  0
LINE
  8
0
 10
532.0
 20
450.0
 30
0.0
 11
532.0
 21
449.0
 31
0.0
  0
LINE
  8
0
 10
532.0
 20
449.0
 30
0.0
 11
526.0
 21
449.0
 31
0.0
  0
LINE
  8
0
 10
526.0
 20
449.0
 30
0.0
 11
526.0
 21
450.0
 31
0.0
  0
LINE
  8
0
 10
485.0
 20
449.0
 30
0.0
 11
490.0
 21
449.0
 31
0.0
  0
LINE
  8
0
 10
490.0
 20
449.0
 30
0.0
 11
490.0
 21
448.0
 31
0.0
  0
LINE
  8
0
 10
490.0
 20
448.0
 30
0.0
 11
485.0
 21
448.0
 31
0.0
  0
LINE
  8
0
 10
485.0
 20
448.0
 30
0.0
 11
485.0
 21
449.0
 31
0.0
  0
LINE
  8
0
 10
492.0
 20
449.0
 30
0.0
 11
498.0
 21
449.0
 31
0.0
  0
LINE
  8
0
 10
498.0
 20
449.0
 30
0.0
 11
498.0
 21
448.0
 31
0.0
  0
LINE
  8
0
 10
498.0
 20
448.0
 30
0.0
 11
492.0
 21
448.0
 31
0.0
  0
LINE
  8
0
 10
492.0
 20
448.0
 30
0.0
 11
492.0
 21
449.0
 31
0.0
  0
LINE
  8
0
 10
500.0
 20
449.0
 30
0.0
 11
511.0
 21
449.0
 31
0.0
  0
LINE
  8
0
 10
511.0
 20
449.0
 30
0.0
 11
511.0
 21
448.0
 31
0.0
  0
LINE
  8
0
 10
511.0
 20
448.0
 30
0.0
 11
500.0
 21
448.0
 31
0.0
  0
LINE
  8
0
 10
500.0
 20
448.0
 30
0.0
 11
500.0
 21
449.0
 31
0.0
  0
LINE
  8
0
 10
512.0
 20
449.0
 30
0.0
 11
513.0
 21
449.0
 31
0.0
  0
LINE
  8
0
 10
513.0
 20
449.0
 30
0.0
 11
513.0
 21
448.0
 31
0.0
  0
LINE
  8
0
 10
513.0
 20
448.0
 30
0.0
 11
512.0
 21
448.0
 31
0.0
  0
LINE
  8
0
 10
512.0
 20
448.0
 30
0.0
 11
512.0
 21
449.0
 31
0.0
  0
LINE
  8
0
 10
514.0
 20
449.0
 30
0.0
 11
526.0
 21
449.0
 31
0.0
  0
LINE
  8
0
 10
526.0
 20
449.0
 30
0.0
 11
526.0
 21
448.0
 31
0.0
  0
LINE
  8
0
 10
526.0
 20
448.0
 30
0.0
 11
514.0
 21
448.0
 31
0.0
  0
LINE
  8
0
 10
514.0
 20
448.0
 30
0.0
 11
514.0
 21
449.0
 31
0.0
  0
LINE
  8
0
 10
527.0
 20
449.0
 30
0.0
 11
532.0
 21
449.0
 31
0.0
  0
LINE
  8
0
 10
532.0
 20
449.0
 30
0.0
 11
532.0
 21
448.0
 31
0.0
  0
LINE
  8
0
 10
532.0
 20
448.0
 30
0.0
 11
527.0
 21
448.0
 31
0.0
  0
LINE
  8
0
 10
527.0
 20
448.0
 30
0.0
 11
527.0
 21
449.0
 31
0.0
  0
LINE
  8
0
 10
484.0
 20
448.0
 30
0.0
 11
488.0
 21
448.0
 31
0.0
  0
LINE
  8
0
 10
488.0
 20
448.0
 30
0.0
 11
488.0
 21
447.0
 31
0.0
  0
LINE
  8
0
 10
488.0
 20
447.0
 30
0.0
 11
484.0
 21
447.0
 31
0.0
  0
LINE
  8
0
 10
484.0
 20
447.0
 30
0.0
 11
484.0
 21
448.0
 31
0.0
  0
LINE
  8
0
 10
492.0
 20
448.0
 30
0.0
 11
498.0
 21
448.0
 31
0.0
  0
LINE
  8
0
 10
498.0
 20
448.0
 30
0.0
 11
498.0
 21
447.0
 31
0.0
  0
LINE
  8
0
 10
498.0
 20
447.0
 30
0.0
 11
492.0
 21
447.0
 31
0.0
  0
LINE
  8
0
 10
492.0
 20
447.0
 30
0.0
 11
492.0
 21
448.0
 31
0.0
  0
LINE
  8
0
 10
500.0
 20
448.0
 30
0.0
 11
511.0
 21
448.0
 31
0.0
  0
LINE
  8
0
 10
511.0
 20
448.0
 30
0.0
 11
511.0
 21
447.0
 31
0.0
  0
LINE
  8
0
 10
511.0
 20
447.0
 30
0.0
 11
500.0
 21
447.0
 31
0.0
  0
LINE
  8
0
 10
500.0
 20
447.0
 30
0.0
 11
500.0
 21
448.0
 31
0.0
  0
LINE
  8
0
 10
512.0
 20
448.0
 30
0.0
 11
513.0
 21
448.0
 31
0.0
  0
LINE
  8
0
 10
513.0
 20
448.0
 30
0.0
 11
513.0
 21
447.0
 31
0.0
  0
LINE
  8
0
 10
513.0
 20
447.0
 30
0.0
 11
512.0
 21
447.0
 31
0.0
  0
LINE
  8
0
 10
512.0
 20
447.0
 30
0.0
 11
512.0
 21
448.0
 31
0.0
  0
LINE
  8
0
 10
514.0
 20
448.0
 30
0.0
 11
519.0
 21
448.0
 31
0.0
  0
LINE
  8
0
 10
519.0
 20
448.0
 30
0.0
 11
519.0
 21
447.0
 31
0.0
  0
LINE
  8
0
 10
519.0
 20
447.0
 30
0.0
 11
514.0
 21
447.0
 31
0.0
  0
LINE
  8
0
 10
514.0
 20
447.0
 30
0.0
 11
514.0
 21
448.0
 31
0.0
  0
LINE
  8
0
 10
520.0
 20
448.0
 30
0.0
 11
526.0
 21
448.0
 31
0.0
  0
LINE
  8
0
 10
526.0
 20
448.0
 30
0.0
 11
526.0
 21
447.0
 31
0.0
  0
LINE
  8
0
 10
526.0
 20
447.0
 30
0.0
 11
520.0
 21
447.0
 31
0.0
  0
LINE
  8
0
 10
520.0
 20
447.0
 30
0.0
 11
520.0
 21
448.0
 31
0.0
  0
LINE
  8
0
 10
527.0
 20
448.0
 30
0.0
 11
533.0
 21
448.0
 31
0.0
  0
LINE
  8
0
 10
533.0
 20
448.0
 30
0.0
 11
533.0
 21
447.0
 31
0.0
  0
LINE
  8
0
 10
533.0
 20
447.0
 30
0.0
 11
527.0
 21
447.0
 31
0.0
  0
LINE
  8
0
 10
527.0
 20
447.0
 30
0.0
 11
527.0
 21
448.0
 31
0.0
  0
LINE
  8
0
 10
485.0
 20
447.0
 30
0.0
 11
487.0
 21
447.0
 31
0.0
  0
LINE
  8
0
 10
487.0
 20
447.0
 30
0.0
 11
487.0
 21
446.0
 31
0.0
  0
LINE
  8
0
 10
487.0
 20
446.0
 30
0.0
 11
485.0
 21
446.0
 31
0.0
  0
LINE
  8
0
 10
485.0
 20
446.0
 30
0.0
 11
485.0
 21
447.0
 31
0.0
  0
LINE
  8
0
 10
492.0
 20
447.0
 30
0.0
 11
498.0
 21
447.0
 31
0.0
  0
LINE
  8
0
 10
498.0
 20
447.0
 30
0.0
 11
498.0
 21
446.0
 31
0.0
  0
LINE
  8
0
 10
498.0
 20
446.0
 30
0.0
 11
492.0
 21
446.0
 31
0.0
  0
LINE
  8
0
 10
492.0
 20
446.0
 30
0.0
 11
492.0
 21
447.0
 31
0.0
  0
LINE
  8
0
 10
499.0
 20
447.0
 30
0.0
 11
511.0
 21
447.0
 31
0.0
  0
LINE
  8
0
 10
511.0
 20
447.0
 30
0.0
 11
511.0
 21
446.0
 31
0.0
  0
LINE
  8
0
 10
511.0
 20
446.0
 30
0.0
 11
499.0
 21
446.0
 31
0.0
  0
LINE
  8
0
 10
499.0
 20
446.0
 30
0.0
 11
499.0
 21
447.0
 31
0.0
  0
LINE
  8
0
 10
513.0
 20
447.0
 30
0.0
 11
519.0
 21
447.0
 31
0.0
  0
LINE
  8
0
 10
519.0
 20
447.0
 30
0.0
 11
519.0
 21
446.0
 31
0.0
  0
LINE
  8
0
 10
519.0
 20
446.0
 30
0.0
 11
513.0
 21
446.0
 31
0.0
  0
LINE
  8
0
 10
513.0
 20
446.0
 30
0.0
 11
513.0
 21
447.0
 31
0.0
  0
LINE
  8
0
 10
520.0
 20
447.0
 30
0.0
 11
533.0
 21
447.0
 31
0.0
  0
LINE
  8
0
 10
533.0
 20
447.0
 30
0.0
 11
533.0
 21
446.0
 31
0.0
  0
LINE
  8
0
 10
533.0
 20
446.0
 30
0.0
 11
520.0
 21
446.0
 31
0.0
  0
LINE
  8
0
 10
520.0
 20
446.0
 30
0.0
 11
520.0
 21
447.0
 31
0.0
  0
LINE
  8
0
 10
492.0
 20
446.0
 30
0.0
 11
505.0
 21
446.0
 31
0.0
  0
LINE
  8
0
 10
505.0
 20
446.0
 30
0.0
 11
505.0
 21
445.0
 31
0.0
  0
LINE
  8
0
 10
505.0
 20
445.0
 30
0.0
 11
492.0
 21
445.0
 31
0.0
  0
LINE
  8
0
 10
492.0
 20
445.0
 30
0.0
 11
492.0
 21
446.0
 31
0.0
  0
LINE
  8
0
 10
506.0
 20
446.0
 30
0.0
 11
512.0
 21
446.0
 31
0.0
  0
LINE
  8
0
 10
512.0
 20
446.0
 30
0.0
 11
512.0
 21
445.0
 31
0.0
  0
LINE
  8
0
 10
512.0
 20
445.0
 30
0.0
 11
506.0
 21
445.0
 31
0.0
  0
LINE
  8
0
 10
506.0
 20
445.0
 30
0.0
 11
506.0
 21
446.0
 31
0.0
  0
LINE
  8
0
 10
513.0
 20
446.0
 30
0.0
 11
519.0
 21
446.0
 31
0.0
  0
LINE
  8
0
 10
519.0
 20
446.0
 30
0.0
 11
519.0
 21
445.0
 31
0.0
  0
LINE
  8
0
 10
519.0
 20
445.0
 30
0.0
 11
513.0
 21
445.0
 31
0.0
  0
LINE
  8
0
 10
513.0
 20
445.0
 30
0.0
 11
513.0
 21
446.0
 31
0.0
  0
LINE
  8
0
 10
521.0
 20
446.0
 30
0.0
 11
533.0
 21
446.0
 31
0.0
  0
LINE
  8
0
 10
533.0
 20
446.0
 30
0.0
 11
533.0
 21
445.0
 31
0.0
  0
LINE
  8
0
 10
533.0
 20
445.0
 30
0.0
 11
521.0
 21
445.0
 31
0.0
  0
LINE
  8
0
 10
521.0
 20
445.0
 30
0.0
 11
521.0
 21
446.0
 31
0.0
  0
LINE
  8
0
 10
491.0
 20
445.0
 30
0.0
 11
504.0
 21
445.0
 31
0.0
  0
LINE
  8
0
 10
504.0
 20
445.0
 30
0.0
 11
504.0
 21
444.0
 31
0.0
  0
LINE
  8
0
 10
504.0
 20
444.0
 30
0.0
 11
491.0
 21
444.0
 31
0.0
  0
LINE
  8
0
 10
491.0
 20
444.0
 30
0.0
 11
491.0
 21
445.0
 31
0.0
  0
LINE
  8
0
 10
506.0
 20
445.0
 30
0.0
 11
512.0
 21
445.0
 31
0.0
  0
LINE
  8
0
 10
512.0
 20
445.0
 30
0.0
 11
512.0
 21
444.0
 31
0.0
  0
LINE
  8
0
 10
512.0
 20
444.0
 30
0.0
 11
506.0
 21
444.0
 31
0.0
  0
LINE
  8
0
 10
506.0
 20
444.0
 30
0.0
 11
506.0
 21
445.0
 31
0.0
  0
LINE
  8
0
 10
513.0
 20
445.0
 30
0.0
 11
519.0
 21
445.0
 31
0.0
  0
LINE
  8
0
 10
519.0
 20
445.0
 30
0.0
 11
519.0
 21
444.0
 31
0.0
  0
LINE
  8
0
 10
519.0
 20
444.0
 30
0.0
 11
513.0
 21
444.0
 31
0.0
  0
LINE
  8
0
 10
513.0
 20
444.0
 30
0.0
 11
513.0
 21
445.0
 31
0.0
  0
LINE
  8
0
 10
520.0
 20
445.0
 30
0.0
 11
521.0
 21
445.0
 31
0.0
  0
LINE
  8
0
 10
521.0
 20
445.0
 30
0.0
 11
521.0
 21
444.0
 31
0.0
  0
LINE
  8
0
 10
521.0
 20
444.0
 30
0.0
 11
520.0
 21
444.0
 31
0.0
  0
LINE
  8
0
 10
520.0
 20
444.0
 30
0.0
 11
520.0
 21
445.0
 31
0.0
  0
LINE
  8
0
 10
522.0
 20
445.0
 30
0.0
 11
533.0
 21
445.0
 31
0.0
  0
LINE
  8
0
 10
533.0
 20
445.0
 30
0.0
 11
533.0
 21
444.0
 31
0.0
  0
LINE
  8
0
 10
533.0
 20
444.0
 30
0.0
 11
522.0
 21
444.0
 31
0.0
  0
LINE
  8
0
 10
522.0
 20
444.0
 30
0.0
 11
522.0
 21
445.0
 31
0.0
  0
LINE
  8
0
 10
491.0
 20
444.0
 30
0.0
 11
504.0
 21
444.0
 31
0.0
  0
LINE
  8
0
 10
504.0
 20
444.0
 30
0.0
 11
504.0
 21
443.0
 31
0.0
  0
LINE
  8
0
 10
504.0
 20
443.0
 30
0.0
 11
491.0
 21
443.0
 31
0.0
  0
LINE
  8
0
 10
491.0
 20
443.0
 30
0.0
 11
491.0
 21
444.0
 31
0.0
  0
LINE
  8
0
 10
506.0
 20
444.0
 30
0.0
 11
512.0
 21
444.0
 31
0.0
  0
LINE
  8
0
 10
512.0
 20
444.0
 30
0.0
 11
512.0
 21
443.0
 31
0.0
  0
LINE
  8
0
 10
512.0
 20
443.0
 30
0.0
 11
506.0
 21
443.0
 31
0.0
  0
LINE
  8
0
 10
506.0
 20
443.0
 30
0.0
 11
506.0
 21
444.0
 31
0.0
  0
LINE
  8
0
 10
513.0
 20
444.0
 30
0.0
 11
519.0
 21
444.0
 31
0.0
  0
LINE
  8
0
 10
519.0
 20
444.0
 30
0.0
 11
519.0
 21
443.0
 31
0.0
  0
LINE
  8
0
 10
519.0
 20
443.0
 30
0.0
 11
513.0
 21
443.0
 31
0.0
  0
LINE
  8
0
 10
513.0
 20
443.0
 30
0.0
 11
513.0
 21
444.0
 31
0.0
  0
LINE
  8
0
 10
520.0
 20
444.0
 30
0.0
 11
521.0
 21
444.0
 31
0.0
  0
LINE
  8
0
 10
521.0
 20
444.0
 30
0.0
 11
521.0
 21
443.0
 31
0.0
  0
LINE
  8
0
 10
521.0
 20
443.0
 30
0.0
 11
520.0
 21
443.0
 31
0.0
  0
LINE
  8
0
 10
520.0
 20
443.0
 30
0.0
 11
520.0
 21
444.0
 31
0.0
  0
LINE
  8
0
 10
523.0
 20
444.0
 30
0.0
 11
533.0
 21
444.0
 31
0.0
  0
LINE
  8
0
 10
533.0
 20
444.0
 30
0.0
 11
533.0
 21
443.0
 31
0.0
  0
LINE
  8
0
 10
533.0
 20
443.0
 30
0.0
 11
523.0
 21
443.0
 31
0.0
  0
LINE
  8
0
 10
523.0
 20
443.0
 30
0.0
 11
523.0
 21
444.0
 31
0.0
  0
LINE
  8
0
 10
491.0
 20
443.0
 30
0.0
 11
503.0
 21
443.0
 31
0.0
  0
LINE
  8
0
 10
503.0
 20
443.0
 30
0.0
 11
503.0
 21
442.0
 31
0.0
  0
LINE
  8
0
 10
503.0
 20
442.0
 30
0.0
 11
491.0
 21
442.0
 31
0.0
  0
LINE
  8
0
 10
491.0
 20
442.0
 30
0.0
 11
491.0
 21
443.0
 31
0.0
  0
LINE
  8
0
 10
504.0
 20
443.0
 30
0.0
 11
505.0
 21
443.0
 31
0.0
  0
LINE
  8
0
 10
505.0
 20
443.0
 30
0.0
 11
505.0
 21
442.0
 31
0.0
  0
LINE
  8
0
 10
505.0
 20
442.0
 30
0.0
 11
504.0
 21
442.0
 31
0.0
  0
LINE
  8
0
 10
504.0
 20
442.0
 30
0.0
 11
504.0
 21
443.0
 31
0.0
  0
LINE
  8
0
 10
506.0
 20
443.0
 30
0.0
 11
512.0
 21
443.0
 31
0.0
  0
LINE
  8
0
 10
512.0
 20
443.0
 30
0.0
 11
512.0
 21
442.0
 31
0.0
  0
LINE
  8
0
 10
512.0
 20
442.0
 30
0.0
 11
506.0
 21
442.0
 31
0.0
  0
LINE
  8
0
 10
506.0
 20
442.0
 30
0.0
 11
506.0
 21
443.0
 31
0.0
  0
LINE
  8
0
 10
513.0
 20
443.0
 30
0.0
 11
519.0
 21
443.0
 31
0.0
  0
LINE
  8
0
 10
519.0
 20
443.0
 30
0.0
 11
519.0
 21
442.0
 31
0.0
  0
LINE
  8
0
 10
519.0
 20
442.0
 30
0.0
 11
513.0
 21
442.0
 31
0.0
  0
LINE
  8
0
 10
513.0
 20
442.0
 30
0.0
 11
513.0
 21
443.0
 31
0.0
  0
LINE
  8
0
 10
524.0
 20
443.0
 30
0.0
 11
533.0
 21
443.0
 31
0.0
  0
LINE
  8
0
 10
533.0
 20
443.0
 30
0.0
 11
533.0
 21
442.0
 31
0.0
  0
LINE
  8
0
 10
533.0
 20
442.0
 30
0.0
 11
524.0
 21
442.0
 31
0.0
  0
LINE
  8
0
 10
524.0
 20
442.0
 30
0.0
 11
524.0
 21
443.0
 31
0.0
  0
LINE
  8
0
 10
491.0
 20
442.0
 30
0.0
 11
502.0
 21
442.0
 31
0.0
  0
LINE
  8
0
 10
502.0
 20
442.0
 30
0.0
 11
502.0
 21
441.0
 31
0.0
  0
LINE
  8
0
 10
502.0
 20
441.0
 30
0.0
 11
491.0
 21
441.0
 31
0.0
  0
LINE
  8
0
 10
491.0
 20
441.0
 30
0.0
 11
491.0
 21
442.0
 31
0.0
  0
LINE
  8
0
 10
507.0
 20
442.0
 30
0.0
 11
519.0
 21
442.0
 31
0.0
  0
LINE
  8
0
 10
519.0
 20
442.0
 30
0.0
 11
519.0
 21
441.0
 31
0.0
  0
LINE
  8
0
 10
519.0
 20
441.0
 30
0.0
 11
507.0
 21
441.0
 31
0.0
  0
LINE
  8
0
 10
507.0
 20
441.0
 30
0.0
 11
507.0
 21
442.0
 31
0.0
  0
LINE
  8
0
 10
524.0
 20
442.0
 30
0.0
 11
533.0
 21
442.0
 31
0.0
  0
LINE
  8
0
 10
533.0
 20
442.0
 30
0.0
 11
533.0
 21
441.0
 31
0.0
  0
LINE
  8
0
 10
533.0
 20
441.0
 30
0.0
 11
524.0
 21
441.0
 31
0.0
  0
LINE
  8
0
 10
524.0
 20
441.0
 30
0.0
 11
524.0
 21
442.0
 31
0.0
  0
LINE
  8
0
 10
491.0
 20
441.0
 30
0.0
 11
502.0
 21
441.0
 31
0.0
  0
LINE
  8
0
 10
502.0
 20
441.0
 30
0.0
 11
502.0
 21
440.0
 31
0.0
  0
LINE
  8
0
 10
502.0
 20
440.0
 30
0.0
 11
491.0
 21
440.0
 31
0.0
  0
LINE
  8
0
 10
491.0
 20
440.0
 30
0.0
 11
491.0
 21
441.0
 31
0.0
  0
LINE
  8
0
 10
507.0
 20
441.0
 30
0.0
 11
518.0
 21
441.0
 31
0.0
  0
LINE
  8
0
 10
518.0
 20
441.0
 30
0.0
 11
518.0
 21
440.0
 31
0.0
  0
LINE
  8
0
 10
518.0
 20
440.0
 30
0.0
 11
507.0
 21
440.0
 31
0.0
  0
LINE
  8
0
 10
507.0
 20
440.0
 30
0.0
 11
507.0
 21
441.0
 31
0.0
  0
LINE
  8
0
 10
525.0
 20
441.0
 30
0.0
 11
533.0
 21
441.0
 31
0.0
  0
LINE
  8
0
 10
533.0
 20
441.0
 30
0.0
 11
533.0
 21
440.0
 31
0.0
  0
LINE
  8
0
 10
533.0
 20
440.0
 30
0.0
 11
525.0
 21
440.0
 31
0.0
  0
LINE
  8
0
 10
525.0
 20
440.0
 30
0.0
 11
525.0
 21
441.0
 31
0.0
  0
LINE
  8
0
 10
491.0
 20
440.0
 30
0.0
 11
501.0
 21
440.0
 31
0.0
  0
LINE
  8
0
 10
501.0
 20
440.0
 30
0.0
 11
501.0
 21
439.0
 31
0.0
  0
LINE
  8
0
 10
501.0
 20
439.0
 30
0.0
 11
491.0
 21
439.0
 31
0.0
  0
LINE
  8
0
 10
491.0
 20
439.0
 30
0.0
 11
491.0
 21
440.0
 31
0.0
  0
LINE
  8
0
 10
507.0
 20
440.0
 30
0.0
 11
518.0
 21
440.0
 31
0.0
  0
LINE
  8
0
 10
518.0
 20
440.0
 30
0.0
 11
518.0
 21
439.0
 31
0.0
  0
LINE
  8
0
 10
518.0
 20
439.0
 30
0.0
 11
507.0
 21
439.0
 31
0.0
  0
LINE
  8
0
 10
507.0
 20
439.0
 30
0.0
 11
507.0
 21
440.0
 31
0.0
  0
LINE
  8
0
 10
526.0
 20
440.0
 30
0.0
 11
534.0
 21
440.0
 31
0.0
  0
LINE
  8
0
 10
534.0
 20
440.0
 30
0.0
 11
534.0
 21
439.0
 31
0.0
  0
LINE
  8
0
 10
534.0
 20
439.0
 30
0.0
 11
526.0
 21
439.0
 31
0.0
  0
LINE
  8
0
 10
526.0
 20
439.0
 30
0.0
 11
526.0
 21
440.0
 31
0.0
  0
LINE
  8
0
 10
491.0
 20
439.0
 30
0.0
 11
500.0
 21
439.0
 31
0.0
  0
LINE
  8
0
 10
500.0
 20
439.0
 30
0.0
 11
500.0
 21
438.0
 31
0.0
  0
LINE
  8
0
 10
500.0
 20
438.0
 30
0.0
 11
491.0
 21
438.0
 31
0.0
  0
LINE
  8
0
 10
491.0
 20
438.0
 30
0.0
 11
491.0
 21
439.0
 31
0.0
  0
LINE
  8
0
 10
507.0
 20
439.0
 30
0.0
 11
518.0
 21
439.0
 31
0.0
  0
LINE
  8
0
 10
518.0
 20
439.0
 30
0.0
 11
518.0
 21
438.0
 31
0.0
  0
LINE
  8
0
 10
518.0
 20
438.0
 30
0.0
 11
507.0
 21
438.0
 31
0.0
  0
LINE
  8
0
 10
507.0
 20
438.0
 30
0.0
 11
507.0
 21
439.0
 31
0.0
  0
LINE
  8
0
 10
527.0
 20
439.0
 30
0.0
 11
534.0
 21
439.0
 31
0.0
  0
LINE
  8
0
 10
534.0
 20
439.0
 30
0.0
 11
534.0
 21
438.0
 31
0.0
  0
LINE
  8
0
 10
534.0
 20
438.0
 30
0.0
 11
527.0
 21
438.0
 31
0.0
  0
LINE
  8
0
 10
527.0
 20
438.0
 30
0.0
 11
527.0
 21
439.0
 31
0.0
  0
LINE
  8
0
 10
490.0
 20
438.0
 30
0.0
 11
499.0
 21
438.0
 31
0.0
  0
LINE
  8
0
 10
499.0
 20
438.0
 30
0.0
 11
499.0
 21
437.0
 31
0.0
  0
LINE
  8
0
 10
499.0
 20
437.0
 30
0.0
 11
490.0
 21
437.0
 31
0.0
  0
LINE
  8
0
 10
490.0
 20
437.0
 30
0.0
 11
490.0
 21
438.0
 31
0.0
  0
LINE
  8
0
 10
508.0
 20
438.0
 30
0.0
 11
518.0
 21
438.0
 31
0.0
  0
LINE
  8
0
 10
518.0
 20
438.0
 30
0.0
 11
518.0
 21
437.0
 31
0.0
  0
LINE
  8
0
 10
518.0
 20
437.0
 30
0.0
 11
508.0
 21
437.0
 31
0.0
  0
LINE
  8
0
 10
508.0
 20
437.0
 30
0.0
 11
508.0
 21
438.0
 31
0.0
  0
LINE
  8
0
 10
528.0
 20
438.0
 30
0.0
 11
534.0
 21
438.0
 31
0.0
  0
LINE
  8
0
 10
534.0
 20
438.0
 30
0.0
 11
534.0
 21
437.0
 31
0.0
  0
LINE
  8
0
 10
534.0
 20
437.0
 30
0.0
 11
528.0
 21
437.0
 31
0.0
  0
LINE
  8
0
 10
528.0
 20
437.0
 30
0.0
 11
528.0
 21
438.0
 31
0.0
  0
LINE
  8
0
 10
490.0
 20
437.0
 30
0.0
 11
498.0
 21
437.0
 31
0.0
  0
LINE
  8
0
 10
498.0
 20
437.0
 30
0.0
 11
498.0
 21
436.0
 31
0.0
  0
LINE
  8
0
 10
498.0
 20
436.0
 30
0.0
 11
490.0
 21
436.0
 31
0.0
  0
LINE
  8
0
 10
490.0
 20
436.0
 30
0.0
 11
490.0
 21
437.0
 31
0.0
  0
LINE
  8
0
 10
508.0
 20
437.0
 30
0.0
 11
517.0
 21
437.0
 31
0.0
  0
LINE
  8
0
 10
517.0
 20
437.0
 30
0.0
 11
517.0
 21
436.0
 31
0.0
  0
LINE
  8
0
 10
517.0
 20
436.0
 30
0.0
 11
508.0
 21
436.0
 31
0.0
  0
LINE
  8
0
 10
508.0
 20
436.0
 30
0.0
 11
508.0
 21
437.0
 31
0.0
  0
LINE
  8
0
 10
529.0
 20
437.0
 30
0.0
 11
533.0
 21
437.0
 31
0.0
  0
LINE
  8
0
 10
533.0
 20
437.0
 30
0.0
 11
533.0
 21
436.0
 31
0.0
  0
LINE
  8
0
 10
533.0
 20
436.0
 30
0.0
 11
529.0
 21
436.0
 31
0.0
  0
LINE
  8
0
 10
529.0
 20
436.0
 30
0.0
 11
529.0
 21
437.0
 31
0.0
  0
LINE
  8
0
 10
490.0
 20
436.0
 30
0.0
 11
497.0
 21
436.0
 31
0.0
  0
LINE
  8
0
 10
497.0
 20
436.0
 30
0.0
 11
497.0
 21
435.0
 31
0.0
  0
LINE
  8
0
 10
497.0
 20
435.0
 30
0.0
 11
490.0
 21
435.0
 31
0.0
  0
LINE
  8
0
 10
490.0
 20
435.0
 30
0.0
 11
490.0
 21
436.0
 31
0.0
  0
LINE
  8
0
 10
509.0
 20
436.0
 30
0.0
 11
517.0
 21
436.0
 31
0.0
  0
LINE
  8
0
 10
517.0
 20
436.0
 30
0.0
 11
517.0
 21
435.0
 31
0.0
  0
LINE
  8
0
 10
517.0
 20
435.0
 30
0.0
 11
509.0
 21
435.0
 31
0.0
  0
LINE
  8
0
 10
509.0
 20
435.0
 30
0.0
 11
509.0
 21
436.0
 31
0.0
  0
LINE
  8
0
 10
530.0
 20
436.0
 30
0.0
 11
533.0
 21
436.0
 31
0.0
  0
LINE
  8
0
 10
533.0
 20
436.0
 30
0.0
 11
533.0
 21
435.0
 31
0.0
  0
LINE
  8
0
 10
533.0
 20
435.0
 30
0.0
 11
530.0
 21
435.0
 31
0.0
  0
LINE
  8
0
 10
530.0
 20
435.0
 30
0.0
 11
530.0
 21
436.0
 31
0.0
  0
LINE
  8
0
 10
490.0
 20
435.0
 30
0.0
 11
496.0
 21
435.0
 31
0.0
  0
LINE
  8
0
 10
496.0
 20
435.0
 30
0.0
 11
496.0
 21
434.0
 31
0.0
  0
LINE
  8
0
 10
496.0
 20
434.0
 30
0.0
 11
490.0
 21
434.0
 31
0.0
  0
LINE
  8
0
 10
490.0
 20
434.0
 30
0.0
 11
490.0
 21
435.0
 31
0.0
  0
LINE
  8
0
 10
509.0
 20
435.0
 30
0.0
 11
517.0
 21
435.0
 31
0.0
  0
LINE
  8
0
 10
517.0
 20
435.0
 30
0.0
 11
517.0
 21
434.0
 31
0.0
  0
LINE
  8
0
 10
517.0
 20
434.0
 30
0.0
 11
509.0
 21
434.0
 31
0.0
  0
LINE
  8
0
 10
509.0
 20
434.0
 30
0.0
 11
509.0
 21
435.0
 31
0.0
  0
LINE
  8
0
 10
531.0
 20
435.0
 30
0.0
 11
533.0
 21
435.0
 31
0.0
  0
LINE
  8
0
 10
533.0
 20
435.0
 30
0.0
 11
533.0
 21
434.0
 31
0.0
  0
LINE
  8
0
 10
533.0
 20
434.0
 30
0.0
 11
531.0
 21
434.0
 31
0.0
  0
LINE
  8
0
 10
531.0
 20
434.0
 30
0.0
 11
531.0
 21
435.0
 31
0.0
  0
LINE
  8
0
 10
490.0
 20
434.0
 30
0.0
 11
494.0
 21
434.0
 31
0.0
  0
LINE
  8
0
 10
494.0
 20
434.0
 30
0.0
 11
494.0
 21
433.0
 31
0.0
  0
LINE
  8
0
 10
494.0
 20
433.0
 30
0.0
 11
490.0
 21
433.0
 31
0.0
  0
LINE
  8
0
 10
490.0
 20
433.0
 30
0.0
 11
490.0
 21
434.0
 31
0.0
  0
LINE
  8
0
 10
510.0
 20
434.0
 30
0.0
 11
516.0
 21
434.0
 31
0.0
  0
LINE
  8
0
 10
516.0
 20
434.0
 30
0.0
 11
516.0
 21
433.0
 31
0.0
  0
LINE
  8
0
 10
516.0
 20
433.0
 30
0.0
 11
510.0
 21
433.0
 31
0.0
  0
LINE
  8
0
 10
510.0
 20
433.0
 30
0.0
 11
510.0
 21
434.0
 31
0.0
  0
LINE
  8
0
 10
490.0
 20
433.0
 30
0.0
 11
493.0
 21
433.0
 31
0.0
  0
LINE
  8
0
 10
493.0
 20
433.0
 30
0.0
 11
493.0
 21
432.0
 31
0.0
  0
LINE
  8
0
 10
493.0
 20
432.0
 30
0.0
 11
490.0
 21
432.0
 31
0.0
  0
LINE
  8
0
 10
490.0
 20
432.0
 30
0.0
 11
490.0
 21
433.0
 31
0.0
  0
LINE
  8
0
 10
510.0
 20
433.0
 30
0.0
 11
516.0
 21
433.0
 31
0.0
  0
LINE
  8
0
 10
516.0
 20
433.0
 30
0.0
 11
516.0
 21
432.0
 31
0.0
  0
LINE
  8
0
 10
516.0
 20
432.0
 30
0.0
 11
510.0
 21
432.0
 31
0.0
  0
LINE
  8
0
 10
510.0
 20
432.0
 30
0.0
 11
510.0
 21
433.0
 31
0.0
  0
LINE
  8
0
 10
511.0
 20
432.0
 30
0.0
 11
515.0
 21
432.0
 31
0.0
  0
LINE
  8
0
 10
515.0
 20
432.0
 30
0.0
 11
515.0
 21
431.0
 31
0.0
  0
LINE
  8
0
 10
515.0
 20
431.0
 30
0.0
 11
511.0
 21
431.0
 31
0.0
  0
LINE
  8
0
 10
511.0
 20
431.0
 30
0.0
 11
511.0
 21
432.0
 31
0.0
  0
LINE
  8
0
 10
511.0
 20
431.0
 30
0.0
 11
515.0
 21
431.0
 31
0.0
  0
LINE
  8
0
 10
515.0
 20
431.0
 30
0.0
 11
515.0
 21
430.0
 31
0.0
  0
LINE
  8
0
 10
515.0
 20
430.0
 30
0.0
 11
511.0
 21
430.0
 31
0.0
  0
LINE
  8
0
 10
511.0
 20
430.0
 30
0.0
 11
511.0
 21
431.0
 31
0.0
  0
LINE
  8
0
 10
512.0
 20
430.0
 30
0.0
 11
514.0
 21
430.0
 31
0.0
  0
LINE
  8
0
 10
514.0
 20
430.0
 30
0.0
 11
514.0
 21
429.0
 31
0.0
  0
LINE
  8
0
 10
514.0
 20
429.0
 30
0.0
 11
512.0
 21
429.0
 31
0.0
  0
LINE
  8
0
 10
512.0
 20
429.0
 30
0.0
 11
512.0
 21
430.0
 31
0.0
  0
LINE
  8
0
 10
589.0
 20
427.0
 30
0.0
 11
591.0
 21
427.0
 31
0.0
  0
LINE
  8
0
 10
591.0
 20
427.0
 30
0.0
 11
591.0
 21
426.0
 31
0.0
  0
LINE
  8
0
 10
591.0
 20
426.0
 30
0.0
 11
589.0
 21
426.0
 31
0.0
  0
LINE
  8
0
 10
589.0
 20
426.0
 30
0.0
 11
589.0
 21
427.0
 31
0.0
  0
LINE
  8
0
 10
589.0
 20
426.0
 30
0.0
 11
592.0
 21
426.0
 31
0.0
  0
LINE
  8
0
 10
592.0
 20
426.0
 30
0.0
 11
592.0
 21
425.0
 31
0.0
  0
LINE
  8
0
 10
592.0
 20
425.0
 30
0.0
 11
589.0
 21
425.0
 31
0.0
  0
LINE
  8
0
 10
589.0
 20
425.0
 30
0.0
 11
589.0
 21
426.0
 31
0.0
  0
LINE
  8
0
 10
588.0
 20
425.0
 30
0.0
 11
592.0
 21
425.0
 31
0.0
  0
LINE
  8
0
 10
592.0
 20
425.0
 30
0.0
 11
592.0
 21
424.0
 31
0.0
  0
LINE
  8
0
 10
592.0
 20
424.0
 30
0.0
 11
588.0
 21
424.0
 31
0.0
  0
LINE
  8
0
 10
588.0
 20
424.0
 30
0.0
 11
588.0
 21
425.0
 31
0.0
  0
LINE
  8
0
 10
588.0
 20
424.0
 30
0.0
 11
593.0
 21
424.0
 31
0.0
  0
LINE
  8
0
 10
593.0
 20
424.0
 30
0.0
 11
593.0
 21
423.0
 31
0.0
  0
LINE
  8
0
 10
593.0
 20
423.0
 30
0.0
 11
588.0
 21
423.0
 31
0.0
  0
LINE
  8
0
 10
588.0
 20
423.0
 30
0.0
 11
588.0
 21
424.0
 31
0.0
  0
LINE
  8
0
 10
588.0
 20
423.0
 30
0.0
 11
593.0
 21
423.0
 31
0.0
  0
LINE
  8
0
 10
593.0
 20
423.0
 30
0.0
 11
593.0
 21
422.0
 31
0.0
  0
LINE
  8
0
 10
593.0
 20
422.0
 30
0.0
 11
588.0
 21
422.0
 31
0.0
  0
LINE
  8
0
 10
588.0
 20
422.0
 30
0.0
 11
588.0
 21
423.0
 31
0.0
  0
LINE
  8
0
 10
588.0
 20
422.0
 30
0.0
 11
593.0
 21
422.0
 31
0.0
  0
LINE
  8
0
 10
593.0
 20
422.0
 30
0.0
 11
593.0
 21
421.0
 31
0.0
  0
LINE
  8
0
 10
593.0
 20
421.0
 30
0.0
 11
588.0
 21
421.0
 31
0.0
  0
LINE
  8
0
 10
588.0
 20
421.0
 30
0.0
 11
588.0
 21
422.0
 31
0.0
  0
LINE
  8
0
 10
587.0
 20
421.0
 30
0.0
 11
594.0
 21
421.0
 31
0.0
  0
LINE
  8
0
 10
594.0
 20
421.0
 30
0.0
 11
594.0
 21
420.0
 31
0.0
  0
LINE
  8
0
 10
594.0
 20
420.0
 30
0.0
 11
587.0
 21
420.0
 31
0.0
  0
LINE
  8
0
 10
587.0
 20
420.0
 30
0.0
 11
587.0
 21
421.0
 31
0.0
  0
LINE
  8
0
 10
587.0
 20
420.0
 30
0.0
 11
594.0
 21
420.0
 31
0.0
  0
LINE
  8
0
 10
594.0
 20
420.0
 30
0.0
 11
594.0
 21
419.0
 31
0.0
  0
LINE
  8
0
 10
594.0
 20
419.0
 30
0.0
 11
587.0
 21
419.0
 31
0.0
  0
LINE
  8
0
 10
587.0
 20
419.0
 30
0.0
 11
587.0
 21
420.0
 31
0.0
  0
LINE
  8
0
 10
587.0
 20
419.0
 30
0.0
 11
594.0
 21
419.0
 31
0.0
  0
LINE
  8
0
 10
594.0
 20
419.0
 30
0.0
 11
594.0
 21
418.0
 31
0.0
  0
LINE
  8
0
 10
594.0
 20
418.0
 30
0.0
 11
587.0
 21
418.0
 31
0.0
  0
LINE
  8
0
 10
587.0
 20
418.0
 30
0.0
 11
587.0
 21
419.0
 31
0.0
  0
LINE
  8
0
 10
587.0
 20
418.0
 30
0.0
 11
595.0
 21
418.0
 31
0.0
  0
LINE
  8
0
 10
595.0
 20
418.0
 30
0.0
 11
595.0
 21
417.0
 31
0.0
  0
LINE
  8
0
 10
595.0
 20
417.0
 30
0.0
 11
587.0
 21
417.0
 31
0.0
  0
LINE
  8
0
 10
587.0
 20
417.0
 30
0.0
 11
587.0
 21
418.0
 31
0.0
  0
LINE
  8
0
 10
587.0
 20
417.0
 30
0.0
 11
595.0
 21
417.0
 31
0.0
  0
LINE
  8
0
 10
595.0
 20
417.0
 30
0.0
 11
595.0
 21
416.0
 31
0.0
  0
LINE
  8
0
 10
595.0
 20
416.0
 30
0.0
 11
587.0
 21
416.0
 31
0.0
  0
LINE
  8
0
 10
587.0
 20
416.0
 30
0.0
 11
587.0
 21
417.0
 31
0.0
  0
LINE
  8
0
 10
587.0
 20
416.0
 30
0.0
 11
595.0
 21
416.0
 31
0.0
  0
LINE
  8
0
 10
595.0
 20
416.0
 30
0.0
 11
595.0
 21
415.0
 31
0.0
  0
LINE
  8
0
 10
595.0
 20
415.0
 30
0.0
 11
587.0
 21
415.0
 31
0.0
  0
LINE
  8
0
 10
587.0
 20
415.0
 30
0.0
 11
587.0
 21
416.0
 31
0.0
  0
LINE
  8
0
 10
587.0
 20
415.0
 30
0.0
 11
595.0
 21
415.0
 31
0.0
  0
LINE
  8
0
 10
595.0
 20
415.0
 30
0.0
 11
595.0
 21
414.0
 31
0.0
  0
LINE
  8
0
 10
595.0
 20
414.0
 30
0.0
 11
587.0
 21
414.0
 31
0.0
  0
LINE
  8
0
 10
587.0
 20
414.0
 30
0.0
 11
587.0
 21
415.0
 31
0.0
  0
LINE
  8
0
 10
586.0
 20
414.0
 30
0.0
 11
596.0
 21
414.0
 31
0.0
  0
LINE
  8
0
 10
596.0
 20
414.0
 30
0.0
 11
596.0
 21
413.0
 31
0.0
  0
LINE
  8
0
 10
596.0
 20
413.0
 30
0.0
 11
586.0
 21
413.0
 31
0.0
  0
LINE
  8
0
 10
586.0
 20
413.0
 30
0.0
 11
586.0
 21
414.0
 31
0.0
  0
LINE
  8
0
 10
409.0
 20
413.0
 30
0.0
 11
414.0
 21
413.0
 31
0.0
  0
LINE
  8
0
 10
414.0
 20
413.0
 30
0.0
 11
414.0
 21
412.0
 31
0.0
  0
LINE
  8
0
 10
414.0
 20
412.0
 30
0.0
 11
409.0
 21
412.0
 31
0.0
  0
LINE
  8
0
 10
409.0
 20
412.0
 30
0.0
 11
409.0
 21
413.0
 31
0.0
  0
LINE
  8
0
 10
586.0
 20
413.0
 30
0.0
 11
596.0
 21
413.0
 31
0.0
  0
LINE
  8
0
 10
596.0
 20
413.0
 30
0.0
 11
596.0
 21
412.0
 31
0.0
  0
LINE
  8
0
 10
596.0
 20
412.0
 30
0.0
 11
586.0
 21
412.0
 31
0.0
  0
LINE
  8
0
 10
586.0
 20
412.0
 30
0.0
 11
586.0
 21
413.0
 31
0.0
  0
LINE
  8
0
 10
407.0
 20
412.0
 30
0.0
 11
414.0
 21
412.0
 31
0.0
  0
LINE
  8
0
 10
414.0
 20
412.0
 30
0.0
 11
414.0
 21
411.0
 31
0.0
  0
LINE
  8
0
 10
414.0
 20
411.0
 30
0.0
 11
407.0
 21
411.0
 31
0.0
  0
LINE
  8
0
 10
407.0
 20
411.0
 30
0.0
 11
407.0
 21
412.0
 31
0.0
  0
LINE
  8
0
 10
586.0
 20
412.0
 30
0.0
 11
596.0
 21
412.0
 31
0.0
  0
LINE
  8
0
 10
596.0
 20
412.0
 30
0.0
 11
596.0
 21
411.0
 31
0.0
  0
LINE
  8
0
 10
596.0
 20
411.0
 30
0.0
 11
586.0
 21
411.0
 31
0.0
  0
LINE
  8
0
 10
586.0
 20
411.0
 30
0.0
 11
586.0
 21
412.0
 31
0.0
  0
LINE
  8
0
 10
600.0
 20
412.0
 30
0.0
 11
602.0
 21
412.0
 31
0.0
  0
LINE
  8
0
 10
602.0
 20
412.0
 30
0.0
 11
602.0
 21
411.0
 31
0.0
  0
LINE
  8
0
 10
602.0
 20
411.0
 30
0.0
 11
600.0
 21
411.0
 31
0.0
  0
LINE
  8
0
 10
600.0
 20
411.0
 30
0.0
 11
600.0
 21
412.0
 31
0.0
  0
LINE
  8
0
 10
404.0
 20
411.0
 30
0.0
 11
413.0
 21
411.0
 31
0.0
  0
LINE
  8
0
 10
413.0
 20
411.0
 30
0.0
 11
413.0
 21
410.0
 31
0.0
  0
LINE
  8
0
 10
413.0
 20
410.0
 30
0.0
 11
404.0
 21
410.0
 31
0.0
  0
LINE
  8
0
 10
404.0
 20
410.0
 30
0.0
 11
404.0
 21
411.0
 31
0.0
  0
LINE
  8
0
 10
586.0
 20
411.0
 30
0.0
 11
596.0
 21
411.0
 31
0.0
  0
LINE
  8
0
 10
596.0
 20
411.0
 30
0.0
 11
596.0
 21
410.0
 31
0.0
  0
LINE
  8
0
 10
596.0
 20
410.0
 30
0.0
 11
586.0
 21
410.0
 31
0.0
  0
LINE
  8
0
 10
586.0
 20
410.0
 30
0.0
 11
586.0
 21
411.0
 31
0.0
  0
LINE
  8
0
 10
599.0
 20
411.0
 30
0.0
 11
602.0
 21
411.0
 31
0.0
  0
LINE
  8
0
 10
602.0
 20
411.0
 30
0.0
 11
602.0
 21
410.0
 31
0.0
  0
LINE
  8
0
 10
602.0
 20
410.0
 30
0.0
 11
599.0
 21
410.0
 31
0.0
  0
LINE
  8
0
 10
599.0
 20
410.0
 30
0.0
 11
599.0
 21
411.0
 31
0.0
  0
LINE
  8
0
 10
402.0
 20
410.0
 30
0.0
 11
411.0
 21
410.0
 31
0.0
  0
LINE
  8
0
 10
411.0
 20
410.0
 30
0.0
 11
411.0
 21
409.0
 31
0.0
  0
LINE
  8
0
 10
411.0
 20
409.0
 30
0.0
 11
402.0
 21
409.0
 31
0.0
  0
LINE
  8
0
 10
402.0
 20
409.0
 30
0.0
 11
402.0
 21
410.0
 31
0.0
  0
LINE
  8
0
 10
586.0
 20
410.0
 30
0.0
 11
596.0
 21
410.0
 31
0.0
  0
LINE
  8
0
 10
596.0
 20
410.0
 30
0.0
 11
596.0
 21
409.0
 31
0.0
  0
LINE
  8
0
 10
596.0
 20
409.0
 30
0.0
 11
586.0
 21
409.0
 31
0.0
  0
LINE
  8
0
 10
586.0
 20
409.0
 30
0.0
 11
586.0
 21
410.0
 31
0.0
  0
LINE
  8
0
 10
599.0
 20
410.0
 30
0.0
 11
602.0
 21
410.0
 31
0.0
  0
LINE
  8
0
 10
602.0
 20
410.0
 30
0.0
 11
602.0
 21
409.0
 31
0.0
  0
LINE
  8
0
 10
602.0
 20
409.0
 30
0.0
 11
599.0
 21
409.0
 31
0.0
  0
LINE
  8
0
 10
599.0
 20
409.0
 30
0.0
 11
599.0
 21
410.0
 31
0.0
  0
ENDSEC
  0
EOF