  0
SECTION
  2
HEADER
  9
$ACADVER
  1
AC1009
  0
ENDSEC
  0
SECTION
  2
ENTITIES
  0
LINE
  8
0
 10
636.0
 20
637.0
 30
0.0
 11
642.0
 21
637.0
 31
0.0
  0
LINE
  8
0
 10
642.0
 20
637.0
 30
0.0
 11
642.0
 21
636.0
 31
0.0
  0
LINE
  8
0
 10
642.0
 20
636.0
 30
0.0
 11
636.0
 21
636.0
 31
0.0
  0
LINE
  8
0
 10
636.0
 20
636.0
 30
0.0
 11
636.0
 21
637.0
 31
0.0
  0
LINE
  8
0
 10
627.0
 20
636.0
 30
0.0
 11
645.0
 21
636.0
 31
0.0
  0
LINE
  8
0
 10
645.0
 20
636.0
 30
0.0
 11
645.0
 21
635.0
 31
0.0
  0
LINE
  8
0
 10
645.0
 20
635.0
 30
0.0
 11
627.0
 21
635.0
 31
0.0
  0
LINE
  8
0
 10
627.0
 20
635.0
 30
0.0
 11
627.0
 21
636.0
 31
0.0
  0
LINE
  8
0
 10
624.0
 20
635.0
 30
0.0
 11
646.0
 21
635.0
 31
0.0
  0
LINE
  8
0
 10
646.0
 20
635.0
 30
0.0
 11
646.0
 21
634.0
 31
0.0
  0
LINE
  8
0
 10
646.0
 20
634.0
 30
0.0
 11
624.0
 21
634.0
 31
0.0
  0
LINE
  8
0
 10
624.0
 20
634.0
 30
0.0
 11
624.0
 21
635.0
 31
0.0
  0
LINE
  8
0
 10
609.0
 20
634.0
 30
0.0
 11
611.0
 21
634.0
 31
0.0
  0
LINE
  8
0
 10
611.0
 20
634.0
 30
0.0
 11
611.0
 21
633.0
 31
0.0
  0
LINE
  8
0
 10
611.0
 20
633.0
 30
0.0
 11
609.0
 21
633.0
 31
0.0
  0
LINE
  8
0
 10
609.0
 20
633.0
 30
0.0
 11
609.0
 21
634.0
 31
0.0
  0
LINE
  8
0
 10
620.0
 20
634.0
 30
0.0
 11
647.0
 21
634.0
 31
0.0
  0
LINE
  8
0
 10
647.0
 20
634.0
 30
0.0
 11
647.0
 21
633.0
 31
0.0
  0
LINE
  8
0
 10
647.0
 20
633.0
 30
0.0
 11
620.0
 21
633.0
 31
0.0
  0
LINE
  8
0
 10
620.0
 20
633.0
 30
0.0
 11
620.0
 21
634.0
 31
0.0
  0
LINE
  8
0
 10
607.0
 20
633.0
 30
0.0
 11
649.0
 21
633.0
 31
0.0
  0
LINE
  8
0
 10
649.0
 20
633.0
 30
0.0
 11
649.0
 21
632.0
 31
0.0
  0
LINE
  8
0
 10
649.0
 20
632.0
 30
0.0
 11
607.0
 21
632.0
 31
0.0
  0
LINE
  8
0
 10
607.0
 20
632.0
 30
0.0
 11
607.0
 21
633.0
 31
0.0
  0
LINE
  8
0
 10
607.0
 20
632.0
 30
0.0
 11
662.0
 21
632.0
 31
0.0
  0
LINE
  8
0
 10
662.0
 20
632.0
 30
0.0
 11
662.0
 21
631.0
 31
0.0
  0
LINE
  8
0
 10
662.0
 20
631.0
 30
0.0
 11
607.0
 21
631.0
 31
0.0
  0
LINE
  8
0
 10
607.0
 20
631.0
 30
0.0
 11
607.0
 21
632.0
 31
0.0
  0
LINE
  8
0
 10
607.0
 20
631.0
 30
0.0
 11
667.0
 21
631.0
 31
0.0
  0
LINE
  8
0
 10
667.0
 20
631.0
 30
0.0
 11
667.0
 21
630.0
 31
0.0
  0
LINE
  8
0
 10
667.0
 20
630.0
 30
0.0
 11
607.0
 21
630.0
 31
0.0
  0
LINE
  8
0
 10
607.0
 20
630.0
 30
0.0
 11
607.0
 21
631.0
 31
0.0
  0
LINE
  8
0
 10
608.0
 20
630.0
 30
0.0
 11
670.0
 21
630.0
 31
0.0
  0
LINE
  8
0
 10
670.0
 20
630.0
 30
0.0
 11
670.0
 21
629.0
 31
0.0
  0
LINE
  8
0
 10
670.0
 20
629.0
 30
0.0
 11
608.0
 21
629.0
 31
0.0
  0
LINE
  8
0
 10
608.0
 20
629.0
 30
0.0
 11
608.0
 21
630.0
 31
0.0
  0
LINE
  8
0
 10
608.0
 20
629.0
 30
0.0
 11
672.0
 21
629.0
 31
0.0
  0
LINE
  8
0
 10
672.0
 20
629.0
 30
0.0
 11
672.0
 21
628.0
 31
0.0
  0
LINE
  8
0
 10
672.0
 20
628.0
 30
0.0
 11
608.0
 21
628.0
 31
0.0
  0
LINE
  8
0
 10
608.0
 20
628.0
 30
0.0
 11
608.0
 21
629.0
 31
0.0
  0
LINE
  8
0
 10
609.0
 20
628.0
 30
0.0
 11
675.0
 21
628.0
 31
0.0
  0
LINE
  8
0
 10
675.0
 20
628.0
 30
0.0
 11
675.0
 21
627.0
 31
0.0
  0
LINE
  8
0
 10
675.0
 20
627.0
 30
0.0
 11
609.0
 21
627.0
 31
0.0
  0
LINE
  8
0
 10
609.0
 20
627.0
 30
0.0
 11
609.0
 21
628.0
 31
0.0
  0
LINE
  8
0
 10
610.0
 20
627.0
 30
0.0
 11
676.0
 21
627.0
 31
0.0
  0
LINE
  8
0
 10
676.0
 20
627.0
 30
0.0
 11
676.0
 21
626.0
 31
0.0
  0
LINE
  8
0
 10
676.0
 20
626.0
 30
0.0
 11
610.0
 21
626.0
 31
0.0
  0
LINE
  8
0
 10
610.0
 20
626.0
 30
0.0
 11
610.0
 21
627.0
 31
0.0
  0
LINE
  8
0
 10
611.0
 20
626.0
 30
0.0
 11
678.0
 21
626.0
 31
0.0
  0
LINE
  8
0
 10
678.0
 20
626.0
 30
0.0
 11
678.0
 21
625.0
 31
0.0
  0
LINE
  8
0
 10
678.0
 20
625.0
 30
0.0
 11
611.0
 21
625.0
 31
0.0
  0
LINE
  8
0
 10
611.0
 20
625.0
 30
0.0
 11
611.0
 21
626.0
 31
0.0
  0
LINE
  8
0
 10
612.0
 20
625.0
 30
0.0
 11
680.0
 21
625.0
 31
0.0
  0
LINE
  8
0
 10
680.0
 20
625.0
 30
0.0
 11
680.0
 21
624.0
 31
0.0
  0
LINE
  8
0
 10
680.0
 20
624.0
 30
0.0
 11
612.0
 21
624.0
 31
0.0
  0
LINE
  8
0
 10
612.0
 20
624.0
 30
0.0
 11
612.0
 21
625.0
 31
0.0
  0
LINE
  8
0
 10
613.0
 20
624.0
 30
0.0
 11
681.0
 21
624.0
 31
0.0
  0
LINE
  8
0
 10
681.0
 20
624.0
 30
0.0
 11
681.0
 21
623.0
 31
0.0
  0
LINE
  8
0
 10
681.0
 20
623.0
 30
0.0
 11
613.0
 21
623.0
 31
0.0
  0
LINE
  8
0
 10
613.0
 20
623.0
 30
0.0
 11
613.0
 21
624.0
 31
0.0
  0
LINE
  8
0
 10
615.0
 20
623.0
 30
0.0
 11
682.0
 21
623.0
 31
0.0
  0
LINE
  8
0
 10
682.0
 20
623.0
 30
0.0
 11
682.0
 21
622.0
 31
0.0
  0
LINE
  8
0
 10
682.0
 20
622.0
 30
0.0
 11
615.0
 21
622.0
 31
0.0
  0
LINE
  8
0
 10
615.0
 20
622.0
 30
0.0
 11
615.0
 21
623.0
 31
0.0
  0
LINE
  8
0
 10
617.0
 20
622.0
 30
0.0
 11
683.0
 21
622.0
 31
0.0
  0
LINE
  8
0
 10
683.0
 20
622.0
 30
0.0
 11
683.0
 21
621.0
 31
0.0
  0
LINE
  8
0
 10
683.0
 20
621.0
 30
0.0
 11
617.0
 21
621.0
 31
0.0
  0
LINE
  8
0
 10
617.0
 20
621.0
 30
0.0
 11
617.0
 21
622.0
 31
0.0
  0
LINE
  8
0
 10
627.0
 20
621.0
 30
0.0
 11
685.0
 21
621.0
 31
0.0
  0
LINE
  8
0
 10
685.0
 20
621.0
 30
0.0
 11
685.0
 21
620.0
 31
0.0
  0
LINE
  8
0
 10
685.0
 20
620.0
 30
0.0
 11
627.0
 21
620.0
 31
0.0
  0
LINE
  8
0
 10
627.0
 20
620.0
 30
0.0
 11
627.0
 21
621.0
 31
0.0
  0
LINE
  8
0
 10
623.0
 20
620.0
 30
0.0
 11
626.0
 21
620.0
 31
0.0
  0
LINE
  8
0
 10
626.0
 20
620.0
 30
0.0
 11
626.0
 21
619.0
 31
0.0
  0
LINE
  8
0
 10
626.0
 20
619.0
 30
0.0
 11
623.0
 21
619.0
 31
0.0
  0
LINE
  8
0
 10
623.0
 20
619.0
 30
0.0
 11
623.0
 21
620.0
 31
0.0
  0
LINE
  8
0
 10
628.0
 20
620.0
 30
0.0
 11
686.0
 21
620.0
 31
0.0
  0
LINE
  8
0
 10
686.0
 20
620.0
 30
0.0
 11
686.0
 21
619.0
 31
0.0
  0
LINE
  8
0
 10
686.0
 20
619.0
 30
0.0
 11
628.0
 21
619.0
 31
0.0
  0
LINE
  8
0
 10
628.0
 20
619.0
 30
0.0
 11
628.0
 21
620.0
 31
0.0
  0
LINE
  8
0
 10
626.0
 20
619.0
 30
0.0
 11
687.0
 21
619.0
 31
0.0
  0
LINE
  8
0
 10
687.0
 20
619.0
 30
0.0
 11
687.0
 21
618.0
 31
0.0
  0
LINE
  8
0
 10
687.0
 20
618.0
 30
0.0
 11
626.0
 21
618.0
 31
0.0
  0
LINE
  8
0
 10
626.0
 20
618.0
 30
0.0
 11
626.0
 21
619.0
 31
0.0
  0
LINE
  8
0
 10
624.0
 20
618.0
 30
0.0
 11
687.0
 21
618.0
 31
0.0
  0
LINE
  8
0
 10
687.0
 20
618.0
 30
0.0
 11
687.0
 21
617.0
 31
0.0
  0
LINE
  8
0
 10
687.0
 20
617.0
 30
0.0
 11
624.0
 21
617.0
 31
0.0
  0
LINE
  8
0
 10
624.0
 20
617.0
 30
0.0
 11
624.0
 21
618.0
 31
0.0
  0
LINE
  8
0
 10
622.0
 20
617.0
 30
0.0
 11
687.0
 21
617.0
 31
0.0
  0
LINE
  8
0
 10
687.0
 20
617.0
 30
0.0
 11
687.0
 21
616.0
 31
0.0
  0
LINE
  8
0
 10
687.0
 20
616.0
 30
0.0
 11
622.0
 21
616.0
 31
0.0
  0
LINE
  8
0
 10
622.0
 20
616.0
 30
0.0
 11
622.0
 21
617.0
 31
0.0
  0
LINE
  8
0
 10
620.0
 20
616.0
 30
0.0
 11
687.0
 21
616.0
 31
0.0
  0
LINE
  8
0
 10
687.0
 20
616.0
 30
0.0
 11
687.0
 21
615.0
 31
0.0
  0
LINE
  8
0
 10
687.0
 20
615.0
 30
0.0
 11
620.0
 21
615.0
 31
0.0
  0
LINE
  8
0
 10
620.0
 20
615.0
 30
0.0
 11
620.0
 21
616.0
 31
0.0
  0
LINE
  8
0
 10
618.0
 20
615.0
 30
0.0
 11
687.0
 21
615.0
 31
0.0
  0
LINE
  8
0
 10
687.0
 20
615.0
 30
0.0
 11
687.0
 21
614.0
 31
0.0
  0
LINE
  8
0
 10
687.0
 20
614.0
 30
0.0
 11
618.0
 21
614.0
 31
0.0
  0
LINE
  8
0
 10
618.0
 20
614.0
 30
0.0
 11
618.0
 21
615.0
 31
0.0
  0
LINE
  8
0
 10
617.0
 20
614.0
 30
0.0
 11
687.0
 21
614.0
 31
0.0
  0
LINE
  8
0
 10
687.0
 20
614.0
 30
0.0
 11
687.0
 21
613.0
 31
0.0
  0
LINE
  8
0
 10
687.0
 20
613.0
 30
0.0
 11
617.0
 21
613.0
 31
0.0
  0
LINE
  8
0
 10
617.0
 20
613.0
 30
0.0
 11
617.0
 21
614.0
 31
0.0
  0
LINE
  8
0
 10
615.0
 20
613.0
 30
0.0
 11
688.0
 21
613.0
 31
0.0
  0
LINE
  8
0
 10
688.0
 20
613.0
 30
0.0
 11
688.0
 21
612.0
 31
0.0
  0
LINE
  8
0
 10
688.0
 20
612.0
 30
0.0
 11
615.0
 21
612.0
 31
0.0
  0
LINE
  8
0
 10
615.0
 20
612.0
 30
0.0
 11
615.0
 21
613.0
 31
0.0
  0
LINE
  8
0
 10
613.0
 20
612.0
 30
0.0
 11
689.0
 21
612.0
 31
0.0
  0
LINE
  8
0
 10
689.0
 20
612.0
 30
0.0
 11
689.0
 21
611.0
 31
0.0
  0
LINE
  8
0
 10
689.0
 20
611.0
 30
0.0
 11
613.0
 21
611.0
 31
0.0
  0
LINE
  8
0
 10
613.0
 20
611.0
 30
0.0
 11
613.0
 21
612.0
 31
0.0
  0
LINE
  8
0
 10
612.0
 20
611.0
 30
0.0
 11
690.0
 21
611.0
 31
0.0
  0
LINE
  8
0
 10
690.0
 20
611.0
 30
0.0
 11
690.0
 21
610.0
 31
0.0
  0
LINE
  8
0
 10
690.0
 20
610.0
 30
0.0
 11
612.0
 21
610.0
 31
0.0
  0
LINE
  8
0
 10
612.0
 20
610.0
 30
0.0
 11
612.0
 21
611.0
 31
0.0
  0
LINE
  8
0
 10
610.0
 20
610.0
 30
0.0
 11
692.0
 21
610.0
 31
0.0
  0
LINE
  8
0
 10
692.0
 20
610.0
 30
0.0
 11
692.0
 21
609.0
 31
0.0
  0
LINE
  8
0
 10
692.0
 20
609.0
 30
0.0
 11
610.0
 21
609.0
 31
0.0
  0
LINE
  8
0
 10
610.0
 20
609.0
 30
0.0
 11
610.0
 21
610.0
 31
0.0
  0
LINE
  8
0
 10
609.0
 20
609.0
 30
0.0
 11
694.0
 21
609.0
 31
0.0
  0
LINE
  8
0
 10
694.0
 20
609.0
 30
0.0
 11
694.0
 21
608.0
 31
0.0
  0
LINE
  8
0
 10
694.0
 20
608.0
 30
0.0
 11
609.0
 21
608.0
 31
0.0
  0
LINE
  8
0
 10
609.0
 20
608.0
 30
0.0
 11
609.0
 21
609.0
 31
0.0
  0
LINE
  8
0
 10
607.0
 20
608.0
 30
0.0
 11
696.0
 21
608.0
 31
0.0
  0
LINE
  8
0
 10
696.0
 20
608.0
 30
0.0
 11
696.0
 21
607.0
 31
0.0
  0
LINE
  8
0
 10
696.0
 20
607.0
 30
0.0
 11
607.0
 21
607.0
 31
0.0
  0
LINE
  8
0
 10
607.0
 20
607.0
 30
0.0
 11
607.0
 21
608.0
 31
0.0
  0
LINE
  8
0
 10
606.0
 20
607.0
 30
0.0
 11
699.0
 21
607.0
 31
0.0
  0
LINE
  8
0
 10
699.0
 20
607.0
 30
0.0
 11
699.0
 21
606.0
 31
0.0
  0
LINE
  8
0
 10
699.0
 20
606.0
 30
0.0
 11
606.0
 21
606.0
 31
0.0
  0
LINE
  8
0
 10
606.0
 20
606.0
 30
0.0
 11
606.0
 21
607.0
 31
0.0
  0
LINE
  8
0
 10
604.0
 20
606.0
 30
0.0
 11
701.0
 21
606.0
 31
0.0
  0
LINE
  8
0
 10
701.0
 20
606.0
 30
0.0
 11
701.0
 21
605.0
 31
0.0
  0
LINE
  8
0
 10
701.0
 20
605.0
 30
0.0
 11
604.0
 21
605.0
 31
0.0
  0
LINE
  8
0
 10
604.0
 20
605.0
 30
0.0
 11
604.0
 21
606.0
 31
0.0
  0
LINE
  8
0
 10
603.0
 20
605.0
 30
0.0
 11
703.0
 21
605.0
 31
0.0
  0
LINE
  8
0
 10
703.0
 20
605.0
 30
0.0
 11
703.0
 21
604.0
 31
0.0
  0
LINE
  8
0
 10
703.0
 20
604.0
 30
0.0
 11
603.0
 21
604.0
 31
0.0
  0
LINE
  8
0
 10
603.0
 20
604.0
 30
0.0
 11
603.0
 21
605.0
 31
0.0
  0
LINE
  8
0
 10
601.0
 20
604.0
 30
0.0
 11
705.0
 21
604.0
 31
0.0
  0
LINE
  8
0
 10
705.0
 20
604.0
 30
0.0
 11
705.0
 21
603.0
 31
0.0
  0
LINE
  8
0
 10
705.0
 20
603.0
 30
0.0
 11
601.0
 21
603.0
 31
0.0
  0
LINE
  8
0
 10
601.0
 20
603.0
 30
0.0
 11
601.0
 21
604.0
 31
0.0
  0
LINE
  8
0
 10
600.0
 20
603.0
 30
0.0
 11
707.0
 21
603.0
 31
0.0
  0
LINE
  8
0
 10
707.0
 20
603.0
 30
0.0
 11
707.0
 21
602.0
 31
0.0
  0
LINE
  8
0
 10
707.0
 20
602.0
 30
0.0
 11
600.0
 21
602.0
 31
0.0
  0
LINE
  8
0
 10
600.0
 20
602.0
 30
0.0
 11
600.0
 21
603.0
 31
0.0
  0
LINE
  8
0
 10
598.0
 20
602.0
 30
0.0
 11
709.0
 21
602.0
 31
0.0
  0
LINE
  8
0
 10
709.0
 20
602.0
 30
0.0
 11
709.0
 21
601.0
 31
0.0
  0
LINE
  8
0
 10
709.0
 20
601.0
 30
0.0
 11
598.0
 21
601.0
 31
0.0
  0
LINE
  8
0
 10
598.0
 20
601.0
 30
0.0
 11
598.0
 21
602.0
 31
0.0
  0
LINE
  8
0
 10
596.0
 20
601.0
 30
0.0
 11
711.0
 21
601.0
 31
0.0
  0
LINE
  8
0
 10
711.0
 20
601.0
 30
0.0
 11
711.0
 21
600.0
 31
0.0
  0
LINE
  8
0
 10
711.0
 20
600.0
 30
0.0
 11
596.0
 21
600.0
 31
0.0
  0
LINE
  8
0
 10
596.0
 20
600.0
 30
0.0
 11
596.0
 21
601.0
 31
0.0
  0
LINE
  8
0
 10
595.0
 20
600.0
 30
0.0
 11
713.0
 21
600.0
 31
0.0
  0
LINE
  8
0
 10
713.0
 20
600.0
 30
0.0
 11
713.0
 21
599.0
 31
0.0
  0
LINE
  8
0
 10
713.0
 20
599.0
 30
0.0
 11
595.0
 21
599.0
 31
0.0
  0
LINE
  8
0
 10
595.0
 20
599.0
 30
0.0
 11
595.0
 21
600.0
 31
0.0
  0
LINE
  8
0
 10
469.0
 20
599.0
 30
0.0
 11
489.0
 21
599.0
 31
0.0
  0
LINE
  8
0
 10
489.0
 20
599.0
 30
0.0
 11
489.0
 21
598.0
 31
0.0
  0
LINE
  8
0
 10
489.0
 20
598.0
 30
0.0
 11
469.0
 21
598.0
 31
0.0
  0
LINE
  8
0
 10
469.0
 20
598.0
 30
0.0
 11
469.0
 21
599.0
 31
0.0
  0
LINE
  8
0
 10
593.0
 20
599.0
 30
0.0
 11
714.0
 21
599.0
 31
0.0
  0
LINE
  8
0
 10
714.0
 20
599.0
 30
0.0
 11
714.0
 21
598.0
 31
0.0
  0
LINE
  8
0
 10
714.0
 20
598.0
 30
0.0
 11
593.0
 21
598.0
 31
0.0
  0
LINE
  8
0
 10
593.0
 20
598.0
 30
0.0
 11
593.0
 21
599.0
 31
0.0
  0
LINE
  8
0
 10
461.0
 20
598.0
 30
0.0
 11
496.0
 21
598.0
 31
0.0
  0
LINE
  8
0
 10
496.0
 20
598.0
 30
0.0
 11
496.0
 21
597.0
 31
0.0
  0
LINE
  8
0
 10
496.0
 20
597.0
 30
0.0
 11
461.0
 21
597.0
 31
0.0
  0
LINE
  8
0
 10
461.0
 20
597.0
 30
0.0
 11
461.0
 21
598.0
 31
0.0
  0
LINE
  8
0
 10
592.0
 20
598.0
 30
0.0
 11
716.0
 21
598.0
 31
0.0
  0
LINE
  8
0
 10
716.0
 20
598.0
 30
0.0
 11
716.0
 21
597.0
 31
0.0
  0
LINE
  8
0
 10
716.0
 20
597.0
 30
0.0
 11
592.0
 21
597.0
 31
0.0
  0
LINE
  8
0
 10
592.0
 20
597.0
 30
0.0
 11
592.0
 21
598.0
 31
0.0
  0
LINE
  8
0
 10
455.0
 20
597.0
 30
0.0
 11
503.0
 21
597.0
 31
0.0
  0
LINE
  8
0
 10
503.0
 20
597.0
 30
0.0
 11
503.0
 21
596.0
 31
0.0
  0
LINE
  8
0
 10
503.0
 20
596.0
 30
0.0
 11
455.0
 21
596.0
 31
0.0
  0
LINE
  8
0
 10
455.0
 20
596.0
 30
0.0
 11
455.0
 21
597.0
 31
0.0
  0
LINE
  8
0
 10
590.0
 20
597.0
 30
0.0
 11
717.0
 21
597.0
 31
0.0
  0
LINE
  8
0
 10
717.0
 20
597.0
 30
0.0
 11
717.0
 21
596.0
 31
0.0
  0
LINE
  8
0
 10
717.0
 20
596.0
 30
0.0
 11
590.0
 21
596.0
 31
0.0
  0
LINE
  8
0
 10
590.0
 20
596.0
 30
0.0
 11
590.0
 21
597.0
 31
0.0
  0
LINE
  8
0
 10
451.0
 20
596.0
 30
0.0
 11
508.0
 21
596.0
 31
0.0
  0
LINE
  8
0
 10
508.0
 20
596.0
 30
0.0
 11
508.0
 21
595.0
 31
0.0
  0
LINE
  8
0
 10
508.0
 20
595.0
 30
0.0
 11
451.0
 21
595.0
 31
0.0
  0
LINE
  8
0
 10
451.0
 20
595.0
 30
0.0
 11
451.0
 21
596.0
 31
0.0
  0
LINE
  8
0
 10
588.0
 20
596.0
 30
0.0
 11
717.0
 21
596.0
 31
0.0
  0
LINE
  8
0
 10
717.0
 20
596.0
 30
0.0
 11
717.0
 21
595.0
 31
0.0
  0
LINE
  8
0
 10
717.0
 20
595.0
 30
0.0
 11
588.0
 21
595.0
 31
0.0
  0
LINE
  8
0
 10
588.0
 20
595.0
 30
0.0
 11
588.0
 21
596.0
 31
0.0
  0
LINE
  8
0
 10
447.0
 20
595.0
 30
0.0
 11
512.0
 21
595.0
 31
0.0
  0
LINE
  8
0
 10
512.0
 20
595.0
 30
0.0
 11
512.0
 21
594.0
 31
0.0
  0
LINE
  8
0
 10
512.0
 20
594.0
 30
0.0
 11
447.0
 21
594.0
 31
0.0
  0
LINE
  8
0
 10
447.0
 20
594.0
 30
0.0
 11
447.0
 21
595.0
 31
0.0
  0
LINE
  8
0
 10
586.0
 20
595.0
 30
0.0
 11
717.0
 21
595.0
 31
0.0
  0
LINE
  8
0
 10
717.0
 20
595.0
 30
0.0
 11
717.0
 21
594.0
 31
0.0
  0
LINE
  8
0
 10
717.0
 20
594.0
 30
0.0
 11
586.0
 21
594.0
 31
0.0
  0
LINE
  8
0
 10
586.0
 20
594.0
 30
0.0
 11
586.0
 21
595.0
 31
0.0
  0
LINE
  8
0
 10
443.0
 20
594.0
 30
0.0
 11
516.0
 21
594.0
 31
0.0
  0
LINE
  8
0
 10
516.0
 20
594.0
 30
0.0
 11
516.0
 21
593.0
 31
0.0
  0
LINE
  8
0
 10
516.0
 20
593.0
 30
0.0
 11
443.0
 21
593.0
 31
0.0
  0
LINE
  8
0
 10
443.0
 20
593.0
 30
0.0
 11
443.0
 21
594.0
 31
0.0
  0
LINE
  8
0
 10
584.0
 20
594.0
 30
0.0
 11
717.0
 21
594.0
 31
0.0
  0
LINE
  8
0
 10
717.0
 20
594.0
 30
0.0
 11
717.0
 21
593.0
 31
0.0
  0
LINE
  8
0
 10
717.0
 20
593.0
 30
0.0
 11
584.0
 21
593.0
 31
0.0
  0
LINE
  8
0
 10
584.0
 20
593.0
 30
0.0
 11
584.0
 21
594.0
 31
0.0
  0
LINE
  8
0
 10
440.0
 20
593.0
 30
0.0
 11
521.0
 21
593.0
 31
0.0
  0
LINE
  8
0
 10
521.0
 20
593.0
 30
0.0
 11
521.0
 21
592.0
 31
0.0
  0
LINE
  8
0
 10
521.0
 20
592.0
 30
0.0
 11
440.0
 21
592.0
 31
0.0
  0
LINE
  8
0
 10
440.0
 20
592.0
 30
0.0
 11
440.0
 21
593.0
 31
0.0
  0
LINE
  8
0
 10
582.0
 20
593.0
 30
0.0
 11
717.0
 21
593.0
 31
0.0
  0
LINE
  8
0
 10
717.0
 20
593.0
 30
0.0
 11
717.0
 21
592.0
 31
0.0
  0
LINE
  8
0
 10
717.0
 20
592.0
 30
0.0
 11
582.0
 21
592.0
 31
0.0
  0
LINE
  8
0
 10
582.0
 20
592.0
 30
0.0
 11
582.0
 21
593.0
 31
0.0
  0
LINE
  8
0
 10
438.0
 20
592.0
 30
0.0
 11
526.0
 21
592.0
 31
0.0
  0
LINE
  8
0
 10
526.0
 20
592.0
 30
0.0
 11
526.0
 21
591.0
 31
0.0
  0
LINE
  8
0
 10
526.0
 20
591.0
 30
0.0
 11
438.0
 21
591.0
 31
0.0
  0
LINE
  8
0
 10
438.0
 20
591.0
 30
0.0
 11
438.0
 21
592.0
 31
0.0
  0
LINE
  8
0
 10
578.0
 20
592.0
 30
0.0
 11
716.0
 21
592.0
 31
0.0
  0
LINE
  8
0
 10
716.0
 20
592.0
 30
0.0
 11
716.0
 21
591.0
 31
0.0
  0
LINE
  8
0
 10
716.0
 20
591.0
 30
0.0
 11
578.0
 21
591.0
 31
0.0
  0
LINE
  8
0
 10
578.0
 20
591.0
 30
0.0
 11
578.0
 21
592.0
 31
0.0
  0
LINE
  8
0
 10
435.0
 20
591.0
 30
0.0
 11
532.0
 21
591.0
 31
0.0
  0
LINE
  8
0
 10
532.0
 20
591.0
 30
0.0
 11
532.0
 21
590.0
 31
0.0
  0
LINE
  8
0
 10
532.0
 20
590.0
 30
0.0
 11
435.0
 21
590.0
 31
0.0
  0
LINE
  8
0
 10
435.0
 20
590.0
 30
0.0
 11
435.0
 21
591.0
 31
0.0
  0
LINE
  8
0
 10
552.0
 20
591.0
 30
0.0
 11
569.0
 21
591.0
 31
0.0
  0
LINE
  8
0
 10
569.0
 20
591.0
 30
0.0
 11
569.0
 21
590.0
 31
0.0
  0
LINE
  8
0
 10
569.0
 20
590.0
 30
0.0
 11
552.0
 21
590.0
 31
0.0
  0
LINE
  8
0
 10
552.0
 20
590.0
 30
0.0
 11
552.0
 21
591.0
 31
0.0
  0
LINE
  8
0
 10
573.0
 20
591.0
 30
0.0
 11
715.0
 21
591.0
 31
0.0
  0
LINE
  8
0
 10
715.0
 20
591.0
 30
0.0
 11
715.0
 21
590.0
 31
0.0
  0
LINE
  8
0
 10
715.0
 20
590.0
 30
0.0
 11
573.0
 21
590.0
 31
0.0
  0
LINE
  8
0
 10
573.0
 20
590.0
 30
0.0
 11
573.0
 21
591.0
 31
0.0
  0
LINE
  8
0
 10
433.0
 20
590.0
 30
0.0
 11
678.0
 21
590.0
 31
0.0
  0
LINE
  8
0
 10
678.0
 20
590.0
 30
0.0
 11
678.0
 21
589.0
 31
0.0
  0
LINE
  8
0
 10
678.0
 20
589.0
 30
0.0
 11
433.0
 21
589.0
 31
0.0
  0
LINE
  8
0
 10
433.0
 20
589.0
 30
0.0
 11
433.0
 21
590.0
 31
0.0
  0
LINE
  8
0
 10
683.0
 20
590.0
 30
0.0
 11
714.0
 21
590.0
 31
0.0
  0
LINE
  8
0
 10
714.0
 20
590.0
 30
0.0
 11
714.0
 21
589.0
 31
0.0
  0
LINE
  8
0
 10
714.0
 20
589.0
 30
0.0
 11
683.0
 21
589.0
 31
0.0
  0
LINE
  8
0
 10
683.0
 20
589.0
 30
0.0
 11
683.0
 21
590.0
 31
0.0
  0
LINE
  8
0
 10
430.0
 20
589.0
 30
0.0
 11
679.0
 21
589.0
 31
0.0
  0
LINE
  8
0
 10
679.0
 20
589.0
 30
0.0
 11
679.0
 21
588.0
 31
0.0
  0
LINE
  8
0
 10
679.0
 20
588.0
 30
0.0
 11
430.0
 21
588.0
 31
0.0
  0
LINE
  8
0
 10
430.0
 20
588.0
 30
0.0
 11
430.0
 21
589.0
 31
0.0
  0
LINE
  8
0
 10
686.0
 20
589.0
 30
0.0
 11
713.0
 21
589.0
 31
0.0
  0
LINE
  8
0
 10
713.0
 20
589.0
 30
0.0
 11
713.0
 21
588.0
 31
0.0
  0
LINE
  8
0
 10
713.0
 20
588.0
 30
0.0
 11
686.0
 21
588.0
 31
0.0
  0
LINE
  8
0
 10
686.0
 20
588.0
 30
0.0
 11
686.0
 21
589.0
 31
0.0
  0
LINE
  8
0
 10
428.0
 20
588.0
 30
0.0
 11
680.0
 21
588.0
 31
0.0
  0
LINE
  8
0
 10
680.0
 20
588.0
 30
0.0
 11
680.0
 21
587.0
 31
0.0
  0
LINE
  8
0
 10
680.0
 20
587.0
 30
0.0
 11
428.0
 21
587.0
 31
0.0
  0
LINE
  8
0
 10
428.0
 20
587.0
 30
0.0
 11
428.0
 21
588.0
 31
0.0
  0
LINE
  8
0
 10
690.0
 20
588.0
 30
0.0
 11
711.0
 21
588.0
 31
0.0
  0
LINE
  8
0
 10
711.0
 20
588.0
 30
0.0
 11
711.0
 21
587.0
 31
0.0
  0
LINE
  8
0
 10
711.0
 20
587.0
 30
0.0
 11
690.0
 21
587.0
 31
0.0
  0
LINE
  8
0
 10
690.0
 20
587.0
 30
0.0
 11
690.0
 21
588.0
 31
0.0
  0
LINE
  8
0
 10
426.0
 20
587.0
 30
0.0
 11
681.0
 21
587.0
 31
0.0
  0
LINE
  8
0
 10
681.0
 20
587.0
 30
0.0
 11
681.0
 21
586.0
 31
0.0
  0
LINE
  8
0
 10
681.0
 20
586.0
 30
0.0
 11
426.0
 21
586.0
 31
0.0
  0
LINE
  8
0
 10
426.0
 20
586.0
 30
0.0
 11
426.0
 21
587.0
 31
0.0
  0
LINE
  8
0
 10
693.0
 20
587.0
 30
0.0
 11
710.0
 21
587.0
 31
0.0
  0
LINE
  8
0
 10
710.0
 20
587.0
 30
0.0
 11
710.0
 21
586.0
 31
0.0
  0
LINE
  8
0
 10
710.0
 20
586.0
 30
0.0
 11
693.0
 21
586.0
 31
0.0
  0
LINE
  8
0
 10
693.0
 20
586.0
 30
0.0
 11
693.0
 21
587.0
 31
0.0
  0
LINE
  8
0
 10
424.0
 20
586.0
 30
0.0
 11
683.0
 21
586.0
 31
0.0
  0
LINE
  8
0
 10
683.0
 20
586.0
 30
0.0
 11
683.0
 21
585.0
 31
0.0
  0
LINE
  8
0
 10
683.0
 20
585.0
 30
0.0
 11
424.0
 21
585.0
 31
0.0
  0
LINE
  8
0
 10
424.0
 20
585.0
 30
0.0
 11
424.0
 21
586.0
 31
0.0
  0
LINE
  8
0
 10
699.0
 20
586.0
 30
0.0
 11
706.0
 21
586.0
 31
0.0
  0
LINE
  8
0
 10
706.0
 20
586.0
 30
0.0
 11
706.0
 21
585.0
 31
0.0
  0
LINE
  8
0
 10
706.0
 20
585.0
 30
0.0
 11
699.0
 21
585.0
 31
0.0
  0
LINE
  8
0
 10
699.0
 20
585.0
 30
0.0
 11
699.0
 21
586.0
 31
0.0
  0
LINE
  8
0
 10
423.0
 20
585.0
 30
0.0
 11
685.0
 21
585.0
 31
0.0
  0
LINE
  8
0
 10
685.0
 20
585.0
 30
0.0
 11
685.0
 21
584.0
 31
0.0
  0
LINE
  8
0
 10
685.0
 20
584.0
 30
0.0
 11
423.0
 21
584.0
 31
0.0
  0
LINE
  8
0
 10
423.0
 20
584.0
 30
0.0
 11
423.0
 21
585.0
 31
0.0
  0
LINE
  8
0
 10
421.0
 20
584.0
 30
0.0
 11
686.0
 21
584.0
 31
0.0
  0
LINE
  8
0
 10
686.0
 20
584.0
 30
0.0
 11
686.0
 21
583.0
 31
0.0
  0
LINE
  8
0
 10
686.0
 20
583.0
 30
0.0
 11
421.0
 21
583.0
 31
0.0
  0
LINE
  8
0
 10
421.0
 20
583.0
 30
0.0
 11
421.0
 21
584.0
 31
0.0
  0
LINE
  8
0
 10
419.0
 20
583.0
 30
0.0
 11
687.0
 21
583.0
 31
0.0
  0
LINE
  8
0
 10
687.0
 20
583.0
 30
0.0
 11
687.0
 21
582.0
 31
0.0
  0
LINE
  8
0
 10
687.0
 20
582.0
 30
0.0
 11
419.0
 21
582.0
 31
0.0
  0
LINE
  8
0
 10
419.0
 20
582.0
 30
0.0
 11
419.0
 21
583.0
 31
0.0
  0
LINE
  8
0
 10
418.0
 20
582.0
 30
0.0
 11
689.0
 21
582.0
 31
0.0
  0
LINE
  8
0
 10
689.0
 20
582.0
 30
0.0
 11
689.0
 21
581.0
 31
0.0
  0
LINE
  8
0
 10
689.0
 20
581.0
 30
0.0
 11
418.0
 21
581.0
 31
0.0
  0
LINE
  8
0
 10
418.0
 20
581.0
 30
0.0
 11
418.0
 21
582.0
 31
0.0
  0
LINE
  8
0
 10
416.0
 20
581.0
 30
0.0
 11
654.0
 21
581.0
 31
0.0
  0
LINE
  8
0
 10
654.0
 20
581.0
 30
0.0
 11
654.0
 21
580.0
 31
0.0
  0
LINE
  8
0
 10
654.0
 20
580.0
 30
0.0
 11
416.0
 21
580.0
 31
0.0
  0
LINE
  8
0
 10
416.0
 20
580.0
 30
0.0
 11
416.0
 21
581.0
 31
0.0
  0
LINE
  8
0
 10
661.0
 20
581.0
 30
0.0
 11
690.0
 21
581.0
 31
0.0
  0
LINE
  8
0
 10
690.0
 20
581.0
 30
0.0
 11
690.0
 21
580.0
 31
0.0
  0
LINE
  8
0
 10
690.0
 20
580.0
 30
0.0
 11
661.0
 21
580.0
 31
0.0
  0
LINE
  8
0
 10
661.0
 20
580.0
 30
0.0
 11
661.0
 21
581.0
 31
0.0
  0
LINE
  8
0
 10
415.0
 20
580.0
 30
0.0
 11
651.0
 21
580.0
 31
0.0
  0
LINE
  8
0
 10
651.0
 20
580.0
 30
0.0
 11
651.0
 21
579.0
 31
0.0
  0
LINE
  8
0
 10
651.0
 20
579.0
 30
0.0
 11
415.0
 21
579.0
 31
0.0
  0
LINE
  8
0
 10
415.0
 20
579.0
 30
0.0
 11
415.0
 21
580.0
 31
0.0
  0
LINE
  8
0
 10
664.0
 20
580.0
 30
0.0
 11
691.0
 21
580.0
 31
0.0
  0
LINE
  8
0
 10
691.0
 20
580.0
 30
0.0
 11
691.0
 21
579.0
 31
0.0
  0
LINE
  8
0
 10
691.0
 20
579.0
 30
0.0
 11
664.0
 21
579.0
 31
0.0
  0
LINE
  8
0
 10
664.0
 20
579.0
 30
0.0
 11
664.0
 21
580.0
 31
0.0
  0
LINE
  8
0
 10
413.0
 20
579.0
 30
0.0
 11
649.0
 21
579.0
 31
0.0
  0
LINE
  8
0
 10
649.0
 20
579.0
 30
0.0
 11
649.0
 21
578.0
 31
0.0
  0
LINE
  8
0
 10
649.0
 20
578.0
 30
0.0
 11
413.0
 21
578.0
 31
0.0
  0
LINE
  8
0
 10
413.0
 20
578.0
 30
0.0
 11
413.0
 21
579.0
 31
0.0
  0
LINE
  8
0
 10
667.0
 20
579.0
 30
0.0
 11
692.0
 21
579.0
 31
0.0
  0
LINE
  8
0
 10
692.0
 20
579.0
 30
0.0
 11
692.0
 21
578.0
 31
0.0
  0
LINE
  8
0
 10
692.0
 20
578.0
 30
0.0
 11
667.0
 21
578.0
 31
0.0
  0
LINE
  8
0
 10
667.0
 20
578.0
 30
0.0
 11
667.0
 21
579.0
 31
0.0
  0
LINE
  8
0
 10
412.0
 20
578.0
 30
0.0
 11
648.0
 21
578.0
 31
0.0
  0
LINE
  8
0
 10
648.0
 20
578.0
 30
0.0
 11
648.0
 21
577.0
 31
0.0
  0
LINE
  8
0
 10
648.0
 20
577.0
 30
0.0
 11
412.0
 21
577.0
 31
0.0
  0
LINE
  8
0
 10
412.0
 20
577.0
 30
0.0
 11
412.0
 21
578.0
 31
0.0
  0
LINE
  8
0
 10
669.0
 20
578.0
 30
0.0
 11
695.0
 21
578.0
 31
0.0
  0
LINE
  8
0
 10
695.0
 20
578.0
 30
0.0
 11
695.0
 21
577.0
 31
0.0
  0
LINE
  8
0
 10
695.0
 20
577.0
 30
0.0
 11
669.0
 21
577.0
 31
0.0
  0
LINE
  8
0
 10
669.0
 20
577.0
 30
0.0
 11
669.0
 21
578.0
 31
0.0
  0
LINE
  8
0
 10
411.0
 20
577.0
 30
0.0
 11
646.0
 21
577.0
 31
0.0
  0
LINE
  8
0
 10
646.0
 20
577.0
 30
0.0
 11
646.0
 21
576.0
 31
0.0
  0
LINE
  8
0
 10
646.0
 20
576.0
 30
0.0
 11
411.0
 21
576.0
 31
0.0
  0
LINE
  8
0
 10
411.0
 20
576.0
 30
0.0
 11
411.0
 21
577.0
 31
0.0
  0
LINE
  8
0
 10
671.0
 20
577.0
 30
0.0
 11
696.0
 21
577.0
 31
0.0
  0
LINE
  8
0
 10
696.0
 20
577.0
 30
0.0
 11
696.0
 21
576.0
 31
0.0
  0
LINE
  8
0
 10
696.0
 20
576.0
 30
0.0
 11
671.0
 21
576.0
 31
0.0
  0
LINE
  8
0
 10
671.0
 20
576.0
 30
0.0
 11
671.0
 21
577.0
 31
0.0
  0
LINE
  8
0
 10
410.0
 20
576.0
 30
0.0
 11
645.0
 21
576.0
 31
0.0
  0
LINE
  8
0
 10
645.0
 20
576.0
 30
0.0
 11
645.0
 21
575.0
 31
0.0
  0
LINE
  8
0
 10
645.0
 20
575.0
 30
0.0
 11
410.0
 21
575.0
 31
0.0
  0
LINE
  8
0
 10
410.0
 20
575.0
 30
0.0
 11
410.0
 21
576.0
 31
0.0
  0
LINE
  8
0
 10
673.0
 20
576.0
 30
0.0
 11
696.0
 21
576.0
 31
0.0
  0
LINE
  8
0
 10
696.0
 20
576.0
 30
0.0
 11
696.0
 21
575.0
 31
0.0
  0
LINE
  8
0
 10
696.0
 20
575.0
 30
0.0
 11
673.0
 21
575.0
 31
0.0
  0
LINE
  8
0
 10
673.0
 20
575.0
 30
0.0
 11
673.0
 21
576.0
 31
0.0
  0
LINE
  8
0
 10
408.0
 20
575.0
 30
0.0
 11
644.0
 21
575.0
 31
0.0
  0
LINE
  8
0
 10
644.0
 20
575.0
 30
0.0
 11
644.0
 21
574.0
 31
0.0
  0
LINE
  8
0
 10
644.0
 20
574.0
 30
0.0
 11
408.0
 21
574.0
 31
0.0
  0
LINE
  8
0
 10
408.0
 20
574.0
 30
0.0
 11
408.0
 21
575.0
 31
0.0
  0
LINE
  8
0
 10
675.0
 20
575.0
 30
0.0
 11
696.0
 21
575.0
 31
0.0
  0
LINE
  8
0
 10
696.0
 20
575.0
 30
0.0
 11
696.0
 21
574.0
 31
0.0
  0
LINE
  8
0
 10
696.0
 20
574.0
 30
0.0
 11
675.0
 21
574.0
 31
0.0
  0
LINE
  8
0
 10
675.0
 20
574.0
 30
0.0
 11
675.0
 21
575.0
 31
0.0
  0
LINE
  8
0
 10
407.0
 20
574.0
 30
0.0
 11
643.0
 21
574.0
 31
0.0
  0
LINE
  8
0
 10
643.0
 20
574.0
 30
0.0
 11
643.0
 21
573.0
 31
0.0
  0
LINE
  8
0
 10
643.0
 20
573.0
 30
0.0
 11
407.0
 21
573.0
 31
0.0
  0
LINE
  8
0
 10
407.0
 20
573.0
 30
0.0
 11
407.0
 21
574.0
 31
0.0
  0
LINE
  8
0
 10
677.0
 20
574.0
 30
0.0
 11
697.0
 21
574.0
 31
0.0
  0
LINE
  8
0
 10
697.0
 20
574.0
 30
0.0
 11
697.0
 21
573.0
 31
0.0
  0
LINE
  8
0
 10
697.0
 20
573.0
 30
0.0
 11
677.0
 21
573.0
 31
0.0
  0
LINE
  8
0
 10
677.0
 20
573.0
 30
0.0
 11
677.0
 21
574.0
 31
0.0
  0
LINE
  8
0
 10
406.0
 20
573.0
 30
0.0
 11
642.0
 21
573.0
 31
0.0
  0
LINE
  8
0
 10
642.0
 20
573.0
 30
0.0
 11
642.0
 21
572.0
 31
0.0
  0
LINE
  8
0
 10
642.0
 20
572.0
 30
0.0
 11
406.0
 21
572.0
 31
0.0
  0
LINE
  8
0
 10
406.0
 20
572.0
 30
0.0
 11
406.0
 21
573.0
 31
0.0
  0
LINE
  8
0
 10
679.0
 20
573.0
 30
0.0
 11
697.0
 21
573.0
 31
0.0
  0
LINE
  8
0
 10
697.0
 20
573.0
 30
0.0
 11
697.0
 21
572.0
 31
0.0
  0
LINE
  8
0
 10
697.0
 20
572.0
 30
0.0
 11
679.0
 21
572.0
 31
0.0
  0
LINE
  8
0
 10
679.0
 20
572.0
 30
0.0
 11
679.0
 21
573.0
 31
0.0
  0
LINE
  8
0
 10
405.0
 20
572.0
 30
0.0
 11
641.0
 21
572.0
 31
0.0
  0
LINE
  8
0
 10
641.0
 20
572.0
 30
0.0
 11
641.0
 21
571.0
 31
0.0
  0
LINE
  8
0
 10
641.0
 20
571.0
 30
0.0
 11
405.0
 21
571.0
 31
0.0
  0
LINE
  8
0
 10
405.0
 20
571.0
 30
0.0
 11
405.0
 21
572.0
 31
0.0
  0
LINE
  8
0
 10
681.0
 20
572.0
 30
0.0
 11
697.0
 21
572.0
 31
0.0
  0
LINE
  8
0
 10
697.0
 20
572.0
 30
0.0
 11
697.0
 21
571.0
 31
0.0
  0
LINE
  8
0
 10
697.0
 20
571.0
 30
0.0
 11
681.0
 21
571.0
 31
0.0
  0
LINE
  8
0
 10
681.0
 20
571.0
 30
0.0
 11
681.0
 21
572.0
 31
0.0
  0
LINE
  8
0
 10
404.0
 20
571.0
 30
0.0
 11
640.0
 21
571.0
 31
0.0
  0
LINE
  8
0
 10
640.0
 20
571.0
 30
0.0
 11
640.0
 21
570.0
 31
0.0
  0
LINE
  8
0
 10
640.0
 20
570.0
 30
0.0
 11
404.0
 21
570.0
 31
0.0
  0
LINE
  8
0
 10
404.0
 20
570.0
 30
0.0
 11
404.0
 21
571.0
 31
0.0
  0
LINE
  8
0
 10
682.0
 20
571.0
 30
0.0
 11
696.0
 21
571.0
 31
0.0
  0
LINE
  8
0
 10
696.0
 20
571.0
 30
0.0
 11
696.0
 21
570.0
 31
0.0
  0
LINE
  8
0
 10
696.0
 20
570.0
 30
0.0
 11
682.0
 21
570.0
 31
0.0
  0
LINE
  8
0
 10
682.0
 20
570.0
 30
0.0
 11
682.0
 21
571.0
 31
0.0
  0
LINE
  8
0
 10
403.0
 20
570.0
 30
0.0
 11
639.0
 21
570.0
 31
0.0
  0
LINE
  8
0
 10
639.0
 20
570.0
 30
0.0
 11
639.0
 21
569.0
 31
0.0
  0
LINE
  8
0
 10
639.0
 20
569.0
 30
0.0
 11
403.0
 21
569.0
 31
0.0
  0
LINE
  8
0
 10
403.0
 20
569.0
 30
0.0
 11
403.0
 21
570.0
 31
0.0
  0
LINE
  8
0
 10
684.0
 20
570.0
 30
0.0
 11
695.0
 21
570.0
 31
0.0
  0
LINE
  8
0
 10
695.0
 20
570.0
 30
0.0
 11
695.0
 21
569.0
 31
0.0
  0
LINE
  8
0
 10
695.0
 20
569.0
 30
0.0
 11
684.0
 21
569.0
 31
0.0
  0
LINE
  8
0
 10
684.0
 20
569.0
 30
0.0
 11
684.0
 21
570.0
 31
0.0
  0
LINE
  8
0
 10
402.0
 20
569.0
 30
0.0
 11
638.0
 21
569.0
 31
0.0
  0
LINE
  8
0
 10
638.0
 20
569.0
 30
0.0
 11
638.0
 21
568.0
 31
0.0
  0
LINE
  8
0
 10
638.0
 20
568.0
 30
0.0
 11
402.0
 21
568.0
 31
0.0
  0
LINE
  8
0
 10
402.0
 20
568.0
 30
0.0
 11
402.0
 21
569.0
 31
0.0
  0
LINE
  8
0
 10
687.0
 20
569.0
 30
0.0
 11
693.0
 21
569.0
 31
0.0
  0
LINE
  8
0
 10
693.0
 20
569.0
 30
0.0
 11
693.0
 21
568.0
 31
0.0
  0
LINE
  8
0
 10
693.0
 20
568.0
 30
0.0
 11
687.0
 21
568.0
 31
0.0
  0
LINE
  8
0
 10
687.0
 20
568.0
 30
0.0
 11
687.0
 21
569.0
 31
0.0
  0
LINE
  8
0
 10
401.0
 20
568.0
 30
0.0
 11
638.0
 21
568.0
 31
0.0
  0
LINE
  8
0
 10
638.0
 20
568.0
 30
0.0
 11
638.0
 21
567.0
 31
0.0
  0
LINE
  8
0
 10
638.0
 20
567.0
 30
0.0
 11
401.0
 21
567.0
 31
0.0
  0
LINE
  8
0
 10
401.0
 20
567.0
 30
0.0
 11
401.0
 21
568.0
 31
0.0
  0
LINE
  8
0
 10
400.0
 20
567.0
 30
0.0
 11
637.0
 21
567.0
 31
0.0
  0
LINE
  8
0
 10
637.0
 20
567.0
 30
0.0
 11
637.0
 21
566.0
 31
0.0
  0
LINE
  8
0
 10
637.0
 20
566.0
 30
0.0
 11
400.0
 21
566.0
 31
0.0
  0
LINE
  8
0
 10
400.0
 20
566.0
 30
0.0
 11
400.0
 21
567.0
 31
0.0
  0
LINE
  8
0
 10
399.0
 20
566.0
 30
0.0
 11
636.0
 21
566.0
 31
0.0
  0
LINE
  8
0
 10
636.0
 20
566.0
 30
0.0
 11
636.0
 21
565.0
 31
0.0
  0
LINE
  8
0
 10
636.0
 20
565.0
 30
0.0
 11
399.0
 21
565.0
 31
0.0
  0
LINE
  8
0
 10
399.0
 20
565.0
 30
0.0
 11
399.0
 21
566.0
 31
0.0
  0
LINE
  8
0
 10
399.0
 20
565.0
 30
0.0
 11
635.0
 21
565.0
 31
0.0
  0
LINE
  8
0
 10
635.0
 20
565.0
 30
0.0
 11
635.0
 21
564.0
 31
0.0
  0
LINE
  8
0
 10
635.0
 20
564.0
 30
0.0
 11
399.0
 21
564.0
 31
0.0
  0
LINE
  8
0
 10
399.0
 20
564.0
 30
0.0
 11
399.0
 21
565.0
 31
0.0
  0
LINE
  8
0
 10
398.0
 20
564.0
 30
0.0
 11
634.0
 21
564.0
 31
0.0
  0
LINE
  8
0
 10
634.0
 20
564.0
 30
0.0
 11
634.0
 21
563.0
 31
0.0
  0
LINE
  8
0
 10
634.0
 20
563.0
 30
0.0
 11
398.0
 21
563.0
 31
0.0
  0
LINE
  8
0
 10
398.0
 20
563.0
 30
0.0
 11
398.0
 21
564.0
 31
0.0
  0
LINE
  8
0
 10
397.0
 20
563.0
 30
0.0
 11
634.0
 21
563.0
 31
0.0
  0
LINE
  8
0
 10
634.0
 20
563.0
 30
0.0
 11
634.0
 21
562.0
 31
0.0
  0
LINE
  8
0
 10
634.0
 20
562.0
 30
0.0
 11
397.0
 21
562.0
 31
0.0
  0
LINE
  8
0
 10
397.0
 20
562.0
 30
0.0
 11
397.0
 21
563.0
 31
0.0
  0
LINE
  8
0
 10
396.0
 20
562.0
 30
0.0
 11
633.0
 21
562.0
 31
0.0
  0
LINE
  8
0
 10
633.0
 20
562.0
 30
0.0
 11
633.0
 21
561.0
 31
0.0
  0
LINE
  8
0
 10
633.0
 20
561.0
 30
0.0
 11
396.0
 21
561.0
 31
0.0
  0
LINE
  8
0
 10
396.0
 20
561.0
 30
0.0
 11
396.0
 21
562.0
 31
0.0
  0
LINE
  8
0
 10
308.0
 20
561.0
 30
0.0
 11
310.0
 21
561.0
 31
0.0
  0
LINE
  8
0
 10
310.0
 20
561.0
 30
0.0
 11
310.0
 21
560.0
 31
0.0
  0
LINE
  8
0
 10
310.0
 20
560.0
 30
0.0
 11
308.0
 21
560.0
 31
0.0
  0
LINE
  8
0
 10
308.0
 20
560.0
 30
0.0
 11
308.0
 21
561.0
 31
0.0
  0
LINE
  8
0
 10
396.0
 20
561.0
 30
0.0
 11
632.0
 21
561.0
 31
0.0
  0
LINE
  8
0
 10
632.0
 20
561.0
 30
0.0
 11
632.0
 21
560.0
 31
0.0
  0
LINE
  8
0
 10
632.0
 20
560.0
 30
0.0
 11
396.0
 21
560.0
 31
0.0
  0
LINE
  8
0
 10
396.0
 20
560.0
 30
0.0
 11
396.0
 21
561.0
 31
0.0
  0
LINE
  8
0
 10
308.0
 20
560.0
 30
0.0
 11
311.0
 21
560.0
 31
0.0
  0
LINE
  8
0
 10
311.0
 20
560.0
 30
0.0
 11
311.0
 21
559.0
 31
0.0
  0
LINE
  8
0
 10
311.0
 20
559.0
 30
0.0
 11
308.0
 21
559.0
 31
0.0
  0
LINE
  8
0
 10
308.0
 20
559.0
 30
0.0
 11
308.0
 21
560.0
 31
0.0
  0
LINE
  8
0
 10
395.0
 20
560.0
 30
0.0
 11
631.0
 21
560.0
 31
0.0
  0
LINE
  8
0
 10
631.0
 20
560.0
 30
0.0
 11
631.0
 21
559.0
 31
0.0
  0
LINE
  8
0
 10
631.0
 20
559.0
 30
0.0
 11
395.0
 21
559.0
 31
0.0
  0
LINE
  8
0
 10
395.0
 20
559.0
 30
0.0
 11
395.0
 21
560.0
 31
0.0
  0
LINE
  8
0
 10
307.0
 20
559.0
 30
0.0
 11
311.0
 21
559.0
 31
0.0
  0
LINE
  8
0
 10
311.0
 20
559.0
 30
0.0
 11
311.0
 21
558.0
 31
0.0
  0
LINE
  8
0
 10
311.0
 20
558.0
 30
0.0
 11
307.0
 21
558.0
 31
0.0
  0
LINE
  8
0
 10
307.0
 20
558.0
 30
0.0
 11
307.0
 21
559.0
 31
0.0
  0
LINE
  8
0
 10
394.0
 20
559.0
 30
0.0
 11
631.0
 21
559.0
 31
0.0
  0
LINE
  8
0
 10
631.0
 20
559.0
 30
0.0
 11
631.0
 21
558.0
 31
0.0
  0
LINE
  8
0
 10
631.0
 20
558.0
 30
0.0
 11
394.0
 21
558.0
 31
0.0
  0
LINE
  8
0
 10
394.0
 20
558.0
 30
0.0
 11
394.0
 21
559.0
 31
0.0
  0
LINE
  8
0
 10
307.0
 20
558.0
 30
0.0
 11
312.0
 21
558.0
 31
0.0
  0
LINE
  8
0
 10
312.0
 20
558.0
 30
0.0
 11
312.0
 21
557.0
 31
0.0
  0
LINE
  8
0
 10
312.0
 20
557.0
 30
0.0
 11
307.0
 21
557.0
 31
0.0
  0
LINE
  8
0
 10
307.0
 20
557.0
 30
0.0
 11
307.0
 21
558.0
 31
0.0
  0
LINE
  8
0
 10
392.0
 20
558.0
 30
0.0
 11
630.0
 21
558.0
 31
0.0
  0
LINE
  8
0
 10
630.0
 20
558.0
 30
0.0
 11
630.0
 21
557.0
 31
0.0
  0
LINE
  8
0
 10
630.0
 20
557.0
 30
0.0
 11
392.0
 21
557.0
 31
0.0
  0
LINE
  8
0
 10
392.0
 20
557.0
 30
0.0
 11
392.0
 21
558.0
 31
0.0
  0
LINE
  8
0
 10
307.0
 20
557.0
 30
0.0
 11
312.0
 21
557.0
 31
0.0
  0
LINE
  8
0
 10
312.0
 20
557.0
 30
0.0
 11
312.0
 21
556.0
 31
0.0
  0
LINE
  8
0
 10
312.0
 20
556.0
 30
0.0
 11
307.0
 21
556.0
 31
0.0
  0
LINE
  8
0
 10
307.0
 20
556.0
 30
0.0
 11
307.0
 21
557.0
 31
0.0
  0
LINE
  8
0
 10
391.0
 20
557.0
 30
0.0
 11
629.0
 21
557.0
 31
0.0
  0
LINE
  8
0
 10
629.0
 20
557.0
 30
0.0
 11
629.0
 21
556.0
 31
0.0
  0
LINE
  8
0
 10
629.0
 20
556.0
 30
0.0
 11
391.0
 21
556.0
 31
0.0
  0
LINE
  8
0
 10
391.0
 20
556.0
 30
0.0
 11
391.0
 21
557.0
 31
0.0
  0
LINE
  8
0
 10
307.0
 20
556.0
 30
0.0
 11
312.0
 21
556.0
 31
0.0
  0
LINE
  8
0
 10
312.0
 20
556.0
 30
0.0
 11
312.0
 21
555.0
 31
0.0
  0
LINE
  8
0
 10
312.0
 20
555.0
 30
0.0
 11
307.0
 21
555.0
 31
0.0
  0
LINE
  8
0
 10
307.0
 20
555.0
 30
0.0
 11
307.0
 21
556.0
 31
0.0
  0
LINE
  8
0
 10
390.0
 20
556.0
 30
0.0
 11
628.0
 21
556.0
 31
0.0
  0
LINE
  8
0
 10
628.0
 20
556.0
 30
0.0
 11
628.0
 21
555.0
 31
0.0
  0
LINE
  8
0
 10
628.0
 20
555.0
 30
0.0
 11
390.0
 21
555.0
 31
0.0
  0
LINE
  8
0
 10
390.0
 20
555.0
 30
0.0
 11
390.0
 21
556.0
 31
0.0
  0
LINE
  8
0
 10
307.0
 20
555.0
 30
0.0
 11
313.0
 21
555.0
 31
0.0
  0
LINE
  8
0
 10
313.0
 20
555.0
 30
0.0
 11
313.0
 21
554.0
 31
0.0
  0
LINE
  8
0
 10
313.0
 20
554.0
 30
0.0
 11
307.0
 21
554.0
 31
0.0
  0
LINE
  8
0
 10
307.0
 20
554.0
 30
0.0
 11
307.0
 21
555.0
 31
0.0
  0
LINE
  8
0
 10
389.0
 20
555.0
 30
0.0
 11
628.0
 21
555.0
 31
0.0
  0
LINE
  8
0
 10
628.0
 20
555.0
 30
0.0
 11
628.0
 21
554.0
 31
0.0
  0
LINE
  8
0
 10
628.0
 20
554.0
 30
0.0
 11
389.0
 21
554.0
 31
0.0
  0
LINE
  8
0
 10
389.0
 20
554.0
 30
0.0
 11
389.0
 21
555.0
 31
0.0
  0
LINE
  8
0
 10
307.0
 20
554.0
 30
0.0
 11
313.0
 21
554.0
 31
0.0
  0
LINE
  8
0
 10
313.0
 20
554.0
 30
0.0
 11
313.0
 21
553.0
 31
0.0
  0
LINE
  8
0
 10
313.0
 20
553.0
 30
0.0
 11
307.0
 21
553.0
 31
0.0
  0
LINE
  8
0
 10
307.0
 20
553.0
 30
0.0
 11
307.0
 21
554.0
 31
0.0
  0
LINE
  8
0
 10
388.0
 20
554.0
 30
0.0
 11
627.0
 21
554.0
 31
0.0
  0
LINE
  8
0
 10
627.0
 20
554.0
 30
0.0
 11
627.0
 21
553.0
 31
0.0
  0
LINE
  8
0
 10
627.0
 20
553.0
 30
0.0
 11
388.0
 21
553.0
 31
0.0
  0
LINE
  8
0
 10
388.0
 20
553.0
 30
0.0
 11
388.0
 21
554.0
 31
0.0
  0
LINE
  8
0
 10
307.0
 20
553.0
 30
0.0
 11
314.0
 21
553.0
 31
0.0
  0
LINE
  8
0
 10
314.0
 20
553.0
 30
0.0
 11
314.0
 21
552.0
 31
0.0
  0
LINE
  8
0
 10
314.0
 20
552.0
 30
0.0
 11
307.0
 21
552.0
 31
0.0
  0
LINE
  8
0
 10
307.0
 20
552.0
 30
0.0
 11
307.0
 21
553.0
 31
0.0
  0
LINE
  8
0
 10
387.0
 20
553.0
 30
0.0
 11
626.0
 21
553.0
 31
0.0
  0
LINE
  8
0
 10
626.0
 20
553.0
 30
0.0
 11
626.0
 21
552.0
 31
0.0
  0
LINE
  8
0
 10
626.0
 20
552.0
 30
0.0
 11
387.0
 21
552.0
 31
0.0
  0
LINE
  8
0
 10
387.0
 20
552.0
 30
0.0
 11
387.0
 21
553.0
 31
0.0
  0
LINE
  8
0
 10
307.0
 20
552.0
 30
0.0
 11
314.0
 21
552.0
 31
0.0
  0
LINE
  8
0
 10
314.0
 20
552.0
 30
0.0
 11
314.0
 21
551.0
 31
0.0
  0
LINE
  8
0
 10
314.0
 20
551.0
 30
0.0
 11
307.0
 21
551.0
 31
0.0
  0
LINE
  8
0
 10
307.0
 20
551.0
 30
0.0
 11
307.0
 21
552.0
 31
0.0
  0
LINE
  8
0
 10
386.0
 20
552.0
 30
0.0
 11
625.0
 21
552.0
 31
0.0
  0
LINE
  8
0
 10
625.0
 20
552.0
 30
0.0
 11
625.0
 21
551.0
 31
0.0
  0
LINE
  8
0
 10
625.0
 20
551.0
 30
0.0
 11
386.0
 21
551.0
 31
0.0
  0
LINE
  8
0
 10
386.0
 20
551.0
 30
0.0
 11
386.0
 21
552.0
 31
0.0
  0
LINE
  8
0
 10
307.0
 20
551.0
 30
0.0
 11
315.0
 21
551.0
 31
0.0
  0
LINE
  8
0
 10
315.0
 20
551.0
 30
0.0
 11
315.0
 21
550.0
 31
0.0
  0
LINE
  8
0
 10
315.0
 20
550.0
 30
0.0
 11
307.0
 21
550.0
 31
0.0
  0
LINE
  8
0
 10
307.0
 20
550.0
 30
0.0
 11
307.0
 21
551.0
 31
0.0
  0
LINE
  8
0
 10
385.0
 20
551.0
 30
0.0
 11
625.0
 21
551.0
 31
0.0
  0
LINE
  8
0
 10
625.0
 20
551.0
 30
0.0
 11
625.0
 21
550.0
 31
0.0
  0
LINE
  8
0
 10
625.0
 20
550.0
 30
0.0
 11
385.0
 21
550.0
 31
0.0
  0
LINE
  8
0
 10
385.0
 20
550.0
 30
0.0
 11
385.0
 21
551.0
 31
0.0
  0
LINE
  8
0
 10
307.0
 20
550.0
 30
0.0
 11
315.0
 21
550.0
 31
0.0
  0
LINE
  8
0
 10
315.0
 20
550.0
 30
0.0
 11
315.0
 21
549.0
 31
0.0
  0
LINE
  8
0
 10
315.0
 20
549.0
 30
0.0
 11
307.0
 21
549.0
 31
0.0
  0
LINE
  8
0
 10
307.0
 20
549.0
 30
0.0
 11
307.0
 21
550.0
 31
0.0
  0
LINE
  8
0
 10
384.0
 20
550.0
 30
0.0
 11
624.0
 21
550.0
 31
0.0
  0
LINE
  8
0
 10
624.0
 20
550.0
 30
0.0
 11
624.0
 21
549.0
 31
0.0
  0
LINE
  8
0
 10
624.0
 20
549.0
 30
0.0
 11
384.0
 21
549.0
 31
0.0
  0
LINE
  8
0
 10
384.0
 20
549.0
 30
0.0
 11
384.0
 21
550.0
 31
0.0
  0
LINE
  8
0
 10
308.0
 20
549.0
 30
0.0
 11
316.0
 21
549.0
 31
0.0
  0
LINE
  8
0
 10
316.0
 20
549.0
 30
0.0
 11
316.0
 21
548.0
 31
0.0
  0
LINE
  8
0
 10
316.0
 20
548.0
 30
0.0
 11
308.0
 21
548.0
 31
0.0
  0
LINE
  8
0
 10
308.0
 20
548.0
 30
0.0
 11
308.0
 21
549.0
 31
0.0
  0
LINE
  8
0
 10
383.0
 20
549.0
 30
0.0
 11
623.0
 21
549.0
 31
0.0
  0
LINE
  8
0
 10
623.0
 20
549.0
 30
0.0
 11
623.0
 21
548.0
 31
0.0
  0
LINE
  8
0
 10
623.0
 20
548.0
 30
0.0
 11
383.0
 21
548.0
 31
0.0
  0
LINE
  8
0
 10
383.0
 20
548.0
 30
0.0
 11
383.0
 21
549.0
 31
0.0
  0
LINE
  8
0
 10
308.0
 20
548.0
 30
0.0
 11
316.0
 21
548.0
 31
0.0
  0
LINE
  8
0
 10
316.0
 20
548.0
 30
0.0
 11
316.0
 21
547.0
 31
0.0
  0
LINE
  8
0
 10
316.0
 20
547.0
 30
0.0
 11
308.0
 21
547.0
 31
0.0
  0
LINE
  8
0
 10
308.0
 20
547.0
 30
0.0
 11
308.0
 21
548.0
 31
0.0
  0
LINE
  8
0
 10
382.0
 20
548.0
 30
0.0
 11
623.0
 21
548.0
 31
0.0
  0
LINE
  8
0
 10
623.0
 20
548.0
 30
0.0
 11
623.0
 21
547.0
 31
0.0
  0
LINE
  8
0
 10
623.0
 20
547.0
 30
0.0
 11
382.0
 21
547.0
 31
0.0
  0
LINE
  8
0
 10
382.0
 20
547.0
 30
0.0
 11
382.0
 21
548.0
 31
0.0
  0
LINE
  8
0
 10
308.0
 20
547.0
 30
0.0
 11
317.0
 21
547.0
 31
0.0
  0
LINE
  8
0
 10
317.0
 20
547.0
 30
0.0
 11
317.0
 21
546.0
 31
0.0
  0
LINE
  8
0
 10
317.0
 20
546.0
 30
0.0
 11
308.0
 21
546.0
 31
0.0
  0
LINE
  8
0
 10
308.0
 20
546.0
 30
0.0
 11
308.0
 21
547.0
 31
0.0
  0
LINE
  8
0
 10
381.0
 20
547.0
 30
0.0
 11
622.0
 21
547.0
 31
0.0
  0
LINE
  8
0
 10
622.0
 20
547.0
 30
0.0
 11
622.0
 21
546.0
 31
0.0
  0
LINE
  8
0
 10
622.0
 20
546.0
 30
0.0
 11
381.0
 21
546.0
 31
0.0
  0
LINE
  8
0
 10
381.0
 20
546.0
 30
0.0
 11
381.0
 21
547.0
 31
0.0
  0
LINE
  8
0
 10
308.0
 20
546.0
 30
0.0
 11
318.0
 21
546.0
 31
0.0
  0
LINE
  8
0
 10
318.0
 20
546.0
 30
0.0
 11
318.0
 21
545.0
 31
0.0
  0
LINE
  8
0
 10
318.0
 20
545.0
 30
0.0
 11
308.0
 21
545.0
 31
0.0
  0
LINE
  8
0
 10
308.0
 20
545.0
 30
0.0
 11
308.0
 21
546.0
 31
0.0
  0
LINE
  8
0
 10
380.0
 20
546.0
 30
0.0
 11
621.0
 21
546.0
 31
0.0
  0
LINE
  8
0
 10
621.0
 20
546.0
 30
0.0
 11
621.0
 21
545.0
 31
0.0
  0
LINE
  8
0
 10
621.0
 20
545.0
 30
0.0
 11
380.0
 21
545.0
 31
0.0
  0
LINE
  8
0
 10
380.0
 20
545.0
 30
0.0
 11
380.0
 21
546.0
 31
0.0
  0
LINE
  8
0
 10
309.0
 20
545.0
 30
0.0
 11
318.0
 21
545.0
 31
0.0
  0
LINE
  8
0
 10
318.0
 20
545.0
 30
0.0
 11
318.0
 21
544.0
 31
0.0
  0
LINE
  8
0
 10
318.0
 20
544.0
 30
0.0
 11
309.0
 21
544.0
 31
0.0
  0
LINE
  8
0
 10
309.0
 20
544.0
 30
0.0
 11
309.0
 21
545.0
 31
0.0
  0
LINE
  8
0
 10
379.0
 20
545.0
 30
0.0
 11
620.0
 21
545.0
 31
0.0
  0
LINE
  8
0
 10
620.0
 20
545.0
 30
0.0
 11
620.0
 21
544.0
 31
0.0
  0
LINE
  8
0
 10
620.0
 20
544.0
 30
0.0
 11
379.0
 21
544.0
 31
0.0
  0
LINE
  8
0
 10
379.0
 20
544.0
 30
0.0
 11
379.0
 21
545.0
 31
0.0
  0
LINE
  8
0
 10
309.0
 20
544.0
 30
0.0
 11
319.0
 21
544.0
 31
0.0
  0
LINE
  8
0
 10
319.0
 20
544.0
 30
0.0
 11
319.0
 21
543.0
 31
0.0
  0
LINE
  8
0
 10
319.0
 20
543.0
 30
0.0
 11
309.0
 21
543.0
 31
0.0
  0
LINE
  8
0
 10
309.0
 20
543.0
 30
0.0
 11
309.0
 21
544.0
 31
0.0
  0
LINE
  8
0
 10
377.0
 20
544.0
 30
0.0
 11
619.0
 21
544.0
 31
0.0
  0
LINE
  8
0
 10
619.0
 20
544.0
 30
0.0
 11
619.0
 21
543.0
 31
0.0
  0
LINE
  8
0
 10
619.0
 20
543.0
 30
0.0
 11
377.0
 21
543.0
 31
0.0
  0
LINE
  8
0
 10
377.0
 20
543.0
 30
0.0
 11
377.0
 21
544.0
 31
0.0
  0
LINE
  8
0
 10
310.0
 20
543.0
 30
0.0
 11
320.0
 21
543.0
 31
0.0
  0
LINE
  8
0
 10
320.0
 20
543.0
 30
0.0
 11
320.0
 21
542.0
 31
0.0
  0
LINE
  8
0
 10
320.0
 20
542.0
 30
0.0
 11
310.0
 21
542.0
 31
0.0
  0
LINE
  8
0
 10
310.0
 20
542.0
 30
0.0
 11
310.0
 21
543.0
 31
0.0
  0
LINE
  8
0
 10
376.0
 20
543.0
 30
0.0
 11
619.0
 21
543.0
 31
0.0
  0
LINE
  8
0
 10
619.0
 20
543.0
 30
0.0
 11
619.0
 21
542.0
 31
0.0
  0
LINE
  8
0
 10
619.0
 20
542.0
 30
0.0
 11
376.0
 21
542.0
 31
0.0
  0
LINE
  8
0
 10
376.0
 20
542.0
 30
0.0
 11
376.0
 21
543.0
 31
0.0
  0
LINE
  8
0
 10
310.0
 20
542.0
 30
0.0
 11
321.0
 21
542.0
 31
0.0
  0
LINE
  8
0
 10
321.0
 20
542.0
 30
0.0
 11
321.0
 21
541.0
 31
0.0
  0
LINE
  8
0
 10
321.0
 20
541.0
 30
0.0
 11
310.0
 21
541.0
 31
0.0
  0
LINE
  8
0
 10
310.0
 20
541.0
 30
0.0
 11
310.0
 21
542.0
 31
0.0
  0
LINE
  8
0
 10
375.0
 20
542.0
 30
0.0
 11
618.0
 21
542.0
 31
0.0
  0
LINE
  8
0
 10
618.0
 20
542.0
 30
0.0
 11
618.0
 21
541.0
 31
0.0
  0
LINE
  8
0
 10
618.0
 20
541.0
 30
0.0
 11
375.0
 21
541.0
 31
0.0
  0
LINE
  8
0
 10
375.0
 20
541.0
 30
0.0
 11
375.0
 21
542.0
 31
0.0
  0
LINE
  8
0
 10
311.0
 20
541.0
 30
0.0
 11
322.0
 21
541.0
 31
0.0
  0
LINE
  8
0
 10
322.0
 20
541.0
 30
0.0
 11
322.0
 21
540.0
 31
0.0
  0
LINE
  8
0
 10
322.0
 20
540.0
 30
0.0
 11
311.0
 21
540.0
 31
0.0
  0
LINE
  8
0
 10
311.0
 20
540.0
 30
0.0
 11
311.0
 21
541.0
 31
0.0
  0
LINE
  8
0
 10
374.0
 20
541.0
 30
0.0
 11
617.0
 21
541.0
 31
0.0
  0
LINE
  8
0
 10
617.0
 20
541.0
 30
0.0
 11
617.0
 21
540.0
 31
0.0
  0
LINE
  8
0
 10
617.0
 20
540.0
 30
0.0
 11
374.0
 21
540.0
 31
0.0
  0
LINE
  8
0
 10
374.0
 20
540.0
 30
0.0
 11
374.0
 21
541.0
 31
0.0
  0
LINE
  8
0
 10
311.0
 20
540.0
 30
0.0
 11
323.0
 21
540.0
 31
0.0
  0
LINE
  8
0
 10
323.0
 20
540.0
 30
0.0
 11
323.0
 21
539.0
 31
0.0
  0
LINE
  8
0
 10
323.0
 20
539.0
 30
0.0
 11
311.0
 21
539.0
 31
0.0
  0
LINE
  8
0
 10
311.0
 20
539.0
 30
0.0
 11
311.0
 21
540.0
 31
0.0
  0
LINE
  8
0
 10
373.0
 20
540.0
 30
0.0
 11
616.0
 21
540.0
 31
0.0
  0
LINE
  8
0
 10
616.0
 20
540.0
 30
0.0
 11
616.0
 21
539.0
 31
0.0
  0
LINE
  8
0
 10
616.0
 20
539.0
 30
0.0
 11
373.0
 21
539.0
 31
0.0
  0
LINE
  8
0
 10
373.0
 20
539.0
 30
0.0
 11
373.0
 21
540.0
 31
0.0
  0
LINE
  8
0
 10
312.0
 20
539.0
 30
0.0
 11
324.0
 21
539.0
 31
0.0
  0
LINE
  8
0
 10
324.0
 20
539.0
 30
0.0
 11
324.0
 21
538.0
 31
0.0
  0
LINE
  8
0
 10
324.0
 20
538.0
 30
0.0
 11
312.0
 21
538.0
 31
0.0
  0
LINE
  8
0
 10
312.0
 20
538.0
 30
0.0
 11
312.0
 21
539.0
 31
0.0
  0
LINE
  8
0
 10
371.0
 20
539.0
 30
0.0
 11
616.0
 21
539.0
 31
0.0
  0
LINE
  8
0
 10
616.0
 20
539.0
 30
0.0
 11
616.0
 21
538.0
 31
0.0
  0
LINE
  8
0
 10
616.0
 20
538.0
 30
0.0
 11
371.0
 21
538.0
 31
0.0
  0
LINE
  8
0
 10
371.0
 20
538.0
 30
0.0
 11
371.0
 21
539.0
 31
0.0
  0
LINE
  8
0
 10
312.0
 20
538.0
 30
0.0
 11
325.0
 21
538.0
 31
0.0
  0
LINE
  8
0
 10
325.0
 20
538.0
 30
0.0
 11
325.0
 21
537.0
 31
0.0
  0
LINE
  8
0
 10
325.0
 20
537.0
 30
0.0
 11
312.0
 21
537.0
 31
0.0
  0
LINE
  8
0
 10
312.0
 20
537.0
 30
0.0
 11
312.0
 21
538.0
 31
0.0
  0
LINE
  8
0
 10
370.0
 20
538.0
 30
0.0
 11
615.0
 21
538.0
 31
0.0
  0
LINE
  8
0
 10
615.0
 20
538.0
 30
0.0
 11
615.0
 21
537.0
 31
0.0
  0
LINE
  8
0
 10
615.0
 20
537.0
 30
0.0
 11
370.0
 21
537.0
 31
0.0
  0
LINE
  8
0
 10
370.0
 20
537.0
 30
0.0
 11
370.0
 21
538.0
 31
0.0
  0
LINE
  8
0
 10
313.0
 20
537.0
 30
0.0
 11
327.0
 21
537.0
 31
0.0
  0
LINE
  8
0
 10
327.0
 20
537.0
 30
0.0
 11
327.0
 21
536.0
 31
0.0
  0
LINE
  8
0
 10
327.0
 20
536.0
 30
0.0
 11
313.0
 21
536.0
 31
0.0
  0
LINE
  8
0
 10
313.0
 20
536.0
 30
0.0
 11
313.0
 21
537.0
 31
0.0
  0
LINE
  8
0
 10
368.0
 20
537.0
 30
0.0
 11
389.0
 21
537.0
 31
0.0
  0
LINE
  8
0
 10
389.0
 20
537.0
 30
0.0
 11
389.0
 21
536.0
 31
0.0
  0
LINE
  8
0
 10
389.0
 20
536.0
 30
0.0
 11
368.0
 21
536.0
 31
0.0
  0
LINE
  8
0
 10
368.0
 20
536.0
 30
0.0
 11
368.0
 21
537.0
 31
0.0
  0
LINE
  8
0
 10
390.0
 20
537.0
 30
0.0
 11
614.0
 21
537.0
 31
0.0
  0
LINE
  8
0
 10
614.0
 20
537.0
 30
0.0
 11
614.0
 21
536.0
 31
0.0
  0
LINE
  8
0
 10
614.0
 20
536.0
 30
0.0
 11
390.0
 21
536.0
 31
0.0
  0
LINE
  8
0
 10
390.0
 20
536.0
 30
0.0
 11
390.0
 21
537.0
 31
0.0
  0
LINE
  8
0
 10
314.0
 20
536.0
 30
0.0
 11
328.0
 21
536.0
 31
0.0
  0
LINE
  8
0
 10
328.0
 20
536.0
 30
0.0
 11
328.0
 21
535.0
 31
0.0
  0
LINE
  8
0
 10
328.0
 20
535.0
 30
0.0
 11
314.0
 21
535.0
 31
0.0
  0
LINE
  8
0
 10
314.0
 20
535.0
 30
0.0
 11
314.0
 21
536.0
 31
0.0
  0
LINE
  8
0
 10
366.0
 20
536.0
 30
0.0
 11
388.0
 21
536.0
 31
0.0
  0
LINE
  8
0
 10
388.0
 20
536.0
 30
0.0
 11
388.0
 21
535.0
 31
0.0
  0
LINE
  8
0
 10
388.0
 20
535.0
 30
0.0
 11
366.0
 21
535.0
 31
0.0
  0
LINE
  8
0
 10
366.0
 20
535.0
 30
0.0
 11
366.0
 21
536.0
 31
0.0
  0
LINE
  8
0
 10
390.0
 20
536.0
 30
0.0
 11
614.0
 21
536.0
 31
0.0
  0
LINE
  8
0
 10
614.0
 20
536.0
 30
0.0
 11
614.0
 21
535.0
 31
0.0
  0
LINE
  8
0
 10
614.0
 20
535.0
 30
0.0
 11
390.0
 21
535.0
 31
0.0
  0
LINE
  8
0
 10
390.0
 20
535.0
 30
0.0
 11
390.0
 21
536.0
 31
0.0
  0
LINE
  8
0
 10
314.0
 20
535.0
 30
0.0
 11
330.0
 21
535.0
 31
0.0
  0
LINE
  8
0
 10
330.0
 20
535.0
 30
0.0
 11
330.0
 21
534.0
 31
0.0
  0
LINE
  8
0
 10
330.0
 20
534.0
 30
0.0
 11
314.0
 21
534.0
 31
0.0
  0
LINE
  8
0
 10
314.0
 20
534.0
 30
0.0
 11
314.0
 21
535.0
 31
0.0
  0
LINE
  8
0
 10
364.0
 20
535.0
 30
0.0
 11
387.0
 21
535.0
 31
0.0
  0
LINE
  8
0
 10
387.0
 20
535.0
 30
0.0
 11
387.0
 21
534.0
 31
0.0
  0
LINE
  8
0
 10
387.0
 20
534.0
 30
0.0
 11
364.0
 21
534.0
 31
0.0
  0
LINE
  8
0
 10
364.0
 20
534.0
 30
0.0
 11
364.0
 21
535.0
 31
0.0
  0
LINE
  8
0
 10
389.0
 20
535.0
 30
0.0
 11
464.0
 21
535.0
 31
0.0
  0
LINE
  8
0
 10
464.0
 20
535.0
 30
0.0
 11
464.0
 21
534.0
 31
0.0
  0
LINE
  8
0
 10
464.0
 20
534.0
 30
0.0
 11
389.0
 21
534.0
 31
0.0
  0
LINE
  8
0
 10
389.0
 20
534.0
 30
0.0
 11
389.0
 21
535.0
 31
0.0
  0
LINE
  8
0
 10
465.0
 20
535.0
 30
0.0
 11
613.0
 21
535.0
 31
0.0
  0
LINE
  8
0
 10
613.0
 20
535.0
 30
0.0
 11
613.0
 21
534.0
 31
0.0
  0
LINE
  8
0
 10
613.0
 20
534.0
 30
0.0
 11
465.0
 21
534.0
 31
0.0
  0
LINE
  8
0
 10
465.0
 20
534.0
 30
0.0
 11
465.0
 21
535.0
 31
0.0
  0
LINE
  8
0
 10
315.0
 20
534.0
 30
0.0
 11
332.0
 21
534.0
 31
0.0
  0
LINE
  8
0
 10
332.0
 20
534.0
 30
0.0
 11
332.0
 21
533.0
 31
0.0
  0
LINE
  8
0
 10
332.0
 20
533.0
 30
0.0
 11
315.0
 21
533.0
 31
0.0
  0
LINE
  8
0
 10
315.0
 20
533.0
 30
0.0
 11
315.0
 21
534.0
 31
0.0
  0
LINE
  8
0
 10
362.0
 20
534.0
 30
0.0
 11
386.0
 21
534.0
 31
0.0
  0
LINE
  8
0
 10
386.0
 20
534.0
 30
0.0
 11
386.0
 21
533.0
 31
0.0
  0
LINE
  8
0
 10
386.0
 20
533.0
 30
0.0
 11
362.0
 21
533.0
 31
0.0
  0
LINE
  8
0
 10
362.0
 20
533.0
 30
0.0
 11
362.0
 21
534.0
 31
0.0
  0
LINE
  8
0
 10
387.0
 20
534.0
 30
0.0
 11
388.0
 21
534.0
 31
0.0
  0
LINE
  8
0
 10
388.0
 20
534.0
 30
0.0
 11
388.0
 21
533.0
 31
0.0
  0
LINE
  8
0
 10
388.0
 20
533.0
 30
0.0
 11
387.0
 21
533.0
 31
0.0
  0
LINE
  8
0
 10
387.0
 20
533.0
 30
0.0
 11
387.0
 21
534.0
 31
0.0
  0
LINE
  8
0
 10
389.0
 20
534.0
 30
0.0
 11
465.0
 21
534.0
 31
0.0
  0
LINE
  8
0
 10
465.0
 20
534.0
 30
0.0
 11
465.0
 21
533.0
 31
0.0
  0
LINE
  8
0
 10
465.0
 20
533.0
 30
0.0
 11
389.0
 21
533.0
 31
0.0
  0
LINE
  8
0
 10
389.0
 20
533.0
 30
0.0
 11
389.0
 21
534.0
 31
0.0
  0
LINE
  8
0
 10
467.0
 20
534.0
 30
0.0
 11
613.0
 21
534.0
 31
0.0
  0
LINE
  8
0
 10
613.0
 20
534.0
 30
0.0
 11
613.0
 21
533.0
 31
0.0
  0
LINE
  8
0
 10
613.0
 20
533.0
 30
0.0
 11
467.0
 21
533.0
 31
0.0
  0
LINE
  8
0
 10
467.0
 20
533.0
 30
0.0
 11
467.0
 21
534.0
 31
0.0
  0
LINE
  8
0
 10
316.0
 20
533.0
 30
0.0
 11
335.0
 21
533.0
 31
0.0
  0
LINE
  8
0
 10
335.0
 20
533.0
 30
0.0
 11
335.0
 21
532.0
 31
0.0
  0
LINE
  8
0
 10
335.0
 20
532.0
 30
0.0
 11
316.0
 21
532.0
 31
0.0
  0
LINE
  8
0
 10
316.0
 20
532.0
 30
0.0
 11
316.0
 21
533.0
 31
0.0
  0
LINE
  8
0
 10
360.0
 20
533.0
 30
0.0
 11
385.0
 21
533.0
 31
0.0
  0
LINE
  8
0
 10
385.0
 20
533.0
 30
0.0
 11
385.0
 21
532.0
 31
0.0
  0
LINE
  8
0
 10
385.0
 20
532.0
 30
0.0
 11
360.0
 21
532.0
 31
0.0
  0
LINE
  8
0
 10
360.0
 20
532.0
 30
0.0
 11
360.0
 21
533.0
 31
0.0
  0
LINE
  8
0
 10
387.0
 20
533.0
 30
0.0
 11
388.0
 21
533.0
 31
0.0
  0
LINE
  8
0
 10
388.0
 20
533.0
 30
0.0
 11
388.0
 21
532.0
 31
0.0
  0
LINE
  8
0
 10
388.0
 20
532.0
 30
0.0
 11
387.0
 21
532.0
 31
0.0
  0
LINE
  8
0
 10
387.0
 20
532.0
 30
0.0
 11
387.0
 21
533.0
 31
0.0
  0
LINE
  8
0
 10
389.0
 20
533.0
 30
0.0
 11
467.0
 21
533.0
 31
0.0
  0
LINE
  8
0
 10
467.0
 20
533.0
 30
0.0
 11
467.0
 21
532.0
 31
0.0
  0
LINE
  8
0
 10
467.0
 20
532.0
 30
0.0
 11
389.0
 21
532.0
 31
0.0
  0
LINE
  8
0
 10
389.0
 20
532.0
 30
0.0
 11
389.0
 21
533.0
 31
0.0
  0
LINE
  8
0
 10
469.0
 20
533.0
 30
0.0
 11
612.0
 21
533.0
 31
0.0
  0
LINE
  8
0
 10
612.0
 20
533.0
 30
0.0
 11
612.0
 21
532.0
 31
0.0
  0
LINE
  8
0
 10
612.0
 20
532.0
 30
0.0
 11
469.0
 21
532.0
 31
0.0
  0
LINE
  8
0
 10
469.0
 20
532.0
 30
0.0
 11
469.0
 21
533.0
 31
0.0
  0
LINE
  8
0
 10
317.0
 20
532.0
 30
0.0
 11
338.0
 21
532.0
 31
0.0
  0
LINE
  8
0
 10
338.0
 20
532.0
 30
0.0
 11
338.0
 21
531.0
 31
0.0
  0
LINE
  8
0
 10
338.0
 20
531.0
 30
0.0
 11
317.0
 21
531.0
 31
0.0
  0
LINE
  8
0
 10
317.0
 20
531.0
 30
0.0
 11
317.0
 21
532.0
 31
0.0
  0
LINE
  8
0
 10
356.0
 20
532.0
 30
0.0
 11
383.0
 21
532.0
 31
0.0
  0
LINE
  8
0
 10
383.0
 20
532.0
 30
0.0
 11
383.0
 21
531.0
 31
0.0
  0
LINE
  8
0
 10
383.0
 20
531.0
 30
0.0
 11
356.0
 21
531.0
 31
0.0
  0
LINE
  8
0
 10
356.0
 20
531.0
 30
0.0
 11
356.0
 21
532.0
 31
0.0
  0
LINE
  8
0
 10
389.0
 20
532.0
 30
0.0
 11
469.0
 21
532.0
 31
0.0
  0
LINE
  8
0
 10
469.0
 20
532.0
 30
0.0
 11
469.0
 21
531.0
 31
0.0
  0
LINE
  8
0
 10
469.0
 20
531.0
 30
0.0
 11
389.0
 21
531.0
 31
0.0
  0
LINE
  8
0
 10
389.0
 20
531.0
 30
0.0
 11
389.0
 21
532.0
 31
0.0
  0
LINE
  8
0
 10
471.0
 20
532.0
 30
0.0
 11
612.0
 21
532.0
 31
0.0
  0
LINE
  8
0
 10
612.0
 20
532.0
 30
0.0
 11
612.0
 21
531.0
 31
0.0
  0
LINE
  8
0
 10
612.0
 20
531.0
 30
0.0
 11
471.0
 21
531.0
 31
0.0
  0
LINE
  8
0
 10
471.0
 20
531.0
 30
0.0
 11
471.0
 21
532.0
 31
0.0
  0
LINE
  8
0
 10
318.0
 20
531.0
 30
0.0
 11
343.0
 21
531.0
 31
0.0
  0
LINE
  8
0
 10
343.0
 20
531.0
 30
0.0
 11
343.0
 21
530.0
 31
0.0
  0
LINE
  8
0
 10
343.0
 20
530.0
 30
0.0
 11
318.0
 21
530.0
 31
0.0
  0
LINE
  8
0
 10
318.0
 20
530.0
 30
0.0
 11
318.0
 21
531.0
 31
0.0
  0
LINE
  8
0
 10
351.0
 20
531.0
 30
0.0
 11
382.0
 21
531.0
 31
0.0
  0
LINE
  8
0
 10
382.0
 20
531.0
 30
0.0
 11
382.0
 21
530.0
 31
0.0
  0
LINE
  8
0
 10
382.0
 20
530.0
 30
0.0
 11
351.0
 21
530.0
 31
0.0
  0
LINE
  8
0
 10
351.0
 20
530.0
 30
0.0
 11
351.0
 21
531.0
 31
0.0
  0
LINE
  8
0
 10
389.0
 20
531.0
 30
0.0
 11
470.0
 21
531.0
 31
0.0
  0
LINE
  8
0
 10
470.0
 20
531.0
 30
0.0
 11
470.0
 21
530.0
 31
0.0
  0
LINE
  8
0
 10
470.0
 20
530.0
 30
0.0
 11
389.0
 21
530.0
 31
0.0
  0
LINE
  8
0
 10
389.0
 20
530.0
 30
0.0
 11
389.0
 21
531.0
 31
0.0
  0
LINE
  8
0
 10
473.0
 20
531.0
 30
0.0
 11
612.0
 21
531.0
 31
0.0
  0
LINE
  8
0
 10
612.0
 20
531.0
 30
0.0
 11
612.0
 21
530.0
 31
0.0
  0
LINE
  8
0
 10
612.0
 20
530.0
 30
0.0
 11
473.0
 21
530.0
 31
0.0
  0
LINE
  8
0
 10
473.0
 20
530.0
 30
0.0
 11
473.0
 21
531.0
 31
0.0
  0
LINE
  8
0
 10
319.0
 20
530.0
 30
0.0
 11
381.0
 21
530.0
 31
0.0
  0
LINE
  8
0
 10
381.0
 20
530.0
 30
0.0
 11
381.0
 21
529.0
 31
0.0
  0
LINE
  8
0
 10
381.0
 20
529.0
 30
0.0
 11
319.0
 21
529.0
 31
0.0
  0
LINE
  8
0
 10
319.0
 20
529.0
 30
0.0
 11
319.0
 21
530.0
 31
0.0
  0
LINE
  8
0
 10
389.0
 20
530.0
 30
0.0
 11
472.0
 21
530.0
 31
0.0
  0
LINE
  8
0
 10
472.0
 20
530.0
 30
0.0
 11
472.0
 21
529.0
 31
0.0
  0
LINE
  8
0
 10
472.0
 20
529.0
 30
0.0
 11
389.0
 21
529.0
 31
0.0
  0
LINE
  8
0
 10
389.0
 20
529.0
 30
0.0
 11
389.0
 21
530.0
 31
0.0
  0
LINE
  8
0
 10
474.0
 20
530.0
 30
0.0
 11
611.0
 21
530.0
 31
0.0
  0
LINE
  8
0
 10
611.0
 20
530.0
 30
0.0
 11
611.0
 21
529.0
 31
0.0
  0
LINE
  8
0
 10
611.0
 20
529.0
 30
0.0
 11
474.0
 21
529.0
 31
0.0
  0
LINE
  8
0
 10
474.0
 20
529.0
 30
0.0
 11
474.0
 21
530.0
 31
0.0
  0
LINE
  8
0
 10
320.0
 20
529.0
 30
0.0
 11
380.0
 21
529.0
 31
0.0
  0
LINE
  8
0
 10
380.0
 20
529.0
 30
0.0
 11
380.0
 21
528.0
 31
0.0
  0
LINE
  8
0
 10
380.0
 20
528.0
 30
0.0
 11
320.0
 21
528.0
 31
0.0
  0
LINE
  8
0
 10
320.0
 20
528.0
 30
0.0
 11
320.0
 21
529.0
 31
0.0
  0
LINE
  8
0
 10
389.0
 20
529.0
 30
0.0
 11
473.0
 21
529.0
 31
0.0
  0
LINE
  8
0
 10
473.0
 20
529.0
 30
0.0
 11
473.0
 21
528.0
 31
0.0
  0
LINE
  8
0
 10
473.0
 20
528.0
 30
0.0
 11
389.0
 21
528.0
 31
0.0
  0
LINE
  8
0
 10
389.0
 20
528.0
 30
0.0
 11
389.0
 21
529.0
 31
0.0
  0
LINE
  8
0
 10
476.0
 20
529.0
 30
0.0
 11
611.0
 21
529.0
 31
0.0
  0
LINE
  8
0
 10
611.0
 20
529.0
 30
0.0
 11
611.0
 21
528.0
 31
0.0
  0
LINE
  8
0
 10
611.0
 20
528.0
 30
0.0
 11
476.0
 21
528.0
 31
0.0
  0
LINE
  8
0
 10
476.0
 20
528.0
 30
0.0
 11
476.0
 21
529.0
 31
0.0
  0
LINE
  8
0
 10
321.0
 20
528.0
 30
0.0
 11
378.0
 21
528.0
 31
0.0
  0
LINE
  8
0
 10
378.0
 20
528.0
 30
0.0
 11
378.0
 21
527.0
 31
0.0
  0
LINE
  8
0
 10
378.0
 20
527.0
 30
0.0
 11
321.0
 21
527.0
 31
0.0
  0
LINE
  8
0
 10
321.0
 20
527.0
 30
0.0
 11
321.0
 21
528.0
 31
0.0
  0
LINE
  8
0
 10
389.0
 20
528.0
 30
0.0
 11
474.0
 21
528.0
 31
0.0
  0
LINE
  8
0
 10
474.0
 20
528.0
 30
0.0
 11
474.0
 21
527.0
 31
0.0
  0
LINE
  8
0
 10
474.0
 20
527.0
 30
0.0
 11
389.0
 21
527.0
 31
0.0
  0
LINE
  8
0
 10
389.0
 20
527.0
 30
0.0
 11
389.0
 21
528.0
 31
0.0
  0
LINE
  8
0
 10
477.0
 20
528.0
 30
0.0
 11
611.0
 21
528.0
 31
0.0
  0
LINE
  8
0
 10
611.0
 20
528.0
 30
0.0
 11
611.0
 21
527.0
 31
0.0
  0
LINE
  8
0
 10
611.0
 20
527.0
 30
0.0
 11
477.0
 21
527.0
 31
0.0
  0
LINE
  8
0
 10
477.0
 20
527.0
 30
0.0
 11
477.0
 21
528.0
 31
0.0
  0
LINE
  8
0
 10
322.0
 20
527.0
 30
0.0
 11
376.0
 21
527.0
 31
0.0
  0
LINE
  8
0
 10
376.0
 20
527.0
 30
0.0
 11
376.0
 21
526.0
 31
0.0
  0
LINE
  8
0
 10
376.0
 20
526.0
 30
0.0
 11
322.0
 21
526.0
 31
0.0
  0
LINE
  8
0
 10
322.0
 20
526.0
 30
0.0
 11
322.0
 21
527.0
 31
0.0
  0
LINE
  8
0
 10
389.0
 20
527.0
 30
0.0
 11
475.0
 21
527.0
 31
0.0
  0
LINE
  8
0
 10
475.0
 20
527.0
 30
0.0
 11
475.0
 21
526.0
 31
0.0
  0
LINE
  8
0
 10
475.0
 20
526.0
 30
0.0
 11
389.0
 21
526.0
 31
0.0
  0
LINE
  8
0
 10
389.0
 20
526.0
 30
0.0
 11
389.0
 21
527.0
 31
0.0
  0
LINE
  8
0
 10
478.0
 20
527.0
 30
0.0
 11
610.0
 21
527.0
 31
0.0
  0
LINE
  8
0
 10
610.0
 20
527.0
 30
0.0
 11
610.0
 21
526.0
 31
0.0
  0
LINE
  8
0
 10
610.0
 20
526.0
 30
0.0
 11
478.0
 21
526.0
 31
0.0
  0
LINE
  8
0
 10
478.0
 20
526.0
 30
0.0
 11
478.0
 21
527.0
 31
0.0
  0
LINE
  8
0
 10
324.0
 20
526.0
 30
0.0
 11
375.0
 21
526.0
 31
0.0
  0
LINE
  8
0
 10
375.0
 20
526.0
 30
0.0
 11
375.0
 21
525.0
 31
0.0
  0
LINE
  8
0
 10
375.0
 20
525.0
 30
0.0
 11
324.0
 21
525.0
 31
0.0
  0
LINE
  8
0
 10
324.0
 20
525.0
 30
0.0
 11
324.0
 21
526.0
 31
0.0
  0
LINE
  8
0
 10
389.0
 20
526.0
 30
0.0
 11
477.0
 21
526.0
 31
0.0
  0
LINE
  8
0
 10
477.0
 20
526.0
 30
0.0
 11
477.0
 21
525.0
 31
0.0
  0
LINE
  8
0
 10
477.0
 20
525.0
 30
0.0
 11
389.0
 21
525.0
 31
0.0
  0
LINE
  8
0
 10
389.0
 20
525.0
 30
0.0
 11
389.0
 21
526.0
 31
0.0
  0
LINE
  8
0
 10
479.0
 20
526.0
 30
0.0
 11
610.0
 21
526.0
 31
0.0
  0
LINE
  8
0
 10
610.0
 20
526.0
 30
0.0
 11
610.0
 21
525.0
 31
0.0
  0
LINE
  8
0
 10
610.0
 20
525.0
 30
0.0
 11
479.0
 21
525.0
 31
0.0
  0
LINE
  8
0
 10
479.0
 20
525.0
 30
0.0
 11
479.0
 21
526.0
 31
0.0
  0
LINE
  8
0
 10
325.0
 20
525.0
 30
0.0
 11
373.0
 21
525.0
 31
0.0
  0
LINE
  8
0
 10
373.0
 20
525.0
 30
0.0
 11
373.0
 21
524.0
 31
0.0
  0
LINE
  8
0
 10
373.0
 20
524.0
 30
0.0
 11
325.0
 21
524.0
 31
0.0
  0
LINE
  8
0
 10
325.0
 20
524.0
 30
0.0
 11
325.0
 21
525.0
 31
0.0
  0
LINE
  8
0
 10
389.0
 20
525.0
 30
0.0
 11
478.0
 21
525.0
 31
0.0
  0
LINE
  8
0
 10
478.0
 20
525.0
 30
0.0
 11
478.0
 21
524.0
 31
0.0
  0
LINE
  8
0
 10
478.0
 20
524.0
 30
0.0
 11
389.0
 21
524.0
 31
0.0
  0
LINE
  8
0
 10
389.0
 20
524.0
 30
0.0
 11
389.0
 21
525.0
 31
0.0
  0
LINE
  8
0
 10
480.0
 20
525.0
 30
0.0
 11
610.0
 21
525.0
 31
0.0
  0
LINE
  8
0
 10
610.0
 20
525.0
 30
0.0
 11
610.0
 21
524.0
 31
0.0
  0
LINE
  8
0
 10
610.0
 20
524.0
 30
0.0
 11
480.0
 21
524.0
 31
0.0
  0
LINE
  8
0
 10
480.0
 20
524.0
 30
0.0
 11
480.0
 21
525.0
 31
0.0
  0
LINE
  8
0
 10
327.0
 20
524.0
 30
0.0
 11
371.0
 21
524.0
 31
0.0
  0
LINE
  8
0
 10
371.0
 20
524.0
 30
0.0
 11
371.0
 21
523.0
 31
0.0
  0
LINE
  8
0
 10
371.0
 20
523.0
 30
0.0
 11
327.0
 21
523.0
 31
0.0
  0
LINE
  8
0
 10
327.0
 20
523.0
 30
0.0
 11
327.0
 21
524.0
 31
0.0
  0
LINE
  8
0
 10
390.0
 20
524.0
 30
0.0
 11
479.0
 21
524.0
 31
0.0
  0
LINE
  8
0
 10
479.0
 20
524.0
 30
0.0
 11
479.0
 21
523.0
 31
0.0
  0
LINE
  8
0
 10
479.0
 20
523.0
 30
0.0
 11
390.0
 21
523.0
 31
0.0
  0
LINE
  8
0
 10
390.0
 20
523.0
 30
0.0
 11
390.0
 21
524.0
 31
0.0
  0
LINE
  8
0
 10
481.0
 20
524.0
 30
0.0
 11
609.0
 21
524.0
 31
0.0
  0
LINE
  8
0
 10
609.0
 20
524.0
 30
0.0
 11
609.0
 21
523.0
 31
0.0
  0
LINE
  8
0
 10
609.0
 20
523.0
 30
0.0
 11
481.0
 21
523.0
 31
0.0
  0
LINE
  8
0
 10
481.0
 20
523.0
 30
0.0
 11
481.0
 21
524.0
 31
0.0
  0
LINE
  8
0
 10
329.0
 20
523.0
 30
0.0
 11
369.0
 21
523.0
 31
0.0
  0
LINE
  8
0
 10
369.0
 20
523.0
 30
0.0
 11
369.0
 21
522.0
 31
0.0
  0
LINE
  8
0
 10
369.0
 20
522.0
 30
0.0
 11
329.0
 21
522.0
 31
0.0
  0
LINE
  8
0
 10
329.0
 20
522.0
 30
0.0
 11
329.0
 21
523.0
 31
0.0
  0
LINE
  8
0
 10
390.0
 20
523.0
 30
0.0
 11
480.0
 21
523.0
 31
0.0
  0
LINE
  8
0
 10
480.0
 20
523.0
 30
0.0
 11
480.0
 21
522.0
 31
0.0
  0
LINE
  8
0
 10
480.0
 20
522.0
 30
0.0
 11
390.0
 21
522.0
 31
0.0
  0
LINE
  8
0
 10
390.0
 20
522.0
 30
0.0
 11
390.0
 21
523.0
 31
0.0
  0
LINE
  8
0
 10
482.0
 20
523.0
 30
0.0
 11
609.0
 21
523.0
 31
0.0
  0
LINE
  8
0
 10
609.0
 20
523.0
 30
0.0
 11
609.0
 21
522.0
 31
0.0
  0
LINE
  8
0
 10
609.0
 20
522.0
 30
0.0
 11
482.0
 21
522.0
 31
0.0
  0
LINE
  8
0
 10
482.0
 20
522.0
 30
0.0
 11
482.0
 21
523.0
 31
0.0
  0
LINE
  8
0
 10
331.0
 20
522.0
 30
0.0
 11
367.0
 21
522.0
 31
0.0
  0
LINE
  8
0
 10
367.0
 20
522.0
 30
0.0
 11
367.0
 21
521.0
 31
0.0
  0
LINE
  8
0
 10
367.0
 20
521.0
 30
0.0
 11
331.0
 21
521.0
 31
0.0
  0
LINE
  8
0
 10
331.0
 20
521.0
 30
0.0
 11
331.0
 21
522.0
 31
0.0
  0
LINE
  8
0
 10
390.0
 20
522.0
 30
0.0
 11
480.0
 21
522.0
 31
0.0
  0
LINE
  8
0
 10
480.0
 20
522.0
 30
0.0
 11
480.0
 21
521.0
 31
0.0
  0
LINE
  8
0
 10
480.0
 20
521.0
 30
0.0
 11
390.0
 21
521.0
 31
0.0
  0
LINE
  8
0
 10
390.0
 20
521.0
 30
0.0
 11
390.0
 21
522.0
 31
0.0
  0
LINE
  8
0
 10
483.0
 20
522.0
 30
0.0
 11
609.0
 21
522.0
 31
0.0
  0
LINE
  8
0
 10
609.0
 20
522.0
 30
0.0
 11
609.0
 21
521.0
 31
0.0
  0
LINE
  8
0
 10
609.0
 20
521.0
 30
0.0
 11
483.0
 21
521.0
 31
0.0
  0
LINE
  8
0
 10
483.0
 20
521.0
 30
0.0
 11
483.0
 21
522.0
 31
0.0
  0
LINE
  8
0
 10
334.0
 20
521.0
 30
0.0
 11
364.0
 21
521.0
 31
0.0
  0
LINE
  8
0
 10
364.0
 20
521.0
 30
0.0
 11
364.0
 21
520.0
 31
0.0
  0
LINE
  8
0
 10
364.0
 20
520.0
 30
0.0
 11
334.0
 21
520.0
 31
0.0
  0
LINE
  8
0
 10
334.0
 20
520.0
 30
0.0
 11
334.0
 21
521.0
 31
0.0
  0
LINE
  8
0
 10
390.0
 20
521.0
 30
0.0
 11
481.0
 21
521.0
 31
0.0
  0
LINE
  8
0
 10
481.0
 20
521.0
 30
0.0
 11
481.0
 21
520.0
 31
0.0
  0
LINE
  8
0
 10
481.0
 20
520.0
 30
0.0
 11
390.0
 21
520.0
 31
0.0
  0
LINE
  8
0
 10
390.0
 20
520.0
 30
0.0
 11
390.0
 21
521.0
 31
0.0
  0
LINE
  8
0
 10
484.0
 20
521.0
 30
0.0
 11
608.0
 21
521.0
 31
0.0
  0
LINE
  8
0
 10
608.0
 20
521.0
 30
0.0
 11
608.0
 21
520.0
 31
0.0
  0
LINE
  8
0
 10
608.0
 20
520.0
 30
0.0
 11
484.0
 21
520.0
 31
0.0
  0
LINE
  8
0
 10
484.0
 20
520.0
 30
0.0
 11
484.0
 21
521.0
 31
0.0
  0
LINE
  8
0
 10
337.0
 20
520.0
 30
0.0
 11
361.0
 21
520.0
 31
0.0
  0
LINE
  8
0
 10
361.0
 20
520.0
 30
0.0
 11
361.0
 21
519.0
 31
0.0
  0
LINE
  8
0
 10
361.0
 20
519.0
 30
0.0
 11
337.0
 21
519.0
 31
0.0
  0
LINE
  8
0
 10
337.0
 20
519.0
 30
0.0
 11
337.0
 21
520.0
 31
0.0
  0
LINE
  8
0
 10
391.0
 20
520.0
 30
0.0
 11
482.0
 21
520.0
 31
0.0
  0
LINE
  8
0
 10
482.0
 20
520.0
 30
0.0
 11
482.0
 21
519.0
 31
0.0
  0
LINE
  8
0
 10
482.0
 20
519.0
 30
0.0
 11
391.0
 21
519.0
 31
0.0
  0
LINE
  8
0
 10
391.0
 20
519.0
 30
0.0
 11
391.0
 21
520.0
 31
0.0
  0
LINE
  8
0
 10
484.0
 20
520.0
 30
0.0
 11
608.0
 21
520.0
 31
0.0
  0
LINE
  8
0
 10
608.0
 20
520.0
 30
0.0
 11
608.0
 21
519.0
 31
0.0
  0
LINE
  8
0
 10
608.0
 20
519.0
 30
0.0
 11
484.0
 21
519.0
 31
0.0
  0
LINE
  8
0
 10
484.0
 20
519.0
 30
0.0
 11
484.0
 21
520.0
 31
0.0
  0
LINE
  8
0
 10
341.0
 20
519.0
 30
0.0
 11
356.0
 21
519.0
 31
0.0
  0
LINE
  8
0
 10
356.0
 20
519.0
 30
0.0
 11
356.0
 21
518.0
 31
0.0
  0
LINE
  8
0
 10
356.0
 20
518.0
 30
0.0
 11
341.0
 21
518.0
 31
0.0
  0
LINE
  8
0
 10
341.0
 20
518.0
 30
0.0
 11
341.0
 21
519.0
 31
0.0
  0
LINE
  8
0
 10
391.0
 20
519.0
 30
0.0
 11
483.0
 21
519.0
 31
0.0
  0
LINE
  8
0
 10
483.0
 20
519.0
 30
0.0
 11
483.0
 21
518.0
 31
0.0
  0
LINE
  8
0
 10
483.0
 20
518.0
 30
0.0
 11
391.0
 21
518.0
 31
0.0
  0
LINE
  8
0
 10
391.0
 20
518.0
 30
0.0
 11
391.0
 21
519.0
 31
0.0
  0
LINE
  8
0
 10
485.0
 20
519.0
 30
0.0
 11
608.0
 21
519.0
 31
0.0
  0
LINE
  8
0
 10
608.0
 20
519.0
 30
0.0
 11
608.0
 21
518.0
 31
0.0
  0
LINE
  8
0
 10
608.0
 20
518.0
 30
0.0
 11
485.0
 21
518.0
 31
0.0
  0
LINE
  8
0
 10
485.0
 20
518.0
 30
0.0
 11
485.0
 21
519.0
 31
0.0
  0
LINE
  8
0
 10
391.0
 20
518.0
 30
0.0
 11
483.0
 21
518.0
 31
0.0
  0
LINE
  8
0
 10
483.0
 20
518.0
 30
0.0
 11
483.0
 21
517.0
 31
0.0
  0
LINE
  8
0
 10
483.0
 20
517.0
 30
0.0
 11
391.0
 21
517.0
 31
0.0
  0
LINE
  8
0
 10
391.0
 20
517.0
 30
0.0
 11
391.0
 21
518.0
 31
0.0
  0
LINE
  8
0
 10
486.0
 20
518.0
 30
0.0
 11
607.0
 21
518.0
 31
0.0
  0
LINE
  8
0
 10
607.0
 20
518.0
 30
0.0
 11
607.0
 21
517.0
 31
0.0
  0
LINE
  8
0
 10
607.0
 20
517.0
 30
0.0
 11
486.0
 21
517.0
 31
0.0
  0
LINE
  8
0
 10
486.0
 20
517.0
 30
0.0
 11
486.0
 21
518.0
 31
0.0
  0
LINE
  8
0
 10
391.0
 20
517.0
 30
0.0
 11
484.0
 21
517.0
 31
0.0
  0
LINE
  8
0
 10
484.0
 20
517.0
 30
0.0
 11
484.0
 21
516.0
 31
0.0
  0
LINE
  8
0
 10
484.0
 20
516.0
 30
0.0
 11
391.0
 21
516.0
 31
0.0
  0
LINE
  8
0
 10
391.0
 20
516.0
 30
0.0
 11
391.0
 21
517.0
 31
0.0
  0
LINE
  8
0
 10
486.0
 20
517.0
 30
0.0
 11
607.0
 21
517.0
 31
0.0
  0
LINE
  8
0
 10
607.0
 20
517.0
 30
0.0
 11
607.0
 21
516.0
 31
0.0
  0
LINE
  8
0
 10
607.0
 20
516.0
 30
0.0
 11
486.0
 21
516.0
 31
0.0
  0
LINE
  8
0
 10
486.0
 20
516.0
 30
0.0
 11
486.0
 21
517.0
 31
0.0
  0
LINE
  8
0
 10
392.0
 20
516.0
 30
0.0
 11
484.0
 21
516.0
 31
0.0
  0
LINE
  8
0
 10
484.0
 20
516.0
 30
0.0
 11
484.0
 21
515.0
 31
0.0
  0
LINE
  8
0
 10
484.0
 20
515.0
 30
0.0
 11
392.0
 21
515.0
 31
0.0
  0
LINE
  8
0
 10
392.0
 20
515.0
 30
0.0
 11
392.0
 21
516.0
 31
0.0
  0
LINE
  8
0
 10
487.0
 20
516.0
 30
0.0
 11
606.0
 21
516.0
 31
0.0
  0
LINE
  8
0
 10
606.0
 20
516.0
 30
0.0
 11
606.0
 21
515.0
 31
0.0
  0
LINE
  8
0
 10
606.0
 20
515.0
 30
0.0
 11
487.0
 21
515.0
 31
0.0
  0
LINE
  8
0
 10
487.0
 20
515.0
 30
0.0
 11
487.0
 21
516.0
 31
0.0
  0
LINE
  8
0
 10
393.0
 20
515.0
 30
0.0
 11
485.0
 21
515.0
 31
0.0
  0
LINE
  8
0
 10
485.0
 20
515.0
 30
0.0
 11
485.0
 21
514.0
 31
0.0
  0
LINE
  8
0
 10
485.0
 20
514.0
 30
0.0
 11
393.0
 21
514.0
 31
0.0
  0
LINE
  8
0
 10
393.0
 20
514.0
 30
0.0
 11
393.0
 21
515.0
 31
0.0
  0
LINE
  8
0
 10
487.0
 20
515.0
 30
0.0
 11
606.0
 21
515.0
 31
0.0
  0
LINE
  8
0
 10
606.0
 20
515.0
 30
0.0
 11
606.0
 21
514.0
 31
0.0
  0
LINE
  8
0
 10
606.0
 20
514.0
 30
0.0
 11
487.0
 21
514.0
 31
0.0
  0
LINE
  8
0
 10
487.0
 20
514.0
 30
0.0
 11
487.0
 21
515.0
 31
0.0
  0
LINE
  8
0
 10
393.0
 20
514.0
 30
0.0
 11
485.0
 21
514.0
 31
0.0
  0
LINE
  8
0
 10
485.0
 20
514.0
 30
0.0
 11
485.0
 21
513.0
 31
0.0
  0
LINE
  8
0
 10
485.0
 20
513.0
 30
0.0
 11
393.0
 21
513.0
 31
0.0
  0
LINE
  8
0
 10
393.0
 20
513.0
 30
0.0
 11
393.0
 21
514.0
 31
0.0
  0
LINE
  8
0
 10
488.0
 20
514.0
 30
0.0
 11
605.0
 21
514.0
 31
0.0
  0
LINE
  8
0
 10
605.0
 20
514.0
 30
0.0
 11
605.0
 21
513.0
 31
0.0
  0
LINE
  8
0
 10
605.0
 20
513.0
 30
0.0
 11
488.0
 21
513.0
 31
0.0
  0
LINE
  8
0
 10
488.0
 20
513.0
 30
0.0
 11
488.0
 21
514.0
 31
0.0
  0
LINE
  8
0
 10
394.0
 20
513.0
 30
0.0
 11
486.0
 21
513.0
 31
0.0
  0
LINE
  8
0
 10
486.0
 20
513.0
 30
0.0
 11
486.0
 21
512.0
 31
0.0
  0
LINE
  8
0
 10
486.0
 20
512.0
 30
0.0
 11
394.0
 21
512.0
 31
0.0
  0
LINE
  8
0
 10
394.0
 20
512.0
 30
0.0
 11
394.0
 21
513.0
 31
0.0
  0
LINE
  8
0
 10
488.0
 20
513.0
 30
0.0
 11
604.0
 21
513.0
 31
0.0
  0
LINE
  8
0
 10
604.0
 20
513.0
 30
0.0
 11
604.0
 21
512.0
 31
0.0
  0
LINE
  8
0
 10
604.0
 20
512.0
 30
0.0
 11
488.0
 21
512.0
 31
0.0
  0
LINE
  8
0
 10
488.0
 20
512.0
 30
0.0
 11
488.0
 21
513.0
 31
0.0
  0
LINE
  8
0
 10
394.0
 20
512.0
 30
0.0
 11
486.0
 21
512.0
 31
0.0
  0
LINE
  8
0
 10
486.0
 20
512.0
 30
0.0
 11
486.0
 21
511.0
 31
0.0
  0
LINE
  8
0
 10
486.0
 20
511.0
 30
0.0
 11
394.0
 21
511.0
 31
0.0
  0
LINE
  8
0
 10
394.0
 20
511.0
 30
0.0
 11
394.0
 21
512.0
 31
0.0
  0
LINE
  8
0
 10
489.0
 20
512.0
 30
0.0
 11
604.0
 21
512.0
 31
0.0
  0
LINE
  8
0
 10
604.0
 20
512.0
 30
0.0
 11
604.0
 21
511.0
 31
0.0
  0
LINE
  8
0
 10
604.0
 20
511.0
 30
0.0
 11
489.0
 21
511.0
 31
0.0
  0
LINE
  8
0
 10
489.0
 20
511.0
 30
0.0
 11
489.0
 21
512.0
 31
0.0
  0
LINE
  8
0
 10
395.0
 20
511.0
 30
0.0
 11
487.0
 21
511.0
 31
0.0
  0
LINE
  8
0
 10
487.0
 20
511.0
 30
0.0
 11
487.0
 21
510.0
 31
0.0
  0
LINE
  8
0
 10
487.0
 20
510.0
 30
0.0
 11
395.0
 21
510.0
 31
0.0
  0
LINE
  8
0
 10
395.0
 20
510.0
 30
0.0
 11
395.0
 21
511.0
 31
0.0
  0
LINE
  8
0
 10
489.0
 20
511.0
 30
0.0
 11
603.0
 21
511.0
 31
0.0
  0
LINE
  8
0
 10
603.0
 20
511.0
 30
0.0
 11
603.0
 21
510.0
 31
0.0
  0
LINE
  8
0
 10
603.0
 20
510.0
 30
0.0
 11
489.0
 21
510.0
 31
0.0
  0
LINE
  8
0
 10
489.0
 20
510.0
 30
0.0
 11
489.0
 21
511.0
 31
0.0
  0
LINE
  8
0
 10
396.0
 20
510.0
 30
0.0
 11
487.0
 21
510.0
 31
0.0
  0
LINE
  8
0
 10
487.0
 20
510.0
 30
0.0
 11
487.0
 21
509.0
 31
0.0
  0
LINE
  8
0
 10
487.0
 20
509.0
 30
0.0
 11
396.0
 21
509.0
 31
0.0
  0
LINE
  8
0
 10
396.0
 20
509.0
 30
0.0
 11
396.0
 21
510.0
 31
0.0
  0
LINE
  8
0
 10
490.0
 20
510.0
 30
0.0
 11
602.0
 21
510.0
 31
0.0
  0
LINE
  8
0
 10
602.0
 20
510.0
 30
0.0
 11
602.0
 21
509.0
 31
0.0
  0
LINE
  8
0
 10
602.0
 20
509.0
 30
0.0
 11
490.0
 21
509.0
 31
0.0
  0
LINE
  8
0
 10
490.0
 20
509.0
 30
0.0
 11
490.0
 21
510.0
 31
0.0
  0
LINE
  8
0
 10
397.0
 20
509.0
 30
0.0
 11
488.0
 21
509.0
 31
0.0
  0
LINE
  8
0
 10
488.0
 20
509.0
 30
0.0
 11
488.0
 21
508.0
 31
0.0
  0
LINE
  8
0
 10
488.0
 20
508.0
 30
0.0
 11
397.0
 21
508.0
 31
0.0
  0
LINE
  8
0
 10
397.0
 20
508.0
 30
0.0
 11
397.0
 21
509.0
 31
0.0
  0
LINE
  8
0
 10
490.0
 20
509.0
 30
0.0
 11
601.0
 21
509.0
 31
0.0
  0
LINE
  8
0
 10
601.0
 20
509.0
 30
0.0
 11
601.0
 21
508.0
 31
0.0
  0
LINE
  8
0
 10
601.0
 20
508.0
 30
0.0
 11
490.0
 21
508.0
 31
0.0
  0
LINE
  8
0
 10
490.0
 20
508.0
 30
0.0
 11
490.0
 21
509.0
 31
0.0
  0
LINE
  8
0
 10
398.0
 20
508.0
 30
0.0
 11
488.0
 21
508.0
 31
0.0
  0
LINE
  8
0
 10
488.0
 20
508.0
 30
0.0
 11
488.0
 21
507.0
 31
0.0
  0
LINE
  8
0
 10
488.0
 20
507.0
 30
0.0
 11
398.0
 21
507.0
 31
0.0
  0
LINE
  8
0
 10
398.0
 20
507.0
 30
0.0
 11
398.0
 21
508.0
 31
0.0
  0
LINE
  8
0
 10
491.0
 20
508.0
 30
0.0
 11
600.0
 21
508.0
 31
0.0
  0
LINE
  8
0
 10
600.0
 20
508.0
 30
0.0
 11
600.0
 21
507.0
 31
0.0
  0
LINE
  8
0
 10
600.0
 20
507.0
 30
0.0
 11
491.0
 21
507.0
 31
0.0
  0
LINE
  8
0
 10
491.0
 20
507.0
 30
0.0
 11
491.0
 21
508.0
 31
0.0
  0
LINE
  8
0
 10
399.0
 20
507.0
 30
0.0
 11
488.0
 21
507.0
 31
0.0
  0
LINE
  8
0
 10
488.0
 20
507.0
 30
0.0
 11
488.0
 21
506.0
 31
0.0
  0
LINE
  8
0
 10
488.0
 20
506.0
 30
0.0
 11
399.0
 21
506.0
 31
0.0
  0
LINE
  8
0
 10
399.0
 20
506.0
 30
0.0
 11
399.0
 21
507.0
 31
0.0
  0
LINE
  8
0
 10
492.0
 20
507.0
 30
0.0
 11
599.0
 21
507.0
 31
0.0
  0
LINE
  8
0
 10
599.0
 20
507.0
 30
0.0
 11
599.0
 21
506.0
 31
0.0
  0
LINE
  8
0
 10
599.0
 20
506.0
 30
0.0
 11
492.0
 21
506.0
 31
0.0
  0
LINE
  8
0
 10
492.0
 20
506.0
 30
0.0
 11
492.0
 21
507.0
 31
0.0
  0
LINE
  8
0
 10
400.0
 20
506.0
 30
0.0
 11
489.0
 21
506.0
 31
0.0
  0
LINE
  8
0
 10
489.0
 20
506.0
 30
0.0
 11
489.0
 21
505.0
 31
0.0
  0
LINE
  8
0
 10
489.0
 20
505.0
 30
0.0
 11
400.0
 21
505.0
 31
0.0
  0
LINE
  8
0
 10
400.0
 20
505.0
 30
0.0
 11
400.0
 21
506.0
 31
0.0
  0
LINE
  8
0
 10
493.0
 20
506.0
 30
0.0
 11
598.0
 21
506.0
 31
0.0
  0
LINE
  8
0
 10
598.0
 20
506.0
 30
0.0
 11
598.0
 21
505.0
 31
0.0
  0
LINE
  8
0
 10
598.0
 20
505.0
 30
0.0
 11
493.0
 21
505.0
 31
0.0
  0
LINE
  8
0
 10
493.0
 20
505.0
 30
0.0
 11
493.0
 21
506.0
 31
0.0
  0
LINE
  8
0
 10
401.0
 20
505.0
 30
0.0
 11
489.0
 21
505.0
 31
0.0
  0
LINE
  8
0
 10
489.0
 20
505.0
 30
0.0
 11
489.0
 21
504.0
 31
0.0
  0
LINE
  8
0
 10
489.0
 20
504.0
 30
0.0
 11
401.0
 21
504.0
 31
0.0
  0
LINE
  8
0
 10
401.0
 20
504.0
 30
0.0
 11
401.0
 21
505.0
 31
0.0
  0
LINE
  8
0
 10
494.0
 20
505.0
 30
0.0
 11
597.0
 21
505.0
 31
0.0
  0
LINE
  8
0
 10
597.0
 20
505.0
 30
0.0
 11
597.0
 21
504.0
 31
0.0
  0
LINE
  8
0
 10
597.0
 20
504.0
 30
0.0
 11
494.0
 21
504.0
 31
0.0
  0
LINE
  8
0
 10
494.0
 20
504.0
 30
0.0
 11
494.0
 21
505.0
 31
0.0
  0
LINE
  8
0
 10
402.0
 20
504.0
 30
0.0
 11
489.0
 21
504.0
 31
0.0
  0
LINE
  8
0
 10
489.0
 20
504.0
 30
0.0
 11
489.0
 21
503.0
 31
0.0
  0
LINE
  8
0
 10
489.0
 20
503.0
 30
0.0
 11
402.0
 21
503.0
 31
0.0
  0
LINE
  8
0
 10
402.0
 20
503.0
 30
0.0
 11
402.0
 21
504.0
 31
0.0
  0
LINE
  8
0
 10
495.0
 20
504.0
 30
0.0
 11
596.0
 21
504.0
 31
0.0
  0
LINE
  8
0
 10
596.0
 20
504.0
 30
0.0
 11
596.0
 21
503.0
 31
0.0
  0
LINE
  8
0
 10
596.0
 20
503.0
 30
0.0
 11
495.0
 21
503.0
 31
0.0
  0
LINE
  8
0
 10
495.0
 20
503.0
 30
0.0
 11
495.0
 21
504.0
 31
0.0
  0
LINE
  8
0
 10
404.0
 20
503.0
 30
0.0
 11
490.0
 21
503.0
 31
0.0
  0
LINE
  8
0
 10
490.0
 20
503.0
 30
0.0
 11
490.0
 21
502.0
 31
0.0
  0
LINE
  8
0
 10
490.0
 20
502.0
 30
0.0
 11
404.0
 21
502.0
 31
0.0
  0
LINE
  8
0
 10
404.0
 20
502.0
 30
0.0
 11
404.0
 21
503.0
 31
0.0
  0
LINE
  8
0
 10
496.0
 20
503.0
 30
0.0
 11
595.0
 21
503.0
 31
0.0
  0
LINE
  8
0
 10
595.0
 20
503.0
 30
0.0
 11
595.0
 21
502.0
 31
0.0
  0
LINE
  8
0
 10
595.0
 20
502.0
 30
0.0
 11
496.0
 21
502.0
 31
0.0
  0
LINE
  8
0
 10
496.0
 20
502.0
 30
0.0
 11
496.0
 21
503.0
 31
0.0
  0
LINE
  8
0
 10
405.0
 20
502.0
 30
0.0
 11
490.0
 21
502.0
 31
0.0
  0
LINE
  8
0
 10
490.0
 20
502.0
 30
0.0
 11
490.0
 21
501.0
 31
0.0
  0
LINE
  8
0
 10
490.0
 20
501.0
 30
0.0
 11
405.0
 21
501.0
 31
0.0
  0
LINE
  8
0
 10
405.0
 20
501.0
 30
0.0
 11
405.0
 21
502.0
 31
0.0
  0
LINE
  8
0
 10
497.0
 20
502.0
 30
0.0
 11
593.0
 21
502.0
 31
0.0
  0
LINE
  8
0
 10
593.0
 20
502.0
 30
0.0
 11
593.0
 21
501.0
 31
0.0
  0
LINE
  8
0
 10
593.0
 20
501.0
 30
0.0
 11
497.0
 21
501.0
 31
0.0
  0
LINE
  8
0
 10
497.0
 20
501.0
 30
0.0
 11
497.0
 21
502.0
 31
0.0
  0
LINE
  8
0
 10
407.0
 20
501.0
 30
0.0
 11
490.0
 21
501.0
 31
0.0
  0
LINE
  8
0
 10
490.0
 20
501.0
 30
0.0
 11
490.0
 21
500.0
 31
0.0
  0
LINE
  8
0
 10
490.0
 20
500.0
 30
0.0
 11
407.0
 21
500.0
 31
0.0
  0
LINE
  8
0
 10
407.0
 20
500.0
 30
0.0
 11
407.0
 21
501.0
 31
0.0
  0
LINE
  8
0
 10
499.0
 20
501.0
 30
0.0
 11
592.0
 21
501.0
 31
0.0
  0
LINE
  8
0
 10
592.0
 20
501.0
 30
0.0
 11
592.0
 21
500.0
 31
0.0
  0
LINE
  8
0
 10
592.0
 20
500.0
 30
0.0
 11
499.0
 21
500.0
 31
0.0
  0
LINE
  8
0
 10
499.0
 20
500.0
 30
0.0
 11
499.0
 21
501.0
 31
0.0
  0
LINE
  8
0
 10
409.0
 20
500.0
 30
0.0
 11
491.0
 21
500.0
 31
0.0
  0
LINE
  8
0
 10
491.0
 20
500.0
 30
0.0
 11
491.0
 21
499.0
 31
0.0
  0
LINE
  8
0
 10
491.0
 20
499.0
 30
0.0
 11
409.0
 21
499.0
 31
0.0
  0
LINE
  8
0
 10
409.0
 20
499.0
 30
0.0
 11
409.0
 21
500.0
 31
0.0
  0
LINE
  8
0
 10
500.0
 20
500.0
 30
0.0
 11
593.0
 21
500.0
 31
0.0
  0
LINE
  8
0
 10
593.0
 20
500.0
 30
0.0
 11
593.0
 21
499.0
 31
0.0
  0
LINE
  8
0
 10
593.0
 20
499.0
 30
0.0
 11
500.0
 21
499.0
 31
0.0
  0
LINE
  8
0
 10
500.0
 20
499.0
 30
0.0
 11
500.0
 21
500.0
 31
0.0
  0
LINE
  8
0
 10
411.0
 20
499.0
 30
0.0
 11
491.0
 21
499.0
 31
0.0
  0
LINE
  8
0
 10
491.0
 20
499.0
 30
0.0
 11
491.0
 21
498.0
 31
0.0
  0
LINE
  8
0
 10
491.0
 20
498.0
 30
0.0
 11
411.0
 21
498.0
 31
0.0
  0
LINE
  8
0
 10
411.0
 20
498.0
 30
0.0
 11
411.0
 21
499.0
 31
0.0
  0
LINE
  8
0
 10
502.0
 20
499.0
 30
0.0
 11
594.0
 21
499.0
 31
0.0
  0
LINE
  8
0
 10
594.0
 20
499.0
 30
0.0
 11
594.0
 21
498.0
 31
0.0
  0
LINE
  8
0
 10
594.0
 20
498.0
 30
0.0
 11
502.0
 21
498.0
 31
0.0
  0
LINE
  8
0
 10
502.0
 20
498.0
 30
0.0
 11
502.0
 21
499.0
 31
0.0
  0
LINE
  8
0
 10
413.0
 20
498.0
 30
0.0
 11
491.0
 21
498.0
 31
0.0
  0
LINE
  8
0
 10
491.0
 20
498.0
 30
0.0
 11
491.0
 21
497.0
 31
0.0
  0
LINE
  8
0
 10
491.0
 20
497.0
 30
0.0
 11
413.0
 21
497.0
 31
0.0
  0
LINE
  8
0
 10
413.0
 20
497.0
 30
0.0
 11
413.0
 21
498.0
 31
0.0
  0
LINE
  8
0
 10
503.0
 20
498.0
 30
0.0
 11
596.0
 21
498.0
 31
0.0
  0
LINE
  8
0
 10
596.0
 20
498.0
 30
0.0
 11
596.0
 21
497.0
 31
0.0
  0
LINE
  8
0
 10
596.0
 20
497.0
 30
0.0
 11
503.0
 21
497.0
 31
0.0
  0
LINE
  8
0
 10
503.0
 20
497.0
 30
0.0
 11
503.0
 21
498.0
 31
0.0
  0
LINE
  8
0
 10
415.0
 20
497.0
 30
0.0
 11
491.0
 21
497.0
 31
0.0
  0
LINE
  8
0
 10
491.0
 20
497.0
 30
0.0
 11
491.0
 21
496.0
 31
0.0
  0
LINE
  8
0
 10
491.0
 20
496.0
 30
0.0
 11
415.0
 21
496.0
 31
0.0
  0
LINE
  8
0
 10
415.0
 20
496.0
 30
0.0
 11
415.0
 21
497.0
 31
0.0
  0
LINE
  8
0
 10
505.0
 20
497.0
 30
0.0
 11
597.0
 21
497.0
 31
0.0
  0
LINE
  8
0
 10
597.0
 20
497.0
 30
0.0
 11
597.0
 21
496.0
 31
0.0
  0
LINE
  8
0
 10
597.0
 20
496.0
 30
0.0
 11
505.0
 21
496.0
 31
0.0
  0
LINE
  8
0
 10
505.0
 20
496.0
 30
0.0
 11
505.0
 21
497.0
 31
0.0
  0
LINE
  8
0
 10
417.0
 20
496.0
 30
0.0
 11
491.0
 21
496.0
 31
0.0
  0
LINE
  8
0
 10
491.0
 20
496.0
 30
0.0
 11
491.0
 21
495.0
 31
0.0
  0
LINE
  8
0
 10
491.0
 20
495.0
 30
0.0
 11
417.0
 21
495.0
 31
0.0
  0
LINE
  8
0
 10
417.0
 20
495.0
 30
0.0
 11
417.0
 21
496.0
 31
0.0
  0
LINE
  8
0
 10
507.0
 20
496.0
 30
0.0
 11
599.0
 21
496.0
 31
0.0
  0
LINE
  8
0
 10
599.0
 20
496.0
 30
0.0
 11
599.0
 21
495.0
 31
0.0
  0
LINE
  8
0
 10
599.0
 20
495.0
 30
0.0
 11
507.0
 21
495.0
 31
0.0
  0
LINE
  8
0
 10
507.0
 20
495.0
 30
0.0
 11
507.0
 21
496.0
 31
0.0
  0
LINE
  8
0
 10
419.0
 20
495.0
 30
0.0
 11
492.0
 21
495.0
 31
0.0
  0
LINE
  8
0
 10
492.0
 20
495.0
 30
0.0
 11
492.0
 21
494.0
 31
0.0
  0
LINE
  8
0
 10
492.0
 20
494.0
 30
0.0
 11
419.0
 21
494.0
 31
0.0
  0
LINE
  8
0
 10
419.0
 20
494.0
 30
0.0
 11
419.0
 21
495.0
 31
0.0
  0
LINE
  8
0
 10
509.0
 20
495.0
 30
0.0
 11
600.0
 21
495.0
 31
0.0
  0
LINE
  8
0
 10
600.0
 20
495.0
 30
0.0
 11
600.0
 21
494.0
 31
0.0
  0
LINE
  8
0
 10
600.0
 20
494.0
 30
0.0
 11
509.0
 21
494.0
 31
0.0
  0
LINE
  8
0
 10
509.0
 20
494.0
 30
0.0
 11
509.0
 21
495.0
 31
0.0
  0
LINE
  8
0
 10
422.0
 20
494.0
 30
0.0
 11
492.0
 21
494.0
 31
0.0
  0
LINE
  8
0
 10
492.0
 20
494.0
 30
0.0
 11
492.0
 21
493.0
 31
0.0
  0
LINE
  8
0
 10
492.0
 20
493.0
 30
0.0
 11
422.0
 21
493.0
 31
0.0
  0
LINE
  8
0
 10
422.0
 20
493.0
 30
0.0
 11
422.0
 21
494.0
 31
0.0
  0
LINE
  8
0
 10
511.0
 20
494.0
 30
0.0
 11
602.0
 21
494.0
 31
0.0
  0
LINE
  8
0
 10
602.0
 20
494.0
 30
0.0
 11
602.0
 21
493.0
 31
0.0
  0
LINE
  8
0
 10
602.0
 20
493.0
 30
0.0
 11
511.0
 21
493.0
 31
0.0
  0
LINE
  8
0
 10
511.0
 20
493.0
 30
0.0
 11
511.0
 21
494.0
 31
0.0
  0
LINE
  8
0
 10
424.0
 20
493.0
 30
0.0
 11
492.0
 21
493.0
 31
0.0
  0
LINE
  8
0
 10
492.0
 20
493.0
 30
0.0
 11
492.0
 21
492.0
 31
0.0
  0
LINE
  8
0
 10
492.0
 20
492.0
 30
0.0
 11
424.0
 21
492.0
 31
0.0
  0
LINE
  8
0
 10
424.0
 20
492.0
 30
0.0
 11
424.0
 21
493.0
 31
0.0
  0
LINE
  8
0
 10
513.0
 20
493.0
 30
0.0
 11
603.0
 21
493.0
 31
0.0
  0
LINE
  8
0
 10
603.0
 20
493.0
 30
0.0
 11
603.0
 21
492.0
 31
0.0
  0
LINE
  8
0
 10
603.0
 20
492.0
 30
0.0
 11
513.0
 21
492.0
 31
0.0
  0
LINE
  8
0
 10
513.0
 20
492.0
 30
0.0
 11
513.0
 21
493.0
 31
0.0
  0
LINE
  8
0
 10
426.0
 20
492.0
 30
0.0
 11
492.0
 21
492.0
 31
0.0
  0
LINE
  8
0
 10
492.0
 20
492.0
 30
0.0
 11
492.0
 21
491.0
 31
0.0
  0
LINE
  8
0
 10
492.0
 20
491.0
 30
0.0
 11
426.0
 21
491.0
 31
0.0
  0
LINE
  8
0
 10
426.0
 20
491.0
 30
0.0
 11
426.0
 21
492.0
 31
0.0
  0
LINE
  8
0
 10
515.0
 20
492.0
 30
0.0
 11
605.0
 21
492.0
 31
0.0
  0
LINE
  8
0
 10
605.0
 20
492.0
 30
0.0
 11
605.0
 21
491.0
 31
0.0
  0
LINE
  8
0
 10
605.0
 20
491.0
 30
0.0
 11
515.0
 21
491.0
 31
0.0
  0
LINE
  8
0
 10
515.0
 20
491.0
 30
0.0
 11
515.0
 21
492.0
 31
0.0
  0
LINE
  8
0
 10
428.0
 20
491.0
 30
0.0
 11
493.0
 21
491.0
 31
0.0
  0
LINE
  8
0
 10
493.0
 20
491.0
 30
0.0
 11
493.0
 21
490.0
 31
0.0
  0
LINE
  8
0
 10
493.0
 20
490.0
 30
0.0
 11
428.0
 21
490.0
 31
0.0
  0
LINE
  8
0
 10
428.0
 20
490.0
 30
0.0
 11
428.0
 21
491.0
 31
0.0
  0
LINE
  8
0
 10
514.0
 20
491.0
 30
0.0
 11
606.0
 21
491.0
 31
0.0
  0
LINE
  8
0
 10
606.0
 20
491.0
 30
0.0
 11
606.0
 21
490.0
 31
0.0
  0
LINE
  8
0
 10
606.0
 20
490.0
 30
0.0
 11
514.0
 21
490.0
 31
0.0
  0
LINE
  8
0
 10
514.0
 20
490.0
 30
0.0
 11
514.0
 21
491.0
 31
0.0
  0
LINE
  8
0
 10
430.0
 20
490.0
 30
0.0
 11
493.0
 21
490.0
 31
0.0
  0
LINE
  8
0
 10
493.0
 20
490.0
 30
0.0
 11
493.0
 21
489.0
 31
0.0
  0
LINE
  8
0
 10
493.0
 20
489.0
 30
0.0
 11
430.0
 21
489.0
 31
0.0
  0
LINE
  8
0
 10
430.0
 20
489.0
 30
0.0
 11
430.0
 21
490.0
 31
0.0
  0
LINE
  8
0
 10
514.0
 20
490.0
 30
0.0
 11
608.0
 21
490.0
 31
0.0
  0
LINE
  8
0
 10
608.0
 20
490.0
 30
0.0
 11
608.0
 21
489.0
 31
0.0
  0
LINE
  8
0
 10
608.0
 20
489.0
 30
0.0
 11
514.0
 21
489.0
 31
0.0
  0
LINE
  8
0
 10
514.0
 20
489.0
 30
0.0
 11
514.0
 21
490.0
 31
0.0
  0
LINE
  8
0
 10
432.0
 20
489.0
 30
0.0
 11
493.0
 21
489.0
 31
0.0
  0
LINE
  8
0
 10
493.0
 20
489.0
 30
0.0
 11
493.0
 21
488.0
 31
0.0
  0
LINE
  8
0
 10
493.0
 20
488.0
 30
0.0
 11
432.0
 21
488.0
 31
0.0
  0
LINE
  8
0
 10
432.0
 20
488.0
 30
0.0
 11
432.0
 21
489.0
 31
0.0
  0
LINE
  8
0
 10
514.0
 20
489.0
 30
0.0
 11
610.0
 21
489.0
 31
0.0
  0
LINE
  8
0
 10
610.0
 20
489.0
 30
0.0
 11
610.0
 21
488.0
 31
0.0
  0
LINE
  8
0
 10
610.0
 20
488.0
 30
0.0
 11
514.0
 21
488.0
 31
0.0
  0
LINE
  8
0
 10
514.0
 20
488.0
 30
0.0
 11
514.0
 21
489.0
 31
0.0
  0
LINE
  8
0
 10
434.0
 20
488.0
 30
0.0
 11
493.0
 21
488.0
 31
0.0
  0
LINE
  8
0
 10
493.0
 20
488.0
 30
0.0
 11
493.0
 21
487.0
 31
0.0
  0
LINE
  8
0
 10
493.0
 20
487.0
 30
0.0
 11
434.0
 21
487.0
 31
0.0
  0
LINE
  8
0
 10
434.0
 20
487.0
 30
0.0
 11
434.0
 21
488.0
 31
0.0
  0
LINE
  8
0
 10
514.0
 20
488.0
 30
0.0
 11
611.0
 21
488.0
 31
0.0
  0
LINE
  8
0
 10
611.0
 20
488.0
 30
0.0
 11
611.0
 21
487.0
 31
0.0
  0
LINE
  8
0
 10
611.0
 20
487.0
 30
0.0
 11
514.0
 21
487.0
 31
0.0
  0
LINE
  8
0
 10
514.0
 20
487.0
 30
0.0
 11
514.0
 21
488.0
 31
0.0
  0
LINE
  8
0
 10
436.0
 20
487.0
 30
0.0
 11
493.0
 21
487.0
 31
0.0
  0
LINE
  8
0
 10
493.0
 20
487.0
 30
0.0
 11
493.0
 21
486.0
 31
0.0
  0
LINE
  8
0
 10
493.0
 20
486.0
 30
0.0
 11
436.0
 21
486.0
 31
0.0
  0
LINE
  8
0
 10
436.0
 20
486.0
 30
0.0
 11
436.0
 21
487.0
 31
0.0
  0
LINE
  8
0
 10
513.0
 20
487.0
 30
0.0
 11
613.0
 21
487.0
 31
0.0
  0
LINE
  8
0
 10
613.0
 20
487.0
 30
0.0
 11
613.0
 21
486.0
 31
0.0
  0
LINE
  8
0
 10
613.0
 20
486.0
 30
0.0
 11
513.0
 21
486.0
 31
0.0
  0
LINE
  8
0
 10
513.0
 20
486.0
 30
0.0
 11
513.0
 21
487.0
 31
0.0
  0
LINE
  8
0
 10
437.0
 20
486.0
 30
0.0
 11
493.0
 21
486.0
 31
0.0
  0
LINE
  8
0
 10
493.0
 20
486.0
 30
0.0
 11
493.0
 21
485.0
 31
0.0
  0
LINE
  8
0
 10
493.0
 20
485.0
 30
0.0
 11
437.0
 21
485.0
 31
0.0
  0
LINE
  8
0
 10
437.0
 20
485.0
 30
0.0
 11
437.0
 21
486.0
 31
0.0
  0
LINE
  8
0
 10
513.0
 20
486.0
 30
0.0
 11
615.0
 21
486.0
 31
0.0
  0
LINE
  8
0
 10
615.0
 20
486.0
 30
0.0
 11
615.0
 21
485.0
 31
0.0
  0
LINE
  8
0
 10
615.0
 20
485.0
 30
0.0
 11
513.0
 21
485.0
 31
0.0
  0
LINE
  8
0
 10
513.0
 20
485.0
 30
0.0
 11
513.0
 21
486.0
 31
0.0
  0
LINE
  8
0
 10
439.0
 20
485.0
 30
0.0
 11
494.0
 21
485.0
 31
0.0
  0
LINE
  8
0
 10
494.0
 20
485.0
 30
0.0
 11
494.0
 21
484.0
 31
0.0
  0
LINE
  8
0
 10
494.0
 20
484.0
 30
0.0
 11
439.0
 21
484.0
 31
0.0
  0
LINE
  8
0
 10
439.0
 20
484.0
 30
0.0
 11
439.0
 21
485.0
 31
0.0
  0
LINE
  8
0
 10
513.0
 20
485.0
 30
0.0
 11
562.0
 21
485.0
 31
0.0
  0
LINE
  8
0
 10
562.0
 20
485.0
 30
0.0
 11
562.0
 21
484.0
 31
0.0
  0
LINE
  8
0
 10
562.0
 20
484.0
 30
0.0
 11
513.0
 21
484.0
 31
0.0
  0
LINE
  8
0
 10
513.0
 20
484.0
 30
0.0
 11
513.0
 21
485.0
 31
0.0
  0
LINE
  8
0
 10
566.0
 20
485.0
 30
0.0
 11
617.0
 21
485.0
 31
0.0
  0
LINE
  8
0
 10
617.0
 20
485.0
 30
0.0
 11
617.0
 21
484.0
 31
0.0
  0
LINE
  8
0
 10
617.0
 20
484.0
 30
0.0
 11
566.0
 21
484.0
 31
0.0
  0
LINE
  8
0
 10
566.0
 20
484.0
 30
0.0
 11
566.0
 21
485.0
 31
0.0
  0
LINE
  8
0
 10
440.0
 20
484.0
 30
0.0
 11
494.0
 21
484.0
 31
0.0
  0
LINE
  8
0
 10
494.0
 20
484.0
 30
0.0
 11
494.0
 21
483.0
 31
0.0
  0
LINE
  8
0
 10
494.0
 20
483.0
 30
0.0
 11
440.0
 21
483.0
 31
0.0
  0
LINE
  8
0
 10
440.0
 20
483.0
 30
0.0
 11
440.0
 21
484.0
 31
0.0
  0
LINE
  8
0
 10
512.0
 20
484.0
 30
0.0
 11
560.0
 21
484.0
 31
0.0
  0
LINE
  8
0
 10
560.0
 20
484.0
 30
0.0
 11
560.0
 21
483.0
 31
0.0
  0
LINE
  8
0
 10
560.0
 20
483.0
 30
0.0
 11
512.0
 21
483.0
 31
0.0
  0
LINE
  8
0
 10
512.0
 20
483.0
 30
0.0
 11
512.0
 21
484.0
 31
0.0
  0
LINE
  8
0
 10
569.0
 20
484.0
 30
0.0
 11
619.0
 21
484.0
 31
0.0
  0
LINE
  8
0
 10
619.0
 20
484.0
 30
0.0
 11
619.0
 21
483.0
 31
0.0
  0
LINE
  8
0
 10
619.0
 20
483.0
 30
0.0
 11
569.0
 21
483.0
 31
0.0
  0
LINE
  8
0
 10
569.0
 20
483.0
 30
0.0
 11
569.0
 21
484.0
 31
0.0
  0
LINE
  8
0
 10
442.0
 20
483.0
 30
0.0
 11
494.0
 21
483.0
 31
0.0
  0
LINE
  8
0
 10
494.0
 20
483.0
 30
0.0
 11
494.0
 21
482.0
 31
0.0
  0
LINE
  8
0
 10
494.0
 20
482.0
 30
0.0
 11
442.0
 21
482.0
 31
0.0
  0
LINE
  8
0
 10
442.0
 20
482.0
 30
0.0
 11
442.0
 21
483.0
 31
0.0
  0
LINE
  8
0
 10
512.0
 20
483.0
 30
0.0
 11
557.0
 21
483.0
 31
0.0
  0
LINE
  8
0
 10
557.0
 20
483.0
 30
0.0
 11
557.0
 21
482.0
 31
0.0
  0
LINE
  8
0
 10
557.0
 20
482.0
 30
0.0
 11
512.0
 21
482.0
 31
0.0
  0
LINE
  8
0
 10
512.0
 20
482.0
 30
0.0
 11
512.0
 21
483.0
 31
0.0
  0
LINE
  8
0
 10
572.0
 20
483.0
 30
0.0
 11
621.0
 21
483.0
 31
0.0
  0
LINE
  8
0
 10
621.0
 20
483.0
 30
0.0
 11
621.0
 21
482.0
 31
0.0
  0
LINE
  8
0
 10
621.0
 20
482.0
 30
0.0
 11
572.0
 21
482.0
 31
0.0
  0
LINE
  8
0
 10
572.0
 20
482.0
 30
0.0
 11
572.0
 21
483.0
 31
0.0
  0
LINE
  8
0
 10
443.0
 20
482.0
 30
0.0
 11
494.0
 21
482.0
 31
0.0
  0
LINE
  8
0
 10
494.0
 20
482.0
 30
0.0
 11
494.0
 21
481.0
 31
0.0
  0
LINE
  8
0
 10
494.0
 20
481.0
 30
0.0
 11
443.0
 21
481.0
 31
0.0
  0
LINE
  8
0
 10
443.0
 20
481.0
 30
0.0
 11
443.0
 21
482.0
 31
0.0
  0
LINE
  8
0
 10
512.0
 20
482.0
 30
0.0
 11
554.0
 21
482.0
 31
0.0
  0
LINE
  8
0
 10
554.0
 20
482.0
 30
0.0
 11
554.0
 21
481.0
 31
0.0
  0
LINE
  8
0
 10
554.0
 20
481.0
 30
0.0
 11
512.0
 21
481.0
 31
0.0
  0
LINE
  8
0
 10
512.0
 20
481.0
 30
0.0
 11
512.0
 21
482.0
 31
0.0
  0
LINE
  8
0
 10
575.0
 20
482.0
 30
0.0
 11
622.0
 21
482.0
 31
0.0
  0
LINE
  8
0
 10
622.0
 20
482.0
 30
0.0
 11
622.0
 21
481.0
 31
0.0
  0
LINE
  8
0
 10
622.0
 20
481.0
 30
0.0
 11
575.0
 21
481.0
 31
0.0
  0
LINE
  8
0
 10
575.0
 20
481.0
 30
0.0
 11
575.0
 21
482.0
 31
0.0
  0
LINE
  8
0
 10
444.0
 20
481.0
 30
0.0
 11
494.0
 21
481.0
 31
0.0
  0
LINE
  8
0
 10
494.0
 20
481.0
 30
0.0
 11
494.0
 21
480.0
 31
0.0
  0
LINE
  8
0
 10
494.0
 20
480.0
 30
0.0
 11
444.0
 21
480.0
 31
0.0
  0
LINE
  8
0
 10
444.0
 20
480.0
 30
0.0
 11
444.0
 21
481.0
 31
0.0
  0
LINE
  8
0
 10
511.0
 20
481.0
 30
0.0
 11
552.0
 21
481.0
 31
0.0
  0
LINE
  8
0
 10
552.0
 20
481.0
 30
0.0
 11
552.0
 21
480.0
 31
0.0
  0
LINE
  8
0
 10
552.0
 20
480.0
 30
0.0
 11
511.0
 21
480.0
 31
0.0
  0
LINE
  8
0
 10
511.0
 20
480.0
 30
0.0
 11
511.0
 21
481.0
 31
0.0
  0
LINE
  8
0
 10
578.0
 20
481.0
 30
0.0
 11
624.0
 21
481.0
 31
0.0
  0
LINE
  8
0
 10
624.0
 20
481.0
 30
0.0
 11
624.0
 21
480.0
 31
0.0
  0
LINE
  8
0
 10
624.0
 20
480.0
 30
0.0
 11
578.0
 21
480.0
 31
0.0
  0
LINE
  8
0
 10
578.0
 20
480.0
 30
0.0
 11
578.0
 21
481.0
 31
0.0
  0
LINE
  8
0
 10
446.0
 20
480.0
 30
0.0
 11
494.0
 21
480.0
 31
0.0
  0
LINE
  8
0
 10
494.0
 20
480.0
 30
0.0
 11
494.0
 21
479.0
 31
0.0
  0
LINE
  8
0
 10
494.0
 20
479.0
 30
0.0
 11
446.0
 21
479.0
 31
0.0
  0
LINE
  8
0
 10
446.0
 20
479.0
 30
0.0
 11
446.0
 21
480.0
 31
0.0
  0
LINE
  8
0
 10
511.0
 20
480.0
 30
0.0
 11
550.0
 21
480.0
 31
0.0
  0
LINE
  8
0
 10
550.0
 20
480.0
 30
0.0
 11
550.0
 21
479.0
 31
0.0
  0
LINE
  8
0
 10
550.0
 20
479.0
 30
0.0
 11
511.0
 21
479.0
 31
0.0
  0
LINE
  8
0
 10
511.0
 20
479.0
 30
0.0
 11
511.0
 21
480.0
 31
0.0
  0
LINE
  8
0
 10
581.0
 20
480.0
 30
0.0
 11
626.0
 21
480.0
 31
0.0
  0
LINE
  8
0
 10
626.0
 20
480.0
 30
0.0
 11
626.0
 21
479.0
 31
0.0
  0
LINE
  8
0
 10
626.0
 20
479.0
 30
0.0
 11
581.0
 21
479.0
 31
0.0
  0
LINE
  8
0
 10
581.0
 20
479.0
 30
0.0
 11
581.0
 21
480.0
 31
0.0
  0
LINE
  8
0
 10
447.0
 20
479.0
 30
0.0
 11
495.0
 21
479.0
 31
0.0
  0
LINE
  8
0
 10
495.0
 20
479.0
 30
0.0
 11
495.0
 21
478.0
 31
0.0
  0
LINE
  8
0
 10
495.0
 20
478.0
 30
0.0
 11
447.0
 21
478.0
 31
0.0
  0
LINE
  8
0
 10
447.0
 20
478.0
 30
0.0
 11
447.0
 21
479.0
 31
0.0
  0
LINE
  8
0
 10
510.0
 20
479.0
 30
0.0
 11
547.0
 21
479.0
 31
0.0
  0
LINE
  8
0
 10
547.0
 20
479.0
 30
0.0
 11
547.0
 21
478.0
 31
0.0
  0
LINE
  8
0
 10
547.0
 20
478.0
 30
0.0
 11
510.0
 21
478.0
 31
0.0
  0
LINE
  8
0
 10
510.0
 20
478.0
 30
0.0
 11
510.0
 21
479.0
 31
0.0
  0
LINE
  8
0
 10
583.0
 20
479.0
 30
0.0
 11
628.0
 21
479.0
 31
0.0
  0
LINE
  8
0
 10
628.0
 20
479.0
 30
0.0
 11
628.0
 21
478.0
 31
0.0
  0
LINE
  8
0
 10
628.0
 20
478.0
 30
0.0
 11
583.0
 21
478.0
 31
0.0
  0
LINE
  8
0
 10
583.0
 20
478.0
 30
0.0
 11
583.0
 21
479.0
 31
0.0
  0
LINE
  8
0
 10
448.0
 20
478.0
 30
0.0
 11
495.0
 21
478.0
 31
0.0
  0
LINE
  8
0
 10
495.0
 20
478.0
 30
0.0
 11
495.0
 21
477.0
 31
0.0
  0
LINE
  8
0
 10
495.0
 20
477.0
 30
0.0
 11
448.0
 21
477.0
 31
0.0
  0
LINE
  8
0
 10
448.0
 20
477.0
 30
0.0
 11
448.0
 21
478.0
 31
0.0
  0
LINE
  8
0
 10
510.0
 20
478.0
 30
0.0
 11
545.0
 21
478.0
 31
0.0
  0
LINE
  8
0
 10
545.0
 20
478.0
 30
0.0
 11
545.0
 21
477.0
 31
0.0
  0
LINE
  8
0
 10
545.0
 20
477.0
 30
0.0
 11
510.0
 21
477.0
 31
0.0
  0
LINE
  8
0
 10
510.0
 20
477.0
 30
0.0
 11
510.0
 21
478.0
 31
0.0
  0
LINE
  8
0
 10
586.0
 20
478.0
 30
0.0
 11
630.0
 21
478.0
 31
0.0
  0
LINE
  8
0
 10
630.0
 20
478.0
 30
0.0
 11
630.0
 21
477.0
 31
0.0
  0
LINE
  8
0
 10
630.0
 20
477.0
 30
0.0
 11
586.0
 21
477.0
 31
0.0
  0
LINE
  8
0
 10
586.0
 20
477.0
 30
0.0
 11
586.0
 21
478.0
 31
0.0
  0
LINE
  8
0
 10
448.0
 20
477.0
 30
0.0
 11
495.0
 21
477.0
 31
0.0
  0
LINE
  8
0
 10
495.0
 20
477.0
 30
0.0
 11
495.0
 21
476.0
 31
0.0
  0
LINE
  8
0
 10
495.0
 20
476.0
 30
0.0
 11
448.0
 21
476.0
 31
0.0
  0
LINE
  8
0
 10
448.0
 20
476.0
 30
0.0
 11
448.0
 21
477.0
 31
0.0
  0
LINE
  8
0
 10
510.0
 20
477.0
 30
0.0
 11
544.0
 21
477.0
 31
0.0
  0
LINE
  8
0
 10
544.0
 20
477.0
 30
0.0
 11
544.0
 21
476.0
 31
0.0
  0
LINE
  8
0
 10
544.0
 20
476.0
 30
0.0
 11
510.0
 21
476.0
 31
0.0
  0
LINE
  8
0
 10
510.0
 20
476.0
 30
0.0
 11
510.0
 21
477.0
 31
0.0
  0
LINE
  8
0
 10
589.0
 20
477.0
 30
0.0
 11
632.0
 21
477.0
 31
0.0
  0
LINE
  8
0
 10
632.0
 20
477.0
 30
0.0
 11
632.0
 21
476.0
 31
0.0
  0
LINE
  8
0
 10
632.0
 20
476.0
 30
0.0
 11
589.0
 21
476.0
 31
0.0
  0
LINE
  8
0
 10
589.0
 20
476.0
 30
0.0
 11
589.0
 21
477.0
 31
0.0
  0
LINE
  8
0
 10
449.0
 20
476.0
 30
0.0
 11
495.0
 21
476.0
 31
0.0
  0
LINE
  8
0
 10
495.0
 20
476.0
 30
0.0
 11
495.0
 21
475.0
 31
0.0
  0
LINE
  8
0
 10
495.0
 20
475.0
 30
0.0
 11
449.0
 21
475.0
 31
0.0
  0
LINE
  8
0
 10
449.0
 20
475.0
 30
0.0
 11
449.0
 21
476.0
 31
0.0
  0
LINE
  8
0
 10
509.0
 20
476.0
 30
0.0
 11
542.0
 21
476.0
 31
0.0
  0
LINE
  8
0
 10
542.0
 20
476.0
 30
0.0
 11
542.0
 21
475.0
 31
0.0
  0
LINE
  8
0
 10
542.0
 20
475.0
 30
0.0
 11
509.0
 21
475.0
 31
0.0
  0
LINE
  8
0
 10
509.0
 20
475.0
 30
0.0
 11
509.0
 21
476.0
 31
0.0
  0
LINE
  8
0
 10
592.0
 20
476.0
 30
0.0
 11
633.0
 21
476.0
 31
0.0
  0
LINE
  8
0
 10
633.0
 20
476.0
 30
0.0
 11
633.0
 21
475.0
 31
0.0
  0
LINE
  8
0
 10
633.0
 20
475.0
 30
0.0
 11
592.0
 21
475.0
 31
0.0
  0
LINE
  8
0
 10
592.0
 20
475.0
 30
0.0
 11
592.0
 21
476.0
 31
0.0
  0
LINE
  8
0
 10
450.0
 20
475.0
 30
0.0
 11
496.0
 21
475.0
 31
0.0
  0
LINE
  8
0
 10
496.0
 20
475.0
 30
0.0
 11
496.0
 21
474.0
 31
0.0
  0
LINE
  8
0
 10
496.0
 20
474.0
 30
0.0
 11
450.0
 21
474.0
 31
0.0
  0
LINE
  8
0
 10
450.0
 20
474.0
 30
0.0
 11
450.0
 21
475.0
 31
0.0
  0
LINE
  8
0
 10
509.0
 20
475.0
 30
0.0
 11
542.0
 21
475.0
 31
0.0
  0
LINE
  8
0
 10
542.0
 20
475.0
 30
0.0
 11
542.0
 21
474.0
 31
0.0
  0
LINE
  8
0
 10
542.0
 20
474.0
 30
0.0
 11
509.0
 21
474.0
 31
0.0
  0
LINE
  8
0
 10
509.0
 20
474.0
 30
0.0
 11
509.0
 21
475.0
 31
0.0
  0
LINE
  8
0
 10
595.0
 20
475.0
 30
0.0
 11
634.0
 21
475.0
 31
0.0
  0
LINE
  8
0
 10
634.0
 20
475.0
 30
0.0
 11
634.0
 21
474.0
 31
0.0
  0
LINE
  8
0
 10
634.0
 20
474.0
 30
0.0
 11
595.0
 21
474.0
 31
0.0
  0
LINE
  8
0
 10
595.0
 20
474.0
 30
0.0
 11
595.0
 21
475.0
 31
0.0
  0
LINE
  8
0
 10
450.0
 20
474.0
 30
0.0
 11
496.0
 21
474.0
 31
0.0
  0
LINE
  8
0
 10
496.0
 20
474.0
 30
0.0
 11
496.0
 21
473.0
 31
0.0
  0
LINE
  8
0
 10
496.0
 20
473.0
 30
0.0
 11
450.0
 21
473.0
 31
0.0
  0
LINE
  8
0
 10
450.0
 20
473.0
 30
0.0
 11
450.0
 21
474.0
 31
0.0
  0
LINE
  8
0
 10
508.0
 20
474.0
 30
0.0
 11
541.0
 21
474.0
 31
0.0
  0
LINE
  8
0
 10
541.0
 20
474.0
 30
0.0
 11
541.0
 21
473.0
 31
0.0
  0
LINE
  8
0
 10
541.0
 20
473.0
 30
0.0
 11
508.0
 21
473.0
 31
0.0
  0
LINE
  8
0
 10
508.0
 20
473.0
 30
0.0
 11
508.0
 21
474.0
 31
0.0
  0
LINE
  8
0
 10
598.0
 20
474.0
 30
0.0
 11
635.0
 21
474.0
 31
0.0
  0
LINE
  8
0
 10
635.0
 20
474.0
 30
0.0
 11
635.0
 21
473.0
 31
0.0
  0
LINE
  8
0
 10
635.0
 20
473.0
 30
0.0
 11
598.0
 21
473.0
 31
0.0
  0
LINE
  8
0
 10
598.0
 20
473.0
 30
0.0
 11
598.0
 21
474.0
 31
0.0
  0
LINE
  8
0
 10
451.0
 20
473.0
 30
0.0
 11
496.0
 21
473.0
 31
0.0
  0
LINE
  8
0
 10
496.0
 20
473.0
 30
0.0
 11
496.0
 21
472.0
 31
0.0
  0
LINE
  8
0
 10
496.0
 20
472.0
 30
0.0
 11
451.0
 21
472.0
 31
0.0
  0
LINE
  8
0
 10
451.0
 20
472.0
 30
0.0
 11
451.0
 21
473.0
 31
0.0
  0
LINE
  8
0
 10
507.0
 20
473.0
 30
0.0
 11
540.0
 21
473.0
 31
0.0
  0
LINE
  8
0
 10
540.0
 20
473.0
 30
0.0
 11
540.0
 21
472.0
 31
0.0
  0
LINE
  8
0
 10
540.0
 20
472.0
 30
0.0
 11
507.0
 21
472.0
 31
0.0
  0
LINE
  8
0
 10
507.0
 20
472.0
 30
0.0
 11
507.0
 21
473.0
 31
0.0
  0
LINE
  8
0
 10
601.0
 20
473.0
 30
0.0
 11
635.0
 21
473.0
 31
0.0
  0
LINE
  8
0
 10
635.0
 20
473.0
 30
0.0
 11
635.0
 21
472.0
 31
0.0
  0
LINE
  8
0
 10
635.0
 20
472.0
 30
0.0
 11
601.0
 21
472.0
 31
0.0
  0
LINE
  8
0
 10
601.0
 20
472.0
 30
0.0
 11
601.0
 21
473.0
 31
0.0
  0
LINE
  8
0
 10
451.0
 20
472.0
 30
0.0
 11
496.0
 21
472.0
 31
0.0
  0
LINE
  8
0
 10
496.0
 20
472.0
 30
0.0
 11
496.0
 21
471.0
 31
0.0
  0
LINE
  8
0
 10
496.0
 20
471.0
 30
0.0
 11
451.0
 21
471.0
 31
0.0
  0
LINE
  8
0
 10
451.0
 20
471.0
 30
0.0
 11
451.0
 21
472.0
 31
0.0
  0
LINE
  8
0
 10
507.0
 20
472.0
 30
0.0
 11
539.0
 21
472.0
 31
0.0
  0
LINE
  8
0
 10
539.0
 20
472.0
 30
0.0
 11
539.0
 21
471.0
 31
0.0
  0
LINE
  8
0
 10
539.0
 20
471.0
 30
0.0
 11
507.0
 21
471.0
 31
0.0
  0
LINE
  8
0
 10
507.0
 20
471.0
 30
0.0
 11
507.0
 21
472.0
 31
0.0
  0
LINE
  8
0
 10
604.0
 20
472.0
 30
0.0
 11
636.0
 21
472.0
 31
0.0
  0
LINE
  8
0
 10
636.0
 20
472.0
 30
0.0
 11
636.0
 21
471.0
 31
0.0
  0
LINE
  8
0
 10
636.0
 20
471.0
 30
0.0
 11
604.0
 21
471.0
 31
0.0
  0
LINE
  8
0
 10
604.0
 20
471.0
 30
0.0
 11
604.0
 21
472.0
 31
0.0
  0
LINE
  8
0
 10
451.0
 20
471.0
 30
0.0
 11
497.0
 21
471.0
 31
0.0
  0
LINE
  8
0
 10
497.0
 20
471.0
 30
0.0
 11
497.0
 21
470.0
 31
0.0
  0
LINE
  8
0
 10
497.0
 20
470.0
 30
0.0
 11
451.0
 21
470.0
 31
0.0
  0
LINE
  8
0
 10
451.0
 20
470.0
 30
0.0
 11
451.0
 21
471.0
 31
0.0
  0
LINE
  8
0
 10
506.0
 20
471.0
 30
0.0
 11
538.0
 21
471.0
 31
0.0
  0
LINE
  8
0
 10
538.0
 20
471.0
 30
0.0
 11
538.0
 21
470.0
 31
0.0
  0
LINE
  8
0
 10
538.0
 20
470.0
 30
0.0
 11
506.0
 21
470.0
 31
0.0
  0
LINE
  8
0
 10
506.0
 20
470.0
 30
0.0
 11
506.0
 21
471.0
 31
0.0
  0
LINE
  8
0
 10
606.0
 20
471.0
 30
0.0
 11
636.0
 21
471.0
 31
0.0
  0
LINE
  8
0
 10
636.0
 20
471.0
 30
0.0
 11
636.0
 21
470.0
 31
0.0
  0
LINE
  8
0
 10
636.0
 20
470.0
 30
0.0
 11
606.0
 21
470.0
 31
0.0
  0
LINE
  8
0
 10
606.0
 20
470.0
 30
0.0
 11
606.0
 21
471.0
 31
0.0
  0
LINE
  8
0
 10
452.0
 20
470.0
 30
0.0
 11
497.0
 21
470.0
 31
0.0
  0
LINE
  8
0
 10
497.0
 20
470.0
 30
0.0
 11
497.0
 21
469.0
 31
0.0
  0
LINE
  8
0
 10
497.0
 20
469.0
 30
0.0
 11
452.0
 21
469.0
 31
0.0
  0
LINE
  8
0
 10
452.0
 20
469.0
 30
0.0
 11
452.0
 21
470.0
 31
0.0
  0
LINE
  8
0
 10
506.0
 20
470.0
 30
0.0
 11
538.0
 21
470.0
 31
0.0
  0
LINE
  8
0
 10
538.0
 20
470.0
 30
0.0
 11
538.0
 21
469.0
 31
0.0
  0
LINE
  8
0
 10
538.0
 20
469.0
 30
0.0
 11
506.0
 21
469.0
 31
0.0
  0
LINE
  8
0
 10
506.0
 20
469.0
 30
0.0
 11
506.0
 21
470.0
 31
0.0
  0
LINE
  8
0
 10
609.0
 20
470.0
 30
0.0
 11
637.0
 21
470.0
 31
0.0
  0
LINE
  8
0
 10
637.0
 20
470.0
 30
0.0
 11
637.0
 21
469.0
 31
0.0
  0
LINE
  8
0
 10
637.0
 20
469.0
 30
0.0
 11
609.0
 21
469.0
 31
0.0
  0
LINE
  8
0
 10
609.0
 20
469.0
 30
0.0
 11
609.0
 21
470.0
 31
0.0
  0
LINE
  8
0
 10
452.0
 20
469.0
 30
0.0
 11
497.0
 21
469.0
 31
0.0
  0
LINE
  8
0
 10
497.0
 20
469.0
 30
0.0
 11
497.0
 21
468.0
 31
0.0
  0
LINE
  8
0
 10
497.0
 20
468.0
 30
0.0
 11
452.0
 21
468.0
 31
0.0
  0
LINE
  8
0
 10
452.0
 20
468.0
 30
0.0
 11
452.0
 21
469.0
 31
0.0
  0
LINE
  8
0
 10
505.0
 20
469.0
 30
0.0
 11
537.0
 21
469.0
 31
0.0
  0
LINE
  8
0
 10
537.0
 20
469.0
 30
0.0
 11
537.0
 21
468.0
 31
0.0
  0
LINE
  8
0
 10
537.0
 20
468.0
 30
0.0
 11
505.0
 21
468.0
 31
0.0
  0
LINE
  8
0
 10
505.0
 20
468.0
 30
0.0
 11
505.0
 21
469.0
 31
0.0
  0
LINE
  8
0
 10
612.0
 20
469.0
 30
0.0
 11
637.0
 21
469.0
 31
0.0
  0
LINE
  8
0
 10
637.0
 20
469.0
 30
0.0
 11
637.0
 21
468.0
 31
0.0
  0
LINE
  8
0
 10
637.0
 20
468.0
 30
0.0
 11
612.0
 21
468.0
 31
0.0
  0
LINE
  8
0
 10
612.0
 20
468.0
 30
0.0
 11
612.0
 21
469.0
 31
0.0
  0
LINE
  8
0
 10
452.0
 20
468.0
 30
0.0
 11
497.0
 21
468.0
 31
0.0
  0
LINE
  8
0
 10
497.0
 20
468.0
 30
0.0
 11
497.0
 21
467.0
 31
0.0
  0
LINE
  8
0
 10
497.0
 20
467.0
 30
0.0
 11
452.0
 21
467.0
 31
0.0
  0
LINE
  8
0
 10
452.0
 20
467.0
 30
0.0
 11
452.0
 21
468.0
 31
0.0
  0
LINE
  8
0
 10
505.0
 20
468.0
 30
0.0
 11
536.0
 21
468.0
 31
0.0
  0
LINE
  8
0
 10
536.0
 20
468.0
 30
0.0
 11
536.0
 21
467.0
 31
0.0
  0
LINE
  8
0
 10
536.0
 20
467.0
 30
0.0
 11
505.0
 21
467.0
 31
0.0
  0
LINE
  8
0
 10
505.0
 20
467.0
 30
0.0
 11
505.0
 21
468.0
 31
0.0
  0
LINE
  8
0
 10
614.0
 20
468.0
 30
0.0
 11
637.0
 21
468.0
 31
0.0
  0
LINE
  8
0
 10
637.0
 20
468.0
 30
0.0
 11
637.0
 21
467.0
 31
0.0
  0
LINE
  8
0
 10
637.0
 20
467.0
 30
0.0
 11
614.0
 21
467.0
 31
0.0
  0
LINE
  8
0
 10
614.0
 20
467.0
 30
0.0
 11
614.0
 21
468.0
 31
0.0
  0
LINE
  8
0
 10
452.0
 20
467.0
 30
0.0
 11
498.0
 21
467.0
 31
0.0
  0
LINE
  8
0
 10
498.0
 20
467.0
 30
0.0
 11
498.0
 21
466.0
 31
0.0
  0
LINE
  8
0
 10
498.0
 20
466.0
 30
0.0
 11
452.0
 21
466.0
 31
0.0
  0
LINE
  8
0
 10
452.0
 20
466.0
 30
0.0
 11
452.0
 21
467.0
 31
0.0
  0
LINE
  8
0
 10
504.0
 20
467.0
 30
0.0
 11
535.0
 21
467.0
 31
0.0
  0
LINE
  8
0
 10
535.0
 20
467.0
 30
0.0
 11
535.0
 21
466.0
 31
0.0
  0
LINE
  8
0
 10
535.0
 20
466.0
 30
0.0
 11
504.0
 21
466.0
 31
0.0
  0
LINE
  8
0
 10
504.0
 20
466.0
 30
0.0
 11
504.0
 21
467.0
 31
0.0
  0
LINE
  8
0
 10
616.0
 20
467.0
 30
0.0
 11
637.0
 21
467.0
 31
0.0
  0
LINE
  8
0
 10
637.0
 20
467.0
 30
0.0
 11
637.0
 21
466.0
 31
0.0
  0
LINE
  8
0
 10
637.0
 20
466.0
 30
0.0
 11
616.0
 21
466.0
 31
0.0
  0
LINE
  8
0
 10
616.0
 20
466.0
 30
0.0
 11
616.0
 21
467.0
 31
0.0
  0
LINE
  8
0
 10
452.0
 20
466.0
 30
0.0
 11
498.0
 21
466.0
 31
0.0
  0
LINE
  8
0
 10
498.0
 20
466.0
 30
0.0
 11
498.0
 21
465.0
 31
0.0
  0
LINE
  8
0
 10
498.0
 20
465.0
 30
0.0
 11
452.0
 21
465.0
 31
0.0
  0
LINE
  8
0
 10
452.0
 20
465.0
 30
0.0
 11
452.0
 21
466.0
 31
0.0
  0
LINE
  8
0
 10
503.0
 20
466.0
 30
0.0
 11
534.0
 21
466.0
 31
0.0
  0
LINE
  8
0
 10
534.0
 20
466.0
 30
0.0
 11
534.0
 21
465.0
 31
0.0
  0
LINE
  8
0
 10
534.0
 20
465.0
 30
0.0
 11
503.0
 21
465.0
 31
0.0
  0
LINE
  8
0
 10
503.0
 20
465.0
 30
0.0
 11
503.0
 21
466.0
 31
0.0
  0
LINE
  8
0
 10
618.0
 20
466.0
 30
0.0
 11
637.0
 21
466.0
 31
0.0
  0
LINE
  8
0
 10
637.0
 20
466.0
 30
0.0
 11
637.0
 21
465.0
 31
0.0
  0
LINE
  8
0
 10
637.0
 20
465.0
 30
0.0
 11
618.0
 21
465.0
 31
0.0
  0
LINE
  8
0
 10
618.0
 20
465.0
 30
0.0
 11
618.0
 21
466.0
 31
0.0
  0
LINE
  8
0
 10
452.0
 20
465.0
 30
0.0
 11
498.0
 21
465.0
 31
0.0
  0
LINE
  8
0
 10
498.0
 20
465.0
 30
0.0
 11
498.0
 21
464.0
 31
0.0
  0
LINE
  8
0
 10
498.0
 20
464.0
 30
0.0
 11
452.0
 21
464.0
 31
0.0
  0
LINE
  8
0
 10
452.0
 20
464.0
 30
0.0
 11
452.0
 21
465.0
 31
0.0
  0
LINE
  8
0
 10
503.0
 20
465.0
 30
0.0
 11
533.0
 21
465.0
 31
0.0
  0
LINE
  8
0
 10
533.0
 20
465.0
 30
0.0
 11
533.0
 21
464.0
 31
0.0
  0
LINE
  8
0
 10
533.0
 20
464.0
 30
0.0
 11
503.0
 21
464.0
 31
0.0
  0
LINE
  8
0
 10
503.0
 20
464.0
 30
0.0
 11
503.0
 21
465.0
 31
0.0
  0
LINE
  8
0
 10
618.0
 20
465.0
 30
0.0
 11
637.0
 21
465.0
 31
0.0
  0
LINE
  8
0
 10
637.0
 20
465.0
 30
0.0
 11
637.0
 21
464.0
 31
0.0
  0
LINE
  8
0
 10
637.0
 20
464.0
 30
0.0
 11
618.0
 21
464.0
 31
0.0
  0
LINE
  8
0
 10
618.0
 20
464.0
 30
0.0
 11
618.0
 21
465.0
 31
0.0
  0
LINE
  8
0
 10
452.0
 20
464.0
 30
0.0
 11
499.0
 21
464.0
 31
0.0
  0
LINE
  8
0
 10
499.0
 20
464.0
 30
0.0
 11
499.0
 21
463.0
 31
0.0
  0
LINE
  8
0
 10
499.0
 20
463.0
 30
0.0
 11
452.0
 21
463.0
 31
0.0
  0
LINE
  8
0
 10
452.0
 20
463.0
 30
0.0
 11
452.0
 21
464.0
 31
0.0
  0
LINE
  8
0
 10
502.0
 20
464.0
 30
0.0
 11
532.0
 21
464.0
 31
0.0
  0
LINE
  8
0
 10
532.0
 20
464.0
 30
0.0
 11
532.0
 21
463.0
 31
0.0
  0
LINE
  8
0
 10
532.0
 20
463.0
 30
0.0
 11
502.0
 21
463.0
 31
0.0
  0
LINE
  8
0
 10
502.0
 20
463.0
 30
0.0
 11
502.0
 21
464.0
 31
0.0
  0
LINE
  8
0
 10
618.0
 20
464.0
 30
0.0
 11
636.0
 21
464.0
 31
0.0
  0
LINE
  8
0
 10
636.0
 20
464.0
 30
0.0
 11
636.0
 21
463.0
 31
0.0
  0
LINE
  8
0
 10
636.0
 20
463.0
 30
0.0
 11
618.0
 21
463.0
 31
0.0
  0
LINE
  8
0
 10
618.0
 20
463.0
 30
0.0
 11
618.0
 21
464.0
 31
0.0
  0
LINE
  8
0
 10
452.0
 20
463.0
 30
0.0
 11
499.0
 21
463.0
 31
0.0
  0
LINE
  8
0
 10
499.0
 20
463.0
 30
0.0
 11
499.0
 21
462.0
 31
0.0
  0
LINE
  8
0
 10
499.0
 20
462.0
 30
0.0
 11
452.0
 21
462.0
 31
0.0
  0
LINE
  8
0
 10
452.0
 20
462.0
 30
0.0
 11
452.0
 21
463.0
 31
0.0
  0
LINE
  8
0
 10
502.0
 20
463.0
 30
0.0
 11
531.0
 21
463.0
 31
0.0
  0
LINE
  8
0
 10
531.0
 20
463.0
 30
0.0
 11
531.0
 21
462.0
 31
0.0
  0
LINE
  8
0
 10
531.0
 20
462.0
 30
0.0
 11
502.0
 21
462.0
 31
0.0
  0
LINE
  8
0
 10
502.0
 20
462.0
 30
0.0
 11
502.0
 21
463.0
 31
0.0
  0
LINE
  8
0
 10
617.0
 20
463.0
 30
0.0
 11
636.0
 21
463.0
 31
0.0
  0
LINE
  8
0
 10
636.0
 20
463.0
 30
0.0
 11
636.0
 21
462.0
 31
0.0
  0
LINE
  8
0
 10
636.0
 20
462.0
 30
0.0
 11
617.0
 21
462.0
 31
0.0
  0
LINE
  8
0
 10
617.0
 20
462.0
 30
0.0
 11
617.0
 21
463.0
 31
0.0
  0
LINE
  8
0
 10
452.0
 20
462.0
 30
0.0
 11
499.0
 21
462.0
 31
0.0
  0
LINE
  8
0
 10
499.0
 20
462.0
 30
0.0
 11
499.0
 21
461.0
 31
0.0
  0
LINE
  8
0
 10
499.0
 20
461.0
 30
0.0
 11
452.0
 21
461.0
 31
0.0
  0
LINE
  8
0
 10
452.0
 20
461.0
 30
0.0
 11
452.0
 21
462.0
 31
0.0
  0
LINE
  8
0
 10
501.0
 20
462.0
 30
0.0
 11
530.0
 21
462.0
 31
0.0
  0
LINE
  8
0
 10
530.0
 20
462.0
 30
0.0
 11
530.0
 21
461.0
 31
0.0
  0
LINE
  8
0
 10
530.0
 20
461.0
 30
0.0
 11
501.0
 21
461.0
 31
0.0
  0
LINE
  8
0
 10
501.0
 20
461.0
 30
0.0
 11
501.0
 21
462.0
 31
0.0
  0
LINE
  8
0
 10
616.0
 20
462.0
 30
0.0
 11
636.0
 21
462.0
 31
0.0
  0
LINE
  8
0
 10
636.0
 20
462.0
 30
0.0
 11
636.0
 21
461.0
 31
0.0
  0
LINE
  8
0
 10
636.0
 20
461.0
 30
0.0
 11
616.0
 21
461.0
 31
0.0
  0
LINE
  8
0
 10
616.0
 20
461.0
 30
0.0
 11
616.0
 21
462.0
 31
0.0
  0
LINE
  8
0
 10
452.0
 20
461.0
 30
0.0
 11
500.0
 21
461.0
 31
0.0
  0
LINE
  8
0
 10
500.0
 20
461.0
 30
0.0
 11
500.0
 21
460.0
 31
0.0
  0
LINE
  8
0
 10
500.0
 20
460.0
 30
0.0
 11
452.0
 21
460.0
 31
0.0
  0
LINE
  8
0
 10
452.0
 20
460.0
 30
0.0
 11
452.0
 21
461.0
 31
0.0
  0
LINE
  8
0
 10
501.0
 20
461.0
 30
0.0
 11
529.0
 21
461.0
 31
0.0
  0
LINE
  8
0
 10
529.0
 20
461.0
 30
0.0
 11
529.0
 21
460.0
 31
0.0
  0
LINE
  8
0
 10
529.0
 20
460.0
 30
0.0
 11
501.0
 21
460.0
 31
0.0
  0
LINE
  8
0
 10
501.0
 20
460.0
 30
0.0
 11
501.0
 21
461.0
 31
0.0
  0
LINE
  8
0
 10
614.0
 20
461.0
 30
0.0
 11
636.0
 21
461.0
 31
0.0
  0
LINE
  8
0
 10
636.0
 20
461.0
 30
0.0
 11
636.0
 21
460.0
 31
0.0
  0
LINE
  8
0
 10
636.0
 20
460.0
 30
0.0
 11
614.0
 21
460.0
 31
0.0
  0
LINE
  8
0
 10
614.0
 20
460.0
 30
0.0
 11
614.0
 21
461.0
 31
0.0
  0
LINE
  8
0
 10
452.0
 20
460.0
 30
0.0
 11
528.0
 21
460.0
 31
0.0
  0
LINE
  8
0
 10
528.0
 20
460.0
 30
0.0
 11
528.0
 21
459.0
 31
0.0
  0
LINE
  8
0
 10
528.0
 20
459.0
 30
0.0
 11
452.0
 21
459.0
 31
0.0
  0
LINE
  8
0
 10
452.0
 20
459.0
 30
0.0
 11
452.0
 21
460.0
 31
0.0
  0
LINE
  8
0
 10
613.0
 20
460.0
 30
0.0
 11
635.0
 21
460.0
 31
0.0
  0
LINE
  8
0
 10
635.0
 20
460.0
 30
0.0
 11
635.0
 21
459.0
 31
0.0
  0
LINE
  8
0
 10
635.0
 20
459.0
 30
0.0
 11
613.0
 21
459.0
 31
0.0
  0
LINE
  8
0
 10
613.0
 20
459.0
 30
0.0
 11
613.0
 21
460.0
 31
0.0
  0
LINE
  8
0
 10
452.0
 20
459.0
 30
0.0
 11
527.0
 21
459.0
 31
0.0
  0
LINE
  8
0
 10
527.0
 20
459.0
 30
0.0
 11
527.0
 21
458.0
 31
0.0
  0
LINE
  8
0
 10
527.0
 20
458.0
 30
0.0
 11
452.0
 21
458.0
 31
0.0
  0
LINE
  8
0
 10
452.0
 20
458.0
 30
0.0
 11
452.0
 21
459.0
 31
0.0
  0
LINE
  8
0
 10
611.0
 20
459.0
 30
0.0
 11
634.0
 21
459.0
 31
0.0
  0
LINE
  8
0
 10
634.0
 20
459.0
 30
0.0
 11
634.0
 21
458.0
 31
0.0
  0
LINE
  8
0
 10
634.0
 20
458.0
 30
0.0
 11
611.0
 21
458.0
 31
0.0
  0
LINE
  8
0
 10
611.0
 20
458.0
 30
0.0
 11
611.0
 21
459.0
 31
0.0
  0
LINE
  8
0
 10
452.0
 20
458.0
 30
0.0
 11
526.0
 21
458.0
 31
0.0
  0
LINE
  8
0
 10
526.0
 20
458.0
 30
0.0
 11
526.0
 21
457.0
 31
0.0
  0
LINE
  8
0
 10
526.0
 20
457.0
 30
0.0
 11
452.0
 21
457.0
 31
0.0
  0
LINE
  8
0
 10
452.0
 20
457.0
 30
0.0
 11
452.0
 21
458.0
 31
0.0
  0
LINE
  8
0
 10
610.0
 20
458.0
 30
0.0
 11
634.0
 21
458.0
 31
0.0
  0
LINE
  8
0
 10
634.0
 20
458.0
 30
0.0
 11
634.0
 21
457.0
 31
0.0
  0
LINE
  8
0
 10
634.0
 20
457.0
 30
0.0
 11
610.0
 21
457.0
 31
0.0
  0
LINE
  8
0
 10
610.0
 20
457.0
 30
0.0
 11
610.0
 21
458.0
 31
0.0
  0
LINE
  8
0
 10
451.0
 20
457.0
 30
0.0
 11
525.0
 21
457.0
 31
0.0
  0
LINE
  8
0
 10
525.0
 20
457.0
 30
0.0
 11
525.0
 21
456.0
 31
0.0
  0
LINE
  8
0
 10
525.0
 20
456.0
 30
0.0
 11
451.0
 21
456.0
 31
0.0
  0
LINE
  8
0
 10
451.0
 20
456.0
 30
0.0
 11
451.0
 21
457.0
 31
0.0
  0
LINE
  8
0
 10
609.0
 20
457.0
 30
0.0
 11
633.0
 21
457.0
 31
0.0
  0
LINE
  8
0
 10
633.0
 20
457.0
 30
0.0
 11
633.0
 21
456.0
 31
0.0
  0
LINE
  8
0
 10
633.0
 20
456.0
 30
0.0
 11
609.0
 21
456.0
 31
0.0
  0
LINE
  8
0
 10
609.0
 20
456.0
 30
0.0
 11
609.0
 21
457.0
 31
0.0
  0
LINE
  8
0
 10
451.0
 20
456.0
 30
0.0
 11
524.0
 21
456.0
 31
0.0
  0
LINE
  8
0
 10
524.0
 20
456.0
 30
0.0
 11
524.0
 21
455.0
 31
0.0
  0
LINE
  8
0
 10
524.0
 20
455.0
 30
0.0
 11
451.0
 21
455.0
 31
0.0
  0
LINE
  8
0
 10
451.0
 20
455.0
 30
0.0
 11
451.0
 21
456.0
 31
0.0
  0
LINE
  8
0
 10
607.0
 20
456.0
 30
0.0
 11
632.0
 21
456.0
 31
0.0
  0
LINE
  8
0
 10
632.0
 20
456.0
 30
0.0
 11
632.0
 21
455.0
 31
0.0
  0
LINE
  8
0
 10
632.0
 20
455.0
 30
0.0
 11
607.0
 21
455.0
 31
0.0
  0
LINE
  8
0
 10
607.0
 20
455.0
 30
0.0
 11
607.0
 21
456.0
 31
0.0
  0
LINE
  8
0
 10
451.0
 20
455.0
 30
0.0
 11
523.0
 21
455.0
 31
0.0
  0
LINE
  8
0
 10
523.0
 20
455.0
 30
0.0
 11
523.0
 21
454.0
 31
0.0
  0
LINE
  8
0
 10
523.0
 20
454.0
 30
0.0
 11
451.0
 21
454.0
 31
0.0
  0
LINE
  8
0
 10
451.0
 20
454.0
 30
0.0
 11
451.0
 21
455.0
 31
0.0
  0
LINE
  8
0
 10
595.0
 20
455.0
 30
0.0
 11
598.0
 21
455.0
 31
0.0
  0
LINE
  8
0
 10
598.0
 20
455.0
 30
0.0
 11
598.0
 21
454.0
 31
0.0
  0
LINE
  8
0
 10
598.0
 20
454.0
 30
0.0
 11
595.0
 21
454.0
 31
0.0
  0
LINE
  8
0
 10
595.0
 20
454.0
 30
0.0
 11
595.0
 21
455.0
 31
0.0
  0
LINE
  8
0
 10
606.0
 20
455.0
 30
0.0
 11
630.0
 21
455.0
 31
0.0
  0
LINE
  8
0
 10
630.0
 20
455.0
 30
0.0
 11
630.0
 21
454.0
 31
0.0
  0
LINE
  8
0
 10
630.0
 20
454.0
 30
0.0
 11
606.0
 21
454.0
 31
0.0
  0
LINE
  8
0
 10
606.0
 20
454.0
 30
0.0
 11
606.0
 21
455.0
 31
0.0
  0
LINE
  8
0
 10
451.0
 20
454.0
 30
0.0
 11
522.0
 21
454.0
 31
0.0
  0
LINE
  8
0
 10
522.0
 20
454.0
 30
0.0
 11
522.0
 21
453.0
 31
0.0
  0
LINE
  8
0
 10
522.0
 20
453.0
 30
0.0
 11
451.0
 21
453.0
 31
0.0
  0
LINE
  8
0
 10
451.0
 20
453.0
 30
0.0
 11
451.0
 21
454.0
 31
0.0
  0
LINE
  8
0
 10
592.0
 20
454.0
 30
0.0
 11
602.0
 21
454.0
 31
0.0
  0
LINE
  8
0
 10
602.0
 20
454.0
 30
0.0
 11
602.0
 21
453.0
 31
0.0
  0
LINE
  8
0
 10
602.0
 20
453.0
 30
0.0
 11
592.0
 21
453.0
 31
0.0
  0
LINE
  8
0
 10
592.0
 20
453.0
 30
0.0
 11
592.0
 21
454.0
 31
0.0
  0
LINE
  8
0
 10
604.0
 20
454.0
 30
0.0
 11
629.0
 21
454.0
 31
0.0
  0
LINE
  8
0
 10
629.0
 20
454.0
 30
0.0
 11
629.0
 21
453.0
 31
0.0
  0
LINE
  8
0
 10
629.0
 20
453.0
 30
0.0
 11
604.0
 21
453.0
 31
0.0
  0
LINE
  8
0
 10
604.0
 20
453.0
 30
0.0
 11
604.0
 21
454.0
 31
0.0
  0
LINE
  8
0
 10
451.0
 20
453.0
 30
0.0
 11
474.0
 21
453.0
 31
0.0
  0
LINE
  8
0
 10
474.0
 20
453.0
 30
0.0
 11
474.0
 21
452.0
 31
0.0
  0
LINE
  8
0
 10
474.0
 20
452.0
 30
0.0
 11
451.0
 21
452.0
 31
0.0
  0
LINE
  8
0
 10
451.0
 20
452.0
 30
0.0
 11
451.0
 21
453.0
 31
0.0
  0
LINE
  8
0
 10
475.0
 20
453.0
 30
0.0
 11
521.0
 21
453.0
 31
0.0
  0
LINE
  8
0
 10
521.0
 20
453.0
 30
0.0
 11
521.0
 21
452.0
 31
0.0
  0
LINE
  8
0
 10
521.0
 20
452.0
 30
0.0
 11
475.0
 21
452.0
 31
0.0
  0
LINE
  8
0
 10
475.0
 20
452.0
 30
0.0
 11
475.0
 21
453.0
 31
0.0
  0
LINE
  8
0
 10
590.0
 20
453.0
 30
0.0
 11
627.0
 21
453.0
 31
0.0
  0
LINE
  8
0
 10
627.0
 20
453.0
 30
0.0
 11
627.0
 21
452.0
 31
0.0
  0
LINE
  8
0
 10
627.0
 20
452.0
 30
0.0
 11
590.0
 21
452.0
 31
0.0
  0
LINE
  8
0
 10
590.0
 20
452.0
 30
0.0
 11
590.0
 21
453.0
 31
0.0
  0
LINE
  8
0
 10
450.0
 20
452.0
 30
0.0
 11
474.0
 21
452.0
 31
0.0
  0
LINE
  8
0
 10
474.0
 20
452.0
 30
0.0
 11
474.0
 21
451.0
 31
0.0
  0
LINE
  8
0
 10
474.0
 20
451.0
 30
0.0
 11
450.0
 21
451.0
 31
0.0
  0
LINE
  8
0
 10
450.0
 20
451.0
 30
0.0
 11
450.0
 21
452.0
 31
0.0
  0
LINE
  8
0
 10
476.0
 20
452.0
 30
0.0
 11
520.0
 21
452.0
 31
0.0
  0
LINE
  8
0
 10
520.0
 20
452.0
 30
0.0
 11
520.0
 21
451.0
 31
0.0
  0
LINE
  8
0
 10
520.0
 20
451.0
 30
0.0
 11
476.0
 21
451.0
 31
0.0
  0
LINE
  8
0
 10
476.0
 20
451.0
 30
0.0
 11
476.0
 21
452.0
 31
0.0
  0
LINE
  8
0
 10
589.0
 20
452.0
 30
0.0
 11
626.0
 21
452.0
 31
0.0
  0
LINE
  8
0
 10
626.0
 20
452.0
 30
0.0
 11
626.0
 21
451.0
 31
0.0
  0
LINE
  8
0
 10
626.0
 20
451.0
 30
0.0
 11
589.0
 21
451.0
 31
0.0
  0
LINE
  8
0
 10
589.0
 20
451.0
 30
0.0
 11
589.0
 21
452.0
 31
0.0
  0
LINE
  8
0
 10
450.0
 20
451.0
 30
0.0
 11
474.0
 21
451.0
 31
0.0
  0
LINE
  8
0
 10
474.0
 20
451.0
 30
0.0
 11
474.0
 21
450.0
 31
0.0
  0
LINE
  8
0
 10
474.0
 20
450.0
 30
0.0
 11
450.0
 21
450.0
 31
0.0
  0
LINE
  8
0
 10
450.0
 20
450.0
 30
0.0
 11
450.0
 21
451.0
 31
0.0
  0
LINE
  8
0
 10
477.0
 20
451.0
 30
0.0
 11
519.0
 21
451.0
 31
0.0
  0
LINE
  8
0
 10
519.0
 20
451.0
 30
0.0
 11
519.0
 21
450.0
 31
0.0
  0
LINE
  8
0
 10
519.0
 20
450.0
 30
0.0
 11
477.0
 21
450.0
 31
0.0
  0
LINE
  8
0
 10
477.0
 20
450.0
 30
0.0
 11
477.0
 21
451.0
 31
0.0
  0
LINE
  8
0
 10
588.0
 20
451.0
 30
0.0
 11
624.0
 21
451.0
 31
0.0
  0
LINE
  8
0
 10
624.0
 20
451.0
 30
0.0
 11
624.0
 21
450.0
 31
0.0
  0
LINE
  8
0
 10
624.0
 20
450.0
 30
0.0
 11
588.0
 21
450.0
 31
0.0
  0
LINE
  8
0
 10
588.0
 20
450.0
 30
0.0
 11
588.0
 21
451.0
 31
0.0
  0
LINE
  8
0
 10
450.0
 20
450.0
 30
0.0
 11
474.0
 21
450.0
 31
0.0
  0
LINE
  8
0
 10
474.0
 20
450.0
 30
0.0
 11
474.0
 21
449.0
 31
0.0
  0
LINE
  8
0
 10
474.0
 20
449.0
 30
0.0
 11
450.0
 21
449.0
 31
0.0
  0
LINE
  8
0
 10
450.0
 20
449.0
 30
0.0
 11
450.0
 21
450.0
 31
0.0
  0
LINE
  8
0
 10
475.0
 20
450.0
 30
0.0
 11
476.0
 21
450.0
 31
0.0
  0
LINE
  8
0
 10
476.0
 20
450.0
 30
0.0
 11
476.0
 21
449.0
 31
0.0
  0
LINE
  8
0
 10
476.0
 20
449.0
 30
0.0
 11
475.0
 21
449.0
 31
0.0
  0
LINE
  8
0
 10
475.0
 20
449.0
 30
0.0
 11
475.0
 21
450.0
 31
0.0
  0
LINE
  8
0
 10
477.0
 20
450.0
 30
0.0
 11
519.0
 21
450.0
 31
0.0
  0
LINE
  8
0
 10
519.0
 20
450.0
 30
0.0
 11
519.0
 21
449.0
 31
0.0
  0
LINE
  8
0
 10
519.0
 20
449.0
 30
0.0
 11
477.0
 21
449.0
 31
0.0
  0
LINE
  8
0
 10
477.0
 20
449.0
 30
0.0
 11
477.0
 21
450.0
 31
0.0
  0
LINE
  8
0
 10
586.0
 20
450.0
 30
0.0
 11
623.0
 21
450.0
 31
0.0
  0
LINE
  8
0
 10
623.0
 20
450.0
 30
0.0
 11
623.0
 21
449.0
 31
0.0
  0
LINE
  8
0
 10
623.0
 20
449.0
 30
0.0
 11
586.0
 21
449.0
 31
0.0
  0
LINE
  8
0
 10
586.0
 20
449.0
 30
0.0
 11
586.0
 21
450.0
 31
0.0
  0
LINE
  8
0
 10
449.0
 20
449.0
 30
0.0
 11
474.0
 21
449.0
 31
0.0
  0
LINE
  8
0
 10
474.0
 20
449.0
 30
0.0
 11
474.0
 21
448.0
 31
0.0
  0
LINE
  8
0
 10
474.0
 20
448.0
 30
0.0
 11
449.0
 21
448.0
 31
0.0
  0
LINE
  8
0
 10
449.0
 20
448.0
 30
0.0
 11
449.0
 21
449.0
 31
0.0
  0
LINE
  8
0
 10
475.0
 20
449.0
 30
0.0
 11
476.0
 21
449.0
 31
0.0
  0
LINE
  8
0
 10
476.0
 20
449.0
 30
0.0
 11
476.0
 21
448.0
 31
0.0
  0
LINE
  8
0
 10
476.0
 20
448.0
 30
0.0
 11
475.0
 21
448.0
 31
0.0
  0
LINE
  8
0
 10
475.0
 20
448.0
 30
0.0
 11
475.0
 21
449.0
 31
0.0
  0
LINE
  8
0
 10
478.0
 20
449.0
 30
0.0
 11
518.0
 21
449.0
 31
0.0
  0
LINE
  8
0
 10
518.0
 20
449.0
 30
0.0
 11
518.0
 21
448.0
 31
0.0
  0
LINE
  8
0
 10
518.0
 20
448.0
 30
0.0
 11
478.0
 21
448.0
 31
0.0
  0
LINE
  8
0
 10
478.0
 20
448.0
 30
0.0
 11
478.0
 21
449.0
 31
0.0
  0
LINE
  8
0
 10
585.0
 20
449.0
 30
0.0
 11
622.0
 21
449.0
 31
0.0
  0
LINE
  8
0
 10
622.0
 20
449.0
 30
0.0
 11
622.0
 21
448.0
 31
0.0
  0
LINE
  8
0
 10
622.0
 20
448.0
 30
0.0
 11
585.0
 21
448.0
 31
0.0
  0
LINE
  8
0
 10
585.0
 20
448.0
 30
0.0
 11
585.0
 21
449.0
 31
0.0
  0
LINE
  8
0
 10
449.0
 20
448.0
 30
0.0
 11
474.0
 21
448.0
 31
0.0
  0
LINE
  8
0
 10
474.0
 20
448.0
 30
0.0
 11
474.0
 21
447.0
 31
0.0
  0
LINE
  8
0
 10
474.0
 20
447.0
 30
0.0
 11
449.0
 21
447.0
 31
0.0
  0
LINE
  8
0
 10
449.0
 20
447.0
 30
0.0
 11
449.0
 21
448.0
 31
0.0
  0
LINE
  8
0
 10
479.0
 20
448.0
 30
0.0
 11
517.0
 21
448.0
 31
0.0
  0
LINE
  8
0
 10
517.0
 20
448.0
 30
0.0
 11
517.0
 21
447.0
 31
0.0
  0
LINE
  8
0
 10
517.0
 20
447.0
 30
0.0
 11
479.0
 21
447.0
 31
0.0
  0
LINE
  8
0
 10
479.0
 20
447.0
 30
0.0
 11
479.0
 21
448.0
 31
0.0
  0
LINE
  8
0
 10
584.0
 20
448.0
 30
0.0
 11
620.0
 21
448.0
 31
0.0
  0
LINE
  8
0
 10
620.0
 20
448.0
 30
0.0
 11
620.0
 21
447.0
 31
0.0
  0
LINE
  8
0
 10
620.0
 20
447.0
 30
0.0
 11
584.0
 21
447.0
 31
0.0
  0
LINE
  8
0
 10
584.0
 20
447.0
 30
0.0
 11
584.0
 21
448.0
 31
0.0
  0
LINE
  8
0
 10
449.0
 20
447.0
 30
0.0
 11
474.0
 21
447.0
 31
0.0
  0
LINE
  8
0
 10
474.0
 20
447.0
 30
0.0
 11
474.0
 21
446.0
 31
0.0
  0
LINE
  8
0
 10
474.0
 20
446.0
 30
0.0
 11
449.0
 21
446.0
 31
0.0
  0
LINE
  8
0
 10
449.0
 20
446.0
 30
0.0
 11
449.0
 21
447.0
 31
0.0
  0
LINE
  8
0
 10
480.0
 20
447.0
 30
0.0
 11
516.0
 21
447.0
 31
0.0
  0
LINE
  8
0
 10
516.0
 20
447.0
 30
0.0
 11
516.0
 21
446.0
 31
0.0
  0
LINE
  8
0
 10
516.0
 20
446.0
 30
0.0
 11
480.0
 21
446.0
 31
0.0
  0
LINE
  8
0
 10
480.0
 20
446.0
 30
0.0
 11
480.0
 21
447.0
 31
0.0
  0
LINE
  8
0
 10
584.0
 20
447.0
 30
0.0
 11
619.0
 21
447.0
 31
0.0
  0
LINE
  8
0
 10
619.0
 20
447.0
 30
0.0
 11
619.0
 21
446.0
 31
0.0
  0
LINE
  8
0
 10
619.0
 20
446.0
 30
0.0
 11
584.0
 21
446.0
 31
0.0
  0
LINE
  8
0
 10
584.0
 20
446.0
 30
0.0
 11
584.0
 21
447.0
 31
0.0
  0
LINE
  8
0
 10
449.0
 20
446.0
 30
0.0
 11
475.0
 21
446.0
 31
0.0
  0
LINE
  8
0
 10
475.0
 20
446.0
 30
0.0
 11
475.0
 21
445.0
 31
0.0
  0
LINE
  8
0
 10
475.0
 20
445.0
 30
0.0
 11
449.0
 21
445.0
 31
0.0
  0
LINE
  8
0
 10
449.0
 20
445.0
 30
0.0
 11
449.0
 21
446.0
 31
0.0
  0
LINE
  8
0
 10
480.0
 20
446.0
 30
0.0
 11
514.0
 21
446.0
 31
0.0
  0
LINE
  8
0
 10
514.0
 20
446.0
 30
0.0
 11
514.0
 21
445.0
 31
0.0
  0
LINE
  8
0
 10
514.0
 20
445.0
 30
0.0
 11
480.0
 21
445.0
 31
0.0
  0
LINE
  8
0
 10
480.0
 20
445.0
 30
0.0
 11
480.0
 21
446.0
 31
0.0
  0
LINE
  8
0
 10
583.0
 20
446.0
 30
0.0
 11
618.0
 21
446.0
 31
0.0
  0
LINE
  8
0
 10
618.0
 20
446.0
 30
0.0
 11
618.0
 21
445.0
 31
0.0
  0
LINE
  8
0
 10
618.0
 20
445.0
 30
0.0
 11
583.0
 21
445.0
 31
0.0
  0
LINE
  8
0
 10
583.0
 20
445.0
 30
0.0
 11
583.0
 21
446.0
 31
0.0
  0
LINE
  8
0
 10
449.0
 20
445.0
 30
0.0
 11
475.0
 21
445.0
 31
0.0
  0
LINE
  8
0
 10
475.0
 20
445.0
 30
0.0
 11
475.0
 21
444.0
 31
0.0
  0
LINE
  8
0
 10
475.0
 20
444.0
 30
0.0
 11
449.0
 21
444.0
 31
0.0
  0
LINE
  8
0
 10
449.0
 20
444.0
 30
0.0
 11
449.0
 21
445.0
 31
0.0
  0
LINE
  8
0
 10
481.0
 20
445.0
 30
0.0
 11
514.0
 21
445.0
 31
0.0
  0
LINE
  8
0
 10
514.0
 20
445.0
 30
0.0
 11
514.0
 21
444.0
 31
0.0
  0
LINE
  8
0
 10
514.0
 20
444.0
 30
0.0
 11
481.0
 21
444.0
 31
0.0
  0
LINE
  8
0
 10
481.0
 20
444.0
 30
0.0
 11
481.0
 21
445.0
 31
0.0
  0
LINE
  8
0
 10
583.0
 20
445.0
 30
0.0
 11
616.0
 21
445.0
 31
0.0
  0
LINE
  8
0
 10
616.0
 20
445.0
 30
0.0
 11
616.0
 21
444.0
 31
0.0
  0
LINE
  8
0
 10
616.0
 20
444.0
 30
0.0
 11
583.0
 21
444.0
 31
0.0
  0
LINE
  8
0
 10
583.0
 20
444.0
 30
0.0
 11
583.0
 21
445.0
 31
0.0
  0
LINE
  8
0
 10
449.0
 20
444.0
 30
0.0
 11
476.0
 21
444.0
 31
0.0
  0
LINE
  8
0
 10
476.0
 20
444.0
 30
0.0
 11
476.0
 21
443.0
 31
0.0
  0
LINE
  8
0
 10
476.0
 20
443.0
 30
0.0
 11
449.0
 21
443.0
 31
0.0
  0
LINE
  8
0
 10
449.0
 20
443.0
 30
0.0
 11
449.0
 21
444.0
 31
0.0
  0
LINE
  8
0
 10
482.0
 20
444.0
 30
0.0
 11
513.0
 21
444.0
 31
0.0
  0
LINE
  8
0
 10
513.0
 20
444.0
 30
0.0
 11
513.0
 21
443.0
 31
0.0
  0
LINE
  8
0
 10
513.0
 20
443.0
 30
0.0
 11
482.0
 21
443.0
 31
0.0
  0
LINE
  8
0
 10
482.0
 20
443.0
 30
0.0
 11
482.0
 21
444.0
 31
0.0
  0
LINE
  8
0
 10
582.0
 20
444.0
 30
0.0
 11
614.0
 21
444.0
 31
0.0
  0
LINE
  8
0
 10
614.0
 20
444.0
 30
0.0
 11
614.0
 21
443.0
 31
0.0
  0
LINE
  8
0
 10
614.0
 20
443.0
 30
0.0
 11
582.0
 21
443.0
 31
0.0
  0
LINE
  8
0
 10
582.0
 20
443.0
 30
0.0
 11
582.0
 21
444.0
 31
0.0
  0
LINE
  8
0
 10
449.0
 20
443.0
 30
0.0
 11
477.0
 21
443.0
 31
0.0
  0
LINE
  8
0
 10
477.0
 20
443.0
 30
0.0
 11
477.0
 21
442.0
 31
0.0
  0
LINE
  8
0
 10
477.0
 20
442.0
 30
0.0
 11
449.0
 21
442.0
 31
0.0
  0
LINE
  8
0
 10
449.0
 20
442.0
 30
0.0
 11
449.0
 21
443.0
 31
0.0
  0
LINE
  8
0
 10
483.0
 20
443.0
 30
0.0
 11
512.0
 21
443.0
 31
0.0
  0
LINE
  8
0
 10
512.0
 20
443.0
 30
0.0
 11
512.0
 21
442.0
 31
0.0
  0
LINE
  8
0
 10
512.0
 20
442.0
 30
0.0
 11
483.0
 21
442.0
 31
0.0
  0
LINE
  8
0
 10
483.0
 20
442.0
 30
0.0
 11
483.0
 21
443.0
 31
0.0
  0
LINE
  8
0
 10
582.0
 20
443.0
 30
0.0
 11
613.0
 21
443.0
 31
0.0
  0
LINE
  8
0
 10
613.0
 20
443.0
 30
0.0
 11
613.0
 21
442.0
 31
0.0
  0
LINE
  8
0
 10
613.0
 20
442.0
 30
0.0
 11
582.0
 21
442.0
 31
0.0
  0
LINE
  8
0
 10
582.0
 20
442.0
 30
0.0
 11
582.0
 21
443.0
 31
0.0
  0
LINE
  8
0
 10
449.0
 20
442.0
 30
0.0
 11
478.0
 21
442.0
 31
0.0
  0
LINE
  8
0
 10
478.0
 20
442.0
 30
0.0
 11
478.0
 21
441.0
 31
0.0
  0
LINE
  8
0
 10
478.0
 20
441.0
 30
0.0
 11
449.0
 21
441.0
 31
0.0
  0
LINE
  8
0
 10
449.0
 20
441.0
 30
0.0
 11
449.0
 21
442.0
 31
0.0
  0
LINE
  8
0
 10
481.0
 20
442.0
 30
0.0
 11
482.0
 21
442.0
 31
0.0
  0
LINE
  8
0
 10
482.0
 20
442.0
 30
0.0
 11
482.0
 21
441.0
 31
0.0
  0
LINE
  8
0
 10
482.0
 20
441.0
 30
0.0
 11
481.0
 21
441.0
 31
0.0
  0
LINE
  8
0
 10
481.0
 20
441.0
 30
0.0
 11
481.0
 21
442.0
 31
0.0
  0
LINE
  8
0
 10
483.0
 20
442.0
 30
0.0
 11
511.0
 21
442.0
 31
0.0
  0
LINE
  8
0
 10
511.0
 20
442.0
 30
0.0
 11
511.0
 21
441.0
 31
0.0
  0
LINE
  8
0
 10
511.0
 20
441.0
 30
0.0
 11
483.0
 21
441.0
 31
0.0
  0
LINE
  8
0
 10
483.0
 20
441.0
 30
0.0
 11
483.0
 21
442.0
 31
0.0
  0
LINE
  8
0
 10
582.0
 20
442.0
 30
0.0
 11
611.0
 21
442.0
 31
0.0
  0
LINE
  8
0
 10
611.0
 20
442.0
 30
0.0
 11
611.0
 21
441.0
 31
0.0
  0
LINE
  8
0
 10
611.0
 20
441.0
 30
0.0
 11
582.0
 21
441.0
 31
0.0
  0
LINE
  8
0
 10
582.0
 20
441.0
 30
0.0
 11
582.0
 21
442.0
 31
0.0
  0
LINE
  8
0
 10
449.0
 20
441.0
 30
0.0
 11
480.0
 21
441.0
 31
0.0
  0
LINE
  8
0
 10
480.0
 20
441.0
 30
0.0
 11
480.0
 21
440.0
 31
0.0
  0
LINE
  8
0
 10
480.0
 20
440.0
 30
0.0
 11
449.0
 21
440.0
 31
0.0
  0
LINE
  8
0
 10
449.0
 20
440.0
 30
0.0
 11
449.0
 21
441.0
 31
0.0
  0
LINE
  8
0
 10
484.0
 20
441.0
 30
0.0
 11
510.0
 21
441.0
 31
0.0
  0
LINE
  8
0
 10
510.0
 20
441.0
 30
0.0
 11
510.0
 21
440.0
 31
0.0
  0
LINE
  8
0
 10
510.0
 20
440.0
 30
0.0
 11
484.0
 21
440.0
 31
0.0
  0
LINE
  8
0
 10
484.0
 20
440.0
 30
0.0
 11
484.0
 21
441.0
 31
0.0
  0
LINE
  8
0
 10
582.0
 20
441.0
 30
0.0
 11
609.0
 21
441.0
 31
0.0
  0
LINE
  8
0
 10
609.0
 20
441.0
 30
0.0
 11
609.0
 21
440.0
 31
0.0
  0
LINE
  8
0
 10
609.0
 20
440.0
 30
0.0
 11
582.0
 21
440.0
 31
0.0
  0
LINE
  8
0
 10
582.0
 20
440.0
 30
0.0
 11
582.0
 21
441.0
 31
0.0
  0
LINE
  8
0
 10
450.0
 20
440.0
 30
0.0
 11
481.0
 21
440.0
 31
0.0
  0
LINE
  8
0
 10
481.0
 20
440.0
 30
0.0
 11
481.0
 21
439.0
 31
0.0
  0
LINE
  8
0
 10
481.0
 20
439.0
 30
0.0
 11
450.0
 21
439.0
 31
0.0
  0
LINE
  8
0
 10
450.0
 20
439.0
 30
0.0
 11
450.0
 21
440.0
 31
0.0
  0
LINE
  8
0
 10
484.0
 20
440.0
 30
0.0
 11
510.0
 21
440.0
 31
0.0
  0
LINE
  8
0
 10
510.0
 20
440.0
 30
0.0
 11
510.0
 21
439.0
 31
0.0
  0
LINE
  8
0
 10
510.0
 20
439.0
 30
0.0
 11
484.0
 21
439.0
 31
0.0
  0
LINE
  8
0
 10
484.0
 20
439.0
 30
0.0
 11
484.0
 21
440.0
 31
0.0
  0
LINE
  8
0
 10
582.0
 20
440.0
 30
0.0
 11
607.0
 21
440.0
 31
0.0
  0
LINE
  8
0
 10
607.0
 20
440.0
 30
0.0
 11
607.0
 21
439.0
 31
0.0
  0
LINE
  8
0
 10
607.0
 20
439.0
 30
0.0
 11
582.0
 21
439.0
 31
0.0
  0
LINE
  8
0
 10
582.0
 20
439.0
 30
0.0
 11
582.0
 21
440.0
 31
0.0
  0
LINE
  8
0
 10
451.0
 20
439.0
 30
0.0
 11
511.0
 21
439.0
 31
0.0
  0
LINE
  8
0
 10
511.0
 20
439.0
 30
0.0
 11
511.0
 21
438.0
 31
0.0
  0
LINE
  8
0
 10
511.0
 20
438.0
 30
0.0
 11
451.0
 21
438.0
 31
0.0
  0
LINE
  8
0
 10
451.0
 20
438.0
 30
0.0
 11
451.0
 21
439.0
 31
0.0
  0
LINE
  8
0
 10
582.0
 20
439.0
 30
0.0
 11
605.0
 21
439.0
 31
0.0
  0
LINE
  8
0
 10
605.0
 20
439.0
 30
0.0
 11
605.0
 21
438.0
 31
0.0
  0
LINE
  8
0
 10
605.0
 20
438.0
 30
0.0
 11
582.0
 21
438.0
 31
0.0
  0
LINE
  8
0
 10
582.0
 20
438.0
 30
0.0
 11
582.0
 21
439.0
 31
0.0
  0
LINE
  8
0
 10
452.0
 20
438.0
 30
0.0
 11
511.0
 21
438.0
 31
0.0
  0
LINE
  8
0
 10
511.0
 20
438.0
 30
0.0
 11
511.0
 21
437.0
 31
0.0
  0
LINE
  8
0
 10
511.0
 20
437.0
 30
0.0
 11
452.0
 21
437.0
 31
0.0
  0
LINE
  8
0
 10
452.0
 20
437.0
 30
0.0
 11
452.0
 21
438.0
 31
0.0
  0
LINE
  8
0
 10
583.0
 20
438.0
 30
0.0
 11
602.0
 21
438.0
 31
0.0
  0
LINE
  8
0
 10
602.0
 20
438.0
 30
0.0
 11
602.0
 21
437.0
 31
0.0
  0
LINE
  8
0
 10
602.0
 20
437.0
 30
0.0
 11
583.0
 21
437.0
 31
0.0
  0
LINE
  8
0
 10
583.0
 20
437.0
 30
0.0
 11
583.0
 21
438.0
 31
0.0
  0
LINE
  8
0
 10
453.0
 20
437.0
 30
0.0
 11
512.0
 21
437.0
 31
0.0
  0
LINE
  8
0
 10
512.0
 20
437.0
 30
0.0
 11
512.0
 21
436.0
 31
0.0
  0
LINE
  8
0
 10
512.0
 20
436.0
 30
0.0
 11
453.0
 21
436.0
 31
0.0
  0
LINE
  8
0
 10
453.0
 20
436.0
 30
0.0
 11
453.0
 21
437.0
 31
0.0
  0
LINE
  8
0
 10
584.0
 20
437.0
 30
0.0
 11
598.0
 21
437.0
 31
0.0
  0
LINE
  8
0
 10
598.0
 20
437.0
 30
0.0
 11
598.0
 21
436.0
 31
0.0
  0
LINE
  8
0
 10
598.0
 20
436.0
 30
0.0
 11
584.0
 21
436.0
 31
0.0
  0
LINE
  8
0
 10
584.0
 20
436.0
 30
0.0
 11
584.0
 21
437.0
 31
0.0
  0
LINE
  8
0
 10
454.0
 20
436.0
 30
0.0
 11
512.0
 21
436.0
 31
0.0
  0
LINE
  8
0
 10
512.0
 20
436.0
 30
0.0
 11
512.0
 21
435.0
 31
0.0
  0
LINE
  8
0
 10
512.0
 20
435.0
 30
0.0
 11
454.0
 21
435.0
 31
0.0
  0
LINE
  8
0
 10
454.0
 20
435.0
 30
0.0
 11
454.0
 21
436.0
 31
0.0
  0
LINE
  8
0
 10
456.0
 20
435.0
 30
0.0
 11
513.0
 21
435.0
 31
0.0
  0
LINE
  8
0
 10
513.0
 20
435.0
 30
0.0
 11
513.0
 21
434.0
 31
0.0
  0
LINE
  8
0
 10
513.0
 20
434.0
 30
0.0
 11
456.0
 21
434.0
 31
0.0
  0
LINE
  8
0
 10
456.0
 20
434.0
 30
0.0
 11
456.0
 21
435.0
 31
0.0
  0
LINE
  8
0
 10
458.0
 20
434.0
 30
0.0
 11
514.0
 21
434.0
 31
0.0
  0
LINE
  8
0
 10
514.0
 20
434.0
 30
0.0
 11
514.0
 21
433.0
 31
0.0
  0
LINE
  8
0
 10
514.0
 20
433.0
 30
0.0
 11
458.0
 21
433.0
 31
0.0
  0
LINE
  8
0
 10
458.0
 20
433.0
 30
0.0
 11
458.0
 21
434.0
 31
0.0
  0
LINE
  8
0
 10
460.0
 20
433.0
 30
0.0
 11
515.0
 21
433.0
 31
0.0
  0
LINE
  8
0
 10
515.0
 20
433.0
 30
0.0
 11
515.0
 21
432.0
 31
0.0
  0
LINE
  8
0
 10
515.0
 20
432.0
 30
0.0
 11
460.0
 21
432.0
 31
0.0
  0
LINE
  8
0
 10
460.0
 20
432.0
 30
0.0
 11
460.0
 21
433.0
 31
0.0
  0
LINE
  8
0
 10
462.0
 20
432.0
 30
0.0
 11
515.0
 21
432.0
 31
0.0
  0
LINE
  8
0
 10
515.0
 20
432.0
 30
0.0
 11
515.0
 21
431.0
 31
0.0
  0
LINE
  8
0
 10
515.0
 20
431.0
 30
0.0
 11
462.0
 21
431.0
 31
0.0
  0
LINE
  8
0
 10
462.0
 20
431.0
 30
0.0
 11
462.0
 21
432.0
 31
0.0
  0
LINE
  8
0
 10
463.0
 20
431.0
 30
0.0
 11
516.0
 21
431.0
 31
0.0
  0
LINE
  8
0
 10
516.0
 20
431.0
 30
0.0
 11
516.0
 21
430.0
 31
0.0
  0
LINE
  8
0
 10
516.0
 20
430.0
 30
0.0
 11
463.0
 21
430.0
 31
0.0
  0
LINE
  8
0
 10
463.0
 20
430.0
 30
0.0
 11
463.0
 21
431.0
 31
0.0
  0
LINE
  8
0
 10
465.0
 20
430.0
 30
0.0
 11
517.0
 21
430.0
 31
0.0
  0
LINE
  8
0
 10
517.0
 20
430.0
 30
0.0
 11
517.0
 21
429.0
 31
0.0
  0
LINE
  8
0
 10
517.0
 20
429.0
 30
0.0
 11
465.0
 21
429.0
 31
0.0
  0
LINE
  8
0
 10
465.0
 20
429.0
 30
0.0
 11
465.0
 21
430.0
 31
0.0
  0
LINE
  8
0
 10
467.0
 20
429.0
 30
0.0
 11
518.0
 21
429.0
 31
0.0
  0
LINE
  8
0
 10
518.0
 20
429.0
 30
0.0
 11
518.0
 21
428.0
 31
0.0
  0
LINE
  8
0
 10
518.0
 20
428.0
 30
0.0
 11
467.0
 21
428.0
 31
0.0
  0
LINE
  8
0
 10
467.0
 20
428.0
 30
0.0
 11
467.0
 21
429.0
 31
0.0
  0
LINE
  8
0
 10
467.0
 20
428.0
 30
0.0
 11
518.0
 21
428.0
 31
0.0
  0
LINE
  8
0
 10
518.0
 20
428.0
 30
0.0
 11
518.0
 21
427.0
 31
0.0
  0
LINE
  8
0
 10
518.0
 20
427.0
 30
0.0
 11
467.0
 21
427.0
 31
0.0
  0
LINE
  8
0
 10
467.0
 20
427.0
 30
0.0
 11
467.0
 21
428.0
 31
0.0
  0
LINE
  8
0
 10
465.0
 20
427.0
 30
0.0
 11
519.0
 21
427.0
 31
0.0
  0
LINE
  8
0
 10
519.0
 20
427.0
 30
0.0
 11
519.0
 21
426.0
 31
0.0
  0
LINE
  8
0
 10
519.0
 20
426.0
 30
0.0
 11
465.0
 21
426.0
 31
0.0
  0
LINE
  8
0
 10
465.0
 20
426.0
 30
0.0
 11
465.0
 21
427.0
 31
0.0
  0
LINE
  8
0
 10
464.0
 20
426.0
 30
0.0
 11
520.0
 21
426.0
 31
0.0
  0
LINE
  8
0
 10
520.0
 20
426.0
 30
0.0
 11
520.0
 21
425.0
 31
0.0
  0
LINE
  8
0
 10
520.0
 20
425.0
 30
0.0
 11
464.0
 21
425.0
 31
0.0
  0
LINE
  8
0
 10
464.0
 20
425.0
 30
0.0
 11
464.0
 21
426.0
 31
0.0
  0
LINE
  8
0
 10
462.0
 20
425.0
 30
0.0
 11
521.0
 21
425.0
 31
0.0
  0
LINE
  8
0
 10
521.0
 20
425.0
 30
0.0
 11
521.0
 21
424.0
 31
0.0
  0
LINE
  8
0
 10
521.0
 20
424.0
 30
0.0
 11
462.0
 21
424.0
 31
0.0
  0
LINE
  8
0
 10
462.0
 20
424.0
 30
0.0
 11
462.0
 21
425.0
 31
0.0
  0
LINE
  8
0
 10
448.0
 20
424.0
 30
0.0
 11
451.0
 21
424.0
 31
0.0
  0
LINE
  8
0
 10
451.0
 20
424.0
 30
0.0
 11
451.0
 21
423.0
 31
0.0
  0
LINE
  8
0
 10
451.0
 20
423.0
 30
0.0
 11
448.0
 21
423.0
 31
0.0
  0
LINE
  8
0
 10
448.0
 20
423.0
 30
0.0
 11
448.0
 21
424.0
 31
0.0
  0
LINE
  8
0
 10
461.0
 20
424.0
 30
0.0
 11
522.0
 21
424.0
 31
0.0
  0
LINE
  8
0
 10
522.0
 20
424.0
 30
0.0
 11
522.0
 21
423.0
 31
0.0
  0
LINE
  8
0
 10
522.0
 20
423.0
 30
0.0
 11
461.0
 21
423.0
 31
0.0
  0
LINE
  8
0
 10
461.0
 20
423.0
 30
0.0
 11
461.0
 21
424.0
 31
0.0
  0
LINE
  8
0
 10
444.0
 20
423.0
 30
0.0
 11
454.0
 21
423.0
 31
0.0
  0
LINE
  8
0
 10
454.0
 20
423.0
 30
0.0
 11
454.0
 21
422.0
 31
0.0
  0
LINE
  8
0
 10
454.0
 20
422.0
 30
0.0
 11
444.0
 21
422.0
 31
0.0
  0
LINE
  8
0
 10
444.0
 20
422.0
 30
0.0
 11
444.0
 21
423.0
 31
0.0
  0
LINE
  8
0
 10
459.0
 20
423.0
 30
0.0
 11
523.0
 21
423.0
 31
0.0
  0
LINE
  8
0
 10
523.0
 20
423.0
 30
0.0
 11
523.0
 21
422.0
 31
0.0
  0
LINE
  8
0
 10
523.0
 20
422.0
 30
0.0
 11
459.0
 21
422.0
 31
0.0
  0
LINE
  8
0
 10
459.0
 20
422.0
 30
0.0
 11
459.0
 21
423.0
 31
0.0
  0
LINE
  8
0
 10
442.0
 20
422.0
 30
0.0
 11
524.0
 21
422.0
 31
0.0
  0
LINE
  8
0
 10
524.0
 20
422.0
 30
0.0
 11
524.0
 21
421.0
 31
0.0
  0
LINE
  8
0
 10
524.0
 20
421.0
 30
0.0
 11
442.0
 21
421.0
 31
0.0
  0
LINE
  8
0
 10
442.0
 20
421.0
 30
0.0
 11
442.0
 21
422.0
 31
0.0
  0
LINE
  8
0
 10
441.0
 20
421.0
 30
0.0
 11
525.0
 21
421.0
 31
0.0
  0
LINE
  8
0
 10
525.0
 20
421.0
 30
0.0
 11
525.0
 21
420.0
 31
0.0
  0
LINE
  8
0
 10
525.0
 20
420.0
 30
0.0
 11
441.0
 21
420.0
 31
0.0
  0
LINE
  8
0
 10
441.0
 20
420.0
 30
0.0
 11
441.0
 21
421.0
 31
0.0
  0
LINE
  8
0
 10
440.0
 20
420.0
 30
0.0
 11
526.0
 21
420.0
 31
0.0
  0
LINE
  8
0
 10
526.0
 20
420.0
 30
0.0
 11
526.0
 21
419.0
 31
0.0
  0
LINE
  8
0
 10
526.0
 20
419.0
 30
0.0
 11
440.0
 21
419.0
 31
0.0
  0
LINE
  8
0
 10
440.0
 20
419.0
 30
0.0
 11
440.0
 21
420.0
 31
0.0
  0
LINE
  8
0
 10
439.0
 20
419.0
 30
0.0
 11
482.0
 21
419.0
 31
0.0
  0
LINE
  8
0
 10
482.0
 20
419.0
 30
0.0
 11
482.0
 21
418.0
 31
0.0
  0
LINE
  8
0
 10
482.0
 20
418.0
 30
0.0
 11
439.0
 21
418.0
 31
0.0
  0
LINE
  8
0
 10
439.0
 20
418.0
 30
0.0
 11
439.0
 21
419.0
 31
0.0
  0
LINE
  8
0
 10
486.0
 20
419.0
 30
0.0
 11
528.0
 21
419.0
 31
0.0
  0
LINE
  8
0
 10
528.0
 20
419.0
 30
0.0
 11
528.0
 21
418.0
 31
0.0
  0
LINE
  8
0
 10
528.0
 20
418.0
 30
0.0
 11
486.0
 21
418.0
 31
0.0
  0
LINE
  8
0
 10
486.0
 20
418.0
 30
0.0
 11
486.0
 21
419.0
 31
0.0
  0
LINE
  8
0
 10
438.0
 20
418.0
 30
0.0
 11
480.0
 21
418.0
 31
0.0
  0
LINE
  8
0
 10
480.0
 20
418.0
 30
0.0
 11
480.0
 21
417.0
 31
0.0
  0
LINE
  8
0
 10
480.0
 20
417.0
 30
0.0
 11
438.0
 21
417.0
 31
0.0
  0
LINE
  8
0
 10
438.0
 20
417.0
 30
0.0
 11
438.0
 21
418.0
 31
0.0
  0
LINE
  8
0
 10
488.0
 20
418.0
 30
0.0
 11
529.0
 21
418.0
 31
0.0
  0
LINE
  8
0
 10
529.0
 20
418.0
 30
0.0
 11
529.0
 21
417.0
 31
0.0
  0
LINE
  8
0
 10
529.0
 20
417.0
 30
0.0
 11
488.0
 21
417.0
 31
0.0
  0
LINE
  8
0
 10
488.0
 20
417.0
 30
0.0
 11
488.0
 21
418.0
 31
0.0
  0
LINE
  8
0
 10
437.0
 20
417.0
 30
0.0
 11
478.0
 21
417.0
 31
0.0
  0
LINE
  8
0
 10
478.0
 20
417.0
 30
0.0
 11
478.0
 21
416.0
 31
0.0
  0
LINE
  8
0
 10
478.0
 20
416.0
 30
0.0
 11
437.0
 21
416.0
 31
0.0
  0
LINE
  8
0
 10
437.0
 20
416.0
 30
0.0
 11
437.0
 21
417.0
 31
0.0
  0
LINE
  8
0
 10
489.0
 20
417.0
 30
0.0
 11
531.0
 21
417.0
 31
0.0
  0
LINE
  8
0
 10
531.0
 20
417.0
 30
0.0
 11
531.0
 21
416.0
 31
0.0
  0
LINE
  8
0
 10
531.0
 20
416.0
 30
0.0
 11
489.0
 21
416.0
 31
0.0
  0
LINE
  8
0
 10
489.0
 20
416.0
 30
0.0
 11
489.0
 21
417.0
 31
0.0
  0
LINE
  8
0
 10
436.0
 20
416.0
 30
0.0
 11
476.0
 21
416.0
 31
0.0
  0
LINE
  8
0
 10
476.0
 20
416.0
 30
0.0
 11
476.0
 21
415.0
 31
0.0
  0
LINE
  8
0
 10
476.0
 20
415.0
 30
0.0
 11
436.0
 21
415.0
 31
0.0
  0
LINE
  8
0
 10
436.0
 20
415.0
 30
0.0
 11
436.0
 21
416.0
 31
0.0
  0
LINE
  8
0
 10
491.0
 20
416.0
 30
0.0
 11
533.0
 21
416.0
 31
0.0
  0
LINE
  8
0
 10
533.0
 20
416.0
 30
0.0
 11
533.0
 21
415.0
 31
0.0
  0
LINE
  8
0
 10
533.0
 20
415.0
 30
0.0
 11
491.0
 21
415.0
 31
0.0
  0
LINE
  8
0
 10
491.0
 20
415.0
 30
0.0
 11
491.0
 21
416.0
 31
0.0
  0
LINE
  8
0
 10
436.0
 20
415.0
 30
0.0
 11
474.0
 21
415.0
 31
0.0
  0
LINE
  8
0
 10
474.0
 20
415.0
 30
0.0
 11
474.0
 21
414.0
 31
0.0
  0
LINE
  8
0
 10
474.0
 20
414.0
 30
0.0
 11
436.0
 21
414.0
 31
0.0
  0
LINE
  8
0
 10
436.0
 20
414.0
 30
0.0
 11
436.0
 21
415.0
 31
0.0
  0
LINE
  8
0
 10
494.0
 20
415.0
 30
0.0
 11
534.0
 21
415.0
 31
0.0
  0
LINE
  8
0
 10
534.0
 20
415.0
 30
0.0
 11
534.0
 21
414.0
 31
0.0
  0
LINE
  8
0
 10
534.0
 20
414.0
 30
0.0
 11
494.0
 21
414.0
 31
0.0
  0
LINE
  8
0
 10
494.0
 20
414.0
 30
0.0
 11
494.0
 21
415.0
 31
0.0
  0
LINE
  8
0
 10
435.0
 20
414.0
 30
0.0
 11
472.0
 21
414.0
 31
0.0
  0
LINE
  8
0
 10
472.0
 20
414.0
 30
0.0
 11
472.0
 21
413.0
 31
0.0
  0
LINE
  8
0
 10
472.0
 20
413.0
 30
0.0
 11
435.0
 21
413.0
 31
0.0
  0
LINE
  8
0
 10
435.0
 20
413.0
 30
0.0
 11
435.0
 21
414.0
 31
0.0
  0
LINE
  8
0
 10
496.0
 20
414.0
 30
0.0
 11
536.0
 21
414.0
 31
0.0
  0
LINE
  8
0
 10
536.0
 20
414.0
 30
0.0
 11
536.0
 21
413.0
 31
0.0
  0
LINE
  8
0
 10
536.0
 20
413.0
 30
0.0
 11
496.0
 21
413.0
 31
0.0
  0
LINE
  8
0
 10
496.0
 20
413.0
 30
0.0
 11
496.0
 21
414.0
 31
0.0
  0
LINE
  8
0
 10
435.0
 20
413.0
 30
0.0
 11
470.0
 21
413.0
 31
0.0
  0
LINE
  8
0
 10
470.0
 20
413.0
 30
0.0
 11
470.0
 21
412.0
 31
0.0
  0
LINE
  8
0
 10
470.0
 20
412.0
 30
0.0
 11
435.0
 21
412.0
 31
0.0
  0
LINE
  8
0
 10
435.0
 20
412.0
 30
0.0
 11
435.0
 21
413.0
 31
0.0
  0
LINE
  8
0
 10
499.0
 20
413.0
 30
0.0
 11
538.0
 21
413.0
 31
0.0
  0
LINE
  8
0
 10
538.0
 20
413.0
 30
0.0
 11
538.0
 21
412.0
 31
0.0
  0
LINE
  8
0
 10
538.0
 20
412.0
 30
0.0
 11
499.0
 21
412.0
 31
0.0
  0
LINE
  8
0
 10
499.0
 20
412.0
 30
0.0
 11
499.0
 21
413.0
 31
0.0
  0
LINE
  8
0
 10
434.0
 20
412.0
 30
0.0
 11
468.0
 21
412.0
 31
0.0
  0
LINE
  8
0
 10
468.0
 20
412.0
 30
0.0
 11
468.0
 21
411.0
 31
0.0
  0
LINE
  8
0
 10
468.0
 20
411.0
 30
0.0
 11
434.0
 21
411.0
 31
0.0
  0
LINE
  8
0
 10
434.0
 20
411.0
 30
0.0
 11
434.0
 21
412.0
 31
0.0
  0
LINE
  8
0
 10
501.0
 20
412.0
 30
0.0
 11
540.0
 21
412.0
 31
0.0
  0
LINE
  8
0
 10
540.0
 20
412.0
 30
0.0
 11
540.0
 21
411.0
 31
0.0
  0
LINE
  8
0
 10
540.0
 20
411.0
 30
0.0
 11
501.0
 21
411.0
 31
0.0
  0
LINE
  8
0
 10
501.0
 20
411.0
 30
0.0
 11
501.0
 21
412.0
 31
0.0
  0
LINE
  8
0
 10
434.0
 20
411.0
 30
0.0
 11
466.0
 21
411.0
 31
0.0
  0
LINE
  8
0
 10
466.0
 20
411.0
 30
0.0
 11
466.0
 21
410.0
 31
0.0
  0
LINE
  8
0
 10
466.0
 20
410.0
 30
0.0
 11
434.0
 21
410.0
 31
0.0
  0
LINE
  8
0
 10
434.0
 20
410.0
 30
0.0
 11
434.0
 21
411.0
 31
0.0
  0
LINE
  8
0
 10
503.0
 20
411.0
 30
0.0
 11
541.0
 21
411.0
 31
0.0
  0
LINE
  8
0
 10
541.0
 20
411.0
 30
0.0
 11
541.0
 21
410.0
 31
0.0
  0
LINE
  8
0
 10
541.0
 20
410.0
 30
0.0
 11
503.0
 21
410.0
 31
0.0
  0
LINE
  8
0
 10
503.0
 20
410.0
 30
0.0
 11
503.0
 21
411.0
 31
0.0
  0
LINE
  8
0
 10
434.0
 20
410.0
 30
0.0
 11
464.0
 21
410.0
 31
0.0
  0
LINE
  8
0
 10
464.0
 20
410.0
 30
0.0
 11
464.0
 21
409.0
 31
0.0
  0
LINE
  8
0
 10
464.0
 20
409.0
 30
0.0
 11
434.0
 21
409.0
 31
0.0
  0
LINE
  8
0
 10
434.0
 20
409.0
 30
0.0
 11
434.0
 21
410.0
 31
0.0
  0
LINE
  8
0
 10
506.0
 20
410.0
 30
0.0
 11
543.0
 21
410.0
 31
0.0
  0
LINE
  8
0
 10
543.0
 20
410.0
 30
0.0
 11
543.0
 21
409.0
 31
0.0
  0
LINE
  8
0
 10
543.0
 20
409.0
 30
0.0
 11
506.0
 21
409.0
 31
0.0
  0
LINE
  8
0
 10
506.0
 20
409.0
 30
0.0
 11
506.0
 21
410.0
 31
0.0
  0
LINE
  8
0
 10
434.0
 20
409.0
 30
0.0
 11
462.0
 21
409.0
 31
0.0
  0
LINE
  8
0
 10
462.0
 20
409.0
 30
0.0
 11
462.0
 21
408.0
 31
0.0
  0
LINE
  8
0
 10
462.0
 20
408.0
 30
0.0
 11
434.0
 21
408.0
 31
0.0
  0
LINE
  8
0
 10
434.0
 20
408.0
 30
0.0
 11
434.0
 21
409.0
 31
0.0
  0
LINE
  8
0
 10
509.0
 20
409.0
 30
0.0
 11
545.0
 21
409.0
 31
0.0
  0
LINE
  8
0
 10
545.0
 20
409.0
 30
0.0
 11
545.0
 21
408.0
 31
0.0
  0
LINE
  8
0
 10
545.0
 20
408.0
 30
0.0
 11
509.0
 21
408.0
 31
0.0
  0
LINE
  8
0
 10
509.0
 20
408.0
 30
0.0
 11
509.0
 21
409.0
 31
0.0
  0
LINE
  8
0
 10
435.0
 20
408.0
 30
0.0
 11
460.0
 21
408.0
 31
0.0
  0
LINE
  8
0
 10
460.0
 20
408.0
 30
0.0
 11
460.0
 21
407.0
 31
0.0
  0
LINE
  8
0
 10
460.0
 20
407.0
 30
0.0
 11
435.0
 21
407.0
 31
0.0
  0
LINE
  8
0
 10
435.0
 20
407.0
 30
0.0
 11
435.0
 21
408.0
 31
0.0
  0
LINE
  8
0
 10
511.0
 20
408.0
 30
0.0
 11
547.0
 21
408.0
 31
0.0
  0
LINE
  8
0
 10
547.0
 20
408.0
 30
0.0
 11
547.0
 21
407.0
 31
0.0
  0
LINE
  8
0
 10
547.0
 20
407.0
 30
0.0
 11
511.0
 21
407.0
 31
0.0
  0
LINE
  8
0
 10
511.0
 20
407.0
 30
0.0
 11
511.0
 21
408.0
 31
0.0
  0
LINE
  8
0
 10
435.0
 20
407.0
 30
0.0
 11
457.0
 21
407.0
 31
0.0
  0
LINE
  8
0
 10
457.0
 20
407.0
 30
0.0
 11
457.0
 21
406.0
 31
0.0
  0
LINE
  8
0
 10
457.0
 20
406.0
 30
0.0
 11
435.0
 21
406.0
 31
0.0
  0
LINE
  8
0
 10
435.0
 20
406.0
 30
0.0
 11
435.0
 21
407.0
 31
0.0
  0
LINE
  8
0
 10
514.0
 20
407.0
 30
0.0
 11
550.0
 21
407.0
 31
0.0
  0
LINE
  8
0
 10
550.0
 20
407.0
 30
0.0
 11
550.0
 21
406.0
 31
0.0
  0
LINE
  8
0
 10
550.0
 20
406.0
 30
0.0
 11
514.0
 21
406.0
 31
0.0
  0
LINE
  8
0
 10
514.0
 20
406.0
 30
0.0
 11
514.0
 21
407.0
 31
0.0
  0
LINE
  8
0
 10
437.0
 20
406.0
 30
0.0
 11
452.0
 21
406.0
 31
0.0
  0
LINE
  8
0
 10
452.0
 20
406.0
 30
0.0
 11
452.0
 21
405.0
 31
0.0
  0
LINE
  8
0
 10
452.0
 20
405.0
 30
0.0
 11
437.0
 21
405.0
 31
0.0
  0
LINE
  8
0
 10
437.0
 20
405.0
 30
0.0
 11
437.0
 21
406.0
 31
0.0
  0
LINE
  8
0
 10
516.0
 20
406.0
 30
0.0
 11
554.0
 21
406.0
 31
0.0
  0
LINE
  8
0
 10
554.0
 20
406.0
 30
0.0
 11
554.0
 21
405.0
 31
0.0
  0
LINE
  8
0
 10
554.0
 20
405.0
 30
0.0
 11
516.0
 21
405.0
 31
0.0
  0
LINE
  8
0
 10
516.0
 20
405.0
 30
0.0
 11
516.0
 21
406.0
 31
0.0
  0
LINE
  8
0
 10
518.0
 20
405.0
 30
0.0
 11
567.0
 21
405.0
 31
0.0
  0
LINE
  8
0
 10
567.0
 20
405.0
 30
0.0
 11
567.0
 21
404.0
 31
0.0
  0
LINE
  8
0
 10
567.0
 20
404.0
 30
0.0
 11
518.0
 21
404.0
 31
0.0
  0
LINE
  8
0
 10
518.0
 20
404.0
 30
0.0
 11
518.0
 21
405.0
 31
0.0
  0
LINE
  8
0
 10
521.0
 20
404.0
 30
0.0
 11
570.0
 21
404.0
 31
0.0
  0
LINE
  8
0
 10
570.0
 20
404.0
 30
0.0
 11
570.0
 21
403.0
 31
0.0
  0
LINE
  8
0
 10
570.0
 20
403.0
 30
0.0
 11
521.0
 21
403.0
 31
0.0
  0
LINE
  8
0
 10
521.0
 20
403.0
 30
0.0
 11
521.0
 21
404.0
 31
0.0
  0
LINE
  8
0
 10
523.0
 20
403.0
 30
0.0
 11
571.0
 21
403.0
 31
0.0
  0
LINE
  8
0
 10
571.0
 20
403.0
 30
0.0
 11
571.0
 21
402.0
 31
0.0
  0
LINE
  8
0
 10
571.0
 20
402.0
 30
0.0
 11
523.0
 21
402.0
 31
0.0
  0
LINE
  8
0
 10
523.0
 20
402.0
 30
0.0
 11
523.0
 21
403.0
 31
0.0
  0
LINE
  8
0
 10
525.0
 20
402.0
 30
0.0
 11
573.0
 21
402.0
 31
0.0
  0
LINE
  8
0
 10
573.0
 20
402.0
 30
0.0
 11
573.0
 21
401.0
 31
0.0
  0
LINE
  8
0
 10
573.0
 20
401.0
 30
0.0
 11
525.0
 21
401.0
 31
0.0
  0
LINE
  8
0
 10
525.0
 20
401.0
 30
0.0
 11
525.0
 21
402.0
 31
0.0
  0
LINE
  8
0
 10
527.0
 20
401.0
 30
0.0
 11
574.0
 21
401.0
 31
0.0
  0
LINE
  8
0
 10
574.0
 20
401.0
 30
0.0
 11
574.0
 21
400.0
 31
0.0
  0
LINE
  8
0
 10
574.0
 20
400.0
 30
0.0
 11
527.0
 21
400.0
 31
0.0
  0
LINE
  8
0
 10
527.0
 20
400.0
 30
0.0
 11
527.0
 21
401.0
 31
0.0
  0
LINE
  8
0
 10
529.0
 20
400.0
 30
0.0
 11
574.0
 21
400.0
 31
0.0
  0
LINE
  8
0
 10
574.0
 20
400.0
 30
0.0
 11
574.0
 21
399.0
 31
0.0
  0
LINE
  8
0
 10
574.0
 20
399.0
 30
0.0
 11
529.0
 21
399.0
 31
0.0
  0
LINE
  8
0
 10
529.0
 20
399.0
 30
0.0
 11
529.0
 21
400.0
 31
0.0
  0
LINE
  8
0
 10
531.0
 20
399.0
 30
0.0
 11
574.0
 21
399.0
 31
0.0
  0
LINE
  8
0
 10
574.0
 20
399.0
 30
0.0
 11
574.0
 21
398.0
 31
0.0
  0
LINE
  8
0
 10
574.0
 20
398.0
 30
0.0
 11
531.0
 21
398.0
 31
0.0
  0
LINE
  8
0
 10
531.0
 20
398.0
 30
0.0
 11
531.0
 21
399.0
 31
0.0
  0
LINE
  8
0
 10
533.0
 20
398.0
 30
0.0
 11
574.0
 21
398.0
 31
0.0
  0
LINE
  8
0
 10
574.0
 20
398.0
 30
0.0
 11
574.0
 21
397.0
 31
0.0
  0
LINE
  8
0
 10
574.0
 20
397.0
 30
0.0
 11
533.0
 21
397.0
 31
0.0
  0
LINE
  8
0
 10
533.0
 20
397.0
 30
0.0
 11
533.0
 21
398.0
 31
0.0
  0
LINE
  8
0
 10
535.0
 20
397.0
 30
0.0
 11
574.0
 21
397.0
 31
0.0
  0
LINE
  8
0
 10
574.0
 20
397.0
 30
0.0
 11
574.0
 21
396.0
 31
0.0
  0
LINE
  8
0
 10
574.0
 20
396.0
 30
0.0
 11
535.0
 21
396.0
 31
0.0
  0
LINE
  8
0
 10
535.0
 20
396.0
 30
0.0
 11
535.0
 21
397.0
 31
0.0
  0
LINE
  8
0
 10
537.0
 20
396.0
 30
0.0
 11
573.0
 21
396.0
 31
0.0
  0
LINE
  8
0
 10
573.0
 20
396.0
 30
0.0
 11
573.0
 21
395.0
 31
0.0
  0
LINE
  8
0
 10
573.0
 20
395.0
 30
0.0
 11
537.0
 21
395.0
 31
0.0
  0
LINE
  8
0
 10
537.0
 20
395.0
 30
0.0
 11
537.0
 21
396.0
 31
0.0
  0
LINE
  8
0
 10
539.0
 20
395.0
 30
0.0
 11
572.0
 21
395.0
 31
0.0
  0
LINE
  8
0
 10
572.0
 20
395.0
 30
0.0
 11
572.0
 21
394.0
 31
0.0
  0
LINE
  8
0
 10
572.0
 20
394.0
 30
0.0
 11
539.0
 21
394.0
 31
0.0
  0
LINE
  8
0
 10
539.0
 20
394.0
 30
0.0
 11
539.0
 21
395.0
 31
0.0
  0
LINE
  8
0
 10
540.0
 20
394.0
 30
0.0
 11
571.0
 21
394.0
 31
0.0
  0
LINE
  8
0
 10
571.0
 20
394.0
 30
0.0
 11
571.0
 21
393.0
 31
0.0
  0
LINE
  8
0
 10
571.0
 20
393.0
 30
0.0
 11
540.0
 21
393.0
 31
0.0
  0
LINE
  8
0
 10
540.0
 20
393.0
 30
0.0
 11
540.0
 21
394.0
 31
0.0
  0
LINE
  8
0
 10
542.0
 20
393.0
 30
0.0
 11
570.0
 21
393.0
 31
0.0
  0
LINE
  8
0
 10
570.0
 20
393.0
 30
0.0
 11
570.0
 21
392.0
 31
0.0
  0
LINE
  8
0
 10
570.0
 20
392.0
 30
0.0
 11
542.0
 21
392.0
 31
0.0
  0
LINE
  8
0
 10
542.0
 20
392.0
 30
0.0
 11
542.0
 21
393.0
 31
0.0
  0
LINE
  8
0
 10
543.0
 20
392.0
 30
0.0
 11
568.0
 21
392.0
 31
0.0
  0
LINE
  8
0
 10
568.0
 20
392.0
 30
0.0
 11
568.0
 21
391.0
 31
0.0
  0
LINE
  8
0
 10
568.0
 20
391.0
 30
0.0
 11
543.0
 21
391.0
 31
0.0
  0
LINE
  8
0
 10
543.0
 20
391.0
 30
0.0
 11
543.0
 21
392.0
 31
0.0
  0
LINE
  8
0
 10
546.0
 20
391.0
 30
0.0
 11
562.0
 21
391.0
 31
0.0
  0
LINE
  8
0
 10
562.0
 20
391.0
 30
0.0
 11
562.0
 21
390.0
 31
0.0
  0
LINE
  8
0
 10
562.0
 20
390.0
 30
0.0
 11
546.0
 21
390.0
 31
0.0
  0
LINE
  8
0
 10
546.0
 20
390.0
 30
0.0
 11
546.0
 21
391.0
 31
0.0
  0
LINE
  8
0
 10
549.0
 20
390.0
 30
0.0
 11
561.0
 21
390.0
 31
0.0
  0
LINE
  8
0
 10
561.0
 20
390.0
 30
0.0
 11
561.0
 21
389.0
 31
0.0
  0
LINE
  8
0
 10
561.0
 20
389.0
 30
0.0
 11
549.0
 21
389.0
 31
0.0
  0
LINE
  8
0
 10
549.0
 20
389.0
 30
0.0
 11
549.0
 21
390.0
 31
0.0
  0
LINE
  8
0
 10
554.0
 20
389.0
 30
0.0
 11
557.0
 21
389.0
 31
0.0
  0
LINE
  8
0
 10
557.0
 20
389.0
 30
0.0
 11
557.0
 21
388.0
 31
0.0
  0
LINE
  8
0
 10
557.0
 20
388.0
 30
0.0
 11
554.0
 21
388.0
 31
0.0
  0
LINE
  8
0
 10
554.0
 20
388.0
 30
0.0
 11
554.0
 21
389.0
 31
0.0
  0
ENDSEC
  0
EOF